<svg xmlns="http://www.w3.org/2000/svg" width="40.839" height="54.827" viewBox="0 0 40.839 54.827"><path d="M93.347,30.285c.389-.184.779-.378,1.146-.584a17.54,17.54,0,0,0,6.077-5.8c5.352-8.185,4.866-20.155,3.73-22.8A1.747,1.747,0,0,0,102.376.063a18.533,18.533,0,0,0-7.45,4.228,22.749,22.749,0,0,0-6.985,10.391,20.5,20.5,0,0,0,.335,12.683c.087.259.173.519.27.779a17.4,17.4,0,0,1-3.5.3h-.022a18.22,18.22,0,0,1-3.5-.3c.1-.26.184-.519.27-.779a20.5,20.5,0,0,0,.335-12.683A22.953,22.953,0,0,0,75.139,4.291,18.456,18.456,0,0,0,67.689.052,1.747,1.747,0,0,0,65.764,1.09c-1.135,2.66-1.622,14.63,3.73,22.8a17.54,17.54,0,0,0,6.077,5.8c.378.205.757.411,1.146.584a44.249,44.249,0,0,1-7.688,9.915,1.792,1.792,0,0,0-.508,1.427c.238,2.454,2.044,5.558,4.628,7.9a17.755,17.755,0,0,0,23.766,0c2.573-2.346,4.39-5.45,4.628-7.9a1.792,1.792,0,0,0-.508-1.427A43.971,43.971,0,0,1,93.347,30.285ZM91.282,15.709a19.258,19.258,0,0,1,5.925-8.747,19.8,19.8,0,0,1,4.2-2.833,30.793,30.793,0,0,1-.011,5.947,26.7,26.7,0,0,1-3.73,11.862,13.819,13.819,0,0,1-5.785,5.125A17.138,17.138,0,0,1,91.282,15.709ZM72.414,21.948a26.782,26.782,0,0,1-3.73-11.862,30.8,30.8,0,0,1-.011-5.947,20.1,20.1,0,0,1,4.206,2.833A19.366,19.366,0,0,1,78.8,15.72a17.236,17.236,0,0,1-.584,11.364A13.844,13.844,0,0,1,72.414,21.948Zm12.618,28.6c-7.677,0-11.991-5.6-12.867-8.52a45.817,45.817,0,0,0,7.882-10.6,20.975,20.975,0,0,0,4.963.541h.022A20.975,20.975,0,0,0,90,31.431a45.591,45.591,0,0,0,7.882,10.6C97.024,44.947,92.709,50.548,85.032,50.548Z" transform="translate(-64.613 0.369)" fill="#fff" stroke="#fff" stroke-width=".75"/></svg>