<svg xmlns="http://www.w3.org/2000/svg" width="36.09" height="35.249" viewBox="0 0 36.09 35.249"><path d="M24.144,8a2.676,2.676,0,0,0-2.662,2.649V28.184L19.3,26.321l1.469-4.066A1.261,1.261,0,1,0,18.4,21.4L16.642,26.3a1.259,1.259,0,0,0,.367,1.39L21.482,31.5V36.04a2.678,2.678,0,0,0,2.6,2.636l-7.738,2.046c-.1.028-.16,0-.184-.092L9.521,16.1c-.025-.093,0-.143.1-.17l9.167-2.426a1.261,1.261,0,1,0-.643-2.439L8.97,13.508a2.673,2.673,0,0,0-1.875,3.252l6.636,24.525A2.692,2.692,0,0,0,17,43.161l15.725-4.184a2.723,2.723,0,0,0,.734-.3h6.977a2.675,2.675,0,0,0,2.662-2.636V10.649A2.676,2.676,0,0,0,40.433,8Zm0,2.518H40.433c.107,0,.144.04.144.131V36.04c0,.091-.021.118-.144.118H24.144c-.123,0-.144-.027-.144-.118V10.649C24,10.558,24.037,10.518,24.144,10.518ZM26.2,11.541a1.18,1.18,0,1,0,1.18,1.18A1.17,1.17,0,0,0,26.2,11.541ZM11.895,16.485a1.187,1.187,0,0,0-.236.039,1.182,1.182,0,0,0,.616,2.282,1.188,1.188,0,0,0,.826-1.456A1.171,1.171,0,0,0,11.895,16.485Zm20.394.092a3.794,3.794,0,0,0-3.764,3.777c0,.019.013.033.013.052a3.767,3.767,0,0,0,1.456,7.239,3.506,3.506,0,0,0,1.036-.157v1.351a1.259,1.259,0,1,0,2.518,0V27.489a3.5,3.5,0,0,0,1.036.157,3.763,3.763,0,0,0,1.443-7.239c0-.019.013-.033.013-.052A3.783,3.783,0,0,0,32.288,16.577Zm0,2.518a1.228,1.228,0,0,1,1.233,1.259,1.214,1.214,0,0,1-.1.5,1.259,1.259,0,0,0,1.167,1.771,1.253,1.253,0,1,1-1.141,1.731,1.259,1.259,0,0,0-2.321,0,1.22,1.22,0,0,1-1.128.774,1.252,1.252,0,0,1,0-2.5,1.259,1.259,0,0,0,1.167-1.771A1.231,1.231,0,0,1,32.288,19.1ZM38.36,32.787a1.18,1.18,0,1,0,1.18,1.18A1.17,1.17,0,0,0,38.36,32.787Z" transform="translate(-7.005 -8)" fill="#fff"/></svg>