<svg height="42" viewBox="0 0 42 42" width="42" xmlns="http://www.w3.org/2000/svg"><g stroke="#000"><rect height="40" rx="10" stroke="none" width="40" x="1" y="1"/><rect fill="none" height="41" rx="10.5" width="41" x=".5" y=".5"/></g><rect fill="#0069f9" height="40" rx="10" width="40" x="1" y="1"/><path d="m20.716 8a2.141 2.141 0 0 0 -2.13 2.119v14.028l-1.742-1.49 1.176-3.257a1.009 1.009 0 1 0 -1.9-.682l-1.406 3.913a1.007 1.007 0 0 0 .294 1.112l3.578 3.057v3.63a2.142 2.142 0 0 0 2.077 2.109l-6.19 1.637c-.083.022-.128 0-.147-.073l-5.308-19.619c-.02-.074 0-.115.084-.136l7.334-1.941a1.009 1.009 0 1 0 -.514-1.951l-7.345 1.951a2.138 2.138 0 0 0 -1.5 2.6l5.309 19.62a2.154 2.154 0 0 0 2.614 1.502l12.58-3.347a2.179 2.179 0 0 0 .588-.241h5.582a2.14 2.14 0 0 0 2.13-2.109v-20.313a2.141 2.141 0 0 0 -2.133-2.119zm0 2.014h13.031c.085 0 .115.032.115.1v20.318c0 .073-.017.094-.115.094h-13.031c-.1 0-.115-.021-.115-.094v-20.313c-.001-.073.03-.105.115-.105zm1.647.818a.944.944 0 1 0 .944.944.936.936 0 0 0 -.944-.943zm-11.446 3.956a.95.95 0 0 0 -.189.031.946.946 0 0 0 .493 1.826.95.95 0 0 0 .661-1.165.937.937 0 0 0 -.965-.692zm16.315.073a3.035 3.035 0 0 0 -3.011 3.022c0 .015.01.027.01.042a3.013 3.013 0 0 0 1.169 5.792 2.8 2.8 0 0 0 .829-.126v1.081a1.007 1.007 0 1 0 2.015 0v-1.081a2.8 2.8 0 0 0 .829.126 3.011 3.011 0 0 0 1.154-5.792c0-.015.01-.027.01-.042a3.026 3.026 0 0 0 -3.005-3.021zm0 2.014a.983.983 0 0 1 .986 1.007.971.971 0 0 1 -.084.4 1.007 1.007 0 0 0 .934 1.416 1 1 0 1 1 -.913 1.385 1.007 1.007 0 0 0 -1.857 0 .976.976 0 0 1 -.9.619 1 1 0 0 1 0-2 1.007 1.007 0 0 0 .934-1.416.985.985 0 0 1 .9-1.406zm4.857 10.955a.944.944 0 1 0 .944.944.936.936 0 0 0 -.944-.944z" fill="#fff" transform="translate(-1.438 -.104)"/></svg>