<svg viewBox="0 0 22 24" version="1.1" xmlns="http://www.w3.org/2000/svg" xmlns:xlink="http://www.w3.org/1999/xlink" xmlns:sketch="http://www.bohemiancoding.com/sketch/ns">
  <g id="Page-1" stroke="none" stroke-width="1" fill-rule="evenodd" sketch:type="MSPage">
    <g id="AIA_text_formatting" sketch:type="MSArtboardGroup" transform="translate(-1179.000000, -10.000000)" >
      <g id="Fill-59-+-Fill-61-Copy" sketch:type="MSLayerGroup" transform="translate(1179.000000, 10.000000)">
        <path d="M16.5002,7 C16.2242,7 16.0002,6.776 16.0002,6.5 L16.0002,1.148 L21.0872,7 L16.5002,7 Z M18.5002,10 L8.5002,10 C8.2242,10 8.0002,9.776 8.0002,9.5 C8.0002,9.224 8.2242,9 8.5002,9 L18.5002,9 C18.7762,9 19.0002,9.224 19.0002,9.5 C19.0002,9.776 18.7762,10 18.5002,10 L18.5002,10 Z M8.5002,6 L14.5002,6 C14.7762,6 15.0002,6.224 15.0002,6.5 C15.0002,6.776 14.7762,7 14.5002,7 L8.5002,7 C8.2242,7 8.0002,6.776 8.0002,6.5 C8.0002,6.224 8.2242,6 8.5002,6 L8.5002,6 Z M8.5002,3 L14.5002,3 C14.7762,3 15.0002,3.224 15.0002,3.5 C15.0002,3.776 14.7762,4 14.5002,4 L8.5002,4 C8.2242,4 8.0002,3.776 8.0002,3.5 C8.0002,3.224 8.2242,3 8.5002,3 L8.5002,3 Z M21.8842,6.18 L16.8842,0.18 C16.7892,0.066 16.6482,0 16.5002,0 L5.5002,0 C5.2242,0 5.0002,0.224 5.0002,0.5 L5.0002,10 L6.5002,10 C6.8982,10 7.2792,10.159 7.5612,10.44 L9.1212,12 L17.5002,12 C18.3292,12 19.0002,12.671 19.0002,13.5 L19.0002,22 L21.5002,22 C21.7762,22 22.0002,21.776 22.0002,21.5 L22.0002,6.5 C22.0002,6.383 21.9592,6.27 21.8842,6.18 L21.8842,6.18 Z" id="Fill-59" sketch:type="MSShapeGroup"></path>
        <path d="M17.5002,13 L8.7072,13 L6.8542,11.146 C6.7602,11.053 6.6332,11 6.5002,11 L0.5002,11 C0.2242,11 0.0002,11.224 0.0002,11.5 L0.0002,23.5 C0.0002,23.776 0.2242,24 0.5002,24 L17.5002,24 C17.7762,24 18.0002,23.776 18.0002,23.5 L18.0002,13.5 C18.0002,13.224 17.7762,13 17.5002,13" id="Fill-61" sketch:type="MSShapeGroup"></path>
      </g>
    </g>
  </g>
</svg>
