<svg viewBox="0 0 22 28" version="1.1" xmlns="http://www.w3.org/2000/svg" xmlns:xlink="http://www.w3.org/1999/xlink" xmlns:sketch="http://www.bohemiancoding.com/sketch/ns">
  <g id="Page-1" stroke="none" stroke-width="1" fill="none" fill-rule="evenodd" sketch:type="MSPage">
    <g id="AIA_text_formatting" sketch:type="MSArtboardGroup" transform="translate(-1141.000000, -59.000000)" fill="#FFFFFF">
      <g id="Fill-3-Copy-+-Article-+-2015-04-28---Resilie" sketch:type="MSLayerGroup" transform="translate(1141.000000, 57.000000)">
        <g id="Fill-3-Copy" transform="translate(0.250208, 1.000000)" sketch:type="MSShapeGroup">
          <path d="M12.8333333,9.279304 L12.8333333,2.319304 L19.8333333,9.279304 L12.8333333,9.279304 Z M15.75,13.919304 L5.25,13.919304 C4.928,13.919304 4.66666667,13.659464 4.66666667,13.339304 C4.66666667,13.019144 4.928,12.759304 5.25,12.759304 L15.75,12.759304 C16.072,12.759304 16.3333333,13.019144 16.3333333,13.339304 C16.3333333,13.659464 16.072,13.919304 15.75,13.919304 L15.75,13.919304 Z M15.75,17.399304 L5.25,17.399304 C4.928,17.399304 4.66666667,17.139464 4.66666667,16.819304 C4.66666667,16.499144 4.928,16.239304 5.25,16.239304 L15.75,16.239304 C16.072,16.239304 16.3333333,16.499144 16.3333333,16.819304 C16.3333333,17.139464 16.072,17.399304 15.75,17.399304 L15.75,17.399304 Z M15.75,20.879304 L5.25,20.879304 C4.928,20.879304 4.66666667,20.619464 4.66666667,20.299304 C4.66666667,19.979144 4.928,19.719304 5.25,19.719304 L15.75,19.719304 C16.072,19.719304 16.3333333,19.979144 16.3333333,20.299304 C16.3333333,20.619464 16.072,20.879304 15.75,20.879304 L15.75,20.879304 Z M15.75,24.359304 L5.25,24.359304 C4.928,24.359304 4.66666667,24.099464 4.66666667,23.779304 C4.66666667,23.459144 4.928,23.199304 5.25,23.199304 L15.75,23.199304 C16.072,23.199304 16.3333333,23.459144 16.3333333,23.779304 C16.3333333,24.099464 16.072,24.359304 15.75,24.359304 L15.75,24.359304 Z M5.25,9.279304 L10.5,9.279304 C10.822,9.279304 11.0833333,9.539144 11.0833333,9.859304 C11.0833333,10.179464 10.822,10.439304 10.5,10.439304 L5.25,10.439304 C4.928,10.439304 4.66666667,10.179464 4.66666667,9.859304 C4.66666667,9.539144 4.928,9.279304 5.25,9.279304 L5.25,9.279304 Z M20.8296667,8.289824 L13.8296667,1.329824 C13.72,1.220784 13.5706667,1.159304 13.4166667,1.159304 L0.583333333,1.159304 C0.261333333,1.159304 0,1.419144 0,1.739304 L0,28.419304 C0,28.739464 0.261333333,28.999304 0.583333333,28.999304 L20.4166667,28.999304 C20.7386667,28.999304 21,28.739464 21,28.419304 L21,8.699304 C21,8.545024 20.9381667,8.397704 20.8296667,8.289824 L20.8296667,8.289824 Z" id="Fill-3"></path>
        </g>
      </g>
    </g>
  </g>
</svg>

