<svg viewBox="0 0 18 24" version="1.1" xmlns="http://www.w3.org/2000/svg" xmlns:xlink="http://www.w3.org/1999/xlink" xmlns:sketch="http://www.bohemiancoding.com/sketch/ns">
    <g id="Page-1" stroke="none" stroke-width="1" fill-rule="evenodd" sketch:type="MSPage">
      <g id="AIA_text_formatting" sketch:type="MSArtboardGroup" transform="translate(-225.000000, -9.000000)" >
        <g id="Group-+-Editor-+-Rectangle-51-+-Rectangle-51-Copy-+-ON" sketch:type="MSLayerGroup" transform="translate(195.000000, 0.000000)">
          <g id="Group" sketch:type="MSShapeGroup">
            <g id="Rectangle-21-Copy-2-+-Page-+-Fill-1" transform="translate(1.000000, 0.000000)">
              <g id="Page-+-Fill-1" transform="translate(29.000000, 9.000000)">
                <g id="Fill-1">
                  <path d="M11,7 L11,1 L17,7 L11,7 Z M17.854,6.147 L11.854,0.147 C11.76,0.053 11.632,0 11.5,0 L0.5,0 C0.224,0 0,0.224 0,0.5 L0,23.5 C0,23.776 0.224,24 0.5,24 L17.5,24 C17.776,24 18,23.776 18,23.5 L18,6.5 C18,6.367 17.947,6.24 17.854,6.147 L17.854,6.147 Z"></path>
                </g>
              </g>
            </g>
          </g>
        </g>
      </g>
    </g>
</svg>
