<svg viewBox="0 0 8 7" version="1.1" xmlns="http://www.w3.org/2000/svg" xmlns:xlink="http://www.w3.org/1999/xlink" xmlns:sketch="http://www.bohemiancoding.com/sketch/ns">
  <g id="Page-1" stroke="none" stroke-width="1" fill-rule="evenodd" sketch:type="MSPage">
    <g id="AIA_select_type_tag" sketch:type="MSArtboardGroup" transform="translate(-1415.000000, -120.000000)" >
      <g id="Rectangle-32-+-Fill-43-Copy-12" sketch:type="MSLayerGroup" transform="translate(1411.000000, 115.000000)">
        <path d="M8.09587395,11.8821596 L11.8980027,8.12084708 C11.9294636,8.08972628 11.9473466,8.04734903 11.9473466,8.00331641 L11.9473466,5.16536459 C11.9473466,5.09848799 11.9069443,5.03823283 11.845016,5.01274026 C11.7834189,4.98691662 11.712218,5.00115273 11.66453,5.048165 L7.97897199,8.72604725 L4.28215432,5.05081358 C4.23479743,5.00347024 4.16359652,4.9895652 4.10166828,5.01505777 C4.04007121,5.04088141 4,5.10113657 4,5.16801317 L4,8.00596499 C4,8.0499976 4.01788302,8.09270593 4.04934389,8.12349566 L7.86339469,11.8824906 C7.9276411,11.9460565 8.03162755,11.9457254 8.09587395,11.8821596" id="Fill-43-Copy-11" sketch:type="MSShapeGroup"></path>
      </g>
    </g>
  </g>
</svg>
