<svg viewBox="0 0 13 18" version="1.1" xmlns="http://www.w3.org/2000/svg" xmlns:xlink="http://www.w3.org/1999/xlink" xmlns:sketch="http://www.bohemiancoding.com/sketch/ns">
  <g id="Page-1" stroke="none" stroke-width="1" fill-rule="evenodd" sketch:type="MSPage">
    <g id="AIA_text_formatting" sketch:type="MSArtboardGroup" transform="translate(-1140.000000, -12.000000)" >
      <g id="Fill-2151-+-Fill-2152-Copy" sketch:type="MSLayerGroup" transform="translate(1140.000000, 12.000000)">
        <path d="M12.66526,8.0883 L9.94186,3.6003 L3.48046,3.6003 L0.80326,8.0901 C0.75226,8.1759 0.74686,8.2815 0.78946,8.3715 L5.23726,17.8281 C5.28646,17.9331 5.39266,18.0003 5.50846,18.0003 L6.40846,18.0003 L6.40846,9.3003 C6.40846,9.2895 6.41386,9.2811 6.41446,9.2709 C5.72686,9.1341 5.20846,8.5281 5.20846,7.8003 C5.20846,6.9723 5.88046,6.3003 6.70846,6.3003 C7.53706,6.3003 8.20846,6.9723 8.20846,7.8003 C8.20846,8.5281 7.69006,9.1341 7.00246,9.2709 C7.00366,9.2811 7.00846,9.2895 7.00846,9.3003 L7.00846,18.0003 L7.90846,18.0003 C8.02426,18.0003 8.12986,17.9337 8.17966,17.8293 L12.67966,8.3727 C12.72286,8.2815 12.71746,8.1747 12.66526,8.0883" id="Fill-2151" sketch:type="MSShapeGroup"></path>
        <path d="M3.47902,3.0003 L9.89422,3.0003 L11.17702,0.4347 C11.22382,0.3417 11.21842,0.2313 11.16382,0.1425 C11.10922,0.0543 11.01262,0.0003 10.90882,0.0003 L2.20882,0.0003 C2.10082,0.0003 2.00062,0.0585 1.94782,0.1527 C1.89442,0.2469 1.89562,0.3621 1.95142,0.4545 L3.47902,3.0003 Z" id="Fill-2152" sketch:type="MSShapeGroup"></path>
      </g>
    </g>
  </g>
</svg>
