<svg xmlns="http://www.w3.org/2000/svg" width="388.574" height="230" viewBox="0 0 388.574 230">
  <g id="Group_12841" data-name="Group 12841" transform="translate(-639.784 -1533.06)">
    <path id="Path_12652" data-name="Path 12652" d="M2139.2,2322.27l-25.4,25.4-.136-.136v.272l-.018.019h.018v25.265h25.556l-25.265-25.265H2139.2Z" transform="translate(-1187.509 -635.876)"/>
    <path id="Path_12653" data-name="Path 12653" d="M1534.8,2347.631h-25.236l25.556,25.555v-.1h25.333l-.291.29v25.556l25.555-25.556v-25.555l-25.154,25.154-25.154-25.154h24.752l25.555-25.556h-25.555Z" transform="translate(-700.797 -635.876)"/>
    <path id="Path_12654" data-name="Path 12654" d="M1927.088,2610.893l-25.555-25.556v25.556Z" transform="translate(-1016.607 -847.833)"/>
    <path id="Path_12655" data-name="Path 12655" d="M2113.645,2610.893l25.555-25.556h-25.555Z" transform="translate(-1187.509 -847.833)"/>
    <path id="Path_12656" data-name="Path 12656" d="M2508.151,2190.734v25.556h25.555Z" transform="translate(-1505.367 -529.896)"/>
    <path id="Path_12657" data-name="Path 12657" d="M2296.289,2216.29h-25.555l-25.556-25.556v25.556l25.556,25.555h0V2267.4h25.555l-25.555-25.556Z" transform="translate(-1293.487 -529.896)"/>
    <path id="Path_12658" data-name="Path 12658" d="M2508.248,2479.263v25.555l25.459-25.459h.1V2453.8l-25.459,25.459Z" transform="translate(-1505.446 -741.855)"/>
    <path id="Path_12659" data-name="Path 12659" d="M2270.734,2609.4v-25.555h-25.556Z" transform="translate(-1293.487 -846.629)"/>
    <path id="Path_12660" data-name="Path 12660" d="M2270.734,1847.24h25.555l-25.555-25.555h25.537v-25.556l-25.555,25.555h-25.537l25.556,25.556-25.556,25.556h25.556Z" transform="translate(-1293.487 -211.958)"/>
    <path id="Path_12661" data-name="Path 12661" d="M2508.248,2084.755,2533.8,2059.2h-25.556Z" transform="translate(-1505.446 -423.917)"/>
    <path id="Path_12662" data-name="Path 12662" d="M2508.248,1927.665l25.556,25.555v-25.555Z" transform="translate(-1505.446 -317.938)"/>
    <path id="Path_12663" data-name="Path 12663" d="M1795.554,1730.363,1770,1755.919h51.111Z" transform="translate(-910.628 -158.97)"/>
    <path id="Path_12664" data-name="Path 12664" d="M1901.532,2453.8v25.555l25.555-25.555Z" transform="translate(-1016.607 -741.855)"/>
    <path id="Path_12665" data-name="Path 12665" d="M2095.3,2037.05h-36.141l14.929,14.929-14.929,14.929H2095.3l-14.929-14.929Z" transform="translate(-1143.61 -406.071)"/>
    <path id="Path_12666" data-name="Path 12666" d="M1927.088,2216.29v-25.556l-25.555,25.556Z" transform="translate(-1016.607 -529.896)"/>
    <path id="Path_12667" data-name="Path 12667" d="M1927.087,1953.22v-25.555l-25.556,25.555h0v25.556Z" transform="translate(-1016.606 -317.938)"/>
    <path id="Path_12668" data-name="Path 12668" d="M1770,1927.665v25.555h25.556Z" transform="translate(-910.628 -317.938)"/>
    <path id="Path_12669" data-name="Path 12669" d="M2033.067,2190.734v25.555h25.556Z" transform="translate(-1122.586 -529.896)"/>
    <path id="Path_12670" data-name="Path 12670" d="M2215.925,1558.809v-25.556h-25.556l25.362,25.362h-25.343l-25.556-25.556v25.547H2139.3V1533.06H2113.74l25.546,25.547h0l25.546,25.546-.019.019h25.555l25.459-25.459Zm-51.083,25.334v-25.527h25.527Z" transform="translate(-1187.585)"/>
    <path id="Path_12671" data-name="Path 12671" d="M1970.438,1584.171v-25.556h0l-25.555-25.555v25.556h0Z" transform="translate(-1051.535)"/>
    <path id="Path_12672" data-name="Path 12672" d="M2097.139,1730.372l-.009-.009v.019l-25.537,25.537,25.555,25.556v-25.556h25.537l-25.537-25.537v-.019Z" transform="translate(-1153.627 -158.969)"/>
    <path id="Path_12673" data-name="Path 12673" d="M902.853,1533.061l25.555,25.556v-25.556Z" transform="translate(-211.958 0)"/>
    <path id="Path_12674" data-name="Path 12674" d="M1114.965,1533.062l25.556,25.555v-25.555Z" transform="translate(-382.86 -0.002)"/>
    <path id="Path_12675" data-name="Path 12675" d="M928.408,1664.6l-25.555,25.555,25.555,25.556V1664.6Z" transform="translate(-211.958 -105.98)"/>
    <path id="Path_12676" data-name="Path 12676" d="M665.436,1640.767v-51.092l18.052,18.052v-36.141l-18.07,18.071.009.009-25.546,25.546Z" transform="translate(-0.078 -31.04)"/>
    <path id="Path_12677" data-name="Path 12677" d="M1378.034,1926.96v25.556l25.555-25.556Z" transform="translate(-594.818 -317.371)"/>
    <path id="Path_12678" data-name="Path 12678" d="M902.853,1927.665v25.556l25.555-25.556Z" transform="translate(-211.958 -317.938)"/>
    <path id="Path_12679" data-name="Path 12679" d="M928.4,2347.815l.009.01v-.019l25.537-25.537H902.853l25.537,25.537v.019Z" transform="translate(-211.958 -635.876)"/>
    <path id="Path_12680" data-name="Path 12680" d="M1034.387,1957.523h36.141l-14.929-14.929,14.929-14.929h-36.141l14.93,14.929Z" transform="translate(-317.937 -317.938)"/>
    <path id="Path_12681" data-name="Path 12681" d="M1204.352,2640.439h36.141l-18.07-18.071Z" transform="translate(-454.88 -877.67)"/>
    <path id="Path_12682" data-name="Path 12682" d="M639.784,1953.22h25.555v-25.556Z" transform="translate(0 -317.938)"/>
    <path id="Path_12683" data-name="Path 12683" d="M665.339,2084.755,639.784,2059.2v25.555Z" transform="translate(0 -423.917)"/>
    <path id="Path_12684" data-name="Path 12684" d="M1140.521,1690.152v25.556l22.455-22.455h23.509V1667.7l-22.455,22.455h-23.509l25.555-25.555h-51.111Z" transform="translate(-382.86 -105.98)"/>
    <path id="Path_12685" data-name="Path 12685" d="M1233.53,2282.057l25.556-25.556h-51.111Z" transform="translate(-457.799 -582.886)"/>
    <path id="Path_12686" data-name="Path 12686" d="M1403.589,1533.061h-25.556v25.556Z" transform="translate(-594.817 0)"/>
    <path id="Path_12687" data-name="Path 12687" d="M1535.124,2610.893v-25.556l-25.555,25.556Z" transform="translate(-700.797 -847.833)"/>
    <path id="Path_12688" data-name="Path 12688" d="M1666.658,2084.754V2059.2l-25.555,25.556v25.556Z" transform="translate(-806.776 -423.917)"/>
    <path id="Path_12689" data-name="Path 12689" d="M1246.5,1953.221v25.555l25.556-25.555h0v-25.556Z" transform="translate(-488.839 -317.938)"/>
    <path id="Path_12690" data-name="Path 12690" d="M690.895,2110.312H665.358l25.555-25.556h25.518l18.07,18.071v-36.142l-18.061,18.061L690.895,2059.2v25.555H665.358v25.556h-.019l-25.555,25.556h25.477L639.9,2161.229l-.1-.1v25.556h25.555L640,2161.326h25.362v-25.477Z" transform="translate(0 -423.918)"/>
    <path id="Path_12691" data-name="Path 12691" d="M639.784,1533.061v25.555l25.556-25.556Z" transform="translate(0 0)"/>
    <path id="Path_12692" data-name="Path 12692" d="M1403.589,2059.2h-25.556l25.556,25.555v25.556l25.555-25.556h-25.555Z" transform="translate(-594.817 -423.918)"/>
    <path id="Path_12693" data-name="Path 12693" d="M771.318,2059.2l25.556,25.555V2059.2Z" transform="translate(-105.979 -423.917)"/>
    <path id="Path_12694" data-name="Path 12694" d="M1535.124,1952.516V1926.96h-25.555Z" transform="translate(-700.797 -317.371)"/>
    <path id="Path_12695" data-name="Path 12695" d="M1174.7,2429.287l16.683-16.684h-25.556v33.367h25.555Z" transform="translate(-423.839 -708.659)"/>
    <path id="Path_12696" data-name="Path 12696" d="M822.507,2478.668h-.175l-25.362-25.362v25.555H771.414l25.556,25.555v-.193l25.361-25.362h.194l-.1-.1.078-.078,25.537,25.537v-25.556H822.507Z" transform="translate(-106.057 -741.454)"/>
    <path id="Path_12697" data-name="Path 12697" d="M1547.313,1587.272l18.07-18.071h0v-35.78l25.194,25.195h0l-25.556,25.555h.513v25.419h25.556l-25.419-25.418h24.906v-25.362l25.555-25.555h-25.555v-.193h-25.555l.181.181-17.89,17.89Z" transform="translate(-731.208)"/>
    <path id="Path_12698" data-name="Path 12698" d="M1378.034,2453.8v25.556l25.555,25.556v-25.556Z" transform="translate(-594.818 -741.854)"/>
  </g>
</svg>
