<svg style="position: absolute; width: 0; height: 0;" width="0" height="0" version="1.1" xmlns="http://www.w3.org/2000/svg" xmlns:xlink="http://www.w3.org/1999/xlink">

  <symbol id="cardstack-icon" viewBox="0 0 28 28"><path d="M0 0h28v28H0V0zm25 14l-10.417 9H3l4.747-4.1h6.94l5.672-4.9H25zm0-5l-10.417 9H3l4.747-4.1h6.94L20.359 9H25zm0-5l-10.417 9H3l10.42-9H25z" fill="#FFF" fill-rule="evenodd"/></symbol>

  <symbol id="page" viewBox="0 0 18 24" version="1.1" xmlns="http://www.w3.org/2000/svg" xmlns:xlink="http://www.w3.org/1999/xlink" xmlns:sketch="http://www.bohemiancoding.com/sketch/ns">
    <g id="Page-1" stroke="none" stroke-width="1" fill-rule="evenodd" sketch:type="MSPage">
      <g id="AIA_text_formatting" sketch:type="MSArtboardGroup" transform="translate(-225.000000, -9.000000)" >
        <g id="Group-+-Editor-+-Rectangle-51-+-Rectangle-51-Copy-+-ON" sketch:type="MSLayerGroup" transform="translate(195.000000, 0.000000)">
          <g id="Group" sketch:type="MSShapeGroup">
            <g id="Rectangle-21-Copy-2-+-Page-+-Fill-1" transform="translate(1.000000, 0.000000)">
              <g id="Page-+-Fill-1" transform="translate(29.000000, 9.000000)">
                <g id="Fill-1">
                  <path d="M11,7 L11,1 L17,7 L11,7 Z M17.854,6.147 L11.854,0.147 C11.76,0.053 11.632,0 11.5,0 L0.5,0 C0.224,0 0,0.224 0,0.5 L0,23.5 C0,23.776 0.224,24 0.5,24 L17.5,24 C17.776,24 18,23.776 18,23.5 L18,6.5 C18,6.367 17.947,6.24 17.854,6.147 L17.854,6.147 Z"></path>
                </g>
              </g>
            </g>
          </g>
        </g>
      </g>
    </g>
  </symbol>
  <symbol id="tiles" viewBox="0 0 20 24" version="1.1" xmlns="http://www.w3.org/2000/svg" xmlns:xlink="http://www.w3.org/1999/xlink" xmlns:sketch="http://www.bohemiancoding.com/sketch/ns">
    <g id="Page-1" stroke="none" stroke-width="1" fill-rule="evenodd" sketch:type="MSPage">
      <g id="AIA_text_formatting" sketch:type="MSArtboardGroup" transform="translate(-344.000000, -10.000000)" >
        <g id="Group-+-Editor-+-Rectangle-51-+-Rectangle-51-Copy-+-ON" sketch:type="MSLayerGroup" transform="translate(195.000000, 0.000000)">
          <g id="Group" sketch:type="MSShapeGroup">
            <g transform="translate(149.000000, 9.000000)">
              <path d="M5,4.9994 L5,1.9994 L8,4.9994 L5,4.9994 Z M5.853,1.1464 C5.76,1.0524 5.632,0.9994 5.5,0.9994 L0.5,0.9994 C0.224,0.9994 0,1.2234 0,1.4994 L0,11.4994 C0,11.7754 0.224,11.9994 0.5,11.9994 L8.5,11.9994 C8.776,11.9994 9,11.7754 9,11.4994 L9,4.4994 C9,4.3664 8.947,4.2394 8.853,4.1464 L5.853,1.1464 Z" id="Fill-25"></path>
              <path d="M16,4.9994 L16,1.9994 L19,4.9994 L16,4.9994 Z M19.853,4.1464 L16.853,1.1464 C16.76,1.0524 16.632,0.9994 16.5,0.9994 L11.5,0.9994 C11.224,0.9994 11,1.2234 11,1.4994 L11,11.4994 C11,11.7754 11.224,11.9994 11.5,11.9994 L19.5,11.9994 C19.776,11.9994 20,11.7754 20,11.4994 L20,4.4994 C20,4.3664 19.947,4.2394 19.853,4.1464 L19.853,4.1464 Z" id="Fill-27"></path>
              <path d="M5,17.9994 L5,14.9994 L8,17.9994 L5,17.9994 Z M5.853,14.1464 C5.76,14.0524 5.632,13.9994 5.5,13.9994 L0.5,13.9994 C0.224,13.9994 0,14.2234 0,14.4994 L0,24.4994 C0,24.7754 0.224,24.9994 0.5,24.9994 L8.5,24.9994 C8.776,24.9994 9,24.7754 9,24.4994 L9,17.4994 C9,17.3664 8.947,17.2394 8.853,17.1464 L5.853,14.1464 Z" id="Fill-29"></path>
              <path d="M16,17.9994 L16,14.9994 L19,17.9994 L16,17.9994 Z M16.853,14.1464 C16.76,14.0524 16.632,13.9994 16.5,13.9994 L11.5,13.9994 C11.224,13.9994 11,14.2234 11,14.4994 L11,24.4994 C11,24.7754 11.224,24.9994 11.5,24.9994 L19.5,24.9994 C19.776,24.9994 20,24.7754 20,24.4994 L20,17.4994 C20,17.3664 19.947,17.2394 19.853,17.1464 L16.853,14.1464 Z" id="Fill-31"></path>
            </g>
          </g>
        </g>
      </g>
    </g>
  </symbol>

  <symbol id="write" viewBox="0 0 20 20" version="1.1" xmlns="http://www.w3.org/2000/svg" xmlns:xlink="http://www.w3.org/1999/xlink">
    <g fill-rule="nonzero" transform="translate(-3.000000, -3.000000)">
      <path d="M17 5.414l-12 12V21h3.586l12-12L17 5.414zm.707-2.121l5 5a1 1 0 0 1 0 1.414l-13 13A1 1 0 0 1 9 23H4a1 1 0 0 1-1-1v-5a1 1 0 0 1 .293-.707l13-13a1 1 0 0 1 1.414 0z"></path>
    </g>
  </symbol>

  <symbol id="done" viewBox="0 0 18 13" version="1.1" xmlns="http://www.w3.org/2000/svg" xmlns:xlink="http://www.w3.org/1999/xlink">
    <linearGradient id="gradient-fill" x1="31.472%" x2="64.238%" y1="-22.474%" y2="114.386%">
      <stop offset="0%" stop-color="#3023AE"/>
      <stop offset="100%" stop-color="#C86DD7"/>
    </linearGradient>
    <g id="Symbols" stroke="none" stroke-width="1" fill-rule="nonzero">
      <g id="icon/check" transform="translate(-4.000000, -7.000000)">
        <path d="M10,17.5857864 L20.2928932,7.29289322 C20.6834175,6.90236893 21.3165825,6.90236893 21.7071068,7.29289322 C22.0976311,7.68341751 22.0976311,8.31658249 21.7071068,8.70710678 L10.7071068,19.7071068 C10.3165825,20.0976311 9.68341751,20.0976311 9.29289322,19.7071068 L4.29289322,14.7071068 C3.90236893,14.3165825 3.90236893,13.6834175 4.29289322,13.2928932 C4.68341751,12.9023689 5.31658249,12.9023689 5.70710678,13.2928932 L10,17.5857864 Z"></path>
      </g>
    </g>
  </symbol>

  <symbol id="archive" viewBox="0 0 22 24" version="1.1" xmlns="http://www.w3.org/2000/svg" xmlns:xlink="http://www.w3.org/1999/xlink" xmlns:sketch="http://www.bohemiancoding.com/sketch/ns">
    <g id="Page-1" stroke="none" stroke-width="1" fill-rule="evenodd" sketch:type="MSPage">
      <g id="AIA_text_formatting" sketch:type="MSArtboardGroup" transform="translate(-1179.000000, -10.000000)" >
        <g id="Fill-59-+-Fill-61-Copy" sketch:type="MSLayerGroup" transform="translate(1179.000000, 10.000000)">
          <path d="M16.5002,7 C16.2242,7 16.0002,6.776 16.0002,6.5 L16.0002,1.148 L21.0872,7 L16.5002,7 Z M18.5002,10 L8.5002,10 C8.2242,10 8.0002,9.776 8.0002,9.5 C8.0002,9.224 8.2242,9 8.5002,9 L18.5002,9 C18.7762,9 19.0002,9.224 19.0002,9.5 C19.0002,9.776 18.7762,10 18.5002,10 L18.5002,10 Z M8.5002,6 L14.5002,6 C14.7762,6 15.0002,6.224 15.0002,6.5 C15.0002,6.776 14.7762,7 14.5002,7 L8.5002,7 C8.2242,7 8.0002,6.776 8.0002,6.5 C8.0002,6.224 8.2242,6 8.5002,6 L8.5002,6 Z M8.5002,3 L14.5002,3 C14.7762,3 15.0002,3.224 15.0002,3.5 C15.0002,3.776 14.7762,4 14.5002,4 L8.5002,4 C8.2242,4 8.0002,3.776 8.0002,3.5 C8.0002,3.224 8.2242,3 8.5002,3 L8.5002,3 Z M21.8842,6.18 L16.8842,0.18 C16.7892,0.066 16.6482,0 16.5002,0 L5.5002,0 C5.2242,0 5.0002,0.224 5.0002,0.5 L5.0002,10 L6.5002,10 C6.8982,10 7.2792,10.159 7.5612,10.44 L9.1212,12 L17.5002,12 C18.3292,12 19.0002,12.671 19.0002,13.5 L19.0002,22 L21.5002,22 C21.7762,22 22.0002,21.776 22.0002,21.5 L22.0002,6.5 C22.0002,6.383 21.9592,6.27 21.8842,6.18 L21.8842,6.18 Z" id="Fill-59" sketch:type="MSShapeGroup"></path>
          <path d="M17.5002,13 L8.7072,13 L6.8542,11.146 C6.7602,11.053 6.6332,11 6.5002,11 L0.5002,11 C0.2242,11 0.0002,11.224 0.0002,11.5 L0.0002,23.5 C0.0002,23.776 0.2242,24 0.5002,24 L17.5002,24 C17.7762,24 18.0002,23.776 18.0002,23.5 L18.0002,13.5 C18.0002,13.224 17.7762,13 17.5002,13" id="Fill-61" sketch:type="MSShapeGroup"></path>
        </g>
      </g>
    </g>
  </symbol>

  <symbol id="article" viewBox="0 0 18 22" version="1.1" xmlns="http://www.w3.org/2000/svg" xmlns:xlink="http://www.w3.org/1999/xlink" xmlns:sketch="http://www.bohemiancoding.com/sketch/ns">
    <g id="01-Editing,-properties-panel" stroke="none" stroke-width="1" fill-rule="evenodd">
        <g id="04-Edit-mode" transform="translate(-1133.000000, -124.000000)">
            <g id="icon/page" transform="translate(1129.000000, 122.000000)">
              <path d="M19.948088,2 C20.3194685,2 20.6602609,2.20581284 20.8331374,2.53450294 L21.8850494,4.53450294 C21.9605492,4.6780506 22,4.83780832 22,5 L22,21 C22,22.6568542 20.6568542,24 19,24 L7,24 C5.34314575,24 4,22.6568542 4,21 L4,5 C4,3.34314575 5.34314575,2 7,2 L19.948088,2 Z M19.3441636,4 L7,4 C6.44771525,4 6,4.44771525 6,5 L6,21 C6,21.5522847 6.44771525,22 7,22 L19,22 C19.5522847,22 20,21.5522847 20,21 L20,5.24694157 L19.3441636,4 Z M17,13 C17.5522847,13 18,13.4477153 18,14 C18,14.5522847 17.5522847,15 17,15 L9,15 C8.44771525,15 8,14.5522847 8,14 C8,13.4477153 8.44771525,13 9,13 L17,13 Z M13,17 C13.5522847,17 14,17.4477153 14,18 C14,18.5522847 13.5522847,19 13,19 L9,19 C8.44771525,19 8,18.5522847 8,18 C8,17.4477153 8.44771525,17 9,17 L13,17 Z M8,7 L18,7 L18,11 L8,11 L8,7 Z" id="path-1"></path>
            </g>
        </g>
    </g>
    </g>
  </symbol>

  <symbol id="toggle-arrow" viewBox="0 0 6 10" xmlns="http://www.w3.org/2000/svg" xmlns:xlink="http://www.w3.org/1999/xlink">
    <g id="Symbols" stroke="none" stroke-width="1" fill-rule="evenodd">
      <g id="icon/chevron-right" transform="translate(-10.000000, -8.000000)">
        <polygon points="16.0722747 10.263618 17.3787511 11.777923 12.7255129 15.7925343 8.07227473 11.777923 9.37875111 10.263618 12.7255129 13.1510584"></polygon>
      </g>
    </g>
  </symbol>

  <symbol id="create" xmlns="http://www.w3.org/2000/svg" xmlns:xlink="http://www.w3.org/1999/xlink" viewBox="0 0 16 16">
    <g stroke="none" fill-rule="nonzero" transform="translate(-5.000000, -5.000000)">
      <path d="M14,12 L20,12 C20.5522847,12 21,12.4477153 21,13 C21,13.5522847 20.5522847,14 20,14 L14,14 L14,20 C14,20.5522847 13.5522847,21 13,21 C12.4477153,21 12,20.5522847 12,20 L12,14 L6,14 C5.44771525,14 5,13.5522847 5,13 C5,12.4477153 5.44771525,12 6,12 L12,12 L12,6 C12,5.44771525 12.4477153,5 13,5 C13.5522847,5 14,5.44771525 14,6 L14,12 Z"></path>
    </g>
  </symbol>

  <symbol id="item-grab" viewBox="0 0 2 10" version="1.1" xmlns="http://www.w3.org/2000/svg" xmlns:xlink="http://www.w3.org/1999/xlink" xmlns:sketch="http://www.bohemiancoding.com/sketch/ns">
    <g id="Page-1" stroke="none" stroke-width="1" fill-rule="evenodd" sketch:type="MSPage">
      <g id="AIA_text_formatting" sketch:type="MSArtboardGroup" transform="translate(-1410.000000, -745.000000)" >
        <g id="Rectangle-55-Copy-10-+-Draft-Copy-+-Oval-45-Copy-2-Copy-Copy-+-Oval-10-+-Oval-10-Copy-+-Oval-10-Copy-2-Copy-Copy" sketch:type="MSLayerGroup" transform="translate(1147.000000, 735.000000)">
          <g id="Oval-10-+-Oval-10-Copy-+-Oval-10-Copy-2-Copy-Copy" transform="translate(263.000000, 10.000000)" sketch:type="MSShapeGroup">
            <circle id="Oval-10" cx="1" cy="1" r="1"></circle>
            <circle id="Oval-10-Copy" cx="1" cy="5" r="1"></circle>
            <circle id="Oval-10-Copy-2" cx="1" cy="9" r="1"></circle>
          </g>
        </g>
      </g>
    </g>
  </symbol>

  <symbol id="trash" viewBox="0 0 14 18" version="1.1" xmlns="http://www.w3.org/2000/svg" xmlns:xlink="http://www.w3.org/1999/xlink" xmlns:sketch="http://www.bohemiancoding.com/sketch/ns">
    <g id="Image-Uploader" stroke="none" stroke-width="1" fill-rule="evenodd" sketch:type="MSPage">
      <g id="Uploaded" sketch:type="MSArtboardGroup" transform="translate(-785.000000, -722.000000)">
        <g id="Group" sketch:type="MSLayerGroup" transform="translate(195.000000, 185.000000)">
          <g id="delete-3" transform="translate(590.000000, 537.000000)" sketch:type="MSShapeGroup">
            <path d="M1,16 C1,17.1 1.9,18 3,18 L11,18 C12.1,18 13,17.1 13,16 L13,4 L1,4 L1,16 L1,16 Z M14,1 L10.5,1 L9.5,0 L4.5,0 L3.5,1 L0,1 L0,3 L14,3 L14,1 L14,1 Z" id="Shape"></path>
          </g>
        </g>
      </g>
    </g>
  </symbol>
</svg>
