<svg style="position: absolute; width: 0; height: 0;" width="0" height="0" version="1.1" xmlns="http://www.w3.org/2000/svg" xmlns:xlink="http://www.w3.org/1999/xlink">
  
  <symbol id="cardstack-icon" viewBox="0 0 28 28"><path d="M0 0h28v28H0V0zm25 14l-10.417 9H3l4.747-4.1h6.94l5.672-4.9H25zm0-5l-10.417 9H3l4.747-4.1h6.94L20.359 9H25zm0-5l-10.417 9H3l10.42-9H25z" fill="#FFF" fill-rule="evenodd"/></symbol>

  <symbol id="page" viewBox="0 0 18 24" version="1.1" xmlns="http://www.w3.org/2000/svg" xmlns:xlink="http://www.w3.org/1999/xlink" xmlns:sketch="http://www.bohemiancoding.com/sketch/ns">
    <g id="Page-1" stroke="none" stroke-width="1" fill-rule="evenodd" sketch:type="MSPage">
      <g id="AIA_text_formatting" sketch:type="MSArtboardGroup" transform="translate(-225.000000, -9.000000)" >
        <g id="Group-+-Editor-+-Rectangle-51-+-Rectangle-51-Copy-+-ON" sketch:type="MSLayerGroup" transform="translate(195.000000, 0.000000)">
          <g id="Group" sketch:type="MSShapeGroup">
            <g id="Rectangle-21-Copy-2-+-Page-+-Fill-1" transform="translate(1.000000, 0.000000)">
              <g id="Page-+-Fill-1" transform="translate(29.000000, 9.000000)">
                <g id="Fill-1">
                  <path d="M11,7 L11,1 L17,7 L11,7 Z M17.854,6.147 L11.854,0.147 C11.76,0.053 11.632,0 11.5,0 L0.5,0 C0.224,0 0,0.224 0,0.5 L0,23.5 C0,23.776 0.224,24 0.5,24 L17.5,24 C17.776,24 18,23.776 18,23.5 L18,6.5 C18,6.367 17.947,6.24 17.854,6.147 L17.854,6.147 Z"></path>
                </g>
              </g>
            </g>
          </g>
        </g>
      </g>
    </g>
  </symbol>

  <symbol id="tiles" viewBox="0 0 20 24" version="1.1" xmlns="http://www.w3.org/2000/svg" xmlns:xlink="http://www.w3.org/1999/xlink" xmlns:sketch="http://www.bohemiancoding.com/sketch/ns">
    <g id="Page-1" stroke="none" stroke-width="1" fill-rule="evenodd" sketch:type="MSPage">
      <g id="AIA_text_formatting" sketch:type="MSArtboardGroup" transform="translate(-344.000000, -10.000000)" >
        <g id="Group-+-Editor-+-Rectangle-51-+-Rectangle-51-Copy-+-ON" sketch:type="MSLayerGroup" transform="translate(195.000000, 0.000000)">
          <g id="Group" sketch:type="MSShapeGroup">
            <g transform="translate(149.000000, 9.000000)">
              <path d="M5,4.9994 L5,1.9994 L8,4.9994 L5,4.9994 Z M5.853,1.1464 C5.76,1.0524 5.632,0.9994 5.5,0.9994 L0.5,0.9994 C0.224,0.9994 0,1.2234 0,1.4994 L0,11.4994 C0,11.7754 0.224,11.9994 0.5,11.9994 L8.5,11.9994 C8.776,11.9994 9,11.7754 9,11.4994 L9,4.4994 C9,4.3664 8.947,4.2394 8.853,4.1464 L5.853,1.1464 Z" id="Fill-25"></path>
              <path d="M16,4.9994 L16,1.9994 L19,4.9994 L16,4.9994 Z M19.853,4.1464 L16.853,1.1464 C16.76,1.0524 16.632,0.9994 16.5,0.9994 L11.5,0.9994 C11.224,0.9994 11,1.2234 11,1.4994 L11,11.4994 C11,11.7754 11.224,11.9994 11.5,11.9994 L19.5,11.9994 C19.776,11.9994 20,11.7754 20,11.4994 L20,4.4994 C20,4.3664 19.947,4.2394 19.853,4.1464 L19.853,4.1464 Z" id="Fill-27"></path>
              <path d="M5,17.9994 L5,14.9994 L8,17.9994 L5,17.9994 Z M5.853,14.1464 C5.76,14.0524 5.632,13.9994 5.5,13.9994 L0.5,13.9994 C0.224,13.9994 0,14.2234 0,14.4994 L0,24.4994 C0,24.7754 0.224,24.9994 0.5,24.9994 L8.5,24.9994 C8.776,24.9994 9,24.7754 9,24.4994 L9,17.4994 C9,17.3664 8.947,17.2394 8.853,17.1464 L5.853,14.1464 Z" id="Fill-29"></path>
              <path d="M16,17.9994 L16,14.9994 L19,17.9994 L16,17.9994 Z M16.853,14.1464 C16.76,14.0524 16.632,13.9994 16.5,13.9994 L11.5,13.9994 C11.224,13.9994 11,14.2234 11,14.4994 L11,24.4994 C11,24.7754 11.224,24.9994 11.5,24.9994 L19.5,24.9994 C19.776,24.9994 20,24.7754 20,24.4994 L20,17.4994 C20,17.3664 19.947,17.2394 19.853,17.1464 L16.853,14.1464 Z" id="Fill-31"></path>
            </g>
          </g>
        </g>
      </g>
    </g>
  </symbol>
  <symbol id="write" viewBox="0 0 13 18" version="1.1" xmlns="http://www.w3.org/2000/svg" xmlns:xlink="http://www.w3.org/1999/xlink" xmlns:sketch="http://www.bohemiancoding.com/sketch/ns">
    <g id="Page-1" stroke="none" stroke-width="1" fill-rule="evenodd" sketch:type="MSPage">
      <g id="AIA_text_formatting" sketch:type="MSArtboardGroup" transform="translate(-1140.000000, -12.000000)" >
        <g id="Fill-2151-+-Fill-2152-Copy" sketch:type="MSLayerGroup" transform="translate(1140.000000, 12.000000)">
          <path d="M12.66526,8.0883 L9.94186,3.6003 L3.48046,3.6003 L0.80326,8.0901 C0.75226,8.1759 0.74686,8.2815 0.78946,8.3715 L5.23726,17.8281 C5.28646,17.9331 5.39266,18.0003 5.50846,18.0003 L6.40846,18.0003 L6.40846,9.3003 C6.40846,9.2895 6.41386,9.2811 6.41446,9.2709 C5.72686,9.1341 5.20846,8.5281 5.20846,7.8003 C5.20846,6.9723 5.88046,6.3003 6.70846,6.3003 C7.53706,6.3003 8.20846,6.9723 8.20846,7.8003 C8.20846,8.5281 7.69006,9.1341 7.00246,9.2709 C7.00366,9.2811 7.00846,9.2895 7.00846,9.3003 L7.00846,18.0003 L7.90846,18.0003 C8.02426,18.0003 8.12986,17.9337 8.17966,17.8293 L12.67966,8.3727 C12.72286,8.2815 12.71746,8.1747 12.66526,8.0883" id="Fill-2151" sketch:type="MSShapeGroup"></path>
          <path d="M3.47902,3.0003 L9.89422,3.0003 L11.17702,0.4347 C11.22382,0.3417 11.21842,0.2313 11.16382,0.1425 C11.10922,0.0543 11.01262,0.0003 10.90882,0.0003 L2.20882,0.0003 C2.10082,0.0003 2.00062,0.0585 1.94782,0.1527 C1.89442,0.2469 1.89562,0.3621 1.95142,0.4545 L3.47902,3.0003 Z" id="Fill-2152" sketch:type="MSShapeGroup"></path>
        </g>
      </g>
    </g>
  </symbol>

  <symbol id="archive" viewBox="0 0 22 24" version="1.1" xmlns="http://www.w3.org/2000/svg" xmlns:xlink="http://www.w3.org/1999/xlink" xmlns:sketch="http://www.bohemiancoding.com/sketch/ns">
    <g id="Page-1" stroke="none" stroke-width="1" fill-rule="evenodd" sketch:type="MSPage">
      <g id="AIA_text_formatting" sketch:type="MSArtboardGroup" transform="translate(-1179.000000, -10.000000)" >
        <g id="Fill-59-+-Fill-61-Copy" sketch:type="MSLayerGroup" transform="translate(1179.000000, 10.000000)">
          <path d="M16.5002,7 C16.2242,7 16.0002,6.776 16.0002,6.5 L16.0002,1.148 L21.0872,7 L16.5002,7 Z M18.5002,10 L8.5002,10 C8.2242,10 8.0002,9.776 8.0002,9.5 C8.0002,9.224 8.2242,9 8.5002,9 L18.5002,9 C18.7762,9 19.0002,9.224 19.0002,9.5 C19.0002,9.776 18.7762,10 18.5002,10 L18.5002,10 Z M8.5002,6 L14.5002,6 C14.7762,6 15.0002,6.224 15.0002,6.5 C15.0002,6.776 14.7762,7 14.5002,7 L8.5002,7 C8.2242,7 8.0002,6.776 8.0002,6.5 C8.0002,6.224 8.2242,6 8.5002,6 L8.5002,6 Z M8.5002,3 L14.5002,3 C14.7762,3 15.0002,3.224 15.0002,3.5 C15.0002,3.776 14.7762,4 14.5002,4 L8.5002,4 C8.2242,4 8.0002,3.776 8.0002,3.5 C8.0002,3.224 8.2242,3 8.5002,3 L8.5002,3 Z M21.8842,6.18 L16.8842,0.18 C16.7892,0.066 16.6482,0 16.5002,0 L5.5002,0 C5.2242,0 5.0002,0.224 5.0002,0.5 L5.0002,10 L6.5002,10 C6.8982,10 7.2792,10.159 7.5612,10.44 L9.1212,12 L17.5002,12 C18.3292,12 19.0002,12.671 19.0002,13.5 L19.0002,22 L21.5002,22 C21.7762,22 22.0002,21.776 22.0002,21.5 L22.0002,6.5 C22.0002,6.383 21.9592,6.27 21.8842,6.18 L21.8842,6.18 Z" id="Fill-59" sketch:type="MSShapeGroup"></path>
          <path d="M17.5002,13 L8.7072,13 L6.8542,11.146 C6.7602,11.053 6.6332,11 6.5002,11 L0.5002,11 C0.2242,11 0.0002,11.224 0.0002,11.5 L0.0002,23.5 C0.0002,23.776 0.2242,24 0.5002,24 L17.5002,24 C17.7762,24 18.0002,23.776 18.0002,23.5 L18.0002,13.5 C18.0002,13.224 17.7762,13 17.5002,13" id="Fill-61" sketch:type="MSShapeGroup"></path>
        </g>
      </g>
    </g>
  </symbol>
  <symbol id="article" viewBox="0 0 22 28" version="1.1" xmlns="http://www.w3.org/2000/svg" xmlns:xlink="http://www.w3.org/1999/xlink" xmlns:sketch="http://www.bohemiancoding.com/sketch/ns">
    <g id="Page-1" stroke="none" stroke-width="1" fill="none" fill-rule="evenodd" sketch:type="MSPage">
      <g id="AIA_text_formatting" sketch:type="MSArtboardGroup" transform="translate(-1141.000000, -59.000000)" fill="#FFFFFF">
        <g id="Fill-3-Copy-+-Article-+-2015-04-28---Resilie" sketch:type="MSLayerGroup" transform="translate(1141.000000, 57.000000)">
          <g id="Fill-3-Copy" transform="translate(0.250208, 1.000000)" sketch:type="MSShapeGroup">
            <path d="M12.8333333,9.279304 L12.8333333,2.319304 L19.8333333,9.279304 L12.8333333,9.279304 Z M15.75,13.919304 L5.25,13.919304 C4.928,13.919304 4.66666667,13.659464 4.66666667,13.339304 C4.66666667,13.019144 4.928,12.759304 5.25,12.759304 L15.75,12.759304 C16.072,12.759304 16.3333333,13.019144 16.3333333,13.339304 C16.3333333,13.659464 16.072,13.919304 15.75,13.919304 L15.75,13.919304 Z M15.75,17.399304 L5.25,17.399304 C4.928,17.399304 4.66666667,17.139464 4.66666667,16.819304 C4.66666667,16.499144 4.928,16.239304 5.25,16.239304 L15.75,16.239304 C16.072,16.239304 16.3333333,16.499144 16.3333333,16.819304 C16.3333333,17.139464 16.072,17.399304 15.75,17.399304 L15.75,17.399304 Z M15.75,20.879304 L5.25,20.879304 C4.928,20.879304 4.66666667,20.619464 4.66666667,20.299304 C4.66666667,19.979144 4.928,19.719304 5.25,19.719304 L15.75,19.719304 C16.072,19.719304 16.3333333,19.979144 16.3333333,20.299304 C16.3333333,20.619464 16.072,20.879304 15.75,20.879304 L15.75,20.879304 Z M15.75,24.359304 L5.25,24.359304 C4.928,24.359304 4.66666667,24.099464 4.66666667,23.779304 C4.66666667,23.459144 4.928,23.199304 5.25,23.199304 L15.75,23.199304 C16.072,23.199304 16.3333333,23.459144 16.3333333,23.779304 C16.3333333,24.099464 16.072,24.359304 15.75,24.359304 L15.75,24.359304 Z M5.25,9.279304 L10.5,9.279304 C10.822,9.279304 11.0833333,9.539144 11.0833333,9.859304 C11.0833333,10.179464 10.822,10.439304 10.5,10.439304 L5.25,10.439304 C4.928,10.439304 4.66666667,10.179464 4.66666667,9.859304 C4.66666667,9.539144 4.928,9.279304 5.25,9.279304 L5.25,9.279304 Z M20.8296667,8.289824 L13.8296667,1.329824 C13.72,1.220784 13.5706667,1.159304 13.4166667,1.159304 L0.583333333,1.159304 C0.261333333,1.159304 0,1.419144 0,1.739304 L0,28.419304 C0,28.739464 0.261333333,28.999304 0.583333333,28.999304 L20.4166667,28.999304 C20.7386667,28.999304 21,28.739464 21,28.419304 L21,8.699304 C21,8.545024 20.9381667,8.397704 20.8296667,8.289824 L20.8296667,8.289824 Z" id="Fill-3"></path>
          </g>
        </g>
      </g>
    </g>
  </symbol>

  <symbol id="toggle-arrow" viewBox="0 0 8 7" version="1.1" xmlns="http://www.w3.org/2000/svg" xmlns:xlink="http://www.w3.org/1999/xlink" xmlns:sketch="http://www.bohemiancoding.com/sketch/ns">
    <g id="Page-1" stroke="none" stroke-width="1" fill-rule="evenodd" sketch:type="MSPage">
      <g id="AIA_select_type_tag" sketch:type="MSArtboardGroup" transform="translate(-1415.000000, -120.000000)" >
        <g id="Rectangle-32-+-Fill-43-Copy-12" sketch:type="MSLayerGroup" transform="translate(1411.000000, 115.000000)">
          <path d="M8.09587395,11.8821596 L11.8980027,8.12084708 C11.9294636,8.08972628 11.9473466,8.04734903 11.9473466,8.00331641 L11.9473466,5.16536459 C11.9473466,5.09848799 11.9069443,5.03823283 11.845016,5.01274026 C11.7834189,4.98691662 11.712218,5.00115273 11.66453,5.048165 L7.97897199,8.72604725 L4.28215432,5.05081358 C4.23479743,5.00347024 4.16359652,4.9895652 4.10166828,5.01505777 C4.04007121,5.04088141 4,5.10113657 4,5.16801317 L4,8.00596499 C4,8.0499976 4.01788302,8.09270593 4.04934389,8.12349566 L7.86339469,11.8824906 C7.9276411,11.9460565 8.03162755,11.9457254 8.09587395,11.8821596" id="Fill-43-Copy-11" sketch:type="MSShapeGroup"></path>
        </g>
      </g>
    </g>
  </symbol>

  <symbol id="item-grab" viewBox="0 0 2 10" version="1.1" xmlns="http://www.w3.org/2000/svg" xmlns:xlink="http://www.w3.org/1999/xlink" xmlns:sketch="http://www.bohemiancoding.com/sketch/ns">
    <g id="Page-1" stroke="none" stroke-width="1" fill-rule="evenodd" sketch:type="MSPage">
      <g id="AIA_text_formatting" sketch:type="MSArtboardGroup" transform="translate(-1410.000000, -745.000000)" >
        <g id="Rectangle-55-Copy-10-+-Draft-Copy-+-Oval-45-Copy-2-Copy-Copy-+-Oval-10-+-Oval-10-Copy-+-Oval-10-Copy-2-Copy-Copy" sketch:type="MSLayerGroup" transform="translate(1147.000000, 735.000000)">
          <g id="Oval-10-+-Oval-10-Copy-+-Oval-10-Copy-2-Copy-Copy" transform="translate(263.000000, 10.000000)" sketch:type="MSShapeGroup">
            <circle id="Oval-10" cx="1" cy="1" r="1"></circle>
            <circle id="Oval-10-Copy" cx="1" cy="5" r="1"></circle>
            <circle id="Oval-10-Copy-2" cx="1" cy="9" r="1"></circle>
          </g>
        </g>
      </g>
    </g>
  </symbol>

  <symbol id="trash" viewBox="0 0 14 18" version="1.1" xmlns="http://www.w3.org/2000/svg" xmlns:xlink="http://www.w3.org/1999/xlink" xmlns:sketch="http://www.bohemiancoding.com/sketch/ns">
    <g id="Image-Uploader" stroke="none" stroke-width="1" fill-rule="evenodd" sketch:type="MSPage">
      <g id="Uploaded" sketch:type="MSArtboardGroup" transform="translate(-785.000000, -722.000000)">
        <g id="Group" sketch:type="MSLayerGroup" transform="translate(195.000000, 185.000000)">
          <g id="delete-3" transform="translate(590.000000, 537.000000)" sketch:type="MSShapeGroup">
            <path d="M1,16 C1,17.1 1.9,18 3,18 L11,18 C12.1,18 13,17.1 13,16 L13,4 L1,4 L1,16 L1,16 Z M14,1 L10.5,1 L9.5,0 L4.5,0 L3.5,1 L0,1 L0,3 L14,3 L14,1 L14,1 Z" id="Shape"></path>
          </g>
        </g>
      </g>
    </g>
  </symbol>

  <symbol id="notifications" viewBox="0 0 20 21" version="1.1" xmlns="http://www.w3.org/2000/svg" xmlns:xlink="http://www.w3.org/1999/xlink" xmlns:sketch="http://www.bohemiancoding.com/sketch/ns">
    <g id="Content-Editor" stroke="none" stroke-width="1" fill="none" fill-rule="evenodd" sketch:type="MSPage">
      <g id="AIA_menu_short" sketch:type="MSArtboardGroup" transform="translate(-20.000000, -302.000000)" stroke-linecap="round" stroke="#818181" stroke-linejoin="round">
        <g id="Group" sketch:type="MSLayerGroup" transform="translate(0.000000, 42.000000)">
          <g id="Notifications-+-Stroke-1310-+-Stroke-1311" transform="translate(20.000000, 261.000000)" sketch:type="MSShapeGroup">
            <g id="Stroke-1310-+-Stroke-1311">
              <path d="M17.0833333,13.75 L17.0833333,9.16666667 C17.0833333,6.12416667 15.1591667,3.53666667 12.4666667,2.53416667 C12.2816667,1.33583333 11.25,0.416666667 10,0.416666667 C8.75,0.416666667 7.715,1.33583333 7.53083333,2.53416667 C4.8375,3.53666667 2.91666667,6.12416667 2.91666667,9.16666667 L2.91666667,13.75 C2.91666667,15.1308333 1.79666667,16.25 0.416666667,16.25 L19.5833333,16.25 C18.2008333,16.25 17.0833333,15.1308333 17.0833333,13.75 L17.0833333,13.75 Z" id="Stroke-1310"></path>
              <path d="M12.5,16.25 C12.5,17.6308333 11.38,18.75 10,18.75 C8.6175,18.75 7.5,17.6308333 7.5,16.25" id="Stroke-1311"></path>
            </g>
          </g>
        </g>
      </g>
    </g>
  </symbol>

  <symbol id="settings" viewBox="0 0 22 22" version="1.1" xmlns="http://www.w3.org/2000/svg" xmlns:xlink="http://www.w3.org/1999/xlink" xmlns:sketch="http://www.bohemiancoding.com/sketch/ns">
    <g id="Content-Editor" stroke="none" stroke-width="1" fill="none" fill-rule="evenodd" sketch:type="MSPage">
      <g id="AIA_menu_short" sketch:type="MSArtboardGroup" transform="translate(-19.000000, -351.000000)" stroke-linecap="round" stroke="#818181" stroke-linejoin="round">
        <g id="Group" sketch:type="MSLayerGroup" transform="translate(0.000000, 42.000000)">
          <g id="Settings-+-Stroke-814-+-Stroke-815" transform="translate(20.000000, 310.000000)" sketch:type="MSShapeGroup">
            <g id="Stroke-814-+-Stroke-815">
              <path d="M16.87825,11.25 L19.58325,11.25 L19.58325,8.75 L16.8774167,8.75 C16.70325,8.0275 16.41825,6.9325 16.0415833,6.315 L17.9549167,4.4025 L15.5974167,2.045 L13.68325,3.95833333 C13.0665833,3.58166667 11.9724167,3.2975 11.2499167,3.12333333 L11.2499167,0.416666667 L8.74991667,0.416666667 L8.74991667,3.12333333 C8.02741667,3.2975 6.93241667,3.58166667 6.31575,3.95833333 L4.40158333,2.045 L2.04408333,4.4025 L3.95825,6.31583333 C3.58158333,6.9325 3.29658333,8.0275 3.12158333,8.75 L0.416583333,8.75 L0.416583333,11.25 L3.12158333,11.25 C3.29658333,11.9725 3.58158333,13.0675 3.95825,13.6841667 L2.04408333,15.5983333 L4.40158333,17.955 L6.31491667,16.0408333 C6.93241667,16.4183333 8.02741667,16.7033333 8.74991667,16.8783333 L8.74991667,19.5833333 L11.2499167,19.5833333 L11.2499167,16.8783333 C11.9724167,16.7033333 13.0674167,16.4183333 13.68325,16.0416667 L15.59825,17.955 L17.9549167,15.5983333 L16.0415833,13.6841667 C16.41825,13.0675 16.70325,11.9725 16.87825,11.25 L16.87825,11.25 Z" id="Stroke-814"></path>
              <path d="M13.75,10 C13.75,12.0716667 12.0708333,13.75 10,13.75 C7.92916667,13.75 6.25,12.0716667 6.25,10 C6.25,7.92916667 7.92916667,6.25 10,6.25 C12.0708333,6.25 13.75,7.92916667 13.75,10 L13.75,10 Z" id="Stroke-815"></path>
            </g>
          </g>
        </g>
      </g>
    </g>
  </symbol>

  <symbol id="logout" viewBox="0 0 22 20" version="1.1" xmlns="http://www.w3.org/2000/svg" xmlns:xlink="http://www.w3.org/1999/xlink" xmlns:sketch="http://www.bohemiancoding.com/sketch/ns">
    <g id="Content-Editor" stroke="none" stroke-width="1" fill="none" fill-rule="evenodd" sketch:type="MSPage">
      <g id="AIA_menu_short" sketch:type="MSArtboardGroup" transform="translate(-188.000000, -406.000000)" stroke-linecap="round" stroke="#818181" stroke-linejoin="round">
        <g id="Group" sketch:type="MSLayerGroup" transform="translate(0.000000, 42.000000)">
          <g id="Logout-+-Stroke-349-+-Stroke-350-+-Stroke-351" transform="translate(140.000000, 364.000000)" sketch:type="MSShapeGroup">
            <g id="Stroke-349-+-Stroke-350-+-Stroke-351" transform="translate(49.000000, 0.666667)">
              <path d="M11.25,14.5833333 L11.25,17.9166667 L0.416666667,17.9166667 L0.416666667,0.416666667 L11.25,0.416666667 L11.25,3.75" id="Stroke-349"></path>
              <path d="M4.58333333,9.58333333 L19.5833333,9.58333333" id="Stroke-350"></path>
              <path d="M15.4166667,5.41666667 L19.5833333,9.58333333 L15.4166667,13.75" id="Stroke-351"></path>
            </g>
          </g>
        </g>
      </g>
    </g>
  </symbol>


  <symbol id="lightning" viewBox="0 0 16 22" version="1.1" xmlns="http://www.w3.org/2000/svg" xmlns:xlink="http://www.w3.org/1999/xlink">
    <g id="Page-1" stroke="none" stroke-width="1" fill="none" fill-rule="evenodd">
      <g id="Menu-flyout-" transform="translate(-20.000000, -350.000000)" stroke="#818181">
        <g id="Group-7" transform="translate(-40.000000, -26.000000)">
          <g id="Group" transform="translate(40.000000, 0.000000)">
            <g id="Group-8" transform="translate(0.000000, 267.000000)">
              <path d="M22.3058573,122.125007 L26.3510969,122.125007 L26.3510969,129.406438 C26.3510969,129.773746 26.5970474,130.095747 26.9530285,130.187978 C27.3057734,130.281828 27.6795535,130.126491 27.8623984,129.807726 L34.3347817,118.481055 C34.4787922,118.231868 34.475556,117.921194 34.3315455,117.673625 C34.1859169,117.424439 33.9205491,117.27072 33.6325281,117.27072 L29.5872885,117.27072 L29.5872885,109.989288 C29.5872885,109.621981 29.3397198,109.299979 28.9837388,109.207748 C28.6309939,109.113898 28.2572137,109.269236 28.0743689,109.588001 L21.6019856,120.943797 C21.4757741,121.180039 21.4595932,121.471296 21.6052218,121.722101 C21.7508504,121.971288 22.0162181,122.125007 22.3058573,122.125007 Z" id="Fill-5023" transform="translate(27.971396, 119.697863) rotate(-345.000000) translate(-27.971396, -119.697863) "></path>
            </g>
          </g>
        </g>
      </g>
    </g>
  </symbol>


  <symbol id="data-sources" viewBox="0 0 24 19" version="1.1" xmlns="http://www.w3.org/2000/svg" xmlns:xlink="http://www.w3.org/1999/xlink">
    <g id="Page-1" stroke="none" stroke-width="1" fill="none" fill-rule="evenodd">
      <g id="Menu-flyout-" transform="translate(-17.000000, -401.000000)">
        <g id="Group-7" transform="translate(-40.000000, -26.000000)">
          <g id="Group" transform="translate(40.000000, 0.000000)">
            <g id="Group-8" transform="translate(0.000000, 267.000000)">
              <g id="Group-1345" transform="translate(17.000000, 160.000000)">
                <polygon id="Stroke-4915" stroke="#818181" stroke-linecap="round" stroke-linejoin="round" points="0.5 6.5 23.5 6.5 23.5 0.5 0.5 0.5"></polygon>
                <path d="M14.5,3.5 C14.5,3.776 14.276,4 14,4 C13.724,4 13.5,3.776 13.5,3.5 C13.5,3.224 13.724,3 14,3 C14.276,3 14.5,3.224 14.5,3.5 L14.5,3.5 Z" id="Stroke-4916" stroke="#818181" stroke-linecap="round" stroke-linejoin="round"></path>
                <path d="M17.5,3.5 C17.5,3.776 17.276,4 17,4 C16.724,4 16.5,3.776 16.5,3.5 C16.5,3.224 16.724,3 17,3 C17.276,3 17.5,3.224 17.5,3.5 L17.5,3.5 Z" id="Stroke-4917" stroke="#818181" stroke-linecap="round" stroke-linejoin="round"></path>
                <path d="M20.5,3.5 C20.5,3.776 20.276,4 20,4 C19.724,4 19.5,3.776 19.5,3.5 C19.5,3.224 19.724,3 20,3 C20.276,3 20.5,3.224 20.5,3.5 L20.5,3.5 Z" id="Stroke-4918" stroke="#818181" stroke-linecap="round" stroke-linejoin="round"></path>
                <path d="M4.5,3.5 C4.5,4.053 4.052,4.5 3.5,4.5 C2.947,4.5 2.5,4.053 2.5,3.5 C2.5,2.948 2.947,2.5 3.5,2.5 C4.052,2.5 4.5,2.948 4.5,3.5 L4.5,3.5 Z" id="Stroke-4919" stroke="#818181" stroke-linecap="round" stroke-linejoin="round"></path>
                <polyline id="Stroke-4920" stroke="#818181" stroke-linecap="round" stroke-linejoin="round" points="0.5 6.5 0.5 12.5 23.5 12.5 23.5 6.5"></polyline>
                <path d="M14.5,9.5 C14.5,9.776 14.276,10 14,10 C13.724,10 13.5,9.776 13.5,9.5 C13.5,9.224 13.724,9 14,9 C14.276,9 14.5,9.224 14.5,9.5 L14.5,9.5 Z" id="Stroke-4921" stroke="#818181" stroke-linecap="round" stroke-linejoin="round"></path>
                <path d="M17.5,9.5 C17.5,9.776 17.276,10 17,10 C16.724,10 16.5,9.776 16.5,9.5 C16.5,9.224 16.724,9 17,9 C17.276,9 17.5,9.224 17.5,9.5 L17.5,9.5 Z" id="Stroke-4922" stroke="#818181" stroke-linecap="round" stroke-linejoin="round"></path>
                <path d="M20.5,9.5 C20.5,9.776 20.276,10 20,10 C19.724,10 19.5,9.776 19.5,9.5 C19.5,9.224 19.724,9 20,9 C20.276,9 20.5,9.224 20.5,9.5 L20.5,9.5 Z" id="Stroke-4923" stroke="#818181" stroke-linecap="round" stroke-linejoin="round"></path>
                <path d="M4.5,9.5 C4.5,10.053 4.052,10.5 3.5,10.5 C2.947,10.5 2.5,10.053 2.5,9.5 C2.5,8.948 2.947,8.5 3.5,8.5 C4.052,8.5 4.5,8.948 4.5,9.5 L4.5,9.5 Z" id="Stroke-4924" stroke="#818181" stroke-linecap="round" stroke-linejoin="round"></path>
                <path d="M5.5,18.5 L18.5,18.5" id="Stroke-4925" stroke="#818181" stroke-linecap="round" stroke-linejoin="round"></path>
                <path d="M12.5,12.5 L12.5,18.5" id="Stroke-4926" stroke="#818181" stroke-linecap="round" stroke-linejoin="round"></path>
                <path d="M1.5,18 C1.224,18 1,18.224 1,18.5 C1,18.776 1.224,19 1.5,19 C1.776,19 2,18.776 2,18.5 C2,18.224 1.776,18 1.5,18" id="Fill-4927" fill="#818181"></path>
                <path d="M3.5,18 C3.224,18 3,18.224 3,18.5 C3,18.776 3.224,19 3.5,19 C3.776,19 4,18.776 4,18.5 C4,18.224 3.776,18 3.5,18" id="Fill-4928" fill="#818181"></path>
                <path d="M20.5,18 C20.224,18 20,18.224 20,18.5 C20,18.776 20.224,19 20.5,19 C20.776,19 21,18.776 21,18.5 C21,18.224 20.776,18 20.5,18" id="Fill-4929" fill="#818181"></path>
                <path d="M22.5,18 C22.224,18 22,18.224 22,18.5 C22,18.776 22.224,19 22.5,19 C22.776,19 23,18.776 23,18.5 C23,18.224 22.776,18 22.5,18" id="Fill-4930" fill="#818181"></path>
              </g>
            </g>
          </g>
        </g>
      </g>
    </g>
  </symbol>  
</svg>
