<svg viewBox="0 0 50 50.00026" xmlns="http://www.w3.org/2000/svg">
  <g fill="#50ccff">
    <path fill="#50ccff" d="M24.99223,11.40077v2.91562a10.68606,10.68606,0,0,0-8.9544,4.8324A10.26432,10.26432,0,0,0,14.3141,26.346a10.76048,10.76048,0,0,0,21.44924-1.22725H25.01486V22.18914H38.69445c.00308.07817.01225.14971.01225.22078-.00433,1.0559.00532,2.11154-.0196,3.16514a13.11635,13.11635,0,0,1-1.748,6.244,13.61841,13.61841,0,0,1-6.55106,5.88219,13.01368,13.01368,0,0,1-3.85847,1.0136A13.729,13.729,0,0,1,11.68387,28.305a13.05565,13.05565,0,0,1-.37227-3.86128,13.73965,13.73965,0,0,1,10.892-12.75656,12.81049,12.81049,0,0,1,2.59253-.28643Z"></path>
    <path fill="#50ccff" d="M24.99984,50.00026A25.00013,25.00013,0,1,1,50,24.9999,25.02825,25.02825,0,0,1,24.99984,50.00026Zm0-47.05768A22.05664,22.05664,0,1,0,47.05533,24.9999,22.08184,22.08184,0,0,0,24.99984,2.94258Z"></path>
  </g>
</svg>