<svg enable-background="new 0 0 300 260" viewBox="0 0 300 260" xmlns="http://www.w3.org/2000/svg"><path d="m46 43h215v175h-215z" fill="#fff"/><path d="m274 50.1c-21-35.4-56.2-50.2-124-50.2s-103 14.8-124.2 50c-11.6 20.6-15.9 56.8-15.9 80.1s4.2 59.8 16.3 79.9c21 35.4 56.2 50.2 124 50.2 67.6 0 103-14.8 124-49.8 11.9-20.3 16.1-56.8 16.1-79.9-.2-23.7-4.5-59.9-16.3-80.3zm-157.7 153.4c-7.6 0-18.6-3.4-24.2-15.7l-33.7-81.6c-7.1-18.2 6.8-35.5 23.4-35.5 7.6 0 18.6 3.4 24.2 15.7l33.7 81.6c7.1 18.4-7.1 35.5-23.4 35.5zm67.8 0c-7.6 0-18.6-3.4-24.2-15.7l-33.7-81.6c-7.2-18.2 6.8-35.6 23.3-35.6 7.6 0 18.6 3.4 24.2 15.7l33.7 81.6c7.2 18.5-7 35.6-23.3 35.6zm42.2-61.4c-7.6 0-18.6-3.4-24.2-15.7l-8.3-19.9c-7.2-18.2 6.8-35.6 23.3-35.6 7.6 0 18.6 3.4 24.2 15.7l8.3 19.9c7.4 18.4-7 35.6-23.3 35.6z" fill="#0061aa"/></svg>