<svg class="h3" width="19px" height="13px" viewBox="0 0 19 13" version="1.1" xmlns="http://www.w3.org/2000/svg" xmlns:xlink="http://www.w3.org/1999/xlink" xmlns:sketch="http://www.bohemiancoding.com/sketch/ns">
    <g id="Content-Editor" stroke="none" stroke-width="1" fill="none" fill-rule="evenodd" sketch:type="MSPage">
        <g id="AIA_select_type_tag-select-video" sketch:type="MSArtboardGroup" transform="translate(-185.000000, -715.000000)" fill="#B5B5B5">
            <g id="Group" sketch:type="MSLayerGroup" transform="translate(40.000000, 647.000000)">
                <g id="Rectangle-47-+-B-Copy-+-H1-Copy-Copy-Copy" transform="translate(136.000000, 56.000000)" sketch:type="MSShapeGroup">
                    <path d="M9.6075,12.6026667 L12.1555,12.6026667 L12.1555,16.9146667 L17.1045,16.9146667 L17.1045,12.6026667 L19.6525,12.6026667 L19.6525,24.1666667 L17.1045,24.1666667 L17.1045,19.1686667 L12.1555,19.1686667 L12.1555,24.1666667 L9.6075,24.1666667 L9.6075,12.6026667 Z M23.3485,19.1616667 L23.9201667,19.1616667 C24.0835008,19.1616667 24.2429437,19.1500001 24.3985,19.1266667 C24.5540563,19.1033332 24.6959994,19.0586114 24.8243333,18.9925 C24.9526673,18.9263886 25.0557218,18.8330562 25.1335,18.7125 C25.2112782,18.5919438 25.2501667,18.4344454 25.2501667,18.24 C25.2501667,17.9911099 25.151001,17.7850008 24.9526667,17.6216667 C24.7543323,17.4583325 24.5112792,17.3766667 24.2235,17.3766667 C23.9512764,17.3766667 23.7257231,17.4505548 23.5468333,17.5983333 C23.3679436,17.7461118 23.2512781,17.9288878 23.1968333,18.1466667 L21.2718333,17.75 C21.3651671,17.3922204 21.5051657,17.0869457 21.6918333,16.8341667 C21.8785009,16.5813876 22.1001654,16.377223 22.3568333,16.2216667 C22.6135013,16.0661103 22.8993318,15.9513893 23.2143333,15.8775 C23.5293349,15.8036107 23.8618316,15.7666667 24.2118333,15.7666667 C24.5773907,15.7666667 24.9293316,15.8113884 25.2676667,15.9008333 C25.6060017,15.9902782 25.9034987,16.1302768 26.1601667,16.3208333 C26.4168346,16.5113898 26.6209992,16.7505541 26.7726667,17.0383333 C26.9243341,17.3261125 27.0001667,17.6683313 27.0001667,18.065 C27.0001667,18.5238912 26.8796123,18.916665 26.6385,19.2433333 C26.3973877,19.5700016 26.0473912,19.7799995 25.5885,19.8733333 L25.5885,19.9083333 C25.8373901,19.9394446 26.0571102,20.0133327 26.2476667,20.13 C26.4382232,20.2466672 26.5996105,20.3905547 26.7318333,20.5616667 C26.8640562,20.7327786 26.9651663,20.9272211 27.0351667,21.145 C27.105167,21.3627789 27.1401667,21.592221 27.1401667,21.8333333 C27.1401667,22.2455576 27.0604452,22.6072207 26.901,22.9183333 C26.7415548,23.229446 26.527668,23.4880545 26.2593333,23.6941667 C25.9909987,23.9002788 25.6760018,24.0538884 25.3143333,24.155 C24.9526649,24.2561116 24.5696131,24.3066667 24.1651667,24.3066667 C23.4262741,24.3066667 22.7904471,24.1355573 22.2576667,23.7933333 C21.7248862,23.4511094 21.3729453,22.9105592 21.2018333,22.1716667 L23.0451667,21.74 C23.1073892,22.035557 23.2337768,22.268888 23.4243333,22.44 C23.6148898,22.611112 23.8968315,22.6966667 24.2701667,22.6966667 C24.6512797,22.6966667 24.9332213,22.597501 25.116,22.3991667 C25.2987787,22.2008323 25.3901667,21.9461127 25.3901667,21.635 C25.3901667,21.4016655 25.341556,21.220834 25.2443333,21.0925 C25.1471106,20.964166 25.020723,20.8688892 24.8651667,20.8066667 C24.7096103,20.7444441 24.5346121,20.7075001 24.3401667,20.6958333 C24.1457213,20.6841666 23.9512788,20.6783333 23.7568333,20.6783333 L23.3485,20.6783333 L23.3485,19.1616667 Z" id="H3"></path>
                </g>
            </g>
        </g>
    </g>
</svg>