<svg class="link" width="19px" height="17px" viewBox="0 0 15 15" version="1.1" xmlns="http://www.w3.org/2000/svg" xmlns:xlink="http://www.w3.org/1999/xlink" xmlns:sketch="http://www.bohemiancoding.com/sketch/ns">
    <g id="Content-Editor" stroke="none" stroke-width="1" fill="none" fill-rule="evenodd" sketch:type="MSPage">
        <g id="AIA_text_formatting-bold" sketch:type="MSArtboardGroup" transform="translate(-485.000000, -454.000000)" fill="#B4B4B4">
            <g id="Group" sketch:type="MSLayerGroup" transform="translate(377.000000, 444.000000)">
                <g id="Rectangle-54-+-Imported-Layers" transform="translate(101.000000, 2.000000)" sketch:type="MSShapeGroup">
                    <g id="Imported-Layers" transform="translate(7.000000, 8.000000)">
                        <path d="M7.2276,10.518375 L5.343,12.350625 C4.8771,12.8032917 4.3491,13.0582083 3.816,13.0870833 C3.3486,13.1124583 2.9127,12.9546667 2.5914,12.6422917 L1.9917,12.0589583 C1.3386,11.424 1.3386,10.310125 1.9914,9.67545833 L5.2914,6.467125 C5.7987,5.97391667 6.3102,5.74145833 6.8118,5.77616667 C7.3335,5.81233333 7.8576,6.139 8.2872,6.696375 C8.4861,6.95391667 8.8623,7.006125 9.1272,6.81275 C9.3924,6.61966667 9.4461,6.25420833 9.2475,5.996375 C8.6055,5.16425 7.7709,4.67279167 6.897,4.61241667 C6.3021,4.57129167 5.3946,4.71683333 4.443,5.64229167 L1.143,8.850625 C0.0189,9.9435 0.0189,11.790625 1.143,12.8837917 L1.743,13.4668333 C2.2698,13.9795833 2.9649,14.2566667 3.7152,14.2566667 C3.771,14.2566667 3.8271,14.2549167 3.8832,14.252 C4.7154,14.2065 5.514,13.8343333 6.1914,13.1754583 L8.076,11.3432083 C8.3103,11.1154167 8.3103,10.7461667 8.076,10.518375 C7.8417,10.2905833 7.4616,10.2905833 7.2276,10.518375" id="Fill-1"></path>
                        <path d="M13.9914,1.850625 L13.3914,1.267 C12.3171,0.222833333 10.3935,-0.143791667 9.243,0.975625 L7.0776,3.080875 C6.8433,3.30866667 6.8433,3.67791667 7.0776,3.90570833 C7.3119,4.13379167 7.692,4.1335 7.926,3.90570833 L10.0917,1.80045833 C10.725,1.18416667 11.892,1.4595 12.543,2.092125 L13.143,2.67545833 C13.4631,2.986375 13.632,3.34804167 13.632,3.721375 C13.632,4.09441667 13.4631,4.456375 13.143,4.76729167 L9.543,8.26729167 C9.1746,8.62545833 8.7213,8.64033333 8.4849,8.61758333 C8.0628,8.57704167 7.6725,8.365 7.4664,8.06429167 C7.2828,7.79654167 6.9099,7.723625 6.6345,7.90241667 C6.3588,8.08120833 6.2844,8.44345833 6.468,8.7115 C6.8745,9.30416667 7.5843,9.70316667 8.3667,9.77870833 C8.4543,9.78716667 8.5413,9.79125 8.628,9.79125 C9.2958,9.79125 9.9273,9.54333333 10.3914,9.092125 L13.9914,5.592125 C14.5335,5.065375 14.832,4.40095833 14.832,3.721375 C14.832,3.0415 14.5335,2.377375 13.9914,1.850625" id="Fill-2"></path>
                    </g>
                </g>
            </g>
        </g>
    </g>
</svg>