<svg width="18px" height="16px" viewBox="0 0 18 16" version="1.1" xmlns="http://www.w3.org/2000/svg" xmlns:xlink="http://www.w3.org/1999/xlink">
    <g id="Page-1" stroke="none" stroke-width="1" fill="none" fill-rule="evenodd">
        <g id="Numbers" fill="#B5B5B5" fill-rule="nonzero">
            <path d="M14.1466667,10.395 L14.7183334,10.395 C14.8816675,10.395 15.0411104,10.3833334 15.1966667,10.36 C15.352223,10.3366665 15.4941661,10.2919447 15.6225,10.2258333 C15.750834,10.1597219 15.8538885,10.0663895 15.9316667,9.9458333 C16.0094449,9.8252771 16.0483334,9.6677787 16.0483334,9.4733333 C16.0483334,9.2244432 15.9491677,9.0183341 15.7508334,8.855 C15.552499,8.6916658 15.3094459,8.61 15.0216667,8.61 C14.7494431,8.61 14.5238898,8.6838881 14.345,8.8316666 C14.1661103,8.9794451 14.0494448,9.1622211 13.995,9.38 L12.07,8.9833333 C12.1633338,8.6255537 12.3033324,8.320279 12.49,8.0675 C12.6766676,7.8147209 12.8983321,7.6105563 13.155,7.455 C13.411668,7.2994436 13.6974985,7.1847226 14.0125,7.1108333 C14.3275016,7.036944 14.6599983,7 15.01,7 C15.3755574,7 15.7274983,7.0447217 16.0658334,7.1341666 C16.4041684,7.2236115 16.7016654,7.3636101 16.9583334,7.5541666 C17.2150013,7.7447231 17.4191659,7.9838874 17.5708334,8.2716666 C17.7225008,8.5594458 17.7983334,8.9016646 17.7983334,9.2983333 C17.7983334,9.7572245 17.677779,10.1499983 17.4366667,10.4766666 C17.1955544,10.8033349 16.8455579,11.0133328 16.3866667,11.1066666 L16.3866667,11.1416666 C16.6355568,11.1727779 16.8552769,11.246666 17.0458334,11.3633333 C17.2363899,11.4800005 17.3977772,11.623888 17.53,11.795 C17.6622229,11.9661119 17.763333,12.1605544 17.8333334,12.3783333 C17.9033337,12.5961122 17.9383334,12.8255543 17.9383334,13.0666666 C17.9383334,13.4788909 17.8586119,13.840554 17.6991667,14.1516666 C17.5397215,14.4627793 17.3258347,14.7213878 17.0575,14.9275 C16.7891654,15.1336121 16.4741685,15.2872217 16.1125,15.3883333 C15.7508316,15.4894449 15.3677798,15.54 14.9633334,15.54 C14.2244408,15.54 13.5886138,15.3688906 13.0558334,15.0266666 C12.5230529,14.6844427 12.171112,14.1438925 12,13.405 L13.8433334,12.9733333 C13.9055559,13.2688903 14.0319435,13.5022213 14.2225,13.6733333 C14.4130565,13.8444453 14.6949982,13.93 15.0683334,13.93 C15.4494464,13.93 15.731388,13.8308343 15.9141667,13.6325 C16.0969454,13.4341656 16.1883334,13.179446 16.1883334,12.8683333 C16.1883334,12.6349988 16.1397227,12.4541673 16.0425,12.3258333 C15.9452773,12.1974993 15.8188897,12.1022225 15.6633334,12.04 C15.507777,11.9777774 15.3327788,11.9408334 15.1383334,11.9291666 C14.943888,11.9174999 14.7494455,11.9116666 14.555,11.9116666 L14.1466667,11.9116666 L14.1466667,10.395 Z M6,9.545 L9.2083333,6.6633333 C9.3716675,6.5155548 9.5349992,6.3483342 9.6983333,6.1616666 C9.8616675,5.974999 9.9433333,5.7572234 9.9433333,5.5083333 C9.9433333,5.2283319 9.8422232,5.0086119 9.64,4.8491666 C9.4377767,4.6897214 9.2005569,4.61 8.9283333,4.61 C8.601665,4.61 8.3469453,4.7111101 8.1641666,4.9133333 C7.9813879,5.1155565 7.8783334,5.3644429 7.855,5.66 L6.105,5.5316666 C6.1283334,5.1038867 6.217777,4.7325015 6.3733333,4.4175 C6.5288896,4.1024984 6.7349987,3.840001 6.9916666,3.63 C7.2483346,3.4199989 7.5497205,3.2625005 7.8958333,3.1575 C8.2419461,3.0524994 8.6172202,3 9.0216666,3 C9.3950018,3 9.7449983,3.0524994 10.0716666,3.1575 C10.3983349,3.2625005 10.682221,3.4180545 10.9233333,3.6241666 C11.1644456,3.8302788 11.3530548,4.0888873 11.4891666,4.4 C11.6252784,4.7111126 11.6933333,5.0727757 11.6933333,5.485 C11.6933333,5.7494457 11.6661114,5.98861 11.6116666,6.2025 C11.5572219,6.4163899 11.4813893,6.6108324 11.3841666,6.7858333 C11.2869439,6.9608342 11.1722229,7.1222215 11.04,7.27 C10.9077771,7.4177785 10.7638896,7.5616659 10.6083333,7.7016666 L8.1,9.86 L11.7633333,9.86 L11.7633333,11.4 L6,11.4 L6,9.545 Z M2.6483333,1.96 L0.9916666,3.4183333 L0,2.275 L2.695,0 L4.3283333,0 L4.3283333,8.26 L2.6483333,8.26 L2.6483333,1.96 Z"></path>
        </g>
    </g>
</svg>
