<svg class="P" width="20px" height="12px" viewBox="0 0 10 12" version="1.1" xmlns="http://www.w3.org/2000/svg" xmlns:xlink="http://www.w3.org/1999/xlink" xmlns:sketch="http://www.bohemiancoding.com/sketch/ns">
    <g id="Content-Editor" stroke="none" stroke-width="1" fill="none" fill-rule="evenodd" sketch:type="MSPage">
        <g id="AIA_select_type_tag-select-video" sketch:type="MSArtboardGroup" transform="translate(-63.000000, -715.000000)" fill="#B5B5B5">
            <g id="Group" sketch:type="MSLayerGroup" transform="translate(40.000000, 647.000000)">
                <g id="Rectangle-55-Copy-8-+-P" transform="translate(10.000000, 56.000000)" sketch:type="MSShapeGroup">
                    <path d="M13.4476667,12.436 L17.7433333,12.436 C18.3422252,12.436 18.9084418,12.4904439 19.442,12.5993333 C19.9755582,12.7082228 20.4410536,12.8960542 20.8385,13.1628333 C21.2359464,13.4296124 21.5517211,13.7889422 21.7858333,14.2408333 C22.0199456,14.6927245 22.137,15.2616632 22.137,15.9476667 C22.137,16.6227812 22.0281122,17.1889977 21.8103333,17.6463333 C21.5925545,18.103669 21.293113,18.4684431 20.912,18.7406667 C20.530887,19.0128903 20.0790026,19.2061661 19.5563333,19.3205 C19.0336641,19.4348339 18.4674475,19.492 17.8576667,19.492 L15.9956667,19.492 L15.9956667,24 L13.4476667,24 L13.4476667,12.436 Z M15.9956667,17.336 L17.6943333,17.336 C17.9230011,17.336 18.1434989,17.3142224 18.3558333,17.2706667 C18.5681677,17.2271109 18.7587214,17.1536116 18.9275,17.0501667 C19.0962786,16.9467217 19.2323884,16.8051676 19.3358333,16.6255 C19.4392783,16.4458324 19.491,16.2198903 19.491,15.9476667 C19.491,15.6536652 19.4229451,15.4168342 19.2868333,15.2371667 C19.1507215,15.0574991 18.9765011,14.9186672 18.7641667,14.8206667 C18.5518323,14.7226662 18.3150013,14.6600557 18.0536667,14.6328333 C17.792332,14.605611 17.5418901,14.592 17.3023333,14.592 L15.9956667,14.592 L15.9956667,17.336 Z" id="P"></path>
                </g>
            </g>
        </g>
    </g>
</svg>