<svg width="12px" height="12px" viewBox="0 0 12 12" version="1.1" xmlns="http://www.w3.org/2000/svg" xmlns:xlink="http://www.w3.org/1999/xlink">
  <g fill="#B4B4B4">
    <polygon points="1.94301221 8 0 8 2.57259159 3.92401628 0.124830393 0 2.12211669 0 3.5495251 2.59972863 5.01492537 0 6.94708277 0 4.49932157 3.85888738 7.0990502 8 5.06919946 8 3.5495251 5.27544098"></polygon>
    <path d="M7.29443359,9.57999585 C7.47314542,9.15518904 7.89501621,8.7054865 8.56005859,8.23087476 C9.13720992,7.81778675 9.51074134,7.52189127 9.68066406,7.34317944 C9.94140755,7.06485774 10.0717773,6.76017329 10.0717773,6.42911694 C10.0717773,6.15958435 9.99707106,5.93546549 9.84765625,5.75675366 C9.69824144,5.57804183 9.48437639,5.48868726 9.20605469,5.48868726 C8.82519341,5.48868726 8.56591866,5.63077568 8.42822266,5.91495679 C8.3491207,6.07902011 8.30224617,6.33975969 8.28759766,6.69718335 L7.0703125,6.69718335 C7.09082042,6.15518845 7.18896396,5.71720455 7.36474609,5.38321851 C7.69873214,4.74747314 8.29198792,4.42960522 9.14453125,4.42960522 C9.81836274,4.42960522 10.3544902,4.61637094 10.7529297,4.98990796 C11.1513692,5.36344498 11.3505859,5.8578248 11.3505859,6.47306226 C11.3505859,6.9447443 11.2099623,7.36368543 10.9287109,7.72989819 C10.7441397,7.97306347 10.4409201,8.24405686 10.019043,8.54288647 L9.51806641,8.89884351 C9.20458828,9.12150087 8.98999081,9.28263207 8.87426758,9.38224194 C8.75854434,9.48185182 8.66113321,9.59757332 8.58203125,9.72940991 L11.3637695,9.72940991 L11.3637695,10.8324373 L7,10.8324373 C7.01171881,10.3754037 7.10986236,9.95792743 7.29443359,9.57999585 Z" id="2"></path>
  </g>
</svg>

