<svg height="60.383" viewBox="0 0 78.883 60.383" width="78.883" xmlns="http://www.w3.org/2000/svg"><g transform="translate(-15665.695 -21512.443)"><path d="m15735.47753906 21572.12695313h-48.54785156c-2.13476562 0-4.16992187-.80273438-5.72949219-2.25976563-1.55273437-1.44921875-2.49414062-3.41015625-2.6484375-5.52148437l-.04785156-.6484375h-.65039062-1.03808594c-5.74609375 0-10.41992188-4.67773438-10.41992188-10.42578125v-29.70703125c0-5.74609375 4.67382813-10.421875 10.41992188-10.421875h47.05957031c5.52734375 0 10.09960938 4.31835937 10.40917969 9.828125l.03710937.66015625h.66210938.49414062c4.63183594 0 8.40039063 3.76953125 8.40039063 8.40039062v31.68945313c0 4.63476562-3.76855469 8.40625-8.40039063 8.40625zm-52.28027343-30.00390625v.69921875 18.54296875 2.35546875c0 2.06054687 1.67480468 3.73632812 3.73242187 3.73632812h48.54785156c2.05761719 0 3.73144532-1.67578125 3.73144532-3.73632812v-20.8984375-.54101563-.7109375-9.5390625c0-2.05664062-1.67382813-3.73046875-3.73144532-3.73046875h-3.51367187-45.03417969c-2.05761719 0-3.73242187 1.67382813-3.73242187 3.73046875v8.734375.68945313l.68945312.00976562 44.56933594.65820313h-8.34277344-36.21582031zm-6.38183594-24.31445313c-3.17382813 0-5.75683594 2.58203125-5.75683594 5.75585938v29.70703125c0 3.17382812 2.58300781 5.75585937 5.75683594 5.75585937h1.01269531.70019531v-.69921875-26.296875c0-4.63085937 3.76855469-8.40039062 8.40136719-8.40039062h41.96289063.79296875l-.09863282-.78515625c-.35839843-2.87304688-2.81445312-5.03710938-5.71191406-5.03710938zm30.31738281 42.8515625h-18.82617187v-5.65820312h18.82617187z"/><path d="m15735.47753906 21571.42578125c4.24609375 0 7.70019532-3.45703125 7.70019532-7.70507812v-31.68945313c0-4.24609375-3.45410157-7.69921875-7.70019532-7.69921875h-1.81738281l-.07421875-1.32226562c-.2890625-5.140625-4.5546875-9.16601563-9.7109375-9.16601563h-47.05957031c-5.359375 0-9.71972656 4.36132813-9.71972656 9.72070313v29.70703125c0 5.36328125 4.36035156 9.72460937 9.71972656 9.72460937h2.33886719l.09570312 1.29882813c.14160156 1.93359375 1.00390625 3.73242187 2.42773438 5.06054687 1.4296875 1.3359375 3.29492187 2.0703125 5.25195312 2.0703125zm-52.98046875-30.00390625v-9.390625c0-2.44335937 1.98828125-4.43164062 4.43261719-4.43164062h48.54785156c2.44335938 0 4.43164063 1.98828125 4.43164063 4.43164062v31.68945313c0 2.44726562-1.98828125 4.4375-4.43164063 4.4375h-48.54785156c-2.44433594 0-4.43261719-1.99023438-4.43261719-4.4375zm-5.68164062-24.31445312h47.05957031c3.25 0 6.00488281 2.4296875 6.40722656 5.65039062l.19628907 1.57421875h-43.54882813c-4.24707031 0-7.70117187 3.453125-7.70117187 7.69921875v27.69726563h-2.41308594c-3.56054688 0-6.45703125-2.89648438-6.45703125-6.45703125v-29.70703125c0-3.56054688 2.89648437-6.45703125 6.45703125-6.45703125m29.6171875 42.8515625v-4.25585938h-17.42578125v4.25585938zm29.04492187 12.8671875h-48.54785156c-4.796875 0-8.73046875-3.71484375-9.07617187-8.4296875h-1.03808594c-6.13867188 0-11.12011719-4.98046875-11.12011719-11.125v-29.70703125c0-6.14453125 4.98144531-11.12109375 11.12011719-11.12109375h47.05957031c5.93261719 0 10.77929688 4.63867187 11.10839844 10.48828125h.49414062c5.02929688 0 9.10058594 4.07617187 9.10058594 9.09960937v31.68945313c0 5.02929687-4.07128906 9.10546875-9.10058594 9.10546875zm-51.58007812-30.00390625v20.8984375c0 1.67773437 1.359375 3.03710937 3.03222656 3.03710937h48.54785156c1.67773438 0 3.03125-1.359375 3.03125-3.03710937v-20.8984375zm-7.08203125-24.31445313c-2.78808594 0-5.05664063 2.26367188-5.05664063 5.05664063v29.70703125c0 2.79296875 2.26855469 5.05664062 5.05664063 5.05664062h1.01269531v-26.296875c0-5.0234375 4.07714844-9.09960937 9.1015625-9.09960937h41.96289063c-.31152344-2.49414063-2.43847657-4.42382813-5.01757813-4.42382813zm10.11425781 10.4921875c-1.67285156 0-3.03222656 1.359375-3.03222656 3.03125v8.734375l54.61132812.8046875v-9.5390625c0-1.671875-1.35351562-3.03125-3.03125-3.03125zm20.28125 32.359375h-18.98242187c-.34082032 0-.62207032-.27539062-.62207032-.62109375v-5.80664062c0-.34765625.28125-.62890625.62207032-.62890625h18.98242187c.34082031 0 .62207031.28125.62207031.62890625v5.80664062c0 .34570313-.28125.62109375-.62207031.62109375z" fill="#e8e8e8"/></g><path d="m9.441 40.189h4v17h-4z" fill="#e8e8e8"/><path d="m0 0h4.2v17h-4.2z" fill="#e8e8e8" transform="matrix(0 1 -1 0 72.941 7.689)"/><path d="m359.916 360.8a7.652 7.652 0 0 1 -5.124-1.995 25.482 25.482 0 0 1 -3.5-3.468 7.248 7.248 0 0 0 -4.935-2.529h-24.527v-1h24.57a8.263 8.263 0 0 1 5.659 2.883 24.526 24.526 0 0 0 3.388 3.355 6.693 6.693 0 0 0 4.8 1.744h19.524v1h-19.5c-.116.004-.235.01-.355.01z" stroke="#000" stroke-width="2" transform="translate(-305.389 -325.617)"/></svg>