<svg xmlns="http://www.w3.org/2000/svg" width="264.1" height="210.244" viewBox="0 0 264.1 210.244"><g id="illo" transform="translate(-11.425 -58.62)"><path id="Path_9194" data-name="Path 9194" d="M347.348,215.188s-64.57,16.254-64.488,44.434,17.053,25.778,31,42.557,24.789,24.557,24.789,24.557H209.238l-8.09-111.547Z" transform="translate(-189.724 -126.943)" fill="#37eb77"/><g id="illos" transform="matrix(0.921, -0.391, 0.391, 0.921, 0, 100.789)"><g id="Group_5749" data-name="Group 5749" transform="translate(39.294 114.093)"><path id="Path_3350" data-name="Path 3350" d="M9.939,7.985a3.155,3.155,0,0,0-1.1,2.1c-.073.462-.495.525-.812.606a1.361,1.361,0,0,0-.75.307.525.525,0,0,1-.5.04,7.525,7.525,0,0,1-1.154-.719A16.532,16.532,0,0,1,2.6,6.463,35.182,35.182,0,0,1,.133,2.1c-.209-.48-.218-.475.308-.847.427.813.826,1.638,1.287,2.425.366.625.808,1.206,1.254,1.859a.605.605,0,0,0-.06-.667A25.05,25.05,0,0,1,.526.785L.89.547,1.1.729V.194L2.076,0c.291.137.43.652.909.716-.016.521.44.781.67,1.163A12.216,12.216,0,0,0,4.6,3.111c.308-.041.538-.084.771-.1.816-.057.8-.031,1.3.417.565.5.951,1.194,1.679,1.511a.2.2,0,0,1,.1.141c.023.524.316.715.808.842.413.106.53.541.549.969C9.825,7.218,9.885,7.544,9.939,7.985Z" transform="translate(82.092 62.273)" fill="#a66dfa"/><path id="Path_3351" data-name="Path 3351" d="M.521.548c.584.291.584.291.9-.32C1.819.091,2.3.367,2.663,0a11.885,11.885,0,0,0,1.22.3C4.548.387,4.892.9,5.269,1.337c.255.294.523.589.756.909.273.375.6.709.873,1.083.248.338.461.7.681,1.062a.626.626,0,0,1,.131.325.777.777,0,0,0,.27.665c.38.384.351.946.483,1.425a4.244,4.244,0,0,1,.013,1.433c-.015.182-.039.571-.44.284-.029-.02-.168.129-.265.186s-.276.172-.311.142c-.423-.372-.527-.106-.72.261-.285.54-.458.5-1.223.364-.465-.083-.958-.1-1.23-.5A7.374,7.374,0,0,1,2.694,5.4,2.179,2.179,0,0,0,2.036,3.86c-.4-.346-.661-.841-1.2-1.034-.164-.058-.284-.254-.41-.4A1.593,1.593,0,0,1,0,1.35C-.007.9.346.8.521.548Z" transform="translate(18.692 8.848)" fill="#a66dfa"/><path id="Path_3352" data-name="Path 3352" d="M4.383,8.921c-.477-.477-.877-.944-1.343-1.331A12.99,12.99,0,0,1,.267,3.448a4.01,4.01,0,0,1-.241-2.1C.028,1.221.2,1.1.3.971l.45.89V.547A3.35,3.35,0,0,0,1.493.161.714.714,0,0,1,2.206.044a2.836,2.836,0,0,1,.715.431,2.61,2.61,0,0,0,.461,1.87c.3-.081.657.132.958-.177A.389.389,0,0,1,4.7,2.151c.739.446,1.646.681,2.019,1.593.067.164.142.377.277.449.2.111.021.454.37.468.287.011.1.3.155.464a4.289,4.289,0,0,1,.186.594,3.5,3.5,0,0,1,.007.574A5.868,5.868,0,0,0,6.138,8.635Z" transform="translate(77.246 36.944)" fill="#a66dfa"/><path id="Path_3353" data-name="Path 3353" d="M1.42.969C1.6.729,1.732.53,1.884.343A.746.746,0,0,1,2.1.182c.226-.126.388.231.642.075A1.625,1.625,0,0,1,3.4,0c.188-.018.466.209.567.135.225-.161.36-.211.555.009.036.041.169.01.252-.01.613-.148.613-.15.941.447L5.873.139a5.006,5.006,0,0,1,.233.648,4.8,4.8,0,0,1,.072.739,1.6,1.6,0,0,0,.142.754l.093-.926.1,0a4.858,4.858,0,0,1,.051.492c.005.833-.034,1.667.013,2.5a3.088,3.088,0,0,1-.5,2c-.155-.149-.3-.373-.479-.015-.193.392-.5.363-.9.183-.066.426-.1.929-.8.768V6.208L3.756,6.18l-.339,1.1C3.1,7.072,2.844,6.847,2.9,6.4c.014-.125-.131-.26-.178-.4-.2-.605-.2-.607-.7-.622-.1,0-.192,0-.288,0H1.462C1.219,5.137,1,4.9.764,4.686a2.63,2.63,0,0,1-.739-1.71c-.04-.315.028-.645-.017-.959a1.206,1.206,0,0,1,.286-.845C.609.686.78.672,1.42.969Z" transform="translate(0.005)" fill="#a66dfa"/><path id="Path_3354" data-name="Path 3354" d="M7.308,4.963c-.411.279-.806.558-1.218.81-.04.025-.183-.121-.338-.229A3.519,3.519,0,0,1,5.493,6a5.608,5.608,0,0,1-.4.411c-.271.28-.533.591-.934.167-.03-.032-.124,0-.187-.007-.451-.049-.879.063-1.332-.3a10.423,10.423,0,0,1-1.172-.852A4.885,4.885,0,0,1,.587,4.339,3.287,3.287,0,0,1,.026,2.268a2.876,2.876,0,0,1,.283-.628l.6.49C1.063,1.609,1.03,1,1.513.546l.6.448v-.7A8.04,8.04,0,0,1,3.954,0a1.4,1.4,0,0,1,.908.358,5.35,5.35,0,0,1,.9.849c.218.329.517.6.746.941a12.006,12.006,0,0,1,.778,1.8A2.6,2.6,0,0,1,7.308,4.963Z" transform="translate(50.276 3.628)" fill="#a66dfa"/><path id="Path_3355" data-name="Path 3355" d="M.566.411V2.477A4.825,4.825,0,0,0,.741.9C.747.691.647.428.9.3A2.886,2.886,0,0,1,1.732,0c.1-.015.285.217.341.37a1.8,1.8,0,0,1,.013.573c.16-.068.255-.145.34-.135.175.019.417.182.507.116C3.434.557,3.983.8,4.5.77a.89.89,0,0,1,.7.334c.276.467.831.61,1.123,1.16a1.342,1.342,0,0,0,.285.839A1.942,1.942,0,0,1,7.1,4.623a5.947,5.947,0,0,0-.008.911c-.656.39-1.339.768-1.994,1.19a1.735,1.735,0,0,1-1.891-.161c-.426-.223-1-.328-1.14-.921C1.118,5.214.949,4.211.441,3.454a3.965,3.965,0,0,1-.428-1.64C-.067,1.368.248.852.387.368Z" transform="translate(16.234 26.59)" fill="#a66dfa"/><path id="Path_3356" data-name="Path 3356" d="M1.33,3.5C.924,3.093.495,2.664.011,2.181A7.783,7.783,0,0,1,.028,1.108C.046.97.246.831.394.75.45.719.594.85.7.907.839.63.921.255,1.394.347A.38.38,0,0,0,1.666.321.911.911,0,0,1,2.46.02,3.794,3.794,0,0,1,4.022.63a6.954,6.954,0,0,1,2.037,2.6,10.594,10.594,0,0,1,.589,1.956.934.934,0,0,1-.359.925c-.547.383-1.073.8-1.633,1.161a1.161,1.161,0,0,1-.68.19A2.887,2.887,0,0,1,1.166,5.1a1.962,1.962,0,0,1-.174-.685A4.5,4.5,0,0,1,1.33,3.5Z" transform="translate(34.104 33.921)" fill="#a66dfa"/><path id="Path_3357" data-name="Path 3357" d="M7.714,5.227,7.6,4.648c0,.766-.811,1.053-.988,1.705a.382.382,0,0,1-.55.207c-.233-.21-.391-.056-.523.029a.851.851,0,0,1-1,0A6.4,6.4,0,0,1,1.843,4.33c-.73-.395-.944-1.2-1.4-1.808A4.736,4.736,0,0,1,0,1.419c.268-.391.658-.288,1.13-.052A1.577,1.577,0,0,0,1,.814C.874.641,1.012.573,1.085.543a2.849,2.849,0,0,0,.948-.5c.067-.063.256-.038.373,0,.209.063.389.2.622.008.066-.052.28.053.415.113A5.938,5.938,0,0,1,6.338,2.434a2.835,2.835,0,0,0,.457.46c.447.415.53,1.019.876,1.466A.754.754,0,0,1,7.714,5.227Z" transform="translate(30.12 66.985)" fill="#a66dfa"/><path id="Path_3358" data-name="Path 3358" d="M6.315,1.522,6.394.97c.07.051.132.072.148.11a11.657,11.657,0,0,1,.7,1.829c.091.406.207.795-.186,1.111-.268.215,0,.834-.6.8-.284.456-.739.411-1.174.38A6.745,6.745,0,0,1,5,6.067c-.144.3-.606.383-1.1.242-.113-.033-.222-.143-.326-.133-.8.07-.8.075-1.137-.556a9.543,9.543,0,0,1-.5-.947,1.4,1.4,0,0,0-.813-.828,1.831,1.831,0,0,1-1.1-1.4A1.569,1.569,0,0,1,.691.955L1.538,2.06c0-.465,0-.778,0-1.091s.04-.247.533-.47c.351-.158.861.034,1.063-.454L4.177,0c.642-.026,1.211.046,1.51.758A3.428,3.428,0,0,0,6.315,1.522Z" transform="translate(89.974 25.793)" fill="#a66dfa"/><path id="Path_3359" data-name="Path 3359" d="M1.348,7.912a1.324,1.324,0,0,1-1.1-1.177A8.162,8.162,0,0,1,.007,4.9,16.592,16.592,0,0,0,0,2.4c-.03-.4.228-.7.222-1.076,0-.1.135-.286.2-.283.5.029.731-.508,1.251-.511C2.021.525,2.363.2,2.749,0c.381.38,1.19-.09,1.5.749-.2.591.3,1.109.472,1.713.024.084.112.159.113.239.008.952,0,1.9,0,2.937l-.386-.343c.052.224.042.395.118.453s.253-.007.368.032c.052.017.08.155.086.24,0,.04-.082.126-.113.12-.233-.046-.463-.109-.715-.172L3.7,7.034l-.576-.043c.275.276-.041.377-.155.546s-.2.366-.293.538c-.606-.066-.832-.456-.994-.974Z" transform="translate(0 24.082)" fill="#a66dfa"/><path id="Path_3360" data-name="Path 3360" d="M1.539,3.459c-.5-.014-.97-.149-1.21.4-.406-.536-.455-.916-.04-1.342a6.072,6.072,0,0,1,.839-.915c.319-.222.437-.714.711-1.028A4.23,4.23,0,0,1,2.637,0l.32.313L2.5.635l.05.115L3.24.642c.065.1.142.351.305.436A6.318,6.318,0,0,1,5.751,3.319a7.885,7.885,0,0,1,.421.978c.389.786.489.931.371,1.646a2.627,2.627,0,0,1-.586,1.488,1.1,1.1,0,0,0-.34.618c-.021.537-.316.622-.749.6a1.1,1.1,0,0,0-.367.039c-.757.2-.835.182-1.212-.4a12.094,12.094,0,0,1-1.15-2.794C1.908,4.818,1.734,4.125,1.539,3.459Z" transform="translate(70.697 72.82)" fill="#a66dfa"/><path id="Path_3361" data-name="Path 3361" d="M6.045,7.546A6.584,6.584,0,0,1,4.532,6.537C3.72,5.717,2.847,4.947,2.1,4.073A12.4,12.4,0,0,1,0,1.171C.05.745.6,1.2.615.695c0-.143.355-.281.549-.417.484-.338.754-.394,1.106-.019a2.114,2.114,0,0,0,1.205.6,6.807,6.807,0,0,1,1.79,1.021A8.4,8.4,0,0,1,6.891,3.3a8.9,8.9,0,0,1,.84.739,2.551,2.551,0,0,1,.532.982,1.006,1.006,0,0,1-.274.729c-.2.235-.3.576-.652.689-.2.066-.176.295-.216.483-.046.216-.107.48-.482.208C6.376,6.944,6.155,7.213,6.045,7.546Z" transform="translate(53.945 58.167)" fill="#a66dfa"/><path id="Path_3362" data-name="Path 3362" d="M3.793,7.888A4.184,4.184,0,0,1,1.755,5.779,17.569,17.569,0,0,1,.66,3.545a3.828,3.828,0,0,1-.6-2.462c.694.484.637,1.41,1.3,2.027A25.9,25.9,0,0,0,.48.345l.633.348L1.205.174,2.12,0c.089.144.207.356.347.551.545.764.548.761,1.538,1.113a1.575,1.575,0,0,1,.315.167A4.84,4.84,0,0,1,6.207,3.7a3.288,3.288,0,0,1,.359,1.215.408.408,0,0,0,.119.235.233.233,0,0,1-.07.394c-.433.244-.62.724-1,1.012a.643.643,0,0,0-.223.487.94.94,0,0,1-.833.575C4.4,7.585,4.3,7.3,4.087,7.511A3.565,3.565,0,0,0,3.793,7.888Z" transform="translate(94.967 52.257)" fill="#a66dfa"/><path id="Path_3363" data-name="Path 3363" d="M5.908,4.993l-.587.1.237.442L4.132,6.957a1.48,1.48,0,0,0-.267,0,2.435,2.435,0,0,1-2.4-1.152A8.711,8.711,0,0,1,.281,3.9,2,2,0,0,1,.05,2.479l.912,2,.156-.05a1.84,1.84,0,0,0-.075-.365C.849,3.6.627,3.148.442,2.68c-.082-.207-.256-.465.189-.562.137-.029.218-.326.323-.5.092-.154.181-.31.254-.434.45-.041.454.353.735.515L1.726.876l.529-.42c.121.122.282.314.432-.041.162-.384.4-.533.79-.281.035.023.108.04.132.021.449-.37.714,0,.922.282A9.332,9.332,0,0,1,5.558,2.7c.07.182.222.607-.29.627-.029,0-.051.161-.076.246.107.025.27.109.311.067a.227.227,0,0,1,.413.155C5.744,4.2,6.144,4.594,5.908,4.993Z" transform="translate(61.666 32.708)" fill="#a66dfa"/><path id="Path_3364" data-name="Path 3364" d="M.542.62c.113.113.226.227.4.4L1.026.277c.4-.083.805-.188,1.22-.249a2.586,2.586,0,0,1,.765,0c.191.029.041.385.4.416.229.021.406.411.57.683.133.221-.066.7.438.67q.026.468.053.938c0,.03.008.06.013.091L5.913,4.258a3.028,3.028,0,0,1,.47,0c.239.039.5.275.374.422-.273.327.216.552.022.819a2.716,2.716,0,0,1-1.585.142l.45.974c-.1.094-.224.319-.35.317-.794-.005-1.629.2-2.336-.367a3.376,3.376,0,0,1-.572-.459c-.34-.426-.645-.88-.955-1.33C1.278,4.559,1.148,4.322,1,4.1c-.227-.352-.16-.854-.577-1.1A2.039,2.039,0,0,0,.095,1.881.925.925,0,0,1,.542.62Z" transform="translate(63.545 16.532)" fill="#a66dfa"/><path id="Path_3365" data-name="Path 3365" d="M3.135.025h.888c.344,0,.715-.057.794.439a.245.245,0,0,0,.2.13c.407-.06.513.325.762.494A2.815,2.815,0,0,1,6.722,3c.1.4-.032.685-.486.955a3.839,3.839,0,0,0-1.5,1.048c-.309.006-.561.489-.922.1a.375.375,0,0,0-.254-.073,3.016,3.016,0,0,1-2.611-1.6A4.344,4.344,0,0,1,.1,1.957,5.094,5.094,0,0,1,0,1.231c-.006-.08.041-.218.1-.239C.587.818.942.4,1.416.232A3.819,3.819,0,0,1,3.135.025Z" transform="translate(31.231 2.852)" fill="#a66dfa"/><path id="Path_3366" data-name="Path 3366" d="M.421.705l.446.7C.912,1.072.93.957.943.842.985.46.984.46,1.467.411c.06-.006.153,0,.175-.032A.76.76,0,0,1,2.552.04,3.158,3.158,0,0,1,3.673.564a8.864,8.864,0,0,1,2.44,3.783,2.471,2.471,0,0,1,.013.829l-.368-.042c.024.346-.054.6-.458.683a.473.473,0,0,0-.3.327c-.041.417-.468.213-.617.43-.238-.378-.648.08-.915-.19s-.608-.459-.777-.764a10.653,10.653,0,0,1-.949-2.1,1.248,1.248,0,0,0-.565-.792A2.486,2.486,0,0,1,.12,1.615C-.07,1.2-.078,1.205.421.705Z" transform="translate(32.401 48.884)" fill="#a66dfa"/><path id="Path_3367" data-name="Path 3367" d="M1,2.822a1.331,1.331,0,0,1,.008-.348c.021-.08.158-.134.169-.211s-.085-.18-.086-.271.113-.18.091-.24a.724.724,0,0,0-.225-.288.945.945,0,0,0-.293-.086l.157.545C.479,1.716.1,1.552.267,1.051l.449.194C.772.643.215.956,0,.671.314.708.524.492.84.534c.147.02.338-.292.562-.5L2.472.9l.1-.629L3.99,0c.246.314.439.6.673.848.2.213.483.356.679.574A5.4,5.4,0,0,1,6.373,3.589c.082.277.171.713-.356.787,0,.506-.532.583-.773.9a1.139,1.139,0,0,1-1.412.239A5.232,5.232,0,0,1,1.852,3.838C1.576,3.51,1.266,3.2,1,2.822Z" transform="translate(49.873 35.567)" fill="#a66dfa"/><path id="Path_3368" data-name="Path 3368" d="M.865,2.339l.477.163C1.377,1.691.54,1.464.423.718A1.982,1.982,0,0,1,.831.9a6.762,6.762,0,0,1,.495.487A1.232,1.232,0,0,0,.981.614C1.487,0,1.487,0,2.085,0a5.336,5.336,0,0,0,1.03,1.115c.465.284.6.769.945,1.117a4.8,4.8,0,0,1,.762,1.211A1.378,1.378,0,0,1,5,4.219c-.049.311-.181.765-.4.854-.36.145-.28.4-.393.619a1.071,1.071,0,0,1-.758.655c-.227.037-.5.211-.666.136a3.525,3.525,0,0,1-1.127-.738A19.241,19.241,0,0,1,.1,3.8C-.02,3.633.036,3.336,0,3l.362.292C.292,2.8.721,2.634.865,2.339Z" transform="translate(65.877 48.538)" fill="#a66dfa"/><path id="Path_3369" data-name="Path 3369" d="M6.7,4.313l-.513-.281c-.216.782-.27.822-.91.541l.451,1.049-.511.3-.975-.976c-.208.47.365.686.308,1.139-.514.073-.812-.277-1.109-.6-.162-.176-.249-.422-.416-.591A21.258,21.258,0,0,1,1,2.467a1.686,1.686,0,0,0-.2-.206A1.915,1.915,0,0,1,0,.976c.374-.229.573.125.828.343C1.087.89.488.833.515.517c.023-.38.747.105.563-.517H2.12c.3.211.6.418.9.634a5.645,5.645,0,0,0,.859.7c.353.171.588.576.9.851.2.179.332.424.657.506.235.057.36.414.717.369.1-.013.278.166.329.293A7.216,7.216,0,0,1,6.7,4.313Z" transform="translate(54.975 81.884)" fill="#a66dfa"/><path id="Path_3370" data-name="Path 3370" d="M4.19,2.563c.331.023.56-.15.863.07-.154.053-.266.091-.387.134.114.385.241.769.333,1.16.024.1-.029.3-.1.327-.386.163-.5.579-.8.806a1.059,1.059,0,0,1-.507.154c-.087.01-.19-.123-.277-.113A1,1,0,0,0,3,5.27c-.165-.584-.157-.609-.807-.829-.389-.133-.47-.516-.746-.757l-.189.4c-.1-.1-.261-.194-.26-.286C1,2.652,1,2.626.474,1.939c-.3.519.27.818.3,1.326C.635,3.243.426,3.259.4,3.2.156,2.6-.22,2.036.165,1.319.285,1.1.306.979.574.975A1.034,1.034,0,0,0,1.064.782c.381-.24.749-.5,1.157-.782L2.38.237c.322.223.657-.38.711.25.015.179.415-.248.415.22,0,.181.332.363.5.529-.06.156-.116.3-.173.45l.142.1.273-.519.4.683Z" transform="translate(50.872 19.226)" fill="#a66dfa"/><path id="Path_3371" data-name="Path 3371" d="M3.236,5.167l-.592-.748-.245.5a2.166,2.166,0,0,1-.832-.76C1.1,3.5.736,2.769.261,2.106A1.77,1.77,0,0,1,.066.658c.439-.089.534.426.9.557V.277L2.935,0A5.168,5.168,0,0,1,4.3,1.916c.171.41.523.718.63,1.185.042.184-.195.434.1.572a2.311,2.311,0,0,1-.089.226c-.477-.172-.637.52-1.1.409-.03-.007-.111.169-.156.267a3.077,3.077,0,0,1-.135.327A1.788,1.788,0,0,1,3.236,5.167Z" transform="translate(19.456 45.386)" fill="#a66dfa"/><path id="Path_3372" data-name="Path 3372" d="M2.232.005l.381.882L2.791.418c.043.026.114.045.123.08A1.934,1.934,0,0,0,3.4,1.36a2.3,2.3,0,0,1,.343.53,1.084,1.084,0,0,0,.808.624L4.7,2.2l.528.395c0,.121.013.172,0,.182-.174.113-.353.22-.516.321l.153.858-.674-.328L3.8,4.409l-.466.053V4.89a.9.9,0,0,1-1.3-.068C1.582,4.405,1.066,4.052.6,3.556l.593-.392A2.9,2.9,0,0,0,.623,2.091,6.614,6.614,0,0,1,0,.929C.283.582.505.84.764.948.775.851.82.747.789.677.6.243.679.028,1.089.01,1.473-.009,1.859.005,2.232.005Z" transform="translate(41.79 62.195)" fill="#a66dfa"/><path id="Path_3373" data-name="Path 3373" d="M.43,1.459l.458.678c.043-.133.1-.219.088-.291C.911,1.5.825,1.155.737.763H1.3c.049.1.108.223.225.467V.444a1.052,1.052,0,0,0,.268-.1c.149-.11.386-.364.41-.343.245.2.547.079.785.17A.893.893,0,0,1,3.669,1c0,.135-.18.285-.154.4.022.093.269.113.343.217a.379.379,0,0,1,0,.363c-.25.2-.195.457-.177.7a.485.485,0,0,1-.378.56c-.286.081-.353.265-.413.539a.732.732,0,0,1-.8.624,1.873,1.873,0,0,0-.466.03c-.383.084-.865-.008-.984-.288A4.346,4.346,0,0,1,.01,2C.04,1.684.229,1.6.43,1.459Z" transform="translate(16.183 64.548)" fill="#a66dfa"/><path id="Path_3374" data-name="Path 3374" d="M.106,1.146l.8.234A.729.729,0,0,0,.8.494c.337-.308.562.155.893.105l.1-.514c.259-.278.493.233.806-.008s.4.286.673.347A.872.872,0,0,1,3.67.753c.362.442.418,1.071.905,1.458.117.093.054.412.08.693-.54-.265-.573.592-1.093.389-.16.259-.009.728-.594.784l-.3-.506-.232.486c-.328.077-.478-.205-.586-.385A4,4,0,0,0,.434,2.258.788.788,0,0,1,.106,1.146Z" transform="translate(47.39 47.536)" fill="#a66dfa"/><path id="Path_3375" data-name="Path 3375" d="M3.928,3.091l-1.223.958H1.9C1.582,3.594,1.479,3,1.015,2.618A2.6,2.6,0,0,0,.146,1.149C.025,1.008.052.74,0,.478.139.44.277.443.349.375c.739-.692,1.435-.3,2.024.169A6.346,6.346,0,0,1,3.657,2.02,3.219,3.219,0,0,1,3.928,3.091Z" transform="translate(38.883 20.006)" fill="#a66dfa"/></g><g id="Group_5752" data-name="Group 5752" transform="translate(107.925 0) rotate(81)"><path id="Path_3391" data-name="Path 3391" d="M52.7,79.043a10.461,10.461,0,0,1-1.861,3.6,9.461,9.461,0,0,0-1.4,2.174c-.137.28-.388.365-.531.615a14.858,14.858,0,0,1-.884,1.813c-.964,1.28-1.914,2.566-2.92,3.816-.664.825-1.285,1.692-1.974,2.5a11.734,11.734,0,0,1-4.745,3.224c-2.1.829-4.187,1.727-6.338,2.414a28.828,28.828,0,0,1-12.329,1.29A17.953,17.953,0,0,1,12.491,98.4,23.025,23.025,0,0,1,4.08,89.966a3.989,3.989,0,0,0-.266-.38,11.4,11.4,0,0,1-1.965-3.678,12.032,12.032,0,0,0-.777-1.979,6.949,6.949,0,0,1,0-5.74A15.338,15.338,0,0,1,4.447,73.18a11.032,11.032,0,0,0,3-6.778,24.608,24.608,0,0,0-.6-7.1c-.264-1.441-.5-2.886-.783-4.322a23.787,23.787,0,0,0-2.616-6.447,33.7,33.7,0,0,1-3.17-8.52,13.009,13.009,0,0,1,.573-7.318A10.711,10.711,0,0,1,3.023,28.9a22.2,22.2,0,0,1,3.224-2.978,32.941,32.941,0,0,1,9.441-4.554,36.072,36.072,0,0,0,10.892-5.037,83.05,83.05,0,0,0,6.986-5.77A46.9,46.9,0,0,1,43.45,3.268C47.009,1.41,50.728-.036,54.8,0c6.125.056,11.369,2.22,15.084,7.258,2.747,3.726,3.193,8,2.295,12.454-.162.8-.326,1.61-.514,2.408a16.052,16.052,0,0,1-2.545,5.671c-.715,1.009-1.485,1.975-2.2,2.973a34.5,34.5,0,0,1-2.741,3.291,36.358,36.358,0,0,0-3.054,3.859c-.328.469-.849.754-1.167,1.258a38.75,38.75,0,0,0-3.306,5.887,11.32,11.32,0,0,0-1.026,3.515c-.056.783-.008,1.563-.076,2.341a13.91,13.91,0,0,0,.284,3.453c.071.437-.459.791-.345.822.618.164.183.512.2.764.007.149-.087.313-.053.45.574,2.327.326,4.7.375,7.055A22.593,22.593,0,0,1,55.65,70c-.215.78-.372,1.581-.6,2.361a14.8,14.8,0,0,0-.859,2.788,12.985,12.985,0,0,1-1.313,3.755c-.027.068-.129.105-.2.159.064-.732.663-1.277.684-2.03a16.1,16.1,0,0,0-1.42,3.328ZM34.924,14.975A10.615,10.615,0,0,0,37.01,13.1a12.866,12.866,0,0,0-2.073,1.884A3.914,3.914,0,0,0,33.554,16.1,4.293,4.293,0,0,0,34.924,14.975ZM42.79,4.84a2.079,2.079,0,0,0,.372-.117,36.629,36.629,0,0,1,8.862-3.411c.112-.026.267-.022.334-.2-.211.03-.408.053-.6.088a26.4,26.4,0,0,0-7.305,2.6A4.582,4.582,0,0,0,42.8,4.853c-.694.049-1.117.634-1.717.875a.241.241,0,0,0-.058.4c.053.054.127.089.16.025C41.535,5.483,42.382,5.431,42.79,4.84ZM24.124,97.785a12.964,12.964,0,0,0,1.322-.007c1.786-.184,3.549-.523,5.312-.856a47.508,47.508,0,0,0,7.5-2.519A6.387,6.387,0,0,0,41.268,92.4a41.488,41.488,0,0,0,6.076-10.929c1.166-3.175,2.684-6.218,3.93-9.366a26.578,26.578,0,0,0,1.712-7.016c.212-2.013.093-4.03.107-6.047.012-1.658-.017-3.315.087-4.979a25.349,25.349,0,0,0-.29-3.592,16.1,16.1,0,0,1,.5-6.251,26.025,26.025,0,0,1,2.394-5.394,59.353,59.353,0,0,1,7.206-9.477,43.6,43.6,0,0,0,4-4.982,18.468,18.468,0,0,0,3.121-10.831,8.048,8.048,0,0,0-4.061-7.069c-4.6-2.813-9.459-3.714-14.674-2a34.107,34.107,0,0,0-10.924,6.113c-2.052,1.67-3.925,3.54-5.971,5.215a43.922,43.922,0,0,1-8.9,6.048,54.418,54.418,0,0,1-7.895,2.84,29.69,29.69,0,0,0-6.543,2.794,15.34,15.34,0,0,0-5.789,5.577c-.166.287-.172.284-.549.292-.115,0-.122.1-.16.174a5.009,5.009,0,0,0-.586,2.208c-.006.531.2,1.291.017,1.547-.584.821-.144,1.615-.036,2.307a19.167,19.167,0,0,0,.621,2.607,33.67,33.67,0,0,0,2.492,6.258,17.034,17.034,0,0,1,2.224,5.712c.082.6.8,1.278.034,1.916,0,0,.053.06.077.095a4.085,4.085,0,0,1,.645,2.066c.03.7.279,1.346.309,2.034a12.966,12.966,0,0,1,.222,3.329,7.99,7.99,0,0,0-.084,1.605c0,1.194-.407,2.331-.469,3.527a5.984,5.984,0,0,1-.631,1.531,21.622,21.622,0,0,1-3.348,4.776C5,76.476,3.729,77.891,3.61,79.871a4.217,4.217,0,0,0,.127,2.39c1.108,2.014,1.691,4.3,3.212,6.1,1.183,1.4,1.978,3.108,3.42,4.329a26.792,26.792,0,0,0,4.385,3.362A9.807,9.807,0,0,0,17.3,97.139,29.58,29.58,0,0,0,24.124,97.785Zm26.5-22.307c-.657,2.244-1.961,4.147-2.617,6.325C48.835,81.22,50.966,76.209,50.626,75.478ZM24.785,18.695a22.689,22.689,0,0,0,5.932-4.2c-1.871,1.406-3.74,2.813-5.737,4.039A1.624,1.624,0,0,0,24.785,18.695ZM3.217,30.373c1.094-1.18,2.236-2.313,3.4-3.429A10.957,10.957,0,0,0,3.217,30.373ZM1.272,80.205c.262-.738.432-1.5.653-2.247A4.012,4.012,0,0,0,1.272,80.205ZM2.63,31.9c-.044-.164-.128-.252-.282-.223a.484.484,0,0,0-.429.489c-.009.15.08.179.205.157C2.382,32.281,2.5,32.08,2.63,31.9Z" transform="translate(0 0)" fill="#a66dfa"/><path id="Path_3392" data-name="Path 3392" d="M34.321,59.18c-.027-.162,0-.306-.163-.388-.029.249-.23.488.1.706.192.127.011.333-.038.487-.442,1.381-.872,2.768-1.3,4.151-.406,1.317-.892,2.616-1.2,3.964A13.666,13.666,0,0,1,31,70.026a2.423,2.423,0,0,0-.21.892c0,.648-.045.665-.645.324a.558.558,0,0,0-.207-.016c0,.072-.022.144,0,.187a1.782,1.782,0,0,1-.148,2.007,3.7,3.7,0,0,0-.694,1.341,3.751,3.751,0,0,1-1.374,1.95c-.058.048-.189.026-.2.137-.036.658-.565.973-.964,1.365-.381.374-.851.647-1.209,1.058a7.912,7.912,0,0,1-2.142,1.753,11.121,11.121,0,0,1-1.214.8c-1.6.626-3.16,1.326-4.776,1.908a13.716,13.716,0,0,1-8.128.039,11.969,11.969,0,0,1-4.353-2.08,9.094,9.094,0,0,1-1.325-1.293A13.969,13.969,0,0,1,.166,74.3a5.743,5.743,0,0,1,.606-4.24c.194-.349.343-.807,1-.728.285.034.568-.5.79-.833a39.807,39.807,0,0,0,3.861-7.569A36.021,36.021,0,0,0,8.8,52.305a17.24,17.24,0,0,0-.562-6.375,12.932,12.932,0,0,0-2.309-4.465c-.752-1.028-1.425-2.113-2.168-3.148-.263-.367.069-.6.147-1.073-.407.553-.473.442-.646-.013a10.337,10.337,0,0,0-.741-1.32,6.244,6.244,0,0,1-.853-3.031c0-.4-.214-.737-.16-1.118a10.132,10.132,0,0,1,.238-1.433A3.57,3.57,0,0,1,2.938,28.1c.22-.153.089-.628.34-.9a18.5,18.5,0,0,1,3.42-3.23,65.514,65.514,0,0,1,10.024-5.216,20.657,20.657,0,0,0,6.68-4.18c2.824-2.773,5.8-5.383,8.852-7.9A32.352,32.352,0,0,1,41.817.98,17.026,17.026,0,0,1,46.428.016,5.876,5.876,0,0,1,51.7,2.6a12.323,12.323,0,0,1,2.144,10.95,29.764,29.764,0,0,1-2.969,7.634A10.248,10.248,0,0,1,48.579,24.3a7.613,7.613,0,0,0-1.154,1.653c-1.316,1.9-2.972,3.521-4.282,5.429-.583.85-1.077,1.745-1.626,2.61a44.886,44.886,0,0,0-2.922,6,21.531,21.531,0,0,0-1.363,5.658q-.461,3.118-.986,6.228a19.032,19.032,0,0,1-.773,3.553c-.3.779-.307,1.609-.66,2.364C34.61,58.231,34.828,58.824,34.321,59.18Zm-28.2,4c.19-.071.236-.261.3-.412a33.462,33.462,0,0,0,1.71-4.379,9.671,9.671,0,0,0,.656-2.687c-.43,1.684-1.178,3.255-1.71,4.9A15.891,15.891,0,0,0,6.137,63.2,28.145,28.145,0,0,0,4.39,66.48,12.5,12.5,0,0,0,6.123,63.185ZM6.8,39.367c.012-.085-.008-.207.041-.247.088-.071.133.037.191.1.165.181.087.454.313.635a2.956,2.956,0,0,1,.911,1.284c.177.452.66.781.99,1.18.073.089.166.239.071.365-.176.234-.035.311.159.366a.684.684,0,0,1,.448.458,8.958,8.958,0,0,1,.773,2.3,5.073,5.073,0,0,0,.341,1.565,6.429,6.429,0,0,1,.52,3.325c-.048.987-.237,2-.192,2.986a11.492,11.492,0,0,1-.51,2.345c-.145.963-.812,1.8-.944,2.8-.081.614-.73,1.081-.724,1.568.013,1.125-.984,1.731-1.16,2.746a2.314,2.314,0,0,1-.469,1.113c-.576.63-.745,1.5-1.342,2.13-.752.791-1.143,1.85-1.945,2.634A15.671,15.671,0,0,0,3,70.649a4.517,4.517,0,0,0-.474,1.9c-.183.939.356,1.672.6,2.5a11.048,11.048,0,0,0,3.212,4.918,9.037,9.037,0,0,0,9.778,2.069c.374-.136.749-.274,1.126-.4a17.933,17.933,0,0,0,5.906-3.482c2.326-1.975,3.427-4.728,4.716-7.335a25.04,25.04,0,0,0,.967-3.042,21.465,21.465,0,0,0,.644-2.1c.162-.717.382-1.414.6-2.113s.516-1.372.686-2.079c.151-.629.46-1.191.591-1.843.174-.871.458-1.739.7-2.609a65.889,65.889,0,0,0,1.871-9.517c.212-1.785.367-3.587.737-5.341a36.108,36.108,0,0,1,7.4-15.184c1.607-2.013,3.313-3.947,5-5.9a24.367,24.367,0,0,0,4.7-9.608,9.978,9.978,0,0,0-.29-6.405A3.289,3.289,0,0,0,48.9,2.657a11.171,11.171,0,0,0-3.881.328,9.682,9.682,0,0,0-2.31.856A25.88,25.88,0,0,0,37.525,6.8c-.372.3-.836.342-1.208.643-.476.385-.809.9-1.329,1.251-.3.2-.656.218-.931.472a65.472,65.472,0,0,0-5.29,4.773c-.546.627-1.221,1.141-1.817,1.728a21.562,21.562,0,0,1-7.767,4.926A45.161,45.161,0,0,0,9.1,25.843a11.9,11.9,0,0,0-3.344,2.862,5.455,5.455,0,0,0-1.218,2.307,8.9,8.9,0,0,0,.18,3.755c.1.3-.08.71-.016.812.243.389.39.83.654,1.2A5.427,5.427,0,0,1,6.8,39.367ZM31.529,61.506A23.562,23.562,0,0,0,30,65.836c-.416,1.507-.977,2.962-1.464,4.441-.461,1.4-1.126,2.73-1.7,4.091C29.3,70.4,30.218,65.884,31.529,61.506ZM32.546,7.516a40.907,40.907,0,0,1,9.311-5.7C39.636,2.111,33.474,6.183,32.546,7.516ZM6.866,24.766a9.614,9.614,0,0,0-4.018,4.56A27.7,27.7,0,0,1,6.866,24.766ZM1.289,70.452c-.736.731-1.072,3-.588,3.466A13.411,13.411,0,0,1,1.289,70.452ZM30.186,9.6l-.143-.153a35.1,35.1,0,0,0-3.71,3.513Zm-8.292,7.2a15.339,15.339,0,0,0,3.686-3.233C24.356,14.654,23.152,15.761,21.894,16.8Z" transform="translate(8.246 8.856)" fill="#a66dfa"/><path id="Path_3393" data-name="Path 3393" d="M30.981,19.341a.988.988,0,0,1,0,1.042c-.389.948-1.182,1.693-1.332,2.75a2.977,2.977,0,0,1-.526.98c-.457.808-.545,1.749-.956,2.537-.39.747-.557,1.565-.955,2.3-.211.388-.137.871-.412,1.246a11.92,11.92,0,0,0-.7,2.134c-.134.764-.289,1.525-.444,2.286-.027.131-.085.265-.263.237s-.272.055-.2.218a1.887,1.887,0,0,1-.286,1.636c-.682,1.393-1.274,2.824-1.873,4.25-.118.283-.67.206-.473.769.1.285-.221.777-.442,1.145s-.361.76-.556,1.132c-1.439,2.743-2.761,5.541-4.014,8.374-.695,1.572-1.524,3.083-2.256,4.639a8.91,8.91,0,0,0-.43,1.255,1.8,1.8,0,0,1-.754,1.183.284.284,0,0,0-.17.174c-.577,1.817-2.127,2.767-3.51,3.832a17.351,17.351,0,0,1-3.32,1.739,7.711,7.711,0,0,1-2.143.959,20.339,20.339,0,0,1-2.441.278,3.613,3.613,0,0,1-2.2-.629.694.694,0,0,1-.248-.931,4.72,4.72,0,0,1,1.808-2.326,2.68,2.68,0,0,0,.911-.762c.158-.254.426.066.72-.223a13.763,13.763,0,0,0,2.355-3.516,60.519,60.519,0,0,0,3.4-8.081,19.848,19.848,0,0,0,.846-3.683c.123-.788.206-1.577.259-2.373.024-.368.173-.671.626-.447.27.134.353-.063.479-.2a.2.2,0,0,0-.015-.295c-.158-.151-.3.006-.419.066-.506.247-.672.1-.646-.454a14.913,14.913,0,0,0-.286-4.555,9.968,9.968,0,0,0-.836-2.143C8.226,33.9,6.863,32.109,5.657,30.222a10.523,10.523,0,0,1-1.975-4.449c-.043-.392-.355-.871.188-1.189a.14.14,0,0,0,.054-.109c-.105-1.542-.057-1.581.991-2.662a7.677,7.677,0,0,1,2.355-1.578,35.323,35.323,0,0,0,8.3-5.737c3.123-2.711,5.968-5.736,9.213-8.293A36.257,36.257,0,0,1,36.716.159c2.278-.7,3.966,1,3.469,3.364a23.2,23.2,0,0,1-2.58,6.672c-1.365,2.413-2.929,4.7-4.442,7.014a17.1,17.1,0,0,1-1.274,1.911C31.627,19.424,31.432,19.691,30.981,19.341ZM7.258,56.584c.188-.013.243-.166.312-.3.876-1.718,1.524-3.536,2.319-5.288.382-.841.251-1.85.892-2.6a.185.185,0,0,0-.078-.32c-.2-.086-.308.048-.331.212a9.073,9.073,0,0,1-.6,1.794,40.7,40.7,0,0,1-1.745,4.556A6.826,6.826,0,0,0,7.274,56.6a8.757,8.757,0,0,0-1.227,2.353C6.425,58.149,7.15,57.525,7.258,56.584ZM24.5,10.471c-.783.35-1.17,1.108-1.732,1.685-.738.429-1.146,1.2-1.8,1.72-1.132.893-2.294,1.758-3.354,2.733a29.907,29.907,0,0,1-7.3,4.964c-1,.482-2.159.584-3.01,1.418-.521.51-1.154.922-1.2,1.72A6.243,6.243,0,0,0,6.787,28.1,65.339,65.339,0,0,0,10.5,33.619a14.246,14.246,0,0,1,2.734,6.234,37.2,37.2,0,0,1-.022,6.792c-.027.458-.337.894-.354,1.424a3.639,3.639,0,0,1-.5,2.17,17.065,17.065,0,0,0-1.685,3.646c-.182.4-.07.986-.42,1.291a3.567,3.567,0,0,0-.816,1.455,1.81,1.81,0,0,1-.362.553A8.838,8.838,0,0,0,7.9,58.923a13.552,13.552,0,0,1-2.433,3.009c-.28.255-.723.224-.891.622a2.666,2.666,0,0,1-.8.964,2.136,2.136,0,0,0-.632,1.073A.787.787,0,0,0,3.7,64.5c1.006-.369,1.866-1.018,2.837-1.46a10.984,10.984,0,0,0,4.28-3.4,21.265,21.265,0,0,0,2.039-3.652c1.208-2.488,2.435-4.968,3.568-7.491.634-1.413,1.294-2.812,2-4.189,1.167-2.289,2.206-4.636,3.219-6.992a32.136,32.136,0,0,0,1.922-5.85,33.985,33.985,0,0,1,1.706-5.1,38.786,38.786,0,0,1,4.561-9.139c1.843-2.5,3.71-4.987,5.375-7.615a20.394,20.394,0,0,0,2.852-6.274c.057-.245.238-.565.03-.746-.176-.153-.464.048-.687.136A50.8,50.8,0,0,0,30.64,6.009c-.393.227-.742.742-1.343.49-.085-.035-.262.084-.211.186.182.36-.171.356-.307.445q-1.283.848-2.535,1.742C25.592,9.338,25.138,10,24.5,10.471ZM11.843,59.393a21.545,21.545,0,0,0,1.415-2.266c.863-1.884,1.864-3.706,2.686-5.613a90.42,90.42,0,0,1,4.021-8.359.4.4,0,0,0-.068-.585C16.894,48.072,14.759,53.921,11.843,59.393ZM24.322,7.535a42.088,42.088,0,0,1,5.44-3.5c1.939-1.016,3.9-1.982,5.89-2.883C31.61,2.807,27.617,4.547,24.322,7.535ZM18.988,12.63l-.122-.161-5.543,4.8.118.137ZM7.239,21.011c-1.387.26-2.809,1.566-2.664,2.451A7.865,7.865,0,0,1,7.239,21.011ZM19.972,42.334l.2.105c.214-.567.821-.97.542-1.745Z" transform="translate(15.229 17.175)" fill="#a66dfa"/><path id="Path_3394" data-name="Path 3394" d="M1.732,0A4.212,4.212,0,0,1,0,1.685C.562,1.108.949.35,1.732,0Z" transform="translate(37.994 27.646)" fill="#a66dfa"/></g><g id="Group_7447" data-name="Group 7447" transform="matrix(0.999, 0.052, -0.052, 0.999, 5.967, 27.978)"><path id="Path_4123" data-name="Path 4123" d="M0,0S19.1,10.95,24.563,12.77s10.576,2.843,12.624,3.412S40.03,19.707,32.3,18.8,13.82,15.373,11.091,13.78,0,6.46,0,6.46Z" transform="translate(57.848 15.455)" fill="#ff869e"/><path id="Path_4124" data-name="Path 4124" d="M0,36.926,20.929,0l25.1,36.272Z" transform="translate(72.627 18.04)" fill="#0069f9"/><path id="Path_4125" data-name="Path 4125" d="M26.52,0a31.751,31.751,0,0,1,5.968,5.524L34.2,7.749s-3.6,20.4-5.6,26.886a108.459,108.459,0,0,1-6.052,14.545L0,35.876S12.239,16.462,17.585,9.568,26.52,0,26.52,0Z" transform="translate(25.191 5.787)" fill="#005fd0"/><path id="Path_4126" data-name="Path 4126" d="M0,3.468s.518,5.208.663,7.1,1.31,1.455,5.675,1.6,15.426,0,15.426,0,1.019-1.844-1.892-2.741S11.4,7.657,10.25,4.456A23.983,23.983,0,0,1,8.958,0Z" transform="translate(77.646 101.775)" fill="#ff869e"/><path id="Path_4127" data-name="Path 4127" d="M.448,1.278c-.9,1.9-.171,5.438-.171,5.438C1.542,10.6,4.061,25.732,8.563,31.781s16.71,10.6,20.367,12.463c3.164,1.611,14.536,5.942,16.083,5.52s1.829-1.126,1.829-1.126,2.392,0,1.548-1.125a143.889,143.889,0,0,0-14.281-8.3c-7.55-3.706-14.5-7.65-16.4-10.072-3.1-3.939-5.839-16.2-8.147-23.969C7.584-1.494,2.387.19,2.387.19Z" transform="translate(47.001 8.64)" fill="#ff869e"/><path id="Path_4128" data-name="Path 4128" d="M14.874,44.993l-5.01.508-6.114.625-2.891.293L0,35.829l9.027-.9,6.14-.609,11.908-1.182-1.9-12.983-.954-6.517-.98-6.68L22.277.43,22.215,0l3.242,1.436h.007L39.693,7.719,39.5,14.373,39.426,17.1l-.2,6.973-.394,13.972-.13,4.525-4.027.41L22.2,44.248Z" transform="translate(7.306 57.171)" fill="#0b0151"/><path id="Path_4129" data-name="Path 4129" d="M68.736,66.821H58.009s-.055-.374-.156-1.035c-.211-1.413-.635-4.134-1.165-7.246-.547-3.2-1.2-6.8-1.865-9.838-.342-1.559-.684-2.966-1.016-4.086a6.376,6.376,0,0,0-1.13-2.581c-.892-.456-2.084-1.009-3.516-1.641-1.8-.8-3.975-1.722-6.394-2.734-5.28-2.214-11.723-4.857-17.951-7.546-2.191-.947-4.352-1.9-6.426-2.839-7.777-3.525-14.347-6.9-16.577-9.262-2.633-2.786-2.025-6.664-.537-10.1a31.13,31.13,0,0,1,3.409-5.82C5.63.8,6.336,0,6.336,0s21.4,11.622,35.588,19.181c2.393,1.273,4.577,2.432,6.423,3.4,2.63,1.38,4.567,2.376,5.407,2.764,3.868,1.784,7.035,2.868,8.77,6.062a10.912,10.912,0,0,1,1.091,3.167c.176.9.417,2.276.7,3.975.5,3.011,1.142,7.022,1.778,11.068.381,2.445.762,4.9,1.11,7.165C68.069,62.4,68.736,66.821,68.736,66.821Z" transform="translate(19.64 40.421)" fill="#160078"/><path id="Path_4130" data-name="Path 4130" d="M8.166,10.59v0S4.051,17.706,3.455,19.7c-.117.388-2.373.931-3.115-1.107C-.367,16.648.19,6.277.564.671L7.306,0Z" transform="translate(0 93)" fill="#ff869e"/><path id="Path_4131" data-name="Path 4131" d="M0,4.543S4.895-2.074,10.331.664c3.1,1.562,2.82,5.851,2.82,5.851L15.4,9.61H12.448S12.026,10.875,11.6,12s-1.781,4.642-3.071,2.532S0,4.543,0,4.543Z" transform="translate(51.711 1.244)" fill="#ff869e"/><path id="Path_4132" data-name="Path 4132" d="M0,0" transform="translate(57.848 3.258)" fill="#160078"/><path id="Path_4133" data-name="Path 4133" d="M2.875,1.9a1.909,1.909,0,0,1-1.681-.793C.593.206.643-.1.233.026c-.83.246.781,2.222,1.321,2.4a8.207,8.207,0,0,0,1.027.267Z" transform="translate(60.682 10.688)" fill="#00040a"/><ellipse id="Ellipse_198" data-name="Ellipse 198" cx=".496" cy=".496" rx=".496" ry=".496" transform="translate(62.266 7.832)" fill="#00040a"/><path id="Path_4134" data-name="Path 4134" d="M18.09,5.174s-3.758.135-5.679,1.591a37.34,37.34,0,0,1-7.16,4.369c-2.334.971-6.795.408-4.71-2.806s4.438-5.84,7.007-7.084C11.387-.617,14-.2,15.932,1.244A6.026,6.026,0,0,1,18.09,5.174Z" transform="translate(46.461 0)" fill="#160078"/><path id="Path_4135" data-name="Path 4135" d="M0,0,5.539,2.385s1.839-1.32,3.2-1.192a5.718,5.718,0,0,1,2.317.754c.772.3.238,1.248-.594.832s-2.2-.594-2.614-.178l-.416.416-1.01.832.953.569h4.055s.421.7-.156,1.034a1.559,1.559,0,0,1-.941.273s.23.425-.31,1.063a1.317,1.317,0,0,1-1.36.364s-.03.668-.607.759a2.989,2.989,0,0,1-1.215-.122Z" transform="translate(85.625 50.245)" fill="#ff869e"/><text id="_" data-name="ยง" transform="matrix(0.97, -0.242, 0.242, 0.97, 91.303, 45.641)" fill="#00ebe5" font-size="15" font-family="OpenSans-Bold, Open Sans" font-weight="700" letter-spacing=".01em"><tspan x="0" y="0">ยง</tspan></text></g><g id="Group_7449" data-name="Group 7449" transform="translate(141.742 50.756) rotate(45)"><path id="Path_4208" data-name="Path 4208" d="M.06,0C.194.336-.394,5.265.548,6.611s3.7-3.1,3.7-3.1Z" transform="translate(46.749 3.705)" fill="#ffc9af"/><path id="Path_4210" data-name="Path 4210" d="M4.968,7.221S1.334-.452.124.021c-.774.3,2.288,8.344,3.634,8.546S4.968,7.221,4.968,7.221Z" transform="translate(46.029 0)" fill="#ffc9af"/><path id="Path_4211" data-name="Path 4211" d="M7.94,5.047C8.656,5.916,3.923.158,3.7,0,3.7,0,.875.74,0,3.1L3.3,8.613A9.245,9.245,0,0,0,6.325,7.4,8.28,8.28,0,0,0,7.94,5.047Z" transform="translate(47.297 7.221)" fill="#e54c1d"/><path id="Path_4212" data-name="Path 4212" d="M2.685,10.9A45.1,45.1,0,0,1,.027,4.275,2.382,2.382,0,0,1,.33,2.8S-.41.676.33.406s2.759,3.97,2.759,3.97S2.012.137,2.752,0,5.175,4.915,7.732,7.875A10.541,10.541,0,0,1,5.108,10.3,7.373,7.373,0,0,1,2.685,10.9Z" transform="translate(0 35.95)" fill="#ffc9af"/><path id="Path_4213" data-name="Path 4213" d="M1.735,6.15S1.263.229,1.062.027-.486.7.187,4.6,1.735,6.15,1.735,6.15Z" transform="translate(5.997 37.676)" fill="#ffc9af"/><path id="Path_4215" data-name="Path 4215" d="M0,3.028A6.863,6.863,0,0,1,5.047,0l4.1,4.845S4.508,8.613,4.172,8.209,0,3.028,0,3.028Z" transform="translate(2.685 43.826)" fill="#e54c1d"/><path id="Path_4216" data-name="Path 4216" d="M10.11,4.34C9.2,3.2,9.109,0,9.109,0s.216,2.11-3.141,4.239C1.829,6.863,0,6.056,0,6.056s1.526.517,3.242,3.987c0,0,4.126-.757,5.993-2.977S10.724,5.1,10.11,4.34Z" transform="translate(41.157 42.514)" fill="#e54c1d"/><path id="Path_4217" data-name="Path 4217" d="M10.29.29C10.511.5,41.276,23.1,41.276,23.1L66.509,3.722A17.643,17.643,0,0,0,75.9,19.265c-.909-.1-22.508,16.25-29.573,17.057s-9.992,1.615-29.674-12.314S.2,4.327.2,4.327,8.575-1.325,10.29.29Z" transform="translate(64.527 66.951)" fill="#da2032"/><path id="Path_4218" data-name="Path 4218" d="M.689.077c-1.581,2.562-.1,3.056,1.023,5.46a96.23,96.23,0,0,0,7.959,6.214c4.736,3.351,8.5,5.848,11.586,7.7C11.253,4.652,1.182-.722.689.077Z" transform="translate(71.504 79.209)" fill="#1a1a1a"/><path id="Path_4219" data-name="Path 4219" d="M.483,10.625s21.5,33.745,31.592,38.59,44.712,7.873,44.712,7.873S72.952,42.956,78,36.194c-1.11-.2-36.537,2.019-36.84,1.918S20.064,10.76,16.834,7.126,9.668-.545,7.548.061-1.939,4.636.483,10.625Z" transform="translate(57.176 71.218)" fill="#da2032"/><path id="Path_4271" data-name="Path 4271" d="M68.744,55.009l-2.826-3.331s1.514-2.523-.2-4.037-4.239-2.12-6.561-5.248c0,0,3.129-6.762,2.019-13.424s-1.783-4.273-2.389-8.31-1.48-7.67-3.432-9.689-4.71-5.518-4.508-7.2S50.038-.066,48.759,0,42.367,3.77,43.848,5.653s3.3,2.422,3.095,6.393,2.557,9.084,2.22,12.583-2.86,6.258-2.489,9.555c.055.486-1.951-.134-1.951-.134,1.312,3.3-6.46,6.224-6.46,6.224s-1.548,2.658-.875,4.475c0,0-.134.74-2.422.606s-6.729-1.75-11.237,0a18.509,18.509,0,0,0-11.372-4.912s-4.686-5.285-7.5-5.047c-3.381.286-5.622,2.834-4.609,5.518.673,1.783,2.658,2.187,4.811,4s3.6,5.148,7.7,7.031,9.151,2.153,11.775,3.835a16.431,16.431,0,0,0,17.7.471,7.529,7.529,0,0,1,1.884,5.114,5.083,5.083,0,0,0,4.71,5.181l2.759,3.364S58.718,60.157,68.744,55.009Z" transform="translate(6.074 11.93)" fill="#f6c32c"/><path id="Path_4272" data-name="Path 4272" d="M.075,6.144C-.1,5.9.064,5.375.191,5.1A7.085,7.085,0,0,1,2.8,2.451C4.536,1.3,6.592-.091,9.057,0a.382.382,0,0,1,.362.408c-.053.8-.52,2.731-3.538,4.511C3.03,6.605.443,6.665.075,6.144Z" transform="translate(40.878 42.282)" fill="#1a1a1a"/><path id="Path_4273" data-name="Path 4273" d="M8.226,3.331,4.9,0,0,2.977,2.347,7.09S6.485,6.46,8.226,3.331Z" transform="translate(40.854 40.999)" fill="#ffc9af"/><path id="Path_4274" data-name="Path 4274" d="M6.008,9.843S.154,11.1,0,4.393,6.715.658,6.715.658s6.662,3.062,4.138,6.46C9.54,8.884,6.008,9.843,6.008,9.843Z" transform="translate(35.704 34.891)" fill="#ffc9af"/><path id="Path_4275" data-name="Path 4275" d="M5.975,9.27a1.356,1.356,0,0,1-1.375.58c-.715-.212-1.173-.883-.908-2.221,0,0-3.482,1.817-3.684-1.766S3.641-.444,7.476.06s6.678,3.028,7.015,6.46a4.793,4.793,0,0,1-4.189,5.6,2.5,2.5,0,0,1-2.076-.332,1.554,1.554,0,0,1-.6-1.325,1.6,1.6,0,0,0-.658-1.585C6.391,8.614,6.151,9,5.975,9.27Z" transform="translate(33.478 31.25)" fill="#55353a"/><path id="Path_4276" data-name="Path 4276" d="M9.893,7.074c-1.1,2.587-4.7,4.948-7.285,3.852S-.573,5.692.523,3.1a5.088,5.088,0,0,1,9.37,3.97Z" transform="translate(38.608 25.364)" fill="#55353a"/><path id="Path_4277" data-name="Path 4277" d="M0,0s-.253,5.854,3.23,10.245,6.157,5.3,6.157,5.3.555-2.877-3.937-9.488A24.25,24.25,0,0,0,0,0Z" transform="translate(131.032 70.673)" fill="#1a1a1a"/><path id="Path_4278" data-name="Path 4278" d="M.011,4.19,7.076,0s5.7-.151,7.419,2.321a7.258,7.258,0,0,1,1.009,5.7c-.151.05-9.286,5.551-9.286,5.551A9.907,9.907,0,0,1,1.726,9.136C-.242,5.6.011,4.19.011,4.19Z" transform="translate(132.338 69.561)" fill="#ffc9af"/><path id="Path_4279" data-name="Path 4279" d="M0,4.693,3.281,0,20.187,13.323,8.428,12.717A12.946,12.946,0,0,0,5.4,7.52C3.668,5.676,0,4.693,0,4.693Z" transform="translate(139.413 64.869)" fill="#1a1a1a"/><path id="Path_4280" data-name="Path 4280" d="M0,1.363,1.06,0,18.017,13.575l-1.11,1.11Z" transform="translate(142.694 63.507)" fill="gray"/><path id="Path_4281" data-name="Path 4281" d="M2.8,0S.251,3.08.024,10.194c-.252,7.923,1.564,10.7,1.564,10.7s1.5-1.266,1.867-10.547C3.758,2.624,2.8,0,2.8,0Z" transform="translate(132.375 107.412)" fill="#1a1a1a"/><path id="Path_4282" data-name="Path 4282" d="M1.064,0,9.341.706s7.419.959,9.387,5.1.858,5.854.858,5.854L.862,11.3S-.074,10.452,0,5.1A10.832,10.832,0,0,1,1.064,0Z" transform="translate(133.303 112.106)" fill="#ffc9af"/><path id="Path_4283" data-name="Path 4283" d="M0,3.886,6.611,0,21.3,15.291,9.74,14.736A6.857,6.857,0,0,0,6.914,7.822,22.275,22.275,0,0,0,0,3.886Z" transform="translate(141.937 108.926)" fill="#1a1a1a"/><path id="Path_4284" data-name="Path 4284" d="M0,.959,1.716,0,15.8,15.241l-1.11,1.009Z" transform="translate(148.548 107.968)" fill="gray"/><path id="Path_4285" data-name="Path 4285" d="M18.2,1.362l.039-.008L17.091,0S8.478,3.566,0,14.87C0,14.87,11.842,2.574,18.2,1.362Z" transform="translate(54.9 63.608)" fill="#1a1a1a"/><path id="Path_4286" data-name="Path 4286" d="M1.362,4.912,0,3.3A8.164,8.164,0,0,0,2.944,0,20.945,20.945,0,0,1,1.362,4.912Z" transform="translate(63.866 49.41)" fill="#1a1a1a"/><path id="Path_4287" data-name="Path 4287" d="M0,4.71c.06.018.157.045.282.078A15.77,15.77,0,0,0,9.488,2.422,17.81,17.81,0,0,1,8.209,0,12.146,12.146,0,0,1,0,4.71Z" transform="translate(38.818 65.761)" fill="#1a1a1a"/><path id="Path_4345" data-name="Path 4345" d="M.992,0S3.225,9.179,0,14.141" transform="translate(54.937 52.866)" fill="none" stroke="#e54c1d" stroke-linecap="round" stroke-linejoin="round" stroke-width="2.276"/><path id="Path_4346" data-name="Path 4346" d="M0,3.008A10.977,10.977,0,0,1,6.822,0" transform="translate(59.651 59.037)" fill="none" stroke="#e54c1d" stroke-linecap="round" stroke-linejoin="round" stroke-width="2.276"/></g></g></g></svg>