<svg viewBox="0 0 72.17 65.94" xmlns="http://www.w3.org/2000/svg" xmlns:xlink="http://www.w3.org/1999/xlink"><clipPath id="a" transform="translate(-2.83 -2.75)"><path d="m0 0h81v64h-81z"/></clipPath><g clip-path="url(#a)"><path d="m70.7 54.58a14.12 14.12 0 0 0 -14.11-14.1c-.27 0-.53 0-.8 0l-1.43-6.13a9.87 9.87 0 0 0 -2.63-4.74l-26.46-26.42a1.37 1.37 0 1 0 -2 1.85.3.3 0 0 0 .08.08l26.44 26.46a7.12 7.12 0 0 1 1.9 3.42l1.39 5.92a14 14 0 0 0 -5.54 2.84v-.05l-1.66-7.08a1.35 1.35 0 0 0 -1.62-1 1.37 1.37 0 0 0 -1 1.62l.66 2.8-8.15-8.15a1.37 1.37 0 1 0 -1.94 1.93l11.49 11.57 2.87 2.87a2.88 2.88 0 1 1 -4.07 4.08l-2.86-2.86a.27.27 0 0 0 -.08-.07l-7.82-7.83a1.34 1.34 0 0 0 -.77-.38 33.67 33.67 0 0 1 -19.1-9.59l-8.33-8.32a1.37 1.37 0 0 0 -1.93 1.94l8.35 8.34a36.32 36.32 0 0 0 6.08 4.91 5.44 5.44 0 0 0 0 7.68l6.75 6.83a5.43 5.43 0 0 0 7.68 0 1.39 1.39 0 0 0 .23-.31l.31.31a5.42 5.42 0 0 0 7.67 0c.09-.09.17-.19.25-.28l1.64 1.64.29.26a14.11 14.11 0 0 0 28.21 0zm-40.54-3.58a2.71 2.71 0 0 1 -3.82 0l-6.76-6.77a2.75 2.75 0 0 1 0-3.81 1.38 1.38 0 0 0 .34-.6 37.13 37.13 0 0 0 4.39 2v.46a5.45 5.45 0 0 0 1.59 3.85l4.6 4.6a1.43 1.43 0 0 0 -.34.27zm8.21 0a2.7 2.7 0 0 1 -3.81 0l-6.76-6.74a2.7 2.7 0 0 1 -.74-1.45 36.63 36.63 0 0 0 4.7 1.06l6.85 6.85a2.25 2.25 0 0 1 -.24.28zm6.93 4.86a5.14 5.14 0 0 0 .88.07 5.61 5.61 0 0 0 4-9.58l-.66-.66a11.37 11.37 0 1 1 -4.22 10.19z" transform="translate(-2.83 -2.75)"/><path d="m39.5 61h34a1.5 1.5 0 0 1 1.5 1.5 1.5 1.5 0 0 1 -1.5 1.5h-34a1.5 1.5 0 0 1 -1.5-1.5 1.5 1.5 0 0 1 1.5-1.5z" transform="translate(-2.83 -2.75)"/></g></svg>