<?xml version="1.0" encoding="UTF-8"?>
<svg width="15px" height="15px" viewBox="0 0 15 15" version="1.1" xmlns="http://www.w3.org/2000/svg" xmlns:xlink="http://www.w3.org/1999/xlink">
    <defs>
        <path d="M9.8,4.48994949 L9.8,11.2 C9.8,11.5865993 9.48659932,11.9 9.1,11.9 C8.71340068,11.9 8.4,11.5865993 8.4,11.2 L8.4,4.48994949 L6.09497475,6.79497475 C5.82160774,7.06834175 5.37839226,7.06834175 5.10502525,6.79497475 C4.83165825,6.52160774 4.83165825,6.07839226 5.10502525,5.80502525 L8.60502525,2.30502525 C8.87839226,2.03165825 9.32160774,2.03165825 9.59497475,2.30502525 L13.0949747,5.80502525 C13.3683418,6.07839226 13.3683418,6.52160774 13.0949747,6.79497475 C12.8216077,7.06834175 12.3783923,7.06834175 12.1050253,6.79497475 L9.8,4.48994949 Z M14.7,11.2 C14.7,10.8134007 15.0134007,10.5 15.4,10.5 C15.7865993,10.5 16.1,10.8134007 16.1,11.2 L16.1,14 C16.1,15.159798 15.159798,16.1 14,16.1 L4.2,16.1 C3.04020203,16.1 2.1,15.159798 2.1,14 L2.1,11.2 C2.1,10.8134007 2.41340068,10.5 2.8,10.5 C3.18659932,10.5 3.5,10.8134007 3.5,11.2 L3.5,14 C3.5,14.3865993 3.81340068,14.7 4.2,14.7 L14,14.7 C14.3865993,14.7 14.7,14.3865993 14.7,14 L14.7,11.2 Z" id="upload-path-1"></path>
    </defs>
    <g stroke="none" stroke-width="1" fill="none" fill-rule="evenodd">
        <g transform="translate(-56.000000, -966.000000)">
            <g transform="translate(0.000000, 80.000000)">
                <g transform="translate(30.000000, 874.000000)">
                    <g transform="translate(24.000000, 10.000000)">
                        <mask id="upload-mask-2" fill="white">
                            <use xlink:href="#upload-path-1"></use>
                        </mask>
                        <g mask="url(#upload-mask-2)" fill="#00E1F9">
                            <rect x="0" y="0" width="18.48" height="18.48"></rect>
                        </g>
                    </g>
                </g>
            </g>
        </g>
    </g>
</svg>