<?xml version="1.0" encoding="utf-8"?>
<!DOCTYPE svg PUBLIC "-//W3C//DTD SVG 1.1//EN" "http://www.w3.org/Graphics/SVG/1.1/DTD/svg11.dtd">
<svg version="1.1" xmlns="http://www.w3.org/2000/svg" xmlns:xlink="http://www.w3.org/1999/xlink" x="0px" y="0px" viewBox="0 0 1000 1000" enable-background="new 0 0 1000 1000" xml:space="preserve" fill="#ffffff">
<g><path d="M790.8,646.4l0-0.2l0.3-0.5l0.1,0.4L790.8,646.4z M760.6,631.2l0-0.2l0.3-0.5l0.1,0.3L760.6,631.2z M194.4,753.1c-15.2,0-27.6,12.4-27.6,27.6v181.8h0c0.1,15.2,12.4,27.5,27.6,27.5c0,0,0,0,0.1,0l725.6,0c15.4,0,28-12.5,28-28V38c0-15.4-12.5-28-28-28H196c-15.4,0-28,12.5-28,28v196h0.1c0.5,14.8,12.6,26.7,27.5,26.7c14.9,0,27.1-11.9,27.5-26.7h0.1V83.1c0-13.7,4.2-17.9,17.9-17.9h633.7c13.7,0,17.9,4.2,17.9,17.9v833.8c0,13.7-4.2,17.9-17.9,17.9H222V780.7C222,765.4,209.6,753.1,194.4,753.1L194.4,753.1z M52.5,494c-0.4,1.8-0.5,3.6-0.5,5.4c0,1.8,0.2,3.6,0.5,5.4c0.2,0.8,0.5,1.5,0.7,2.3c0.3,0.9,0.5,1.9,0.9,2.8c0.3,0.7,0.7,1.3,1.1,2c1,1.9,2.2,3.8,3.7,5.5c0.4,0.4,0.7,0.9,1,1.3c0.1,0.1,0.1,0.2,0.2,0.2l208.9,208.9l0.1-0.1c5,5.1,12,8.4,19.7,8.4c15.2,0,27.6-12.3,27.6-27.6c0-7.8-3.3-14.9-8.6-19.9L146.1,526.9h425.6c15.2,0,27.6-12.3,27.6-27.6c0-15.2-12.3-27.6-27.6-27.6H146.1l160.4-160.4c5.1-5,8.4-12,8.4-19.7c0-15.2-12.3-27.6-27.6-27.6c-7.6,0-14.5,3.1-19.5,8.1L60,479.8c-0.1,0.1-0.1,0.2-0.2,0.2c-0.4,0.4-0.7,0.8-1,1.2c-1.5,1.7-2.7,3.6-3.7,5.5c-0.3,0.7-0.8,1.3-1.1,2c0,0,0,0.1-0.1,0.1c-0.4,0.9-0.5,1.8-0.8,2.7C53,492.4,52.7,493.2,52.5,494L52.5,494z"/></g>
</svg>
