<svg height="138.109" viewBox="0 0 84.46 138.109" width="84.46" xmlns="http://www.w3.org/2000/svg"><g fill="#fff"><path d="m5.616-14.506h-1.893v-1.114q0-.238-.27-.238h-.379q-.27 0-.27.238v3.981q0 .238.27.238h.379q.27 0 .27-.238v-1.071h1.893v1.21q0 1.341-1.59 1.341h-1.526q-1.59.002-1.59-1.341v-4.26q0-1.34 1.59-1.34h1.526q1.59 0 1.59 1.341zm2.4-1.049h1.376a1.658 1.658 0 0 1 1.179.346 1.323 1.323 0 0 1 .357 1v2.709a1.323 1.323 0 0 1 -.357 1 1.658 1.658 0 0 1 -1.179.346h-1.374a1.658 1.658 0 0 1 -1.18-.346 1.323 1.323 0 0 1 -.357-1v-2.715a1.323 1.323 0 0 1 .357-1 1.658 1.658 0 0 1 1.18-.34zm1.1 3.884v-2.369q0-.238-.27-.238h-.287q-.27 0-.27.238v2.369q0 .238.27.238h.292q.27 0 .27-.238zm5.75-4.429h-.573q-.27 0-.27.238v.3h.844v1.362h-.844v4.046h-1.84v-4.046h-.552v-1.352h.552v-.5q0-1.341 1.59-1.341h1.093zm3.613 0h-.573q-.27 0-.27.238v.3h.844v1.362h-.844v4.046h-1.836v-4.046h-.552v-1.352h.552v-.5q0-1.341 1.59-1.341h1.093zm2.185.541h1.32q1.59 0 1.59 1.341v1.839h-2.758v.714q0 .238.27.238h.476q.27 0 .27-.26v-.3h1.742v.487q0 1.341-1.59 1.341h-1.32q-1.59 0-1.59-1.341v-2.715q0-1.34 1.59-1.34zm.151 2.185h1.017v-.682q0-.238-.27-.238h-.476q-.27 0-.27.238zm5.16-2.185h1.325q1.59 0 1.59 1.341v1.839h-2.762v.714q0 .238.27.238h.476q.27 0 .27-.26v-.3h1.742v.487q0 1.341-1.59 1.341h-1.32q-1.59 0-1.59-1.341v-2.715q0-1.34 1.59-1.34zm.151 2.185h1.017v-.682q0-.238-.27-.238h-.473q-.27 0-.27.238zm8.974-1.121v-1.125q0-.238-.27-.238h-.779v1.6h.779q.27.001.27-.237zm0 2.856v-1.136q0-.238-.27-.238h-.779v1.613h.779q.27 0 .27-.239zm-2.914-5.461h3.181q1.59 0 1.59 1.341v.887q0 .941-.519 1.222a.727.727 0 0 1 .411.395 1.949 1.949 0 0 1 .108.719v1.036q0 1.341-1.59 1.341h-3.181zm7.281 1.547h1.32q1.59 0 1.59 1.341v1.839h-2.759v.714q0 .238.27.238h.476q.27 0 .27-.26v-.3h1.742v.487q0 1.341-1.59 1.341h-1.32q-1.59 0-1.59-1.341v-2.715q0-1.346 1.591-1.346zm.151 2.185h1.017v-.682q0-.238-.27-.238h-.476q-.27 0-.27.238zm6.188-2.185h1.807v5.4h-1.839v-.584a.893.893 0 0 1 -.952.584h-.195q-1.439 0-1.439-1.341v-2.715q0-1.341 1.439-1.341h.195a.873.873 0 0 1 .984.692zm-.506 4.044h.184q.292 0 .292-.325v-2.045q0-.325-.292-.325h-.184q-.27 0-.27.238v2.218q-.003.239.27.239zm6.188-4.046h.195q1.439 0 1.439 1.341v4.057h-1.842v-3.808q0-.238-.27-.238h-.184q-.292 0-.292.325v3.721h-1.839v-5.4h1.805v.692a.873.873 0 0 1 .986-.69zm8.579 5.4-.218-1.045h-1.666l-.227 1.039h-1.861l1.785-6.939h2.3l1.785 6.945zm-1.59-2.38h1.082l-.53-2.5zm9.315-3.018h1.688l-1.158 5.4h-1.831l-.66-3.181-.671 3.181h-1.828l-1.093-5.4h1.709l.4 3.408.7-3.408h1.612l.627 3.386zm4.9 0h1.808v5.4h-1.842v-.584a.893.893 0 0 1 -.952.584h-.195q-1.439 0-1.439-1.341v-2.715q0-1.341 1.439-1.341h.195a.873.873 0 0 1 .984.692zm-.508 4.046h.184q.292 0 .292-.325v-2.045q0-.325-.292-.325h-.184q-.27 0-.27.238v2.218q-.003.237.268.237zm6.372-4.1h.162v1.6h-.618q-.682 0-.682.736v3.116h-1.839v-5.4h1.807v.833a1.077 1.077 0 0 1 .389-.649 1.223 1.223 0 0 1 .779-.238zm3.344-1.787h1.839v7.237h-1.81v-.692a.873.873 0 0 1 -.984.692h-.195q-1.439 0-1.439-1.341v-2.715q0-1.341 1.439-1.341h.195a.893.893 0 0 1 .952.584zm-.476 5.885h.176q.292 0 .292-.325v-2.045q0-.325-.292-.325h-.184q-.27 0-.27.238v2.218q.004.239.275.239z" transform="translate(-.185 89.755)"/><path d="m9.965-60.407v3.159h-7.573v-4.152q0-5.366 6.361-5.366h5.236q6.448 0 6.448 5.366v3.981a8.726 8.726 0 0 1 -.714 3.7 13.786 13.786 0 0 1 -2.315 3.31l-5.366 6.009h8.4v5.409h-17.834v-4.929l8.222-8.828a8.721 8.721 0 0 0 1.731-2.315 5.909 5.909 0 0 0 .433-2.4v-2.943q0-.952-1.082-.952h-.865q-1.082-.001-1.082.951zm25.1 15.059v-15.059q0-.952-1.082-.952h-1.17q-1.082 0-1.082.952v15.059q0 .952 1.082.952h1.168q1.083-.004 1.083-.952zm7.571-16.052v17.049q0 5.366-6.361 5.366h-5.755q-6.361 0-6.361-5.366v-17.049q0-5.366 6.361-5.366h5.755q6.361-.002 6.361 5.366zm11.035 1v3.159h-7.571v-4.159q0-5.366 6.361-5.366h5.239q6.448 0 6.448 5.366v3.981a8.726 8.726 0 0 1 -.714 3.7 13.786 13.786 0 0 1 -2.315 3.31l-5.371 6.009h8.4v5.409h-17.833v-4.929l8.222-8.828a8.721 8.721 0 0 0 1.731-2.315 5.909 5.909 0 0 0 .433-2.4v-2.943q0-.952-1.082-.952h-.865q-1.083-.001-1.083.951zm25.1 15.059v-15.066q0-.952-1.082-.952h-1.169q-1.082 0-1.082.952v15.059q0 .952 1.082.952h1.168q1.082-.004 1.082-.952zm7.572-16.059v17.049q0 5.366-6.361 5.366h-5.756q-6.361 0-6.361-5.366v-17.049q0-5.366 6.361-5.366h5.755q6.362-.002 6.362 5.366z" transform="translate(-1.883 153.12)"/><path d="m15.065-27.606h3.935l-3.1 14.612h-4.568l-1.616-8.717-1.616 8.717h-4.575l-3.095-14.612h4.142l1.228 9.832 1.957-9.832h3.892l1.957 9.832zm5.531 0h3.983v14.612h-3.979zm12.928 0h3.642v14.612h-3.416l-3.25-7.67v7.67h-3.646v-14.612h3.414l3.255 7.806zm12.586 0h3.64v14.612h-3.414l-3.255-7.67v7.67h-3.641v-14.612h3.414l3.255 7.806zm9.9 11.767h4.984v2.845h-8.968v-14.612h8.763v2.845h-4.78v2.982h4.12v2.845h-4.12zm10.674-2.344v5.189h-3.984v-14.612h6.76q3.346 0 3.346 2.822v3.778a2.451 2.451 0 0 1 -1.957 2.663l2.686 5.349h-4.28l-2.321-5.189zm1.57-6.578h-1.57v3.869h1.57q.569 0 .569-.5v-2.868q0-.501-.569-.501zm12.2 8.421v-2.071q0-.5-.569-.5h-2.185a3.165 3.165 0 0 1 -2.378-.74 3 3 0 0 1 -.694-2.128v-3q0-2.822 3.323-2.822h3.118q3.323 0 3.323 2.822v1.752h-3.984v-1.233q0-.5-.569-.5h-.66q-.569 0-.569.5v2.16q0 .5.569.5h2.139a3.351 3.351 0 0 1 2.4.706 2.781 2.781 0 0 1 .717 2.071v3q0 2.822-3.323 2.822h-3.1q-3.346 0-3.346-2.822v-1.752h3.983v1.229q0 .5.569.5h.66q.575.007.575-.494z" transform="translate(-.43 151.104)"/><path d="m32.724 196.352s1.6-9.134-6.509-12.214c0 0-2.454 8.837 6.509 12.214z" transform="translate(-15.086 -161.791)"/><path d="m52.679 125.192s4.616-8.043-1.959-13.7c0 0-5.32 7.473 1.959 13.7z" transform="translate(-34.764 -99.468)"/><path d="m37.929 272.692s-1.2-9.2-9.859-9.714c0 .001.297 9.167 9.859 9.714z" transform="translate(-16.941 -229.429)"/><path d="m57.464 338.626s-4.325-8.2-12.623-5.675c0 0 3.468 8.49 12.623 5.675z" transform="translate(-31.329 -289.044)"/><path d="m89.258 385.635s6.038 6.9 13.782 1.268c0-.003-6.755-6.354-13.782-1.268z" transform="translate(-69.434 -332.964)"/><path d="m423.481 196.352c8.962-3.377 6.508-12.214 6.508-12.214-8.108 3.08-6.508 12.214-6.508 12.214z" transform="translate(-356.056 -161.791)"/><path d="m414.758 111.492c-6.575 5.657-1.959 13.7-1.959 13.7 7.276-6.227 1.959-13.7 1.959-13.7z" transform="translate(-345.651 -99.468)"/><path d="m400.678 272.692c9.562-.547 9.859-9.714 9.859-9.714-8.659.522-9.859 9.714-9.859 9.714z" transform="translate(-336.603 -229.429)"/><path d="m364.454 338.626c9.155 2.815 12.623-5.675 12.623-5.675-8.298-2.527-12.623 5.675-12.623 5.675z" transform="translate(-305.526 -289.044)"/><path d="m311.88 386.9c7.744 5.635 13.782-1.268 13.782-1.268-7.027-5.083-13.782 1.268-13.782 1.268z" transform="translate(-260.423 -332.964)"/><path d="m105.287 112.315a7.756 7.756 0 0 1 1.145-1.947 23.952 23.952 0 0 0 18.626-35.948c4.582-7.679-2.231-13.134-2.231-13.134-4.15 6.3.326 12.008 1.567 13.393a23.236 23.236 0 0 1 -7.113 31.148c-5.013-.024-8.7 1.187-10.973 3.6q-.117.124-.226.25-.841.061-1.7.062-.892 0-1.768-.067-.107-.123-.222-.246c-2.266-2.41-5.943-3.622-10.926-3.6a23.223 23.223 0 0 1 -7.127-31.147c1.241-1.385 5.717-7.1 1.567-13.394 0 0-6.813 5.455-2.231 13.134a23.947 23.947 0 0 0 18.589 35.944 7.75 7.75 0 0 1 1.136 1.937c-2.247-.762-8.55-2.226-12.642 3.487 0 0 7.452 4.361 12.972-2.507a7.824 7.824 0 0 1 .259 1.634v.094c-.989.452-3.778 2.044-3.283 5.459a4.964 4.964 0 0 0 3.659-4.041 4.964 4.964 0 0 0 3.66 4.041c.5-3.454-2.359-5.044-3.317-5.474 0-.025 0-.051 0-.078a7.825 7.825 0 0 1 .268-1.665c5.522 6.912 13 2.538 13 2.538-4.124-5.746-10.476-4.231-12.689-3.473zm10.829-5.757a23.073 23.073 0 0 1 -8.952 3.021c1.972-1.863 4.977-2.879 8.953-3.021zm-23.488 0c3.946.151 6.93 1.161 8.892 3.012a23.122 23.122 0 0 1 -8.891-3.011zm11.718 6.262a8.519 8.519 0 0 0 -1.153-2.393q.59.028 1.186.029c.375 0 .748-.01 1.119-.027a8.509 8.509 0 0 0 -1.151 2.392z" transform="translate(-61.832 -56.396)"/><path d="m221.092 32.1-.437 2.55a.321.321 0 0 0 .466.338l2.29-1.2 2.29 1.2a.321.321 0 0 0 .466-.338l-.437-2.55 1.853-1.806a.321.321 0 0 0 -.178-.548l-2.561-.372-1.146-2.32a.321.321 0 0 0 -.576 0l-1.144 2.32-2.56.372a.321.321 0 0 0 -.178.548z" transform="translate(-180.863 -26.87)"/><path d="m172 61.136-.233 1.355a.171.171 0 0 0 .248.18l1.217-.64 1.217.64a.171.171 0 0 0 .248-.18l-.232-1.355.984-.96a.171.171 0 0 0 -.095-.291l-1.36-.2-.609-1.233a.171.171 0 0 0 -.306 0l-.609 1.233-1.36.2a.17.17 0 0 0 -.094.291z" transform="translate(-139.53 -53.885)"/><path d="m296.273 61.136-.233 1.355a.171.171 0 0 0 .248.18l1.217-.64 1.217.64a.171.171 0 0 0 .248-.18l-.233-1.355.984-.96a.17.17 0 0 0 -.094-.291l-1.361-.2-.608-1.233a.171.171 0 0 0 -.306 0l-.609 1.233-1.36.2a.17.17 0 0 0 -.095.291z" transform="translate(-246.145 -53.885)"/><path d="m100.531 235.807a.67.67 0 1 0 .67-.67.67.67 0 0 0 -.67.67z" transform="translate(-79.105 -205.543)"/><path d="m389.694 235.62a.67.67 0 1 0 -.67.67.67.67 0 0 0 .67-.67z" transform="translate(-326.031 -205.383)"/><path d="m143.418 338.209a.67.67 0 1 0 -.67-.67.67.67 0 0 0 .67.67z" transform="translate(-115.324 -292.821)"/><path d="m346.937 338.076a.67.67 0 1 0 -.67-.67.67.67 0 0 0 .67.67z" transform="translate(-289.924 -292.706)"/><path d="m113.092 293.663a.67.67 0 1 0 -.67-.67.67.67 0 0 0 .67.67z" transform="translate(-89.307 -254.605)"/><path d="m377.136 177.762a.67.67 0 1 0 .67.67.67.67 0 0 0 -.67-.67z" transform="translate(-315.832 -156.321)"/><path d="m113.193 179.759a.67.67 0 1 0 -.67.67.67.67 0 0 0 .67-.67z" transform="translate(-88.82 -157.46)"/><path d="m377.7 291a.67.67 0 1 0 .261.053.669.669 0 0 0 -.261-.053z" transform="translate(-316.315 -253.465)"/><path d="m167.468 169.522c1.127 2.812 2.918 4.6 5.3 5.265a5.738 5.738 0 0 1 -3.708 5.193 2.251 2.251 0 0 0 -1.414 1.728 1.289 1.289 0 0 0 -.449.977v1.47a1.055 1.055 0 0 0 1.054 1.054h12.912a1.055 1.055 0 0 0 1.054-1.054v-1.47a1.287 1.287 0 0 0 -.423-.953 1.937 1.937 0 0 0 -1.274-1.69 5.739 5.739 0 0 1 -3.877-5.256c2.383-.662 4.174-2.452 5.3-5.265 3.3-1.776 4.34-6.091 4.662-8.546a1.92 1.92 0 0 0 -1.9-2.171h-1.421c-.055-1.012-.134-1.658-.142-1.722l-.078-.623h-16.714l-.078.623c-.008.064-.086.71-.142 1.722h-1.421a1.92 1.92 0 0 0 -1.9 2.172c.319 2.455 1.353 6.77 4.659 8.546zm1.021 13.292v-.125h.128a.129.129 0 0 1 -.128.125zm12.436-.125v.125a.129.129 0 0 1 -.128-.125zm-.129 0v1.1h-12.178v-1.1zm2.251-17.509a32.352 32.352 0 0 0 .285-4.955h1.368a.5.5 0 0 1 .5.566c-.437 3.322-1.489 5.247-2.518 6.362q.218-.934.365-1.972zm-15.425-7.3h14.169c.237 2.823.775 14.324-6 15.646l-.534.1-.038.543a7.36 7.36 0 0 0 4.818 7.2.513.513 0 0 1 .339.481v.118h-11.334a.84.84 0 0 1 .532-.674 7.37 7.37 0 0 0 4.616-7.129l-.038-.543-.534-.1c-6.765-1.315-6.232-12.822-5.997-15.64zm-3.288 2.514a.5.5 0 0 1 .376-.17h1.371a32.349 32.349 0 0 0 .285 4.954q.147 1.039.366 1.973c-1.028-1.115-2.081-3.04-2.517-6.362a.5.5 0 0 1 .119-.389z" transform="translate(-132.517 -138.047)"/><path d="m281.205 178.319.71.009c.01-.78 0-1.528-.006-2.189v-.059l-.71.008v.059c.008.653.016 1.401.006 2.172z" transform="translate(-234.102 -154.879)"/><path d="m258.4 200.375-.709-.041c-.268 4.638-1.522 7.515-3.833 8.794l.344.622c2.537-1.407 3.91-4.474 4.198-9.375z" transform="translate(-210.641 -175.686)"/><path d="m195.275 98.354h1.5l-.765-2.209a6.029 6.029 0 0 0 3.372-.5 4.751 4.751 0 0 0 1.918-1.735 4.746 4.746 0 0 0 1.911 1.738 6.022 6.022 0 0 0 3.372.5l-.765 2.209h1.5l1.491-4.3-1.38.474a5.259 5.259 0 0 1 -3.589-.147 3.8 3.8 0 0 1 -1.869-2.363l-.675-2.061-.675 2.061a3.809 3.809 0 0 1 -1.861 2.359 5.308 5.308 0 0 1 -3.6.151l-1.38-.474z" transform="translate(-159.108 -80.989)"/></g></svg>