<svg height="138" viewBox="0 0 130.71 138" width="130.71" xmlns="http://www.w3.org/2000/svg"><g fill="#fff"><path d="m38.606 3.992v15.692h-37.617v-20.636q0-26.654 31.6-26.654h26.011q32.028 0 32.028 26.654v19.776q0 10.748-3.547 18.379t-11.5 16.444l-26.657 29.878h41.7v26.869h-88.56v-24.5l40.836-43.855q6.449-6.664 8.6-11.5a29.355 29.355 0 0 0 2.15-11.93v-14.617q0-4.729-5.374-4.729h-4.3q-5.37 0-5.37 4.729z" transform="translate(40.086 27.606)"/><path d="m27.864-16.727h-4.214l-1.333 5.891h3.526v4.73h-4.6l-1.377 6.106h-6.235l1.376-6.106h-4.3l-1.376 6.106h-6.278l1.376-6.106h-3.139v-4.73h4.21l1.333-5.891h-3.522v-4.73h4.6l1.376-6.106h6.235l-1.376 6.106h4.3l1.376-6.106h6.278l-1.376 6.106h3.139zm-11.782 5.891 1.29-5.891h-4.3l-1.29 5.891z" transform="translate(-1.29 47)"/></g></svg>