<svg height="16" viewBox="0 0 102.321 16" width="102.321" xmlns="http://www.w3.org/2000/svg" xmlns:xlink="http://www.w3.org/1999/xlink"><clipPath id="a"><path d="m4.942-16.671 1.949-3.949a.682.682 0 0 1 1.223 0l1.949 3.949 4.359.637a.682.682 0 0 1 .378 1.164l-3.153 3.07.744 4.339a.682.682 0 0 1 -.99.719l-3.901-2.048-3.9 2.05a.682.682 0 0 1 -.99-.719l.749-4.341-3.153-3.07a.682.682 0 0 1 .377-1.164z" transform="translate(.001 21)"/></clipPath><clipPath id="b"><path d="m.092.411h23v21h-23z"/></clipPath><clipPath id="c"><path d="m0-6.675h15.007v-14.325h-15.007z" transform="translate(0 21)"/></clipPath><clipPath id="d"><path d="m.264.411h23v21h-23z"/></clipPath><clipPath id="e"><path d="m.436.411h23v21h-23z"/></clipPath><clipPath id="f"><path d="m-.392.411h24v21h-24z"/></clipPath><clipPath id="g"><path d="m7.5-18.777-1.5 3.031a.682.682 0 0 1 -.513.373l-3.347.489 2.421 2.358a.682.682 0 0 1 .2.6l-.567 3.335 2.992-1.573a.682.682 0 0 1 .635 0l2.992 1.573-.571-3.331a.682.682 0 0 1 .2-.6l2.421-2.358-3.347-.489a.682.682 0 0 1 -.516-.377zm-2.558 2.106 1.949-3.949a.682.682 0 0 1 1.223 0l1.949 3.949 4.359.637a.682.682 0 0 1 .378 1.164l-3.153 3.07.744 4.339a.682.682 0 0 1 -.99.719l-3.901-2.048-3.9 2.05a.682.682 0 0 1 -.99-.719l.749-4.341-3.153-3.07a.682.682 0 0 1 .377-1.164z" transform="translate(.001 21)"/></clipPath><clipPath id="h"><path d="m-.22.411h23v21h-23z"/></clipPath><clipPath id="i"><path d="m50.516 13h9v16h-9z"/></clipPath><g clip-path="url(#a)" transform="translate(0 1)"><g clip-path="url(#b)" transform="translate(-4.092 -3.411)"><g clip-path="url(#c)" transform="translate(4.093 3.411)"><path d="m-5-26h21.83v21.161h-21.83z" fill="#fff" transform="translate(1.59 22.589)"/></g></g></g><g clip-path="url(#a)" transform="translate(21.828 1)"><g clip-path="url(#d)" transform="translate(-4.092 -3.411)"><g clip-path="url(#c)" transform="translate(4.093 3.411)"><path d="m-5-26h21.83v21.161h-21.83z" fill="#fff" transform="translate(1.59 22.589)"/></g></g></g><g clip-path="url(#a)" transform="translate(43.656 1)"><g clip-path="url(#e)" transform="translate(-4.092 -3.411)"><g clip-path="url(#c)" transform="translate(4.093 3.411)"><path d="m-5-26h21.83v21.161h-21.83z" fill="#fff" transform="translate(1.59 22.589)"/></g></g></g><g clip-path="url(#a)" transform="translate(65.484 1)"><g clip-path="url(#f)" transform="translate(-4.092 -3.411)"><g clip-path="url(#c)" transform="translate(4.093 3.411)"><path d="m-5-26h21.83v21.161h-21.83z" fill="#fff" transform="translate(1.59 22.589)"/></g></g></g><g clip-path="url(#g)" transform="translate(87.312 1)"><g clip-path="url(#h)" transform="translate(-4.092 -3.411)"><g clip-path="url(#c)" transform="translate(4.093 3.411)"><path d="m-5-26h21.83v21.161h-21.83z" fill="#fff" transform="translate(1.59 22.589)"/></g></g></g><g clip-path="url(#i)" transform="translate(35.484 -13)"><g clip-path="url(#a)" transform="translate(52 14)"><g clip-path="url(#f)" transform="translate(-4.092 -3.411)"><g clip-path="url(#c)" transform="translate(4.093 3.411)"><path d="m-5-26h21.83v21.161h-21.83z" fill="#fff" transform="translate(1.59 22.589)"/></g></g></g></g></svg>