<svg xmlns="http://www.w3.org/2000/svg" xmlns:xlink="http://www.w3.org/1999/xlink" width="103" height="14" viewBox="0 0 103.008 14.34"><defs><clipPath id="a"><path d="M7.5-18.777l-1.5,3.031a.682.682,0,0,1-.513.373l-3.347.489,2.421,2.358a.682.682,0,0,1,.2.6L4.194-8.591l2.992-1.573a.682.682,0,0,1,.635,0l2.992,1.573-.571-3.331a.682.682,0,0,1,.2-.6l2.421-2.358-3.347-.489A.682.682,0,0,1,9-15.746ZM4.942-16.671,6.891-20.62a.682.682,0,0,1,1.223,0l1.949,3.949,4.359.637A.682.682,0,0,1,14.8-14.87L11.647-11.8l.744,4.339a.682.682,0,0,1-.99.719L7.5-8.79l-3.9,2.05a.682.682,0,0,1-.99-.719L3.359-11.8.206-14.87a.682.682,0,0,1,.377-1.164Z" transform="translate(0.001 21)" fill="#fff"/></clipPath><clipPath id="b"><rect width="23" height="21" transform="translate(-0.22 0.411)" fill="#fff"/></clipPath><clipPath id="c"><path d="M0-6.675H15.007V-21H0Z" transform="translate(0 21)" fill="#fff"/></clipPath></defs><g transform="translate(-122.313 -695)"><g transform="translate(210.312 695)"><g clip-path="url(#a)"><g transform="translate(-4.092 -3.411)" clip-path="url(#b)"><g transform="translate(4.093 3.411)" clip-path="url(#c)"><path d="M-5-26h21.83V-4.839H-5Z" transform="translate(1.59 22.589)" fill="#fff"/></g></g></g></g><g transform="translate(188.313 695)"><g clip-path="url(#a)"><g transform="translate(-4.092 -3.411)" clip-path="url(#b)"><g transform="translate(4.093 3.411)" clip-path="url(#c)"><path d="M-5-26h21.83V-4.839H-5Z" transform="translate(1.59 22.589)" fill="#fff"/></g></g></g></g><g transform="translate(166.313 695)"><g clip-path="url(#a)"><g transform="translate(-4.092 -3.411)" clip-path="url(#b)"><g transform="translate(4.093 3.411)" clip-path="url(#c)"><path d="M-5-26h21.83V-4.839H-5Z" transform="translate(1.59 22.589)" fill="#fff"/></g></g></g></g><g transform="translate(144.313 695)"><g clip-path="url(#a)"><g transform="translate(-4.092 -3.411)" clip-path="url(#b)"><g transform="translate(4.093 3.411)" clip-path="url(#c)"><path d="M-5-26h21.83V-4.839H-5Z" transform="translate(1.59 22.589)" fill="#fff"/></g></g></g></g><g transform="translate(122.313 695)"><g clip-path="url(#a)"><g transform="translate(-4.092 -3.411)" clip-path="url(#b)"><g transform="translate(4.093 3.411)" clip-path="url(#c)"><path d="M-5-26h21.83V-4.839H-5Z" transform="translate(1.59 22.589)" fill="#fff"/></g></g></g></g></g></svg>
