<svg height="200" viewBox="0 0 530 200" width="530" xmlns="http://www.w3.org/2000/svg" xmlns:xlink="http://www.w3.org/1999/xlink"><clipPath id="card-catalog-illus-h-a"><path d="m10 0h510a10 10 0 0 1 10 10v190a0 0 0 0 1 0 0h-530a0 0 0 0 1 0 0v-190a10 10 0 0 1 10-10z" transform="translate(321 460)"/></clipPath><linearGradient id="card-catalog-illus-h-b" gradientUnits="objectBoundingBox" x1=".168" x2="1.072" y2="1.05"><stop offset="0" stop-color="#0069f9"/><stop offset="1" stop-color="#ac00ff"/></linearGradient><g clip-path="url(#card-catalog-illus-h-a)" transform="translate(-321 -460)"><path d="m0 0h530v200h-530z" fill="url(#card-catalog-illus-h-b)" transform="translate(321 460)"/><g opacity=".9" transform="translate(99.592 -32)"><g fill="#c3fc33" transform="matrix(.951 -.309 .309 .951 -1440.776 178.906)"><path d="m1935.727 971.457c-.936.823-2.174.918-3.28 1.29a76.248 76.248 0 0 0 -10.385 4.271 4.678 4.678 0 0 1 -3.285.716c-.3-.069-1.133-.245-.468.6.28.355-.082.418-.278.535a54.952 54.952 0 0 1 -5.568 3.206 17.432 17.432 0 0 0 -1.948 1.424c-2.062 1.2-3.671 2.965-5.553 4.388a30.325 30.325 0 0 0 -3.092 3.093c-.293-.322.279-.573.015-.786a.483.483 0 0 0 -.689.1c-.358.756-1.361 1.2-1.083 2.271a.613.613 0 0 1 -.59.788c-.527-.062-.9-.232-.559.531.029.066-.01.164-.018.247-1.683-.232-.969 1.37-1.528 1.994-1.466 1.635-2.557 3.551-4.01 5.222a17.54 17.54 0 0 0 -2.551 4.357 13.01 13.01 0 0 1 -1.886 3.2 5.145 5.145 0 0 0 -1.1 1.692c-.285.873-.98.8-1.652.87-.833.086-.534-.554-.625-.942-.166-.7-.932-.683-1.368-.977-1.867-1.256-1.664-3.08-1.455-4.8a26.854 26.854 0 0 1 2.682-7.834 58.022 58.022 0 0 1 15.7-20.4 79.321 79.321 0 0 1 20.938-12.407c3.169-1.309 6.466-2.255 9.711-3.348 2.648-.892 5.29-1.757 8-2.422 4.414-1.084 8.852-2.038 13.351-2.716a122.157 122.157 0 0 1 22.535-1.725 43.16 43.16 0 0 1 11.684 2.062 5.976 5.976 0 0 1 1.829.9c.4.307.984.571.856 1.155a1.255 1.255 0 0 1 -1.372.968c1.213.521 2.352.967 1.171 2.379-.176.211-.013.346.075.544.459 1.028.113 1.678-1.016 1.994.207.228.8.069.673.589-.088.356-.482.314-.768.3-3.1-.21-6.211-.211-9.32-.233a150.67 150.67 0 0 0 -16.722.759c-5.117.531-10.188 1.3-15.237 2.236a43.287 43.287 0 0 0 -5.873 1.6 156.852 156.852 0 0 1 46.986-3.769c-.477.543-1.091.333-1.623.324-13.037-.219-26.007.362-38.845 2.878-3.795.743-7.51 1.771-11.24 2.758a3.954 3.954 0 0 1 -1.26.158c-.346-.839.558-.567.731-.628 1.518-.539 3.08-.954 4.883-1.48-1.739-.209-11.271 2.845-12.03 3.818a13.564 13.564 0 0 1 3.407-1.28c.986-.292 1.939-.974 3.05-.47zm34.641-14.68a71.146 71.146 0 0 1 11.083.823c1.382.246 2.755.545 4.135.8.313.058.783.262.906-.133.149-.475-.407-.408-.68-.542a1.09 1.09 0 0 0 -.247-.062 50.68 50.68 0 0 0 -15.197-.886zm16.872 6.976c-2.485-.716-15.605-.87-18.317-.258 6.158.14 12.244-.275 18.317.258zm-3.4-3.083a44.471 44.471 0 0 0 -9.91-.561z"/><path d="m1999.479 1008.635c.612.335 1.126.6 1.62.894.316.189.733.334.636.842-.086.451-.481.412-.8.491a.579.579 0 0 0 -.467.383c1.3.377 1.328.551.721 1.766-.148.3-.9.627-.186 1.27.339.308-.32.4-.6.415a17.232 17.232 0 0 1 -5.026-.583c-2.294-.519-4.619-.848-6.936-1.176a53.817 53.817 0 0 0 -15.84.534 38.681 38.681 0 0 0 -9.379 2.68c4.25-.9 8.385-2.411 13.028-2.505a1.979 1.979 0 0 1 -1.647.629 57 57 0 0 0 -14.183 3.673c-.2.08-.455.4-.621.014-.431-1-1.181-.313-1.561-.14-.558.255-1.554.407-1.136 1.64-1.569-1.275-2.24.648-3.473.544.319.712.849.082 1.252.486-.936.543-1.881 1.026-2.752 1.621-.549.374-.315-.841-1.015-.338-.962.691-2.188 1.009-3.164 1.686-.453.314-.823-.08-1.258.249.813.58.684.9-.213 1.283a9.383 9.383 0 0 0 -3.629 2.722c-.67.825-1.7 1.3-2.339 2.178-.186.258-.449.1-.7.044-1.081-.248-1.532.111-1.573 1.226a3.1 3.1 0 0 1 -1.1 2.728.949.949 0 0 1 -.738.231c-.8-.045-1.358 1.126-1.064 1.915a3.206 3.206 0 0 1 -.552 2.87c-.838 1.153-.537 2.361-.728 3.529a.917.917 0 0 1 -.838.892c-1.037.258-.885-.747-1.153-1.17-.231-.364-.061-.9-.813-.727-.369.083-.551-.32-.65-.668-.257-.907-.909-1.823.066-2.714.015-.014.541-.619-.239-.686-.252-.022-.416-.616-.313-1 .476-1.8.368-3.714 1.155-5.455.181-.4.131-.892.78-.573.148.073.372.186.43-.027.047-.177-.044-.561-.131-.58-.912-.192-.543-.8-.231-1.062.871-.726.822-1.919 1.5-2.7 1.078-1.234 1.826-2.728 3.437-3.549.582-.3.9-1.4 1.507-2.066a46.931 46.931 0 0 1 5.571-4.713 54.516 54.516 0 0 1 4.741-3.18 58.856 58.856 0 0 1 11.843-5.68 66.272 66.272 0 0 1 15.874-3.452 50.758 50.758 0 0 1 17.477.92 16.338 16.338 0 0 1 6.29 2.723c.347.269.988.44.8 1.014-.164.5-.732.485-1.213.47-.103-.006-.212.078-.467.182zm-29.133-1.8a37.517 37.517 0 0 1 3.834-.356c1.456.006 2.88-.294 4.374-.217 1.139.058 2.49-.107 3.725-.149a64.721 64.721 0 0 1 12.584 1.316 10.3 10.3 0 0 1 2.055.627c.209.082.338.4.632.232a.4.4 0 0 0 .161-.3c-.021-.38-.349-.448-.629-.527a14.466 14.466 0 0 1 -3.6-1.058c-1.657-1.011-3.441-.538-5.132-.9-1.212-.263-2.573.16-3.634-.313-1.6-.71-3.085-.251-4.634-.246-1.483.005-2.9.764-4.252.673a9.3 9.3 0 0 0 -5.484 1.217zm20.589 5.262c-7.415-1.467-14.727-.749-21.991 1.029a72.628 72.628 0 0 1 21.991-1.026zm-17.906-2.656c3.779-.275 7.54-.721 11.333-.709a29.422 29.422 0 0 0 -11.333.708zm-8-1.8c1.2.684 2.219-.479 3.35-.136.186.056.4-.179.375-.415-.027-.274-.272-.556-.5-.433-.993.543-2.254.181-3.225.983z" transform="translate(-25.159 -26.054)"/><path d="m2026.01 1045.781a1.289 1.289 0 0 1 -.816.479c-.336.094-.92-.106-.912.441.009.567.571.332.915.384.126.019.261-.013.383.016.542.127.788.366.26.826-.111.1-.418.255-.246.3 1.533.4.19 1.131.224 1.687.069 1.158-1.015.944-1.606 1.3-1.647.991-3.668 1.147-5.22 2.41-.608.495-1.273.093-1.685-.56-.828 1.528-2.478 1.572-3.847 2.051-2.754.964-5.813 1.356-8.264 2.8-2.486 1.466-5.2 1.889-7.746 2.944l-2.6.152a10.836 10.836 0 0 0 -1.083.359 20.127 20.127 0 0 1 -5.834 1.846c-.429.051-.992.463-.735-.624.1-.422-.923-1.155-1.5-1.672-.273-.244-.627-.467-.436-.806.658-1.167.764-2.617 2.2-3.386a80.782 80.782 0 0 1 11.406-5.081c3.128-1.1 6.292-2.061 9.464-3.012a73.616 73.616 0 0 1 7.764-1.869c2.62-.485 5.186-1.274 7.85-1.6a2.449 2.449 0 0 1 2.064.615z" transform="translate(-54.387 -48.413)"/><path d="m2067.381 1027.505a42.173 42.173 0 0 1 -9.709-1.271c.016-.1.031-.21.047-.314z" transform="translate(-92.818 -38.222)"/><path d="m2047.21 1025.6-7.146-.362a14.763 14.763 0 0 1 7.146.362z" transform="translate(-83.481 -37.704)"/></g><path d="m571.383 1330.62c-.259.4-.7-.12-.962.205-.314-.332-.746-.128-1.119-.241-.183.04.188-.5-.285-.26a3.3 3.3 0 0 1 -1.106.132l-.151-.761-.173.5-.784-.519.174-.609a1.538 1.538 0 0 0 -1.448-.14l1.094.519-.282.579c-.182-.088-.052-.638-.533-.292l.255.568c-.076.041-.139.1-.165.084-.332-.175-.658-.359-.986-.542a2.3 2.3 0 0 1 -1.535.964l.183-.527c-.19-.119-.27-.5-.681-.452l.166.891c-.328.147-.375.235-.27.447-.467.368-.547-.339-.92-.381l-.095.617c-.2-.031-.309-.292-.587-.073-.387.3-.906.438-1.291.743s-.7.157-1.077-.013l-.043.576c-.526-.1-.935.245-1.407.4-1.127.357-2.209.827-3.314 1.24-.987.369-1.952.8-2.931 1.188-.806.322-1.613.645-2.431.937-1.111.4-2.18.9-3.277 1.329-.857.336-1.716.718-2.569 1.088-.282.122-.535.37-.9.28a.341.341 0 0 0 -.26.087c-.772.694-1.871.7-2.7 1.275a.264.264 0 0 1 -.183.037c-.838-.166-1.45.386-2.134.685a19.833 19.833 0 0 1 -3.358 1.132 2.88 2.88 0 0 0 -.716.211c-.2.111-.418.029-.6.108a1.881 1.881 0 0 0 -.624.425c-.233.257-.384-.269-.656 0-.2.195-.594.171-.865.313-.444.232-1.007.139-1.395.543-.081.084-.348.066-.485 0-.246-.118-.337-.158-.493.156-.085.172-.5.209-.773.253a13.363 13.363 0 0 1 -2.568.61 6.8 6.8 0 0 1 -2.349.649c-.181.048-.357.118-.54.154-.342.066-.687-.083-1.042.177-.251.183-.706-.115-1.019.216-.061.064-.33 0-.45-.076-.318-.212-.163.128-.234.166-.113.059-.29-.007-.409.047a3.1 3.1 0 0 1 -1.7.273 28.614 28.614 0 0 0 -3.039.232c-.31-.007-.626.21-.94-.025-.582.3-1.165-.126-1.745 0-.244.054-.533.252-.713.176a4.351 4.351 0 0 0 -1.436-.184c-.478-.039-.952-.128-1.427-.2-.063-.009-.162.006-.185-.029-.205-.315-.535-.127-.76-.207-.513-.182-1.076-.067-1.563-.359a3.452 3.452 0 0 1 -.882-.619l-.221.471c-.737-.563-1.827-.475-2.441-1.444h-.728c-.093-.167-.168-.413-.241-.412-.513 0-.939-.026-.9-.726.006-.108-.273-.232-.61-.5l.291.85c-.391-.26-.673-.434-.939-.629a3.305 3.305 0 0 1 -.72-.594c-.213-.281-.572-.366-.758-.67a3.844 3.844 0 0 0 -.572-.766c-.237-.23-.358-.543-.674-.736-.21-.129-.251-.534-.371-.821l.242-.261.309.275c-.028-.209-.007-.345-.064-.428a2.175 2.175 0 0 0 -.932-.656c-.141-.068-.325-.156-.375-.281-.069-.173.017-.411-.055-.581-.059-.139-.37-.221-.368-.325.009-.526-.358-.992-.221-1.528a7.4 7.4 0 0 1 -.2-2.635 11.432 11.432 0 0 1 .883-4.668 16.885 16.885 0 0 1 2.6-4.663c.772-.995 1.506-2.012 2.349-2.955a39.021 39.021 0 0 0 3.14-4.131c.3-.439.445-.956.768-1.4a5.076 5.076 0 0 0 .648-1.436 8.822 8.822 0 0 0 .274-1.4c.057-.377-.11-.786.2-1.133.06-.068.006-.255-.026-.38-.038-.149-.152-.288-.159-.435a6.748 6.748 0 0 0 -2.936-5.131c-1.007-.723-2.084-1.3-3.113-1.974-1.45-.943-2.99-1.729-4.432-2.686-1.121-.744-2.309-1.386-3.466-2.076a25.122 25.122 0 0 1 -3.83-2.42c-.634-.1-.971-.688-1.525-.935a12.327 12.327 0 0 1 -1.6-1.222 17.211 17.211 0 0 1 -1.782-1.545 4.05 4.05 0 0 0 -1.048-.871 1.117 1.117 0 0 1 -.559-.56c-.178-.463-.575-.707-.873-1.048a15.913 15.913 0 0 1 -3.252-5.5 20.613 20.613 0 0 0 -.783-2.593c.14-.73-.234-1.409-.207-2.132a11.364 11.364 0 0 1 .035-2.107 9.258 9.258 0 0 1 .776-3 15.888 15.888 0 0 1 2.147-4.748 14.068 14.068 0 0 1 2.66-2.805 4.2 4.2 0 0 1 1.789-1c.454-.1.865-.333 1.333-.444a1.776 1.776 0 0 1 1.184-.022c.155.062.39-.11.592-.122a6.842 6.842 0 0 1 1.106 0c.274.028.529.294.819.044.311.312.71.047 1.043.156.293.1.553.29.845.388.473.159.962.271 1.441.412a1.519 1.519 0 0 1 .425.186 12.031 12.031 0 0 0 2.5 1c.893.354 1.832.6 2.692 1.035.615.308 1.275.5 1.9.752.661.267 1.3.6 1.969.838a42.414 42.414 0 0 1 3.976 1.824q2.527 1.194 5.04 2.416c2.933 1.428 5.856 2.876 8.792 4.3a14.325 14.325 0 0 0 2.236.911c.373.107.668.342 1.034.43.549.132 1.094.283 1.646.4a7.3 7.3 0 0 1 1.318.224c.705.3 1.466.305 2.188.541a2.392 2.392 0 0 0 2.225-.621c.282-.236.516-.528.788-.777a3.082 3.082 0 0 0 .875-3.5 5.338 5.338 0 0 1 -.408-1.845c-.4-.371.008-.977-.387-1.35a9.389 9.389 0 0 1 .139-2.243 3.838 3.838 0 0 0 .261-1.714 25.136 25.136 0 0 1 .236-4.644 15.447 15.447 0 0 1 .645-3.235c.208-.728.538-1.4.791-2.1a10.211 10.211 0 0 1 1.319-2.168 13.185 13.185 0 0 1 3.845-3.548 14.717 14.717 0 0 1 3.423-1.7c.506-.164 1.066-.217 1.571-.357.559-.154 1.136-.006 1.628-.192a3.375 3.375 0 0 1 1.538-.156c.955.083 1.907.233 2.854.394a14.428 14.428 0 0 1 2.657.873 12.563 12.563 0 0 1 3.207 1.738 2.336 2.336 0 0 1 .46.338c.607.784 1.24 1.554 1.775 2.385a13.192 13.192 0 0 0 3.2 3.393 3.634 3.634 0 0 1 .509.611 3.134 3.134 0 0 1 .8-.267 2.636 2.636 0 0 0 .727-.2 1.421 1.421 0 0 1 .8 0c.261.084.4-.306.682-.095.077.058.311-.091.473-.146a2.485 2.485 0 0 0 .526-.186c.236-.148.325.291.586.1.138-.1.374-.054.559-.1.211-.051.411-.151.624-.193.3-.058.557.124.827.165.188.028.405-.3.638-.356a5.839 5.839 0 0 0 .933-.184c.286-.118.788-.221.934.355.009.037.3 0 .484 0l-.217-.45c.327-.134.573-.56.97-.183.139-.22.262.019.353.008.26-.032.355-.663.774-.213a5.925 5.925 0 0 1 .833-.327c.117-.029.294.177.406.145.163-.046.29-.329.485-.1.182.218.267-.113.354-.042s.1.22.148.334c.68-.217.68-.217.844-.817a2.932 2.932 0 0 1 .5.247 1.915 1.915 0 0 1 .3.361l.333-.552c1.414.373 1.52.344 2.024-.585h.683l.18.383c.127-.506.127-.506.636-.784.215-.057-.168.54.291.254a.734.734 0 0 1 .821.028.693.693 0 0 0 .532 0c.317-.12.771-.116.711-.679-.01-.1.156-.273.425-.087a3.041 3.041 0 0 0 1.067.232c-.059-.176-.116-.345-.191-.564.565.2 1.03.339 1.464-.128.139-.149.338.182.638 0a5.472 5.472 0 0 1 1.524-.4l.07-.456c.049-.024.079-.051.1-.048a6.63 6.63 0 0 0 1.463-.2c.478-.147.96-.279 1.443-.4 2.261-.59 4.428-1.478 6.665-2.13 1.589-.463 3.179-.94 4.794-1.334 1.358-.332 2.726-.675 4.067-1.1a23.421 23.421 0 0 1 2.322-.475c.244-.05.479-.147.723-.2.406-.08.816-.138 1.225-.2a7.753 7.753 0 0 0 1.222-.212c.873-.294 1.8-.257 2.683-.564.493-.172 1.08-.022 1.624-.212.444-.155 1.015-.03 1.4-.251.448-.257.925-.114 1.382-.326s1.072-.034 1.616-.22c.215-.074.546.1.791.229a.742.742 0 0 0 .968-.048 9.445 9.445 0 0 1 1.978-.777c.374.365.7.035 1.146-.1-.053.219-.083.351-.118.482-.03.109-.067.216-.12.387.463-.153.477-.472.428-.828.189.109.343.244.387.215.231-.156.412-.088.654-.011.168.054.4-.125.615-.173a1.045 1.045 0 0 1 .4 0c.192.034.34.39.574.085s.417.179.55.039c.379-.4.655.063.975.092.271.025.625.076.7.48a.386.386 0 0 0 .321.052c.14-.089.256-.246.419-.093.447.418 1.105.473 1.537.918a.63.63 0 0 0 .4.219c.3-.022.423.195.556.361a3.442 3.442 0 0 0 .632.628c.256.192.422.443.826.468.308.02.471.472.844.609a13.769 13.769 0 0 1 2.948 1.608 22.89 22.89 0 0 1 2.652 1.913c.505.46 1.04.9 1.533 1.376.791.769 1.326 1.744 2.032 2.573a17.708 17.708 0 0 1 2.2 3.83 17.047 17.047 0 0 1 1.242 3.72 8.774 8.774 0 0 0 .568 2.377.168.168 0 0 1 0 .1 14.889 14.889 0 0 0 .208 2.333c-.027.771.013 1.544-.015 2.315-.011.31-.144.613-.186.924a1.916 1.916 0 0 1 -.182.837c-.128.214-.059.54-.2.821-.083.166.124.464.169.709.051.271.031.525-.341.544-.076.543-.526.97-.6 1.452-.152.948-.894 1.583-1.106 2.471-.454.268-.349.873-.765 1.208a5.453 5.453 0 0 0 -.735 1.089c-.287.391-.613.754-.919 1.131-.06.073-.164.171-.15.234.133.581-.323.828-.637 1.15-.515.529-1.023 1.067-1.569 1.563a23.306 23.306 0 0 1 -2.941 2.367c-.7.455-1.267 1.129-1.991 1.528-.806.443-1.533.99-2.309 1.467-.985.6-2 1.151-3.011 1.715-1.063.594-2.165 1.109-3.22 1.713a14.968 14.968 0 0 1 -1.864 1.089 23.155 23.155 0 0 0 -2.54 1.4c-1.052.569-2.014 1.3-3.012 1.971a17.85 17.85 0 0 0 -2.27 2.06 4.221 4.221 0 0 1 -.968.812 1.987 1.987 0 0 0 -.8.956 15.62 15.62 0 0 0 -.978 2.413 9.771 9.771 0 0 0 -.095 1.072c-.043.27.237.7-.33.765-.035 0-.061.235-.062.361-.006.7.008 1.41-.007 2.114-.01.457.355.851.205 1.326.412.4.106.979.369 1.463a6.216 6.216 0 0 1 .245 1.507 11.868 11.868 0 0 1 .514 1.888 19.268 19.268 0 0 0 .557 2.1c.106.661.551 1.268.658 1.929a23.849 23.849 0 0 0 .666 2.548c.024.087-.106.217-.174.344l.359.123a5.875 5.875 0 0 0 .385 1.832 3.94 3.94 0 0 1 .052.786c.037.245.159.479.187.724a1.829 1.829 0 0 0 .195.831 1.713 1.713 0 0 1 .2.814 1.59 1.59 0 0 0 .215.822c.147.236-.388.49.037.729.3.168.051.534.179.723.306.451.195.984.352 1.466a7.38 7.38 0 0 1 .23 1.013c.058.337-.089.709.178 1.01-.325.172.025.3.037.449s.095.3.115.452a3.543 3.543 0 0 1 .011.544c0 .072-.071.188-.047.207.531.421.251 1.095.5 1.611a5.416 5.416 0 0 1 .187.823 2.6 2.6 0 0 1 .251 1.219.891.891 0 0 0 .195.61 1.3 1.3 0 0 1 .186.931 2.556 2.556 0 0 0 .177.982 7.371 7.371 0 0 1 .416 1.438c0 .451.553.892.049 1.364 0 0 .148.179.229.274.208.244.181.555.261.835a1.074 1.074 0 0 1 -.1.969l.3.069c.024.024.065.045.068.072.073.575.136 1.151.214 1.725.069.509-.178 1.047.188 1.536.12.16-.323.391-.006.651.069.057-.08.379-.128.58l.341.119c-.03.577-.664 1.05-.226 1.669-.311.128-.815.036-.766.67l.428-.211c.068.052.162.091.16.126-.012.225-.045.448-.072.673a1.171 1.171 0 0 0 -.028.205c.516.173-.025.635.279.948.278.286-.092.741-.2 1.086a4.361 4.361 0 0 0 -.173.934 3.479 3.479 0 0 1 -.226 1.31c-.218.384-.047.783-.226 1.118a1.672 1.672 0 0 0 -.348 1.065c-.472.54-.432 1.3-.814 1.876-.075.113-.252.157-.389.237v.994c-.266.157-.626.218-.623.633-.488.262.15.558-.032.86-.081.007-.209.057-.258.016-.129-.11-.2-.219-.371-.028-.117.134-.046.172 0 .3.124.329-.148.79-.207.73-.377-.38-.412.112-.589.2a.283.283 0 0 0 -.132.236c.157.623-.351.778-.718.994a2.786 2.786 0 0 1 -1.908.639 3.4 3.4 0 0 0 .006.575.54.54 0 0 1 -.294.583 21.149 21.149 0 0 1 -1.875 1.062 6.679 6.679 0 0 1 -1.919.694 15.119 15.119 0 0 1 -2.931.5c-.969-.063-1.945-.023-2.919-.011a12.455 12.455 0 0 1 -3-.533 10.053 10.053 0 0 1 -1.945-.658 2.3 2.3 0 0 0 -1.318-.226 3.086 3.086 0 0 1 -1.744-.4 20.9 20.9 0 0 1 -3.932-2.424 12.853 12.853 0 0 1 -1.9-1.5 11.148 11.148 0 0 1 -2.222-3.614 14.108 14.108 0 0 0 -1.269-2.291 37.259 37.259 0 0 1 -2.375-4.554c-.717-1.491-1.24-3.049-1.847-4.573-.319-.8-.679-1.6-.954-2.426a10.2 10.2 0 0 0 -1.047-2.392c-.291-.449-.465-1.019-.76-1.488a25.853 25.853 0 0 1 -1.394-2.747c-.533-1.122-1.119-2.228-1.579-3.373-.41-1.022-1.057-1.9-1.465-2.917s-.957-1.954-1.458-2.92a4.243 4.243 0 0 0 -2.107-2.117 3.679 3.679 0 0 1 -1.525-1.132zm-2.714-3.337.142-.142c-.054-.047-.111-.139-.16-.135-.389.037-.861.032-1-.108-.532-.553-1.191-.335-1.765-.226a7 7 0 0 0 -1.522.681 1.859 1.859 0 0 1 -.488.2c-.071.01-.16-.215-.281-.031-.08.121-.144.253-.319.564.608-.242 1.008.457 1.487-.071.008-.009.238.113.245.186a.23.23 0 0 0 .358.2c.513-.3 1.082-.13 1.624-.216l.07-.44.446.445-.114.039.448.448c.087-.316-.223-.884.413-1.084a.9.9 0 0 0 1.04.108zm-27.929-70.259-1.231-.64-.258.231.167.189-1.343 1.054c.036.045.161.157.145.183-.148.243-.334.464-.484.706-.336.542-.721 1.077-.419 1.79.437-.3.675-.9 1.3-.844-.065-.168-.208-.366-.16-.44a3.05 3.05 0 0 1 .78-.967 1.658 1.658 0 0 0 .713-.806c.131-.434.43-.3.79-.457zm74.548 108.659a11.417 11.417 0 0 0 .676-1.009c.575-1.1 1.529-2.02 1.632-3.352 0-.051.1-.091.136-.144a1.907 1.907 0 0 0 .448-1.322 3.032 3.032 0 0 1 .339-1.473.45.45 0 0 0 -.149-.644 2.237 2.237 0 0 0 -.375.509c-.108.293-.121.619-.217.918a10.828 10.828 0 0 1 -.883 2.453.561.561 0 0 0 -.11.351 1.579 1.579 0 0 1 -.441 1.321c-.55.657-.679 1.549-1.381 2.066zm-.2-23.448c-.138.273-.325.536-.284.578.285.293.131.635.155.95a2.71 2.71 0 0 1 -.016 1c-.1.315.371.565.033.851.318.254.166.607.185.919.021.334 0 .671 0 1.006v3.825a2.2 2.2 0 0 0 .069.38c.075-.533.267-1.028.3-1.522a31.063 31.063 0 0 1 .211-3.541 6.273 6.273 0 0 0 -.144-1.526 18.319 18.319 0 0 0 -.51-2.92zm13.182-82.2c.186.122.341.226.5.325s.321.19.482.285c-.262.481-.261.476.067.714.128.093.314.209.331.334.068.49.367.2.506.226-.031-.355-.06-.689-.089-1.023.43-.278.014-.56-.014-.834a.934.934 0 0 0 -.274-.475c-.024-.026-.24.127-.395.212l-.347-.746.592.242c.179-.438-.312-.27-.351-.451a3.834 3.834 0 0 1 -.011-.739h-1.358l-.186-.5c-.052.777-.052.777.287 1.073l.121-.356.483.453.482-.268c-.088.619-.534.735-.828.963zm7.85 25.056c.132.013.222.05.256.021.572-.483 1.165-.947 1.7-1.47a20.136 20.136 0 0 0 2.813-3.656 6.309 6.309 0 0 0 .977-1.9c.077-.328-.2-.254-.231-.408a19.814 19.814 0 0 1 -2.281 3.874c-1.025 1.203-2.133 2.338-3.235 3.538zm-103.08-26.857a3.28 3.28 0 0 0 -1.231 1.653c-.295.58-.433 1.236-.7 1.817a5.3 5.3 0 0 0 -.479 2c-.029.7-.5 1.369-.142 2.095a3.651 3.651 0 0 0 .282-.5c.045-.117 0-.264.03-.391.1-.458.219-.912.33-1.369a3.939 3.939 0 0 0 .282-1.49 25.787 25.787 0 0 1 1.4-3.339 3.968 3.968 0 0 0 .227-.477zm97 19.683-.169-.1a2.455 2.455 0 0 1 -.417.54c-.191.143-.509.14-.662.3a3.587 3.587 0 0 1 -1.12.692c-.131.615-.7.788-1.119 1.118-.326.26-.662.507-.972.784-.092.082-.11.245-.162.372.339-.138.525-.447.908-.341.285.079.256-.175.363-.315.09-.117.488-.085.5-.157.061-.4.384-.461.644-.626a3.424 3.424 0 0 0 .827-.641c.22-.266.506-.246.763-.323l-.225-.57h.842z" fill="#c3fc33" transform="matrix(-.839 -.545 .545 -.839 52.12 2026.645)"/><circle cx="92.344" cy="92.344" fill="#f7f7f7" r="92.344" transform="translate(410.151 523.12)"/><rect fill="#e6e6e6" height="69.737" rx="10.849" transform="translate(546.56 570.633)" width="69.354"/><path d="m930.33 723.35 2.043 3.556a4.876 4.876 0 0 0 4.228 2.447h6.628" fill="none" stroke="#b3b3b3" stroke-linecap="round" stroke-linejoin="round" stroke-width="2.469" transform="translate(-331.786 -101.245)"/><path d="m820.8 591.383a24.1 24.1 0 1 1 -24.1 24.1" fill="none" stroke="#527fed" stroke-linecap="round" stroke-linejoin="round" stroke-width="2.469" transform="translate(-239.631 -10.234)"/><path d="m820.8 693.14a24.1 24.1 0 0 1 -24.1-24.1" fill="none" stroke="#b3b3b3" stroke-linecap="round" stroke-linejoin="round" stroke-width="16.802" transform="translate(-239.631 -63.789)"/><path d="m796.7 615.484a24.1 24.1 0 0 1 24.1-24.1" fill="none" stroke="#fff" stroke-linecap="round" stroke-linejoin="round" stroke-width="16.802" transform="translate(-239.631 -10.234)"/><path d="m963.487 328.012c.127.319-.431 5 .463 6.274s3.512-2.937 3.512-2.937z" fill="#ffc9af" transform="translate(-354.614 171.399)"/><rect fill="#e6e6e6" height="87.363" rx="10.849" transform="translate(512.075 466.282)" width="97.118"/><path d="m0 0h97.118v57.476h-97.118z" fill="#f0f0f0" transform="translate(512.075 481.354)"/><g fill="none" stroke="#fff" stroke-miterlimit="10" stroke-width="2.469" transform="translate(512.314 493.999)"><path d="m0 0h96.942"/><path d="m0 0h96.942" transform="translate(0 10.92)"/><path d="m0 0h96.942" transform="translate(0 21.841)"/><path d="m0 0h96.942" transform="translate(0 32.761)"/></g><path d="m673.322 296.992s5.747 50 81.615 41.382" fill="none" stroke="#527fed" stroke-linecap="round" stroke-linejoin="round" stroke-width="2.469" transform="translate(-154.542 192.792)"/><circle cx="2.554" cy="2.554" fill="#527fed" r="2.554" transform="translate(564.101 528.279)"/><path d="m965.945 323.535s-3.449-7.283-4.6-6.833c-.734.287 2.172 7.919 3.449 8.11s1.151-1.277 1.151-1.277z" fill="#ffc9af" transform="translate(-353.096 179.213)"/><path d="m972.641 343.554c.679.826-3.812-4.64-4.023-4.79a5.509 5.509 0 0 0 -3.513 2.938l3.129 5.237a8.774 8.774 0 0 0 2.874-1.15 7.859 7.859 0 0 0 1.533-2.235z" fill="#e54c1d" transform="translate(-355.769 163.984)"/><path d="m823.016 436.968a42.8 42.8 0 0 1 -2.523-6.291 2.26 2.26 0 0 1 .287-1.4s-.7-2.012 0-2.267 2.619 3.768 2.619 3.768-1.022-4.023-.319-4.151 2.3 4.662 4.726 7.472a10 10 0 0 1 -2.491 2.3 7 7 0 0 1 -2.299.569z" fill="#ffc9af" transform="translate(-256.02 103.394)"/><path d="m840.454 437.733s-.447-5.62-.639-5.811-1.469.639-.83 4.343 1.469 1.468 1.469 1.468z" fill="#ffc9af" transform="translate(-268.668 99.756)"/><path d="m821.477 435.168a38.711 38.711 0 0 0 2.139 4.821" fill="none" stroke="#e77f76" stroke-linecap="round" stroke-linejoin="round" stroke-width="1.235" transform="translate(-256.716 97.499)"/><path d="m0 0 .99 2.235" fill="none" stroke="#e77f76" stroke-linecap="round" stroke-linejoin="round" stroke-width="1.235" transform="translate(567.379 534.168)"/><path d="m828.679 453.577a6.514 6.514 0 0 1 4.79-2.874l3.9 4.6s-4.406 3.576-4.726 3.193-3.964-4.919-3.964-4.919z" fill="#e54c1d" transform="translate(-261.683 86.786)"/><path d="m955.924 450.81c-.866-1.078-.95-4.119-.95-4.119s.2 2-2.981 4.023c-3.928 2.491-5.664 1.724-5.664 1.724s1.449.491 3.077 3.784c0 0 3.916-.719 5.688-2.826s1.413-1.861.83-2.586z" fill="#e54c1d" transform="translate(-342.82 89.552)"/><path d="m1027.563 521.7c.209.2 29.408 21.649 29.408 21.649l23.948-18.392a16.744 16.744 0 0 0 8.909 14.752c-.862-.1-21.362 15.423-28.067 16.189s-9.484 1.533-28.163-11.687-15.614-18.68-15.614-18.68 7.951-5.364 9.579-3.831z" fill="#da2032" transform="translate(-392.108 38.013)"/><path d="m1039.788 558.983c-1.5 2.431-.094 2.9.971 5.182a91.347 91.347 0 0 0 7.554 5.9c4.494 3.181 8.067 5.55 11 7.306-9.499-14.045-19.057-19.146-19.525-18.388z" fill="#1a1a1a" transform="translate(-406.823 12.161)"/><path d="m995.775 544.556s20.4 32.027 29.983 36.625 42.436 7.472 42.436 7.472-3.64-13.411 1.15-19.829c-1.054-.191-34.677 1.916-34.964 1.82s-20.02-25.96-23.086-29.409-6.8-7.28-8.813-6.705-9.005 4.342-6.706 10.026z" fill="#da2032" transform="translate(-376.604 29.014)"/><path d="m681.758 855.852s3.065 2.043 9.835 1.788 7.152-2.555 7.152-2.555a19.1 19.1 0 0 0 -9.2-1.788 15.476 15.476 0 0 0 -7.787 2.555z" fill="#1a1a1a" transform="translate(-160.36 -190.831)"/><path d="m590.986 544.854s.67 2.3.192 3.257a3.258 3.258 0 0 1 -1.82 1.341s-2.874.383-4.119-.191.383-5.652.383-5.652z" fill="#b78569" transform="translate(-93.471 22.713)"/><path d="m115.424 664.282s2.347 3.56 4.55 3.481 3.161-6.833 3.161-6.833-1.437-5.939-3.065-5.364-4.646 8.716-4.646 8.716z" fill="#ffc9af" transform="translate(230.211 -54.47)"/><rect fill="#e6e6e6" height="116.941" rx="10.849" transform="matrix(.97697488 -.21335438 .21335438 .97697488 335.789 539.728)" width="147.67"/><path d="m10.491 48.041-10.491-48.041" fill="none" stroke="#fff" stroke-miterlimit="10" stroke-width="2.469" transform="translate(414.764 534.842)"/><path d="m266.214 451.046-4.9-22.461a3.832 3.832 0 0 1 2.926-4.561l66.385-14.5a3.832 3.832 0 0 1 4.561 2.926l10.191 46.669" fill="none" stroke="#fff" stroke-miterlimit="10" stroke-width="2.469" transform="translate(129.663 115.244)"/><path d="m119.309 434-30.248 6.606a3.832 3.832 0 0 0 -2.926 4.561l23.314 106.763a3.831 3.831 0 0 0 4.561 2.926l30.248-6.605z" fill="#f0f0f0" transform="translate(250.472 98.303)"/><circle cx="10.857" cy="10.857" fill="#e6e6e6" r="10.857" transform="translate(345.328 542.792)"/><circle cx="10.857" cy="10.857" fill="#e6e6e6" r="10.857" transform="translate(345.328 542.792)"/><rect fill="#e6e6e6" height="5.62" rx="2.81" transform="matrix(.97697488 -.21335438 .21335438 .97697488 348.891 570.537)" width="21.458"/><rect fill="#e6e6e6" height="5.62" rx="2.81" transform="matrix(.97697488 -.21335438 .21335438 .97697488 350.853 579.521)" width="21.458"/><path d="m0 0 12.139 55.588" fill="none" stroke="#fff" stroke-linecap="round" stroke-linejoin="round" stroke-width="40.743" transform="translate(395.337 564.032)"/><path d="m0 0 9.682 44.336" fill="none" stroke="#f2f2f2" stroke-linecap="round" stroke-linejoin="round" stroke-width="40.743" transform="translate(422.501 569.889)"/><path d="m0 0 5.486 25.12" fill="none" stroke="#dbdbdb" stroke-linecap="round" stroke-linejoin="round" stroke-width="40.743" transform="translate(451.405 583.71)"/><path d="m0 0 8.81 40.343" fill="none" stroke="#bababa" stroke-linecap="round" stroke-linejoin="round" stroke-width="40.743" transform="translate(472.787 563.091)"/><rect fill="#f6c32c" height="5.875" rx="2.938" transform="matrix(.97697488 -.21335438 .21335438 .97697488 403.754 632.29)" width="12.772"/><rect fill="#da2032" height="5.875" rx="2.938" transform="matrix(.97697488 -.21335438 .21335438 .97697488 428.211 626.949)" width="12.772"/><rect fill="#b3b3b3" height="5.875" rx="2.938" transform="matrix(.97697488 -.21335438 .21335438 .97697488 453.417 621.445)" width="12.772"/><rect fill="#fff" height="5.875" rx="2.938" transform="matrix(.97697488 -.21335438 .21335438 .97697488 478.249 616.022)" width="12.772"/><path d="m10.491 48.041-10.491-48.041" fill="none" stroke="#fff" stroke-miterlimit="10" stroke-width="2.469" transform="translate(439.097 529.528)"/><circle cx="2.682" cy="2.682" fill="#f6c32c" r="2.682" transform="translate(412.137 532.409)"/><circle cx="2.682" cy="2.682" fill="#527fed" r="2.682" transform="translate(436.532 527.082)"/><circle cx="2.682" cy="2.682" fill="#527fed" r="2.682" transform="translate(465.591 540.758)"/><circle cx="2.682" cy="2.682" fill="#527fed" r="2.682" transform="translate(389.014 544.29)"/><path d="m590.081 541.874-6.61-2.586a2.684 2.684 0 0 0 1.724 2.682 24.845 24.845 0 0 0 5.268 1.724z" fill="#b78569" transform="translate(-92.566 25.693)"/><path d="m114.241 659.377s3.337-9.308 5.444-10.362a10.651 10.651 0 0 1 -.766 4.55 11.373 11.373 0 0 1 -1.581 2.874s-1.772 4.215-1.916 4.215a9.568 9.568 0 0 1 -1.181-1.277z" fill="#ffc9af" transform="translate(231.027 -49.98)"/><path d="m544.218 1001.217-1.565 9.9-15.327-1.564 1.565-10.122s6-2.491 10.793-1.437 4.534 3.223 4.534 3.223z" fill="#b78569" transform="translate(-53.857 -290.471)"/><path d="m531.238 1000.884-.67 4.023s8 .91 14.9-1.533l-1.868-1.774z" fill="#1a1a1a" transform="translate(-56.092 -292.645)"/><path d="m678.068 859.358-1.66 6.769a10.558 10.558 0 0 0 7.919 4.47c5.237.255 6.514-2.554 6.514-2.554l1.916-8.685s-5.62-2.299-14.689 0z" fill="#b78569" transform="translate(-156.67 -194.338)"/><path d="m122.665 705.676s-9.995 3.676-13.06-5.073a24.229 24.229 0 0 1 -.83-14.305l-4.917-3.9s-7.229 11.432-3.7 24.523c3.321 11.878 13.391 16.616 18.584 15.518 11.171-2.358 3.923-16.763 3.923-16.763z" fill="#527fed" transform="translate(241.41 -73.005)"/><path d="m143.488 799.751a10.89 10.89 0 0 0 5.8.671c.246-.052.48-.112.708-.175-.45-1.851-1.219-4.774-1.219-4.774a8.369 8.369 0 0 1 -5.289 4.278z" fill="#1a1a1a" transform="translate(210.856 -150.984)"/><path d="m242.025 1133.658 3.065 14.177 18.392-.766-3.449-13.411z" fill="#da2032" transform="translate(142.901 -384.212)"/><path d="m260.867 1136.9-.833-3.238h-18.009s8.815 6.209 18.842 3.238z" fill="#1a1a1a" transform="translate(142.901 -384.212)"/><path d="m114.415 1131.407c-12.214-2.491-17.722.192-17.722.192l-1.693 10.952 17.754 1.4z" fill="#da2032" transform="translate(244.295 -381.929)"/><path d="m117.279 1131.407c-12.214-2.491-17.722.192-17.722.192l-.4 2.611a27.643 27.643 0 0 0 18.122-2.803z" fill="#1a1a1a" transform="translate(241.431 -381.929)"/><path d="m125 846.793-14.274 87.267s-12.293 4.95-21.075-.862l18.871-88.7s11.496-1.537 16.478 2.295z" fill="#f6c32c" transform="translate(247.985 -184.582)"/><path d="m184.1 888.07.351 24.14 2.906-17.339z" fill="#1a1a1a" transform="translate(182.848 -214.843)"/><path d="m196.564 846.086 24.336 86.789c-12.261 6.322-21.585.064-21.585.064l-19.222-79.955s3.448-9.963 9.579-10.346 6.892 3.448 6.892 3.448z" fill="#f6c32c" transform="translate(185.615 -183.493)"/><path d="m249.433 1151.667 1.916 9.579h27.588v-1.916l-11.112-8.33.766-6.227a3.016 3.016 0 0 0 -2.682 2.3c-.766 2.682-3.449 6.9-8.43 6.514a23.568 23.568 0 0 1 -8.046-1.92z" fill="#1a1a1a" transform="translate(137.792 -391.876)"/><path d="m89.829 1150.109-1.341 12.326h-27.688l-.064-2.044 10.633-6.77s-1.6-7.216-1.4-7.216a3.9 3.9 0 0 1 3.577 1.788c1.213 1.98 3.681 5.308 7.983 5.365a12.558 12.558 0 0 0 8.3-3.449z" fill="#1a1a1a" transform="translate(267.923 -393)"/><path d="m164.251 755.865s-6.9-1.149-8.813 2.3-4.981 25.289-4.981 25.289a55.888 55.888 0 0 0 25.672 2.682l-1.916-18.775s-1.2-9.579-4.263-10.729a42.067 42.067 0 0 0 -5.699-.767z" fill="#527fed" transform="translate(206.05 -123.542)"/><path d="m220.729 799.966-3.211-.892s-.415 7.794 4.381 12.356z" fill="#1a1a1a" transform="translate(159.808 -153.467)"/><path d="m206.748 758.654s1.341-.527 5.317 2.251 10.058 8.957 18.248 9.579a28.644 28.644 0 0 0 14.369-2.682l3.928 3.784s-10.537 9.531-23.421 9.531-16.716-7.52-16.716-7.52-4.215-7.232-3.544-10.872 1.819-4.071 1.819-4.071z" fill="#527fed" transform="translate(168.534 -125.565)"/><path d="m177.812 739.352s.764 4.246-.577 5.827 10.824.67 10.824.67-1.245-3.065.048-4.454c0 0-1.9.97-5.772.1a8.879 8.879 0 0 1 -4.523-2.143z" fill="#527fed" transform="translate(187.654 -112.28)"/><path d="m179.344 738.284a.371.371 0 0 1 .232-.459 3.487 3.487 0 0 1 1.626-.1c2.411.271 9.691 1.549 8.414 2.523s-4.806.607-6.306.16c-1.417-.42-3.472-1.096-3.966-2.124z" fill="#1a1a1a" transform="translate(186.146 -111.136)"/><path d="m185.384 726.558 1.41-5.684 6.883 1.479-1.028 5.628a7.384 7.384 0 0 1 -3.976.039c-2.693-.52-3.289-1.462-3.289-1.462z" fill="#ffc9af" transform="translate(181.963 -99.537)"/><path d="m187.093 707.288s-1.208-4.158.74-7.074 5.056-3.988 8.182-2.669c3.095 1.306 4.1 6.586 3.447 8.74s-2.96 3.386-6.359 2.789a27.67 27.67 0 0 1 -6.01-1.786z" fill="#ff6e5c" opacity=".4" transform="translate(181.04 -83.063)"/><path d="m187.157 707.218c-.92-1.522-.407-5.577.646-7 2.149-2.9 5.056-3.988 8.182-2.669 3.095 1.306 4.1 6.586 3.447 8.74s-2.619 3.082-6.069 2.9c-.974-.048-5.32-.504-6.206-1.971z" fill="#ffc9af" transform="translate(181.07 -83.067)"/><path d="m195.644 697.311c-3.126-1.32-6.309-.789-8.406 2.674-.917 1.515-1.614 5.02-.423 7a4.235 4.235 0 0 0 3.24 1.557 3.07 3.07 0 0 0 3.175-1.414 2.165 2.165 0 0 0 .093-1.969c-.305-.6-1.154-.167-.9-1.9.236-1.635 1.411-1.846 1.736-.964.373 1.014.559 2.224 2.525.073a4.652 4.652 0 0 0 1.2-2.988 4.985 4.985 0 0 0 -2.24-2.069z" fill="#1a1a1a" transform="translate(181.411 -82.83)"/><path d="m333.182 772.148s4.342-7.232 5.62-7.232-1.086 4.726-1.086 4.726 5.237-3.624 6.027-3.7a1.466 1.466 0 0 1 1.245.551s1.2-.527 1.652.263c0 0-6.035 7.089-9.531 9.172 0 0-2.131-.192-2.994-1.341a4.967 4.967 0 0 1 -.933-2.439z" fill="#ffc9af" transform="translate(80.035 -129.91)"/><path d="m360 770.009a48.317 48.317 0 0 1 -5.053 4.454" fill="none" stroke="#e77f76" stroke-linecap="round" stroke-linejoin="round" stroke-width="1.235" transform="translate(65.028 -133.423)"/><path d="m254.726 1193.46h27.588v-1.916l-.085-.064h-27.9z" fill="#f6c32c" transform="translate(134.415 -424.089)"/><path d="m60.841 1191.274-.1.064.064 2.044h27.683l.229-2.108z" fill="#f6c32c" transform="translate(267.923 -423.947)"/><g fill="none" stroke="#808080" stroke-linecap="round" stroke-linejoin="round" stroke-width="3.704" transform="translate(406.647 760.127)"><path d="m0 1.988 1.772-1.988"/><path d="m0 1.988 1.772-1.988" transform="translate(1.988 1.461)"/><path d="m0 1.988 1.772-1.988" transform="translate(4.023 2.874)"/></g><path d="m1.174 1.936-1.174-1.936" fill="none" stroke="#808080" stroke-linecap="round" stroke-linejoin="round" stroke-width="3.704" transform="translate(332.582 763.827)"/><path d="m1.147 2.004-1.147-2.004" fill="none" stroke="#808080" stroke-linecap="round" stroke-linejoin="round" stroke-width="3.704" transform="translate(334.573 762.37)"/><path d="m1.249 2.071-1.249-2.071" fill="none" stroke="#808080" stroke-linecap="round" stroke-linejoin="round" stroke-width="3.704" transform="translate(336.646 761.069)"/><path d="m0 0h103.456a0 0 0 0 1 0 0 18.9 18.9 0 0 1 -18.9 18.9h-65.656a18.9 18.9 0 0 1 -18.9-18.9 0 0 0 0 1 0 0z" fill="#e6e6e6" transform="translate(321 769.371)"/><path d="m553.734 713.885 1.788 4.917s23.245 1.469 29.121 2.235 7.919 4.343 6.769 9.707-4.6 28.227-4.6 28.227a19.232 19.232 0 0 0 -16.987.767l5.748-23.629-26.184.128-10.6 69.226s-14.48 1.181-19.334-3.7c0 0 15.886-74.974 14.481-79.061s19.798-8.817 19.798-8.817z" fill="#527fed" transform="translate(-48.429 -94.717)"/><path d="m584.183 719.952a15.288 15.288 0 0 0 3.28-2.491l-1.3-3.576s-9.271 2.067-15.145 4.648l-4.539 5.237v.265c1.112.348 7.375 1.865 17.704-4.083z" fill="#1a1a1a" transform="translate(-80.858 -94.717)"/><path d="m543.092 647.059c0 .29 2.888 13.338 4.283 18.1a4.548 4.548 0 0 1 .049 2.336 6.45 6.45 0 0 0 -.054 3.574c.7 1.66 2.3 1.852 6.195 1.277s15.071-5.237 17.115-8.238-1.149-4.215-2.3-4.917-9.068-17.817-9.068-17.817-3.832-3.257-11.048-1.213-5.172 6.898-5.172 6.898z" fill="#da2032" transform="translate(-64.545 -43.409)"/><path d="m555.11 694.388s-1.744 1.828-2.5 2.792c.428 1.766.845 3.425 1.2 4.737 2.498-3.217 1.3-7.529 1.3-7.529z" fill="#1a1a1a" transform="translate(-71.295 -81.271)"/><path d="m585.908 588.334c.3-.038 7.352-1.467 13.219-9.388 5.747-7.759 3.927-19.159-1.341-25-4.264-4.729-12.357-6.322-12.357-6.322l-1.629 4.6s9.867 2.3 8.813 11.112-15.9 13.219-15.9 13.219 4.693 12.354 9.195 11.779z" fill="#da2032" transform="translate(-87.915 19.946)"/><path d="m482.7 646.392a55.548 55.548 0 0 1 -8.717 20.116c-7.791 10.684-15.9 11.591-18.68 12.07 0 0-.192 6.035.191 5.939s9.962 1.437 21.362-6.9a31.939 31.939 0 0 0 12.74-20.4z" fill="#da2032" transform="translate(-4.153 -48.171)"/><path d="m512.961 606.935c-.048.191.144 5.077 3.065 7.424s4.982-1.2 4.982-1.2-.287-6.322-2.73-6.562a21.387 21.387 0 0 0 -5.317.338z" fill="#b78569" transform="translate(-43.946 -20.688)"/><path d="m520.5 1020.4-1.405 8.813h-25.412l11.3-9.036s2.491 5.971 7.472 5.4 8.045-5.177 8.045-5.177z" fill="#da2032" transform="translate(-30.654 -305.949)"/><path d="m0 0h25.417v1.533h-25.417z" fill="#f6c32c" transform="translate(463.029 723.263)"/><path d="m669.189 877.692-3.892 6.637 25.8 5.364-7.552-10.122a9.1 9.1 0 0 1 -7.9 2.714 7.637 7.637 0 0 1 -6.456-4.593z" fill="#da2032" transform="translate(-149.007 -207.686)"/><path d="m664.019 899.079-.575 2.044 25.992 5.237.383-1.916z" fill="#f6c32c" transform="translate(-147.73 -222.435)"/><path d="m510.927 588.647c1.111-2.948 4.79-4.79 8.717-2.778s6.323 5.46 11.208 5.173 13.7-.383 14.56 6.227-4.406 13.411-12.644 16.668-13.219-3.257-14.178-6.226.479-9.867-2.682-12.357c0 0 .814-2.251-.623-2.491s-1.1 1.532-1.1 1.532-5.605.479-3.258-5.748z" fill="#1a1a1a" transform="translate(-42.15 -5.849)"/><path d="m432.065 750.1a31.343 31.343 0 0 1 -5.492.478c-1.52-.006-5.013-.19-5.013.224 0 .289.032.958 1.373 1.277 0 0-.9-.156-1.022.511-.1.511 1.533.83 1.533.83s-.8.064-.224.766 4.56 2.4 9.036 1.852c2.619-.317-.191-5.938-.191-5.938z" fill="#b78569" transform="translate(19.085 -119.693)"/><path d="m425.985 756.479a25.191 25.191 0 0 0 5.524.447" fill="none" stroke="#92684f" stroke-linecap="round" stroke-linejoin="round" stroke-width="1.235" transform="translate(16.033 -124.092)"/><path d="m427.631 760.8a34.728 34.728 0 0 0 5.077.926" fill="none" stroke="#92684f" stroke-linecap="round" stroke-linejoin="round" stroke-width="1.235" transform="translate(14.898 -127.073)"/><path d="m441.511 742.686s-4.886-3.145-6.179-3.337c0 0-.33.2.383 1.341.575 1.006 3.927 2.874 3.927 2.874z" fill="#b78569" transform="translate(9.64 -112.278)"/><path d="m615.911 780.157.479-2.586 15.487 2.459z" fill="#1a1a1a" transform="translate(-114.949 -138.638)"/><path d="m0 0h49.136a0 0 0 0 1 0 0 17.115 17.115 0 0 1 -17.115 17.115h-14.906a17.115 17.115 0 0 1 -17.115-17.115 0 0 0 0 1 0 0z" fill="#e6e6e6" transform="translate(443.525 724.668)"/><path d="m646.006 931.179a20.812 20.812 0 0 0 41.606 0z" fill="#e6e6e6" transform="translate(-135.703 -244.573)"/><path d="m904.285 405.372-2.685-3.162s1.437-2.395-.192-3.832-4.023-2.012-6.227-4.981c0 0 2.97-6.418 1.916-12.741s-1.692-4.055-2.267-7.887-1.405-7.28-3.257-9.2-4.47-5.237-4.279-6.833-.767-3.64-1.98-3.576-6.067 3.576-4.662 5.364 3.129 2.3 2.937 6.067 2.427 8.621 2.107 11.942-2.714 5.939-2.363 9.068c.052.461-1.852-.128-1.852-.128 1.245 3.129-6.131 5.907-6.131 5.907s-1.469 2.523-.83 4.247c0 0-.127.7-2.3.575s-6.386-1.661-10.665 0a17.566 17.566 0 0 0 -10.793-4.662s-4.447-5.016-7.121-4.79c-3.209.272-5.336 2.69-4.374 5.237.638 1.692 2.523 2.075 4.566 3.8s3.417 4.886 7.312 6.673 8.685 2.044 11.176 3.64a15.594 15.594 0 0 0 16.8.447 7.145 7.145 0 0 1 1.788 4.854 4.825 4.825 0 0 0 4.47 4.918l2.621 3.198s6.77-9.26 16.285-14.145z" fill="#f6c32c" transform="translate(-268.83 154.053)"/><path d="m945.546 451.817c-.163-.23-.01-.73.11-.991a6.724 6.724 0 0 1 2.478-2.514c1.646-1.1 3.6-2.412 5.937-2.322a.362.362 0 0 1 .343.387c-.051.762-.494 2.592-3.358 4.281-2.705 1.597-5.156 1.653-5.51 1.159z" fill="#1a1a1a" transform="translate(-342.232 90.039)"/><path d="m953.21 445.222-3.161-3.161-4.646 2.826 2.227 3.9s3.928-.595 5.58-3.565z" fill="#ffc9af" transform="translate(-342.182 92.745)"/><path d="m935.355 432.723s-5.556 1.2-5.7-5.173 6.37-3.544 6.37-3.544 6.323 2.906 3.928 6.131c-1.245 1.676-4.598 2.586-4.598 2.586z" fill="#ffc9af" transform="translate(-331.32 105.628)"/><path d="m928.519 421.044a1.287 1.287 0 0 1 -1.305.551c-.678-.2-1.113-.838-.862-2.108 0 0-3.3 1.724-3.5-1.676s3.449-5.987 7.089-5.508 6.338 2.874 6.658 6.131a4.549 4.549 0 0 1 -3.975 5.316 2.371 2.371 0 0 1 -1.971-.315 1.475 1.475 0 0 1 -.566-1.258 1.515 1.515 0 0 0 -.624-1.5c-.549-.256-.777.111-.944.367z" fill="#55353a" transform="translate(-326.626 113.308)"/><path d="m947.925 400.96c-1.041 2.455-4.458 4.7-6.914 3.656s-3.02-4.969-1.979-7.424a4.829 4.829 0 0 1 8.893 3.768z" fill="#55353a" transform="translate(-337.445 125.721)"/><path d="m1221.18 532.806a16.269 16.269 0 0 0 3.065 9.723c3.3 4.167 5.843 5.029 5.843 5.029s.527-2.73-3.736-9a23.019 23.019 0 0 0 -5.172-5.752z" fill="#1a1a1a" transform="translate(-532.367 30.163)"/><path d="m1225.178 533.383 6.706-3.975s5.413-.144 7.041 2.2a6.888 6.888 0 0 1 .958 5.412c-.144.048-8.813 5.269-8.813 5.269a9.4 9.4 0 0 1 -4.262-4.215c-1.87-3.35-1.63-4.691-1.63-4.691z" fill="#ffc9af" transform="translate(-535.12 32.509)"/><path d="m1246.806 519.513 3.114-4.455 16.045 12.645-11.16-.575a12.287 12.287 0 0 0 -2.874-4.933c-1.644-1.75-5.125-2.682-5.125-2.682z" fill="#1a1a1a" transform="translate(-550.043 42.403)"/><path d="m1256.838 512.185 1.006-1.293 16.093 12.884-1.053 1.054z" fill="#808080" transform="translate(-556.961 45.277)"/><path d="m1227.938 645.157s-2.419 2.923-2.634 9.675c-.24 7.519 1.485 10.154 1.485 10.154s1.427-1.2 1.772-10.01c.287-7.328-.623-9.819-.623-9.819z" fill="#1a1a1a" transform="translate(-535.198 -47.319)"/><path d="m1229.129 659.51 7.855.67s7.041.91 8.909 4.838.814 5.556.814 5.556l-17.77-.335s-.889-.809-.814-5.891a10.279 10.279 0 0 1 1.006-4.838z" fill="#ffc9af" transform="translate(-537.155 -57.218)"/><path d="m1254.523 653.475 6.274-3.688 13.938 14.513-10.968-.527a6.508 6.508 0 0 0 -2.682-6.562 21.141 21.141 0 0 0 -6.562-3.736z" fill="#1a1a1a" transform="translate(-555.365 -50.512)"/><path d="m1274.74 647.765 1.628-.91 13.363 14.465-1.054.958z" fill="#808080" transform="translate(-569.308 -48.49)"/><path d="m1005.633 512.493.037-.007-1.091-1.286s-8.174 3.385-16.221 14.113c0 0 11.242-11.67 17.275-12.82z" fill="#1a1a1a" transform="translate(-371.805 45.064)"/><path d="m1017.07 472.444-1.293-1.533a7.748 7.748 0 0 0 2.794-3.129 19.883 19.883 0 0 1 -1.501 4.662z" fill="#1a1a1a" transform="translate(-390.715 75.007)"/><path d="m939.178 522.255c.057.017.149.042.267.074a14.968 14.968 0 0 0 8.737-2.245 16.9 16.9 0 0 1 -1.214-2.3 11.527 11.527 0 0 1 -7.79 4.471z" fill="#1a1a1a" transform="translate(-337.888 40.523)"/><path d="m882.987 648.965c.005-.126.01-.252.01-.379a9.2 9.2 0 0 0 -9.2-9.2c-.085 0-.17 0-.255.006v9.577z" fill="#f6c32c" transform="translate(-292.619 -43.336)"/><path d="m844.733 670.261a9.2 9.2 0 0 0 18.389 0z" fill="#d6d6d6" transform="translate(-272.755 -64.632)"/><path d="m853.779 639.392a9.2 9.2 0 0 0 0 18.4z" fill="#d6d6d6" transform="translate(-272.733 -43.343)"/><path d="m844.722 669.85a9.2 9.2 0 0 0 9.071 8.949v-8.949z" fill="#527fed" transform="translate(-272.747 -64.349)"/><circle cx="2.554" cy="2.554" fill="#f6c32c" r="2.554" transform="translate(522.037 502.684)"/><circle cx="2.554" cy="2.554" fill="#527fed" r="2.554" transform="translate(517.223 491.5)"/><circle cx="2.554" cy="2.554" fill="#527fed" r="2.554" transform="translate(530.634 513.085)"/><circle cx="3.257" cy="3.257" fill="#f6c32c" r="3.257" transform="translate(595.592 619.204)"/><rect fill="#d6d6d6" height="4.215" rx="2.107" transform="translate(610.42 625.81)" width="20.82"/><rect fill="#d6d6d6" height="4.215" rx="2.107" transform="translate(618.117 631.844)" width="13.124"/><path d="m0 0h11.495v11.495h-11.495z" fill="#f6c32c" transform="matrix(.925 .381 -.381 .925 361.085 506.078)"/><g transform="translate(646.197 525.181)"><path d="m1094.5 420.9 9.013 1.406a1.764 1.764 0 0 1 1.409 2.276l-2.8 8.82" fill="none" stroke="#f0f0f0" stroke-linecap="round" stroke-linejoin="round" stroke-width="2.276" transform="translate(-1091.206 -417.843)"/><circle cx="3.065" cy="3.065" fill="#f0f0f0" r="3.065" transform="translate(7.857 12.496)"/><circle cx="3.065" cy="3.065" fill="#527fed" r="3.065"/></g><circle cx="5.46" cy="5.46" fill="#fff" r="5.46" transform="translate(448.698 654.963)"/><circle cx="2.905" cy="2.905" fill="#527fed" r="2.905" transform="translate(411.915 718.696)"/><path d="m0 0h9.77v9.77h-9.77z" fill="#f6c32c" transform="matrix(.45045687 .89279819 -.89279819 .45045687 524.136 726.276)"/><path d="m0 0 7.612 28.057" fill="none" stroke="#e54c1d" stroke-linecap="round" stroke-linejoin="round" stroke-width="2.276" transform="translate(393.854 720.559)"/><path d="m0 0 10.999 40.54" fill="none" stroke="#e54c1d" stroke-linecap="round" stroke-linejoin="round" stroke-width="2.276" transform="translate(381.541 675.175)"/><path d="m945.728 823.355-5.109 25.034 23.246 15.582 5.109-25.289z" fill="#e6e6e6" transform="translate(-338.883 -170.213)"/><ellipse cx="3.449" cy="2.299" fill="#f0f0f0" rx="3.449" ry="2.299" transform="matrix(.1190625 -.99288676 .99288676 .1190625 612.805 675.994)"/><path d="m1015.877 926.945-4.286-6.349a2.239 2.239 0 0 0 -.351 2.532 15.656 15.656 0 0 0 1.637 3.252s1.87 2.269 3.073 2.1-.073-1.535-.073-1.535z" fill="#ffc9af" transform="translate(-387.449 -237.275)"/><path d="m1002.474 932.084s-5.772-2.882-6.171-2.333.674 1.8.674 1.8a1.151 1.151 0 0 0 -.517 1.393c.224 1.07 6.074 5.548 8.872 6s.326-4.966.326-4.966z" fill="#ffc9af" transform="translate(-377.224 -243.541)"/><path d="m0 0 4.581 2.476" fill="none" stroke="#e77f76" stroke-linecap="round" stroke-linejoin="round" stroke-width="1.235" transform="translate(619.753 688.009)"/><path d="m1038.821 982.092c-.256 22.99-15.221 39.593-40.275 39.593s-45.173-13.262-45.173-38.316 31.8-41.508 56.8-43.14c16.127-1.052 28.935 16.016 28.648 41.863z" fill="#f6c32c" transform="translate(-347.678 -250.783)"/><path d="m1047.352 938.424s12.389 27.8-9.452 47.7c-18.776 17.115-47.9 7.28-47.9 7.28l22.8-31.037 23.948-28.929z" fill="#1a1a1a" transform="translate(-372.941 -246.135)"/><path d="m943.242 968.887s1.277-4.214-22.607-19.031-28.865-18.648-32.953-16.349-36.782 31.393-36.782 31.393 8.557 4.63 13.666 17.147c0 0 26.311-27.333 27.716-26.055s33.974 27.971 41.255 26.183a12.3 12.3 0 0 0 9.705-13.288z" fill="#da2032" transform="translate(-277.007 -245.754)"/><path d="m1012.466 1018.3c-.958-.192-28.228-10.985-28.228-10.985l23.63 18.457z" fill="#1a1a1a" transform="translate(-368.964 -297.079)"/><path d="m850.158 1035.858c-1.479.771 2.275 5.987 5.173 9.548 6.995 8.594 8.278 7.965 8.494 7.6 1.086-1.844-.926-6.514-6.386-11.783-4.848-4.678-6.547-5.748-7.281-5.365z" fill="#1a1a1a" transform="translate(-276.267 -316.716)"/><path d="m856.828 1061.971-6.322 5.668s-6.514-2.682-8.717-6.227a12.925 12.925 0 0 1 -2.012-6.9l6.514-5.844c5.747 2.941 10.309 8.561 10.537 13.303z" fill="#ffc9af" transform="translate(-269.334 -325.602)"/><path d="m831.868 1071.342s-7.089.479-9.2-3.64a23.525 23.525 0 0 1 -2.2-9l-12.166-.767 16.956 19.446z" fill="#0e004b" transform="translate(-247.631 -331.988)"/><path d="m804.9 1057.931-1.533 1.341 16.764 19.542 1.724-1.437z" fill="#a29dce" transform="translate(-244.226 -331.988)"/><path d="m982.911 1030.606s-30.909 8.685-38.828 14.944-4.087 21.713 7.28 43.809c0 0 9.2-9.324 19.414-7.28 0 0-10.09-22.479-9.2-22.99s27.716-6.258 34.613-10.09 1.41-20.947-13.279-18.393z" fill="#da2032" transform="translate(-338.389 -312.965)"/><path d="m972.715 1260.694.894 1.98 25.545-11.08-.894-1.884z" fill="#a29dce" transform="translate(-361.017 -464.247)"/><path d="m996.239 1196.148s.415 1.9-8.637 5.4c-9.1 3.515-10.724 2.733-10.777 1.884-.128-2.044 5.6-5.141 8.861-6.386 3.24-1.246 7.935-1.697 10.553-.898z" fill="#1a1a1a" transform="translate(-363.851 -427.033)"/><path d="m976.83 1206.116 3.576 7.28a11.9 11.9 0 0 0 10.346.255 10.762 10.762 0 0 0 6.259-7.408l-2.81-6.578a25.9 25.9 0 0 0 -17.371 6.451z" fill="#ffc9af" transform="translate(-363.855 -429.722)"/><path d="m993.534 1217.2 4.726 10.09-25.545 10.984 4.853-12.772s9.963 3.574 15.966-8.302z" fill="#0e004b" transform="translate(-361.017 -441.825)"/><path d="m1094.532 831.385s-7.663-3.959-12.389-16.349c-3.953-10.362-2.682-17.881-2.682-17.881s-3.959 1.4-6-1.788a49.1 49.1 0 0 0 1.788 27.333c5.492 14.816 11.878 17.626 11.878 17.626z" fill="#527fed" transform="translate(-429.702 -150.911)"/><path d="m1101.486 912.38c1.916 1.15 3.672 4.055 3.161 10.7s-5.172 14.848-5.907 21.489c-.545 4.93.958 9.835-2.108 9.963s-14.048-4.853-19.03-11.75c-2.375-3.289-4.472-10.858-4.472-10.858s13.283-23.373 21.2-24.523 7.156 4.979 7.156 4.979z" fill="#527fed" transform="translate(-430.269 -228.074)"/><path d="m1080.539 971.642s4.965 4.263 14.369 3.3c10.346-1.053 9.771-7.967 9.771-7.967z" fill="#1a1a1a" transform="translate(-435.378 -269.263)"/><path d="m1062.673 941.181c-.383.128-4.215 6.514-19.925 4.47s-18.392-4.6-18.392-4.6l-1.022 4.47s12.134 9.963 27.205 10.09 14.433-2.427 14.944-6.386-2.81-8.044-2.81-8.044z" fill="#527fed" transform="translate(-395.927 -251.383)"/><path d="m1095.046 948.7s8.909 1.054 15.518-3.736" fill="none" stroke="#1a1a1a" stroke-linecap="round" stroke-linejoin="round" stroke-width="1.235" transform="translate(-445.383 -254.079)"/><path d="m1147.678 883.643c-.287.191-6.578 7.472-6.578 7.472s-.894 3.513 1.6 4.758a8.22 8.22 0 0 0 5.556.223l2.682-10.282z" fill="#ffc9af" transform="translate(-477.036 -211.79)"/><path d="m1146.236 855.856a7.7 7.7 0 0 0 -3.065 7.983c.958 5.428 5.652.319 5.652.319s4.343-5.875 2.139-7.152a9.569 9.569 0 0 0 -4.726-1.15z" fill="#ffc9af" transform="translate(-478.468 -192.625)"/><path d="m1139.771 841.61a4.624 4.624 0 0 1 -1.979-4.151c.458-3.375 4.917-4.023 7.217-1.788 0 0 4.6-1.4 5.045 4.151a4.354 4.354 0 0 1 1.149 5.875s.383 6.514-3.9 7.089c0 0-1.341.192-2.618-2.235a3.98 3.98 0 0 1 -2.4 3.928c-2.171.894-4.917.383-5.588-1.724-.632-1.987 2.044-3.736 2.044-3.736s4.374 1.788 5.652-.638c1.45-2.755.746-4.677-.287-5.492-1.206-.96-3.122-.449-4.335-1.279z" fill="#e54c1d" transform="translate(-474.046 -177.804)"/><ellipse cx="1.628" cy="1.302" fill="#ffc9af" rx="1.628" ry="1.302" transform="matrix(.78716112 -.61674741 .61674741 .78716112 669.036 668.281)"/><path d="m1076.012 772.039s1.469-8.747 1.98-9.2a.98.98 0 0 1 1.149-.215s.223-1.046 1.054-1.078.8 1.429.8 1.429a.9.9 0 0 1 .99-.032c.543.319.351 5.811.351 5.811s1.916-3.672 3.608-2.682c0 0-3.672 7.5-3.927 7.76a4.163 4.163 0 0 1 -3.385.575 4.556 4.556 0 0 1 -2.62-2.368z" fill="#ffc9af" transform="translate(-432.256 -127.583)"/><path d="m1083.913 765.321c0-.1-.982 4.527-.982 4.527" fill="none" stroke="#e77f76" stroke-linecap="round" stroke-linejoin="round" stroke-width="1.235" transform="translate(-437.028 -130.189)"/><path d="m.942 0-.942 4.391" fill="none" stroke="#e77f76" stroke-linecap="round" stroke-linejoin="round" stroke-width="1.235" transform="translate(647.795 635.388)"/><path d="m1080.23 782.884a8.946 8.946 0 0 1 4.024.287" fill="none" stroke="#e77f76" stroke-linecap="round" stroke-linejoin="round" stroke-width="1.235" transform="translate(-435.165 -142.228)"/><path d="m.255 0-.255 1.692" fill="none" stroke="#e77f76" stroke-linecap="round" stroke-linejoin="round" stroke-width="1.235" transform="translate(649.823 641.167)"/><path d="m1110.17 916.155s4.215-5.684 8.877-7.408" fill="none" stroke="#1a1a1a" stroke-linecap="round" stroke-linejoin="round" stroke-width="1.235" transform="translate(-455.813 -229.103)"/><circle cx="4.31" cy="4.31" fill="#f4f4f4" r="4.31" transform="translate(565.942 768.184)"/><path d="m0 17.243 18.201-17.243" fill="none" stroke="#b50d25" stroke-linecap="round" stroke-linejoin="round" stroke-width="2.276" transform="translate(586.792 709.149)"/><path d="m959.138 986.259 4.277-3.921a4.574 4.574 0 0 1 5.594-.456l22.507 14.718" fill="none" stroke="#b50d25" stroke-linecap="round" stroke-linejoin="round" stroke-width="2.276" transform="translate(-351.654 -279.026)"/><path d="m9.579 0-9.579 53.261" fill="none" stroke="#e54c1d" stroke-linecap="round" stroke-linejoin="round" stroke-width="2.276" transform="translate(353.825 692.098)"/><path d="m473.815 313.126s7.754 2.082 12.964 12.147 5.507 22.02 5.278 22.358-.97-.116-.97-.116.028 1.984-.535 2.156-1.286-1.693-1.286-1.693.077 2.62-.75 2.685-1.348-7.389-1.882-6.835-.194 2.834-2.4 3.327c-.1-.44 1.352-7.665 1.352-7.665s-1.882-13.369-14.7-15.95c-.001.001-3.886-7.893 2.929-10.414z" fill="#b78569" transform="translate(-14.17 181.665)"/><path d="m474.9 313.126c-.093.034-.176.073-.265.11-.6 1.556-2.265 5.879-3.279 8.674a11.687 11.687 0 0 0 .613 1.632c.148.03.287.068.432.1.823-.437 3.989-2.505 5.627-9.1a14.544 14.544 0 0 0 -3.128-1.416z" fill="#1a1a1a" transform="translate(-15.26 181.665)"/><path d="m401.764 418.192a23.162 23.162 0 0 0 8.122 7.386 22.191 22.191 0 0 0 11.793 2.726c4.063-.271 6.4-.5 6.436-.025s-2.551 1.161-2.551 1.161 2.883.014 2.94.73-3.176 1.162-3.176 1.162 2.112-.021 1.962.519-2.812 1.518-8.821 1.461-20.344-2.728-27.2-12.279c-4.755-6.633 10.495-2.841 10.495-2.841z" fill="#b78569" transform="translate(40.607 109.952)"/><path d="m391.653 423.433a21.722 21.722 0 0 0 2.393 2.784c6.132-1.174 8.4-5.179 8.4-5.179l-.259-.386-.038-.06-11.249 1.508a5.941 5.941 0 0 0 .753 1.333z" fill="#1a1a1a" transform="translate(40.227 107.552)"/><path d="m294.813 212.336 6.632-6.093-19.258-25.009 14.5-1.33s-6.487-4.3-3.974-13.909c0 0-26.874.379-30.346 7.57-3.447 7.142 10.233 25.135 32.446 38.771z" fill="#da2032" transform="translate(129.237 283.133)"/><path d="m302.139 216.324s-13.575-14.933-11.878-19.925c1.086-3.193 10.473-3.321 10.473-3.321" fill="none" stroke="#b50d25" stroke-linecap="round" stroke-linejoin="round" stroke-width="2.276" transform="translate(109.737 264.456)"/><path d="m0 .575 6.131-.575" fill="none" stroke="#b50d25" stroke-linecap="round" stroke-linejoin="round" stroke-width="2.276" transform="translate(412.898 456.64)"/><path d="m275.613 233.712c.286-.023 22.8 13.873 22.8 13.873-6.978.868-5.784 3.432-5.784 3.432z" fill="#1a1a1a" transform="translate(119.737 236.433)"/><path d="m221.006 231.858-54.106-40.531s7.348.576 14.209-9.955l49.7 40.749z" fill="#da2032" transform="translate(194.711 272.529)"/><path d="m166.9 191.327s.042-1.515 6.011-5.853a24.447 24.447 0 0 1 8.2-4.1 18.248 18.248 0 0 1 -6.606 7.245c-4.993 3.336-7.605 2.708-7.605 2.708z" fill="#1a1a1a" transform="translate(194.711 272.529)"/><path d="m139.27 185.8-12.434-11.516s12.767-1.386 14.641-.764a11.819 11.819 0 0 1 3.751 2.492l3.62 3.271s-1.024 2.87-9.578 6.517z" fill="#b78569" transform="translate(222.341 278.053)"/><path d="m123.772 171.548s2.178-2.861 8.319-3.375a12.01 12.01 0 0 1 6.026 1.289l1.162-5.6c-.58-.051-22.754 1.049-22.754 1.049z" fill="#1a1a1a" transform="translate(229.452 284.606)"/><path d="m116.372 161.513-.069-1.692 22.735-.887.088 1.531z" fill="#f6c32c" transform="translate(229.605 288.003)"/><path d="m359.589 165.995a13.379 13.379 0 0 1 3.223 6.377 22.6 22.6 0 0 1 .751 7.532s-3.255-1.474-4.35-6.449.376-7.46.376-7.46z" fill="#1a1a1a" transform="translate(62.362 283.133)"/><path d="m366.707 187.113 13.065-1.265s-4.315-6-6.068-6.923a66.9 66.9 0 0 0 -6.392-2.477l-3.926.788a15.155 15.155 0 0 0 3.321 9.877z" fill="#b78569" transform="translate(59.218 275.925)"/><path d="m375 168.287 2.591-3.711 18.67 12.612-14.38 1.032s.787-4.049-1.564-6.459a16.224 16.224 0 0 0 -5.317-3.474z" fill="#1a1a1a" transform="translate(51.195 284.112)"/><path d="m383.35 161.087 1.03-1.57 18.49 12.77-.85 1.412z" fill="#f6c32c" transform="translate(45.437 287.601)"/><path d="m362.157 300.85s-3.9-4.4-6.363-5.17c0 0-3.93.116-10.254 6.473s-4.711 8.537-4.711 8.537 7.071 6.844 9.232 7.443c0 0-3.213 8.035 3.191 21.081 0 0 9.645-.757 14.231-4.768 0 0-9.142-11.2-3.5-17.694s17.845-5.244 17.845-5.244a17.121 17.121 0 0 0 5.286-12.234s-9.056-6.398-24.957 1.576z" fill="#527fed" transform="translate(74.889 193.697)"/><path d="m480.969 448.413 5.958-2.437a.981.981 0 0 1 -.42 1.378c-.918.552-2.72 1.462-2.72 1.462s-2.68.74-2.818-.403z" fill="#b78569" transform="translate(-21.886 90.045)"/><circle cx="6.322" cy="6.322" fill="#b78569" r="6.322" transform="translate(445.7 510.11)"/><path d="m422.129 345.865s-2.3-6.755-10.831-9.132a48.862 48.862 0 0 0 -10.946-1.991 4.53 4.53 0 0 0 -1.613 3.979 3.331 3.331 0 0 1 -.786 2.038 2.808 2.808 0 0 0 -.405.777c-.36 1.192.567 2.338 1.09 3.468a5.652 5.652 0 0 1 .347 3.721 19.461 19.461 0 0 0 -.863 2.939 3.61 3.61 0 0 0 .7 2.422 5.392 5.392 0 0 0 1.018 1s12.183-7.81 16.2-7.228l-2.081 2.661s6.956 3.118 8.4 1.877c1.58-1.366 1.889-5.471-.23-6.531z" fill="#1a1a1a" transform="translate(35.702 166.769)"/><ellipse cx="1.783" cy="1.265" fill="#b78569" rx="1.783" ry="1.265" transform="matrix(.29360657 -.95592635 .95592635 .29360657 447.034 516.422)"/><g fill="none" stroke-linecap="round" stroke-linejoin="round"><path d="m537.465 413.929s-.1-2.3-.424-4.387" stroke="#92684f" stroke-width="1.235" transform="translate(-60.556 115.172)"/><path d="m531.228 415.708s-.282-2.78-.6-4.373" stroke="#92684f" stroke-width="1.235" transform="translate(-56.134 113.936)"/><path d="m497.407 456.836a22.743 22.743 0 0 1 -2.88.242" stroke="#92684f" stroke-width="1.235" transform="translate(-31.236 82.556)"/><path d="m497.139 462.933a22.171 22.171 0 0 1 -2.658.208" stroke="#92684f" stroke-width="1.235" transform="translate(-31.204 78.351)"/><path d="m989.412 478.349s2.119 8.712-.942 13.421" stroke="#e54c1d" stroke-width="2.276" transform="translate(-371.882 67.72)"/><path d="m1002.885 500.076a10.418 10.418 0 0 1 6.475-2.855" stroke="#e54c1d" stroke-width="2.276" transform="translate(-381.824 54.705)"/></g><circle cx="3.708" cy="3.708" fill="#f0f0f0" r="3.708" transform="translate(597.515 470.252)"/><circle cx="3.708" cy="3.708" fill="#fff" r="3.708" transform="translate(587.626 470.252)"/><circle cx="3.708" cy="3.708" fill="#d8d8d8" r="3.708" transform="translate(577.737 470.252)"/></g></g></svg>