<svg xmlns="http://www.w3.org/2000/svg" xmlns:xlink="http://www.w3.org/1999/xlink" width="530" height="200" viewBox="0 0 530 200"><defs><clipPath id="a"><path d="M10,0H520a10,10,0,0,1,10,10V200a0,0,0,0,1,0,0H0a0,0,0,0,1,0,0V10A10,10,0,0,1,10,0Z" transform="translate(321 460)" fill="#dbdbdb"/></clipPath><linearGradient id="b" x1="0.059" y1="-0.4" x2="0.958" y2="1.4" gradientUnits="objectBoundingBox"><stop offset="0" stop-color="#00ebe5"/><stop offset="1" stop-color="#37eb77"/></linearGradient></defs><g transform="translate(-321 -460)" clip-path="url(#a)"><rect width="530" height="200" transform="translate(321 460)" fill="url(#b)"/><g transform="translate(84.998 -1486.137)"><path d="M458.1,2241.5a5.119,5.119,0,0,0-1.781,3.405c-.118.75-.8.853-1.318.985a2.2,2.2,0,0,0-1.218.5.854.854,0,0,1-.81.066,12.23,12.23,0,0,1-1.872-1.168,26.838,26.838,0,0,1-4.916-6.256,57.105,57.105,0,0,1-4-7.077c-.339-.777-.353-.771.5-1.375.694,1.319,1.34,2.658,2.089,3.938.594,1.014,1.312,1.956,2.035,3.017a.983.983,0,0,0-.1-1.082,40.648,40.648,0,0,1-3.888-6.637l.59-.386.339.293v-.866l1.586-.315c.473.221.7,1.058,1.476,1.162-.025.847.715,1.268,1.087,1.887a19.969,19.969,0,0,0,1.529,2c.5-.067.873-.136,1.251-.163,1.324-.094,1.292-.052,2.117.676.916.808,1.544,1.938,2.725,2.452a.323.323,0,0,1,.165.229c.037.85.514,1.159,1.312,1.366.67.173.86.88.892,1.575C457.917,2240.26,458.015,2240.789,458.1,2241.5Z" transform="translate(-99.233 -75.276)" fill="#c3fc33"/><path d="M263.271,2078.133c.948.474.948.474,1.458-.519.649-.222,1.432.225,2.019-.37a19.054,19.054,0,0,0,1.98.481c1.081.148,1.639.984,2.25,1.689.414.478.848.958,1.227,1.477.442.607.972,1.15,1.417,1.757.4.549.747,1.142,1.105,1.724a1.015,1.015,0,0,1,.212.528,1.258,1.258,0,0,0,.439,1.079c.617.623.57,1.537.783,2.313a6.887,6.887,0,0,1,.021,2.325c-.025.3-.064.927-.714.461-.046-.033-.273.21-.43.3s-.448.28-.505.229c-.687-.6-.855-.172-1.169.424-.462.877-.744.813-1.984.591-.755-.135-1.555-.159-2-.813-1.2-1.771-2.419-3.53-2.585-5.794a3.536,3.536,0,0,0-1.068-2.507c-.645-.562-1.073-1.366-1.953-1.679-.265-.095-.46-.411-.666-.644a2.587,2.587,0,0,1-.685-1.751C262.414,2078.708,262.988,2078.545,263.271,2078.133Z" transform="translate(-22.596 -10.695)" fill="#c3fc33"/><path d="M435.362,2171.292c-.774-.774-1.423-1.531-2.18-2.16-2.172-1.8-3.2-4.351-4.5-6.724a6.518,6.518,0,0,1-.391-3.415c0-.2.281-.394.442-.6l.73,1.444V2157.7a5.38,5.38,0,0,0,1.209-.627,1.162,1.162,0,0,1,1.157-.19,4.6,4.6,0,0,1,1.161.7,4.233,4.233,0,0,0,.748,3.035c.488-.132,1.066.215,1.555-.287a.629.629,0,0,1,.591-.026c1.2.722,2.671,1.1,3.277,2.586.109.266.23.612.449.73.33.179.033.738.6.759.467.018.169.493.252.752a7.055,7.055,0,0,1,.3.964,5.676,5.676,0,0,1,.011.933,9.524,9.524,0,0,0-2.563,3.8Z" transform="translate(-93.376 -44.659)" fill="#c3fc33"/><path d="M211.809,2053.76c.285-.388.507-.712.753-1.016a1.2,1.2,0,0,1,.357-.261c.367-.206.63.375,1.041.122a2.626,2.626,0,0,1,1.067-.412c.3-.029.757.339.921.221.366-.263.583-.343.9.013.058.066.275.016.41-.016,1-.241.995-.244,1.528.725l.25-.722a8.121,8.121,0,0,1,.378,1.051,7.818,7.818,0,0,1,.117,1.2,2.6,2.6,0,0,0,.231,1.224l.151-1.5.161-.007a7.834,7.834,0,0,1,.083.8c.009,1.352-.056,2.707.022,4.054a5.008,5.008,0,0,1-.807,3.246c-.252-.241-.49-.605-.777-.023-.313.636-.815.588-1.464.3-.108.691-.156,1.507-1.3,1.247v-1.733l-.23-.046-.55,1.789c-.512-.343-.931-.708-.848-1.428.023-.2-.213-.423-.289-.65-.33-.982-.324-.985-1.141-1.008-.155,0-.312,0-.468,0h-.428c-.4-.4-.752-.776-1.133-1.128a4.268,4.268,0,0,1-1.2-2.776c-.065-.512.046-1.046-.027-1.556a1.953,1.953,0,0,1,.465-1.372C210.492,2053.3,210.77,2053.278,211.809,2053.76Z" transform="translate(-0.006)" fill="#c3fc33"/><path d="M363.732,2070.516c-.667.453-1.308.906-1.977,1.315-.065.04-.3-.2-.549-.371a5.768,5.768,0,0,1-.421.734,9.079,9.079,0,0,1-.655.667c-.44.454-.864.958-1.515.27-.049-.052-.2,0-.3-.011-.731-.079-1.428.1-2.162-.485a16.989,16.989,0,0,1-1.9-1.382,7.915,7.915,0,0,1-1.425-1.75,5.333,5.333,0,0,1-.911-3.362,4.7,4.7,0,0,1,.459-1.019l.97.8c.255-.844.2-1.826.985-2.569l.973.727v-1.14a13,13,0,0,1,2.99-.467,2.271,2.271,0,0,1,1.474.581,8.716,8.716,0,0,1,1.46,1.378c.354.533.839.979,1.211,1.528a19.56,19.56,0,0,1,1.263,2.918A4.222,4.222,0,0,1,363.732,2070.516Z" transform="translate(-60.774 -4.385)" fill="#c3fc33"/><path d="M256.383,2128.156v3.354a7.825,7.825,0,0,0,.284-2.556c.01-.343-.152-.769.264-.974a4.7,4.7,0,0,1,1.346-.49c.159-.023.463.353.553.6a2.91,2.91,0,0,1,.022.928c.259-.108.413-.233.552-.218.285.032.677.3.823.189.813-.6,1.7-.205,2.543-.251a1.449,1.449,0,0,1,1.137.541c.448.759,1.349.991,1.823,1.885a2.178,2.178,0,0,0,.463,1.361,3.15,3.15,0,0,1,.8,2.466,9.678,9.678,0,0,0-.013,1.48c-1.065.632-2.174,1.247-3.237,1.932-1.112.718-2.124.235-3.07-.261-.691-.361-1.617-.532-1.851-1.5-1.544-.7-1.818-2.323-2.643-3.552a6.44,6.44,0,0,1-.695-2.662c-.13-.723.381-1.56.608-2.347Z" transform="translate(-19.624 -32.142)" fill="#c3fc33"/><path d="M308.229,2153.931l-2.141-2.141a12.621,12.621,0,0,1,.027-1.741c.03-.223.354-.449.594-.58.091-.051.326.162.5.255.227-.449.36-1.058,1.127-.91a.616.616,0,0,0,.442-.042,1.477,1.477,0,0,1,1.288-.489,6.154,6.154,0,0,1,2.536.991,11.292,11.292,0,0,1,3.307,4.224,17.225,17.225,0,0,1,.956,3.176,1.514,1.514,0,0,1-.583,1.5c-.888.622-1.742,1.293-2.65,1.885a1.891,1.891,0,0,1-1.1.309,4.688,4.688,0,0,1-4.561-3.831,3.188,3.188,0,0,1-.282-1.112A7.309,7.309,0,0,1,308.229,2153.931Z" transform="translate(-41.225 -41.005)" fill="#c3fc33"/><path d="M307.31,2250.372l-.185-.94c0,1.244-1.317,1.709-1.6,2.766a.62.62,0,0,1-.894.337c-.378-.342-.635-.093-.848.046a1.381,1.381,0,0,1-1.627,0c-1.668-.976-3.39-1.872-4.373-3.66-1.185-.641-1.532-1.944-2.269-2.934a7.69,7.69,0,0,1-.722-1.791c.436-.635,1.068-.467,1.834-.085a2.553,2.553,0,0,0-.205-.9c-.209-.281.014-.392.133-.441a4.623,4.623,0,0,0,1.539-.817c.108-.1.415-.062.605,0,.34.1.631.32,1.009.013.107-.087.455.086.674.182a9.649,9.649,0,0,1,4.7,3.7,4.545,4.545,0,0,0,.741.746c.725.674.861,1.655,1.422,2.381A1.224,1.224,0,0,1,307.31,2250.372Z" transform="translate(-36.41 -80.973)" fill="#c3fc33"/><path d="M474.542,2127.7l.128-.895c.114.082.214.115.241.179a18.9,18.9,0,0,1,1.135,2.967c.148.66.336,1.291-.3,1.8-.434.349.006,1.354-.97,1.3-.461.74-1.2.666-1.906.615a10.921,10.921,0,0,1-.467,1.408c-.234.485-.984.622-1.787.393-.183-.053-.36-.23-.529-.216-1.3.113-1.3.123-1.846-.9a15.488,15.488,0,0,1-.815-1.537,2.263,2.263,0,0,0-1.319-1.344,2.972,2.972,0,0,1-1.784-2.279,2.547,2.547,0,0,1,1.091-2.414l1.374,1.794c0-.755-.008-1.264,0-1.772s.065-.4.865-.762c.57-.257,1.4.055,1.726-.737l1.691-.065c1.041-.041,1.965.073,2.451,1.23A5.593,5.593,0,0,0,474.542,2127.7Z" transform="translate(-108.761 -31.179)" fill="#c3fc33"/><path d="M211.678,2133.227a2.151,2.151,0,0,1-1.779-1.91,13.242,13.242,0,0,1-.4-2.985,26.9,26.9,0,0,0-.005-4.055c-.049-.653.37-1.136.361-1.746,0-.159.218-.465.323-.459.8.046,1.187-.826,2.031-.83.559,0,1.114-.527,1.742-.855.618.618,1.932-.146,2.433,1.216-.328.958.489,1.8.766,2.779.038.136.182.259.183.389.013,1.544.008,3.088.008,4.766l-.627-.556c.084.363.068.64.192.735s.41-.011.6.051c.084.029.13.252.139.391,0,.064-.134.2-.184.194-.378-.074-.751-.177-1.16-.28l-.8,1.731-.935-.07c.446.449-.066.611-.252.887s-.326.594-.476.874c-.983-.107-1.35-.741-1.613-1.581Z" transform="translate(0 -29.11)" fill="#c3fc33"/><path d="M412.2,2264.024c-.809-.023-1.574-.241-1.965.655-.66-.87-.738-1.487-.065-2.178a9.862,9.862,0,0,1,1.361-1.485c.518-.361.708-1.159,1.154-1.667a6.9,6.9,0,0,1,1.3-.939l.519.508-.734.521.081.188,1.113-.175c.106.159.23.57.5.708a10.245,10.245,0,0,1,3.58,3.637,12.82,12.82,0,0,1,.683,1.587c.632,1.276.794,1.512.6,2.673a4.258,4.258,0,0,1-.951,2.415,1.781,1.781,0,0,0-.551,1c-.034.871-.513,1.01-1.216.966a1.878,1.878,0,0,0-.6.064c-1.228.33-1.355.3-1.967-.645a19.639,19.639,0,0,1-1.867-4.535C412.8,2266.23,412.512,2265.1,412.2,2264.024Z" transform="translate(-85.458 -88.026)" fill="#c3fc33"/><path d="M372.071,2229.163a10.677,10.677,0,0,1-2.455-1.638c-1.319-1.332-2.735-2.58-3.951-4a20.157,20.157,0,0,1-3.406-4.711c.081-.691.981.042,1-.772.005-.233.575-.458.892-.678.785-.548,1.224-.64,1.8-.031a3.435,3.435,0,0,0,1.956.973c1.141.242,1.929,1.118,2.905,1.657a13.64,13.64,0,0,1,2.638,2.312,14.792,14.792,0,0,1,1.364,1.2,4.157,4.157,0,0,1,.863,1.6,1.632,1.632,0,0,1-.445,1.183c-.328.382-.484.934-1.059,1.119-.332.107-.285.479-.35.784-.075.352-.173.779-.782.338C372.608,2228.186,372.25,2228.623,372.071,2229.163Z" transform="translate(-65.209 -70.313)" fill="#c3fc33"/><path d="M484.588,2212.978a6.8,6.8,0,0,1-3.308-3.423,28.484,28.484,0,0,1-1.776-3.626c-.5-1.246-1.361-2.427-.975-3.995,1.127.785,1.034,2.286,2.115,3.29-.2-1.588-1.022-2.814-1.432-4.487l1.027.563.15-.842,1.485-.282c.145.233.336.577.563.9.885,1.24.89,1.234,2.5,1.805a2.642,2.642,0,0,1,.511.272,7.855,7.855,0,0,1,3.063,3.04,5.329,5.329,0,0,1,.583,1.972.663.663,0,0,0,.194.381.378.378,0,0,1-.113.639c-.7.4-1.006,1.176-1.63,1.642a1.049,1.049,0,0,0-.362.791,1.523,1.523,0,0,1-1.352.933c-.252-.058-.416-.522-.76-.18A5.811,5.811,0,0,0,484.588,2212.978Z" transform="translate(-114.797 -63.168)" fill="#c3fc33"/><path d="M393.715,2152.92l-.954.157.384.718-2.312,2.312a2.34,2.34,0,0,0-.433,0c-1.753.325-2.921-.67-3.9-1.87a14.155,14.155,0,0,1-1.923-3.1,3.248,3.248,0,0,1-.375-2.306l1.48,3.251.253-.082a2.988,2.988,0,0,0-.121-.593c-.317-.753-.677-1.489-.976-2.249-.132-.336-.416-.755.307-.911.223-.048.354-.53.524-.814.149-.25.294-.5.412-.7.73-.067.737.573,1.193.835-.106-.4-.213-.8-.352-1.334l.859-.681c.2.2.458.509.7-.067.263-.623.651-.865,1.282-.456.057.037.176.065.214.034.73-.6,1.159,0,1.5.458a15.145,15.145,0,0,1,1.668,3.673c.113.295.361.986-.471,1.02-.046,0-.083.26-.124.4.173.042.439.176.5.109a.368.368,0,0,1,.671.25C393.448,2151.635,394.1,2152.272,393.715,2152.92Z" transform="translate(-74.542 -39.538)" fill="#c3fc33"/><path d="M390.326,2100.011l.646.646.139-1.2c.643-.135,1.307-.3,1.98-.4a4.21,4.21,0,0,1,1.242,0c.31.048.067.625.644.675.372.033.66.667.925,1.108.215.359-.107,1.134.711,1.087q.042.761.085,1.522c0,.05.014.1.021.147l2.323,2.323a4.894,4.894,0,0,1,.763.008c.388.062.806.447.607.685-.443.53.351.9.035,1.329a4.416,4.416,0,0,1-2.573.23l.73,1.58c-.157.151-.364.518-.568.516-1.288-.009-2.643.318-3.791-.6a5.5,5.5,0,0,1-.929-.746c-.552-.691-1.046-1.429-1.55-2.158-.248-.36-.46-.745-.7-1.111-.369-.569-.26-1.386-.937-1.793a3.314,3.314,0,0,0-.534-1.8A1.5,1.5,0,0,1,390.326,2100.011Z" transform="translate(-76.814 -19.984)" fill="#c3fc33"/><path d="M303.024,2060.3h1.441c.558,0,1.161-.092,1.289.713a.4.4,0,0,0,.322.212c.661-.1.832.526,1.236.8,1.1.745,1.258,1.972,1.532,3.107.156.647-.053,1.111-.789,1.552a6.211,6.211,0,0,0-2.428,1.7c-.5.01-.911.793-1.5.166a.605.605,0,0,0-.412-.118c-1.973.038-3.207-1.095-4.238-2.6a7.068,7.068,0,0,1-1.384-2.394,8.316,8.316,0,0,1-.162-1.178c-.009-.129.067-.354.158-.387.794-.283,1.371-.961,2.14-1.236A6.194,6.194,0,0,1,303.024,2060.3Z" transform="translate(-37.752 -3.448)" fill="#c3fc33"/><path d="M301.933,2191.769l.723,1.138c.073-.544.1-.73.123-.917.069-.62.068-.619.851-.7.1-.01.248,0,.284-.052a1.234,1.234,0,0,1,1.478-.551,5.123,5.123,0,0,1,1.819.851,14.385,14.385,0,0,1,3.961,6.141,4.005,4.005,0,0,1,.021,1.345l-.6-.066c.04.561-.087.975-.743,1.108a.77.77,0,0,0-.485.531c-.066.675-.759.346-1,.7-.387-.615-1.051.13-1.486-.309-.416-.421-.986-.746-1.261-1.239a17.354,17.354,0,0,1-1.541-3.406,2.026,2.026,0,0,0-.918-1.284,4.042,4.042,0,0,1-1.717-1.812C301.135,2192.574,301.122,2192.58,301.933,2191.769Z" transform="translate(-39.167 -59.091)" fill="#c3fc33"/><path d="M352.348,2157.492a2.154,2.154,0,0,1,.013-.565c.033-.13.256-.218.275-.343s-.138-.292-.14-.44c0-.131.183-.292.147-.389a1.176,1.176,0,0,0-.366-.467,1.508,1.508,0,0,0-.476-.14l.255.885c-.552-.336-1.165-.6-.9-1.416l.73.314c.09-.976-.815-.468-1.163-.93.51.06.85-.291,1.363-.223.238.031.548-.474.912-.818l1.737,1.417.167-1.022,2.3-.444c.4.511.712.976,1.092,1.376.33.347.784.578,1.1.932a8.764,8.764,0,0,1,1.674,3.517c.132.448.278,1.157-.577,1.276,0,.822-.863.945-1.254,1.466a1.847,1.847,0,0,1-2.292.388,8.5,8.5,0,0,1-3.216-2.725C353.286,2158.608,352.783,2158.1,352.348,2157.492Z" transform="translate(-60.287 -42.993)" fill="#c3fc33"/><path d="M397.454,2193.442l.774.264c.057-1.315-1.3-1.683-1.491-2.895a3.208,3.208,0,0,1,.661.3,10.812,10.812,0,0,1,.8.789,2,2,0,0,0-.56-1.261c.822-.994.822-.994,1.792-1a8.665,8.665,0,0,0,1.672,1.811c.755.461.978,1.248,1.534,1.813a7.786,7.786,0,0,1,1.237,1.967,2.237,2.237,0,0,1,.3,1.259c-.08.5-.295,1.241-.65,1.384-.585.236-.454.649-.638,1a1.737,1.737,0,0,1-1.23,1.062c-.369.061-.809.343-1.08.221a5.738,5.738,0,0,1-1.829-1.2,31.383,31.383,0,0,1-2.531-3.154c-.2-.274-.107-.755-.165-1.3l.588.474C396.523,2194.2,397.22,2193.922,397.454,2193.442Z" transform="translate(-79.632 -58.673)" fill="#c3fc33"/><path d="M376.057,2291.078l-.832-.458c-.351,1.27-.438,1.335-1.476.878.274.637.493,1.148.733,1.7l-.829.481-1.582-1.583c-.338.762.593,1.114.5,1.848-.835.117-1.319-.451-1.8-.973-.263-.286-.4-.684-.675-.959a34.534,34.534,0,0,1-3.3-3.935,2.69,2.69,0,0,0-.328-.332,3.115,3.115,0,0,1-1.292-2.088c.608-.372.93.2,1.343.557.42-.7-.551-.789-.508-1.3.037-.618,1.213.17.914-.84h1.693c.484.342.975.678,1.457,1.028a9.142,9.142,0,0,0,1.394,1.143c.574.278.955.936,1.46,1.381.33.291.539.689,1.066.82.381.094.584.673,1.163.6.161-.021.452.27.534.477A11.722,11.722,0,0,1,376.057,2291.078Z" transform="translate(-66.454 -98.981)" fill="#c3fc33"/><path d="M360.357,2110.793c.538.036.909-.243,1.4.112l-.629.217c.185.626.39,1.249.54,1.884.039.163-.046.484-.16.532-.627.265-.816.94-1.3,1.309a1.713,1.713,0,0,1-.823.249c-.141.016-.308-.2-.45-.183a1.6,1.6,0,0,0-.512.272c-.268-.948-.254-.986-1.311-1.346-.632-.215-.763-.837-1.211-1.228l-.306.652c-.158-.166-.423-.315-.422-.464.008-1.862.007-1.9-.844-3.02-.479.842.439,1.329.489,2.153-.228-.036-.567-.009-.607-.106-.4-.971-1.008-1.888-.383-3.053.194-.362.229-.552.663-.559a1.681,1.681,0,0,0,.8-.313c.619-.391,1.216-.818,1.878-1.269l.257.384c.522.364,1.067-.616,1.154.406.025.29.673-.4.673.358,0,.293.539.588.81.858l-.281.73.231.16.443-.843.654,1.11Z" transform="translate(-61.494 -23.24)" fill="#c3fc33"/><path d="M269.841,2189.106l-.961-1.213-.4.812a3.514,3.514,0,0,1-1.35-1.233c-.761-1.073-1.35-2.258-2.121-3.333a2.873,2.873,0,0,1-.315-2.351c.712-.144.867.692,1.46.9v-1.522l3.2-.451a8.386,8.386,0,0,1,2.211,3.11c.277.664.849,1.163,1.022,1.923.069.3-.316.7.157.928a3.743,3.743,0,0,1-.145.367c-.774-.279-1.034.843-1.779.663-.048-.012-.18.276-.254.433a4.99,4.99,0,0,1-.22.531A2.943,2.943,0,0,1,269.841,2189.106Z" transform="translate(-23.518 -54.864)" fill="#c3fc33"/><path d="M331.459,2228.329l.619,1.431.288-.761c.07.043.185.073.2.129a3.144,3.144,0,0,0,.782,1.4,3.737,3.737,0,0,1,.557.86,1.762,1.762,0,0,0,1.311,1.013l.251-.51.857.642c0,.195.021.279,0,.294-.283.184-.573.358-.837.52l.249,1.393-1.094-.532-.63,1.27-.757.086v.695a1.452,1.452,0,0,1-2.109-.112c-.742-.676-1.578-1.248-2.334-2.053l.962-.635a4.712,4.712,0,0,0-.926-1.744,10.692,10.692,0,0,1-1.01-1.885c.459-.564.82-.146,1.24.03.018-.157.091-.326.04-.439-.313-.705-.178-1.054.487-1.084C330.227,2228.306,330.853,2228.329,331.459,2228.329Z" transform="translate(-50.516 -75.182)" fill="#c3fc33"/><path d="M256.019,2237.354l.743,1.1c.07-.217.165-.356.143-.472-.107-.565-.245-1.123-.389-1.759h.908c.079.163.175.363.366.759V2235.7a1.773,1.773,0,0,0,.434-.16c.242-.181.626-.591.666-.558.4.327.888.129,1.274.277a1.448,1.448,0,0,1,1.112,1.337c0,.219-.293.462-.249.646.036.15.437.183.557.352a.618.618,0,0,1,0,.589c-.405.323-.316.741-.288,1.133a.788.788,0,0,1-.614.91c-.465.132-.573.429-.671.874a1.188,1.188,0,0,1-1.3,1.014,3.007,3.007,0,0,0-.757.049c-.621.135-1.4-.013-1.6-.47-.472-1.111-1.157-2.162-1.029-3.47C255.385,2237.718,255.692,2237.573,256.019,2237.354Z" transform="translate(-19.562 -78.026)" fill="#c3fc33"/><path d="M343.869,2188.669l1.293.379a1.183,1.183,0,0,0-.172-1.437c.547-.5.912.252,1.449.171l.155-.835c.421-.451.8.38,1.309-.011s.651.464,1.093.564a1.424,1.424,0,0,1,.657.532c.587.72.679,1.738,1.469,2.366.19.151.088.667.131,1.126-.876-.43-.93.961-1.774.631-.259.42-.015,1.182-.964,1.273l-.481-.82-.377.788c-.532.126-.775-.333-.95-.624a6.482,6.482,0,0,0-2.305-2.3A1.278,1.278,0,0,1,343.869,2188.669Z" transform="translate(-57.286 -57.462)" fill="#c3fc33"/><path d="M325.98,2113.861,324,2115.417h-1.312c-.511-.739-.677-1.712-1.431-2.322a4.225,4.225,0,0,0-1.409-2.385c-.2-.228-.154-.663-.238-1.088.226-.062.449-.059.566-.167,1.2-1.123,2.329-.492,3.286.274a10.3,10.3,0,0,1,2.083,2.4A5.234,5.234,0,0,1,325.98,2113.861Z" transform="translate(-47.002 -24.184)" fill="#c3fc33"/></g><g transform="translate(-349.299 -2108.335) rotate(20)"><path d="M1904.6,2142.859a18.3,18.3,0,0,1-3.258,6.305,16.57,16.57,0,0,0-2.459,3.805c-.24.49-.679.638-.929,1.076a26,26,0,0,1-1.547,3.174c-1.686,2.241-3.35,4.49-5.11,6.679-1.161,1.444-2.248,2.961-3.455,4.371a20.536,20.536,0,0,1-8.3,5.642c-3.682,1.45-7.329,3.022-11.092,4.224a50.451,50.451,0,0,1-21.578,2.258c-4.463-.532-8.81-1.376-12.633-3.655a40.3,40.3,0,0,1-14.721-14.764,7.014,7.014,0,0,0-.466-.666,19.949,19.949,0,0,1-3.438-6.437,21.053,21.053,0,0,0-1.36-3.464c-1.6-3.337-1.295-6.7,0-10.046a26.843,26.843,0,0,1,5.908-8.766,19.309,19.309,0,0,0,5.258-11.862c.451-4.225-.29-8.318-1.043-12.425-.462-2.521-.874-5.051-1.371-7.565-.8-4.052-2.665-7.664-4.578-11.284a58.978,58.978,0,0,1-5.548-14.912,22.766,22.766,0,0,1,1-12.808,18.747,18.747,0,0,1,3.786-6.641,38.864,38.864,0,0,1,5.642-5.212,57.652,57.652,0,0,1,16.523-7.969c6.741-2.1,13.305-4.585,19.064-8.816a145.425,145.425,0,0,0,12.227-10.1c5.31-4.874,10.872-9.41,17.3-12.766,6.231-3.252,12.738-5.784,19.86-5.719,10.72.1,19.9,3.885,26.4,12.7,4.808,6.521,5.588,13.994,4.017,21.8-.283,1.408-.571,2.817-.9,4.215a28.1,28.1,0,0,1-4.453,9.926c-1.251,1.766-2.6,3.456-3.851,5.2a60.427,60.427,0,0,1-4.8,5.76,63.614,63.614,0,0,0-5.344,6.753c-.574.821-1.486,1.319-2.042,2.2a67.847,67.847,0,0,0-5.787,10.3,19.816,19.816,0,0,0-1.8,6.151c-.1,1.37-.014,2.736-.134,4.1a24.344,24.344,0,0,0,.5,6.043c.125.765-.8,1.385-.6,1.438,1.081.288.321.9.343,1.337.013.261-.153.548-.094.788,1,4.073.57,8.233.656,12.348.08,3.819.414,7.71-.619,11.454-.377,1.366-.651,2.767-1.049,4.132-.477,1.637-1.357,3.172-1.5,4.88-.207,2.405-1.422,4.422-2.3,6.572-.048.118-.225.185-.344.278.112-1.281,1.161-2.236,1.2-3.553a28.188,28.188,0,0,0-2.486,5.824Zm-31.1-112.13a18.567,18.567,0,0,0,3.651-3.273c-1.206,1.1-2.663,1.93-3.629,3.3a6.851,6.851,0,0,0-2.422,1.937A7.513,7.513,0,0,0,1873.5,2030.729Zm13.766-17.738a3.645,3.645,0,0,0,.651-.2,64.112,64.112,0,0,1,15.509-5.97c.2-.046.467-.039.584-.342-.369.053-.715.094-1.058.153a46.209,46.209,0,0,0-12.785,4.556,8.013,8.013,0,0,0-2.88,1.83c-1.214.085-1.956,1.11-3.006,1.531a.421.421,0,0,0-.1.693c.093.094.222.155.28.044C1885.07,2014.116,1886.553,2014.025,1887.266,2012.992ZM1854.6,2175.66a22.62,22.62,0,0,0,2.313-.012c3.126-.321,6.211-.915,9.3-1.5,4.577-.867,8.8-2.811,13.13-4.408a11.179,11.179,0,0,0,5.264-3.514,72.607,72.607,0,0,0,10.634-19.127c2.041-5.556,4.7-10.883,6.879-16.391a46.518,46.518,0,0,0,3-12.279c.371-3.522.162-7.054.188-10.583.021-2.9-.03-5.8.152-8.714a44.338,44.338,0,0,0-.508-6.287,28.178,28.178,0,0,1,.87-10.94,45.541,45.541,0,0,1,4.19-9.441,103.864,103.864,0,0,1,12.612-16.586,76.312,76.312,0,0,0,7.009-8.719,32.321,32.321,0,0,0,5.462-18.957,14.085,14.085,0,0,0-7.108-12.372c-8.052-4.924-16.555-6.5-25.681-3.5a59.694,59.694,0,0,0-19.119,10.7c-3.591,2.923-6.87,6.2-10.45,9.127-4.878,3.993-9.832,7.869-15.577,10.584a95.216,95.216,0,0,1-13.817,4.97,51.965,51.965,0,0,0-11.452,4.89,26.848,26.848,0,0,0-10.132,9.76c-.29.5-.3.5-.961.511-.2,0-.213.17-.28.3a8.766,8.766,0,0,0-1.025,3.864c-.011.929.348,2.26.03,2.708-1.022,1.436-.253,2.827-.064,4.038a33.553,33.553,0,0,0,1.087,4.563,58.922,58.922,0,0,0,4.361,10.953c1.724,3.182,3.4,6.392,3.893,10,.144,1.044,1.4,2.238.06,3.353,0,0,.094.1.134.166a7.15,7.15,0,0,1,1.128,3.615c.052,1.218.488,2.356.54,3.56.084,1.943.8,3.831.388,5.827a13.986,13.986,0,0,0-.147,2.809c0,2.089-.712,4.079-.821,6.173a10.481,10.481,0,0,1-1.1,2.68c-1.353,3.219-3.753,5.672-5.859,8.358-1.981,2.527-4.208,5-4.416,8.469-.084,1.4-.5,2.873.222,4.184,1.939,3.525,2.96,7.521,5.621,10.682,2.071,2.459,3.462,5.44,5.986,7.577,2.468,2.09,4.824,4.34,7.674,5.884a17.166,17.166,0,0,0,4.461,1.9A51.775,51.775,0,0,0,1854.6,2175.66Zm46.382-39.041c-1.149,3.927-3.431,7.257-4.58,11.069C1897.846,2146.669,1901.576,2137.9,1900.981,2136.619Zm-45.226-99.38a39.718,39.718,0,0,0,10.383-7.356c-3.275,2.46-6.546,4.924-10.041,7.07A2.825,2.825,0,0,0,1855.755,2037.239Zm-37.748,20.438c1.915-2.065,3.914-4.048,5.944-6A19.18,19.18,0,0,0,1818.007,2057.677Zm-3.4,87.216c.459-1.291.757-2.623,1.143-3.933A7.023,7.023,0,0,0,1814.6,2144.893Zm2.377-84.538c-.077-.287-.224-.441-.493-.39a.847.847,0,0,0-.751.856c-.015.263.14.314.359.275C1816.546,2061.017,1816.755,2060.666,1816.981,2060.356Z" transform="translate(0 0)" fill="#c3fc33"/><path d="M1906.17,2144.318c-.047-.283,0-.535-.285-.678-.05.437-.4.854.176,1.236.336.222.02.583-.066.852q-1.161,3.625-2.274,7.265c-.711,2.3-1.561,4.578-2.094,6.938a23.94,23.94,0,0,1-1.278,3.368,4.24,4.24,0,0,0-.368,1.561c0,1.135-.08,1.164-1.129.568a.974.974,0,0,0-.362-.029c0,.126-.039.252.006.327a3.119,3.119,0,0,1-.259,3.513,6.479,6.479,0,0,0-1.215,2.347,6.564,6.564,0,0,1-2.406,3.413c-.1.084-.331.045-.342.24-.062,1.151-.989,1.7-1.688,2.389-.667.654-1.489,1.132-2.116,1.851a13.845,13.845,0,0,1-3.75,3.069,19.429,19.429,0,0,1-2.124,1.392c-2.792,1.1-5.53,2.32-8.358,3.34-4.779,1.724-9.484,1.219-14.226.067a20.945,20.945,0,0,1-7.618-3.64,15.929,15.929,0,0,1-2.319-2.263,24.447,24.447,0,0,1-5.684-10.661,10.05,10.05,0,0,1,1.061-7.42c.339-.611.6-1.412,1.748-1.273.5.06.995-.869,1.382-1.458a69.663,69.663,0,0,0,6.758-13.248,63.049,63.049,0,0,0,4.17-15.1,30.173,30.173,0,0,0-.984-11.157,22.632,22.632,0,0,0-4.041-7.814c-1.316-1.8-2.494-3.7-3.794-5.509-.461-.642.12-1.052.257-1.877-.712.968-.828.773-1.131-.023a18.083,18.083,0,0,0-1.3-2.309,10.929,10.929,0,0,1-1.492-5.3c-.007-.7-.375-1.291-.28-1.957a17.746,17.746,0,0,1,.416-2.509c.419-1.428.682-2.934,2.078-3.9.385-.267.156-1.1.595-1.569,1.875-2.013,3.641-4.159,5.985-5.652a114.641,114.641,0,0,1,17.544-9.128,36.152,36.152,0,0,0,11.691-7.317c4.943-4.853,10.143-9.421,15.493-13.817a56.62,56.62,0,0,1,16.736-9.981,29.8,29.8,0,0,1,8.071-1.688c3.957-.273,6.921,1.528,9.22,4.52,4.416,5.746,5.452,12.212,3.753,19.165a52.1,52.1,0,0,1-5.2,13.36,17.941,17.941,0,0,1-4.012,5.463,13.313,13.313,0,0,0-2.02,2.893c-2.3,3.318-5.2,6.163-7.494,9.5-1.021,1.487-1.884,3.054-2.846,4.568a78.56,78.56,0,0,0-5.113,10.5,37.689,37.689,0,0,0-2.386,9.9q-.806,5.458-1.726,10.9a33.316,33.316,0,0,1-1.353,6.218c-.518,1.363-.537,2.816-1.156,4.136C1906.674,2142.656,1907.056,2143.694,1906.17,2144.318Zm-49.352,7.008c.332-.125.413-.457.528-.721a58.552,58.552,0,0,0,2.992-7.664c.426-1.555,1.173-3.036,1.149-4.7-.752,2.948-2.062,5.7-2.993,8.578-.494,1.53-1.418,2.9-1.65,4.531-1.329,1.753-1.982,3.86-3.057,5.746C1854.922,2155.237,1856.259,2153.482,1856.817,2151.326Zm1.194-41.685c.02-.148-.013-.363.072-.431.154-.125.233.065.335.178.288.317.153.8.548,1.112a5.174,5.174,0,0,1,1.6,2.248c.31.791,1.156,1.367,1.732,2.064.128.156.29.419.124.64-.308.409-.061.544.279.64a1.2,1.2,0,0,1,.784.8,15.679,15.679,0,0,1,1.352,4.021,8.884,8.884,0,0,0,.6,2.74,11.25,11.25,0,0,1,.91,5.819c-.083,1.727-.415,3.5-.336,5.227.068,1.495-.683,2.713-.892,4.1-.253,1.686-1.421,3.156-1.652,4.908-.142,1.075-1.277,1.893-1.268,2.745.023,1.969-1.722,3.029-2.03,4.806a4.049,4.049,0,0,1-.821,1.948c-1.009,1.1-1.3,2.63-2.349,3.728-1.317,1.384-2,3.237-3.4,4.611a27.437,27.437,0,0,0-2.24,2.84c-.668.86-.608,2.192-.829,3.329-.32,1.644.624,2.926,1.049,4.37a19.337,19.337,0,0,0,5.621,8.607c4.849,4.5,10.656,5.974,17.113,3.621.655-.239,1.31-.479,1.971-.7a31.387,31.387,0,0,0,10.337-6.094c4.071-3.456,6-8.275,8.255-12.837a43.835,43.835,0,0,0,1.692-5.323,37.529,37.529,0,0,0,1.128-3.668c.283-1.255.668-2.475,1.044-3.7s.9-2.4,1.2-3.638c.264-1.1.806-2.085,1.034-3.225.3-1.525.8-3.044,1.216-4.567a115.333,115.333,0,0,0,3.275-16.656c.372-3.124.642-6.277,1.289-9.348a63.2,63.2,0,0,1,12.955-26.575c2.813-3.522,5.8-6.909,8.743-10.324,4.218-4.889,6.506-10.71,8.231-16.815a17.463,17.463,0,0,0-.508-11.21c-.794-2.088-1.978-3.831-4.475-4.243a19.551,19.551,0,0,0-6.793.573,16.947,16.947,0,0,0-4.043,1.5,45.3,45.3,0,0,0-9.076,5.177c-.651.528-1.463.6-2.114,1.125-.834.673-1.416,1.584-2.326,2.189-.522.347-1.147.381-1.629.826-3.053,2.82-6.5,5.192-9.259,8.354-.956,1.1-2.138,2-3.18,3.024a37.739,37.739,0,0,1-13.594,8.622,79.045,79.045,0,0,0-17.646,9.19c-2.1,1.447-4.348,2.81-5.852,5.009-.873,1.276-1.995,2.576-2.131,4.037a15.575,15.575,0,0,0,.314,6.572c.177.52-.139,1.243-.029,1.421.426.681.682,1.453,1.144,2.107C1856.471,2106.533,1857.845,2107.741,1858.011,2109.642Zm43.272,38.746a41.239,41.239,0,0,0-2.669,7.578c-.728,2.638-1.71,5.184-2.563,7.773-.806,2.448-1.97,4.778-2.976,7.16C1897.382,2163.952,1898.989,2156.051,1901.283,2148.388Zm1.779-94.491a71.605,71.605,0,0,1,16.3-9.974C1915.47,2044.438,1904.687,2051.564,1903.062,2053.9Zm-44.944,30.191c-3.025,2.05-5.725,4.4-7.031,7.981A48.486,48.486,0,0,1,1858.118,2084.088Zm-9.761,79.958c-1.289,1.28-1.876,5.249-1.03,6.067A23.472,23.472,0,0,1,1848.357,2164.046Zm50.575-106.5-.25-.267a61.419,61.419,0,0,0-6.493,6.149Zm-14.512,12.61a26.848,26.848,0,0,0,6.452-5.659C1888.728,2066.39,1886.622,2068.327,1884.419,2070.153Z" transform="translate(-19.293 -20.722)" fill="#c3fc33"/><path d="M1928.885,2108.615a1.729,1.729,0,0,1,0,1.824c-.68,1.658-2.069,2.963-2.331,4.813a5.216,5.216,0,0,1-.921,1.715c-.8,1.415-.953,3.061-1.673,4.44-.683,1.307-.975,2.74-1.672,4.018-.369.679-.239,1.524-.721,2.182a20.867,20.867,0,0,0-1.221,3.735c-.234,1.338-.506,2.669-.776,4-.047.229-.149.464-.46.414s-.476.1-.353.381a3.3,3.3,0,0,1-.5,2.864c-1.193,2.437-2.23,4.942-3.278,7.438-.208.495-1.172.36-.828,1.345.174.5-.387,1.36-.774,2-.378.628-.632,1.329-.973,1.98-2.518,4.8-4.833,9.7-7.025,14.656-1.216,2.75-2.668,5.4-3.949,8.119a15.6,15.6,0,0,0-.753,2.2,3.151,3.151,0,0,1-1.319,2.071.5.5,0,0,0-.3.305c-1.01,3.18-3.723,4.843-6.142,6.706a30.368,30.368,0,0,1-5.811,3.044c-1.216.57-2.335,1.477-3.751,1.677a35.6,35.6,0,0,1-4.272.487,6.323,6.323,0,0,1-3.844-1.1,1.215,1.215,0,0,1-.434-1.629,8.261,8.261,0,0,1,3.165-4.07,4.688,4.688,0,0,0,1.594-1.334c.277-.445.746.115,1.261-.391a24.085,24.085,0,0,0,4.121-6.155,105.876,105.876,0,0,0,5.951-14.143,34.729,34.729,0,0,0,1.481-6.445c.216-1.38.361-2.76.453-4.153.043-.645.3-1.175,1.095-.781.472.234.618-.11.839-.353a.345.345,0,0,0-.026-.516c-.277-.264-.516.011-.733.116-.886.432-1.176.175-1.131-.8a26.094,26.094,0,0,0-.5-7.972,17.432,17.432,0,0,0-1.463-3.751c-1.847-3.469-4.233-6.6-6.343-9.9-1.544-2.418-3.132-4.836-3.456-7.787-.076-.687-.621-1.524.329-2.081a.244.244,0,0,0,.094-.19c-.184-2.7-.1-2.767,1.734-4.659a13.434,13.434,0,0,1,4.122-2.762c5.443-2.5,10.03-6.144,14.52-10.041,5.466-4.745,10.445-10.038,16.124-14.514a63.458,63.458,0,0,1,20.89-10.582c3.987-1.225,6.941,1.75,6.072,5.888a40.6,40.6,0,0,1-4.515,11.677c-2.388,4.223-5.126,8.223-7.775,12.276a29.956,29.956,0,0,1-2.229,3.344C1930.015,2108.76,1929.674,2109.228,1928.885,2108.615Zm-41.52,65.181c.33-.023.425-.29.546-.528,1.532-3.007,2.668-6.188,4.059-9.256.668-1.472.439-3.238,1.561-4.548a.323.323,0,0,0-.137-.56c-.351-.151-.54.083-.578.37a15.864,15.864,0,0,1-1.058,3.14,71.211,71.211,0,0,1-3.054,7.974,11.952,11.952,0,0,0-1.311,3.433,15.332,15.332,0,0,0-2.148,4.118C1885.907,2176.535,1887.177,2175.443,1887.366,2173.8Zm30.171-80.705c-1.371.614-2.048,1.939-3.031,2.949-1.291.75-2.006,2.1-3.155,3.01-1.981,1.563-4.016,3.076-5.87,4.783a52.358,52.358,0,0,1-12.769,8.688c-1.744.843-3.779,1.023-5.269,2.481-.912.892-2.02,1.614-2.1,3.01a10.923,10.923,0,0,0,1.2,5.929c1.843,3.439,4.326,6.445,6.5,9.662,2.256,3.344,4.271,6.747,4.784,10.91a65.1,65.1,0,0,1-.039,11.886c-.048.8-.59,1.565-.619,2.493a6.369,6.369,0,0,1-.877,3.8c-1.484,1.916-1.977,4.254-2.948,6.38-.318.7-.123,1.725-.736,2.259a6.243,6.243,0,0,0-1.428,2.546,3.17,3.17,0,0,1-.633.968,15.466,15.466,0,0,0-2.06,3.047,23.714,23.714,0,0,1-4.258,5.266c-.49.446-1.264.392-1.559,1.088a4.664,4.664,0,0,1-1.4,1.687,3.738,3.738,0,0,0-1.105,1.877,1.377,1.377,0,0,0,.979-.153c1.76-.646,3.266-1.782,4.966-2.556a19.22,19.22,0,0,0,7.49-5.956,37.213,37.213,0,0,0,3.569-6.392c2.114-4.354,4.262-8.7,6.245-13.11,1.11-2.473,2.265-4.921,3.495-7.332,2.042-4.005,3.861-8.113,5.635-12.237a56.245,56.245,0,0,0,3.365-10.238,59.449,59.449,0,0,1,2.986-8.931c2.177-5.572,4.393-11.123,7.983-16,3.226-4.379,6.493-8.728,9.408-13.328a35.7,35.7,0,0,0,4.991-10.98c.1-.428.417-.99.053-1.3-.309-.267-.812.084-1.2.238a88.918,88.918,0,0,0-11.829,5.747c-.688.4-1.3,1.3-2.351.858-.148-.062-.458.146-.368.325.319.631-.3.623-.537.78q-2.246,1.484-4.436,3.048C1919.454,2091.108,1918.659,2092.272,1917.537,2093.09Zm-22.147,85.622a37.7,37.7,0,0,0,2.477-3.966c1.51-3.3,3.263-6.486,4.7-9.824a158.224,158.224,0,0,1,7.038-14.63.708.708,0,0,0-.12-1.025C1904.229,2158.9,1900.493,2169.136,1895.39,2178.712Zm21.84-90.76a73.678,73.678,0,0,1,9.521-6.118c3.394-1.778,6.827-3.469,10.309-5.045C1929.986,2079.678,1923,2082.722,1917.23,2087.952Zm-9.335,8.917-.213-.282-9.7,8.408.207.24Zm-20.563,14.667c-2.427.455-4.915,2.741-4.663,4.289A13.77,13.77,0,0,1,1887.332,2111.536Zm22.285,37.32.35.184c.374-.992,1.437-1.7.948-3.053Z" transform="translate(-35.632 -40.185)" fill="#c3fc33"/><path d="M1970.8,2117.589a7.371,7.371,0,0,1-3.031,2.949C1968.754,2119.528,1969.432,2118.2,1970.8,2117.589Z" transform="translate(-88.898 -64.684)" fill="#c3fc33"/></g><g transform="matrix(0.995, -0.105, 0.105, 0.995, 340.801, 470.506)"><path d="M0,0S36.288,20.8,46.656,24.255s20.089,5.4,23.977,6.48,5.4,6.7-9.289,4.968S26.25,29.2,21.066,26.175,0,12.269,0,12.269Z" transform="translate(109.877 29.355)" fill="#ff869e"/><path d="M0,70.137,39.753,0,87.433,68.895Z" transform="translate(137.949 34.266)" fill="#005fd0"/><path d="M50.372,0s7.051,4.925,11.335,10.492l3.252,4.226S58.127,53.469,54.318,65.785C50.292,78.8,42.823,93.411,42.823,93.411L0,68.143S23.247,31.268,33.4,18.174,50.372,0,50.372,0Z" transform="translate(47.848 10.992)" fill="#005fd0"/><path d="M0,6.587s.983,9.892,1.259,13.486,2.488,2.764,10.779,3.04,29.3,0,29.3,0,1.935-3.5-3.594-5.206-16.1-3.362-18.276-9.443A45.553,45.553,0,0,1,17.015,0Z" transform="translate(147.481 193.313)" fill="#ff869e"/><path d="M.851,2.427C-.851,6.045.526,12.755.526,12.755c2.4,7.37,7.188,36.12,15.739,47.611S48,80.5,54.951,84.038C60.961,87.1,82.56,95.324,85.5,94.522s3.473-2.138,3.473-2.138,4.543,0,2.94-2.137C91.3,89.424,74.2,79.1,64.787,74.474c-14.34-7.039-27.534-14.53-31.15-19.131C27.759,47.861,22.546,24.578,18.163,9.816,14.4-2.837,4.534.36,4.534.36Z" transform="translate(89.273 16.411)" fill="#ff869e"/><path d="M28.252,85.46l-9.517.966L7.123,87.612l-5.491.557L0,68.054l17.146-1.7L28.808,65.2l22.618-2.244L47.809,38.293,46,25.915,44.136,13.226,42.313.816,42.195,0l6.159,2.727h.013L75.394,14.661,75.035,27.3l-.148,5.175-.377,13.245-.748,26.539-.247,8.595-7.649.779L42.17,84.044Z" transform="translate(13.877 108.591)" fill="#0b0151"/><path d="M130.557,126.92H110.183s-.105-.711-.3-1.967c-.4-2.684-1.206-7.853-2.214-13.764-1.039-6.072-2.288-12.923-3.543-18.686-.649-2.961-1.3-5.633-1.929-7.76-.767-2.615-1.5-4.408-2.145-4.9-1.694-.866-3.957-1.917-6.678-3.117-3.419-1.515-7.55-3.271-12.144-5.194C71.2,67.325,58.966,62.3,47.137,57.2c-4.161-1.8-8.267-3.6-12.206-5.392C20.16,45.108,7.682,38.7,3.445,34.212c-5-5.292-3.845-12.657-1.02-19.193A59.129,59.129,0,0,1,8.9,3.964C10.693,1.515,12.034,0,12.034,0s40.65,22.075,67.6,36.432c4.545,2.418,8.693,4.619,12.2,6.462,5,2.622,8.675,4.513,10.271,5.25,7.346,3.388,13.362,5.447,16.658,11.513a20.725,20.725,0,0,1,2.071,6.016c.334,1.7.792,4.322,1.336,7.55.959,5.719,2.17,13.338,3.376,21.023.723,4.644,1.447,9.312,2.108,13.609C129.29,118.529,130.557,126.92,130.557,126.92Z" transform="translate(37.304 76.777)" fill="#160078"/><path d="M15.51,20.115v.006S7.694,33.632,6.562,37.416c-.222.736-4.507,1.768-5.917-2.1C-.7,31.622.361,11.922,1.071,1.274L13.878,0Z" transform="translate(0 176.645)" fill="#ff869e"/><path d="M0,8.629S9.3-3.939,19.624,1.261c5.892,2.967,5.357,11.113,5.357,11.113l4.276,5.879H23.645s-.8,2.4-1.6,4.542-3.383,8.818-5.833,4.81S0,8.629,0,8.629Z" transform="translate(98.221 2.363)" fill="#ff869e"/><path d="M0,0" transform="translate(109.877 6.188)" fill="#160078"/><path d="M5.461,3.607A3.626,3.626,0,0,1,2.268,2.1C1.127.391,1.222-.181.443.048-1.134.515,1.926,4.268,2.952,4.61A15.588,15.588,0,0,0,4.9,5.118Z" transform="translate(115.26 20.301)" fill="#00040a"/><ellipse cx="0.942" cy="0.942" rx="0.942" ry="0.942" transform="translate(118.269 14.876)" fill="#00040a"/><path d="M34.359,9.827s-7.139.256-10.787,3.022a70.925,70.925,0,0,1-13.6,8.3c-4.434,1.844-12.906.775-8.947-5.329S9.456,4.726,14.335,2.363c7.294-3.534,12.25-2.741,15.927,0A11.445,11.445,0,0,1,34.359,9.827Z" transform="translate(88.248 0)" fill="#160078"/><path d="M0,0,10.52,4.53s3.494-2.507,6.069-2.264,2.935.868,4.4,1.432.452,2.37-1.128,1.579S15.687,4.149,14.9,4.939l-.79.79L12.19,7.308,14,8.389h7.7s.8,1.329-.3,1.963a2.962,2.962,0,0,1-1.788.519s.438.807-.588,2.019a2.5,2.5,0,0,1-2.584.692s-.058,1.269-1.153,1.442a5.676,5.676,0,0,1-2.307-.231Z" transform="translate(162.637 95.435)" fill="#ff869e"/></g><g transform="matrix(0.995, -0.105, 0.105, 0.995, 517.19, 505.713)"><path d="M.114,0C.369.639-.749,10,1.04,12.557S8.07,6.678,8.07,6.678Z" transform="translate(88.796 7.037)" fill="#ffc9af"/><path d="M9.437,13.716S2.533-.859.235.04c-1.47.575,4.346,15.848,6.9,16.231S9.437,13.716,9.437,13.716Z" transform="translate(87.429 0)" fill="#ffc9af"/><path d="M15.081,9.586C16.441,11.238,7.452.3,7.03,0,7.03,0,1.662,1.406,0,5.879l6.263,10.48s4.09-.894,5.751-2.3A15.728,15.728,0,0,0,15.081,9.586Z" transform="translate(89.836 13.716)" fill="#e54c1d"/><path d="M5.1,20.71S.691,11.571.052,8.12A4.524,4.524,0,0,1,.627,5.309S-.779,1.283.627.772s5.241,7.54,5.241,7.54S3.822.261,5.228.005s4.6,9.33,9.458,14.953c0,0-2.812,3.579-4.984,4.6A14,14,0,0,1,5.1,20.71Z" transform="translate(0 68.284)" fill="#ffc9af"/><path d="M3.295,11.681S2.4.434,2.016.051-.923,1.329.355,8.742,3.295,11.681,3.295,11.681Z" transform="translate(11.391 71.562)" fill="#ffc9af"/><path d="M0,5.752S3.451.256,9.586,0l7.8,9.2s-8.818,7.157-9.458,6.39S0,5.752,0,5.752Z" transform="translate(5.1 83.243)" fill="#e54c1d"/><path d="M19.2,8.243C17.469,6.087,17.3,0,17.3,0s.41,4.008-5.967,8.051C3.474,13.036,0,11.5,0,11.5s2.9.982,6.158,7.573c0,0,7.836-1.438,11.383-5.655S20.369,9.694,19.2,8.243Z" transform="translate(78.174 80.751)" fill="#e54c1d"/><path d="M19.546.551C19.965.945,78.4,43.877,78.4,43.877L126.328,7.069s-1.15,18.788,17.829,29.523c-1.726-.191-42.752,30.865-56.171,32.4S69.007,72.059,31.623,45.6.375,8.219.375,8.219,16.287-2.516,19.546.551Z" transform="translate(122.563 127.167)" fill="#da2032"/><path d="M1.309.146c-3,4.866-.187,5.8,1.944,10.371a182.779,182.779,0,0,0,15.118,11.8c8.995,6.366,16.144,11.107,22.006,14.622C21.374,8.836,2.245-1.372,1.309.146Z" transform="translate(135.816 150.451)" fill="#1a1a1a"/><path d="M.918,20.181s40.834,64.095,60.005,73.3,84.927,14.953,84.927,14.953-7.285-26.84,2.3-39.684c-2.109-.383-69.4,3.834-69.974,3.643S38.11,20.437,31.975,13.535,18.363-1.035,14.337.115-3.684,8.806.918,20.181Z" transform="translate(108.6 135.272)" fill="#da2032"/><path d="M130.573,104.485,125.2,98.158s2.875-4.792-.384-7.668-8.051-4.026-12.461-9.969c0,0,5.943-12.845,3.835-25.5s-3.387-8.115-4.537-15.784-2.812-14.569-6.519-18.4S96.192,10.355,96.576,7.16,95.042-.125,92.614,0,80.473,7.16,83.284,10.738s6.262,4.6,5.879,12.142,4.856,17.254,4.217,23.9-5.432,11.886-4.728,18.148c.1.924-3.706-.255-3.706-.255C87.438,70.936,72.676,76.5,72.676,76.5s-2.939,5.048-1.662,8.5c0,0-.255,1.406-4.6,1.15s-12.781-3.323-21.344,0a35.155,35.155,0,0,0-21.6-9.33s-8.9-10.038-14.251-9.586C2.8,67.772-1.458,72.613.465,77.709c1.278,3.387,5.049,4.153,9.138,7.6s6.838,9.778,14.634,13.356,17.382,4.09,22.366,7.285,18.532,9.969,33.613.894c0,0,3.323,3.068,3.579,9.714s5.5,9.969,8.946,9.841l5.24,6.39S111.53,114.262,130.573,104.485Z" transform="translate(11.536 22.66)" fill="#f6c32c"/><path d="M.142,11.671c-.326-.46-.02-1.461.221-1.983.719-1.461,1.773-2.753,4.96-5.032C8.616,2.46,12.521-.172,17.2.009a.725.725,0,0,1,.687.775c-.1,1.525-.988,5.187-6.721,8.568C5.755,12.546.841,12.66.142,11.671Z" transform="translate(77.644 80.312)" fill="#1a1a1a"/><path d="M15.624,6.327,9.3,0,0,5.655l4.457,7.812S12.317,12.27,15.624,6.327Z" transform="translate(77.599 77.874)" fill="#ffc9af"/><path d="M11.411,18.7S.292,21.092,0,8.343,12.754,1.25,12.754,1.25s12.654,5.817,7.86,12.269C18.121,16.875,11.411,18.7,11.411,18.7Z" transform="translate(67.816 66.273)" fill="#ffc9af"/><path d="M11.349,17.608a2.575,2.575,0,0,1-2.612,1.1c-1.358-.4-2.228-1.678-1.725-4.218,0,0-6.614,3.451-7-3.355S6.916-.844,14.2.115,26.886,5.866,27.525,12.384c.527,5.38-2.045,9.458-7.956,10.64a4.744,4.744,0,0,1-3.944-.63,2.951,2.951,0,0,1-1.134-2.517c.048-.951-.082-2.437-1.249-3.011C12.14,16.362,11.683,17.1,11.349,17.608Z" transform="translate(63.589 59.357)" fill="#55353a"/><path d="M18.791,13.437c-2.082,4.914-8.922,9.4-13.836,7.317S-1.088,10.811.994,5.9a9.664,9.664,0,0,1,17.8,7.541Z" transform="translate(73.333 48.176)" fill="#55353a"/><path d="M.008,0s-.48,11.119,6.135,19.459S17.837,29.523,17.837,29.523,18.891,24.059,10.36,11.5C4.77,3.274.008,0,.008,0Z" transform="translate(248.884 134.237)" fill="#1a1a1a"/><path d="M.02,7.959,13.44,0S24.272-.284,27.531,4.413s2.2,10.736,1.917,10.831S11.81,25.788,11.81,25.788s-4.874-1.871-8.531-8.436C-.459,10.643.02,7.959.02,7.959Z" transform="translate(251.363 132.124)" fill="#ffc9af"/><path d="M0,8.915,6.231,0,38.343,25.306l-22.335-1.15a24.589,24.589,0,0,0-5.751-9.873C6.967,10.782,0,8.915,0,8.915Z" transform="translate(264.803 123.214)" fill="#1a1a1a"/><path d="M0,2.588,2.013,0,34.221,25.785l-2.109,2.109Z" transform="translate(271.034 120.626)" fill="gray"/><path d="M5.318,0S.477,5.851.046,19.363C-.434,34.412,3.017,39.684,3.017,39.684s2.855-2.405,3.547-20.033C7.139,4.984,5.318,0,5.318,0Z" transform="translate(251.434 204.019)" fill="#1a1a1a"/><path d="M2.022,0l15.72,1.342s14.091,1.822,17.83,9.682S37.2,22.142,37.2,22.142L1.638,21.471S-.141,19.852.009,9.681C.1,3.163,2.022,0,2.022,0Z" transform="translate(253.196 212.935)" fill="#ffc9af"/><path d="M0,7.381,12.557,0,40.45,29.044,18.5,27.99s2.013-7.285-5.368-13.132S0,7.381,0,7.381Z" transform="translate(269.596 206.895)" fill="#1a1a1a"/><path d="M0,1.821,3.259,0,30,28.948l-2.109,1.917Z" transform="translate(282.153 205.075)" fill="gray"/><path d="M34.572,2.588l.075-.015L32.463,0S16.1,6.774,0,28.245C0,28.245,22.494,4.889,34.572,2.588Z" transform="translate(104.279 120.818)" fill="#1a1a1a"/><path d="M2.588,9.33,0,6.263A15.506,15.506,0,0,0,5.591,0,39.783,39.783,0,0,1,2.588,9.33Z" transform="translate(121.309 93.849)" fill="#1a1a1a"/><path d="M0,8.946c.114.033.3.085.535.147A29.954,29.954,0,0,0,18.021,4.6,33.829,33.829,0,0,1,15.593,0,23.07,23.07,0,0,1,0,8.946Z" transform="translate(73.732 124.907)" fill="#1a1a1a"/><path d="M1.885,0S6.126,17.435,0,26.86" transform="translate(104.348 100.414)" fill="none" stroke="#e54c1d" stroke-linecap="round" stroke-linejoin="round" stroke-width="2.276"/><path d="M0,5.714S4.3.884,12.958,0" transform="translate(113.301 112.135)" fill="none" stroke="#e54c1d" stroke-linecap="round" stroke-linejoin="round" stroke-width="2.276"/></g></g></svg>