<svg height="200" viewBox="0 0 530 200" width="530" xmlns="http://www.w3.org/2000/svg" xmlns:xlink="http://www.w3.org/1999/xlink"><clipPath id="card-space-illus-h-a"><path d="m10 0h510a10 10 0 0 1 10 10v190a0 0 0 0 1 0 0h-530a0 0 0 0 1 0 0v-190a10 10 0 0 1 10-10z" transform="translate(321 460)"/></clipPath><linearGradient id="card-space-illus-h-b" gradientUnits="objectBoundingBox" x1=".168" x2="1.072" y2="1.05"><stop offset="0" stop-color="#ff5050"/><stop offset="1" stop-color="#ac00ff"/></linearGradient><g clip-path="url(#card-space-illus-h-a)" transform="translate(-321 -460)"><path d="m0 0h530v200h-530z" fill="url(#card-space-illus-h-b)" transform="translate(321 460)"/><g fill="#00ebe5" transform="matrix(.74314483 .66913061 -.66913061 .74314483 434.071 -3385.739)"><path d="m2626.617 2879.251c-.119-1.373 1.3-2.161.317-3.453-.4-.528.59-.749.927-1.108a39.97 39.97 0 0 1 6.583-5.524c1-.684 2.377-.339 3.526.183.269.123.578.384.432.776-.192.512-.539.069-.812.092a1.279 1.279 0 0 0 -1.086.428c.86.732 1.578 1.595 2.882 1.665.921.05.659 1.1.687 1.534.068 1.048.771 1.373 1.375 1.955.579.559.84 1.307 1.93.9a1.265 1.265 0 0 1 1.424.787c-.545.524-1-.018-1.492-.158-.286 1.436.792 1.307 1.542 1.536.389.12.93.043.993.642.069.665-.748.278-.929.816 1.18.319 1.594 1.006.3 1.611-.882.413-.122 1.42-1.045 1.682a3.189 3.189 0 0 0 -.631-1.595c-.793.362.035.937-.177 1.384-.829.057-1.048-1.132-2.025-.648.248-.694 1.895-1.38-.129-1.415-.66-.011-1.032-1.269-1.995-.483-.247.2-.318-.367-.323-.534a1.981 1.981 0 0 0 -2.024-1.99c-1.137.017-2.763-.655-3.375 1.226-.149.462-.684.821-1.089 1.173-.6.526-1.384.77-1.071 1.983a1.283 1.283 0 0 1 -1.725 1.3c-1.159-.323-1.879.115-1.808 1.333.044.758-.293.364-.621.511-1.27.572-2.886-.688-3.954.894-.526.779-.918 1.15.462 1.215-1.658.495-3.327.955-4.97 1.5a1.9 1.9 0 0 1 -2.284-.882c-.275-.363-.29-.779-1.026-.628s-1.326-.591-1.513-1.238a9.309 9.309 0 0 0 -1.828-2.823 1.388 1.388 0 0 0 -2.43-.169c-1.7 2.1-4.105 3.458-5.68 5.647-.655.911-2.333.711-2.362 2.249a4.984 4.984 0 0 0 -1.244-.062c-.9.178-1.781.432-2.66.69-.8.234-1.439.236-1.528-1.05-.206 1.53-.948 1.541-2.007 1.175-.384-.133-1 .015-.967-.5.015-.255.485-.915 1.1-.624.478.226.92.329.9-.347-.026-.752-.738-.359-1.016-.317a4.59 4.59 0 0 1 -5.1-2.441 1.742 1.742 0 0 0 -2.255-.643c-2.652 1.1-5.456 2.346-7.138 4.553-1.1 1.448-2.585 2.272-3.693 3.587-.966 1.148-2.426 1.753-3.331 3.1-.789 1.173-4.331 1.021-5.257-.206-1.666-2.207-4.179-3.775-5.022-6.605-.233-.779-.753-.62-1.278-.315-.936.543-1.866 1.1-2.808 1.631-.487.276-.87.748-1.6.392s-.982.455-1.329.876c-.186.224 0 .888-.273.85-1.6-.218-1.5 1.5-2.424 2.035-.608.355-.576.353-1.637.286-.309-.019-.681.293-.958.53a18.736 18.736 0 0 1 -7.12 3.961 1.711 1.711 0 0 1 -2.3-.8c-.926-1.688-2.51-2.727-3.747-4.1-.431-.481-.766-.624-1.238.025a20.4 20.4 0 0 1 -5.6 5.282c-.462.294-.284 1.246-.918 1.4-1.431.344-2.888.587-4.344.807-.377.057-.573-.242-.38-.652.2-.436.088-.709-.395-.849-1.778-.517-2.177-1.969-.934-3.492 1.8-2.211 3.647-4.391 5.455-6.6s3.6-4.411 5.366-6.647a8.173 8.173 0 0 1 2.083-2.028c.939-.57 2.254-.793 2.773.2.936 1.784 2.7 3.055 3.128 5.11.269 1.284.791.877 1.5.346 4.373-3.3 8.854-6.432 14.1-8.247.1-.035.2-.084.3-.118 6.218-1.991 6.971-.56 9.393 4.526 1.182 2.481.537 2.816 3.188.708 2.712-2.157 5.156-4.651 8.084-6.537 2.369-1.526 4.727-3.092 7.8-2.62 2.255.346 3.828 1.792 5.254 3.328 2.358 2.542 4.71 1.974 7.174.066 2.676-2.07 5.163-4.382 7.777-6.534 3.042-2.5 4.847-2.161 7.261 1.325.523.755.921 1.607 1.5 2.311a3.557 3.557 0 0 0 4.913.854 45.117 45.117 0 0 0 5.285-2.912c.248-.182.517-.742.913-.214.266.354.025.729-.165 1.056-.521.876-.524.874.443 2.076zm5.78-2.1c.564-.831.828-1.322-.214-1.966-.551-.341-1.631-.421-1.6-1.532 0-.188-.378-.056-.539.071-.122.095-.49.07-.247.413.793 1.121.179 1.878-.773 2.608.779-.187 1.471.8 2.236-.165.205-.261-.183-1.056.541-.811.522.178.647.7.599 1.382zm-71.287 6.7-.135-.418a9.445 9.445 0 0 0 -6.116 2.325zm61-3.524c-1.409.374-2.423 1-3.6 1.035-.357.012-.878.082-.8.561.06.384.541.4.932.43 1.458.103 2.504-.545 3.458-2.022zm.944-.012c1.049-.414 2.693.324 2.215-1.869-.837.454-1.834.575-2.22 1.873zm5.542-.2c-1.01.823-1.8 1.469-2.6 2.112-.129.1-.653-.238-.368.3a.781.781 0 0 0 .523.23c.649-.908 2.239-.884 2.44-2.641zm-70.723 12.751 3.863-2.172a6.454 6.454 0 0 0 -3.868 2.173z"/><path d="m2623.451 2926.255a7.647 7.647 0 0 1 -8.318-2.252 2.115 2.115 0 0 0 -2.141-.9c-2.179.7-4.519.517-6.671 1.523-3.309 1.545-6.4 3.562-9.916 4.656-1.332.414-2.672.8-4.032 1.207-.131.693.712.195.84.626-.164.063-.328.193-.459.167-2.236-.455-4.79-.243-6.327-2.33-.578-.785-1.488-.98-2.07-1.717-.206-.259-1.353.054-1.976.325-3.5 1.524-6.952 3.165-10.466 4.657a24.291 24.291 0 0 1 -3.871 1.068 1.247 1.247 0 0 1 -1.515-.481c-.379-.493-1.13-1.539-2.1-.507-.691-.813-2.089-.01-2.68-1.391-.67-1.565-1.922-1.306-3.463-.759-2.128.757-3.123 2.873-5.154 3.6a1.522 1.522 0 0 0 -.828.957c-.119.3-.3.79-.484.808-1.777.165-1.62 2.031-2.6 2.865-1.562 1.329-3.087 2.723-5.147 3.275-.642.172-.62.193-.957 1.03-.059.145-.337.234-.531.286-1.33.357-1.9.037-3.333-1.467-.274-.288-1-.142-1.51-.212-1.779-.239-2.213-2.128-3.555-2.909-.248-.144-.593-.693-.722-.333-.544 1.5-2.56 1.454-3.015 3.021a4.711 4.711 0 0 1 -.856 1.365c-.353.473-.785 1.051-1.387.955-.511-.082-.56-.768-.553-1.24.014-.951-1.4-.768-1.309-1.979a7.406 7.406 0 0 1 1.282-3.623c1.7-2.523 2.439-5.4 3.4-8.2.276-.8.525-1.367 1.474-1.414a2.037 2.037 0 0 1 1.907 1.042 16.831 16.831 0 0 1 2.4 4.8 1.573 1.573 0 0 0 1.908 1.122c2.105-.384 4.1-.986 5.43-2.9 2.437-3.51 6.039-5.61 9.516-7.888a24.624 24.624 0 0 0 2.338-1.971 4.809 4.809 0 0 1 3.094-1.156 2.544 2.544 0 0 1 2.444 1.755c1.482 3.026 2.818 3.458 5.99 2.242 3.4-1.3 6.765-2.73 10.242-3.784 1.606-.487 3.091-1.4 4.876-1.428 1.511-.026 2.867.168 3.705 1.481.907 1.421 2.129 1.494 3.541 1.174a50.316 50.316 0 0 0 11-3.858 50.891 50.891 0 0 1 8.265-3.318c2.148-.616 4.355-.571 6.1 1.146a4.88 4.88 0 0 0 4.957 1.123 74.973 74.973 0 0 0 13.4-4.92c5.089-2.236 9.972-4.93 15.189-6.884 1.238-.463 2.467-1.043 3.885-.446-.485 1.073-1.434 1.121-2.225 1.34a21.969 21.969 0 0 0 -4.908 2.015c-.2.111-.588.276-.38.587.229.343.427.043.725-.087 2.019-.88 3.868-2.294 6.237-2.171.587.03 1.442-.316 1.074.906-.132.439.423.367.652.538s.574.463.4.592c-.671.5-.646 1.619-1.289 1.882a37.787 37.787 0 0 0 -7.2 3.884c-2.466 1.708-5.559 2.542-7.426 5.1-1.982-.121-2.516 2.439-4.651 2.371-1.384-.044-2.383 1.484-3.449 2.325-2.075 1.637-4.425 2.144-6.821 2.709 1.166-1.108 2.9-1.034 4.133-2.019-1.939.74-3.984 1.057-6 1.634.593.607 1.41-.48 1.891.385zm-46.984-3.1c-3.736.051-6.767 2.569-10.4 2.98-.387.043-.805.357-.69.755.145.5.68.449 1.1.336 1.784-.474 3.52-1.18 5.288-1.6 1.857-.444 3.175-1.562 4.666-2.507 2.109.072 3.917-.886 5.875-1.588-1.335-1.203-3.999-.406-5.839 1.624zm23.545-3.132a49.351 49.351 0 0 1 -10.706 3.549c1.886 1.162 9.094-1.266 10.706-3.55zm11.078-3.371c-1.023-.974-3.969-.139-5.069 1.451 1.524-.97 3.333-.929 5.069-1.452zm-72.293 19.532c1.768.23 2.935.02 3.861-1.574-1.378.54-2.581.598-3.858 1.573zm62.7-15.907c.948-.767 2.351-.943 3.043-2.1-1.068.617-2.808.215-3.04 2.099zm-9.054 8.757a7.867 7.867 0 0 0 5.532-1.56zm-19.751 1.715a9.778 9.778 0 0 0 -4.3 1.421 7.733 7.733 0 0 0 4.3-1.422zm46.742-11.867.078.467a6.32 6.32 0 0 0 4.136-1.363z" transform="translate(-1.599 -14.203)"/><path d="m2631.618 2971.737c.651.3 1.466-.243 2 .585a3.528 3.528 0 0 1 -2.6.531 2.956 2.956 0 0 0 -1.426.023c-1.151.39-2.021.394-2.026-1.247 0-.748-2.737-2.16-3.625-1.993-1.1.207-2.48.154-3.271.6-2.125 1.2-4.73 1.7-6.281 3.831-.3.412-.735.353-1.12.5-1.425.554-3.214.329-4.091 2.1-.344.692-.5-.718-1.244-.361a8.371 8.371 0 0 1 -2.848.488c-2.36.205-3.68-.413-4.093-2.64-.269-1.451-.852-.919-1.614-.727.293-.709.979-1.4-.415-1.5-.911-.066-.947-1.106-1.393-1.67-.312-.4.338-.2.57-.287.4-.15.872-.319.958-.86-.5-.062-.337-1.087-1.194-.744-.538.216-1.121-.105-1.682-.533.481 1.275-.58 2.1-.695 3.2a6.59 6.59 0 0 0 -.192 2.49c.158.575-.281.845-.458.524-.529-.951-1.861-1.138-2.065-2.363-.079-.481.186-.552.459-.693s1.1.11.8-.354c-.577-.9-.319-1.8-.436-2.7-1.088 1.021-.807-.717-1.443-.767-.15-.012-.311-1.083.385-1.077 1.8.014 1.635-1.406 1.54-2.327a2.682 2.682 0 0 1 1.59-2.762c.6.311-.25 1.416.809 1.481.859.053.764-.794 1.146-1.188.208-.215.5-.495.252-.846s-.62-.128-.9-.051c-1.468.41-1.341-1-1.052-1.315.927-1.021 1.329-2.436 2.5-3.245 1.237-.858 2.087-.509 2.353.945a.822.822 0 0 0 .224.42c2.382 2.281 1.893 5.209 1.736 8.016-.135 2.4-.05 2.5 2.328 1.922a40.78 40.78 0 0 0 7.767-3.257 52.9 52.9 0 0 1 8.925-3.737c2.491-.663 4.756-.262 6.42 1.9a2.337 2.337 0 0 0 3.116.747 91.74 91.74 0 0 0 12.278-6.425 40.217 40.217 0 0 1 6.16-2.789 6.063 6.063 0 0 1 6.8 1.7 6.141 6.141 0 0 0 5.971 1.957c6.627-.959 12.924-3.1 19.206-5.28 6.481-2.25 12.851-4.8 19.17-7.469a3.687 3.687 0 0 1 1.09-.3c.6-.051 1.362-.071 1.552.558.152.5-.626.621-.978.925-.336.291-1.176.286-.917.9.274.655.935.126 1.436.1.681-.03 2.252-.913 1.1 1.038a.475.475 0 0 0 .068.414c1.458 1.919.71 3.593-1.65 4.524a31.92 31.92 0 0 0 -4.763 2.4c-2.938 1.783-6.1 3.083-9.158 4.589a127.79 127.79 0 0 1 -16.5 6.84 29.505 29.505 0 0 1 -10.2 1.573 1.961 1.961 0 0 0 -1.544.4 2.74 2.74 0 0 0 1.512.748c-.921-.177-1.915-.141-2.581-1.031-.279-.373-.685-.339-1.117-.409-.584-.095-1.634-.17-1.08-1.338a1.074 1.074 0 0 0 .052-.3c-1.344.345-.878-1.311-1.666-1.52a5.238 5.238 0 0 1 -2.494-1.539 2.094 2.094 0 0 0 -1.945-.427c-.589.091-1.327.993-1.445-.44a1.236 1.236 0 0 0 -.586-.012.436.436 0 0 0 -.2.675c.376.651.253 1.265-.406 1.448-1.045.292-1.679 1.425-2.837 1.345-.6-.041-.288-.846-.781-1.193-.375.843-1.83.986-1.313 2.347.018.05-.134.24-.194.235-1.05-.1-1.171.443-1.42 1.381-.265 1-1.644 1.051-2.575 1.444-.146.062-.4.147-.4.227-.069 2.188-1.886.759-2.747 1.312-.263.17-.494-.123-.7-.444-.84-1.3-1.584-1.307-2.526-.235a7.532 7.532 0 0 1 -1.386 1.012zm34.374-12.273a40.627 40.627 0 0 0 -5.816.115c-.207.067-.458.129-.394.4a.85.85 0 0 0 .333.51c1.135.651 4.775.001 5.877-1.025zm-17.182-3.37c1.211 1.111 2.637.393 3.984.4a.486.486 0 0 0 .494-.518c.016-.233-.146-.493-.351-.408-1.337.554-2.893-.687-4.126.526zm-42.214 12.774c-1 .13-2 .223-2.986.41-.268.051-.813-.407-.832.333-.014.546.32.677.772.829 1.445.484 2.15-.68 3.05-1.572zm62.49-2.889c-2.242.491-4.54.653-6.8 1.042 2.402.437 4.598-.321 6.801-1.042zm-6.419-2.3.036.255c1.6-.2 3.193-.4 4.787-.615a.409.409 0 0 0 .243-.319.494.494 0 0 0 -.594-.411c-1.495.341-2.982.721-4.472 1.088zm9.766-6.191a10.858 10.858 0 0 0 -3.869 1.162c1.25-.514 2.956.875 3.869-1.164zm-77.2 7.471c-.482.435-.941.743-.673 1.363s.82.9 1.964.986c-1.129-.642-.951-1.516-1.295-2.351zm11.258 10.812c-1.151-1.164-1.151-1.164-2.522.288z" transform="translate(-28.101 -30.399)"/><path d="m2719.5 2984.229a7.894 7.894 0 0 1 -4.481 1.047c1.529-1.059 3.145-.471 4.481-1.047z" transform="translate(-77.679 -46.549)"/></g><path d="m1083.652 1666.945c.08.938.706 2.109-1.151 1.447-.987-.352-1.546 1.266-2.886 1.417a17.722 17.722 0 0 0 -2.834.773c-.616.2-1.4-.036-1.616.878-.067.282-.263.48-.537.323-1.4-.8-2.312.329-3.313.874a60.373 60.373 0 0 0 -11.475 7.841 95.588 95.588 0 0 0 -13.518 14.479c-.074.1-.112.269-.207.308-.888.365.157 2.847-1.912 1.833-2.823-1.383-3.469-2.618-2.4-4.715 1.261-2.467 2.634-4.885 4.092-7.242 5.282-8.543 12.668-14.9 21.315-19.769a44.507 44.507 0 0 1 18.911-5.367 50.95 50.95 0 0 1 15.353.738 22.716 22.716 0 0 1 5.179 1.613c.832.426 1.692.636 2.445.992 2.923 1.382 6.281 2 8.573 4.648.559.646 1.726.581 2.605 1.172 8.291 5.569 13.517 13.214 15.089 23.018 1.536 9.573 1.9 19.227-.4 28.8a28.081 28.081 0 0 1 -2.514 6.016c-1.135 2.261-2.617 4.366-3.43 6.795a3.357 3.357 0 0 1 -.786 1.456c-2.347 2.049-3.981 4.724-6.192 6.9a53.106 53.106 0 0 1 -8.152 6.473c-2.3 1.519-4.423 3.35-6.652 4.976-2.718 1.984-6.029 2.957-9.221 4.061a54.768 54.768 0 0 1 -9.046 2.018c-.5.084-.92.379-1.3-.219a.715.715 0 0 0 -.619-.268c-4.816 1.6-11.225.069-15.1-1.942a42.045 42.045 0 0 1 -12.859-9.851 28.547 28.547 0 0 1 -5.951-11.7c-.846-3.381-1.8-6.723-2.378-10.174-.809-4.8.489-9.078 2.873-13.118a107.071 107.071 0 0 1 6.617-9.791c2.373-3.163 5.871-4.486 9.333-5.585a37.791 37.791 0 0 1 12.924-1.725 11.723 11.723 0 0 1 7.936 3.334 32.534 32.534 0 0 1 7.006 10.225c1.458 3.19 1.517 6.684 2.176 10.045.157.8-.386 1.373-1.348 1.44-.815.057-1.458.4-1.134 1.43.128 0 .189.005.25 0 .787-.07.9-1.651 1.89-1 .9.588.656 1.676.579 2.612a14.55 14.55 0 0 1 -4.739 10.034c-2.452 2.2-4.63 4.651-7.994 5.8-6.791 2.329-10.154.355-15.1-4.225-1.627-1.505-2.116-3.631-2.878-5.608-2.272-5.9 2.167-9.851 7.143-9.9-.537 2.018-3.23 1.607-4.137 3.7 1.7-.512 2.761-1.5 4.026-2.089.563-.26 1.557-.947 1.78-.238.265.84 1.663 1.182.7 2.847a24.522 24.522 0 0 0 -2.719 5.773 2.245 2.245 0 0 0 2.442 3.005 20.273 20.273 0 0 0 12.643-5.955c2.221-2.188 2.825-5.39 2.578-8.509-.26-3.28-.41-6.6-1.766-9.711-.407-.933-2.31-4.291-3.146-4.918a3.563 3.563 0 0 0 -2.207-.693c-.427 0-1.131.456-1.2-.6-.036-.5-.927-.52-.96-.117-.114 1.352-1.155 1.013-1.817 1.053-3.632.216-7.014 1.559-10.529 2.292a4.155 4.155 0 0 0 -3.156 2.909 2.836 2.836 0 0 1 -1.167 1.652c-2.873 1.75-3.652 4.809-5.014 7.551-.807 1.626-2.328 2.83-2.891 4.686a17.979 17.979 0 0 0 -.312 9.19 49.628 49.628 0 0 0 3.013 9.867c2.062 4.552 6.029 6.806 10.51 8.409 1.734.621 3.728.261 5.337 1.577.251.206 1.743-.609 2.776-.708 9.817-.945 18.6-4.659 26.908-9.836 5.336-3.327 9.336-7.849 12.846-12.931 5.33-7.716 6.908-16.494 7.1-25.6a90.619 90.619 0 0 0 -.628-13.716 18.308 18.308 0 0 0 -10.009-14.426c-2.649-1.451-5.377-2.79-8.03-4.219a6.683 6.683 0 0 0 -4.613-1c-1.645.356-3.588-.58-5.472-.635-2.026-.06-4.015-.847-6.087-.3-.534.141-.654-.037-.359-.572a.343.343 0 0 0 -.48-.465c-1.69 1.516-4.1.2-5.926 1.672-1.104.877-1.447-1.23-2.681-1.515zm-8.471-2.361c-5.46-.481-22.684 12.164-25.178 17.874 7.377-7.39 15.207-14.138 25.178-17.874zm17.956 86.327c1.592-.495 3.211-.913 4.769-1.5 6.235-2.336 11.707-6.027 17.063-9.879a1.624 1.624 0 0 0 .6-2.447c-6.388 6.443-14.458 10.005-22.432 13.826zm-9.991-17.071c.8-.248 1.6-.539 2.413-.735 2.542-.612 4.17-2.658 6.27-3.962a.871.871 0 0 0 .29-1.173c-.3-.495-.677-.142-.892.135-2.106 2.716-5.244 3.869-8.081 5.735zm-14-34.148a8.57 8.57 0 0 0 -5.3 2.726c2.06-.348 3.583-1.718 5.301-2.726zm4.137-29.117c-.684 0-1.17.025-1.652-.006a1.333 1.333 0 0 0 -1.3.832c-.12.215-.2.56.074.636a1.317 1.317 0 0 0 1.29-.474c.379-.37 1.091-.157 1.588-.988z" fill="#00ebe5" transform="translate(-410.127 -1209.981)"/><ellipse cx="13.568" cy="2.313" opacity=".1" rx="13.568" ry="2.313" transform="translate(743.153 529.583)"/><ellipse cx="43.612" cy="8.246" opacity=".1" rx="43.612" ry="8.246" transform="translate(451.162 550.725)"/><ellipse cx="70.622" cy="12.039" opacity=".1" rx="70.622" ry="12.039" transform="translate(617.209 553.395)"/><ellipse cx="72.785" cy="13.422" opacity=".1" rx="72.785" ry="13.422" transform="translate(341.937 612.024)"/><ellipse cx="66.595" cy="15.404" opacity=".1" rx="66.595" ry="15.404" transform="translate(603.948 645.439)"/><path d="m488.089 707.06 61.225 15.74 58.805-45.081-63.383-12.034z" fill="#55b7f9" transform="translate(20.378 -119.697)"/><path d="m0 21.08 27.226-21.08" fill="none" stroke="#c0fffd" stroke-linecap="round" stroke-miterlimit="10" stroke-width="3" transform="translate(559.81 567.708)"/><path d="m0 22.624 29.014-22.624" fill="none" stroke="#c0fffd" stroke-linecap="round" stroke-miterlimit="10" stroke-width="3" transform="translate(567.714 569.218)"/><path d="m575.719 727.824c6.765-1.833 13.162-11.376 18.28-8.064s-.3 10.167-5.225 11.812-8.12 3.839-11.5 5.941c-5.379 3.663-16.27 4.665-16-.455s7.042-8.32 14.445-9.234z" fill="#fff" transform="translate(-25.58 -153.219)"/><path d="m741.894 563.784s9.21 13.815 18.838 8.373l2.652 2.372 4.186-4.6-1.67-7.959-10.605-6.559-11.442 5.3z" fill="#ffaea1" transform="translate(-139.003 -50.449)"/><path d="m1034.916 559.244h3.363s-5.475-25.421-5.632-28.784l-3.911-8.448s-3.676.078-3.911-1.8 3.911-8.135 3.911-8.135 7.118-11.42 7.9-11.342-2.19 17.677-.782 23.074 20.024 37.7 20.024 37.7l-2.738 8.369-18.46-4.233z" fill="#f78174" transform="translate(-316.667 -16.115)"/><path d="m1038.507 570.717 17.711 1.154s-12.622-22.2-16.147-30.754a3.594 3.594 0 0 0 -1.752-1.869c-2.735-1.329-8.926-4.624-8.209-6.892.916-2.9 1.26-10.382-.057-17.864s4.485.195 8.455 13.38c4 6.963 38.476 40.974 43.361 47.387s2.138 18.169-12.672 18.169h-39.334z" fill="#ffaea1" transform="translate(-319.836 -22.91)"/><path d="m1098.186 673.512s5.684 7.9 11.1 8.489c0 0 1.025 1.245-.513 1.1s-7.616-2.449-12.085-9.685z" fill="#f99187" transform="translate(-361.803 -124.551)"/><path d="m1060.683 656.5 9.594.535s.5-.563-.226-.712-9.558-.712-9.558-.712z" fill="#db6158" transform="translate(-339.07 -113.371)"/><path d="m874.516 656.346h-23.143s-7.656-2.2-15.438-17.769-3.634-24.712-3.634-24.712l13.318-3.143s7.517 15.318 21.9 18.124l4.608-1.423 4.978 6.623z" fill="#ff127e" transform="translate(-195.081 -85.182)"/><path d="m878.63 671.154c-26.511 1.359-32.391-10.267-32.279-13.638-.252-3.218 0-19.888 0-19.888l-4.472 2.955-2.879 10.808c.522 1.307 1.128 2.667 1.835 4.082 7.782 15.572 15.438 17.769 15.438 17.769h23.144l.109-.94z" fill="#d8257f" transform="translate(-199.981 -102.078)"/><path d="m859.044 624.223s-1.136 4.07-4.751 4.421-.4-4.971-.4-4.971l1.456-.5z" fill="#ce0268" transform="translate(-208.507 -93)"/><path d="m811.845 577.241 12.982 8.238-3.6 4.218-6.93.513z" fill="#f78174" transform="translate(-182.929 -64.157)"/><path d="m679.261 678.428a1.164 1.164 0 0 1 1.324 1.057l1.354 16.491h-1.027l-2.635-16.209a1.164 1.164 0 0 1 .984-1.339z" fill="#283054" transform="translate(-99.044 -127.691)"/><path d="m724.481 685.594-18.109 6.106s-5.1-1.541-5.8-.941l-9.2 7.9h12.198l27.506-6.537z" fill="#f78174" transform="translate(-107.272 -132.199)"/><path d="m715.867 705.3s-3.739 4.733-2.319 5.68 6.389-3.36 6.389-3.36" fill="none" stroke="#db6158" stroke-linecap="round" stroke-miterlimit="10" transform="translate(-121.001 -144.572)"/><path d="m971.253 676.687h-33.49s-11.381-13.2-2.393-28.923c0 0 8.038-4.763 12.981-4.648 4.433.1 24.032 2.314 28.024 2.769a1.284 1.284 0 0 1 1.036.767c.848 1.96 2.944 8.014 1.169 16.8-2.18 10.813-6.38 13.235-7.327 13.235z" fill="#0957d3" transform="translate(-258.328 -105.523)"/><path d="m741.205 548.9s1.135-2.587 4.886-2.522 8.212 3.039 10.541 2.845c0 0-1.811-2.975.388-3.751s4.318 1.2 5.133 3.024a4.176 4.176 0 0 0 2.238.274s.582 6.078-2.651 10.282-11.834 15.586-10.088 22.73 6.725 12.29 11.575 12.918 11.833-3.833 11.833-3.833l-1.875-32.812s.323-6.5-3.492-9.284l-1.1-1.94s-5.69-15.843-14.1-17.589c-5.233-.903-15.91 8.215-13.288 19.658z" fill="#3f1618" transform="translate(-138.314 -33.978)"/><path d="m792.847 603.307c-5.044 6.181-10.262 13.822-10 20.627a11.733 11.733 0 0 0 6.782 3.836c3.676.477 8.575-1.97 10.733-3.183.321-1.159.469-1.934.469-1.934l.351-3.636-1.594-27.893s.323-6.5-3.492-9.284c-.004.001 4.18 12.36-3.249 21.467z" fill="#331215" transform="translate(-164.712 -67.046)"/><path d="m744.36 619.171s-3.431 40.919-10.266 41.529-47.448.916-47.448.916-11.756 4.733-11.146 2.137 2.9-7.023 5.344-7.329a74.949 74.949 0 0 1 9.008.153s35.628-7.94 38.655-8.7l2.264-23.819z" fill="#ffaea1" transform="translate(-97.296 -90.488)"/><path d="m822.861 631.121s7.5-3.47 13.4-3.266l.414-3.937-2.036-1.229-10.539 4.45-1.033 1.819z" fill="#f99187" transform="translate(-189.847 -92.697)"/><path d="m823.413 607.682s1.067-10.281 1.152-12.182 5.205-8.045 11.861-6.423c5.034 2.048 4.306 13.567 4.306 13.567s-6.611-1.357-17.319 5.038z" fill="#fc4ca4" transform="translate(-190.194 -71.421)"/><path d="m792.53 595.842a7.616 7.616 0 0 0 2.072-2.713 6.085 6.085 0 0 1 -1.172 3.519z" fill="#f99187" transform="translate(-170.8 -74.134)"/><path d="m1005.157 646.656a1.284 1.284 0 0 0 -1.036-.768c-3.992-.455-23.591-2.666-28.025-2.769 0 0 25.9 7.9 30.79 10.759a24.17 24.17 0 0 0 -1.729-7.222z" fill="#064cb2" transform="translate(-286.073 -105.526)"/><path d="m937.763 684.535h33.49c.584 0 2.4-.923 4.22-4.157-18.636 2.063-32.979-.54-37.751-5.535-3.989-4.47-2.353-19.231-2.353-19.231-8.987 15.727 2.394 28.923 2.394 28.923z" fill="#074da0" transform="translate(-258.328 -113.371)"/><path d="m804.215 578.567a6.757 6.757 0 0 0 4.2-1.94 8.321 8.321 0 0 1 .636 1.122 7.638 7.638 0 0 1 -4.8 2.336s-.042-1.09-.036-1.518z" fill="#fff" transform="translate(-178.138 -63.772)"/><path d="m559.01 590.228 1.662 16.848s12.012 17.453 15.639 23.723c0 0-.227 8.991-1.058 9.217s-3.475-9.066-3.475-9.066-23.346-22.212-23.648-25.914-.263-11.52-.263-11.52l3.814-2.532z" fill="#cad3ff" transform="translate(-17.161 -72.312)"/><path d="m559.1 592.613.147 1.324a24.028 24.028 0 0 1 -11.381 4.188v-3.3l9.293-2.515z" fill="#a3b0e2" transform="translate(-17.16 -73.616)"/><path d="m396.52 648.958s1.124 1.9 4.66 1.542c4.055-.259-2.64-4.6-2.64-4.6l-1.509 1.25z" fill="#054726" transform="translate(77.88 -107.274)"/><path d="m367.935 671.021s-7.825-5.892-9.732-5.293-8.29 3.33-12.6 3.509-2.824 2.738 5.563 3.765 12.067 1.2 13.778 2.482 2.991-4.463 2.991-4.463z" fill="#cad3ff" transform="translate(111.333 -119.696)"/><path d="m486.2 633.328s10.954 8.315 22.079 17.815c5.734 5.135 1.027 11.468-1.968 11.125-7.445 1.626-8.729-1.125-11.3-2.959s-21.138-19.125-21.48-19.465 5.734-5.3 5.734-5.3z" fill="#0b2a49" transform="translate(29.529 -99.377)"/><path d="m426.612 639.048s25.154 16.33 25.864 22.416-12.679 8-21.6 5.622c-7.506-1.362-31.24-7.413-34.08-11.336-1.116-.981 3.821-7.269 8.1-7.979 0 0-5.993-4.886-7.248-9.847s13.76-4.59 13.76-4.59z" fill="#143760" transform="translate(77.809 -99.377)"/><path d="m428.19 639.048-15.21-5.714s-15.015-.371-13.76 4.59a15.473 15.473 0 0 0 3.033 5.532c.185-1.329 1.023-4.866 4.716-5.04 4.3-.2 16.136 4.583 24.163 2.6-1.8-1.226-2.942-1.968-2.942-1.968z" fill="#0f3051" transform="translate(76.231 -99.377)"/><path d="m445.718 511.32s-17.89-2.894-24.4 6.161c-.707 3.094-1.2 4.952-1.2 4.952s-8.559 15.35-18.039 23.839-8.064 14.643-6.932 17.9c0 0 3.816-6.3 9.937-5.022s21.754 6.791 27.484 2.9 18.888-18.358 18.888-18.358a22.868 22.868 0 0 0 11.743-2.439s-1.119-21.366-9.976-26.057z" fill="#16a564" transform="translate(79.253 -22.484)"/><path d="m434.262 615.531a43.239 43.239 0 0 0 -9.6-.161c6.45 1.457 21.379 6.566 26.949 2.783 5.142-3.491 16.263-15.5 18.492-17.926-3.685 3.694-21.682 16.666-35.841 15.304z" fill="#0f9655" transform="translate(60.205 -78.591)"/><path d="m416.411 672.149s14.566 12.635 23.069 15.66c.8.345.727 1.226-.613.651s-10-4.673-23.887-15.885a8.6 8.6 0 0 1 1.431-.426z" fill="#0f3051" transform="translate(66.288 -123.755)"/><path d="m547.871 588.661 3.42-3.64s6.252-1.509 8.142-2.524a19.069 19.069 0 0 1 .18 3.725 23.046 23.046 0 0 1 -11.742 2.439z" fill="#fff" transform="translate(-17.163 -67.457)"/><path d="m504.249 562.738.651-.375-.326-14.3-.63 10.349z" fill="#127c49" transform="translate(10.421 -45.834)"/><path d="m461.243 541.868-.483 17.465 4.163.564-.41 1.663-4.68-2.058.647-16.313s.582-.963.763-1.321z" fill="#127c49" transform="translate(38.121 -41.944)"/><path d="m469.715 585s.214 10.74 2.778 15.164 16.882 21.005 26.284 28.474c2.137 3.2.321 11 3.1 11.743 1.5 0 1.389-8.441 1.389-8.441s.855 3.526 3.206 2.885c1.8-.675-3.26-7.711-3.26-7.711s-15.79-26.718-20.776-31.509c0 0-.756-9.748-1.511-12.1s-11.21 1.495-11.21 1.495z" fill="#cad3ff" transform="translate(31.916 -67.606)"/><path d="m481.243 588.052s.065.357.114.671a28.8 28.8 0 0 1 -11.561 1.259 5.862 5.862 0 0 1 -.057-1.171c.064-.257 3.8-1.033 3.8-1.033z" fill="#a3b0e2" transform="translate(31.912 -70.774)"/><path d="m462.344 580.693s5.423 2.255 15.781-.487l-.3-4.326s-10.785 1.279-15.477.244z" fill="#fff" transform="translate(36.544 -63.302)"/><path d="m547.871 582.47 9.195-9.832-7.589 9.889s-.697-.006-1.606-.057z" opacity=".25" transform="translate(-17.163 -61.266)"/><path d="m535.739 516.941a9.27 9.27 0 0 0 -1.887-1.343l-7.5-3.871s-.6-.1-1.614-.2c-1.246.5-2.9 1.836-1.415 5.408 2.209 5.318 8.468 5.686 10.595 4.868 1.976-.762 3.068-2.457 1.821-4.862z" fill="#fff" transform="translate(-1.377 -22.891)"/><path d="m534.094 488.249-5.741 6.562s-3.155-.315-2.271 4.164c.966 4.94 8.84 6.235 10.788 4.1 1.514-1.7-.5-3.6-.5-3.6l1.325-1.577a7.782 7.782 0 0 0 8.265-.252c4.606-2.776-4.416-11.167-4.416-11.167l-3.849-1.893z" fill="#cad3ff" transform="translate(-3.382 -5.975)"/><path d="m552.451 514.476a6.472 6.472 0 0 1 -3-3.526 11.565 11.565 0 0 0 1.653 5.085z" fill="#a3b0e2" transform="translate(-18.156 -22.528)"/><path d="m537.182 464.331s1.8-1.97 2.87-1.182-.723 2.87-.723 2.87v.394l1.342-.563s2.532 14.46 15.25 6.048c0 0 6.359-1.208 5.233-7.736-.788-4.952-8.1-6.584-8.1-6.584s1.519-9.173-5.965-12.268-19.02 6.528-18.514 12.887 6.301 6.584 8.607 6.134z" fill="#111f44" transform="translate(-5.035 19.066)"/><path d="m408.437 566.534c10.248-8.026 10.727-16.4 10.727-16.4l.183-4.618c-2.3 3.912-9.475 15.526-17.268 22.5-9.479 8.489-8.064 14.643-6.932 17.9a13.254 13.254 0 0 1 3.45-3.574c-.856-3.607 1.345-9.156 9.84-15.808z" fill="#0f9655" transform="translate(79.253 -44.236)"/><path d="m623.819 684.669h1.515a1.121 1.121 0 0 1 1.121 1.145l-.365 16.832a1.22 1.22 0 0 1 -1.325 1.189l-.385-.033a1.22 1.22 0 0 1 -1.114-1.174l-.568-16.8a1.121 1.121 0 0 1 1.121-1.159z" fill="#1661f7" transform="translate(-64.152 -131.617)"/><path d="m631.581 708.537s2.949 5.658 2.534 6.354-2.986-.548-2.986-1.129a11.19 11.19 0 0 1 .381-1.945z" fill="#cad3ff" transform="translate(-69.446 -146.606)"/><path d="m656.943 857.192 59.925-33.008 40.572 18.244-8.313 15.672-42.453 29.257z" fill="#e9edff" transform="translate(-85.657 -219.228)"/><path d="m0 24.743 44.176-24.743" fill="none" stroke="#e26488" stroke-linecap="round" stroke-miterlimit="10" stroke-width="2" transform="translate(587.035 614.125)"/><path d="m0 24.743 44.176-24.743" fill="none" stroke="#e26488" stroke-linecap="round" stroke-miterlimit="10" stroke-width="2" transform="translate(596.677 620.695)"/><path d="m0 7.325 13.19-7.325" fill="none" stroke="#e26488" stroke-linecap="round" stroke-miterlimit="10" stroke-width="2" transform="translate(606.964 643.532)"/><path d="m851.971 690.443s.267 9.335 9.2 10.936 20.271-2.534 20.271-2.534l3.187-6.7-3.7-1.611s-1.092-.731-6.176-.092l-11.983-4.849-11.659 1.538z" fill="#7a5e4b" transform="translate(-207.59 -132.199)"/><path d="m854.5 705.3a10.806 10.806 0 0 0 8.8 8.454c.08.014.16.025.24.038l2.467-2.839v-2.779s-6.558 4.409-11.507-2.874z" fill="#634a39" transform="translate(-209.713 -144.572)"/><path d="m1012.15 931.915s8.758 5.636 10.06 5.264 19.9 7.72 21.113 14.323c1.116 4.638-42.947-8.661-48.865-10.655l5.988-7.575z" fill="#7a5e4b" transform="translate(-297.604 -286.879)"/><path d="m1010.674 942.892c-5.47-3.406 1.475-10.976 1.475-10.976l-9.406 1.091-3.8 2.169-4.484 5.672c3.546 1.195 20.781 6.446 33.792 9.468-.133-.042-12.144-4.042-17.577-7.424z" fill="#5b4231" transform="translate(-297.604 -286.88)"/><path d="m849.016 673.5s-1.608-3.109 1.072-3.323c1.715 0 1.93 2.894 1.93 2.894s12.544 4.5 15.224-2.894c1.715-5.253-4.181-12.115-12.758-14.044s-18.333 3.86-17.368 9.756 4.502 10.29 11.9 7.611z" fill="#162c68" transform="translate(-198.756 -113.459)"/><path d="m983.152 935.576s12.281-7.815 17.691-8.932a17.421 17.421 0 0 0 -6.956-3.083c-3.779-.61-16.232 6.008-16.232 6.008l-1.2 3.774z" fill="#445c99" transform="translate(-286.297 -281.609)"/><path d="m870.455 640.239s-2.037-14.366 10.828-12.115c8.791 3 4.289 15.974 2.359 16.724s-13.187-4.609-13.187-4.609z" fill="#162c68" transform="translate(-219.66 -95.96)"/><path d="m923.821 973.321s31.372 2.417 42.9 1.647c0 0 14.5 6.261 16.363 4.724s-4.724-9.8-30.228-19.834a27.723 27.723 0 0 0 -17.465 2.038l-13.276 8z" fill="#7a5e4b" transform="translate(-252.177 -304.083)"/><path d="m955.733 958.783 1.289.513s-11.815.647-21.923 13.538l-8.4-.588.278-5.347 18.747-9.044 7.506-.256z" fill="#634a39" transform="translate(-255.051 -303.008)"/><path d="m864.476 871.778s-31.311 20.046-31.443 29.153 17.026 17.95 34.845 17.422c0 0 14.783-13.991 29.037-13.463 0 0-5.412-3.828-7.523-3.96 0 0 13.727-2.039 19.534-9.863 0 0 8.58-1.488 9.371-9.011s-53.821-10.278-53.821-10.278z" fill="#808dc4" transform="translate(-196.235 -249.116)"/><path d="m969.109 882.057c.792-7.523-53.822-10.279-53.822-10.279l-1.341.876s14.732 12.137 21.405 17.683 16.607 5.448 24.386.731c0 0 8.58-1.488 9.372-9.011z" fill="#5e70aa" transform="translate(-247.045 -249.116)"/><path d="m914.069 697.923s9.021 3.638-6.2 10l7.3 1.095 6.049-5.266-3.218-5.193-2.986-.6s-.533-.039-.945-.036z" fill="#634a39" transform="translate(-243.226 -139.941)"/><path d="m859.37 703.453s9.593 8.043 17.321 0c3.132-4.022-1.83-5.585-1.83-5.585s8.524-1.884 20.245 12.019 32.519 45.618 33.553 58.6c-.115 9.537-24.935 17.351-34.645 11.031s-20.626-16.547-22.694-17.007l4.367-3.677-6.2-8.5s-2.413 2.528-8.388.919l3.217-10.227s-14.364 3.907-20.109-1.724c-.007-.002-3.567-25.048 15.163-35.849z" fill="#4addd9" transform="translate(-203.079 -139.853)"/><path d="m924.339 950.139s-27.249 7.4-35.58 7.664c0 0-.586.846 1.5.716s27.717-4.782 35.956-7.793a6.692 6.692 0 0 0 -1.876-.587z" fill="#546aa3" transform="translate(-231.181 -298.323)"/><path d="m912.609 829.186a8.9 8.9 0 0 0 2.989-5.838 11.817 11.817 0 0 1 -1.494 7.886z" fill="#30b2ac" transform="translate(-246.205 -218.703)"/><path d="m895.33 804.784-2.52-5.924 2.2-4.836.326-11.848 1.913 22.459a3.244 3.244 0 0 1 -1.919.149z" fill="#30b2ac" transform="translate(-233.772 -192.849)"/><path d="m801.1 829.075s-19.81 16.559-23.249 20.136-6.466 10.18-4.677 10.18 8.529-7.7 8.529-7.7l3.714.826s20.4-9.6 23.431-12.625-7.748-10.817-7.748-10.817z" fill="#634c3d" transform="translate(-158.315 -222.3)"/><path d="m796.815 811.112s1.792 25.235-3.032 31.87-28.589 19.3-44.632 23.643c-3.016 1.086-7.6 6.635-9.891 6.152s.6-5.549.6-5.549-2.292 1.93-3.257 1.086 2.533-3.136 9.409-7.479 32.087-18.576 31.846-24.97-1.154-26.477-1.154-26.477 4.447 4.956 20.111 1.724z" fill="#7a5e4b" transform="translate(-135.583 -209.937)"/><path d="m844.659 809.388.055 1.224s6.258 7.785 20.3 5.766l-.246-5.267s-14.239 3.107-20.109-1.723z" fill="#634a39" transform="translate(-203.535 -209.937)"/><path d="m947.314 709.888c-11.721-13.9-20.245-12.019-20.245-12.019a5.243 5.243 0 0 1 2.375 1.629c5.457 2.062 20.392 12.6 50.515 64.466-4.283-14.753-22.122-41.592-32.645-54.076z" fill="#36fff5" transform="translate(-255.286 -139.853)"/><path d="m785.631 864.5 1.842.085a.874.874 0 0 1 .834.9l-.714 20.338-1.967 2.325-1.846-2.418.936-20.4a.875.875 0 0 1 .915-.83z" fill="#ea4f76" transform="translate(-165.306 -244.542)"/><path d="m785.729 878.164 3.636.263v-.527l-3.61-.3z" fill="#f97a9e" transform="translate(-166.53 -252.774)"/><path d="m796.984 888.935s-3.2 6.5-5.2 6.325.745-6.325.745-6.325l.737-.826 1.41-1.034 1.909.549z" fill="#634c3d" transform="translate(-169.877 -258.722)"/><path d="m466.361 787.079.107 13.355a.583.583 0 0 0 -.107.322c0 1.236 4.61 2.239 10.3 2.239s10.3-1 10.3-2.239v-13.677z" fill="#412e44" transform="translate(34.022 -195.927)"/><ellipse cx="10.297" cy="2.239" fill="#c89bd3" rx="10.297" ry="2.239" transform="translate(500.383 588.912)"/><path d="m479.3 786.306a26.292 26.292 0 0 1 -8.732-1.123 34.5 34.5 0 0 1 17.464 0 26.3 26.3 0 0 1 -8.732 1.123z" fill="#412e44" transform="translate(31.379 -194.032)"/><path d="m466.361 801.09s7.946 1.288 12.769.8v5.475a30.5 30.5 0 0 1 -12.68-.45z" fill="#865f8e" transform="translate(34.022 -204.726)"/><path d="m493.3 771.987a1.012 1.012 0 0 1 -.149 1.49l-17.528 13-1.032-.9 17.329-13.706a1.012 1.012 0 0 1 1.38.116z" fill="#38526d" transform="translate(28.851 -186.24)"/><path d="m477.916 802.019-3.321 2.627 1.032.9 3.384-2.509z" fill="#7095b7" transform="translate(28.851 -205.309)"/><path d="m467.737 809.079s-3.063.833-3.063 3.163-.081 4.225-1 4.96c0 0 6.479-2.691 5.1-7.224z" fill="#98d7fa" transform="translate(35.709 -209.743)"/><path d="m483.7 734.856 1.274-2.326a.173.173 0 0 1 .291-.019l1.468 2a1.021 1.021 0 0 1 .2.6v18.778s-1.4-.034-1.921-.065l-1.433-18.4a1.019 1.019 0 0 1 .121-.568z" fill="#38526d" transform="translate(23.211 -161.616)"/><path d="m486.934 742.025v-6.912a1.021 1.021 0 0 0 -.2-.6l-1.468-2a.173.173 0 0 0 -.291.019l-1.274 2.326a1.019 1.019 0 0 0 -.123.57l.516 6.632a5.908 5.908 0 0 0 2.84-.035z" fill="#21374c" transform="translate(23.211 -161.616)"/><path d="m512.7 789.7c.277-1.444-2.607-1.067-2.607-1.067a1.667 1.667 0 0 0 -.782.132.161.161 0 0 0 .011.081.174.174 0 0 0 .011.026c.058.118.257.306.926.416.546.124.482.359.482.359 1.162.925.621 2.4-.478 3.381s-.863 5.18.51 5.726 1.531-1.528 1.177-3.019.314-2.433 1.083-3.453-.613-1.141-.333-2.582z" fill="#ffc50d" transform="translate(7.053 -196.874)"/><path d="m513.154 817.441s-.242-.857.264-.792 1.012 1.98.572 2.728-.484 1.518.572 1.144 4.707-.352 5.037.726-2.86.88-3.41 1.078.044 1.188-1.606 1.166-4.666-1.416-2.741-2.528c.277-.6-.493-2.619.365-2.949s.988 0 .947-.573z" fill="#ffc50d" transform="translate(5.851 -214.494)"/><path d="m514.663 834.319c.957-.251 1.628-1.276 3.519-1.254s2.882-1.408 5.126-.88 4.531 1.32 3.63 2.244-3.476.99-5.28 1.5-6.135 1.452-8.072.99-8.163-.44-6.953-1.738 6.182-.381 8.03-.862z" fill="#ffc50d" transform="translate(8.829 -224.179)"/><path d="m644.167 813.911c3.935-3.745 12.32-3.021 18.2-4.334s22.568-11.87 27.969-9.21-6.729 9.186-11.056 12.224-13.33 10.2-25.766 11.365c-10.472 1.651-17.761-2.279-9.347-10.045z" fill="#ff6529" transform="translate(-75.328 -204.003)"/><path d="m607.891 989.711 20.507-12.7 25.4 18.643-20.274 13.516z" fill="#dccdf9" transform="translate(-54.854 -315.197)"/><path d="m0 8.557 14.199-8.557" fill="none" stroke="#9b8bc1" stroke-linecap="round" stroke-miterlimit="10" transform="translate(559.755 666.297)"/><path d="m0 8.309 13.579-8.309" fill="none" stroke="#9b8bc1" stroke-linecap="round" stroke-miterlimit="10" transform="translate(563.165 668.529)"/><path d="m0 8.433 13.207-8.433" fill="none" stroke="#9b8bc1" stroke-linecap="round" stroke-miterlimit="10" transform="translate(566.265 670.575)"/><path d="m653.365 1015.309 12.618-8.247 4.9 3.844-12.194 8.185z" fill="#9b8bc1" transform="translate(-83.41 -334.069)"/><path d="m624.628 949.181a2.647 2.647 0 0 1 -1.331 3.647l-19.6 8.234h-4.507a.328.328 0 0 1 -.263-.524l3.007-4.048 19.266-8.523a2.646 2.646 0 0 1 3.428 1.214z" fill="#7fcc4e" transform="translate(-49.185 -296.816)"/><path d="m643.462 953.022s2.04 2.5 2.309 4.644l2.707-1.137a7.625 7.625 0 0 0 -2.123-4.787z" fill="#d3f4bd" transform="translate(-77.192 -299.33)"/><path d="m607.121 961.163a17.629 17.629 0 0 1 1.764 4.572l14.066-5.909.2-3.363-2.508-1.281z" fill="#d3f4bd" transform="translate(-54.371 -301.489)"/><path d="m761.341 728.091a2.647 2.647 0 0 1 2.537-2.938l21.245-.755 4.214 1.6a.328.328 0 0 1 .061.583l-4.246 2.72-21.036 1.144a2.647 2.647 0 0 1 -2.775-2.354z" fill="#132a7c" transform="translate(-151.205 -156.565)"/><path d="m779.323 731.015s-1.022-3.059-.513-5.161l-2.934.1a7.622 7.622 0 0 0 .29 5.228z" fill="#6887e0" transform="translate(-160.138 -157.48)"/><path d="m797.26 729.3a17.638 17.638 0 0 1 -.029-4.9l-15.247.542-1.377 3.074 1.893 2.084z" fill="#6887e0" transform="translate(-163.313 -156.565)"/><path d="m780.943 752.4a2.647 2.647 0 0 1 -2.229 3.178l-21.062 2.883-4.352-1.161a.328.328 0 0 1 -.119-.574l3.952-3.132 20.815-3.249a2.647 2.647 0 0 1 2.995 2.055z" fill="#7fcc4e" transform="translate(-146.011 -172.838)"/><path d="m803.276 752.178s1.324 2.941 1.029 5.084l2.909-.4a7.624 7.624 0 0 0 -.813-5.173z" fill="#d3f4bd" transform="translate(-177.548 -173.705)"/><path d="m764.013 755.281a17.641 17.641 0 0 1 .52 4.873l15.115-2.069 1.062-3.2-2.09-1.885z" fill="#d3f4bd" transform="translate(-152.892 -174.527)"/><path d="m550 953.222a2.648 2.648 0 0 1 2.4-3.055l21.185-1.758 4.286 1.4a.328.328 0 0 1 .088.58l-4.119 2.911-20.958 2.137a2.647 2.647 0 0 1 -2.882-2.215z" fill="#ba3b38" transform="translate(-18.478 -297.237)"/><path d="m568 956.932s-1.166-3.006-.757-5.131l-2.925.243a7.623 7.623 0 0 0 .536 5.209z" fill="#ef9292" transform="translate(-27.345 -299.367)"/><path d="m585.958 953.3a17.627 17.627 0 0 1 -.261-4.893l-15.2 1.262-1.23 3.136 1.987 1.995z" fill="#ef9292" transform="translate(-30.596 -297.237)"/><path d="m216.409 982.037 22.22-19.38 42.195 14.1-22.6 20.815z" fill="#e9edff" transform="translate(190.982 -306.185)"/><g fill="none" stroke-linecap="round" stroke-miterlimit="10"><path d="m0 12.119 13.58-12.119" stroke="#9ea4b7" stroke-width="2" transform="translate(418.083 661.813)"/><path d="m0 12.087 13.228-12.087" stroke="#9ea4b7" stroke-width="2" transform="translate(423.967 664.161)"/><path d="m0 12.154 12.649-12.154" stroke="#9ea4b7" stroke-width="2" transform="translate(430.581 666.242)"/><path d="m0 11.482 12.355-11.482" stroke="#9ea4b7" stroke-width="2" transform="translate(437.598 668.928)"/><path d="m0 11.751 11.818-11.751" stroke="#9ea4b7" stroke-width="2" transform="translate(445.253 671.144)"/></g><path d="m461.562 949.9a1.059 1.059 0 0 0 1.354.165l44.684-29.165-2.442-3.329-43.435 30.744a1.06 1.06 0 0 0 -.161 1.585z" fill="#352338" transform="translate(37.213 -277.873)"/><path d="m563.857 917.574 2.443 3.326-9.588 6.258-1.961-3.141z" fill="#5e4263" transform="translate(-21.483 -277.873)"/><path d="m579.229 909.99a5.854 5.854 0 0 1 5.928-3.16c4.483.273 6.022-1.333 6.022-1.333s-4.07 9.03-9.509 7.822z" fill="#e9edff" transform="translate(-36.856 -270.289)"/><path d="m1175.61 461.742s1.235-18.558 3.945-18.475-1.972 27.015-1.972 27.015l-1.667 2.326z" fill="#c62658" transform="translate(-411.361 19.974)"/><path d="m1167.245 455.131s-1.127-20.294 1.333-20.573 3.383 30.369 2.46 35.9-3.255-.307-3.255-.307z" fill="#e23b67" transform="translate(-405.946 25.444)"/><path d="m1162.189 476.7s-9.021-35.774-3.69-38.234c3.075-.82 5.308 38.234 5.308 38.234z" fill="#ff5076" transform="translate(-399.558 22.994)"/><path d="m1174.588 488.049s9.328-27.676 6.458-31.366c-1.947-2.768-8.405 31.366-8.405 31.366z" fill="#ff5076" transform="translate(-409.496 11.65)"/><path d="m1151.906 474.257s-11.89-37.721-8.611-39.669c2.46-1.128 9.328 32.6 10.046 39.669z" fill="#ff5f91" transform="translate(-390.709 25.441)"/><path d="m1162.844 560.2c0-.008 0-.016-.007-.023-.033-.044-.065-.09-.1-.135-.05-.072-.1-.144-.151-.214-4.077-5.934-5.45-19.944-5.45-19.944h-8.061s-1.373 14.011-5.45 19.944c-.052.07-.1.142-.151.214-.032.045-.065.091-.1.135 0 .008 0 .016-.007.023a9.385 9.385 0 0 0 -1.435 5.116c0 4.233 2.5 7.665 5.585 7.665h11.17c3.085 0 5.585-3.432 5.585-7.665a9.384 9.384 0 0 0 -1.428-5.116z" fill="#412e44" transform="translate(-390.216 -40.699)"/><path d="m1164.7 594.835a8.282 8.282 0 0 0 -.818-1.631c0-.008 0-.016-.007-.023-.033-.044-.065-.09-.1-.135-.05-.072-.1-.144-.151-.214-.086-.125-.17-.26-.254-.392h-18.453c-.084.132-.167.266-.253.391-.052.07-.1.142-.151.214-.032.045-.064.091-.1.135 0 .008 0 .016-.007.023a8.311 8.311 0 0 0 -.819 1.631z" fill="#703f7a" transform="translate(-391.256 -73.701)"/><path d="m1160.026 545.977h8.881c-.082-.56-.152-1.065-.208-1.5h-8.465c-.056.435-.125.941-.208 1.5z" fill="#703f7a" transform="translate(-401.575 -43.583)"/><path d="m337.2 599.065 2.546 6.13s-3.773 4.527-5.376 5.187-2.735-8.2-2.735-8.2z" fill="#2a3479" transform="translate(118.626 -77.862)"/><path d="m348.563 697.353c.323.4 5.471 11.352 5.471 11.352l24.287 35.374-4.356 5.412-28.287-26.663z" fill="#37499f" transform="translate(109.806 -139.583)"/><path d="m287.325 632.524s9.5.1 8.975 16.6-8.975 57.813-8.975 57.813l-22.439-6.737-6.732-13.253 16.5-44.164z" fill="#b7255d" transform="translate(164.768 -98.873)"/><path d="m292.607 645.682s2.631 10.714-7.331 34.585l5.553 31.824-21.154-7.291-4.417-5.164z" fill="#8c0e41" transform="translate(160.307 -107.135)"/><path d="m325.142 569.407 16.483-9.021h4.789l2.784 13.476s-5.791 3.564-10.246-.891l-10.247 5.569z" fill="#ffbdae" transform="translate(122.702 -53.573)"/><path d="m121.878 851.233s-10.435-4.585-11.934-4.022-16.547 7.6-15.855 8.231 26.29 1.038 26.29 1.038z" fill="#ffbdae" transform="translate(267.809 -233.658)"/><path d="m155.83 856.57-.994-.421a9.3 9.3 0 0 1 -5.579 5.864l4.978.1 2.3-2.15z" fill="#f79484" transform="translate(233.151 -239.3)"/><path d="m203.847 784.092s39.768 18.475 45.358 26.78-7.492 15.652-26.425 13.1-61.9-9.623-61.9-9.623.327-7.307 4.948-10.057a15.1 15.1 0 0 1 -5.869-11.384c-.125-7.35 26.723-14.094 26.723-14.094z" fill="#e2406e" transform="translate(226.429 -190.735)"/><path d="m162.838 809.289a11.928 11.928 0 0 0 9.6.894l1.822-3.466 3.091-1.018 29.727-11.437-2.654-1.255-15.732.749s-18.665 1.866-18.9 2.053-8.914 8.841-8.914 8.841a14.3 14.3 0 0 0 1.96 4.639z" fill="#c4275b" transform="translate(225.855 -199.649)"/><path d="m173.766 847.292s4.7 6.119 17.094 7.539 42.053 5.283 42.053 5.283v.988s-42.951-4.582-46.815-5.84a29.5 29.5 0 0 1 -13.5-7.1 3.875 3.875 0 0 1 1.168-.87z" fill="#c4275b" transform="translate(218.494 -233.739)"/><path d="m343.666 542.472c.374 2.448 3.215 5.962 7.476 4.243 0 0 1.047-2.216 2.991-1.893s.3 3.912.3 3.912l.3.523 2.093-.673s.3 13.009 12.112 8.374c7.028-3.364 3.738-10.916 2.243-12.336 0 0 2.617-6.5-4.561-11.663s-22.954 9.513-22.954 9.513z" fill="#171143" transform="translate(111.07 -35.658)"/><path d="m209.5 578.049s7.426 9.773 6 20.267c.894 21.855-23.566 59.705-23.566 59.705l-28.415 9.324-4.995-3.33-1 9.324s-14.1-4.551-16.539-9.1c-.005-.002 6.315-55.389 68.515-86.19z" fill="#37499f" transform="translate(238.349 -64.664)"/><path d="m321.5 578.049a27.358 27.358 0 0 1 5.908 14.042l-5 4.1s-1.164-12.649-3.065-17.052c-.006.001 1.579-.757 2.157-1.09z" fill="#576fc4" transform="translate(126.347 -64.664)"/><path d="m254.587 726.188 25.913 58.343 7.974-2.791-13.374-51.771z" fill="#37499f" transform="translate(167.008 -157.69)"/><path d="m316.357 859.416 9.029-3.457.237.917-8.886 3.4z" fill="#263a84" transform="translate(128.218 -239.182)"/><ellipse cx="1.099" cy="1.04" fill="#263a84" rx="1.099" ry="1.04" transform="translate(449.209 621.092)"/><ellipse cx="1.099" cy="1.04" fill="#263a84" rx="1.099" ry="1.04" transform="translate(482.699 603.916)"/><path d="m408.647 815.2c.037.035 5.564-5.933 5.564-5.933l-.419-.611-5.815 5.912z" fill="#263a84" transform="translate(70.685 -209.479)"/><path d="m421.71 828.36 3.357 3.109s1.527 5.311 2.612 4.463c1-1.151.115-5.368.115-5.368l1.39-3.18-3.117-4.436z" fill="#ffbdae" transform="translate(62.061 -218.452)"/><path d="m431.488 774.413.073-.008a1.564 1.564 0 0 1 1.726 1.413l3.509 38.6h-1.967l-4.723-38.256a1.563 1.563 0 0 1 1.382-1.749z" fill="#162049" transform="translate(56.796 -187.963)"/><path d="m443.763 834.178s2.268 6.022 2.263 7.429c-.136.59-1.946-.175-1.963-.356-.3-.751-.3-7.073-.3-7.073z" fill="#ffbdae" transform="translate(48.212 -225.504)"/><path d="m324.428 876.015-6.647 2.294s-6.665 10.706-4.664 10.564 10.364-5.432 10.364-5.432 2.644 3.788 4.646 3.145-3.699-10.571-3.699-10.571z" fill="#ffbdae" transform="translate(130.488 -251.776)"/><path d="m325.808 878.31-.283.46 7.311-2.074-.381-.681z" fill="#f79484" transform="translate(122.461 -251.776)"/><path d="m426.066 822.948.323.46-3.723 5.869-.956-.917z" fill="#f79484" transform="translate(62.061 -218.451)"/><path d="m262.567 699.08-10.067-22.642 1.327-29.474s-.911.478-1.327 2.858-1.237 27.011-1.237 27.011l9.917 24.467z" fill="#050505" opacity=".25" transform="translate(169.096 -107.94)"/><path d="m309.724 682.654 1.074-31.149s.9-1.492 1.067 0-1.071 28.959-1.071 28.959-.478 1.006-1.07 2.19z" fill="#050505" opacity=".25" transform="translate(132.384 -110.376)"/><path d="m367.122 892.075c2.327 4.26 16.146 12.752 40.621-1.954 23.961-14.4 31.983-24.261 26.43-31.824-5.467-7.445-22.592 7.577-30.973 10.313a7.321 7.321 0 0 1 -.777.2c-6.776 1.414-42.454 10.168-35.301 23.265z" fill="#f9d230" transform="translate(96.932 -239.362)"/><path d="m358.784 588.292a8.464 8.464 0 0 1 -2.061-3.508 16.813 16.813 0 0 0 .92 4.129z" fill="#f79484" transform="translate(102.87 -68.894)"/><path d="m446.026 841.607c-.013.774-1.413.62-1.963-.356-.3-.756-.3-7.074-.3-7.074" fill="#ffbdae" transform="translate(48.212 -225.504)"/><path d="m442.307 881.963h-2.137s-2.481 1.9-.589 5.477 2.924 5.131 2.24 6.94c.001 0 5.271-7.296.486-12.417z" fill="#ffe576" transform="translate(51.285 -255.511)"/><path d="m440.662 864.482h2.179l.591 6.5h-1.967z" fill="#2d3b68" transform="translate(50.159 -244.533)"/></g></svg>