<svg height="200" viewBox="0 0 530 200" width="530" xmlns="http://www.w3.org/2000/svg" xmlns:xlink="http://www.w3.org/1999/xlink"><clipPath id="a"><path d="m10 0h510a10 10 0 0 1 10 10v190a0 0 0 0 1 0 0h-530a0 0 0 0 1 0 0v-190a10 10 0 0 1 10-10z" transform="translate(321 460)"/></clipPath><linearGradient id="b" gradientUnits="objectBoundingBox" x1=".363" x2="1.039" y1=".34" y2="1.063"><stop offset="0" stop-color="#6e0ebf"/><stop offset="1" stop-color="#ff009d"/></linearGradient><g clip-path="url(#a)" transform="translate(-321 -460)"><path d="m0 0h530v200h-530z" fill="url(#b)" transform="translate(321 460)"/><g opacity=".9" transform="translate(220 -38)"><g fill="#00ebe5"><g transform="matrix(.93969262 .34202014 -.34202014 .93969262 -710.478 -2148.051)"><path d="m1967.074 2236.563c-1.372 3.754-2.687 7.485-5.465 10.577a27.773 27.773 0 0 0 -4.124 6.382c-.4.823-1.14 1.07-1.559 1.805-.98 1.717-1.339 3.656-2.594 5.323-2.829 3.758-5.62 7.532-8.572 11.2-1.948 2.422-3.771 4.966-5.8 7.332a34.45 34.45 0 0 1 -13.929 9.464c-6.176 2.432-12.293 5.069-18.6 7.085a84.62 84.62 0 0 1 -36.195 3.788c-7.486-.893-14.777-2.307-21.191-6.13a67.593 67.593 0 0 1 -24.693-24.764 11.762 11.762 0 0 0 -.781-1.117 33.461 33.461 0 0 1 -5.767-10.8 35.337 35.337 0 0 0 -2.281-5.81c-2.687-5.6-2.171-11.235 0-16.851a45.028 45.028 0 0 1 9.91-14.7c5.448-5.685 8.006-12.277 8.82-19.9.757-7.087-.487-13.951-1.749-20.841-.775-4.229-1.467-8.473-2.3-12.689-1.342-6.8-4.47-12.855-7.679-18.928a98.946 98.946 0 0 1 -9.307-25.012 38.192 38.192 0 0 1 1.682-21.484 31.443 31.443 0 0 1 6.351-11.139 65.165 65.165 0 0 1 9.463-8.743 96.705 96.705 0 0 1 27.714-13.367c11.307-3.523 22.317-7.691 31.976-14.787a243.9 243.9 0 0 0 20.509-16.937c8.907-8.175 18.237-15.784 29.017-21.412 10.451-5.456 21.366-9.7 33.312-9.593 17.981.165 33.376 6.518 44.281 21.307 8.065 10.938 9.373 23.473 6.737 36.56-.476 2.362-.957 4.725-1.51 7.07a47.12 47.12 0 0 1 -7.47 16.649c-2.1 2.961-4.36 5.8-6.46 8.728a101.345 101.345 0 0 1 -8.047 9.662 106.789 106.789 0 0 0 -8.964 11.328c-.964 1.377-2.492 2.213-3.425 3.694-3.525 5.6-7.19 11.121-9.707 17.283-1.359 3.326-2.744 6.57-3.011 10.318-.164 2.3-.024 4.589-.224 6.872a40.832 40.832 0 0 0 .834 10.136c.209 1.284-1.347 2.323-1.012 2.412 1.814.483.538 1.5.575 2.242.021.438-.256.92-.157 1.322 1.684 6.832.956 13.811 1.1 20.711.134 6.405.694 12.933-1.039 19.211-.632 2.291-1.092 4.642-1.76 6.931-.8 2.746-2.277 5.321-2.523 8.185-.347 4.035-2.386 7.417-3.854 11.023-.08.2-.377.31-.578.467.188-2.148 1.948-3.75 2.009-5.959-1.507 3.2-3.389 6.237-4.169 9.77q1.103-1.937 2.206-3.874zm-52.174-188.081a31.145 31.145 0 0 0 6.124-5.491c-2.023 1.85-4.466 3.238-6.086 5.531-1.726.611-2.828 2.014-4.062 3.25a12.59 12.59 0 0 0 4.024-3.29zm23.09-29.752a6.131 6.131 0 0 0 1.091-.343 107.528 107.528 0 0 1 26.014-10.014c.33-.077.783-.066.98-.573-.618.089-1.2.157-1.774.257-7.585 1.319-14.616 4.214-21.446 7.642-1.7.854-3.56 1.516-4.831 3.07-2.036.142-3.28 1.861-5.042 2.568a.706.706 0 0 0 -.171 1.162c.156.158.373.26.47.074 1.027-1.957 3.519-2.109 4.711-3.843zm-54.79 272.852a38.067 38.067 0 0 0 3.88-.02c5.243-.539 10.418-1.535 15.593-2.514 7.677-1.454 14.759-4.715 22.024-7.394 3.351-1.235 6.559-2.921 8.829-5.894a121.779 121.779 0 0 0 17.837-32.083c3.423-9.32 7.878-18.254 11.538-27.494a78.024 78.024 0 0 0 5.027-20.6c.623-5.908.272-11.832.315-17.751.035-4.869-.051-9.733.255-14.616.215-3.44-.556-7.023-.851-10.546-.521-6.2-.426-12.332 1.459-18.351a76.386 76.386 0 0 1 7.027-15.835c5.928-10.113 13.359-19.123 21.154-27.821a128 128 0 0 0 11.756-14.625 54.215 54.215 0 0 0 9.163-31.8c-.206-9.008-4.152-16-11.923-20.752-13.506-8.258-27.768-10.9-43.077-5.872a100.125 100.125 0 0 0 -32.069 17.946c-6.023 4.9-11.523 10.392-17.528 15.309-8.181 6.7-16.492 13.2-26.127 17.753a159.735 159.735 0 0 1 -23.176 8.337 87.179 87.179 0 0 0 -19.208 8.2c-7 4.07-12.906 9.277-16.995 16.371-.487.844-.505.834-1.611.857-.337.006-.357.285-.469.51a14.7 14.7 0 0 0 -1.72 6.481c-.019 1.559.583 3.791.05 4.541-1.714 2.409-.423 4.742-.107 6.773a56.247 56.247 0 0 0 1.823 7.653 98.816 98.816 0 0 0 7.315 18.372c2.893 5.337 5.7 10.721 6.529 16.767.241 1.751 2.353 3.753.1 5.624 0 0 .157.175.224.279a11.992 11.992 0 0 1 1.893 6.065c.088 2.042.818 3.951.906 5.971.141 3.259 1.349 6.426.651 9.774a23.46 23.46 0 0 0 -.246 4.712c-.006 3.5-1.194 6.842-1.377 10.354-.069 1.316-1.218 2.987-1.851 4.495-2.27 5.4-6.3 9.513-9.827 14.02-3.323 4.239-7.058 8.394-7.407 14.205-.141 2.344-.839 4.818.372 7.017 3.253 5.914 4.964 12.616 9.428 17.917 3.474 4.125 5.807 9.124 10.04 12.708 4.139 3.506 8.091 7.28 12.873 9.87a28.79 28.79 0 0 0 7.483 3.18 86.841 86.841 0 0 0 20.025 1.907zm77.8-65.482c-1.928 6.587-5.756 12.173-7.682 18.567 2.421-1.713 8.682-16.424 7.682-18.567zm-75.86-166.7c6.632-3 12.15-7.5 17.416-12.339-5.494 4.127-10.979 8.259-16.843 11.858a4.716 4.716 0 0 0 -.576.481zm-63.317 34.283c3.212-3.464 6.565-6.791 9.97-10.065a32.163 32.163 0 0 0 -9.973 10.066zm-5.708 146.292c.77-2.166 1.269-4.4 1.916-6.6a11.777 11.777 0 0 0 -1.92 6.6zm3.987-141.8c-.128-.481-.375-.74-.827-.653a1.421 1.421 0 0 0 -1.26 1.436c-.025.44.236.526.6.462.754-.135 1.105-.72 1.485-1.245z"/><path d="m1946.857 2214.475c-.078-.475 0-.9-.478-1.138-.084.732-.674 1.432.3 2.074.563.373.033.979-.111 1.429-1.3 4.054-2.561 8.125-3.815 12.186-1.193 3.866-2.617 7.679-3.512 11.638a40.126 40.126 0 0 1 -2.144 5.65 7.115 7.115 0 0 0 -.618 2.618c0 1.9-.133 1.953-1.893.952a1.636 1.636 0 0 0 -.607-.048c0 .212-.065.422.01.548a5.231 5.231 0 0 1 -.435 5.893 10.866 10.866 0 0 0 -2.038 3.937 11.012 11.012 0 0 1 -4.035 5.726c-.17.141-.556.076-.573.4-.1 1.931-1.659 2.857-2.831 4.007-1.119 1.1-2.5 1.9-3.55 3.105a23.232 23.232 0 0 1 -6.289 5.148c-1.139.634-2.3 1.84-3.563 2.335-4.684 1.837-9.276 3.891-14.019 5.6-8.016 2.891-15.907 2.044-23.862.113a35.137 35.137 0 0 1 -12.778-6.105 26.734 26.734 0 0 1 -3.89-3.8 41.007 41.007 0 0 1 -9.533-17.882 16.856 16.856 0 0 1 1.779-12.446c.569-1.025 1.008-2.368 2.932-2.136.838.1 1.668-1.457 2.318-2.446a116.865 116.865 0 0 0 11.335-22.221c3.166-8.213 5.929-16.511 7-25.328a50.608 50.608 0 0 0 -1.65-18.714c-1.249-4.946-3.83-9.081-6.778-13.108-2.208-3.016-4.183-6.2-6.364-9.241-.773-1.076.2-1.764.431-3.149-1.194 1.624-1.389 1.3-1.9-.038a30.373 30.373 0 0 0 -2.175-3.874 18.332 18.332 0 0 1 -2.5-8.9c-.011-1.18-.628-2.165-.469-3.282a29.743 29.743 0 0 1 .7-4.208c.7-2.4 1.145-4.921 3.486-6.547.647-.449.262-1.843 1-2.632 3.145-3.376 6.106-6.976 10.04-9.48a192.307 192.307 0 0 1 29.428-15.311c7.149-2.978 13.975-6.74 19.61-12.272 8.291-8.141 17.014-15.8 25.987-23.177 8.505-6.99 17.621-12.989 28.073-16.742a49.993 49.993 0 0 1 13.538-2.832c6.638-.458 11.609 2.563 15.465 7.581 7.406 9.638 9.145 20.483 6.3 32.147a87.386 87.386 0 0 1 -8.717 22.409c-1.868 3.3-3.649 6.649-6.729 9.164-1.47 1.2-2.257 3.225-3.387 4.853-3.863 5.565-8.725 10.337-12.57 15.937-1.713 2.494-3.161 5.123-4.775 7.661-3.523 5.539-5.929 11.652-8.577 17.613-2.324 5.23-3.164 10.947-4 16.611q-1.352 9.154-2.895 18.283c-.6 3.512-1.019 7.139-2.269 10.429-.868 2.287-.9 4.723-1.939 6.939-.621 1.283.023 3.024-1.464 4.071zm-82.781 11.755c.556-.209.693-.766.885-1.21a98.208 98.208 0 0 0 5.018-12.855c.714-2.608 1.967-5.092 1.927-7.888-1.261 4.945-3.459 9.557-5.02 14.389-.829 2.566-2.378 4.872-2.768 7.6-2.23 2.941-3.325 6.475-5.128 9.638 1.91-3.113 4.148-6.058 5.086-9.674zm2-69.92c.034-.249-.023-.608.12-.724.258-.21.39.109.562.3.483.532.256 1.334.919 1.865a8.676 8.676 0 0 1 2.676 3.771c.52 1.327 1.938 2.293 2.905 3.463.215.261.486.7.208 1.073-.518.687-.1.913.468 1.073a2.009 2.009 0 0 1 1.315 1.345c.862 2.21 2.011 4.31 2.268 6.745a14.9 14.9 0 0 0 1 4.6c1.62 3.193 1.68 6.562 1.526 9.76-.14 2.9-.7 5.865-.563 8.767.115 2.507-1.146 4.551-1.5 6.885-.425 2.828-2.384 5.294-2.771 8.233-.237 1.8-2.142 3.175-2.126 4.6.038 3.3-2.888 5.081-3.405 8.062a6.793 6.793 0 0 1 -1.378 3.267c-1.692 1.85-2.187 4.411-3.94 6.254-2.209 2.322-3.355 5.43-5.709 7.733a46.045 46.045 0 0 0 -3.757 4.764c-1.121 1.442-1.021 3.677-1.391 5.583-.537 2.757 1.046 4.907 1.76 7.33a32.433 32.433 0 0 0 9.429 14.436c8.133 7.542 17.873 10.021 28.7 6.073 1.1-.4 2.2-.8 3.307-1.177a52.647 52.647 0 0 0 17.339-10.221c6.829-5.8 10.062-13.88 13.846-21.532 1.323-2.676 1.838-5.957 2.837-8.929a63.04 63.04 0 0 0 1.891-6.152c.475-2.106 1.121-4.151 1.751-6.2s1.514-4.028 2.013-6.1c.443-1.846 1.351-3.5 1.734-5.41.511-2.558 1.346-5.106 2.041-7.66a193.461 193.461 0 0 0 5.492-27.939c.624-5.239 1.078-10.529 2.163-15.679 3.505-16.647 11.171-31.355 21.73-44.576 4.719-5.908 9.726-11.588 14.666-17.317 7.074-8.2 10.913-17.964 13.806-28.2a29.292 29.292 0 0 0 -.851-18.8c-1.331-3.5-3.318-6.426-7.507-7.117-3.9-.644-7.707.281-11.394.962a28.422 28.422 0 0 0 -6.782 2.514c-5.279 2.554-10.634 4.966-15.224 8.684-1.093.885-2.454 1-3.547 1.887-1.4 1.129-2.375 2.657-3.9 3.672-.875.582-1.925.639-2.732 1.386-5.12 4.73-10.909 8.709-15.531 14.012-1.6 1.841-3.585 3.35-5.334 5.072a63.3 63.3 0 0 1 -22.8 14.462 132.6 132.6 0 0 0 -29.6 15.415c-3.52 2.426-7.292 4.714-9.816 8.4-1.464 2.14-3.346 4.321-3.574 6.772-.338 3.626-.707 7.413.527 11.024.3.872-.233 2.085-.048 2.384.714 1.143 1.145 2.437 1.919 3.534 1.68 2.361 3.986 4.384 4.264 7.572zm72.582 64.991a69.165 69.165 0 0 0 -4.477 12.711c-1.221 4.424-2.869 8.7-4.3 13.038-1.353 4.107-3.3 8.015-4.992 12.01 7.228-11.653 9.923-24.904 13.772-37.76zm2.984-158.494c8.483-6.645 17.38-12.543 27.333-16.73-6.518.863-24.605 12.817-27.33 16.73zm-75.388 50.641c-5.074 3.439-9.6 7.383-11.794 13.387a81.328 81.328 0 0 1 11.797-13.387zm-16.373 134.118c-2.161 2.147-3.146 8.8-1.727 10.176.407-3.372.419-6.87 1.73-10.176zm84.831-178.643-.42-.448c-3.689 3.371-7.687 6.4-10.892 10.314zm-24.343 21.151a45.029 45.029 0 0 0 10.822-9.492c-3.591 3.18-7.123 6.429-10.818 9.492z" transform="translate(-9.518 -10.223)"/><path d="m1965.613 2131.543a2.9 2.9 0 0 1 -.008 3.06c-1.14 2.782-3.47 4.969-3.91 8.073-.157 1.109-1.016 1.946-1.544 2.877-1.342 2.374-1.6 5.135-2.806 7.448-1.145 2.192-1.636 4.6-2.8 6.74-.619 1.138-.4 2.556-1.209 3.659a35 35 0 0 0 -2.047 6.264c-.393 2.244-.849 4.477-1.3 6.709-.079.384-.25.778-.772.7-.539-.085-.8.16-.592.638.774 1.791-.15 3.4-.839 4.8-2 4.088-3.741 8.29-5.5 12.477-.348.83-1.966.6-1.389 2.257.291.835-.649 2.281-1.3 3.361-.634 1.054-1.06 2.23-1.633 3.322-4.224 8.052-8.106 16.266-11.784 24.584-2.04 4.614-4.475 9.051-6.623 13.619a26.147 26.147 0 0 0 -1.263 3.685c-.335 1.133-.827 2.76-2.213 3.473a.835.835 0 0 0 -.5.512c-1.694 5.334-6.244 8.124-10.3 11.249-2.906 2.237-6.448 3.559-9.747 5.105-2.039.957-3.916 2.478-6.291 2.814a59.744 59.744 0 0 1 -7.166.816 10.6 10.6 0 0 1 -6.448-1.848 2.038 2.038 0 0 1 -.728-2.732 13.855 13.855 0 0 1 5.309-6.827 7.865 7.865 0 0 0 2.673-2.238c.465-.746 1.252.193 2.115-.656 3.053-3 4.954-6.653 6.912-10.323a177.659 177.659 0 0 0 9.981-23.723 58.233 58.233 0 0 0 2.484-10.811c.362-2.314.6-4.63.759-6.966.072-1.081.507-1.971 1.837-1.311.792.393 1.036-.184 1.407-.591a.579.579 0 0 0 -.044-.866c-.464-.443-.866.019-1.229.195-1.487.724-1.973.293-1.9-1.334.209-4.482.323-8.965-.841-13.371a29.254 29.254 0 0 0 -2.453-6.292c-3.1-5.818-7.1-11.064-10.64-16.6-2.59-4.056-5.253-8.111-5.8-13.061-.127-1.152-1.041-2.556.552-3.491a.41.41 0 0 0 .159-.319c-.308-4.528-.168-4.641 2.909-7.814a22.536 22.536 0 0 1 6.914-4.634c9.13-4.2 16.824-10.305 24.356-16.842 9.168-7.958 17.52-16.837 27.046-24.344 10.435-8.224 22.371-13.857 35.041-17.75 6.687-2.054 11.642 2.936 10.185 9.877a68.1 68.1 0 0 1 -7.574 19.586c-4.006 7.083-8.6 13.793-13.041 20.592a50.237 50.237 0 0 1 -3.74 5.61c-.771.887-1.343 1.67-2.665.642zm-69.643 109.331c.553-.039.713-.487.915-.886 2.57-5.043 4.475-10.379 6.808-15.525 1.12-2.469.737-5.432 2.618-7.628a.541.541 0 0 0 -.229-.939c-.588-.253-.9.139-.97.621a26.651 26.651 0 0 1 -1.775 5.267c-1.6 4.5-2.977 9.062-5.123 13.375a20.045 20.045 0 0 0 -2.2 5.758 25.708 25.708 0 0 0 -3.6 6.908c1.109-2.355 3.239-4.187 3.556-6.951zm50.608-135.371c-2.3 1.029-3.435 3.252-5.084 4.947-2.165 1.259-3.364 3.527-5.292 5.048-3.323 2.622-6.736 5.16-9.845 8.022a87.814 87.814 0 0 1 -21.418 14.574c-2.926 1.413-6.338 1.715-8.837 4.162-1.529 1.5-3.387 2.706-3.525 5.049a18.325 18.325 0 0 0 2.011 9.945c3.091 5.768 7.257 10.811 10.9 16.207 3.784 5.609 7.164 11.316 8.025 18.3.823 6.682.328 13.3-.065 19.938-.08 1.344-.989 2.625-1.039 4.181-.069 2.174-.091 4.59-1.471 6.37-2.49 3.214-3.315 7.135-4.946 10.7-.534 1.17-.207 2.894-1.234 3.789-1.371 1.2-1.739 2.769-2.4 4.271a5.316 5.316 0 0 1 -1.062 1.623 25.922 25.922 0 0 0 -3.455 5.11 39.783 39.783 0 0 1 -7.143 8.833c-.823.749-2.121.657-2.616 1.824a7.83 7.83 0 0 1 -2.353 2.83 6.27 6.27 0 0 0 -1.854 3.149 2.311 2.311 0 0 0 1.642-.257c2.952-1.083 5.478-2.99 8.329-4.287a32.242 32.242 0 0 0 12.564-9.99 62.4 62.4 0 0 0 5.986-10.721c3.546-7.3 7.149-14.585 10.475-21.99 1.863-4.148 3.8-8.254 5.862-12.3 3.425-6.718 6.476-13.609 9.451-20.526a94.35 94.35 0 0 0 5.644-17.173 99.75 99.75 0 0 1 5.008-14.98c3.653-9.346 7.368-18.656 13.39-26.83 5.41-7.344 10.891-14.639 15.78-22.355 3.649-5.759 6.817-11.72 8.372-18.417.166-.718.7-1.66.088-2.189-.518-.448-1.362.14-2.016.4a149.157 149.157 0 0 0 -19.842 9.64c-1.153.667-2.178 2.177-3.943 1.439-.249-.1-.769.245-.618.545.535 1.057-.5 1.045-.9 1.308q-3.767 2.49-7.44 5.112c-1.915 1.374-3.247 3.327-5.129 4.696zm-37.148 143.618c1.371-2.236 3.036-4.208 4.155-6.652 2.533-5.531 5.473-10.879 7.884-16.478a265.436 265.436 0 0 1 11.8-24.539 1.187 1.187 0 0 0 -.2-1.719c-8.813 16.154-15.08 33.325-23.64 49.388zm36.634-152.237a123.582 123.582 0 0 1 15.97-10.262c5.693-2.982 11.452-5.818 17.291-8.463-11.866 4.847-23.59 9.953-33.262 18.726zm-15.658 14.957-.358-.473-16.271 14.1.346.4zm-34.491 24.6c-4.07.764-8.245 4.6-7.821 7.194 1.971-3.216 4.827-5.278 7.82-7.191zm37.38 62.6.587.309c.628-1.664 2.41-2.848 1.59-5.122z" transform="translate(-17.579 -19.824)"/><path d="m1972.855 2117.589a12.363 12.363 0 0 1 -5.084 4.947c1.649-1.695 2.785-3.918 5.084-4.947z" transform="translate(-43.856 -31.91)"/></g><path d="m610.09 1885.522a210.751 210.751 0 0 1 17.718-28.491c.745.191.091.655.356.948.423.195.893-.823 1.436.082a1.876 1.876 0 0 1 -.148 2.1c-1.85 3.4-4.523 6.263-6.136 9.843-.552 1.225-.793 2.724-2.154 3.678-.838.587-.641 2.071-1.381 3.049-.463.612-.721 1.468-1.237 2.159a18.237 18.237 0 0 0 -3.576 9.28c-.061.616-.317 1.173-.888 1.192-1.557.053-3.1.7-4.629-.665a2.672 2.672 0 0 1 -.9-3.077 32.525 32.525 0 0 1 3.724-7.941c1.72-2.963 3.674-5.787 5.5-8.684 2.451-3.9 5.194-7.577 7.8-11.36.248-.359.485-1.1 1.028-.776.409.246-.022.835-.255 1.193-1.471 2.259-3.046 4.439-4.66 6.6a65.091 65.091 0 0 0 -4.133 6.592c-2.087 3.635-4.385 7.149-6.273 10.9a9.589 9.589 0 0 0 -1.192 3.378z" transform="matrix(.8571673 .51503807 -.51503807 .8571673 1004.67169379013 -1358.55529073446)"/><path d="m590.244 1979.429c-.946.76-1.629-.423-1.929-.663-.809-.65-2.076.021-2.392-.748-.478-1.164-1.509-2.149-1.082-3.709a79.45 79.45 0 0 1 3.244-8.736 35.493 35.493 0 0 1 2.882-6.1 5.126 5.126 0 0 1 2.115-2.029 2.271 2.271 0 0 1 2.72.319 22.454 22.454 0 0 1 2.194 1.653c.6.652 1.079 1.335.369 2.224-.5.624-.408 1.442-.658 2.153-1.007 2.858-1.391 5.935-3.007 8.577a51.32 51.32 0 0 0 -3.009 6.162c-.262.594-.518 1.318-1.447.897z" transform="matrix(.8571673 .51503807 -.51503807 .8571673 1040.84673780095 -1395.67111962182)"/><path d="m701.817 1958.935-.5 1.134c.164.215.315.087.479.041.334-.094.449-.735.855-.479.49.31-.141.681-.1 1.048.537.124.679-.538 1.117-.557.678 1.043.322 1.883-.309 2.819a34.679 34.679 0 0 0 -4.205 8.141c-.378 1.1-1.793 1.644-1.82 2.927a7.459 7.459 0 0 1 -1.647 4.2c-1.473 2.008-1.787 4.37-2.664 6.553-.247.614.091 1.371-.516 1.874-.2.163-.5.533-.632.221-.438-1.067-1.294-.553-2-.73-1.313-.329-1.572-1.617-1.7-2.75a9.736 9.736 0 0 1 1.037-5.1 95.273 95.273 0 0 1 9.988-17.332c.6-.823 1.146-1.854 2.617-2.01z" transform="matrix(.8571673 .51503807 -.51503807 .8571673 996.76774991674 -1423.21458382275)"/><path d="m661.942 1907.938c-.3.948-.6 1.942-.94 2.918a133.456 133.456 0 0 1 -8.023 17.883 59.025 59.025 0 0 0 -3.4 6.726c-.253.679-.707 1.216-1.517.492a2.179 2.179 0 0 0 -.727-.337 2.67 2.67 0 0 1 -1.81-3.631 21.331 21.331 0 0 1 2.507-4.938 140.116 140.116 0 0 0 10.893-20.712c.372-.92.48-.92 1.134-.218a.445.445 0 0 0 .319.122c1.222-.109 1.336.786 1.564 1.695z" transform="matrix(.8571673 .51503807 -.51503807 .8571673 1001.39416871997 -1389.16780947238)"/><path d="m585.476 2050.044c-1.117 2.748-2.944 4.852-4.008 7.341a51.9 51.9 0 0 0 -3.054 7.627c.979-2.154 1.953-4.31 2.939-6.459a68.768 68.768 0 0 1 3.978-7.073c.708-1.161 1.5-1.1 2.3-.462a1.571 1.571 0 0 1 .207 2.409 12.058 12.058 0 0 0 -2.879 5.276c-.949 3.264-2.62 6.29-3.123 9.7-.116.786-.685 1.455-.8 2.331a4.2 4.2 0 0 0 .306 2.746c.283.533.981 1.234.362 1.829a1.734 1.734 0 0 1 -2.1.4 3 3 0 0 0 -1.2-.072 3.247 3.247 0 0 1 -3.4-4 37.025 37.025 0 0 1 2.935-9.119 58.575 58.575 0 0 1 5.914-11.085 2.965 2.965 0 0 1 1.623-1.389z" transform="matrix(.8571673 .51503807 -.51503807 .8571673 1069.11851184707 -1433.17250326929)"/><path d="m721.862 2087.445c-3.194-.006-4.156-1.405-3.075-4.053a22.411 22.411 0 0 1 3.67-5.487c3.239-3.99 6.61-7.866 10.2-11.554a6.552 6.552 0 0 1 3.038-1.559c.382-.116 1.234-.346 1.2-.014-.067.68.616 1.3 0 2.027-2.746 3.251-5.2 6.731-7.733 10.143-1.119 1.5-2.358 2.922-3.435 4.455-.729 1.037-1.474 2.156-.734 3.551.089.167.043.6-.036.63-1.257.416-2.024 1.763-3.095 1.861z" transform="matrix(.8571673 .51503807 -.51503807 .8571673 1011.09711419707 -1476.57503229545)"/><path d="m785.239 1956.773c1.64-1.842 2.661-4.083 4.277-5.915a18.938 18.938 0 0 0 1.455-1.592c.672-.966 1.364-.229 1.809.074a1.13 1.13 0 0 1 .171 1.629 46.049 46.049 0 0 0 -4.689 8.5c-.911 2.1-2.421 3.945-2.737 6.392a19.308 19.308 0 0 1 -1.1 3.033c-.47 1.387-1.434.239-2.178.188-.118-.008-.222-.353-.329-.352-.458.007-.727 1.173-1.264.364-.729-1.1-1.506-2.134-1-3.757a33.865 33.865 0 0 1 3.412-7.182c1.844-3.093 3.545-6.294 6.169-8.847.193-.188.371-.394.577-.566s.5-.329.729-.111c.291.278.137.614-.118.823-2.225 1.822-3.333 4.45-4.893 6.752a5.2 5.2 0 0 0 -.291.567z" transform="matrix(.8571673 .51503807 -.51503807 .8571673 954.70183153129 -1442.38301156235)"/><path d="m664.959 2054.31a19 19 0 0 0 2.036-1.959 1.831 1.831 0 0 1 2.361-.671c.562.223.442.812.388 1.187a2.48 2.48 0 0 1 -1.645 2.055c-.224.082-.56-.087-.559.317 0 1.972-1.726 3.023-2.469 4.6-.228.484-.653.944-.953 1.44-.874 1.451-1.589 3.027-3.442 3.583-.432.129-1.116.516-.883 1.171.711 2-.69 3.337-1.485 4.821-1.306 2.437-2.964 4.676-4.176 7.173-.137.282-.221.682-.614.584-.491-.122.159-.558-.181-.814-.612.326-1.149 1.205-2 .167-.3-.37-.751.256-.97.649-.167.3-.35.581-.725.36-.454-.266-.063-.544.057-.788a101.763 101.763 0 0 1 7.682-12.669l7.4-10.774z" transform="matrix(.8571673 .51503807 -.51503807 .8571673 1037.40728892997 -1453.07817051067)"/><path d="m729.713 2017.139c-.47.137.729-1.5-.553-.494-.035.027-.1.068-.117.056a1.556 1.556 0 0 0 -2.362.183c-.2.21-1.777-1.554-1.811-2.076a4.306 4.306 0 0 1 .494-2.22 27.553 27.553 0 0 1 8.174-9.738 4.556 4.556 0 0 1 5.266-.187c.956.513.952 1.129.157 1.9a33.87 33.87 0 0 0 -2.383 2.552c-.865 1.026-1.589 2.152-2.541 3.129-1.25 1.281-1.68 3.1-2.589 4.62a7.238 7.238 0 0 1 -1.735 2.275zm-2.958-3.552c1.511-2.339 3.035-4.676 4.717-6.906a15.118 15.118 0 0 0 -4.717 6.906z" transform="matrix(.8571673 .51503807 -.51503807 .8571673 992.06601179883 -1451.24712075061)"/><path d="m805.22 2037.225-.5 1.71c.3-.235.488-.306.544-.434.453-1.034 1.284-.767 1.939-.432a1.428 1.428 0 0 1 .6 1.864 21.461 21.461 0 0 1 -1.632 3.305 27.382 27.382 0 0 0 -2.5 4.393c-.634 1.638-1.559 3.232-1.163 5.158a.941.941 0 0 1 -1.4 1.071 2.624 2.624 0 0 0 -1.3-.157c-2.826.141-4.286-1.864-3.188-4.562a39.389 39.389 0 0 1 6.648-10.147c.488-.594.832-1.394 1.952-1.769z" transform="matrix(.8571673 .51503807 -.51503807 .8571673 970.44917323929 -1484.94123705682)"/><path d="m605.629 2131.335c-.017 1.016.84 1.509.958 2.32-1.252.172-2.041-.508-2.315-1.906a5.725 5.725 0 0 1 .916-4.128c1.572-2.576 2.885-5.3 5.081-7.526.859-.871 1.454-2.279 2.29-3.332 2.383-3 4.87-5.923 7.326-8.866a6.44 6.44 0 0 1 1.754-1.474.828.828 0 0 1 1.008.017.694.694 0 0 1 .114.975 11.478 11.478 0 0 1 -.9 1.5c-3.32 4.218-6.729 8.367-9.955 12.655a19.918 19.918 0 0 0 -2.914 5.594 6.908 6.908 0 0 0 .128 2.918c.028.266.4.626-.071.826-.9.382-1.657.761-.864 1.936.18.267-.23.408-.515.415-.51.011-1.1 0-1.157-.63-.057-.579-.387-.875-.884-1.294z" transform="matrix(.8571673 .51503807 -.51503807 .8571673 1071.0803278629 -1464.96161828636)"/><path d="m641.037 2013.2c-.292-.208-.457-.248-.585.064a27.545 27.545 0 0 1 -1.461 3.364c-.367.636-.288 1.946-1.7 1.564-.224-.061-.178.222-.077.381.237.373.091.646-.167.96a2.2 2.2 0 0 0 -.445 1.861c.21 1.354-.731 2.013-1.969 1.458-.149-.067-.413-.292-.426-.2-.317 2.206-1.512-.719-2 .35a1.618 1.618 0 0 1 -.58-1.171 5.056 5.056 0 0 1 .862-2.935 38.264 38.264 0 0 1 7.52-8.883 5.967 5.967 0 0 1 2.593-.941c.519-.153.825.277 1.022.688.268.563-.028.622-.489.471a4.879 4.879 0 0 1 -1.263 2.477c-.234.339-.389.747-.835.492z" transform="matrix(.8571673 .51503807 -.51503807 .8571673 1034.0875088131 -1430.17577243487)"/><path d="m718.761 1905.289c-.4.571-.113 1.548-1.359 1.627-.9.057-.738-.378-.739-.841-.774.07-.464.99-1.15 1.172-.282-1.245.177-2.436.121-3.632a.784.784 0 0 0 .017-.116c.962-.825 1.184-2.06 1.717-3.122a11.558 11.558 0 0 1 .567-1.359c2.173-3.2 3.941-6.65 6.282-9.747 1.835-2.427 3.459-5.013 5.419-7.352a6.136 6.136 0 0 1 1.816-1.69l-1.882 3.406c.014-.041.026-.083.038-.126-1.5 1.184-2.105 3.012-3.386 4.377.438.37.569-.016.779-.059.36-.074.582.151.722.461.069.152.205.376-.037.438-1.074.276-.817 1.167-.848 1.874a1.792 1.792 0 0 1 -1.07 1.56 2.416 2.416 0 0 0 -1.4 2.439l-.495.732a6.043 6.043 0 0 0 -2.4 4c-.587.03-.819 1.142-1.617.532-.237-.657-.371-.968-.986-.15-.777 1.034-.651 2.441-1.589 3.364a.275.275 0 0 0 .061.455.314.314 0 0 0 .517-.2c.165-1.054 1.005-1.794 1.261-2.8.107-.423.221-.793.774-.709.336 1.952-1.167 3.285-1.682 4.951-.068.221-.9-.374-.6.369a.7.7 0 0 0 1.149.146zm4.713-12.3-.333-.247c-.64 1.012-1.285 2.022-1.909 3.044-.073.119-.215.335 0 .465.15.091.408.117.459-.074.326-1.208 1.462-1.977 1.784-3.185z" transform="matrix(.8571673 .51503807 -.51503807 .8571673 964.62770394852 -1396.36725482749)"/><path d="m782.993 2100.89a2.922 2.922 0 0 0 .181 2.1c.128.346.224.609-.19.752-.379.131-.611-.135-.746-.424a3.225 3.225 0 0 1 -.054-2.258 19.44 19.44 0 0 1 4.022-7.124 15.338 15.338 0 0 0 1.579-1.9c.757-1.268 2.047-1.63 3.275-2.031.574-.187.684.583.8 1a.956.956 0 0 1 -.318.835c-2.042 1.336-2.372 3.825-3.757 5.615-.457.589-.247 1.786-.837 2.569-.466.619-.717 1.392-1.583 1.687-.5.17-.121.813-.347 1.2-.116.2-.187.432-.434.464s-.555-.178-.511-.336c.298-1.055-.949-1.324-1.08-2.149z" transform="matrix(.8571673 .51503807 -.51503807 .8571673 990.24461646523 -1503.98838568236)"/><path d="m663.752 2053.967-.185.436a33.717 33.717 0 0 0 -4.645 5.385c-1.932 2.61-3.679 5.366-5.362 8.147-1.424 2.354-3.24 4.469-4.239 7.091a5.375 5.375 0 0 1 -2.251 2.762c-.276-1.6.744-2.629 1.332-3.758a75.454 75.454 0 0 1 5.432-8.441c3.473-4.937 6.736-10.042 11.064-14.322.248-.245.446-.581 1.042-.4-.388 1.295-1.632 1.975-2.188 3.1z" transform="matrix(.8571673 .51503807 -.51503807 .8571673 1038.26574684113 -1452.16336834358)"/><path d="m785.17 2011.056c-.532.391.1 1.445-.721 1.273-.7-.147-.444-.995-.269-1.533a12.451 12.451 0 0 1 6.312-7.412c.469-.245 1.148-.618 1.582.075.384.615-.211.988-.55 1.373-1.424 1.613-2.775 3.26-3.13 5.484-.089.558-.542.759-1 .949a1.2 1.2 0 0 0 -.437.3c-.908 1.029-1.59 1.135-1.787-.509z" transform="matrix(.8571673 .51503807 -.51503807 .8571673 966.88543219848 -1467.04795346465)"/><path d="m724.978 1898.914c-.149 1.659-1.568 2.575-2.339 3.867a9.946 9.946 0 0 1 -1.95 2.8c-.227.189-.318.606-.693.4a.552.552 0 0 1 -.158-.828 54.115 54.115 0 0 1 3.842-5.631c.342-.416.882-.4 1.338-.573z" transform="matrix(.8571673 .51503807 -.51503807 .8571673 967.6136330428 -1405.53248171296)"/><path d="m730.149 1890.425c-.17-.368-.367-.709-.058-1.128a73.72 73.72 0 0 1 5.483-6.941c.157-.167.243-.563.6-.315.224.157.169.4.015.595-1.98 2.5-3.9 5.049-5.7 7.687-.051.074-.248.049-.376.071z" transform="matrix(.8571673 .51503807 -.51503807 .8571673 958.82549602666 -1400.8708773576)"/><path d="m714.5 1921.141a.793.793 0 0 1 -.017.116c-.239.6-.761 1.095-.717 1.818.016.258.051.624-.342.59-.351-.031-.3-.356-.273-.633a26.21 26.21 0 0 1 2.048-7.046c.16-.39.631-.809 1.06-.609.508.237.124.739-.056 1.033a16.742 16.742 0 0 0 -1.703 4.731z" transform="matrix(.8571673 .51503807 -.51503807 .8571673 974.7016352179 -1410.89830585012)"/><path d="m743.015 1884.544c-.011.043-.024.085-.038.126.571-.582 1.567-.753 1.663-1.826.016-.177.466-.825.922-.425.433.379-.03.78-.28 1.018a8.99 8.99 0 0 0 -2.546 3.912c-.436-.508-1.086-.84-.22-1.457.465-.332.279-.918.499-1.348z" transform="matrix(.8571673 .51503807 -.51503807 .8571673 953.67112864138 -1404.16159485131)"/><path d="m732.054 1909.378.495-.732.595-.468.209.145-1.369 2.441-.292-.1z" transform="matrix(.8571673 .51503807 -.51503807 .8571673 964.85373252339 -1412.62380893432)"/><path d="m723.139 1924.81c-.266-.934.415-1.555.772-2.275s.758-1.385 1.141-2.076a1.094 1.094 0 0 1 -.092 1.007c-.628 1.103-1.217 2.228-1.821 3.344z" transform="matrix(.8571673 .51503807 -.51503807 .8571673 971.7437397712 -1415.68550287219)"/></g><path d="m1019.864 605.715s-2.972-7.665-4.513-12.511-6.167-11.452-9.25-15.2-1.983-1.655-1.1 2.035l.881 3.691a50.127 50.127 0 0 0 -5.007-5.713c-1.862-1.576-.859 1 0 3.3a36.328 36.328 0 0 0 2.15 4.549s-4.012-2.972-5.876-3.975-1 .143.573 2.723a36.693 36.693 0 0 0 3.441 4.674s-3.87-2.456-5.877-3.422 2.723 3.464 4.157 5.693 4.73 10.112 7.311 13.123a58.842 58.842 0 0 0 5.59 5.59" fill="#ffa900" transform="translate(-635.207 -43.806)"/><path d="m1019.1 627.539-12.868-21.875 11.152-6.434 6.434 7.721" fill="#ff5050" transform="translate(-635.396 -44.189)"/><g transform="translate(318.689 511.798)"><ellipse cx="31.562" cy="31.562" fill="#281e78" rx="31.562" ry="31.562"/><g fill="#00ebe5"><path d="m82.848 336.865 7.454-3.716-17.057-8.5-7.408 3.692z" transform="translate(-51.698 -286.885)"/><path d="m92.423 311.25 7.427-3.7-26.664-13.3-7.427 3.7z" transform="translate(-51.644 -266.071)"/><path d="m134.131 301.662 7.433-3.707-7.427-3.7-7.437 3.705z" transform="translate(-93.381 -266.071)"/></g><path d="m73.1 263.823-7.432 3.7 17.064 8.508 7.433-3.707z" fill="#37eb77" transform="translate(-51.579 -245.232)"/><path d="m134.138 271.245 7.457-3.717-7.432-3.7-7.463 3.712z" fill="#37eb77" transform="translate(-93.381 -245.232)"/><path d="m103.6 248.583-7.455 3.717 7.458 3.717 7.457-3.717z" fill="#37eb77" transform="translate(-72.453 -234.795)"/></g><path d="m990.232 613.124s-2.972-7.665-4.513-12.511-6.167-11.452-9.25-15.195-1.983-1.655-1.1 2.035l.881 3.691a50.115 50.115 0 0 0 -5.007-5.713c-1.864-1.577-.859 1 0 3.3a36.332 36.332 0 0 0 2.15 4.548s-4.014-2.972-5.876-3.975-1 .144.573 2.723a36.691 36.691 0 0 0 3.44 4.674s-3.87-2.456-5.877-3.422 2.723 3.464 4.157 5.694 4.73 10.112 7.31 13.123a58.842 58.842 0 0 0 5.59 5.59" fill="#ba7301" transform="translate(-634.718 -43.928)"/><path d="m1038.923 596.4 1.475-8.906a.882.882 0 0 0 -.86-1.274l-6.422-.981q3.111-10.111 6.8-20.034a15.216 15.216 0 0 1 10.528 3.6 4.689 4.689 0 0 1 1.171 1.472 5.481 5.481 0 0 1 .358 1.885 215.488 215.488 0 0 1 .334 22.892" fill="#ba7301" transform="translate(-635.84 -43.628)"/><path d="m978.758 614.924s5.147 22.733 9.437 34.314 6.863 24.02 18.443 26.594 16.728-5.576 16.728-5.576v11.582h73.775s-9.008-52.328-11.153-69.057-5.451-24.6-11.027-24.17-17.711 1.866-32.723 4.011-18.444 1.286-19.731 4.289-13.725 50.614-13.725 50.614l-18.015-37.317" fill="#ff5050" transform="translate(-634.943 -44.014)"/><path d="m1038.015 562.623a3.255 3.255 0 0 0 -.534 5.18c2.082 1.662 5.8.379 7.365 2.532.953 1.31.483 3.128 0 4.675a129.972 129.972 0 0 0 -5.641 31.7 30.227 30.227 0 0 0 .817 10.455c1.03 3.359 3.277 6.5 6.53 7.832a16.109 16.109 0 0 0 3.975.925c5.316.714 11.43.512 15.079-3.419 3.91-4.21 3.307-10.8 2.073-16.415-.73-3.316-1.592-6.6-2.454-9.887l-3.122-11.891c-1.42-5.408-2.858-10.862-5.374-15.855-1.339-2.658-3.158-3.3-5.529-4.508-2.652-1.351-9.667-2.512-13.189-1.32" fill="#ffd800" transform="translate(-635.895 -43.576)"/><path d="m1096.149 680.032-73.207 1.273s-36.584 6.2-53.391 7.084-17.1 15.349-16.216 21.843 3.948 15.054 25 16.826 88.646-1.476 104.29-1.476 17.416-22.433 16.529-32.174-3.005-13.376-3.005-13.376z" fill="#160078" transform="translate(-634.518 -45.523)"/><path d="m1035.815 714.887 12.832-.351c1.375-.037 2.884-.03 3.938.852 1.134.949 1.354 2.58 1.477 4.053q.672 7.962.729 15.961c.015 2.154-.1 4.548-1.62 6.072a3.39 3.39 0 0 1 -1.7-1.6 5.028 5.028 0 0 1 -1.207 1.738 1.721 1.721 0 0 1 -1.978.228 2.585 2.585 0 0 1 -.832-1.816 93.634 93.634 0 0 0 -3.338-13.646 1.51 1.51 0 0 0 -1.547-1.347c-2.161-.282-4.337-.461-6.516-.533" fill="#16a564" transform="translate(-635.884 -46.093)"/><path d="m1074.438 714.887 12.832-.351c1.374-.037 2.884-.03 3.937.852 1.134.949 1.353 2.58 1.478 4.053q.671 7.962.728 15.961c.015 2.154-.1 4.548-1.62 6.072a3.386 3.386 0 0 1 -1.7-1.6 5.035 5.035 0 0 1 -1.208 1.738 1.719 1.719 0 0 1 -1.977.228 2.583 2.583 0 0 1 -.832-1.816 93.6 93.6 0 0 0 -3.339-13.646 1.509 1.509 0 0 0 -1.546-1.347q-3.243-.423-6.517-.533" fill="#16a564" transform="translate(-636.522 -46.093)"/><path d="m987.937 607.66c-.326-2.536-.651-7.549-.976-10.086a14.391 14.391 0 0 0 -.745-3.484 11.189 11.189 0 0 0 -1.542-2.59c-.215-.286-.557-.6-.882-.448a13.363 13.363 0 0 0 -.812 5.711" fill="#ba7301" transform="translate(-635.011 -44.054)"/><path d="m4113.488 2427.59a1.416 1.416 0 0 1 2.4.328c.108.177.22.305.386.144.5-.485.96-.229 1.5-.062.461.141.84.489 1.356.492a.462.462 0 0 1 .443.453c.029.368.417.308.53.426.686.726 2.034.1 2.461 1.252 1.022-.173 1.143 1.023 2 1.285a6.843 6.843 0 0 1 2.427 1.94 26.769 26.769 0 0 1 3.418 3.817c1.328 1.928 3.147 3.387 4.649 5.143.41.479 1.092.729 1.5 1.258.891 1.17 2.473 1.587 3.187 2.944 2.09.9 3.325 2.884 5.183 4.1a77.63 77.63 0 0 0 11.353 6.284 81.06 81.06 0 0 0 10.382 3.774 67.887 67.887 0 0 0 8.625 1.47c5.7.84 11.443 1.335 17.153 2.107a72.548 72.548 0 0 1 11.353 2.586 94.815 94.815 0 0 1 15.668 6.361 32.331 32.331 0 0 1 8.6 6.166c2.933 3.017 3.951 9.224 1.96 12.658a12.683 12.683 0 0 1 -2.932 3.535c-.575.468-1.114.987-1.63 1.5-1.06 1.054-2.347 1.792-3.475 2.742-.241.2-.508.487-.9.326a.241.241 0 0 0 -.3.079c-2.1 2.283-4.9 3.391-7.7 4.431a43.891 43.891 0 0 1 -12.64 2.292q-9.448.6-18.91.43c-5.674-.1-11.329-.558-16.978-1.075-6.849-.626-13.693-1.289-20.551-1.83-8.084-.638-16.185-1.076-24.254-1.908-5.152-.532-10.267-1.331-15.348-2.295a52.987 52.987 0 0 1 -17.2-6.013 34.061 34.061 0 0 1 -10.86-9.77c-3.556-5.091-5.157-10.79-3.077-16.863a59.828 59.828 0 0 0 2.73-14.521 20.812 20.812 0 0 1 8.907-15.974c1.458-1.028 2.477-2.541 3.889-3.635a36.749 36.749 0 0 1 4.553-3.34 32.355 32.355 0 0 1 13.944-4.019c.541-.032 1.244-.361 1.705.319.027.04.222 0 .321-.048 1.287-.589 2.575-.133 3.86 0 .391.032.387.069.312.711zm52.714 75.726c-8.917-1.041-17.821-2.209-26.809-2.39zm-63.289-74.845a.883.883 0 0 0 -.9-.091c-2.827.927-5.782 1.53-8.294 3.26a2.026 2.026 0 0 1 -.523.28 10.229 10.229 0 0 0 -2.462 1.544c-.129.086-.276.278-.1.433s.292-.03.437-.121c.623-.39 1.206-.832 1.843-1.209a31.207 31.207 0 0 1 7.7-3.393c.744-.203 1.479-.452 2.299-.704zm89.4 60.325c2.429.695 13.415.593 14.444-.116-4.85.196-9.646.2-14.442.12zm4.639 15.075c-5.119.051-10.24-.025-15.352.355 5.124.066 10.242-.017 15.354-.356zm-50.82-43.752.11-.239-5.449-2.515c1.254 2.059 3.488 1.995 5.341 2.754zm-61.041-13.824c.991-1.469 2.29-2.7 3.221-4.209a6.718 6.718 0 0 0 -3.219 4.209zm-4.719 12.345c1.066-3.314 2.258-6.577 3.484-9.828a46.823 46.823 0 0 0 -3.482 9.828zm6.979 31.791c-1.822-1.326-3.414-2.983-5.447-4.041a22.186 22.186 0 0 0 5.449 4.04zm105.247 16.992h-14.048c4.684.15 9.367.196 14.05-.001zm-88.334-67.384c2.249-.639 4.548-1.031 6.811-1.582a16.4 16.4 0 0 0 -6.809 1.581zm-14.23 27.5c-.036-.629-.338-.636-.621-.552a9.387 9.387 0 0 0 -2.091 1.124.33.33 0 0 0 -.137.447c.109.18.3.094.46.033.662-.256 1.32-.521 1.981-.775.229-.082.416-.189.409-.274zm18.094-23.942a20.876 20.876 0 0 0 -6.579 2.882c2.131-1.106 4.364-1.973 6.58-2.879zm-19.769 2.543a12.445 12.445 0 0 0 -2.285 4.539zm9.318 48.376a14.34 14.34 0 0 0 3.662.921 8.376 8.376 0 0 0 -3.661-.917zm113.847 5.8a6 6 0 0 0 2.571-.908c-.903.198-1.895.161-2.571.907zm-38.994 6.707c1.653.033 3.319.574 5.175.278zm-50.2-61.921c.2 1.257 1.252.8 1.866 1.143a5.2 5.2 0 0 0 -1.868-1.145zm21.786 59.455a15.85 15.85 0 0 0 -3.543-.147c1.188-.105 2.348.333 3.541.147zm44.9 2.2v.055h3.8v-.055zm8.1.619.022-.079h-3.5v.079zm-5.542-18.45.053-.194h-2.527zm26.982-7.189c.01-.052.021-.1.031-.157l-1.966-.5-.05.282zm-129.578-15.037-.118-.209c-.5.326-1.093.512-1.426 1.109zm-10.135 1.329a6.523 6.523 0 0 0 -.343 2.275 4.442 4.442 0 0 0 .343-2.28z" fill="#00ebe5" transform="matrix(.2419219 -.97029573 .97029573 .2419219 -3261.315 3969.312)"/></g></g></svg>