<svg viewBox="0 0 177 390"
  xmlns="http://www.w3.org/2000/svg"
  xmlns:xlink="http://www.w3.org/1999/xlink">
  <linearGradient id="card-pay-illus-a" gradientUnits="objectBoundingBox" x1=".149" x2=".73" y1=".296" y2=".801">
    <stop offset="0" stop-color="#0ffff9"/>
    <stop offset="1" stop-color="#37eb77"/>
  </linearGradient>
  <clipPath id="card-pay-illus-b">
    <path d="m10 0h167a0 0 0 0 1 0 0v390a0 0 0 0 1 0 0h-167a10 10 0 0 1 -10-10v-370a10 10 0 0 1 10-10z" transform="translate(321 460)"/>
  </clipPath>
  <g clip-path="url(#card-pay-illus-b)" transform="translate(-321 -460)">
    <path d="m0 0h177v390h-177z" fill="url(card-pay-illus-a)" transform="translate(321 460)"/>
    <g opacity=".9">
      <g fill="#c3fc33">
        <path d="m458.1 2241.5a5.119 5.119 0 0 0 -1.781 3.405c-.118.75-.8.853-1.318.985a2.2 2.2 0 0 0 -1.218.5.854.854 0 0 1 -.81.066 12.23 12.23 0 0 1 -1.872-1.168 26.838 26.838 0 0 1 -4.916-6.256 57.105 57.105 0 0 1 -4-7.077c-.339-.777-.353-.771.5-1.375.694 1.319 1.34 2.658 2.089 3.938.594 1.014 1.312 1.956 2.035 3.017a.983.983 0 0 0 -.1-1.082 40.648 40.648 0 0 1 -3.888-6.637l.59-.386.339.293v-.866l1.586-.315c.473.221.7 1.058 1.476 1.162-.025.847.715 1.268 1.087 1.887a19.969 19.969 0 0 0 1.529 2c.5-.067.873-.136 1.251-.163 1.324-.094 1.292-.052 2.117.676.916.808 1.544 1.938 2.725 2.452a.323.323 0 0 1 .165.229c.037.85.514 1.159 1.312 1.366.67.173.86.88.892 1.575.027.534.125 1.063.21 1.774z" transform="translate(-13.235 -1470.292)"/>
        <path d="m263.271 2078.133c.948.474.948.474 1.458-.519.649-.222 1.432.225 2.019-.37a19.054 19.054 0 0 0 1.98.481c1.081.148 1.639.984 2.25 1.689.414.478.848.958 1.227 1.477.442.607.972 1.15 1.417 1.757.4.549.747 1.142 1.105 1.724a1.015 1.015 0 0 1 .212.528 1.258 1.258 0 0 0 .439 1.079c.617.623.57 1.537.783 2.313a6.887 6.887 0 0 1 .021 2.325c-.025.3-.064.927-.714.461-.046-.033-.273.21-.43.3s-.448.28-.505.229c-.687-.6-.855-.172-1.169.424-.462.877-.744.813-1.984.591-.755-.135-1.555-.159-2-.813-1.2-1.771-2.419-3.53-2.585-5.794a3.536 3.536 0 0 0 -1.068-2.507c-.645-.562-1.073-1.366-1.953-1.679-.265-.095-.46-.411-.666-.644a2.587 2.587 0 0 1 -.685-1.751c-.009-.726.565-.889.848-1.301z" transform="translate(63.402 -1405.711)"/>
        <path d="m435.362 2171.292c-.774-.774-1.423-1.531-2.18-2.16-2.172-1.8-3.2-4.351-4.5-6.724a6.518 6.518 0 0 1 -.391-3.415c0-.2.281-.394.442-.6l.73 1.444v-2.137a5.38 5.38 0 0 0 1.209-.627 1.162 1.162 0 0 1 1.157-.19 4.6 4.6 0 0 1 1.161.7 4.233 4.233 0 0 0 .748 3.035c.488-.132 1.066.215 1.555-.287a.629.629 0 0 1 .591-.026c1.2.722 2.671 1.1 3.277 2.586.109.266.23.612.449.73.33.179.033.738.6.759.467.018.169.493.252.752a7.055 7.055 0 0 1 .3.964 5.676 5.676 0 0 1 .011.933 9.524 9.524 0 0 0 -2.563 3.8z" transform="translate(-7.378 -1439.675)"/>
        <path d="m211.809 2053.76c.285-.388.507-.712.753-1.016a1.2 1.2 0 0 1 .357-.261c.367-.206.63.375 1.041.122a2.626 2.626 0 0 1 1.067-.412c.3-.029.757.339.921.221.366-.263.583-.343.9.013.058.066.275.016.41-.016 1-.241.995-.244 1.528.725l.25-.722a8.121 8.121 0 0 1 .378 1.051 7.818 7.818 0 0 1 .117 1.2 2.6 2.6 0 0 0 .231 1.224l.151-1.5.161-.007a7.834 7.834 0 0 1 .083.8c.009 1.352-.056 2.707.022 4.054a5.008 5.008 0 0 1 -.807 3.246c-.252-.241-.49-.605-.777-.023-.313.636-.815.588-1.464.3-.108.691-.156 1.507-1.3 1.247v-1.733l-.23-.046-.55 1.789c-.512-.343-.931-.708-.848-1.428.023-.2-.213-.423-.289-.65-.33-.982-.324-.985-1.141-1.008-.155 0-.312 0-.468 0h-.428c-.4-.4-.752-.776-1.133-1.128a4.268 4.268 0 0 1 -1.2-2.776c-.065-.512.046-1.046-.027-1.556a1.953 1.953 0 0 1 .465-1.372c.51-.798.788-.82 1.827-.338z" transform="translate(85.992 -1395.016)"/>
        <path d="m363.732 2070.516c-.667.453-1.308.906-1.977 1.315-.065.04-.3-.2-.549-.371a5.768 5.768 0 0 1 -.421.734 9.079 9.079 0 0 1 -.655.667c-.44.454-.864.958-1.515.27-.049-.052-.2 0-.3-.011-.731-.079-1.428.1-2.162-.485a16.989 16.989 0 0 1 -1.9-1.382 7.915 7.915 0 0 1 -1.425-1.75 5.333 5.333 0 0 1 -.911-3.362 4.7 4.7 0 0 1 .459-1.019l.97.8c.255-.844.2-1.826.985-2.569l.973.727v-1.14a13 13 0 0 1 2.99-.467 2.271 2.271 0 0 1 1.474.581 8.716 8.716 0 0 1 1.46 1.378c.354.533.839.979 1.211 1.528a19.56 19.56 0 0 1 1.263 2.918 4.222 4.222 0 0 1 .03 1.638z" transform="translate(25.224 -1399.401)"/>
        <path d="m256.383 2128.156v3.354a7.825 7.825 0 0 0 .284-2.556c.01-.343-.152-.769.264-.974a4.7 4.7 0 0 1 1.346-.49c.159-.023.463.353.553.6a2.91 2.91 0 0 1 .022.928c.259-.108.413-.233.552-.218.285.032.677.3.823.189.813-.6 1.7-.205 2.543-.251a1.449 1.449 0 0 1 1.137.541c.448.759 1.349.991 1.823 1.885a2.178 2.178 0 0 0 .463 1.361 3.15 3.15 0 0 1 .8 2.466 9.678 9.678 0 0 0 -.013 1.48c-1.065.632-2.174 1.247-3.237 1.932-1.112.718-2.124.235-3.07-.261-.691-.361-1.617-.532-1.851-1.5-1.544-.7-1.818-2.323-2.643-3.552a6.44 6.44 0 0 1 -.695-2.662c-.13-.723.381-1.56.608-2.347z" transform="translate(66.374 -1427.158)"/>
        <path d="m308.229 2153.931-2.141-2.141a12.621 12.621 0 0 1 .027-1.741c.03-.223.354-.449.594-.58.091-.051.326.162.5.255.227-.449.36-1.058 1.127-.91a.616.616 0 0 0 .442-.042 1.477 1.477 0 0 1 1.288-.489 6.154 6.154 0 0 1 2.536.991 11.292 11.292 0 0 1 3.307 4.224 17.225 17.225 0 0 1 .956 3.176 1.514 1.514 0 0 1 -.583 1.5c-.888.622-1.742 1.293-2.65 1.885a1.891 1.891 0 0 1 -1.1.309 4.688 4.688 0 0 1 -4.561-3.831 3.188 3.188 0 0 1 -.282-1.112 7.309 7.309 0 0 1 .54-1.494z" transform="translate(44.773 -1436.021)"/>
        <path d="m307.31 2250.372-.185-.94c0 1.244-1.317 1.709-1.6 2.766a.62.62 0 0 1 -.894.337c-.378-.342-.635-.093-.848.046a1.381 1.381 0 0 1 -1.627 0c-1.668-.976-3.39-1.872-4.373-3.66-1.185-.641-1.532-1.944-2.269-2.934a7.69 7.69 0 0 1 -.722-1.791c.436-.635 1.068-.467 1.834-.085a2.553 2.553 0 0 0 -.205-.9c-.209-.281.014-.392.133-.441a4.623 4.623 0 0 0 1.539-.817c.108-.1.415-.062.605 0 .34.1.631.32 1.009.013.107-.087.455.086.674.182a9.649 9.649 0 0 1 4.7 3.7 4.545 4.545 0 0 0 .741.746c.725.674.861 1.655 1.422 2.381a1.224 1.224 0 0 1 .066 1.397z" transform="translate(49.588 -1475.989)"/>
        <path d="m474.542 2127.7.128-.895c.114.082.214.115.241.179a18.9 18.9 0 0 1 1.135 2.967c.148.66.336 1.291-.3 1.8-.434.349.006 1.354-.97 1.3-.461.74-1.2.666-1.906.615a10.921 10.921 0 0 1 -.467 1.408c-.234.485-.984.622-1.787.393-.183-.053-.36-.23-.529-.216-1.3.113-1.3.123-1.846-.9a15.488 15.488 0 0 1 -.815-1.537 2.263 2.263 0 0 0 -1.319-1.344 2.972 2.972 0 0 1 -1.784-2.279 2.547 2.547 0 0 1 1.091-2.414l1.374 1.794c0-.755-.008-1.264 0-1.772s.065-.4.865-.762c.57-.257 1.4.055 1.726-.737l1.691-.065c1.041-.041 1.965.073 2.451 1.23a5.593 5.593 0 0 0 1.021 1.235z" transform="translate(-22.763 -1426.195)"/>
        <path d="m211.678 2133.227a2.151 2.151 0 0 1 -1.779-1.91 13.242 13.242 0 0 1 -.4-2.985 26.9 26.9 0 0 0 -.005-4.055c-.049-.653.37-1.136.361-1.746 0-.159.218-.465.323-.459.8.046 1.187-.826 2.031-.83.559 0 1.114-.527 1.742-.855.618.618 1.932-.146 2.433 1.216-.328.958.489 1.8.766 2.779.038.136.182.259.183.389.013 1.544.008 3.088.008 4.766l-.627-.556c.084.363.068.64.192.735s.41-.011.6.051c.084.029.13.252.139.391 0 .064-.134.2-.184.194-.378-.074-.751-.177-1.16-.28l-.8 1.731-.935-.07c.446.449-.066.611-.252.887s-.326.594-.476.874c-.983-.107-1.35-.741-1.613-1.581z" transform="translate(85.998 -1424.126)"/>
        <path d="m412.2 2264.024c-.809-.023-1.574-.241-1.965.655-.66-.87-.738-1.487-.065-2.178a9.862 9.862 0 0 1 1.361-1.485c.518-.361.708-1.159 1.154-1.667a6.9 6.9 0 0 1 1.3-.939l.519.508-.734.521.081.188 1.113-.175c.106.159.23.57.5.708a10.245 10.245 0 0 1 3.58 3.637 12.82 12.82 0 0 1 .683 1.587c.632 1.276.794 1.512.6 2.673a4.258 4.258 0 0 1 -.951 2.415 1.781 1.781 0 0 0 -.551 1c-.034.871-.513 1.01-1.216.966a1.878 1.878 0 0 0 -.6.064c-1.228.33-1.355.3-1.967-.645a19.639 19.639 0 0 1 -1.867-4.535c-.375-1.092-.663-2.222-.975-3.298z" transform="translate(.54 -1483.042)"/>
        <path d="m372.071 2229.163a10.677 10.677 0 0 1 -2.455-1.638c-1.319-1.332-2.735-2.58-3.951-4a20.157 20.157 0 0 1 -3.406-4.711c.081-.691.981.042 1-.772.005-.233.575-.458.892-.678.785-.548 1.224-.64 1.8-.031a3.435 3.435 0 0 0 1.956.973c1.141.242 1.929 1.118 2.905 1.657a13.64 13.64 0 0 1 2.638 2.312 14.792 14.792 0 0 1 1.364 1.2 4.157 4.157 0 0 1 .863 1.6 1.632 1.632 0 0 1 -.445 1.183c-.328.382-.484.934-1.059 1.119-.332.107-.285.479-.35.784-.075.352-.173.779-.782.338-.433-.313-.791.124-.97.664z" transform="translate(20.789 -1465.329)"/>
        <path d="m484.588 2212.978a6.8 6.8 0 0 1 -3.308-3.423 28.484 28.484 0 0 1 -1.776-3.626c-.5-1.246-1.361-2.427-.975-3.995 1.127.785 1.034 2.286 2.115 3.29-.2-1.588-1.022-2.814-1.432-4.487l1.027.563.15-.842 1.485-.282c.145.233.336.577.563.9.885 1.24.89 1.234 2.5 1.805a2.642 2.642 0 0 1 .511.272 7.855 7.855 0 0 1 3.063 3.04 5.329 5.329 0 0 1 .583 1.972.663.663 0 0 0 .194.381.378.378 0 0 1 -.113.639c-.7.4-1.006 1.176-1.63 1.642a1.049 1.049 0 0 0 -.362.791 1.523 1.523 0 0 1 -1.352.933c-.252-.058-.416-.522-.76-.18a5.811 5.811 0 0 0 -.483.607z" transform="translate(-28.799 -1458.184)"/>
        <path d="m393.715 2152.92-.954.157.384.718-2.312 2.312a2.34 2.34 0 0 0 -.433 0c-1.753.325-2.921-.67-3.9-1.87a14.155 14.155 0 0 1 -1.923-3.1 3.248 3.248 0 0 1 -.375-2.306l1.48 3.251.253-.082a2.988 2.988 0 0 0 -.121-.593c-.317-.753-.677-1.489-.976-2.249-.132-.336-.416-.755.307-.911.223-.048.354-.53.524-.814.149-.25.294-.5.412-.7.73-.067.737.573 1.193.835-.106-.4-.213-.8-.352-1.334l.859-.681c.2.2.458.509.7-.067.263-.623.651-.865 1.282-.456.057.037.176.065.214.034.73-.6 1.159 0 1.5.458a15.145 15.145 0 0 1 1.668 3.673c.113.295.361.986-.471 1.02-.046 0-.083.26-.124.4.173.042.439.176.5.109a.368.368 0 0 1 .671.25c-.273.661.379 1.298-.006 1.946z" transform="translate(11.456 -1434.554)"/>
        <path d="m390.326 2100.011.646.646.139-1.2c.643-.135 1.307-.3 1.98-.4a4.21 4.21 0 0 1 1.242 0c.31.048.067.625.644.675.372.033.66.667.925 1.108.215.359-.107 1.134.711 1.087q.042.761.085 1.522c0 .05.014.1.021.147l2.323 2.323a4.894 4.894 0 0 1 .763.008c.388.062.806.447.607.685-.443.53.351.9.035 1.329a4.416 4.416 0 0 1 -2.573.23l.73 1.58c-.157.151-.364.518-.568.516-1.288-.009-2.643.318-3.791-.6a5.5 5.5 0 0 1 -.929-.746c-.552-.691-1.046-1.429-1.55-2.158-.248-.36-.46-.745-.7-1.111-.369-.569-.26-1.386-.937-1.793a3.314 3.314 0 0 0 -.534-1.8 1.5 1.5 0 0 1 .731-2.048z" transform="translate(9.184 -1415)"/>
        <path d="m303.024 2060.3h1.441c.558 0 1.161-.092 1.289.713a.4.4 0 0 0 .322.212c.661-.1.832.526 1.236.8 1.1.745 1.258 1.972 1.532 3.107.156.647-.053 1.111-.789 1.552a6.211 6.211 0 0 0 -2.428 1.7c-.5.01-.911.793-1.5.166a.605.605 0 0 0 -.412-.118c-1.973.038-3.207-1.095-4.238-2.6a7.068 7.068 0 0 1 -1.384-2.394 8.316 8.316 0 0 1 -.162-1.178c-.009-.129.067-.354.158-.387.794-.283 1.371-.961 2.14-1.236a6.194 6.194 0 0 1 2.795-.337z" transform="translate(48.246 -1398.464)"/>
        <path d="m301.933 2191.769.723 1.138c.073-.544.1-.73.123-.917.069-.62.068-.619.851-.7.1-.01.248 0 .284-.052a1.234 1.234 0 0 1 1.478-.551 5.123 5.123 0 0 1 1.819.851 14.385 14.385 0 0 1 3.961 6.141 4.005 4.005 0 0 1 .021 1.345l-.6-.066c.04.561-.087.975-.743 1.108a.77.77 0 0 0 -.485.531c-.066.675-.759.346-1 .7-.387-.615-1.051.13-1.486-.309-.416-.421-.986-.746-1.261-1.239a17.354 17.354 0 0 1 -1.541-3.406 2.026 2.026 0 0 0 -.918-1.284 4.042 4.042 0 0 1 -1.717-1.812c-.307-.673-.32-.667.491-1.478z" transform="translate(46.831 -1454.107)"/>
        <path d="m352.348 2157.492a2.154 2.154 0 0 1 .013-.565c.033-.13.256-.218.275-.343s-.138-.292-.14-.44c0-.131.183-.292.147-.389a1.176 1.176 0 0 0 -.366-.467 1.508 1.508 0 0 0 -.476-.14l.255.885c-.552-.336-1.165-.6-.9-1.416l.73.314c.09-.976-.815-.468-1.163-.93.51.06.85-.291 1.363-.223.238.031.548-.474.912-.818l1.737 1.417.167-1.022 2.3-.444c.4.511.712.976 1.092 1.376.33.347.784.578 1.1.932a8.764 8.764 0 0 1 1.674 3.517c.132.448.278 1.157-.577 1.276 0 .822-.863.945-1.254 1.466a1.847 1.847 0 0 1 -2.292.388 8.5 8.5 0 0 1 -3.216-2.725c-.443-.533-.946-1.041-1.381-1.649z" transform="translate(25.711 -1438.009)"/>
        <path d="m397.454 2193.442.774.264c.057-1.315-1.3-1.683-1.491-2.895a3.208 3.208 0 0 1 .661.3 10.812 10.812 0 0 1 .8.789 2 2 0 0 0 -.56-1.261c.822-.994.822-.994 1.792-1a8.665 8.665 0 0 0 1.672 1.811c.755.461.978 1.248 1.534 1.813a7.786 7.786 0 0 1 1.237 1.967 2.237 2.237 0 0 1 .3 1.259c-.08.5-.295 1.241-.65 1.384-.585.236-.454.649-.638 1a1.737 1.737 0 0 1 -1.23 1.062c-.369.061-.809.343-1.08.221a5.738 5.738 0 0 1 -1.829-1.2 31.383 31.383 0 0 1 -2.531-3.154c-.2-.274-.107-.755-.165-1.3l.588.474c-.115-.776.582-1.054.816-1.534z" transform="translate(6.366 -1453.689)"/>
        <path d="m376.057 2291.078-.832-.458c-.351 1.27-.438 1.335-1.476.878.274.637.493 1.148.733 1.7l-.829.481-1.582-1.583c-.338.762.593 1.114.5 1.848-.835.117-1.319-.451-1.8-.973-.263-.286-.4-.684-.675-.959a34.534 34.534 0 0 1 -3.3-3.935 2.69 2.69 0 0 0 -.328-.332 3.115 3.115 0 0 1 -1.292-2.088c.608-.372.93.2 1.343.557.42-.7-.551-.789-.508-1.3.037-.618 1.213.17.914-.84h1.693c.484.342.975.678 1.457 1.028a9.142 9.142 0 0 0 1.394 1.143c.574.278.955.936 1.46 1.381.33.291.539.689 1.066.82.381.094.584.673 1.163.6.161-.021.452.27.534.477a11.722 11.722 0 0 1 .365 1.555z" transform="translate(19.544 -1493.997)"/>
        <path d="m360.357 2110.793c.538.036.909-.243 1.4.112l-.629.217c.185.626.39 1.249.54 1.884.039.163-.046.484-.16.532-.627.265-.816.94-1.3 1.309a1.713 1.713 0 0 1 -.823.249c-.141.016-.308-.2-.45-.183a1.6 1.6 0 0 0 -.512.272c-.268-.948-.254-.986-1.311-1.346-.632-.215-.763-.837-1.211-1.228l-.306.652c-.158-.166-.423-.315-.422-.464.008-1.862.007-1.9-.844-3.02-.479.842.439 1.329.489 2.153-.228-.036-.567-.009-.607-.106-.4-.971-1.008-1.888-.383-3.053.194-.362.229-.552.663-.559a1.681 1.681 0 0 0 .8-.313c.619-.391 1.216-.818 1.878-1.269l.257.384c.522.364 1.067-.616 1.154.406.025.29.673-.4.673.358 0 .293.539.588.81.858l-.281.73.231.16.443-.843.654 1.11z" transform="translate(24.504 -1418.256)"/>
        <path d="m269.841 2189.106-.961-1.213-.4.812a3.514 3.514 0 0 1 -1.35-1.233c-.761-1.073-1.35-2.258-2.121-3.333a2.873 2.873 0 0 1 -.315-2.351c.712-.144.867.692 1.46.9v-1.522l3.2-.451a8.386 8.386 0 0 1 2.211 3.11c.277.664.849 1.163 1.022 1.923.069.3-.316.7.157.928a3.743 3.743 0 0 1 -.145.367c-.774-.279-1.034.843-1.779.663-.048-.012-.18.276-.254.433a4.99 4.99 0 0 1 -.22.531 2.943 2.943 0 0 1 -.505.436z" transform="translate(62.48 -1449.88)"/>
        <path d="m331.459 2228.329.619 1.431.288-.761c.07.043.185.073.2.129a3.144 3.144 0 0 0 .782 1.4 3.737 3.737 0 0 1 .557.86 1.762 1.762 0 0 0 1.311 1.013l.251-.51.857.642c0 .195.021.279 0 .294-.283.184-.573.358-.837.52l.249 1.393-1.094-.532-.63 1.27-.757.086v.695a1.452 1.452 0 0 1 -2.109-.112c-.742-.676-1.578-1.248-2.334-2.053l.962-.635a4.712 4.712 0 0 0 -.926-1.744 10.692 10.692 0 0 1 -1.01-1.885c.459-.564.82-.146 1.24.03.018-.157.091-.326.04-.439-.313-.705-.178-1.054.487-1.084.622-.031 1.248-.008 1.854-.008z" transform="translate(35.482 -1470.198)"/>
        <path d="m256.019 2237.354.743 1.1c.07-.217.165-.356.143-.472-.107-.565-.245-1.123-.389-1.759h.908c.079.163.175.363.366.759v-1.282a1.773 1.773 0 0 0 .434-.16c.242-.181.626-.591.666-.558.4.327.888.129 1.274.277a1.448 1.448 0 0 1 1.112 1.337c0 .219-.293.462-.249.646.036.15.437.183.557.352a.618.618 0 0 1 0 .589c-.405.323-.316.741-.288 1.133a.788.788 0 0 1 -.614.91c-.465.132-.573.429-.671.874a1.188 1.188 0 0 1 -1.3 1.014 3.007 3.007 0 0 0 -.757.049c-.621.135-1.4-.013-1.6-.47-.472-1.111-1.157-2.162-1.029-3.47.06-.505.367-.65.694-.869z" transform="translate(66.436 -1473.042)"/>
        <path d="m343.869 2188.669 1.293.379a1.183 1.183 0 0 0 -.172-1.437c.547-.5.912.252 1.449.171l.155-.835c.421-.451.8.38 1.309-.011s.651.464 1.093.564a1.424 1.424 0 0 1 .657.532c.587.72.679 1.738 1.469 2.366.19.151.088.667.131 1.126-.876-.43-.93.961-1.774.631-.259.42-.015 1.182-.964 1.273l-.481-.82-.377.788c-.532.126-.775-.333-.95-.624a6.482 6.482 0 0 0 -2.305-2.3 1.278 1.278 0 0 1 -.533-1.803z" transform="translate(28.712 -1452.478)"/>
        <path d="m325.98 2113.861-1.98 1.556h-1.312c-.511-.739-.677-1.712-1.431-2.322a4.225 4.225 0 0 0 -1.409-2.385c-.2-.228-.154-.663-.238-1.088.226-.062.449-.059.566-.167 1.2-1.123 2.329-.492 3.286.274a10.3 10.3 0 0 1 2.083 2.4 5.234 5.234 0 0 1 .435 1.732z" transform="translate(38.996 -1419.2)"/>
      </g>
      <g fill="#c3fc33">
        <path d="m1897.91 2132.819a16.977 16.977 0 0 1 -3.021 5.848 15.362 15.362 0 0 0 -2.28 3.529c-.222.455-.63.592-.862 1a24.107 24.107 0 0 1 -1.434 2.943c-1.564 2.078-3.107 4.165-4.74 6.194-1.077 1.339-2.085 2.746-3.2 4.054a19.046 19.046 0 0 1 -7.7 5.233c-3.415 1.345-6.8 2.8-10.287 3.918a46.792 46.792 0 0 1 -20.012 2.094c-4.139-.494-8.17-1.276-11.717-3.389a37.373 37.373 0 0 1 -13.657-13.695 6.487 6.487 0 0 0 -.432-.617 18.5 18.5 0 0 1 -3.189-5.97 19.525 19.525 0 0 0 -1.261-3.212c-1.486-3.095-1.2-6.212 0-9.317a24.893 24.893 0 0 1 5.479-8.13 17.908 17.908 0 0 0 4.876-11c.419-3.919-.269-7.714-.967-11.523-.428-2.338-.811-4.685-1.271-7.016-.742-3.758-2.471-7.108-4.246-10.465a54.7 54.7 0 0 1 -5.146-13.829 21.115 21.115 0 0 1 .93-11.878 17.386 17.386 0 0 1 3.511-6.159 36.038 36.038 0 0 1 5.232-4.834 53.467 53.467 0 0 1 15.323-7.391c6.251-1.948 12.339-4.252 17.68-8.176a134.827 134.827 0 0 0 11.339-9.365 76.122 76.122 0 0 1 16.044-11.839c5.778-3.016 11.814-5.364 18.419-5.3 9.942.091 18.454 3.6 24.483 11.781 4.459 6.048 5.182 12.979 3.725 20.214-.263 1.306-.529 2.612-.835 3.909a26.054 26.054 0 0 1 -4.13 9.205c-1.16 1.637-2.411 3.205-3.572 4.826a56.036 56.036 0 0 1 -4.449 5.342 59.031 59.031 0 0 0 -4.956 6.263c-.533.762-1.378 1.224-1.894 2.043a62.909 62.909 0 0 0 -5.367 9.556 18.379 18.379 0 0 0 -1.665 5.705c-.091 1.27-.013 2.537-.124 3.8a22.574 22.574 0 0 0 .461 5.6c.116.71-.745 1.284-.559 1.333 1 .267.3.831.318 1.24.012.242-.141.509-.087.731.931 3.777.529 7.636.608 11.451.074 3.542.384 7.151-.574 10.622-.35 1.267-.6 2.567-.973 3.832-.443 1.518-1.259 2.942-1.4 4.525-.192 2.231-1.319 4.1-2.131 6.095-.044.11-.209.171-.319.258.1-1.188 1.077-2.073 1.111-3.295a26.136 26.136 0 0 0 -2.305 5.4zm-28.846-103.991a17.223 17.223 0 0 0 3.386-3.036 20.885 20.885 0 0 0 -3.365 3.058 6.354 6.354 0 0 0 -2.246 1.8 6.965 6.965 0 0 0 2.225-1.823zm12.767-16.45a3.385 3.385 0 0 0 .6-.189 59.457 59.457 0 0 1 14.384-5.537c.182-.043.433-.036.542-.317-.342.049-.663.087-.981.142a42.856 42.856 0 0 0 -11.857 4.225 7.434 7.434 0 0 0 -2.671 1.7c-1.126.079-1.814 1.029-2.788 1.42a.391.391 0 0 0 -.094.643c.087.087.206.144.26.041.568-1.086 1.943-1.171 2.604-2.129zm-30.3 150.862a21.016 21.016 0 0 0 2.145-.011c2.9-.3 5.76-.849 8.621-1.39 4.245-.8 8.16-2.607 12.177-4.088a10.368 10.368 0 0 0 4.882-3.259 67.336 67.336 0 0 0 9.862-17.739c1.893-5.153 4.356-10.093 6.38-15.2a43.141 43.141 0 0 0 2.779-11.387c.344-3.267.151-6.542.174-9.815.02-2.692-.028-5.381.141-8.081a41.122 41.122 0 0 0 -.471-5.831 26.131 26.131 0 0 1 .807-10.146 42.245 42.245 0 0 1 3.885-8.756 96.34 96.34 0 0 1 11.7-15.383 70.765 70.765 0 0 0 6.5-8.086 29.975 29.975 0 0 0 5.066-17.581 13.063 13.063 0 0 0 -6.592-11.474c-7.468-4.566-15.353-6.028-23.817-3.247a55.358 55.358 0 0 0 -17.731 9.922c-3.33 2.711-6.371 5.746-9.691 8.465-4.524 3.7-9.119 7.3-14.446 9.816a88.315 88.315 0 0 1 -12.814 4.609 48.194 48.194 0 0 0 -10.621 4.536 24.9 24.9 0 0 0 -9.4 9.052c-.269.467-.279.461-.891.474-.187 0-.2.158-.26.282a8.13 8.13 0 0 0 -.951 3.583c-.01.862.323 2.1.027 2.511-.948 1.332-.234 2.622-.059 3.745a31.1 31.1 0 0 0 1.008 4.232 54.64 54.64 0 0 0 4.044 10.158c1.6 2.951 3.149 5.928 3.61 9.271.133.968 1.3 2.075.055 3.109 0 0 .087.1.124.154a6.632 6.632 0 0 1 1.046 3.353c.048 1.129.452 2.185.5 3.3.078 1.8.746 3.553.36 5.4a12.966 12.966 0 0 0 -.136 2.605c0 1.937-.66 3.783-.762 5.725a9.72 9.72 0 0 1 -1.024 2.485c-1.255 2.986-3.481 5.26-5.434 7.752-1.837 2.344-3.9 4.641-4.1 7.854-.078 1.3-.464 2.664.206 3.88 1.8 3.27 2.745 6.975 5.213 9.906 1.921 2.281 3.211 5.045 5.551 7.027a43.492 43.492 0 0 0 7.117 5.457 15.916 15.916 0 0 0 4.137 1.759 48.012 48.012 0 0 0 11.086 1.051zm43.016-36.207c-1.066 3.642-3.182 6.731-4.247 10.266 1.343-.947 4.8-9.081 4.25-10.268zm-41.943-92.167a36.832 36.832 0 0 0 9.629-6.822c-3.037 2.282-6.071 4.566-9.313 6.556a2.637 2.637 0 0 0 -.313.264zm-35.009 18.955c1.776-1.915 3.63-3.754 5.513-5.565a17.787 17.787 0 0 0 -5.508 5.563zm-3.156 80.886c.426-1.2.7-2.433 1.06-3.647a6.512 6.512 0 0 0 -1.057 3.645zm2.2-78.4c-.071-.266-.207-.409-.457-.361a.786.786 0 0 0 -.7.794c-.014.244.13.291.333.255.428-.078.622-.404.831-.695z" transform="matrix(.93969262 .34202014 -.34202014 .93969262 -570.673 -2088.875)"/>
        <path d="m1901.81 2136.8c-.043-.263 0-.5-.264-.629-.046.4-.373.792.163 1.146.311.206.019.541-.061.79-.718 2.241-1.416 4.492-2.109 6.738-.66 2.137-1.447 4.246-1.942 6.435a22.2 22.2 0 0 1 -1.185 3.124 3.933 3.933 0 0 0 -.342 1.448c0 1.052-.074 1.08-1.047.527a.9.9 0 0 0 -.335-.027c0 .117-.036.233.006.3a2.892 2.892 0 0 1 -.24 3.258 6.009 6.009 0 0 0 -1.127 2.177 6.088 6.088 0 0 1 -2.231 3.166c-.094.078-.307.042-.317.222-.058 1.068-.917 1.58-1.565 2.215-.619.607-1.381 1.05-1.963 1.717a12.844 12.844 0 0 1 -3.477 2.846 18.032 18.032 0 0 1 -1.97 1.291c-2.59 1.016-5.129 2.152-7.751 3.1-4.432 1.6-8.8 1.13-13.193.063a19.427 19.427 0 0 1 -7.065-3.376 14.771 14.771 0 0 1 -2.151-2.1 22.673 22.673 0 0 1 -5.271-9.887 9.321 9.321 0 0 1 .984-6.881c.315-.567.557-1.309 1.621-1.181.463.056.923-.806 1.282-1.353a64.612 64.612 0 0 0 6.267-12.286 58.471 58.471 0 0 0 3.868-14 27.981 27.981 0 0 0 -.912-10.347 20.988 20.988 0 0 0 -3.748-7.247c-1.221-1.668-2.313-3.43-3.519-5.109-.427-.6.112-.975.238-1.741-.66.9-.768.717-1.049-.021a16.766 16.766 0 0 0 -1.2-2.142 10.135 10.135 0 0 1 -1.384-4.92c-.006-.652-.347-1.2-.26-1.814a16.458 16.458 0 0 1 .386-2.326c.388-1.324.633-2.721 1.928-3.62.358-.248.145-1.019.552-1.455a30.037 30.037 0 0 1 5.551-5.242 106.341 106.341 0 0 1 16.271-8.466 33.528 33.528 0 0 0 10.842-6.785c4.584-4.5 9.407-8.738 14.368-12.815a52.512 52.512 0 0 1 15.522-9.257 27.641 27.641 0 0 1 7.485-1.566c3.67-.253 6.419 1.417 8.551 4.192 4.095 5.329 5.057 11.325 3.481 17.774a48.311 48.311 0 0 1 -4.82 12.39 16.635 16.635 0 0 1 -3.721 5.067 12.357 12.357 0 0 0 -1.873 2.683c-2.136 3.077-4.824 5.716-6.95 8.812-.947 1.379-1.747 2.833-2.64 4.236a72.853 72.853 0 0 0 -4.742 9.739 34.95 34.95 0 0 0 -2.213 9.184q-.748 5.061-1.6 10.109a30.9 30.9 0 0 1 -1.254 5.767c-.48 1.264-.5 2.612-1.072 3.836-.335.7.019 1.663-.803 2.241zm-45.77 6.5c.308-.116.383-.424.489-.669a54.3 54.3 0 0 0 2.775-7.107 15.7 15.7 0 0 0 1.065-4.361c-.7 2.734-1.913 5.284-2.776 7.956-.458 1.419-1.315 2.694-1.53 4.2-1.233 1.626-1.838 3.58-2.835 5.329a20.288 20.288 0 0 0 2.812-5.348zm1.107-38.659c.019-.138-.012-.336.066-.4.143-.116.216.061.311.165.267.294.142.738.508 1.031a4.8 4.8 0 0 1 1.479 2.085c.287.734 1.072 1.268 1.606 1.915.119.144.269.388.115.593-.286.38-.056.5.259.593a1.111 1.111 0 0 1 .727.744 14.543 14.543 0 0 1 1.254 3.729 8.238 8.238 0 0 0 .554 2.541 10.435 10.435 0 0 1 .844 5.4c-.077 1.6-.385 3.243-.312 4.847.063 1.386-.634 2.516-.828 3.807-.235 1.563-1.318 2.927-1.532 4.552-.131 1-1.184 1.755-1.176 2.546.021 1.826-1.6 2.809-1.883 4.458a3.756 3.756 0 0 1 -.762 1.806c-.936 1.023-1.209 2.439-2.179 3.458-1.221 1.284-1.855 3-3.157 4.276a25.435 25.435 0 0 0 -2.077 2.634c-.62.8-.564 2.033-.769 3.087-.3 1.525.578 2.713.973 4.053a17.932 17.932 0 0 0 5.213 7.982c4.5 4.17 9.882 5.541 15.871 3.358.608-.221 1.215-.445 1.828-.651a29.106 29.106 0 0 0 9.587-5.652c3.776-3.2 5.563-7.674 7.655-11.905a40.65 40.65 0 0 0 1.569-4.937 34.831 34.831 0 0 0 1.046-3.4c.263-1.164.62-2.3.968-3.43s.837-2.227 1.113-3.374c.245-1.021.747-1.933.959-2.991.282-1.414.744-2.823 1.128-4.235a106.957 106.957 0 0 0 3.037-15.448c.345-2.9.6-5.822 1.2-8.669a58.61 58.61 0 0 1 12.015-24.646c2.609-3.267 5.377-6.407 8.109-9.575 3.911-4.534 6.034-9.932 7.633-15.595a16.2 16.2 0 0 0 -.471-10.4c-.736-1.936-1.834-3.553-4.151-3.935a18.134 18.134 0 0 0 -6.3.532 15.716 15.716 0 0 0 -3.75 1.39 42 42 0 0 0 -8.417 4.8c-.6.49-1.357.555-1.961 1.043-.773.625-1.313 1.469-2.157 2.03-.484.322-1.064.354-1.51.766-2.831 2.615-6.031 4.815-8.587 7.747-.887 1.018-1.982 1.853-2.949 2.8a35 35 0 0 1 -12.608 8 73.308 73.308 0 0 0 -16.365 8.523c-1.946 1.342-4.032 2.606-5.427 4.646-.809 1.183-1.85 2.389-1.976 3.744a14.446 14.446 0 0 0 .292 6.1c.165.482-.129 1.153-.027 1.318.395.632.633 1.347 1.061 1.954.922 1.307 2.196 2.428 2.351 4.19zm40.131 35.934a38.244 38.244 0 0 0 -2.475 7.028c-.675 2.446-1.586 4.808-2.377 7.209-.748 2.271-1.827 4.431-2.76 6.64 3.994-6.443 5.484-13.77 7.612-20.877zm1.65-87.633a66.4 66.4 0 0 1 15.113-9.25c-3.605.477-13.606 7.086-15.113 9.25zm-41.682 28c-2.805 1.9-5.309 4.082-6.521 7.4a44.964 44.964 0 0 1 6.521-7.4zm-9.053 74.155c-1.2 1.187-1.74 4.868-.955 5.626a21.764 21.764 0 0 1 .955-5.623zm46.9-98.773-.232-.248a56.973 56.973 0 0 0 -6.022 5.7zm-13.459 11.694a24.9 24.9 0 0 0 5.984-5.248c-1.983 1.758-3.937 3.555-5.98 5.248z" transform="matrix(.93969262 .34202014 -.34202014 .93969262 -582.315174 -2116.361496)"/>
        <path d="m1924.95 2106.158a1.6 1.6 0 0 1 0 1.692c-.631 1.538-1.919 2.748-2.162 4.464a4.834 4.834 0 0 1 -.854 1.591c-.742 1.312-.884 2.839-1.551 4.118-.633 1.212-.9 2.541-1.55 3.726-.342.629-.222 1.413-.668 2.023a19.347 19.347 0 0 0 -1.132 3.464c-.217 1.24-.47 2.475-.72 3.71-.043.212-.138.43-.427.384s-.442.089-.327.353a3.063 3.063 0 0 1 -.464 2.656c-1.107 2.26-2.068 4.584-3.04 6.9-.192.459-1.087.334-.768 1.248.161.462-.359 1.261-.718 1.858s-.586 1.233-.9 1.837c-2.335 4.452-4.482 8.993-6.516 13.593-1.128 2.551-2.474 5-3.662 7.53a14.454 14.454 0 0 0 -.7 2.038 2.922 2.922 0 0 1 -1.224 1.92.461.461 0 0 0 -.277.283c-.937 2.949-3.453 4.492-5.7 6.219a28.168 28.168 0 0 1 -5.389 2.823 12.519 12.519 0 0 1 -3.479 1.556 33.009 33.009 0 0 1 -3.962.451 5.863 5.863 0 0 1 -3.565-1.022 1.127 1.127 0 0 1 -.4-1.51 7.661 7.661 0 0 1 2.935-3.775 4.35 4.35 0 0 0 1.478-1.238c.257-.412.692.107 1.169-.363a22.342 22.342 0 0 0 3.822-5.708 98.222 98.222 0 0 0 5.519-13.116 32.2 32.2 0 0 0 1.374-5.977c.2-1.28.334-2.56.42-3.851.04-.6.28-1.09 1.016-.725.438.217.573-.1.778-.327a.32.32 0 0 0 -.024-.479c-.256-.245-.479.01-.68.108-.822.4-1.091.162-1.049-.738a24.2 24.2 0 0 0 -.465-7.393 16.17 16.17 0 0 0 -1.357-3.479c-1.713-3.217-3.926-6.117-5.883-9.18-1.432-2.242-2.9-4.485-3.205-7.221-.07-.637-.576-1.413.305-1.93a.227.227 0 0 0 .088-.177c-.171-2.5-.093-2.566 1.608-4.321a12.459 12.459 0 0 1 3.823-2.562c5.048-2.321 9.3-5.7 13.466-9.312 5.069-4.4 9.687-9.31 14.954-13.46a58.853 58.853 0 0 1 19.374-9.814c3.7-1.136 6.437 1.623 5.631 5.461a37.65 37.65 0 0 1 -4.188 10.829c-2.215 3.917-4.754 7.626-7.211 11.385a27.763 27.763 0 0 1 -2.068 3.1c-.425.493-.744.926-1.475.358zm-38.506 60.45c.306-.022.394-.269.506-.49 1.421-2.789 2.474-5.739 3.764-8.584.619-1.365.408-3 1.448-4.218a.3.3 0 0 0 -.127-.519c-.325-.14-.5.077-.536.343a14.732 14.732 0 0 1 -.981 2.912 66.06 66.06 0 0 1 -2.832 7.4 11.081 11.081 0 0 0 -1.216 3.184 14.215 14.215 0 0 0 -1.992 3.819c.613-1.306 1.79-2.319 1.966-3.847zm27.981-74.848c-1.271.569-1.9 1.8-2.811 2.735-1.2.7-1.86 1.95-2.926 2.791-1.838 1.45-3.724 2.853-5.444 4.436a48.55 48.55 0 0 1 -11.842 8.058c-1.618.781-3.5.948-4.886 2.3-.845.827-1.873 1.5-1.949 2.792a10.133 10.133 0 0 0 1.112 5.5c1.709 3.189 4.012 5.978 6.025 8.961 2.092 3.1 3.961 6.257 4.437 10.118a60.365 60.365 0 0 1 -.036 11.024c-.044.743-.547 1.452-.574 2.312a5.907 5.907 0 0 1 -.813 3.522c-1.377 1.777-1.833 3.945-2.734 5.917-.3.647-.114 1.6-.682 2.095a5.791 5.791 0 0 0 -1.324 2.361 2.938 2.938 0 0 1 -.587.9 14.338 14.338 0 0 0 -1.91 2.825 22 22 0 0 1 -3.949 4.884c-.455.414-1.173.363-1.446 1.009a4.328 4.328 0 0 1 -1.3 1.564 3.466 3.466 0 0 0 -1.025 1.741 1.277 1.277 0 0 0 .908-.142c1.632-.6 3.029-1.653 4.605-2.37a17.827 17.827 0 0 0 6.947-5.523 34.506 34.506 0 0 0 3.31-5.928c1.96-4.039 3.953-8.064 5.791-12.158 1.03-2.293 2.1-4.563 3.241-6.8 1.894-3.715 3.581-7.524 5.226-11.349a52.163 52.163 0 0 0 3.12-9.495 55.164 55.164 0 0 1 2.769-8.282c2.02-5.168 4.074-10.315 7.4-14.834 2.991-4.061 6.022-8.094 8.725-12.36a33.1 33.1 0 0 0 4.629-10.183c.092-.4.387-.918.049-1.21-.286-.248-.753.078-1.115.221a82.45 82.45 0 0 0 -10.971 5.33c-.638.369-1.2 1.2-2.18.8-.138-.058-.425.136-.342.3.3.585-.278.578-.5.723q-2.083 1.377-4.114 2.827c-1.059.75-1.793 1.828-2.834 2.588zm-20.54 79.408a34.955 34.955 0 0 0 2.3-3.678c1.4-3.058 3.026-6.015 4.359-9.111a146.762 146.762 0 0 1 6.527-13.568.656.656 0 0 0 -.111-.95c-4.877 8.931-8.342 18.425-13.075 27.307zm20.255-84.173a68.33 68.33 0 0 1 8.83-5.674c3.147-1.649 6.332-3.217 9.56-4.679-6.56 2.679-13.042 5.502-18.389 10.353zm-8.657 8.27-.2-.261-9 7.8.192.223zm-19.07 13.6c-2.251.422-4.559 2.542-4.324 3.978a12.768 12.768 0 0 1 4.324-3.976zm20.668 34.611.325.171c.347-.92 1.332-1.574.879-2.832z" transform="matrix(.93969262 .34202014 -.34202014 .93969262 -591.484065 -2141.535628)"/>
        <path d="m1970.582 2117.589a6.836 6.836 0 0 1 -2.811 2.735c.912-.937 1.54-2.166 2.811-2.735z" transform="matrix(.93969262 .34202014 -.34202014 .93969262 -635.420345 -2185.013774)"/>
      </g>
      <path d="m0 0s31.01 17.774 39.87 20.728 17.167 4.615 20.49 5.537 4.614 5.722-7.937 4.246-29.991-5.559-34.423-8.143-18-11.883-18-11.883z" fill="#ff869e" transform="matrix(.966 .259 -.259 .966 361.626262 524.23614)"/>
      <path d="m0 59.936 33.971-59.936 40.745 58.874z" fill="#ff009d" transform="matrix(.966 .259 -.259 .966 383.711906 534.502368)"/>
      <path d="m43.046 0a51.537 51.537 0 0 1 9.687 8.966l2.779 3.611s-5.839 33.115-9.094 43.639a176.045 176.045 0 0 1 -9.823 23.608l-36.595-21.592s19.866-31.512 28.543-42.7 14.503-15.532 14.503-15.532z" fill="#005fd0" transform="matrix(.966 .259 -.259 .966 314.485021 495.34763)"/>
      <path d="m0 5.629s.84 8.454 1.076 11.524 2.126 2.362 9.211 2.6 25.038 0 25.038 0 1.653-2.993-3.071-4.449-13.754-2.875-15.617-8.072a38.928 38.928 0 0 1 -2.097-7.232z" fill="#ff869e" transform="matrix(.966 .259 -.259 .966 356.379216 667.905106)"/>
      <path d="m.727 2.074c-1.455 3.092-.277 8.826-.277 8.826 2.05 6.3 6.142 30.867 13.45 40.686s27.122 17.2 33.059 20.229c5.136 2.616 23.593 9.644 26.105 8.959s2.968-1.827 2.968-1.827 3.882 0 2.512-1.826c-.528-.7-15.132-9.529-23.18-13.479-12.254-6.015-23.529-12.416-26.619-16.348-5.024-6.394-9.478-26.294-13.224-38.905-3.211-10.813-11.646-8.081-11.646-8.081z" fill="#ff869e" transform="matrix(.966 .259 -.259 .966 347.482958 508.990035)"/>
      <path d="m24.143 73.03-8.133.825-9.923 1.014-4.692.476-1.395-17.189 14.652-1.456 9.966-.988 19.329-1.912-3.092-21.076-1.548-10.578-1.59-10.846-1.559-10.6-.1-.7 5.262 2.33h.011l23.1 10.2-.306 10.8-.127 4.422-.326 11.318-.639 22.679-.211 7.345-6.536.665-20.25 2.061z" fill="#0b0151" transform="matrix(.966 .259 -.259 .966 264.841371 568.397383)"/>
      <path d="m111.568 108.46h-17.411s-.09-.608-.254-1.681c-.343-2.293-1.031-6.71-1.892-11.762-.888-5.189-1.955-11.043-3.028-15.968-.555-2.531-1.109-4.814-1.649-6.632-.655-2.235-1.284-3.767-1.833-4.19-1.448-.74-3.382-1.638-5.707-2.663-2.922-1.295-6.452-2.8-10.378-4.438-8.571-3.593-19.028-7.884-29.136-12.249-3.556-1.538-7.064-3.081-10.43-4.607-12.622-5.723-23.286-11.202-26.906-15.034-4.274-4.522-3.286-10.816-.872-16.4a50.529 50.529 0 0 1 5.533-9.449c1.533-2.092 2.679-3.387 2.679-3.387s34.737 18.864 57.765 31.133c3.884 2.066 7.429 3.947 10.425 5.522 4.27 2.24 7.413 3.857 8.777 4.486 6.278 2.9 11.418 4.655 14.235 9.839a17.711 17.711 0 0 1 1.77 5.141c.285 1.453.677 3.694 1.141 6.452.819 4.888 1.854 11.4 2.885 17.965.618 3.968 1.236 7.958 1.8 11.63 1.403 9.121 2.486 16.292 2.486 16.292z" fill="#160078" transform="matrix(.966 .259 -.259 .966 291.221158 547.319662)"/>
      <path d="m13.254 17.189v.005s-6.679 11.546-7.646 14.78c-.19.629-3.852 1.511-5.057-1.8-1.151-3.151-.243-19.986.365-29.085l10.943-1.089z" fill="#ff869e" transform="matrix(.966 .259 -.259 .966 238.323432 621.503632)"/>
      <path d="m0 7.374s7.945-10.74 16.769-6.3c5.035 2.535 4.578 9.5 4.578 9.5l3.653 5.026h-4.8s-.685 2.055-1.37 3.882-2.891 7.535-4.985 4.11-13.845-16.218-13.845-16.218z" fill="#ff869e" transform="matrix(.966 .259 -.259 .966 357.978289 499.373519)"/>
      <path d="m4.667 3.082a3.1 3.1 0 0 1 -2.729-1.282c-.975-1.466-.894-1.955-1.559-1.759-1.348.4 1.267 3.606 2.144 3.9a13.321 13.321 0 0 0 1.668.434z" fill="#00040a" transform="matrix(.966 .259 -.259 .966 368.073038 517.952373)"/>
      <circle cx=".805" cy=".805" fill="#00040a" r=".805" transform="matrix(.966 .259 -.259 .966 371.758055 514.141111)"/>
      <path d="m29.362 8.4s-6.1.219-9.218 2.583a60.609 60.609 0 0 1 -11.622 7.089c-3.789 1.576-11.029.662-7.646-4.554s7.2-9.479 11.374-11.5c6.233-3.02 10.468-2.342 13.61 0a9.781 9.781 0 0 1 3.502 6.382z" fill="#160078" transform="matrix(.966 .259 -.259 .966 350.267992 495.215708)"/>
      <path d="m0 0 8.99 3.871s2.985-2.142 5.186-1.935 2.508.742 3.761 1.224.386 2.025-.964 1.35-3.568-.964-4.242-.289l-.675.675-1.639 1.35 1.547.923h6.581s.683 1.136-.254 1.678a2.531 2.531 0 0 1 -1.528.444s.374.69-.5 1.725a2.138 2.138 0 0 1 -2.208.591s-.049 1.084-.986 1.232a4.851 4.851 0 0 1 -1.972-.2z" fill="#ff869e" transform="matrix(.966 .259 -.259 .966 390.55316 590.461243)"/>
      <path d="m.1 0c.216.546-.74 8.546.789 10.731s6.011-5.024 6.011-5.024z" fill="#ffc9af" transform="matrix(.70710678 .70710678 -.70710678 .70710678 511.179429 612.273096)"/>
      <path d="m8.064 11.721s-5.899-12.455-7.864-11.687c-1.255.492 3.714 13.543 5.9 13.866s1.964-2.179 1.964-2.179z" fill="#ffc9af" transform="matrix(.70710678 .70710678 -.70710678 .70710678 514.605362 607.195362)"/>
      <path d="m12.887 8.191c1.162 1.409-6.519-7.935-6.88-8.191 0 0-4.587 1.2-6.007 5.024l5.352 8.956s3.5-.764 4.915-1.966a13.44 13.44 0 0 0 2.62-3.823z" fill="#e54c1d" transform="matrix(.70710678 .70710678 -.70710678 .70710678 507.771882 616.937879)"/>
      <path d="m4.358 17.7s-3.768-7.812-4.314-10.761a3.866 3.866 0 0 1 .492-2.4s-1.201-3.439 0-3.879 4.478 6.44 4.478 6.44-1.748-6.877-.546-7.1 3.932 7.977 8.082 12.783c0 0-2.4 3.058-4.259 3.932a11.967 11.967 0 0 1 -3.933.985z" fill="#ffc9af" transform="matrix(.70710678 .70710678 -.70710678 .70710678 420.514905 595.627095)"/>
      <path d="m2.816 9.982s-.765-9.611-1.093-9.938-2.512 1.092-1.423 7.427 2.516 2.511 2.516 2.511z" fill="#ffc9af" transform="matrix(.70710678 .70710678 -.70710678 .70710678 425.417276 604.490678)"/>
      <path d="m0 4.915s2.949-4.696 8.191-4.915l6.662 7.864s-7.535 6.116-8.082 5.461-6.771-8.41-6.771-8.41z" fill="#e54c1d" transform="matrix(.70710678 .70710678 -.70710678 .70710678 414.55753 607.747612)"/>
      <path d="m16.41 7.044c-1.482-1.844-1.625-7.044-1.625-7.044s.35 3.425-5.1 6.88c-6.716 4.26-9.685 2.949-9.685 2.949s2.478.84 5.263 6.471c0 0 6.7-1.229 9.728-4.833s2.415-3.183 1.419-4.423z" fill="#e54c1d" transform="matrix(.70710678 .70710678 -.70710678 .70710678 460.218244 650.397465)"/>
      <path d="m16.7.471c.361.337 50.3 37.029 50.3 37.029l40.954-31.459s-.983 16.059 15.236 25.229c-1.475-.163-36.534 26.376-48 27.687s-16.22 2.621-48.167-19.987-26.703-31.946-26.703-31.946 13.598-9.174 16.38-6.553z" fill="#da2032" transform="matrix(.70710678 .70710678 -.70710678 .70710678 458.994242 705.268244)"/>
      <path d="m1.119.125c-2.566 4.158-.16 4.96 1.66 8.862a156.194 156.194 0 0 0 12.921 10.086c7.687 5.44 13.8 9.492 18.806 12.495-16.24-24.017-32.587-32.741-33.387-31.443z" fill="#1a1a1a" transform="matrix(.70710678 .70710678 -.70710678 .70710678 452.932923 727.345532)"/>
      <path d="m.784 17.246s34.9 54.772 51.278 62.636 72.574 12.778 72.574 12.778-6.225-22.936 1.966-33.912c-1.8-.328-59.3 3.276-59.8 3.113s-34.239-44.4-39.481-50.295-11.629-12.45-15.069-11.466-15.4 7.425-11.468 17.146z" fill="#da2032" transform="matrix(.70710678 .70710678 -.70710678 .70710678 445.659622 701.728467)"/>
      <path d="m111.581 89.288-4.587-5.406s2.457-4.1-.328-6.553-6.88-3.44-10.649-8.519c0 0 5.079-10.976 3.277-21.789s-2.894-6.936-3.877-13.489-2.4-12.45-5.57-15.727-7.647-8.956-7.318-11.686-1.311-6.226-3.386-6.119-10.375 6.119-7.972 9.176 5.351 3.932 5.024 10.376 4.15 14.744 3.6 20.424-4.642 10.157-4.041 15.509c.089.789-3.167-.218-3.167-.218 2.13 5.352-10.485 10.1-10.485 10.1s-2.512 4.314-1.42 7.263c0 0-.218 1.2-3.931.983s-10.922-2.84-18.239 0a30.042 30.042 0 0 0 -18.458-7.973s-7.605-8.578-12.178-8.191c-5.488.464-9.125 4.6-7.481 8.956 1.095 2.895 4.317 3.551 7.812 6.495s5.843 8.36 12.505 11.418 14.854 3.5 19.113 6.225 15.837 8.519 28.724.764c0 0 2.84 2.621 3.058 8.3s4.7 8.519 7.645 8.41l4.478 5.461s11.578-15.835 27.851-24.19z" fill="#f6c32c" transform="matrix(.70710678 .70710678 -.70710678 .70710678 455.05495 575.029781)"/>
      <path d="m.121 9.973c-.278-.393-.021-1.249.189-1.694.614-1.249 1.515-2.352 4.239-4.3 2.814-1.879 6.151-4.126 10.151-3.971a.62.62 0 0 1 .587.663c-.087 1.3-.844 4.433-5.743 7.322-4.626 2.728-8.825 2.825-9.423 1.98z" fill="#1a1a1a" transform="matrix(.70710678 .70710678 -.70710678 .70710678 460.163797 649.811273)"/>
      <path d="m13.351 5.407-5.406-5.407-7.945 4.833 3.809 6.676s6.717-1.024 9.542-6.102z" fill="#ffc9af" transform="matrix(.70710678 .70710678 -.70710678 .70710678 461.60983 648.3115)"/>
      <path d="m9.752 15.976s-9.502 2.048-9.752-8.846 10.9-6.062 10.9-6.062 10.813 4.971 6.717 10.485c-2.131 2.867-7.865 4.423-7.865 4.423z" fill="#ffc9af" transform="matrix(.70710678 .70710678 -.70710678 .70710678 462.709381 635.390538)"/>
      <path d="m9.7 15.047a2.2 2.2 0 0 1 -2.232.942c-1.16-.344-1.9-1.434-1.474-3.6 0 0-5.652 2.949-5.98-2.867s5.896-10.243 12.121-9.422 10.84 4.915 11.386 10.485c.451 4.6-1.747 8.082-6.8 9.092a4.054 4.054 0 0 1 -3.37-.538 2.522 2.522 0 0 1 -.969-2.151c.041-.813-.07-2.083-1.067-2.573-.941-.433-1.331.194-1.615.632z" fill="#55353a" transform="matrix(.70710678 .70710678 -.70710678 .70710678 464.333605 628.65676)"/>
      <path d="m16.058 11.483c-1.779 4.2-7.625 8.032-11.824 6.253s-5.164-8.498-3.384-12.697a8.259 8.259 0 0 1 15.209 6.444z" fill="#55353a" transform="matrix(.70710678 .70710678 -.70710678 .70710678 476.977382 627.78914)"/>
      <path d="m.007 0s-.407 9.5 5.242 16.628 9.993 8.6 9.993 8.6.9-4.669-6.39-15.4c-4.776-7.028-8.845-9.828-8.845-9.828z" fill="#1a1a1a" transform="matrix(.70710678 .70710678 -.70710678 .70710678 531.052666 785.869932)"/>
      <path d="m.017 6.8 11.468-6.8s9.257-.246 12.042 3.768 1.883 9.174 1.638 9.256-15.072 9.01-15.072 9.01-4.165-1.6-7.29-7.209c-3.195-5.725-2.786-8.025-2.786-8.025z" fill="#ffc9af" transform="matrix(.70710678 .70710678 -.70710678 .70710678 533.827353 786.091963)"/>
      <path d="m0 7.618 5.325-7.618 27.441 21.625-19.086-.983a21.013 21.013 0 0 0 -4.914-8.437c-2.813-2.991-8.766-4.587-8.766-4.587z" fill="#1a1a1a" transform="matrix(.70710678 .70710678 -.70710678 .70710678 547.333092 788.828467)"/>
      <path d="m0 2.212 1.72-2.212 27.523 22.035-1.8 1.8z" fill="#808080" transform="matrix(.70710678 .70710678 -.70710678 .70710678 552.661142 791.02969)"/>
      <path d="m4.544 0s-4.137 5-4.505 16.547c-.41 12.86 2.539 17.365 2.539 17.365s2.44-2.055 3.031-17.119c.491-12.534-1.065-16.793-1.065-16.793z" fill="#1a1a1a" transform="matrix(.70710678 .70710678 -.70710678 .70710678 490.426553 829.577616)"/>
      <path d="m1.728 0 13.433 1.146s12.039 1.554 15.239 8.274 1.392 9.5 1.392 9.5l-30.392-.572s-1.52-1.383-1.392-10.075c.082-5.573 1.72-8.273 1.72-8.273z" fill="#ffc9af" transform="matrix(.70710678 .70710678 -.70710678 .70710678 486.104009 836.029965)"/>
      <path d="m0 6.307 10.731-6.307 23.836 24.82-18.758-.9s1.72-6.225-4.587-11.222-11.222-6.391-11.222-6.391z" fill="#1a1a1a" transform="matrix(.70710678 .70710678 -.70710678 .70710678 499.664196 842.289982)"/>
      <path d="m0 1.556 2.785-1.556 22.854 24.738-1.8 1.638z" fill="#808080" transform="matrix(.70710678 .70710678 -.70710678 .70710678 508.351002 848.777687)"/>
      <g fill="#1a1a1a">
        <path d="m29.543 2.212.064-.013-1.866-2.199s-13.98 5.789-27.741 24.137c0 0 19.222-19.959 29.543-21.925z" transform="matrix(.70710678 .70710678 -.70710678 .70710678 451.781753 690.382232)"/>
        <path d="m2.211 7.973-2.211-2.621a13.251 13.251 0 0 0 4.778-5.352 34 34 0 0 1 -2.567 7.973z" transform="matrix(.70710678 .70710678 -.70710678 .70710678 478.368261 684.376774)"/>
        <path d="m0 7.645c.1.029.254.072.457.126a25.6 25.6 0 0 0 14.943-3.84 28.908 28.908 0 0 1 -2.075-3.931 19.714 19.714 0 0 1 -13.325 7.645z" transform="matrix(.70710678 .70710678 -.70710678 .70710678 430.853513 674.395255)"/>
      </g>
      <path d="m1.61 0s3.625 14.9-1.61 22.953" fill="none" stroke="#e54c1d" stroke-linecap="round" stroke-linejoin="round" stroke-width="2.276" transform="matrix(.70710678 .70710678 -.70710678 .70710678 464.153293 678.095545)"/>
      <path d="m0 4.883s3.674-4.128 11.073-4.883" fill="none" stroke="#e54c1d" stroke-linecap="round" stroke-linejoin="round" stroke-width="2.276" transform="matrix(.70710678 .70710678 -.70710678 .70710678 462.480985 690.588)"/>
    </g>
  </g>
  <text fill="#00ebe5" font-family="OpenSans-Bold, Open Sans" font-size="31" font-weight="700" letter-spacing=".01em" transform="matrix(.819 .574 -.574 .819 74.662 125.334)">
    <tspan x="0" y="0">ยง</tspan>
  </text>
</svg>