<?xml version="1.0" encoding="UTF-8"?>
<svg width="18px" height="18px" viewBox="0 0 18 18" version="1.1" xmlns="http://www.w3.org/2000/svg" xmlns:xlink="http://www.w3.org/1999/xlink">
    <defs>
        <path d="M2.38417954,16.1430283 L11.9636039,6.5636039 C12.3150758,6.21213203 12.8849242,6.21213203 13.2363961,6.5636039 L16.2,9.52720779 L16.2,2.7 C16.2,2.20294373 15.7970563,1.8 15.3,1.8 L2.7,1.8 C2.20294373,1.8 1.8,2.20294373 1.8,2.7 L1.8,15.3 C1.8,15.6859282 2.0429105,16.0151216 2.38417954,16.1430283 Z M4.87279221,16.2 L15.3,16.2 C15.7970563,16.2 16.2,15.7970563 16.2,15.3 L16.2,12.0727922 L12.6,8.47279221 L4.87279221,16.2 Z M2.7,0 L15.3,0 C16.7911688,-1.99840144e-16 18,1.20883118 18,2.7 L18,15.3 C18,16.7911688 16.7911688,18 15.3,18 L2.7,18 C1.20883118,18 1.99840144e-16,16.7911688 0,15.3 L0,2.7 C-1.99840144e-16,1.20883118 1.20883118,2.99760217e-16 2.7,0 Z M5.85,8.1 C4.60735931,8.1 3.6,7.09264069 3.6,5.85 C3.6,4.60735931 4.60735931,3.6 5.85,3.6 C7.09264069,3.6 8.1,4.60735931 8.1,5.85 C8.1,7.09264069 7.09264069,8.1 5.85,8.1 Z M5.85,6.3 C6.09852814,6.3 6.3,6.09852814 6.3,5.85 C6.3,5.60147186 6.09852814,5.4 5.85,5.4 C5.60147186,5.4 5.4,5.60147186 5.4,5.85 C5.4,6.09852814 5.60147186,6.3 5.85,6.3 Z" id="image-path-1"></path>
    </defs>
    <g stroke="none" stroke-width="1" fill="none" fill-rule="evenodd">
        <g transform="translate(-239.000000, -375.000000)">
            <g transform="translate(239.000000, 375.000000)">
                <g>
                    <mask fill="white">
                        <use xlink:href="#image-path-1"></use>
                    </mask>
                    <use fill="#00E1F9" fill-rule="nonzero" xlink:href="#image-path-1"></use>
                </g>
            </g>
        </g>
    </g>
</svg>
