<?xml version="1.0" encoding="UTF-8"?>
<svg width="20px" height="22px" viewBox="0 0 20 22" version="1.1" xmlns="http://www.w3.org/2000/svg" xmlns:xlink="http://www.w3.org/1999/xlink">
    <defs>
        <path d="M8,6 L8,5 C8,3.34314575 9.34314575,2 11,2 L15,2 C16.6568542,2 18,3.34314575 18,5 L18,6 L22,6 C22.5522847,6 23,6.44771525 23,7 C23,7.55228475 22.5522847,8 22,8 L21,8 L21,21 C21,22.6568542 19.6568542,24 18,24 L8,24 C6.34314575,24 5,22.6568542 5,21 L5,8 L4,8 C3.44771525,8 3,7.55228475 3,7 C3,6.44771525 3.44771525,6 4,6 L8,6 Z M10,6 L16,6 L16,5 C16,4.44771525 15.5522847,4 15,4 L11,4 C10.4477153,4 10,4.44771525 10,5 L10,6 Z M19,8 L7,8 L7,21 C7,21.5522847 7.44771525,22 8,22 L18,22 C18.5522847,22 19,21.5522847 19,21 L19,8 Z M10,12 C10,11.4477153 10.4477153,11 11,11 C11.5522847,11 12,11.4477153 12,12 L12,18 C12,18.5522847 11.5522847,19 11,19 C10.4477153,19 10,18.5522847 10,18 L10,12 Z M14,12 C14,11.4477153 14.4477153,11 15,11 C15.5522847,11 16,11.4477153 16,12 L16,18 C16,18.5522847 15.5522847,19 15,19 C14.4477153,19 14,18.5522847 14,18 L14,12 Z" id="trash-path-1"></path>
    </defs>
    <g stroke="none" stroke-width="1" fill="none" fill-rule="evenodd">
        <g transform="translate(-3.000000, -2.000000)">
            <mask id="trash-mask-2" fill="white">
                <use xlink:href="#trash-path-1"></use>
            </mask>
            <use id="Combined-Shape" fill="#00E1F9" fill-rule="nonzero" xlink:href="#trash-path-1"></use>
        </g>
    </g>
</svg>