<svg xmlns="http://www.w3.org/2000/svg" viewBox="0 0 364 364">
  <path d="M325.4 362v-.2l.3-.6a3.9 3.9 0 000-2.4 2.7 2.7 0 00-5.2 0 2.9 2.9 0 00-.5 1l-.6 1.6-.7 2.5v.1h6.1l.4-1.6.2-.5zM267.3 358.8zM272.4 355.6a3 3 0 00-3-.8 3 3 0 00-2.1 4l.3.7a7 7 0 01.3 1V361.5a13.5 13.5 0 010 2v.2l-.1.4h6.2l.1-1.2a10 10 0 00-1.7-7.2zM295.1 358.8l-1.6-1.5-.2-.2-.4-.5a4.7 4.7 0 01-.4-.5l-.7-1c-.6-.7.1.3-.3-.3a5 5 0 00-2.1-1.8 3.2 3.2 0 00-2.9 5.6l.5.6v.1l.4.4.7.9.2.2.4.5a10.4 10.4 0 001 1.1l1.8 1.6h8a5.7 5.7 0 00-1.2-1.7c-1.1-1.1-2-2.4-3.2-3.5zm-8.9-.6l.2.3a1.6 1.6 0 01-.2-.3zm.6.6a3 3 0 00.5.2 1.9 1.9 0 01-.5-.2zM204.9 363.2l-.7-.3a4.8 4.8 0 00-.5-.2 18.7 18.7 0 01-1.7-1 11 11 0 00-1.6-.8l-.7-.4-.4-.2a17.6 17.6 0 00-2.1-1.4l-1-.6-.5-.4q.5.5-.5-.3a6.6 6.6 0 00-3.5-1.3 2.9 2.9 0 00-2.8 2.9 2.8 2.8 0 002 2.7l.6.3.3.2 1 .6 1.3 1h12.2a3 3 0 00-1.4-.8zM139.8 362.1v-.2.2zM139.8 362.1q-.2.3 0-.1v-.1l.3-.4a4.5 4.5 0 000-1.1l.1-.1q-.3.4.2-.7l1-3.9a35 35 0 00.9-4.3 10.5 10.5 0 000-1.9v-.9-.2c0-.2 0-.2 0 0a5.8 5.8 0 00.3-.8 3 3 0 00-1.4-3.4 3.1 3.1 0 00-4.2 1 7.5 7.5 0 00-.8 4.6 8.2 8.2 0 010 1v.5a14.6 14.6 0 01-.5 1.7c-.4 1.1-.6 2.3-.9 3.4l-.2 1v.3c.2-.2.2-.2 0 0l-.3-.3-1.7-1.3a29.1 29.1 0 00-3.8-2.3l-.9-.5-.3-.1q.5.5-.4-.3l-.6-.3h-.1a2.8 2.8 0 00-2.1-1 3.5 3.5 0 00-3 1.6 2.5 2.5 0 000 2.6 4 4 0 001.3 1.2l.6.4.6.4 1 .6 2 1.1 1.1.7.7.4c1.3 1 2.5 2.2 3.9 3.1l.3.3-.1-.1.1.1h6.6a3 3 0 00.3-1.2v-.7zm-3-2.8h-.1c.3.2.2.1 0 0zM278.1 329.4l.3.4a2.9 2.9 0 01-.2-.3z"/>
  <path d="M287 318.8v-.3c.5.3 1 .6 1.3 1l1 .6.8.6.5.3a34 34 0 003.4 2.5 3.1 3.1 0 003.8-.5c1.9-2 2-5 2.6-7.5a37.6 37.6 0 011.1-4.2l.9-2.2v-.5l.1-.2a6.5 6.5 0 00.2-1.5 3.1 3.1 0 00-3-3.1 3.1 3.1 0 00-3.1 3c0-1-.3 1.3-.3 1.2a41.5 41.5 0 00-.7 1.3 38.3 38.3 0 00-1 3.8l-.6 2.8c-1-.7-2-1.3-2.8-2-1.8-1.3-4.2-2.7-6.5-1.8-1.7.6-2.5 2-3.2 3.6a14.2 14.2 0 00-.5 1.5s-.3.7 0 .2l-.5 1-.7 1.7a11.8 11.8 0 00-.7 2.4 48.7 48.7 0 01-3.6-2.6l-1.8-1.3a30.5 30.5 0 01-2.6-2.4 3 3 0 00-2.6-1.7h-.2c-2-.1-3.7 2.5-2.4 4.2a27.7 27.7 0 003.2 3.6 39.3 39.3 0 004 3c.3.4 1 .8 1.5 1.3l2 1.5h.1l.1.2.7.6.6.5a3.7 3.7 0 01-.2-.7 3 3 0 00.3.8l.2.3a3.1 3.1 0 005.4-1l1-3.7a21 21 0 01.8-3 26.3 26.3 0 001.4-3.3zM216.8 351.5zM227.2 338.7a7.3 7.3 0 01-.2-.9l-.5-2.1a27 27 0 00-1.5-4.1c0-.3-.2-.5-.3-.8a120.6 120.6 0 01-.4-1.2 3.4 3.4 0 00-1-2.2c-1.6-1.7-5.1-.5-4.8 2 .3 2.3 1.3 4.2 2 6.4.3 1 .4 2.1.6 3.2a10.2 10.2 0 00-2.1.4h-.6l-.8.1a33.8 33.8 0 00-4.2.7l-4 .7a3 3 0 00-2.3 3 9.4 9.4 0 001 3.4l.2.3c-.3-.5 0 .2 0 .3a14 14 0 001 2.2c.4 1.1 1 2.1 1.6 3.1l.4.8c0 .2.1.3.2.3l.4 1c0 .2.1.9.1.3a3 3 0 003 3 3 3 0 003-3 6.8 6.8 0 00-.3-2l-.5-1.2c.3.7-.6-1.2-.4-1l-1.6-2.8-.3-.6-.3-.6-.4-1.3 5-1 2-.2a.9.9 0 00.2 0h1a5.4 5.4 0 004.4-1.2c1.4-1.3 1.1-3.3.4-4.9v-.1zM211.4 354.3l.1.2zM356.4 321.8a37.9 37.9 0 00-6.7-.2h-.8-.4a11.8 11.8 0 01-1.2-.4l-.5-.1c.3 0-.3-.2-.4-.2a10.3 10.3 0 01-1.3-.8l-.5-.5-1-1-.3-.3-.1-.2-.8-1a20.1 20.1 0 00-1.4-1.6 3.1 3.1 0 00-.6-.6 6.9 6.9 0 00-2.8-1.6 2.8 2.8 0 00-2.2.3 15 15 0 00-3.2.3c-2.7.4-4.6 2.4-6 4.6a18 18 0 00-1 14.8 22.3 22.3 0 0020.9 15.5 21.5 21.5 0 0012.2-3 14 14 0 005.7-7.1v-10.3a10 10 0 00-7.6-6.6zm2.3 12.6v.5l-.2.6a12.4 12.4 0 01-.5 1.6v.2a9.7 9.7 0 01-.9 1.4 10.5 10.5 0 01-1 1l-.2.2-.4.3a13.2 13.2 0 01-1.3.8 13.4 13.4 0 01-2 .8 18.9 18.9 0 01-2.7.6l-.9.1-1.4.1a22 22 0 01-2.7 0l-.3-.1-.4-.1a23 23 0 01-2.9-.7l-.7-.3h-.2a18.7 18.7 0 01-2.7-1.6c-.2 0-.4-.2-.6-.4h-.1l-.1-.1a19.1 19.1 0 01-2.7-2.7l-.1-.1v-.1a20 20 0 01-1.7-2.6l-.4-.7-.2-.5a23.3 23.3 0 01-1-3.5l-.1-.6a16.5 16.5 0 010-3v-.5l.1-.6a12.8 12.8 0 01.5-1.6v-.1-.1l.4-.7.5-.7.3-.5.4-.4.1-.1a3.7 3.7 0 01.4-.2l.4-.2h.3l.5-.1a11 11 0 011.5 0h.5.5l.5.2 2.2 3a15.2 15.2 0 006 4.2c2.2.9 4.6.7 6.8.7a25.6 25.6 0 012.6 0h.4a8 8 0 011.1.4l.3.2.4.3.4.4a9.9 9.9 0 01.7 1.2l.1.3.3.7.1.9v.5a12.3 12.3 0 010 1.7zM313.5 319.3l.1-.8a11.2 11.2 0 01.4-1.2 7.3 7.3 0 01.4-.8 11.9 11.9 0 01.7-1c1.3-1.7-.4-4.4-2.3-4.2h-.1a3.2 3.2 0 00-2.1 1c-3.2 2.9-3.4 8.1-3.3 12.1a19.5 19.5 0 001.1 6.3 12.2 12.2 0 001.6 2.9 12 12 0 001.3 1.6 4.4 4.4 0 002.8 1.2c1.8.2 3.5-2 2.9-3.7a4.4 4.4 0 00-1-1.8 15 15 0 01-.8-.7 8.4 8.4 0 00-.5-.8l-.5-.8a14.4 14.4 0 01-.6-2.2l-.1-1-.1-1a27.6 27.6 0 010-4.9v-.2zM275.4 335.1c.6-.5 0 0-.2.1l-.8.4a11.2 11.2 0 00-2 1.7c-.8 1-1.8 1.8-2.7 2.6l-2.6 2.5-1-2.5a14.8 14.8 0 00-2-3l-.5-.7a169 169 0 00-.7-1 2.6 2.6 0 00-1.3-2 3.3 3.3 0 00-.4-.3 2.9 2.9 0 00-4.1 3.2 8.7 8.7 0 001.7 3.2 23 23 0 012 3.2l.2.5.3 1 .6 1.2.3.7a10.6 10.6 0 002.3 3.9 3 3 0 004.2 0l.8-1c0-.1.6-.7 0-.1.5-.5 1-1 1.3-1.5.9-1 2-1.9 3-2.8l2.7-2.6a18.5 18.5 0 011.2-1.1 15.4 15.4 0 002-1.3 3 3 0 000-4.3 3 3 0 00-4.3 0zM258 355.1a26.7 26.7 0 00-.6-3.9 2.8 2.8 0 00-.3-.7 16.4 16.4 0 00-.2-3.1 11.2 11.2 0 00-3.9-6.6 12.6 12.6 0 00-7.6-3 11.6 11.6 0 00-7.9 3 30.4 30.4 0 00-4.8 5.6l-1 1.4-.2.1-.1.2a31.7 31.7 0 01-4.6 5 18.4 18.4 0 00-1.6 1.2c-1 .8-1.9 1.7-2.7 2.6a12.4 12.4 0 00-3.7 7.1h6v-.1a4.1 4.1 0 00.2-.5 5 5 0 01.9-1.3 27 27 0 012-2.2l1.1-1q.4-.3 0-.1c.5-.3.9-.6 1.2-1a33.6 33.6 0 004.5-4.4c1.4-1.5 2.6-3.2 3.8-5l.3-.3.3-.4 1-1 .9-1 .6-.6.4-.3a10.4 10.4 0 011-.6l.2-.1.7-.2.6-.1h1.4a10 10 0 011 .3l.4.1c-.2 0 .4.2.5.3a10.3 10.3 0 011.1.7h.1a13.6 13.6 0 011 1l.4.4a9.5 9.5 0 01.5 1l.2.3.2.4a8.4 8.4 0 01.3 1.2v2.8a13.3 13.3 0 00.3 3.4 32.6 32.6 0 010 4.9 13.6 13.6 0 01-.7 3.1v.3h6.4a25.3 25.3 0 00.4-8.9zM211 333.1a3.2 3.2 0 00-1.2-4.3 19.7 19.7 0 00-4.2-2.2 31.6 31.6 0 00-3.3-1l-.5-.2-.2-.1a20.7 20.7 0 00-2.4-1l-.8-.3a13 13 0 00-1.4-.6l-1.9-.7-.6-.4-.4-.2-.1-.1a3.2 3.2 0 00-3-.8 3 3 0 00-2.2 3 28.6 28.6 0 01-.1 4.6c0 1.7 0 3.4-.2 5l-.2 4.4a36.3 36.3 0 00.3 5.3c.4 2.6 4.9 2.6 5.3 0a34.1 34.1 0 00.3-5c0-1.6.2-3 .3-4.6l.1-4.7v-.1l.5.1c-.6-.1.5.3.6.4l2.6 1 .4.2a9.4 9.4 0 001.6.7 63.8 63.8 0 013.5 1.1 7.8 7.8 0 00.7.4 13.7 13.7 0 012 1.3c1.5 1 3.6.2 4.4-1.2zM183.2 310.8l-.6.2-1.3.5c-1.3.4-2.2.8-3.5 1.4l-3.8 1.4a17 17 0 00-2.1 1 5.4 5.4 0 00-1.2.8l-.6.8q.3-.2 0 .1a2.6 2.6 0 003.6 3.7c.2-.3.3-.3.2-.1l.5-.2 1.8-.8 3.8-1.3c2-.7 4.3-1.3 6.3-2.3a3 3 0 001-4.1 3.1 3.1 0 00-4.1-1.1zm-.2 0zM173.9 320.6c-.1 0-.2 0 0 0zM355.3 352.6a27.7 27.7 0 01-2.5 1.5l-.3.1-.5.2-1.5.5-1.3.3a9.5 9.5 0 01-1.2.1 20.4 20.4 0 01-3 0 11.4 11.4 0 01-2.4-.2l-1.3-.4-.6-.2-.5-.2a23.2 23.2 0 01-2.4-1.2l-.3-.2-.2-.1-.3-.3q.3.3-.1 0a10.6 10.6 0 00-1-.8c-2.3-1.4-5 1.3-3.6 3.6a11 11 0 004.8 4 20.5 20.5 0 007.3 1.9c4.6.5 10-.6 13.9-3.4a3 3 0 001-4.1 3 3 0 00-4-1zM181.4 342.5a2.5 2.5 0 00-2.8 1 2.8 2.8 0 00-.3.6l-.3.6q.2-.4 0 0a18.6 18.6 0 01-1 1.8l-2 2.8c-1 1-2 2.1-2.7 3.3a18 18 0 00-1 2 7.8 7.8 0 00-.4.9 3.2 3.2 0 00-.8 2 2.8 2.8 0 004.1 2.4 4 4 0 001.7-2.2l.2-.7q-.2.6 0 0l.3-.5a16.5 16.5 0 012.4-3.4l2.6-3.7a12.3 12.3 0 001-1.7 10.6 10.6 0 00.5-1.3 2 2 0 00.3-.7 2.6 2.6 0 00-1.8-3.2zM314.3 343.7a2.3 2.3 0 00-.3.1l-.1.1-.2.2-.7.5-1.3.9-2.5 2a60.6 60.6 0 00-5 3.6 2.6 2.6 0 00-1.8 2.5 2.8 2.8 0 00.8 2 2.9 2.9 0 003.5.3c1.3-.7 2.4-1.7 3.7-2.5a43.2 43.2 0 004.9-3.5v-.1l1.3-.8h.1a3 3 0 10-2.4-5.4zm2.8 5q.7-.6 0 0zM313.8 344zM303.5 342.7a3 3 0 00-2-3.5q.3.2-.1 0l-.9-.5-2-1-.9-.3-.7-.3-1.6-.6-1.5-.6-1.9-.7-1.6-.7-.2-.1-.7-.4a2.6 2.6 0 00-3.1.4 2.6 2.6 0 00-.4 3.2 8 8 0 003 2.3l1.8.8a17.8 17.8 0 002.5 1.1s.8.3.5.1l1.2.5.3.1.6.3q-.3-.1.2 0l.7.4q-.4-.1 0 0l1 .5 2.3 1a2.9 2.9 0 003.5-2zM206.5 273.2zM199 285.7l1-.3a65.3 65.3 0 014.2-1l.2-.1h.3l1.3-.1a3.2 3.2 0 003.2-3.2 8 8 0 00-.4-2l-.4-1-.2-.5-1.7-4.3-.2-.5-.4-.9-.5-1.3c.3.7 0-.1 0-.3a12.8 12.8 0 00-1.2-3.3l-.4-1.6a2.9 2.9 0 00-3.5-2 3 3 0 00-2 3 4.3 4.3 0 000 .4v.9l.1.1a4.7 4.7 0 00.4 1.7l.2.4c.5 1.3.6 2.7 1.1 4l1.7 4.3v.3h-.3l-2 .5-.9.3c-.2 0-1.5.3-.7.3a12 12 0 00-1.4.2h-2.2a15 15 0 00-2.1.3H191.9a5.1 5.1 0 00-2.2.6c-1.9 1-2 4.2 0 5.2a5 5 0 003.3.4h.8.2a29.7 29.7 0 004-.3l1-.2z"/>
  <path d="M198.2 285.8h-.2c-.2.1-.2.1.2 0zM257.9 321.7a5.3 5.3 0 000-.6l.2-.8.5-1.9 1-3.7a12.8 12.8 0 00.4-2l.3-1.8a18.8 18.8 0 00.6-4.7 2.7 2.7 0 00-5.4 0l-.3 1.5-.5 2-.9 3.8c-.8 2.6-1.9 5.4-2 8.2a3 3 0 003 3 3 3 0 003.1-3zM229.8 290.4a12.3 12.3 0 00-4.8-4.6 14.6 14.6 0 00-6.4-1.9 14 14 0 00-8.5 2.5 11.3 11.3 0 00-4.4 3.5 38.5 38.5 0 00-4.6 6.9 14.7 14.7 0 00-2 8.3 16.2 16.2 0 003.3 7.6 55.1 55.1 0 005.6 6.5 14.6 14.6 0 007 4.1 10.3 10.3 0 004.2 0 9 9 0 002-.7 5.7 5.7 0 00.7-.4l.8-.7q.5-.3.1 0a16 16 0 004.9-6.2 46 46 0 003.5-11.6c.7-4.5.7-9.1-1.4-13.3zm-4.3 9.8v1l-.1.5a38.5 38.5 0 01-2.1 8.2l-.6 1.6-.2.4a22.4 22.4 0 01-1.6 3l-.2.2a11 11 0 01-1.2 1.2l-.1.1-.5.4h-.1l-.5.4H218a5.6 5.6 0 01-.7.3c.7-.2-.1 0-.3 0h-.5a9.2 9.2 0 01-1.2-.4h-.1l-.2-.2a11 11 0 01-1-.5l-.2-.1-.1-.1a32 32 0 01-2.6-2.5 51.7 51.7 0 01-3.2-3.6l-.4-.5-.6-.9a12.8 12.8 0 01-1-1.8l-.3-.6-.3-.9a9.4 9.4 0 01-.3-1v-.7-.6a9.8 9.8 0 01.3-1l.3-1 .3-.8a28.5 28.5 0 012.3-4.2 22 22 0 011.7-2.3l2.8-1.8a17.2 17.2 0 012.2-1.1l.5-.2a15.2 15.2 0 011.7-.5H219.4a11.2 11.2 0 011.8.5h.2l.7.5.7.4h.1l.2.2a10.2 10.2 0 011.1 1.2l.2.2.4.7a13.3 13.3 0 01.4 1.5l.2.8v.5a20.5 20.5 0 01.1 3.5zM186.9 305a3.1 3.1 0 003.6 1.5 3.2 3.2 0 002.3-3 3.3 3.3 0 00-.6-2 12.8 12.8 0 00-3-3.3c-1.3-1.1-2.5-2.4-3.7-3.6a36 36 0 01-1.6-1.7 7.3 7.3 0 00-.9-.8q-1-.7-.4-.4l-.5-.4c-1.3-1-2.5-2.2-3.7-3.3a3 3 0 00-2.3-1.2h-.1a3 3 0 00-2.1 5 42.7 42.7 0 003.4 3.5l.9.8a4.7 4.7 0 00.7.6l.2.2 1.5 1.6 3.7 3.8 1.7 1.5.6.7.3.5zM149.2 324.3l.6-.2.9-.3a19.5 19.5 0 002-.8l.8-.4.3-.2.6-.3 1.8-.8.4-.1a7.3 7.3 0 01.8-.3 3.2 3.2 0 002.3-3.9c-.8-2.7-2.8-4.9-4.8-6.8l-2.4-2.5a33.4 33.4 0 004.2-1l4-1.5a9.5 9.5 0 003.4-1.6 4.4 4.4 0 001-4.6c-.5-1.4-.6-2.9-1-4.3a30.4 30.4 0 00-1.2-3.8v.3l-.2-1-.2-.7v-.2-.6a2.5 2.5 0 00-.4-.7 3 3 0 00-1.3-1.8 2.9 2.9 0 00-4 1 3 3 0 000 3.1 22.2 22.2 0 00.1 1.3 5 5 0 00.2 1l1 3.2.7 3.5-1.4.4-3.4 1.2c-2.5.6-5 1-7.5 1.7a3.2 3.2 0 00-1.9 4.6 35.9 35.9 0 005 6.5l2.5 2.6-.4.2a22.3 22.3 0 00-2.3 1l-.4.2a68.3 68.3 0 00-8 3.4c-2.9 1.5-1.4 6 1.7 6h.3a3.2 3.2 0 002-.8 129.4 129.4 0 014.2-2zM99.2 298.6a8.7 8.7 0 00.2-3.2l-.2-1.7-.2-.6c.2.6 0-.3 0-.3a6 6 0 00-.4-1.8 2.8 2.8 0 00-2.6-2.2h-.3a2.7 2.7 0 00-2.3 4v.5a6 6 0 00.2 1.2v2.6l-.6 1.7v.2l-.1.1-.4.7-.3.5-.5.6-.6.6-.5.5-.5.3-.3.1a1 1 0 01.5 0 4 4 0 00-.5 0l-.2.1a1 1 0 01.1 0 3 3 0 00-2.4 2.8 3 3 0 003 3 2.9 2.9 0 001.2-.2c3.3-1 5.7-4.2 7-7.2l.7-2.3zm-5.7-5.8v0zM89.8 302.4zM244.2 330.4zM244.2 324.5h.2zM246.9 325.2a5.2 5.2 0 00-2.2-.6c1 0-.6-.1-.5-.1a6.7 6.7 0 00-1.2 0 26.5 26.5 0 00-4 .3 8.7 8.7 0 00-2.1.7h-.2l-.2.2-1.2.4-1.2.6-.3.1q.6-.1-.5.3a4.6 4.6 0 00-1.9 1.8 2.6 2.6 0 004 3.1q-.2.3 0 0c.3 0 1.5-.5 1-.2q-.3 0 .2-.1l.8-.3 2.8-.8.6-.2h2.5q-.6-.2.6 0h.3a3 3 0 003.7-1.1 3 3 0 00-1-4z"/>
  <path d="M244.2 330.5c-.4 0 .5.2 0 0zM241.6 302.6a8 8 0 00-.7-.9c-1.3-1.5-3.6-.6-4.2 1.1a4.4 4.4 0 00.8 3.5 26.8 26.8 0 001.6 2.6l1.5 2.5.3.4.2.3.2.5a4.4 4.4 0 001 1.5 2.9 2.9 0 004.2-4.1c0 .2 0 .2 0 0l-.3-.6a6.3 6.3 0 00-.6-1l-1.6-2.3-.7-.9q-.4-.4-.1-.2l-.6-1a11.8 11.8 0 00-1-1.3q.3.3 0-.1zM92 363q-.3.1.1-.3l.4-.5 1.9-2.3a11.5 11.5 0 001.4-2 4.2 4.2 0 01.3-.5q-.4.4.3-.5a2.3 2.3 0 001-2v-.2a2.7 2.7 0 00-2.6-2.7 2.5 2.5 0 00-2 .8 4.1 4.1 0 00-.8 1c-1 1-1.6 2.2-2.4 3.2l-1.5 1.7a12.2 12.2 0 00-1.5 2.1v.2l-.2.2a12.1 12.1 0 00-1 1.3l-.6.8-.5.7h7l.3-.3.4-.8zm4.5-6.3c.2-.6.2-.6 0 0zm-.2.2a1.4 1.4 0 01-.8.5 4 4 0 00.8-.5zM172.5 336.6a2.7 2.7 0 001.3-2.3 2.5 2.5 0 00-.7-1.7 6.6 6.6 0 00-2.5-2.3 19.2 19.2 0 00-2-.8l-.2-.1q.6.2-.5-.3l-1-.3a18.4 18.4 0 00-8.9-.4 11.2 11.2 0 00-3.7 1.6c.5-.3-.2 0-.3.1a12 12 0 00-1.2.6 8.2 8.2 0 00-1.6 1.3 18.2 18.2 0 00-2.6 3 9.9 9.9 0 00-.8 2 6.3 6.3 0 00-.6 2.5 3 3 0 002.2 2.7h.1a3 3 0 003.6-2.4l.2-.3q0-.5.2-.9l.2-.4c.1-.2.1-.2 0-.2l.5-.4 1.2-1.3.5-.4.5-.2a7.8 7.8 0 001.2-.6l.4-.3.1-.1h.3l.9-.3a6.2 6.2 0 00.6-.2 17.4 17.4 0 013.4 0h.3l.8.2a14 14 0 011.8.6l1.2.4.5.2a7.3 7.3 0 01.6.4l1 .7a2.9 2.9 0 003 0zm-16.6-.7l.2-.1h-.2zM100.6 340c-.1 0-.1 0 0 0zM113.6 347.3l-.2-1a19.8 19.8 0 00-1.4-3.8 16 16 0 00-4.4-5.9 13.4 13.4 0 00-3.9-2.3l-.2-.1a11.8 11.8 0 00-1.7-.7 7 7 0 00-3.3-.1c-1.8.2-2.7 2.4-2.3 4a3.2 3.2 0 003.4 2.3h.2s1 .5.3.1l.5.2 1 .5a13.2 13.2 0 011.4.8l.4.3a12.8 12.8 0 011 1l.4.5.2.2a14.2 14.2 0 011.3 2.3l.3.9a15.7 15.7 0 01.5 1.5l.1.7.1.8v1.6l-.1.6a13.7 13.7 0 01-.5 1.8l-.2.5c0-.2-.2.5-.3.5-.2.6-.5 1.1-.9 1.7a3.3 3.3 0 005.7 3.3 20.2 20.2 0 002.9-8.8 12.4 12.4 0 00-.2-2.5l-.1-.9zM128.9 333a2.5 2.5 0 00-.2.3 4.1 4.1 0 00-.5 1.7c0-.3-.3.7-.4.8l-.5 1.6-.8 2.5a6.7 6.7 0 00-.4 1.8q0-.4 0 0a3.3 3.3 0 00-.2 1.2c.1 1.5 1.6 3.1 3.3 2.5a3 3 0 002-2q.2-.3 0 0l.3-.7q.2-1.1 0-.7a17.3 17.3 0 011-2.9l.9-3.2a3 3 0 000-.7l.2-.3a3.6 3.6 0 000-2 2.5 2.5 0 00-4.7 0zM163 363c.2.2 0-.5-.1-.6a11.1 11.1 0 00-.5-1.8l-2.1-4.6-1.1-1.8a7.9 7.9 0 01-.9-1.7l-.2-.8a3.6 3.6 0 00-.3-.9q-.8-.9-.3-.4l-.3-.4a2.3 2.3 0 00-1-1.6 2.5 2.5 0 00-3 0 2.2 2.2 0 00-1 2l-.1.7a2 2 0 00.6 1.6l.2.4V353.4a14.8 14.8 0 00.7 1.9c.6 1.4 1.5 2.6 2.1 4a17.5 17.5 0 011.5 3.6l.3 1.1h6.1a2 2 0 00-.3-.5 4.3 4.3 0 01-.2-.4zM0 328.4v10.3a15.8 15.8 0 001-5.2 13.5 13.5 0 00-1-5zM9 363.9q.6-.6 1.3-1a22.5 22.5 0 001.8-1.7 34.2 34.2 0 013.4-2.7l3.6-3a3 3 0 00.5-3.6 10.2 10.2 0 00-3.1-3.3l-.4-.3a14.6 14.6 0 01-1.4-1.3l-.4-.4-.4-.5c-.7-1-1.4-1.8-2.2-2.6A26.9 26.9 0 0016 341L18 340l1.2-.6.6-.3q-.4 0 0-.1a12.2 12.2 0 002.4-1.1l1-.5a6 6 0 001.3-1 3 3 0 00-.2-4.2c0-.2-.2-.3-.3-.5l-1.3-1.6-.6-.7q-.3-.4 0 0l-.4-.6a19.6 19.6 0 00-1.5-2l-1.2-1.6-.3-.3-.7-1a16.6 16.6 0 00-2.4-2.8 2.6 2.6 0 00-2.2-1.2 2.8 2.8 0 00-2.8 2.7 2.6 2.6 0 00.1 1 2.8 2.8 0 00.7 1.3q1 .6.4.3a8.3 8.3 0 01.7.8l.4.6 3 4q.3.5 0 .2.3.2.4.5a11.6 11.6 0 01.7 1 7.1 7.1 0 00.7 1 22.1 22.1 0 00-2.4 1.3l-2.4 1.2-3.3 2.1-1 .4-1.1.6a10.7 10.7 0 00-1 .5l-.4.2a3 3 0 00-2.3 3 5.6 5.6 0 002.2 3.8l.5.4q.2 0 .3.2l.3.4 1.7 2a29 29 0 002.8 3.2l.9.7-.2.1-.6.4-3.8 3c-1 1-2 1.8-2.9 2.5l-1 .9-1 .8-.6.5-.4.3A2.9 2.9 0 00.7 364H9h-.1zm15.3-32zM88.5 320.8l-3.5-3.2a37.8 37.8 0 01-3.4-3.6 7.1 7.1 0 01-1-1.5 7.7 7.7 0 00-.9-1.2 2.5 2.5 0 00-1.8-1.9 2.7 2.7 0 00-3.3 1.9 3.4 3.4 0 00.5 3s.5.9.3.3a10.8 10.8 0 00.6 1.5 16.6 16.6 0 001.7 2.3q.3.4 0 0l.7.8 1 1.2c1.2 1.4 2.6 2.6 3.9 3.9l.2.2a37.5 37.5 0 00-3.6 1.7l-.6.2-.9.3a17.9 17.9 0 00-2.4 1 7 7 0 00-3.2 2.4 3 3 0 000 3.1 21.9 21.9 0 003.5 4l1.5 1.4.9 1 .4.5q-.3-.3 0 .1a30.2 30.2 0 003.2 3.7 6.1 6.1 0 004.1 2.6c1.7.2 3.1-1.6 3.1-3.1v-.3a3.1 3.1 0 00-2.4-3c-.3-.4-.6-.8-1-1l-1.3-1.5a5.1 5.1 0 00-.3-.5 15.5 15.5 0 00-1-1.4 39.4 39.4 0 00-2.8-3l-.1-.1a22.5 22.5 0 002.5-1l1.5-.8.6-.3.5-.2c1.5-.5 2.2-1 3.5-1.4a3.1 3.1 0 002.1-3.8 8.6 8.6 0 00-2.8-4.3zM72.2 346.5l-2.7-2.5-1.3-1.2-.7-.6a7 7 0 01-.7-.6 11.8 11.8 0 00-1.8-1.7 3.2 3.2 0 00-2.4-1.2c-2 0-3 2-2.4 3.6a2.6 2.6 0 001.3 2 1.7 1.7 0 00.2.1l.7.8a14.3 14.3 0 001 1.1l.8.6c-.3-.2.4.5.4.5l1.2 1.2 2.2 2 1.2 1.1a7.5 7.5 0 001.8 1.4 2.9 2.9 0 004-4c-.6-1-1.9-1.8-2.8-2.6zM69 362a32.3 32.3 0 00-5.7-4l-2.6-1.5a32 32 0 01-1.6-1.1l-.6-.5a13.2 13.2 0 01-1.3-1.3l-.1-.2-.2-.2-.5-.8-.3-.7-.3-.9a16.2 16.2 0 01-.6-2.7v-.7L55 346l-.1-2.5a33.5 33.5 0 00-.7-5.7c-.8-3.2-2.5-6.5-5.6-8a16.8 16.8 0 00-8.7-1 3.5 3.5 0 00-1.6.4c-4.7 1.3-7.9 5.1-10.1 9.3a24.7 24.7 0 00-2.7 16.2A29 29 0 0029 364H36a40.7 40.7 0 01-2.7-4.4 23.9 23.9 0 01-2.4-7v-.1-1a20.5 20.5 0 01.2-4.4 22.9 22.9 0 011-3.2 16.2 16.2 0 011.1-2.7l1.5-2.5.3-.4.3-.4A15.7 15.7 0 0137 336l.2-.1v-.1l.7-.4a12 12 0 011.2-.7l.3-.1a2.5 2.5 0 00.4 0 51.1 51.1 0 014.1 0h.4a9 9 0 011.2.4l.4.2.3.1.4.3a4.5 4.5 0 01.3.3c-.2-.1.2.3.3.4a7.5 7.5 0 01.3.7l.4.8a14.3 14.3 0 01.5 1.7l.2.9v.6l.3 3.9a28 28 0 001.2 8 14.3 14.3 0 004 6.1 33 33 0 005.4 3.8l2 1.2h9.2a17.3 17.3 0 00-1.8-2zM70.6 297.7H63.5a3 3 0 00-1.3.4 4.5 4.5 0 00-.5 0c-2.8.7-2.8 5 0 5.6a4.7 4.7 0 002.5 0h11.4l2 .2a4 4 0 002.9-1 2.7 2.7 0 000-3.9c-1.4-1.2-3.5-1.3-5.2-1.3h-4.7zM63 319.3q.3-.5 0 0l.5-.5a7.3 7.3 0 001.3-1.6c1.2-1 1-3.6-.5-4.3a3.5 3.5 0 00-1.6-.4 2.8 2.8 0 00-2.6 2l-.8.7a18.5 18.5 0 00-1.8 2.5l-1.3 2.2a14.8 14.8 0 00-1.6 2.3 2.6 2.6 0 00.4 3 2.5 2.5 0 003.5 0 30 30 0 003.7-4.8l.8-1zM123.8 117.5a14.8 14.8 0 004.7 5.8 10.5 10.5 0 007.5 1.6c5.5-.8 8.9-5.8 10.6-10.6l.4-1.4v-.2l1.5-1.5a9.3 9.3 0 001.2-1.4l.2-.3.4-.3 1-.5a4 4 0 00.8-.6 24 24 0 004.2-3.1 21.7 21.7 0 002.3-3 10.7 10.7 0 00.3-12A14.4 14.4 0 00152 85a22.5 22.5 0 00-7.6-1.4A21.7 21.7 0 00136 85a19.3 19.3 0 00-7 4.6c-7 7-9.4 18.8-5.2 27.9zm17.4-5.8zm-11.6-11.8l.2-.5.7-1.5.9-1.4.5-.7.3-.4a20.4 20.4 0 012.5-2.7l.5-.3.6-.4a13.3 13.3 0 011.5-.8l.5-.3.7-.2a15.3 15.3 0 012.2-.5h.4l1-.1a29 29 0 015.3.1 18 18 0 013.2 1H151l.8.5a13.4 13.4 0 011.5 1l.4.3a1.2 1.2 0 00.2.1v.1a8 8 0 01.5.8v.1l.2.3a7.4 7.4 0 01.2.8v.3a7.5 7.5 0 010 .8v.1l-.1.5a8.2 8.2 0 01-.3.8l-.1.4-1 1.4-.3.6-.3.4a12 12 0 01-1.4 1.3h-.1l-.2.2-.7.5-1.4.9a30.6 30.6 0 00-3.4 2.2c-1.7 1.3-4 3.4-4.2 5.7l-.1.3a45.7 45.7 0 01-1.2 2.8 17.8 17.8 0 01-1.2 2l-.3.3a12 12 0 01-1.3 1.3l-.4.3-.5.2a9.1 9.1 0 01-1.3.3h-1.4l-.6-.1-.4-.2-.5-.2a5 5 0 01-.4-.3l-.3-.3-.3-.3-.4-.4a14.5 14.5 0 01-1-1.6l-.4-.8-.2-.5a17.6 17.6 0 01-1-4.1 21.7 21.7 0 010-3.3v-.8-.5l.4-1.7a26.4 26.4 0 01.9-3.1l.3-.7zM146.2 75.7a10.4 10.4 0 003-.2h2c2.1.4 4 1.3 6 1.7.5 0 1 .1 1.4.3q.5.2 0 0a11.3 11.3 0 001.3.6q-.3-.1.2 0l.9.6 1.4 1h.3a3.7 3.7 0 01.3.3l.2.3h.1v.1a13.5 13.5 0 001.6 1.9A3 3 0 00169 78l-.3-.3-.6-.8a9.5 9.5 0 00-2.5-2.4l-2.9-1.7-1-.4-.2-.1-.2-.1a8.9 8.9 0 00-2-.7c-2.1-.5-4.2-1.3-6.3-1.6a14 14 0 00-3.9-.3 18.4 18.4 0 00-1.8.3h-.6l-.6.1a2.8 2.8 0 000 5.6zM168 42.2a3.1 3.1 0 000 4.3l3.3 3.9 2 2.3.2.2-.3-.2.5 1a10.8 10.8 0 001.6 2.3l-.4.2q-.4.1 0 0a44 44 0 00-2.7 1.2l-5.3 3-2.3 1.4-1 .6-.1.1a.4.4 0 01-.2 0 2.6 2.6 0 00-2.1 1.9 2.7 2.7 0 001.2 3c2 1.4 4.5-.3 6.2-1.3l3-1.5 3-1.7c1-.6 2.1-1 3-1.4l.3-.1 1.6-.7c2-1 3.5-3.2 2.6-5.5a8.3 8.3 0 00-1.9-2.8l-.9-1c.3.3-.2-.5-.2-.5l-.5-1a17 17 0 00-2.3-3l-3.9-4.7a3 3 0 00-4.3 0zm-4.4 20.3z"/>
  <path d="M163.5 62.5h-.2a2.2 2.2 0 01.2 0zM186.6 64v-.2a2 2 0 01-.1.3l-.4.6a12.4 12.4 0 00-1.1 1.5c-.9 1.5-2.3 2.8-3.1 4.2.3-.5-.4.3-.5.4a6.9 6.9 0 00-.6.8l-.1.1a7 7 0 00-1.3 2.3 11.8 11.8 0 00-1 1.2 5.4 5.4 0 00-.9 2.7 3 3 0 003 3 3 3 0 003-3 5.6 5.6 0 010 .7c-.1.1-.1.1 0 .1l.3-.5a6.3 6.3 0 001.4-2.4v-.2a3.5 3.5 0 00.6-.7 20.7 20.7 0 001.7-2.3l2.7-3.9c.9-1.2 2-2.3 1.9-4a2.8 2.8 0 00-5.5-.7z"/>
  <path d="M183.4 78.7c-.1.2 0 .3 0 0zM186.6 63.8c.1-.2.1-.3 0 0zM231.5 50.6a13.4 13.4 0 006.3 1.2c1.3 0 2.6-.1 3.8-.3a19.3 19.3 0 012.1-.2h.7a9.5 9.5 0 011 .3l.6.2a12.7 12.7 0 011.3.7l.4.3a26 26 0 012.2 2.3 41.2 41.2 0 004.7 4.6 13.2 13.2 0 007.1 3c2.6.2 5.2-1.2 7.2-2.7a18 18 0 006.4-11.8c.6-4.6-1.3-9.5-4-13.2a24.1 24.1 0 00-11.3-9 33 33 0 00-13.8-.8 23.6 23.6 0 00-7 2 18.3 18.3 0 00-4.9 2.9 14 14 0 00-2.3 1.7 15 15 0 00-4.4 6.3c-1.7 4.5-.7 10.3 3.9 12.5zm1.3-8.3v-.6c0 .4.1-.3.2-.4a12 12 0 01.4-1.6l.2-.4.4-.8a11.6 11.6 0 01.6-1l.3-.4.6-.6.6-.6.4-.3.4-.3 3-1.6 1.4-.8.5-.2 1.1-.4a27.5 27.5 0 013.5-.9h.4l.9-.1 2.1-.1a38.8 38.8 0 014.7 0l.7.1 1.9.4a15.5 15.5 0 011.6.5l.4.2.7.3a19.4 19.4 0 012.5 1.7l.4.3.6.5 1.2 1.1 1 1.2.4.5.4.6a21.1 21.1 0 011.7 2.7l.2.5.2.4a17.3 17.3 0 01.5 1.8l.3 1.1v1.3a13.3 13.3 0 010 1.5v.3a12.4 12.4 0 01-.4 1.8 20 20 0 01-1.3 2.4l-.4.6-.4.5a13.7 13.7 0 01-1.8 1.8l-.4.2-.6.4-.5.3-.5.2h-.5l-.4.1h-.4a10 10 0 01-.9-.3l-.4-.2a11.7 11.7 0 01-1.5-.9l-.2-.1-.6-.5-1.1-1.1-2.4-2.5a18.2 18.2 0 00-5.6-4.6 13.4 13.4 0 00-4.5-1.2 22 22 0 00-4.5.4 26.4 26.4 0 01-3.2.2h-.9l-.4-.1a8.6 8.6 0 01-1-.3l-.4-.2-.1-.1-.3-.2-.2-.3-.2-.2-.1-.3-.2-.7V43v-.6zM248.8 115a3 3 0 003.6 2 3 3 0 002-3.6 6.4 6.4 0 00-.2-.6 672.2 672.2 0 01-.7-2v-.2-4.5-1.8-.8c0 .6.2-.6.2-.7l.2-.5.5-1a15.5 15.5 0 00.7-1.5 3 3 0 00.6-1.2 2.4 2.4 0 00.3-1.1 2.5 2.5 0 00-2.3-2.5 2.6 2.6 0 00-2.7 1 2.6 2.6 0 00-.2.2 4.7 4.7 0 00-.9 1.5l-1.1 2a12.5 12.5 0 00-1.2 5.4v4.9a10.3 10.3 0 00.3 2.8 8.9 8.9 0 00.4 1l.4 1c-.3-.6 0 .1 0 .2zm5-15h-.1zm-3.2-3.3zM253.7 95h0zM253.7 95zM254.2 112.7c0 .2 0 .2 0 0zM216 60.9h-.1a2.4 2.4 0 00-1.4.4 6.4 6.4 0 00-.8.7 2.7 2.7 0 00-.4 3.3 2.5 2.5 0 001.7 1.2 4.2 4.2 0 002.3.2 8 8 0 002.2-1h.9l.6-.2H221.3a23.4 23.4 0 003.5-.7 18.3 18.3 0 002.9-.6l1.3-.5h.3a3 3 0 003.5-4.5v-.1a3 3 0 00-3-1.5 7.7 7.7 0 00-3.2.5 24.8 24.8 0 01-3.7 1l-2 .4-1 .1a8.5 8.5 0 00-.8.2c-.1 0-1 .1-.4.1a4.3 4.3 0 00-1.8.6zm13.2 2.7h-.1.1zM262.6 103.7c.1 4.2 1.2 9 5.2 11.2a9 9 0 007.6.3 65.9 65.9 0 006.3-3.3l.5-.2.5-.2a9.5 9.5 0 011.3-.3 4.5 4.5 0 00.6 0l.8-.1h2.1c2.9 0 5.7-.3 8.1-2a14.4 14.4 0 006.4-13c-.4-5.4-4.5-10-9.2-12.5a20.5 20.5 0 00-8.3-2.3 27.6 27.6 0 00-8.2 1 9.9 9.9 0 00-5.2 3.2 23.6 23.6 0 00-3.6 3.5 23.1 23.1 0 00-4 7.2 21.1 21.1 0 00-.9 7.5zm6.1-2.7a13.8 13.8 0 010-.7v-.2a15.2 15.2 0 011-3v-.2l.4-.8a22.5 22.5 0 011.9-3l.5-.6a21.8 21.8 0 012-2l.3-.2.5-.3 1.4-1a23.3 23.3 0 013.4-.8l.7-.2a4.9 4.9 0 00.6 0l1.8-.1a18.3 18.3 0 012 0l.3.1 1.2.3a14 14 0 011.5.4c-.2 0 .5.2.5.3.3 0 .5.2.8.3a17 17 0 012.4 1.5l.2.1a15.7 15.7 0 011.2 1.2l.6.7h.1v.2a12.4 12.4 0 011 1.4l.2.6.3.7v.5l.1.5a10.6 10.6 0 010 1.5v.2l-.2.8-.2.7-.3.7a12.5 12.5 0 01-.6 1.1l-.3.5c.1-.3-.2.2-.3.3a8.7 8.7 0 01-.8.8l-.5.4a7 7 0 01-1 .6c.3-.2-.4.1-.4.1a8.4 8.4 0 01-.9.2H289.8l-.8.1H285a16.5 16.5 0 00-7.5 2.3l-2.3 1.3a28.9 28.9 0 01-1.9 1h-.2a8.6 8.6 0 01-1.2.4h-.6-.3l-.4-.2a4 4 0 01-.3-.3l-.4-.4a8 8 0 01-.3-.4l-.3-.7a13.7 13.7 0 01-.5-2v-.7l-.2-2.5a14.5 14.5 0 010-1.5zM236.8 127.9h-.2a3 3 0 00-3-.2 2.8 2.8 0 00-1 3.9c.8 1.2 2.2 1.7 3.5 2.1l3.5 1.2.8.2.8.4 1.3.6 1.2.5a54.3 54.3 0 00-5.5 4.2 29 29 0 01-2.5 1.6 4 4 0 00-.7.5 3 3 0 00-.4 3.7 3.1 3.1 0 004.2 1.1 30.3 30.3 0 005.8-4l1-1c-.6.6.4-.2.5-.3l1.1-.8 4.2-3.1c1.6-1.3.9-3.8-.6-4.8a51.6 51.6 0 00-4.8-2.5 30.6 30.6 0 00-4.2-1.9l-3.3-1c-.6 0-1.1-.3-1.7-.4zM261.9 126.6a16 16 0 00-1 2.7 18.5 18.5 0 01-.6 1.9v.1l-.1.2-.5 1.2a17 17 0 00-1.3 4 34 34 0 01-.5 2.7l-.1.3-.1.1a3 3 0 005.3 3.2c1.2-2.5 1.1-5.2 2-7.7a37 37 0 001.4-3.8l1-4a2.7 2.7 0 00-.4-2.3 2.2 2.2 0 00-.9-.9 2.3 2.3 0 00-1.8-.4 2.2 2.2 0 00-1.8 1.1 3.3 3.3 0 00-.6 1.6zM275 125.7a3 3 0 004 1q-1.3.7 0 0h.2a4 4 0 00.6-.3l1.3-.8 2.2-1.4a57.3 57.3 0 014.9-2.5h.1l.4-.2a9.9 9.9 0 001.3-.5l.3-.2.3-.2c2.4-1.3 1.3-4.9-1.2-5a1.9 1.9 0 00-.7 0 6.2 6.2 0 00-1.5.2 40.6 40.6 0 00-6.7 3.1l-2.3 1.4-1.4.8a8.8 8.8 0 00-.9.6h.1a2.9 2.9 0 00-.3.2 3 3 0 00-.7 3.8z"/>
  <path d="M276 121.7l-.3.2.1-.1zM302.8 161.8a3 3 0 003.5 2c1.9-.4 2.6-2.4 3.4-4l1.7-3.6 1.7-3.6.9-2.2a4 4 0 00.2-.8 2.5 2.5 0 00.6-1.7c0-1.3-1.2-2.9-2.7-2.7a3.9 3.9 0 00-3.5 3.2c.1-.6 0 .2-.2.3l-.6 1.2a93.3 93.3 0 01-3.2 6.3c-.8 1.6-2.6 3.7-1.8 5.6zM325.4 71.6l-1.2.7c-1 .4-1.8 1-2.8 1.5l-.5.3-.5.2-1.3.4-1.4.3h-.2a5.2 5.2 0 00-1.4.3 2.5 2.5 0 00-1-.2h-1.3a3.1 3.1 0 00-1.2-.2 2.9 2.9 0 00-.8 5.7c-.7-.3 0 0 .1.1a4 4 0 001.8.5h.5a5 5 0 003.6 0 15.8 15.8 0 005-1.1c1.8-.7 3.3-1.8 5-2.6a10.6 10.6 0 003.8-3c1.1-1.5 2.4-3.1 2.3-5a3.2 3.2 0 00-2.3-3c-1.5-.5-3.6.4-3.9 2.1a3.7 3.7 0 01-.1.5l-.5.7-.2.4-.8 1-.3.1-.4.3zm-8.6 4a1.5 1.5 0 01.5.4 5.1 5.1 0 00-.5-.3zM310.6 37.3a23.9 23.9 0 00-5.2 13.3c-.4 4.5.4 9.5 3.2 13.1a9.7 9.7 0 006 4.1A10.3 10.3 0 00322 66c3.7-2.5 5.9-6.4 9.2-9.3 1.7-1.4 3.5-2.6 5-4.2a18.1 18.1 0 002.4-2.8 10.3 10.3 0 00.8-1.3l.5-1.3q-.2.5 0 0t.4-1c1-2.6.4-5.6-.8-8a15.7 15.7 0 00-5.4-5.8A16.3 16.3 0 00326 30a17.2 17.2 0 00-8 1.6 11.7 11.7 0 00-2.4 1.4 18.8 18.8 0 00-5 4.4zm6 2.9V40h.1a5.7 5.7 0 001-.9l1-1 .3-.3.2-.1 1-.5.5-.3.7-.2q.6-.1.2 0a8.7 8.7 0 01.9-.1 13.2 13.2 0 002.2-.3 2.3 2.3 0 00.4-.2h.9l.8.2a15.2 15.2 0 011.6.3l.8.3.5.2a10.5 10.5 0 011.4.8l.4.3.7.6a12.1 12.1 0 011 1 9.8 9.8 0 011 1.7c-.2-.3 0 .3 0 .4a7.4 7.4 0 01.3.8v.9l-.2.5s-.3.9 0 .3a6.8 6.8 0 01-.4.8 10.4 10.4 0 01-.7 1.3l-.3.4-.5.6a44.1 44.1 0 01-5 4.2 32.4 32.4 0 00-4.3 4.4 71.6 71.6 0 01-4.2 4.4l-1 .5c0 .1-.8.4-.7.5l-.7.1-.5.1h-.2l-.7-.2-.3-.2-.3-.2-.6-.6-.3-.4-.2-.3a13.8 13.8 0 01-1-1.9l-.4-.8a10 10 0 01-.3-1.5l-.1-.6v-.2l-.2-1.6a22.4 22.4 0 010-3l.1-.5v-.2l.3-1.3a21 21 0 01.8-2.7l.1-.2.2-.5a20 20 0 011.9-3.1l.2-.4.6-.7a3.6 3.6 0 001-.5zM351.4 62.6h-.1l-.2-.2-1.4-1.4a18.3 18.3 0 00-3.2-3 3 3 0 00-3.7.4 3.2 3.2 0 00-.5 3.7 13.2 13.2 0 002.7 3.2 21 21 0 003 2.6 25.7 25.7 0 005.5 3.1 3 3 0 004.9-3.6 3.4 3.4 0 00-.8-1.1 4.1 4.1 0 00-1.6-1c.6.3-.4 0-.4-.1a23.2 23.2 0 01-3.4-2l-.8-.6zM296.3 78c-.2-.1.1.2 0 0zM296.3 78z"/>
  <path d="M296.8 71l-1.2-.6-2.8-1a18.6 18.6 0 00-5-1.4l-2.2-.1a6.2 6.2 0 00-2.7.1 2.8 2.8 0 000 5.4 14.7 14.7 0 003.6.7l1.4.1c-.7 0 .3.1.3.1l.9.3 3.2 1.2.6.2.8.4 1.4.7 1 .7.2.1-.1-.1.1.2h.2a1.3 1.3 0 00-.2 0 3.1 3.1 0 005.3-3.4 6.5 6.5 0 00-2-2l-.5-.3a6.1 6.1 0 00-1.8-1c.5.1-.5-.3-.5-.3zM333 23.5h.3q-.8-.2.4.3h.4a14.7 14.7 0 011.7 1l3.3 2.2.4.4.7.6.6.7.5.5A16.1 16.1 0 01343 32a3 3 0 002.7 1.5h.2a3.2 3.2 0 003-3.1 3.3 3.3 0 00-.8-2.2 20.1 20.1 0 00-5.6-6.3c-1.3-1-2.7-1.7-4-2.5a13.6 13.6 0 00-1.8-1l-1-.4h-.4a2.7 2.7 0 00-1.6-.6 2.9 2.9 0 00-2.8 2.9v.3a2.9 2.9 0 002 2.8zM217.7 23.2l.3.5.5.7.2.2a17.3 17.3 0 011.1 1.8c.8 1.3 1.5 2.7 2.4 4a3 3 0 004 1 3 3 0 001.2-4c-.9-1.2-1.5-2.6-2.2-3.8l-1-1.7-1-1.3-.2-.2-1.5-2.5-.7-1.2c-.2-.3-.6-1.4-.2-.2a2.9 2.9 0 00-2.7-2 2.8 2.8 0 00-2.8 2.8c.3 2.1 1.5 4.1 2.6 6zM184 28.7a11.2 11.2 0 01-1-2.5 2.7 2.7 0 00-.8-1.8 4 4 0 00-.7-.7 2.7 2.7 0 00-2.8 0 2.9 2.9 0 00-1.4 2.4 9.4 9.4 0 001 4.7l.4 1c-.1-.5.2.5.2.4l.6 1.9 2.6 7.8a3.2 3.2 0 003.9 2.2 3.2 3.2 0 002.2-3.9c-.7-2.5-1.7-5-2.6-7.4a37.8 37.8 0 00-1.6-4.1zM136.2 58.9a3.2 3.2 0 00-.5-1.7c-1-2.7-5.5-2-5.3 1v.3a3 3 0 00.3 1.2 15.8 15.8 0 00.4 2.3 27.5 27.5 0 00.2 1.3l.1 1.9c.3 2.9 0 5.6 1.3 8.3A3 3 0 00136 75a3 3 0 002.2-3 2.8 2.8 0 00-.3-1.3l-.2-.5a7.5 7.5 0 01-.2-.9c.1.6 0-.4 0-.4v-1a33.3 33.3 0 00-.4-4v-.2-.7a18 18 0 00-.7-2.7l-.2-1v-.3zm1.7 11.6zM127 46a12.8 12.8 0 00-2.7.1l-3.9 1.1-3.9 1-1.9.4h-.5l-1.4.3c-2.7.6-2.8 5 0 5.4a13 13 0 005.1-.4l4.2-.9a20.3 20.3 0 013.8-.9 7.8 7.8 0 004.1-.8 3 3 0 00-3-5.3c1-.4.4-.2 0 0zM127 46zM119.6 22.3a6.4 6.4 0 00.2-1.6c0-3.1-4.6-3.8-5.4-.8v.2l-.4.9a11 11 0 00-.3 1.3 30.4 30.4 0 00-.6 3.6 28.5 28.5 0 000 5c.3 4.2 1.5 8 5 10.6 2 1.5 4.6-.5 4.6-2.6a2.9 2.9 0 00-.2-1.2 3.4 3.4 0 00-1.8-2l-.1-.1v-.1a8 8 0 01-.6-.8v-.1l-.2-.5a13.4 13.4 0 01-.5-2l-.1-.5v-.2l-.1-1.1a30.9 30.9 0 010-4.4v-.5-.3l.3-1.5.1-.7v-.4l.1-.2zM91 29.7a3 3 0 001.1 4.1c1.2.7 2.5 1.1 3.6 1.9l1.7 1 .1.1.4.3v.2a5.1 5.1 0 00.7.7l.6.7.6.7a15 15 0 011.2 1.8v.1l.1.1.4 1a11.4 11.4 0 001 2.4 3.2 3.2 0 003.6 1.4 3.1 3.1 0 002.3-3 4.1 4.1 0 00-.5-1.8 2.4 2.4 0 00-.4-.6l-.1-.3a26.2 26.2 0 00-1-2.4 20 20 0 00-3.3-4.2q-.3-.5-.1 0a10 10 0 00-.7-.9 8 8 0 00-1.2-1 21.2 21.2 0 00-1.9-1.3c-1.6-1-2.8-1.2-4-2a3 3 0 00-4.2 1zM84 78.7a4 4 0 00-1 1 2.8 2.8 0 00-.5 3.2 2.7 2.7 0 003.1 1.2h.2a3 3 0 00.4-.2 3.2 3.2 0 01-.4.2h.2a8 8 0 001.7-.4l2.4-.5 2.2-.6 1-.2a9 9 0 00.9-.4l.5-.2c.6-.2 1.2-.6 1.8-1h.2l.6-.3h.2c1.5-.7 3-.8 4-2.2a3 3 0 00-.4-3.5c-1.3-1.6-3.5-1-5-.3l-1.4.6-.3.1-.4.2-2 1c.3 0-.5.3-.6.3l-.7.2-2.5.7-2.7.7q.5 0 0 0a2.9 2.9 0 00-1.4.4z"/>
  <path d="M85.6 84.1a1 1 0 00.2 0h-.2zM102.2 98.5a4 4 0 00-1.8 1.1 4.3 4.3 0 00-.4 4.8 10.7 10.7 0 001.7 2.3c-.7-.8.7.9.5.7l1 1.3a37.5 37.5 0 003.6 4.2 2.4 2.4 0 002.4 1.5 2.3 2.3 0 001.4 0 2.9 2.9 0 001.4-4 1.9 1.9 0 00-.3-.6 33 33 0 00-1.4-1.9c-1-1-1.5-1.8-2.3-2.8l-1.3-1.8a35.6 35.6 0 006-3.1 13.2 13.2 0 011.6-1 17.4 17.4 0 011.4-.5 5 5 0 003.4-3.5 6.7 6.7 0 00-.7-4.3c-.4-.9-1.1-1.6-1.6-2.5l-3-5.7.1-.1 1.3-.5.7-.2a35.3 35.3 0 013.6-1 19.9 19.9 0 004.2-1.6c2.4-1.3 2.7-3.8 1.5-6a37.4 37.4 0 00-2.5-3.8l-1.8-2.6-.4-.6-.3-.5-.3-.7a9 9 0 00-1.5-3.3l-.4-.5-.1-.1a3.1 3.1 0 00-3.1-2.5 3.2 3.2 0 00-3.2 3.2 6.7 6.7 0 001.8 3.9l.1.1.7 1.9a10.5 10.5 0 001 1.9l.5.6v.2l.6.7a31.5 31.5 0 012.4 3.5c-1.2.4-2.4.5-3.6 1l-1.7.5-.8.3-1.2.4c-1.6.5-3.2 1-4.1 2.6a4.8 4.8 0 000 4.7c.4.9 1.1 1.6 1.6 2.5l2 3.8a27.2 27.2 0 001.5 2.6l.2.2-1.7.8-3.4 2c-1.6.9-3.3 1.6-5 2.3a1.7 1.7 0 00-.3.1zm11.3-32.7c-.4-.4-.2-.4 0 0zm-9.2 38.5c-.5.4-.3 0 0 0zM170 99.5a2.9 2.9 0 00-3.6.5 3.1 3.1 0 00-.8 2.3 10.5 10.5 0 00-.8 2.3 9.3 9.3 0 01-1.2 3q-.4.4-.1 0l-.6.8-1.3 1.3-2.6 2.2a3 3 0 004.3 4.3c1-1 2.2-1.8 3.2-2.9a14.8 14.8 0 002.9-3.9 20 20 0 001-2.6l.2-1 .2-.5q.2-.6 0-.2a5.4 5.4 0 00.9-2.6 3.5 3.5 0 00-1.8-3zM179.5 91.6zM179 90.2a2.6 2.6 0 00-2.5-1.9 2.6 2.6 0 00-2.5 1.9 4.7 4.7 0 000 3.2 5.8 5.8 0 001 2.2 19.4 19.4 0 005.2 8.5l2.2 1.8.4.3 1.2.9a10.3 10.3 0 003.4 1.7l1 .1h1q1.1-.6.4-.3a2.8 2.8 0 001-5l-.8-.5a9.5 9.5 0 00-1-.4l-.4-.1h-.1a12.1 12.1 0 01-1.7-1.2L185 100q-.4-.3 0 0l-.5-.4a14.2 14.2 0 01-1.5-1.5l-.3-.6c-.4-.7-.9-1.3-1.2-2l-.4-.8a32 32 0 01-.4-1 4.9 4.9 0 00-1-1.8 1.5 1.5 0 01-.2-.4 7.1 7.1 0 01.1.8 4 4 0 00-.5-1.6l-.1-.6zm.2.7c.1.3 0 .4 0 0zM190.4 117.6l-.8.7-.7 1-.8 1-.4.4a6 6 0 01-.3.4 3.7 3.7 0 00-1.5 1.3 2.8 2.8 0 000 3c1.6 2.5 4.5 1.4 6.1-.4.6-.6 1-1.3 1.5-2l.4-.4.4-.4a12.8 12.8 0 002-2.1l1.2-1.6.4-.5.4-.6c.5-.6.8-1.4 1.2-2a2.5 2.5 0 00.8-1.4 3.2 3.2 0 00.2-2 2.5 2.5 0 00-3.8-1.5 2.6 2.6 0 00-1.2 1 9 9 0 00-1 1.2l-.5.8-.3.4a28.4 28.4 0 01-3.3 3.7zM205 125a2.7 2.7 0 00-1.4-1.1 2.7 2.7 0 00-4.1 1.5 3.6 3.6 0 000 2 3 3 0 00.8 1.4 3.2 3.2 0 00.8.9c.2.2.2.2 0 0a5.7 5.7 0 001.2 1.4 31.8 31.8 0 002.6 2.3 23.9 23.9 0 005.7 2.8 25 25 0 005.3 1.5c2.4.3 5.8.5 7.6-1.5a3 3 0 00-2.1-5 5.4 5.4 0 00-1.7.2l-.8.1H217a28.5 28.5 0 01-5-1.5l-1.2-.4-.1-.1a18.8 18.8 0 01-2-1l-.4-.3-.2-.1-.1-.1-1.9-1.6-.4-.6a5.1 5.1 0 00-.7-.7zM170.5 121.3a14 14 0 00-4.6 1.5l-1.6.9-.9.4a3.7 3.7 0 00-1 .8 3 3 0 00-.5 3.5 3 3 0 004 1h.1l.4-.1 2.3-1a9.7 9.7 0 011.1-.5l.9-.3.5-.1c2.5-.1 5 .8 7.5.3 3-.6 2.9-5.2 0-5.9a34.8 34.8 0 00-4-.4 20.3 20.3 0 00-4.2-.1zM144.2 141.1h-.5l-1-.2a21.6 21.6 0 00-5.8-.4 3 3 0 000 5.8 25.7 25.7 0 014.5.5 26.3 26.3 0 004.3.5l7.2.4a3.2 3.2 0 002.7-4.8 28.1 28.1 0 01-1.4-3.5l-1.4-4.2a100 100 0 00-1.2-4.2 11.5 11.5 0 00-.6-2.1 3.2 3.2 0 00-6.3 0 10.5 10.5 0 00.2 1.6 4.7 4.7 0 00.4 1.1q.2.4 0-.1v.6l1.4 4.5a48.8 48.8 0 001.5 4.6h-4zM95.3 90.3a2.7 2.7 0 00-4.5 0l-.2.3a16.9 16.9 0 00-1.3 2.6L87.7 97a29.5 29.5 0 01-1.7 3.6 14.8 14.8 0 00-.8 1.4c0 .3-.2.5-.4.8a3.7 3.7 0 00-1.3 2.7c-.1 2.6 3.4 4 5.1 2a19.5 19.5 0 002.5-4c.8-1.3 1.3-2.7 2-4.1a25.2 25.2 0 001-2.5l.3-1.2.1-.2.3-.8.3-.7.1-.3a3 3 0 00-.2.3 3.1 3.1 0 00.3-3.7zM86.8 115.1h-.4zM84.3 121.5h.4a2.5 2.5 0 001.6-.5h.4l1-.2 1.1-.1a17 17 0 015.8.4 24.4 24.4 0 012.8 1l.6.2.3.2a12.7 12.7 0 011.7.9l.2.1c0 .2.1.3 0 0v.1a2.9 2.9 0 002.7 1.7 3 3 0 002.8-2.1c.7-2.8-1.5-4.6-3.7-5.7a30.8 30.8 0 00-5.8-2.2 21.9 21.9 0 00-8.8-.3 13.2 13.2 0 00-1.5.3 6.3 6.3 0 00-1 .2 6 6 0 00-1.8.9 2.5 2.5 0 00-1.5 2.4 2.8 2.8 0 002.7 2.7zm16 2.1h-.1v-.1l-.1-.3c0 .1 0 .3.2.4zM86.8 121zM80.4 156.3a40.8 40.8 0 0011.1-1.5c3.7-1 7.5-2.9 9.9-6a13 13 0 001.6-13.6 13.5 13.5 0 00-4.9-5.7 12.6 12.6 0 00-8.3-1.7l-4.2.6h-.7l-.6.2a16.6 16.6 0 01-2 0h-.7-.5a12.3 12.3 0 01-1.6-.5l-.5-.2a33.5 33.5 0 01-2.2-1.1c-4.6-2.8-8.8-7.6-14.7-6.2a3.6 3.6 0 00-.8.1 11.7 11.7 0 00-3.3 2 13.2 13.2 0 00-4 5.8c-2 5-.7 11 1.8 15.6 4.7 8.7 15.2 12.3 24.6 12.2zm16.1-11.4c0 .2-.2.3 0 0zm-33.2-18.7h.1-.1zm-4.2 6.6v-.6l.2-.6a12.5 12.5 0 01.4-1.5l.1-.3.4-.6c0-.2.2-.4.4-.6l.1-.2.1-.1a11 11 0 011-1l.5-.4.5-.4.3-.2H64a7.5 7.5 0 011.4.4l.5.2.8.5 1.8 1.1a72.2 72.2 0 006.1 4.2 17.1 17.1 0 007.6 2.2 22.4 22.4 0 004.2-.3l1.8-.3 1-.2H89.7a16.6 16.6 0 011.9-.2h.8c-.4 0 .4.2.5.2a8.4 8.4 0 01.9.2c-.5-.1.3.2.4.2l.6.4.3.2.1.1a9 9 0 011 1l.2.3.5.7c.2.2.2.5.3.7v.1l.1.1a11.2 11.2 0 01.5 1.8v.1c0 .1 0 0 0 0V141.8a10 10 0 01-.3 1.3v.2l-.3.5a9.8 9.8 0 01-.6 1v.1l-.4.4a11.8 11.8 0 01-.9.9l-.1.1-.5.4a16.7 16.7 0 01-2.2 1.3l-.6.2-1.5.6a29.5 29.5 0 01-5 1.1l-1 .1-1.1.1-2.8.1a32 32 0 01-4.7-.2h-.3l-1-.2a30 30 0 01-3.1-.8 28 28 0 01-2.3-.8l-.5-.2a23 23 0 01-2.7-1.5l-1-.7-.5-.4a18 18 0 01-1.8-1.8l-.4-.4-.3-.4a18.8 18.8 0 01-1-1.6l-.5-.9-.3-.7a17.4 17.4 0 01-1-3.4v-.2-.2l-.1-.9a16.4 16.4 0 010-2zM63 126.3zM356.3 32.8a36 36 0 00-3.3 11.8c-.4 4 .2 8.4 2.7 11.6a13.1 13.1 0 006 4.4 11.3 11.3 0 002.3.6v-6.4h-.1l-.7-.3-.5-.3a6.7 6.7 0 01-.6-.4h-.1a9.6 9.6 0 01-1-1l-.1-.1-.3-.4a10.2 10.2 0 01-.7-1.3l-.2-.6a13 13 0 01-.5-1.9v-1.6a21.7 21.7 0 010-2.7 12.8 12.8 0 01.2-.8l.3-1.6a33.7 33.7 0 011.7-5.2 33.6 33.6 0 01.5-1.4l.3-.7a33.4 33.4 0 011.7-3l.1-.3v-9.7a36.4 36.4 0 00-7.7 11.3zM119.1 128.2a12.2 12.2 0 01-1.3-2 12.4 12.4 0 00-1.8-2.3 3 3 0 10-4.2 4.2l.3.4.6 1a23.6 23.6 0 001.7 2.5l1.7 2 1.5 2a23.6 23.6 0 001.4 1.6l.1.2.7 1a8 8 0 00.7.7l1 1 .5.4a3.1 3.1 0 002.8 2 3.2 3.2 0 003.1-3.1c.2-1.7-1.3-3.2-2.4-4.2a30.6 30.6 0 01-3-3.4l-.3-.3-1.1-1.4-2-2.3zM102.7 160.2a3.4 3.4 0 01.4-.2c-.7.2-.7.2-.4.2zM98.2 177.6l.8.5h.1l.2.2a3.1 3.1 0 005.2-2.2v-.1l.2-.7.2-1.5v-.1-.3l.4-1.6v-.2l.2-.5.2-1 .2-2.1v-.2l.1-.3.2-1v-.1h.6c-1 0 .3.3.5.4l1.2.4 2.5 1a36 36 0 014.4 1.9 13.2 13.2 0 005 1.8 3.1 3.1 0 003-2.8l.2-.8a9.4 9.4 0 00.2-1.2 6 6 0 00.5-1.7 25.5 25.5 0 01.8-2.6l.7-2.3c-.1.6.1-.2.3-.7l.8.5 3.4 2.2.7.5.6.5 1 .9a3.1 3.1 0 004.4-4.5 40.5 40.5 0 00-6.4-4.7l-3.1-2-1.2-.7-.1-.2a3.2 3.2 0 00-5.2 1.5 24.8 24.8 0 00-.6 2.5l-.4 1.7q.4-.8-.1.5l-.4 1-.5 1.6a24 24 0 00-.9 3.3h-.2c-1.6-.8-3.3-1.4-5-2-1.5-.7-3-1.2-4.6-1.8a3.9 3.9 0 00-1.4-.3h.5a5 5 0 01-.5 0 16.2 16.2 0 00-2.3-.5 2.1 2.1 0 00-.4 0l-1.5.4a3.6 3.6 0 00-2 2.5 8 8 0 00-.2.9l-.1.3a17.2 17.2 0 00-.5 2.6l-.2 1.5v.8c-.2.4-.1.4 0 .1a6.4 6.4 0 00-.4 1 7.5 7.5 0 00-.2 1l-1.6-1.2-.5-.4-.6-.4a13.7 13.7 0 00-1.2-.9l-1-.6H94v-.1a.8.8 0 01-.2-.2 2.7 2.7 0 00-2.2-1.1h-.4a2.9 2.9 0 00-2.7 2.8 2.5 2.5 0 001 2.2 7.4 7.4 0 001.7 1.5l1.2.8.4.2.3.3c-.5-.5 1.3 1 .8.6l.7.6 1.9 1.5a14.2 14.2 0 001.7 1.1zm8.5-13.7v-.2a2 2 0 010 .3v-.1zM94 167.3z"/>
  <path d="M94 167.3l-.2-.2a2.7 2.7 0 01.2.2zM150.7 168.2l.5.4.8.6.7.7.5.6a24 24 0 001.7 1.8 21.7 21.7 0 011.2 1.4 3.1 3.1 0 004.2 1.1 3 3 0 001.1-4.2 22.4 22.4 0 00-1.7-2c-.6-.8-1.3-1.4-1.9-2a20.2 20.2 0 00-4-3.5l-.7-.6-.6-.4a16 16 0 01-1.6-1.6l-1.2-1.4a2.7 2.7 0 00-1.6-.9 2.6 2.6 0 00-2.8.6 4.5 4.5 0 00-.6.7 3 3 0 001 3.9 23.5 23.5 0 001.8 2.1 23.2 23.2 0 003.2 2.7zM161.3 157.5a20.2 20.2 0 007.5 10 2 2 0 00.7 1.5 12.7 12.7 0 003.6 1.8l3.6 1.6a16.4 16.4 0 008.9 1.3 10.8 10.8 0 006-4 23 23 0 002-3l1.6-3a32.3 32.3 0 004-15.3c0-5.1-1.5-10.9-6.7-13-2.4-1-5.1-.6-7.6-.1l-3.4.7a6 6 0 00-.6 0l-1 .1h-2.5c-2.6-.1-5.6-.3-8 .7a12.8 12.8 0 00-5.8 5 12.5 12.5 0 00-.8 1.3l-.3.7a8 8 0 00-.4.7 18 18 0 00-1.3 4.3 18.9 18.9 0 00.5 8.7zm5-6.7l.1-.6.2-.8a15.3 15.3 0 01.5-1.8l.2-.4.2-.5v-.2a12.1 12.1 0 011-1.6l.3-.4.3-.4a9.3 9.3 0 011-.9l.3-.2.6-.4h.2a8.5 8.5 0 011-.3l.4-.1h.6l2-.2 4.6.1c2.8 0 5.4-.8 8-1.3h2.1a6 6 0 01.8.2c-.6-.2.1.1.2.2l.2.1.1.1a5.6 5.6 0 01.6.6l.1.2.4.6.1.2.2.5a11.8 11.8 0 01.3 1.2l.2.6v.5a27.4 27.4 0 010 5.2V152l-.3 1.5a28.3 28.3 0 01-1 3 21.5 21.5 0 01-1 2.6l-1.3 2.8a33.3 33.3 0 01-2 3.4l-.2.4-.1.2a11.9 11.9 0 01-1 1l-.3.4h-.1l-.1.1a7 7 0 01-.9.5l-.4.2a5.8 5.8 0 00-.7.1c-2 .2-3.8-.5-5.8-1.2l-.2-.1a3.2 3.2 0 00-1-1L174 164c-.5-.2-1-.6-1.4-.9l-.6-.4-.2-.2-.3-.2a19.5 19.5 0 01-2.3-2.2l-.4-.4-.3-.5a15.4 15.4 0 01-1-1.7 6.8 6.8 0 01-.5-1.3 15.2 15.2 0 01-.5-1.8l-.1-.6v-.8a15.8 15.8 0 010-2.2zM227.6 147.6a15.9 15.9 0 00-2.8-1.2 22.9 22.9 0 00-6.3-1 21.8 21.8 0 00-5.5.3 8.5 8.5 0 00-1.4.5l-.4.3c.7-.4-.7.2-.9.3a15 15 0 00-2.6 1.7 3 3 0 00-1 4 3 3 0 004 1l2-1.2a3 3 0 00.4-.2 9.3 9.3 0 00.9-.3l.3-.2h.1l.5-.1h3.3a24.2 24.2 0 012.4.1l.6.2 1.3.4a11.8 11.8 0 011.2.3l.5.2h.1a9.6 9.6 0 001.4.7l.5.1a2.6 2.6 0 00.5.1 2.8 2.8 0 002.6-.7 2.7 2.7 0 00.4-3.3l-.5-.7q-.3-.4 0 0a4.3 4.3 0 00-1.6-1.3zM221.4 157.4a13.4 13.4 0 00-8 2.5 21.2 21.2 0 00-3 2.5 18.2 18.2 0 00-1.7 2q-.7 1-.4.4l-.4.4c-3.4 4.3-5 9.9-5.3 15.2l-.2 2.9a3.5 3.5 0 000 1.1v.1a24 24 0 001.3 7.6 3.3 3.3 0 00.2.4 14.8 14.8 0 002.5 7 9.4 9.4 0 007.5 3.9 10.6 10.6 0 007-3.2c2.1-2 3.1-4.8 4.6-7.2l1-1.8.4-.4.5-.5a28.1 28.1 0 013-2.7c-.5.4.2 0 .3 0l.6-.4 1.3-.8a26.3 26.3 0 003-2 12.6 12.6 0 004.2-5.6c1.9-5-.6-10.5-4.2-14a31.8 31.8 0 00-6.1-4.4 18.8 18.8 0 00-8.1-3zm9.4 11.5l1.1 1.1.5.6.3.4a12 12 0 01.8 1.4l.1.1v.1l.3.7.2.8V176a9.3 9.3 0 01-.3 1 6.1 6.1 0 01-.3.7l-.4.6h-.1a10.7 10.7 0 01-1 1l-.3.4h-.1l-1.3.9-2.5 1.5a25.9 25.9 0 00-9.9 12l-.3.5-.1.3-.1.1a12.3 12.3 0 01-1.2 1.3l-.4.3-.5.3-.4.2-.4.2h-.6a4 4 0 01-.5 0h-.4l-.5-.2-.4-.2-.5-.4a5.1 5.1 0 01-.4-.4l-.2-.2-.4-.8-.4-.7-.2-.4a19.8 19.8 0 01-.8-3.5l-.1-.8-.1-.5a15 15 0 00-.5-2.3q0-.3-.2-.5a38.6 38.6 0 01.1-6.2l.2-.9a44.2 44.2 0 011.6-6.3l.2-.5a17.5 17.5 0 011.8-3l.3-.5.6-.7a18.1 18.1 0 013.7-3.4 14.3 14.3 0 011.5-.8h.1l.3-.2.8-.2.8-.2h.8a10.7 10.7 0 011.2.3l.9.3.2.1.2.1 1.6.9 3.4 2 .7.5a24.2 24.2 0 011.5 1.2zM278.6 191.2l.9-.1 1.1-.2a7.3 7.3 0 002.5-1 3 3 0 00-2.3-5.4 24.5 24.5 0 01-4 .8l-4.8.9c-.7 0-1.3.2-2 .4V184v-.3l.2-.7.2-1a6 6 0 00-.6-4.8q-.8-1-.2-.4a3.7 3.7 0 00-.7-.7 4.4 4.4 0 00-1.7-1 7.8 7.8 0 00-2-.3l-2.8-1.2a18.9 18.9 0 00-4-1.3l.4-.8.5-1.2 1-2.1.6-1.4c.2-.4.6-2.4.3-.7 0-.6.3-1.2.5-1.8a7.3 7.3 0 00.2-3.1 2.8 2.8 0 00-1.8-2.2 20.9 20.9 0 00-5.5-3 39.3 39.3 0 00-4.2-1.5l-.9-.3-.6-.2-.8-.5a2.9 2.9 0 00-.8-.3 2.2 2.2 0 00-1.4-.4h-.3a2.8 2.8 0 00-2.8 2.8 2.6 2.6 0 001.2 2.2 3.7 3.7 0 001.5.8 15.2 15.2 0 003.4 1.6l1.5.4.9.3h.1l.2.2 2.9 1.3a13 13 0 011.2.6l.1.1-.3 1.5-.4.9-1 1.8-.8 1.8-.3.7q.1-.4 0 0a9 9 0 00-.6.7 5.6 5.6 0 00-.8 4 4.8 4.8 0 003.4 3.3 11.9 11.9 0 001.8.4 22.6 22.6 0 012.7.7h.2l.2.2a10.5 10.5 0 001.3.6l.8.3a11.3 11.3 0 001.7.7 3.3 3.3 0 00.8.1 9.5 9.5 0 00-.5 3l.1.8q0-.7 0 0v1.9l-.1.2-.6 1.6a3.8 3.8 0 00.4 2.8 4.2 4.2 0 003.7 2 8.4 8.4 0 002.8-.4 25.5 25.5 0 013-.7l5-.8zM295.6 173.6a15.3 15.3 0 002.2-10.5 28.3 28.3 0 00-1.2-5.4 20 20 0 00-2-4.7l-1.2-2.8a20.4 20.4 0 00-4.1-6.4 12.2 12.2 0 00-7.9-3.7c-3-.2-5.8 1.7-7.6 4a21 21 0 00-3 13.9 34.8 34.8 0 001.4 7.8 33.6 33.6 0 001.4 3.7 16.2 16.2 0 002.3 3.4c2.2 2.7 5.5 5.2 9 5.7a11 11 0 0010.7-5zm-11.7-1.5a12.2 12.2 0 01-1.4-.9h-.1l-.2-.2-.6-.6a16.7 16.7 0 01-1.4-1.4l-.3-.4-.4-.6a9.7 9.7 0 01-.8-1.4 14.7 14.7 0 00-.5-1.2l-.6-2a31 31 0 01-.8-3.5l-.1-.6-.1-.7-.1-2.1a25 25 0 01.1-3.3l.1-.5.2-.8.5-1.7.2-.7.2-.4a12 12 0 01.6-1.2l.3-.5c-.2.3.2-.2.3-.2l.4-.4.4-.3a3.7 3.7 0 00.4-.2 6 6 0 01.8-.2c-.6.1.3 0 .4 0h.4a7.1 7.1 0 01.8.3l.4.2a11 11 0 011.4 1l.4.2.6.7.6.6.1.1.1.2a20.9 20.9 0 011.8 3 25.9 25.9 0 011.3 2.7l.6 1.7.5 1.2c-.3-.6-.1-.3-.1-.1a2 2 0 00.5 1l.7 2.2a24.1 24.1 0 01.5 2.4v3.3a12 12 0 01-.4 1.6l-.2.7-.2.4a10.5 10.5 0 01-.8 1.3l-.3.3a9 9 0 01-.7.7l-.5.3-.7.4h-.2a7.5 7.5 0 01-.8.3h-.2a6.9 6.9 0 01-.8 0h-.2a6.6 6.6 0 01-1-.2l-.6-.2-.5-.3zM300 177.2c-.4.8-.5 1.7-.8 2.6v.3l-.4.8a9.6 9.6 0 00-.5 1.3l-.2 1.3-.5 1.1a6.3 6.3 0 00-.6 2.8 2.9 2.9 0 001.5 2.6c1.5.9 4 .1 4.4-1.8a15.6 15.6 0 00.2-1 11.8 11.8 0 01.4-1.2l.4-1.2a4.9 4.9 0 00.2-1v-.2a7 7 0 01.3-1l.2-.6.3-1a6.9 6.9 0 00.3-3.8 2.7 2.7 0 00-5.3 0zM341.3 173.5l-.8.2h-.4a8 8 0 00-1.4.4l-.6.2h-.1a1.9 1.9 0 00-.3 0h-.3a6.8 6.8 0 01-.8-.3c.4.1-.3-.2-.3-.2l-.7-.4-1.1-.8-.4-.3-.6-.5-1.5-1.2a13.4 13.4 0 00-7.1-3.5c-2.7-.3-5.2 1.1-7.1 2.8a16.8 16.8 0 00-4.1 6.9 18.5 18.5 0 00-1.1 8.3 20.2 20.2 0 006.9 13 25.1 25.1 0 0035.2-4 14 14 0 002.6-12.2 12.6 12.6 0 00-7.5-8.4 10.8 10.8 0 00-6.3-.4zm4.4 5.2h.4l.4.1.8.2.6.2h.2a8.3 8.3 0 011.1.8l.4.2a8.6 8.6 0 01.8.8l.2.4a10 10 0 01.7 1.2v.1h.1l.3 1 .2.7v.1a10.3 10.3 0 010 1.4v.8a10.8 10.8 0 01-.4 1.4l-.2.4-.2.4-.6 1-.4.6v.2a16.5 16.5 0 01-3 2.7 23.5 23.5 0 01-2.4 1.6 24.5 24.5 0 01-2.2 1l-.4.3-.6.2-1.5.5a20.7 20.7 0 01-2.5.5h-.7a21.6 21.6 0 01-4.2.1h-.4a21.5 21.5 0 01-3-.8l-1.5-.5h-.2l-.7-.4a19.3 19.3 0 01-2.8-1.7l-.2-.1a18.7 18.7 0 01-2.5-2.5l-.3-.4a14.3 14.3 0 01-1.3-2.1c0-.3-.2-.5-.3-.7v-.1l-.1-.2a17.2 17.2 0 01-.6-1.8l-.2-1v-.3-.5a14.5 14.5 0 01-.1-2v-.5l.2-.8a18.3 18.3 0 01.5-1.9l.3-1 .2-.5.1-.3a14.8 14.8 0 01.8-1.5l.4-.6.1-.2h.1a10 10 0 011.1-1.2l.2-.2a7.4 7.4 0 01.9-.5h.2a4.3 4.3 0 01.4-.1h.9l.6.1.3.2a13.7 13.7 0 011.5.9l.6.4h.1l.2.2 1.2 1a34.2 34.2 0 003.1 2.3 11.7 11.7 0 004 1.6h.2a6 6 0 004.5-.4c-.5.2.6 0 .6 0l1-.2 2.4-.5h.6zM333.6 133.6l-.9.4a2.4 2.4 0 00-.8.6l-.1.1a6.1 6.1 0 01-.7.4l-.3.1-.4.2-2.2.9a4 4 0 00-.5.2l-.3.2a6.6 6.6 0 00-3.5 2.3 2.7 2.7 0 004.4 3.2l.6-.3.3-.1 1-.4 1.2-.6.5-.2 1.4-.6a7.2 7.2 0 001.4-.8 16.8 16.8 0 011.8-1.2l1.7-1.1.3-.2a4.9 4.9 0 001.4-.9c2.2-1.8-.6-5.4-3-3.9.4-.2-.1 0-.3 0a4.8 4.8 0 00-1.2.7l-1.8 1zM309 230.3a3 3 0 004.3-4.3l-.6-.6-.3-.3a2.7 2.7 0 00-.1-.2l-.2-.2-.2-.6-.8-1.1-3-4a49.8 49.8 0 01-3.1-4.4 3.4 3.4 0 00-.5-.7 10 10 0 00-1.3-1.9 2.8 2.8 0 00-4.3 3.4 8.6 8.6 0 01.7 1.3 5.2 5.2 0 00.6 1c-.4-.6.3.6.3.7a24.6 24.6 0 001.4 2c.2.5.5.9.8 1.2l.7.9q-.3-.3 0 .1c1 1.2 1.8 2.4 2.7 3.7 0 0 .5.9.4.4a8.4 8.4 0 00.7 1.5 12.2 12.2 0 001.7 2.1zM294.6 197.7l-.5-.1-1.6-.2c.7 0-.4-.2-.6-.2l-1.1-.4a5.8 5.8 0 00-3.2 0 2.7 2.7 0 00-2 2.5 2.7 2.7 0 002 2.5 34.7 34.7 0 003.9 1.5h.7v.1l1.1.2a16.7 16.7 0 002.3.3h.6l1.7.3h2.5l.2.1a7.8 7.8 0 001.8.3h1.5q.2 0 0 0a3.2 3.2 0 003 0 3.2 3.2 0 001.5-3.6 2.3 2.3 0 00-.4-1 3 3 0 00-2.6-1.5h-.2a8.7 8.7 0 00-1.3-.2 7.9 7.9 0 00-1.2 0h-.7a15.7 15.7 0 00-2.8-.3h-1.3l-.6-.1h-.6c-.7-.2-1.4-.2-2-.2zM268.1 208a13.2 13.2 0 002.2-.4H271.5a6.1 6.1 0 001.6-.4h1.1a3 3 0 003-.7 3.3 3.3 0 001-2.4 3.1 3.1 0 00-3.1-3h-2.6a3 3 0 00-1.3.2h-.5a12.6 12.6 0 00-1.7.3l-.8.1h-.6a20.2 20.2 0 00-2.4.5c-.2 0-1.7.2-1.1 0l-1.4.4-2.3.7a5.7 5.7 0 00-1.4.4l-.2.2h-.1c-2.7.7-2.8 5 0 5.5a4.2 4.2 0 002.4 0l.5-.3h.4l1-.3 2-.5h.5l1.5-.3h.7.4zM251.9 189.6l-.1-.5-.1-.6a11.6 11.6 0 00-.4-2.2 3 3 0 00-3.6-2h-.3c-2 .4-2.5 2.7-1.7 4.2l.3 2.4.8 3.4c.6 2.6 1 5.2 1.3 7.7.3 1.7 2.3 2.5 3.8 2.1a3.1 3.1 0 002-3.7c-.3-2.4-.6-4.9-1.2-7.3l-.8-3.5zM236.2 205.8l.4-.4c.2 0 .4-.2.5-.3a13.5 13.5 0 003.3-2.1 3 3 0 00-4.2-4.3l-.2.2h-.2a8.5 8.5 0 01-.7.5l-1.8.9a15.1 15.1 0 00-3.4 3.3l-1.5 1.9a8.2 8.2 0 00-.9 2.8 20.6 20.6 0 00-.6 5.3 3 3 0 006 0 19.4 19.4 0 01.5-3.7l.2-1 .1-.4 1.2-1.3 1.3-1.4zM121.8 225.5a9.5 9.5 0 004.4-4.8l1.2-3a22.3 22.3 0 00.9-3.5 54.5 54.5 0 012-7.7 28.3 28.3 0 011.5-3.1l1.9-4.2a17 17 0 001.6-7.9c-.4-4.2-3.4-7.6-6.9-9.8a6.5 6.5 0 00-2.7-1.8 25.4 25.4 0 00-3.7-1.3 19.4 19.4 0 00-7-.5 17 17 0 00-12.6 7.6c-2.6 4-3.3 9.1-3 13.8A40.3 40.3 0 00103 214c2.1 4.6 5.7 9.1 10.4 11.2a10.1 10.1 0 008.4.3zm6.4-44.2h-.1q-.5-.4 0 0zm-17.2 35l-.4-.5-.5-.7-1-1.6a30 30 0 01-1.5-3.1l-.3-.6a34.6 34.6 0 01-.9-2.7 31 31 0 01-.8-3.5l-.2-1.4v-.5a42.9 42.9 0 01-.3-4 27 27 0 01.2-3.2v-.3l.1-.8.5-1.8.2-.7.2-.5.6-1.3a14.8 14.8 0 011-1.3v-.1l.1-.2.6-.6a11.8 11.8 0 011.3-1.2c-.5.4.2-.1.3-.1l.6-.5a13 13 0 011.3-.6l.4-.2 1-.3a14.8 14.8 0 011.6-.4h.2a15.5 15.5 0 012.4-.1h.7l.8.1a22.6 22.6 0 012.9.7l1 .3a2.2 2.2 0 00.4.4l2.7 2c-.3-.1.3.3.3.3l.6.5a13.6 13.6 0 011.2 1.3l.2.2.4.6.2.5.2.4.1.5v2.2a23.5 23.5 0 01-2.6 7 42.3 42.3 0 00-3 7.8c-.4 1.2-.6 2.5-.9 3.8a26 26 0 01-.8 3.7l-.5 1.3-.1.3-.2.5a12.9 12.9 0 01-.7 1.2l-.2.4c.1-.3-.3.3-.4.4l-.3.3-.3.2-.4.1-.5.2h-.3-.6a8.7 8.7 0 01-1.6-.5l-.5-.2-.7-.5-.8-.5-.5-.3a22.6 22.6 0 01-2.5-2.5zM141.1 190.9c0 .4-.2.7-.3 1.1a3 3 0 00-.2 1.1v.1c0 3.5 5 4 6 .8a20 20 0 00-.5-13.2 30.2 30.2 0 00-7.3-10.7 2.9 2.9 0 10-4 4l1.6 2 .5.6.8 1.2a29.3 29.3 0 012.6 4.6l.3.8a15.6 15.6 0 01.4 1.6l.3 1.2v1.2a17.4 17.4 0 010 2.7l-.2.9zM141.7 228.3c2.4-.8 5.5-1.6 6.2-4.5a6.7 6.7 0 00-.3-3.9l-1-3.2-1.9-7.4c-.6-3-5.1-2.3-5.1.7a29 29 0 001.2 6.9l.8 3.3a11.5 11.5 0 00.5 1.3l.1.5h-.2c-1 .4-1.9.6-2.8.8a23 23 0 00-5.6 2.5 3.5 3.5 0 00-2 2.9c-.3 2.2 2.7 3.6 4.4 2.5a20.1 20.1 0 015.7-2.4zM180.9 210h.5l.1-.1a3.1 3.1 0 100-6.2 12 12 0 00-5 1.5c.6-.3-.4.1-.5.1a23.7 23.7 0 01-3.3.8 5.8 5.8 0 00-.7 0c-1.6.2-3.3.2-5 .2h-.5l-1.8-.3a10.7 10.7 0 00-1.9 0 4.2 4.2 0 00-1.6-.1h-.4c-2.1.3-2.5 3.4-1.2 4.8a2.2 2.2 0 001.5 1 30 30 0 003.3.3l.8.1 1.6.2a31.6 31.6 0 005.2 0 23.7 23.7 0 006-1 22 22 0 002.2-1c-.3.2.5-.2.7-.2zM194.1 188a54.5 54.5 0 001.5-8.3c.2-1.7-1.6-3.2-3.1-3.2a3.2 3.2 0 00-3.2 3.2v.5l-.3 1.4-.5 2.4-.6 2.6v.1c-1-.7-2-1.3-2.7-2a21.3 21.3 0 00-4-2.6 33.2 33.2 0 01-4.1-2.7 3 3 0 00-4.2 1 9 9 0 00-1 2l-.1.9-.2.4v.2a28.5 28.5 0 00-1.9 4.1 46.9 46.9 0 01-1 3l-.3.7a28.4 28.4 0 01-3-3c-1.4-1.7-3-3.6-5.2-4.4a3.9 3.9 0 00-4.4 1.9 8 8 0 00-.8 2.1l-.3.9a1.1 1.1 0 000 .3c-1.2 2.6-2.6 5.2-2.9 8a2.8 2.8 0 002 2.7 2.8 2.8 0 003.5-2l.5-1.4.3-.7.2-.5v-.1l1.4-3 .4-.9 1.5 1.8a53 53 0 006.3 5.8 3 3 0 005.1-1.3l.4-1.6.2-1 .2-.4a1.6 1.6 0 000-.2 12.3 12.3 0 001-2.3l.6-2.1.1-.3v-.1l.4-.8.8-1.8.3-.5.5.3 1.7 1 2 1.3.4.3 1.2 1 1.8 1.2 3 2.3a3.2 3.2 0 003.1.8 3.1 3.1 0 002.3-3c0-.5.2-.9.3-1.3l.8-2.8zm-35.6 2c-.5-.1-.3-.1 0 0zm34.5 2c0 .7 0 .3 0 0zM197.5 214.4a34 34 0 004.7 2.3 28.3 28.3 0 004.9 1.2c2.3.5 4.6 1 6.8 0 1.8-1 1.8-4 0-5a7 7 0 00-2.8-.6 11.6 11.6 0 01-1.7-.2 63 63 0 01-4.2-1 15.3 15.3 0 01-1.5-.4l-.5-.2-.9-.4-1.5-.8-.8-.4a2.8 2.8 0 00-5.2.7c-.6 2.2 1 3.7 2.7 4.8zM228.6 233H229l.1.1.4.2a3 3 0 001.6.5h.4a3.1 3.1 0 003-3.1 3 3 0 00-2.6-3l-.9-.4a5.8 5.8 0 00-1.5-.4 52.2 52.2 0 00-5.4-1.2 19.9 19.9 0 01-3-.9h-.4l-.7-.4a8.5 8.5 0 00-2-.7 4 4 0 00-4.3 1.8 5.6 5.6 0 00-.6 1.6c0 .2-.1.2 0 0a5.8 5.8 0 00-.4 1.3l-.8 3c-.3 1.2-.5 2.3-1 3.3l-.5 1.4a3 3 0 00-.2.9l-.2.4h-.1l-3.3-1.5-1.3-.5-.6-.2-.6-.2a20 20 0 01-2.5-1.4 30.7 30.7 0 00-6-3.3 3 3 0 00-2.4.3 3.2 3.2 0 00-1.5 2.6c.1-.9 0-.1-.1 0a5.8 5.8 0 00-.2 1.3 17.7 17.7 0 000 2c0 1.4-.3 2.7-.4 4v2.1l-.3 1.7a33.2 33.2 0 00-.4 4.6 3 3 0 005.9 0 29.5 29.5 0 01.4-3.7l.4-4.6c0-.9.2-1.7.3-2.6l1.5 1a36.5 36.5 0 006.2 2.8q.5.1.1 0a9.2 9.2 0 001 .6 20.4 20.4 0 001.8.8l.6.2.3.1a6.2 6.2 0 001.7.6 4.3 4.3 0 004.4-1.8 4.5 4.5 0 00.7-2.4 9.4 9.4 0 00.5-1 4.5 4.5 0 00.2-1.4c0 .7.3-.3.3-.3a35.4 35.4 0 001.1-3.5l.9-3.3.5.2 1.8.6c1.2.4 2.5.6 3.7.9l1.9.4.9.2h.2l.5.2zM163.8 271.3a19.1 19.1 0 006.8 3.7c4.8 1.5 10.6.2 13.8-3.7 3-3.7 3.4-8.7 2-13.2a28.7 28.7 0 00-3.4-6.3 71.2 71.2 0 01-2.5-4.3l-.4-.8c.3.6-.1-.4-.1-.5a13.9 13.9 0 01-.5-1.6v-.6-.7-1-.1-.2l.5-2.2c.7-2.5 1.7-5 2.3-7.5 1-4 .8-8-2-11.1a10.3 10.3 0 00-5.2-3 15.8 15.8 0 00-14.4 5 24.7 24.7 0 00-3 4 19.5 19.5 0 00-1.2 2.5l-.2.4-.2.5-.5 1.2a2.3 2.3 0 00.2 2l-.4 1.9a46.8 46.8 0 00-.7 4.7 39 39 0 00.4 9.1c.2 1.4.6 2.7.7 4.1l.7 3.8a37.4 37.4 0 002.7 7.6 18 18 0 004.6 6.3zm-2.4-19.2l-.7-4a31.8 31.8 0 011-14 29.8 29.8 0 012.4-5.6l.7-1.2.7-.7.6-.5h.1v-.1a11.9 11.9 0 011.5-1l.4-.1.4-.2a11.3 11.3 0 011.5-.4s1-.1.2 0c.5 0 1-.2 1.4-.3h.4a7.8 7.8 0 011 0l.5.1.8.2h.2l.1.2a8 8 0 01.7.4l.4.2.4.5.2.3a6.4 6.4 0 01.3.5 6.8 6.8 0 01.2.8v.2a10.1 10.1 0 010 1.7l-.1.3-.2 1-.6 2c-.7 2.6-1.7 5-2.2 7.6a15.1 15.1 0 00.5 8.3 34.5 34.5 0 003.5 6.6 67.5 67.5 0 012.5 4.2l.2.4.2.7a14.2 14.2 0 01.4 1.4v.9a12 12 0 010 1.4v1a8.6 8.6 0 01-.3 1l-.2.4a9.3 9.3 0 01-.5.9l-.3.3a8 8 0 01-.5.5l-.2.2h-.1a8.4 8.4 0 01-1.1.7l-.5.2-.8.3-.8.2H175.4a10.7 10.7 0 01-1.9 0h-.2l-.8-.2a13.8 13.8 0 01-1.6-.5l-.3-.2-.7-.3a16.5 16.5 0 01-1.7-1l-.2-.2v-.1l-.7-.5-.6-.6s-.6-.6-.4-.3a23.4 23.4 0 01-2-3.4 18.2 18.2 0 01-1.2-3 37.5 37.5 0 01-1-3.7l-.7-3.5zM267.5 245a19.5 19.5 0 0013.6-7.5 17.6 17.6 0 003.9-8.8c.3-3.4-.8-6.7-2.2-9.8a2.8 2.8 0 00-2.3-1.4 10.5 10.5 0 00-4.2-2 14.4 14.4 0 00-8 .6l-3.3 1.3a25.8 25.8 0 01-2.6.8l-.8.2h-.8a4.8 4.8 0 00-.5 0 15 15 0 01-1.6-.4l-.4-.2-.4-.2a14 14 0 01-1.4-.9 46.7 46.7 0 00-5-3.5c-2.2-1.1-5-1.8-7.3-1a8.5 8.5 0 00-5 4.5 15 15 0 00.4 13.7c2.5 4.6 7.4 7.3 12 9.6 5 2.5 10.1 5.6 16 5zm-21.8-27zm2.2 13l-.4-.3-.7-.6a15.7 15.7 0 01-1.2-1.3l-.1-.1-.1-.2-.4-.6a11.4 11.4 0 01-.7-1.2l-.2-.4a11.1 11.1 0 01-.4-1.9v-.2a11.7 11.7 0 010-1.6v-.6c-.1.8 0 0 0-.1a13 13 0 01.3-1.3l.3-.6v-.2a9 9 0 01.6-1v-.2a6 6 0 01.5-.4h.1c.1-.2.2-.2.4-.3h1.1l.7.2.5.2a15.4 15.4 0 012.5 1.6c.2 0 .3.2.5.3l.3.3 1.6 1.2a13.8 13.8 0 002.6 1.6 12.8 12.8 0 008.3.8c2.4-.5 4.6-1.8 7-2.4a13.3 13.3 0 011.5-.4h2 .5l.8.3.3.1.2.2a8.3 8.3 0 01.8.4h.1l.2.3a1.6 1.6 0 01-.1-.2c.1.1 0 0 0 0-.1-.1 0-.1 0 0l.4.4.7 1v.1a2.6 2.6 0 00.4 1.4v.2a8.2 8.2 0 01.3 3.2l-.1.5a9.5 9.5 0 01-.3 1 15.5 15.5 0 01-1.4 2.6l-.6.7-.4.5a18 18 0 01-2.2 2.2l-.5.3-.7.5a16.6 16.6 0 01-1.7 1l-.5.2-.5.2a18.8 18.8 0 01-1.9.5l-1 .2c.6-.1-.4 0-.4 0a13.5 13.5 0 01-2.1 0 6 6 0 00-.6-.2c-.3 0-.7 0-1-.2a18.5 18.5 0 01-1.8-.6c-1-.3-2.2-1-3.4-1.5l-7.2-3.7a31.3 31.3 0 01-3-1.9zM302.9 242.8a31.2 31.2 0 00-2.1-6.9l-1.1-3.3-1.3-3.1v-.2a2 2 0 00-.1-.5c-.1-.2-.1-.4 0 0l-.1-.3a2.7 2.7 0 00-2.6-2 2.7 2.7 0 00-2.7 2.7 4.4 4.4 0 000 1.2c.1.1.1.7.1.1a6.7 6.7 0 00.6 2.2 28.3 28.3 0 011.2 3.6 27.3 27.3 0 001.2 3.5l.3.8-.7.3-4 1.4c-1 .3-2 .8-3.2 1a6.4 6.4 0 00-3.8 2.4 5.4 5.4 0 00-.5 4.6l.6 1.8.4 2 .4 1.5.3.7q-.1-.4 0 .1l.3 1.1a11.7 11.7 0 00.8 2.4l.3.6.2.3a1 1 0 01-.1-.5 4.1 4.1 0 000 .5l.2.2a1.1 1.1 0 01-.1-.2 3 3 0 003 2.5 3 3 0 003-3 6.9 6.9 0 00-.7-2.4l-.3-.7-.2-.4-.4-1.4-.2-.8-.3-1-.8-3-.5-1.5h.4c1-.3 2.1-.8 3.2-1a14.9 14.9 0 001.7-.6l1.3-.6.4-.2 1.6-.6.9-.2.4-.1c1.5-.2 3.2-1.2 3-3zM287.4 260.8zM337 232c-2.5.2-5.2 1.3-7.5 2.2l-4 1.5a13.1 13.1 0 00-2.2.8l-.6.4a1.5 1.5 0 00-.2.1h-.1a2.9 2.9 0 00.7 5.7 4.8 4.8 0 002.3-.6l.7-.3.1-.1h.3l4-1.3 3.8-1.3 1.4-.5.8-.2.4-.1h.1a3.1 3.1 0 100-6.2zM359.4 226.6a14.4 14.4 0 00-6.7 3.3 18 18 0 00-4.2 6.8c-1 2.5-1.4 4.1-3 6.3v.2l-.2.2-.7.7-1.4 1.4-2.8 2.7a11 11 0 00-3.8 7c-.3 2.7 1.2 5.1 2.8 7a24 24 0 0013 7.6 17.3 17.3 0 0011.6-1.7v-7.3a14.1 14.1 0 01-2.1 1.6 16.6 16.6 0 01-1.6.8l-.3.1-.9.3a17.3 17.3 0 01-1.7.5h-.6l-1 .1a14.8 14.8 0 01-6.6-1.8 20.6 20.6 0 01-3-1.8l-.2-.1a43.3 43.3 0 01-2.8-2.8l-.4-.7a3.3 3.3 0 01-.4-1.5v-.1l.2-.6v-.1l.1-.2a5.1 5.1 0 01.4-.6l.1-.1.6-.6 1-1.1c1.7-1.6 3.4-3 4.9-4.8a21.8 21.8 0 003.5-6.6l.6-1.3.2-.6v-.2l.1-.2 1.6-2.8.3-.5.1-.2a8.4 8.4 0 011-1l.8-.5.7-.4H359a15.7 15.7 0 012.5-.7l.6-.1h.3a6.7 6.7 0 01.7-.1h.4l.6.6v-6.4a16.6 16.6 0 00-4.6.3zM328.2 252.9l-.2-.1a2.7 2.7 0 00-2.7 0 2.9 2.9 0 00-1.3 2.3 17.7 17.7 0 000 3.7c0 1.5.1 2.3.3 3.8a41 41 0 00.8 4.2 9.3 9.3 0 00.6 2.1c-.3-.7 0 .1 0 .2.2.3.2 1 .1 0a3.1 3.1 0 003 3c1.6 0 3.3-1.4 3.1-3a7.1 7.1 0 00-.4-1.8l-.5-1.2c.3.6 0-.3 0-.4l-.8-3.5-.1-.6-.2-1.4v-.2a2.4 2.4 0 000-.3l-.2-.9-.1-1.4v-.4l-.2-1.5a2.7 2.7 0 00-1.2-2.6zM318.8 247.4c-.7-1.7-3.4-2-4.5-.6a1 1 0 01-.2.1h-.1c-1.8.9-3.3 2.2-5 3.2q-.3 0-.5.2l-.7.6a11.8 11.8 0 00-1.7 1.2l-1 1-.5.4c-2.8 1-2 5.8 1 5.6a6.8 6.8 0 004.3-2.4c0-.1.7-.5.2-.2a7.3 7.3 0 001-.6l.8-.6q-.3.2.1 0l1-.6 3.4-2.2a3 3 0 001-.5l.8-.6a3.4 3.4 0 00.6-4z"/>
  <path d="M314.2 246.8l-.1.1h.1zM313.5 280a11.3 11.3 0 001.5-4 13.3 13.3 0 000-5.6 9 9 0 00-2-3.6 3 3 0 00-1.2-1.3l-.7-.4a10.7 10.7 0 00-5.2-2 2 2 0 00-.6.1 14.6 14.6 0 00-2.2.2c-2.3.3-4.4 1-6 2.9l-4 4.9a23 23 0 01-2.1 2.1l-.4.3-.4.3a12.6 12.6 0 01-1.6.9h-.2l-.7.3a14 14 0 01-1.6.3h-.4l-1 .2h-2a22 22 0 00-8.3 1.7c-4.7 2.1-8.1 7-9.2 11.8a13.4 13.4 0 003.2 12.2 16.3 16.3 0 009.7 5.1 13.8 13.8 0 0011.4-3.2 25.4 25.4 0 004.5-5.9l1.8-3 1-1.4.4-.7q.3-.4 0 0l.4-.5a17.5 17.5 0 011.6-1.6l.4-.3q-.4.2 0 0l1.2-.8a44.4 44.4 0 014.4-2.3c3.3-1.6 6.3-3.4 8.3-6.6zm-4.1-7.4a12.5 12.5 0 01-.1 1.4v.4l-.1.4a10 10 0 01-.4 1.4l-.4.7-.3.6-.2.1a9.6 9.6 0 01-2.4 2.2c-2 1.1-4.1 2-6.1 3a20.3 20.3 0 00-5.8 4.4 37.1 37.1 0 00-4.3 6.3l-1.8 3-.5.7c.3-.5-.3.3-.3.3a19.9 19.9 0 01-1.8 1.8 9.3 9.3 0 01-1 .6 5.8 5.8 0 01-.6.3 10.1 10.1 0 01-1.3.4h-.5a11.7 11.7 0 01-1.2 0h-.9-.3a10.6 10.6 0 01-2-.5l-.5-.2a13.4 13.4 0 01-2.3-1.3l-.5-.4-.8-.9-.4-.4a11.3 11.3 0 01-.8-1.2c0-.2-.2-.4-.3-.5v-.1a10.6 10.6 0 01-.3-1l-.2-1a10 10 0 010-1.3v-.5l.1-.5a13.9 13.9 0 01.4-1.6l.3-.7.2-.4a15 15 0 011-1.7c0-.2.2-.3.3-.5l.3-.4a14.1 14.1 0 011.1-1.2l.5-.4.4-.3a14.3 14.3 0 011.7-1l.6-.2.8-.3c.3 0 .6 0 .9-.2h.4c1.3-.2 2.6-.2 3.9-.2a20.6 20.6 0 007.8-1.7c3.7-1.7 6.4-5.1 8.8-8.3a18.2 18.2 0 011.6-1.8l.3-.2a8.3 8.3 0 011.3-.4l1.3-.2a2.6 2.6 0 00.3 0h.2l.2.1a7.8 7.8 0 012.4 1l.6.5.1.2a6.7 6.7 0 00.4.7l.2.6a2.1 2.1 0 000 .4zM262.8 271.5a2.4 2.4 0 01.2-.1h.1l2.4-1 3.6-1.9 4.2-2a28.1 28.1 0 003.7-1.7 2.8 2.8 0 00-2.2-5.1l-.6.2-.4.2a2.5 2.5 0 00-.8.2 64 64 0 00-7.2 3l-2 1q-.5.3 0 .1l-1 .4a6.3 6.3 0 00-.6.3 17.7 17.7 0 00-2.6 1.1 2.9 2.9 0 00-1.6 1.3c-.8 1.4-.4 3.6 1.1 4.3h.1a3.2 3.2 0 004.3-1 6 6 0 01-.7.7z"/>
  <path d="M262.8 271.5c-.2.1-.2.2 0 0zM237.4 254.2c.5 2.5 1.3 5 2 7.5a3.3 3.3 0 106.3-1.7 109 109 0 01-3-12.4v-.2-.3l-.1-1c-.2-1.8-1.3-3.3-3.3-3.3-1.6 0-3.5 1.5-3.3 3.3a98 98 0 001.4 8.1zM222.2 245.8a9.3 9.3 0 00-1.9 1.6l-1.3 1.5a39.9 39.9 0 01-3.2 3.2 33.2 33.2 0 00-3 3.2 15.4 15.4 0 00-3.1 4.5 3 3 0 001.4 3.3 3 3 0 004-1 2.6 2.6 0 00.4-.8l.1-.2.5-.7.1-.1a3.4 3.4 0 00.3-.3l.8-1a32.3 32.3 0 013-3.2 30 30 0 002.8-2.8l2.6-3.7c1.4-2-1.4-5-3.5-3.5zM253.3 292.8a3.3 3.3 0 004.4 1.2 3.3 3.3 0 001.2-4.5 66.2 66.2 0 01-3-7c-.9-2.6-1.9-6.3-5-7a7.2 7.2 0 00-4 .6c-1.5.5-3 .8-4.4 1.4l-4 1.7-.6.2a23 23 0 00-.8-3.2 20 20 0 01-.4-1.7v-.4l-.1-1a15.2 15.2 0 00-.5-4.3c-1.2-3-4-3.7-6.8-3l-2.3.6-4.1 1-5.2 1.2a3.3 3.3 0 00-2.3 4 3.3 3.3 0 004 2.3l8.7-2 1.9-.5a27 27 0 00.6 4.8l.8 3v.2a5 5 0 010 .7 7 7 0 00.2 2.1 4.7 4.7 0 003.2 3.3c1.6.5 3.4-.2 4.8-.7l4.2-1.8.1-.1a20.2 20.2 0 001.3-.5l2.4-.7 1.3-.4.1.1.4 1a93 93 0 003.9 9.4zM229.9 271c-.2-.2 0-.1 0 0zM335.7 279.3a7.5 7.5 0 01-.8.4h-.1l-.1.1-.8.3-3.3 1.1q.5-.2-.1 0l-1 .4-1.8.5-3.5.9a3.3 3.3 0 101.7 6.3l3.8-1a31.5 31.5 0 003.8-1.3l2.9-.9a13.2 13.2 0 004-2.3c1.3-1 1.1-3.4 0-4.6a3.3 3.3 0 00-4.5-.1l-.2.2zM329.4 307.8a3.3 3.3 0 100-6.5h-.7l-.6-.1a17.3 17.3 0 01-1.7-.4l-3.8-1-1.9-.7-.9-.3h-.2l-.2-.2-3.8-1.7a3.3 3.3 0 00-4.5 1.2c-.8 1.4-.5 3.7 1.2 4.5a66.7 66.7 0 008.5 3.4l3.8 1a16.5 16.5 0 004.8.8zM342.8 292.4zM357.7 276.3c.6-.3-.2 0-.3 0l-.8.4a13 13 0 01-1.5.4h-.5a4.7 4.7 0 01-.8 0c-1.4-.2-2.5 1-3 2.2-.5 1.5.2 3 .7 4.3l.6 1.3.1.4.4 1.2a37.3 37.3 0 001.7 4 3 3 0 00.2.5 14.6 14.6 0 00-1 .2l-1.9.2h-.5l-1.2.2-4.5.2a6.5 6.5 0 00-2.9.8c.2 0 .3-.2.3-.2a2.8 2.8 0 01-.3.2 6.4 6.4 0 00-1.3.6 3.1 3.1 0 00-.6 4.8l.1.2h.1l.6 1a19.1 19.1 0 001.5 2c-.4-.4.3.5.3.5l.8 1.1 1.3 2.1 1.7 2.2.3.4.2.2a22.5 22.5 0 011.6 2.4l.3.5a7.4 7.4 0 00.6 1.3 3.1 3.1 0 005.4-3.1l-.2-.3-.5-1.1a4.1 4.1 0 00-.5-.9l-.3-.4-.3-.5-1.6-2.2-.8-1-.5-.6-2.5-3.8 2.3-.2h1l1-.2a17.3 17.3 0 002.6-.4c1.3-.3 2.6-.3 3.8-.7a3.3 3.3 0 002.3-3c.3-2.7-1.3-5.6-2.5-7.9v-.1l-.1-.3-.3-1-.6-1.5 1.5-.6 1.2-.5.7-.3a23.4 23.4 0 012.9-.9v-6.1a26.8 26.8 0 00-4.6 1.3l-1.7.7zM344 298.6c-.3.2-.2.1 0 0zm5 11.5l.1.2v-.2zM129.8 291.9a30.4 30.4 0 00-8-6 12.9 12.9 0 00-5.6-1.7h-.6a1.8 1.8 0 00-.8 0h-.8l-.7.1q-.5.1 0 0a9.8 9.8 0 00-2.2.5 6.8 6.8 0 00-3.7 3c-1.5 2.5-1.4 5.6-.8 8.3.5 2.4 1.6 4.7 2.3 7a21 21 0 01.5 2.4V306l-.2.4-.2.3-.3.6a14.2 14.2 0 01-1.9 1.7l-.2.1-.6.5-1.3 1a15.3 15.3 0 00-5.1 5.7 9.4 9.4 0 00.4 8.7 16 16 0 006 5.6 19 19 0 007.7 2.5 15.6 15.6 0 008.1-1.7 32.3 32.3 0 006.7-4.4 30 30 0 005.3-5.4 20.6 20.6 0 003.6-15.9 28 28 0 00-7.6-13.9zm-20.4 14v-.1zm22.2 4.3v1l-.1.5a29 29 0 01-.5 2.1 13 13 0 01-.5 1.5l-.2.4-.4.8-.9 1.4-.5.7-.4.5a24.3 24.3 0 01-2.4 2.4l-1.3 1-.7.6-.3.2-.2.2a30 30 0 01-3 2l-1.6.8a4.8 4.8 0 00-.5.2l-1.2.4-.9.2h-.4a11.6 11.6 0 01-1.6 0h-.6l-.6-.2a15.1 15.1 0 01-2-.5l-.4-.2-.7-.3a16.8 16.8 0 01-1.5-1l-.7-.4-.3-.3a15.5 15.5 0 01-1.3-1.3l-.3-.4a8 8 0 01-.5-.7l-.2-.5a11.2 11.2 0 01-.2-.7v-.2a6.6 6.6 0 010-.9c0 .5.1.1.2-.1l.3-.7.4-.7.3-.2a13.6 13.6 0 011.1-1.2l.6-.5.3-.3 1.2-.9a19.3 19.3 0 005-4.8c1.6-2.4 1.4-5 .8-7.7-.6-2.4-1.7-4.6-2.4-7a19.2 19.2 0 01-.4-1.9v-.1-1a7.7 7.7 0 010-.8v-.3l.2-.4a2.3 2.3 0 00.5 0 12.8 12.8 0 011.5-.5h.4a6.5 6.5 0 01.7 0h1.1.4a8.4 8.4 0 01.8.4h.2l.5.3a22.5 22.5 0 013.2 1.8l.6.4.4.4 1.5 1.3a23 23 0 017.2 11.8 11.3 11.3 0 01.3 3.4zM141.1 294l.5.7a6 6 0 001.1 1 4.1 4.1 0 003.5.7c2.3-.5 3-4.3.7-5.3l-.7-.3-.6-.7-.7-.8a37.9 37.9 0 00-3-2.8c-1-1-2.3-1.7-3.5-2.6a5.7 5.7 0 00-.9-.4h-.2a3.1 3.1 0 00-2.5-1.6 3 3 0 00-3 3 4.6 4.6 0 002.9 3.8 7.2 7.2 0 011.2.7l1 .7.6.5a31.8 31.8 0 013.4 3.3l.2.2zm5.1-3.2zm0 0zm0 0a1.5 1.5 0 00-.2-.2l.1.1zM156 278.3h1.1a3 3 0 000-6 13 13 0 00-3.3.3h-7.2c-1.2.1-2.3.2-3.4.1a6.5 6.5 0 00-.8-.2 2.6 2.6 0 00-1.6-.5 2.8 2.8 0 00-2.8 2.8 3.6 3.6 0 002.8 3.3c.3 0 1 .3 0-.1 2 1 4.4.6 6.4.5h5.4a18 18 0 002.8-.2h.7zm-13.8-5.8c-.6-.1-.3-.2 0 0zM144.3 258a20.5 20.5 0 002.8 3.6 3 3 0 004.3-4.3l-.5-.5-.2-.2-.2-.3-1.4-2v-.3a8 8 0 00-.4-.7l-.1-.3-.3-.6-.7-2.4-.4-1-.1-.6V248l-.1-2.5.1-.4a6.4 6.4 0 00.1-1.8v-.6c0 1 .2-1.1.1-.7a5.3 5.3 0 00-.1-1.6 2.7 2.7 0 00-3.3-1.9 2.4 2.4 0 00-2 2.3v.1a2.8 2.8 0 00-.4 1.5v1.3a4.9 4.9 0 00-.4 1.7v2.6c0 1.8.8 3.4 1.2 5a17 17 0 001 2.7q0 .3.2.5l.2.5a9.5 9.5 0 00.6 1.2zM135.9 245a3 3 0 00-1.5-2.6l-1.6-.8a4.2 4.2 0 00-1.9-.5h-.4l-1.4-.2c.5 0-.5-.2-.5-.2l-2.1-.6-4-1.3-1.7-.6c-.6-.3-1.3-.4-2-.6-3-.9-4.9 3.6-2.1 5.2a9.4 9.4 0 001.7.7l.8.3.9.4c1.2.4 2.4 1 3.5 1.3l3.4 1 1 .3.8.1h.2l1.4.2.4.3a3 3 0 004.1 0 3.3 3.3 0 001-2.4zM104.8 249.4a3.1 3.1 0 002.6 1.5 3 3 0 002.8-2.2 9.7 9.7 0 00.1-3.9l-.1-.8V240.6a49.5 49.5 0 00-.2-5.4c0-1-.3-2-.5-3a1 1 0 000-.3l-.1-1a4.6 4.6 0 00-.2-.7 3 3 0 00-1.4-2.3 4 4 0 00-.3-.3c-1.4-.9-3.8 0-4 1.7a3.7 3.7 0 00.1 2 2.5 2.5 0 00.1.5v-.2.3l.3 2.6a47.7 47.7 0 01.2 5.7 38 38 0 00.2 5.7 4.6 4.6 0 010 .5 3.5 3.5 0 010 .5 3.4 3.4 0 00.4 2.5zM130.5 266.7l1-.7a11.2 11.2 0 001.9-2.2 3.1 3.1 0 00-1.2-4.3 3.2 3.2 0 00-4.2 1.1l-.1.2-.2.2a7.7 7.7 0 01-.6.6c.3-.4-1.4 1-.8.6l-.8.6-2.8 2.7c-.8.8-1.8 1.5-2.6 2.4a17.9 17.9 0 00-2.3-2.8l-1-1.2-1.2-1.6-1.4-2a94.9 94.9 0 00-1-1v-.3a3.2 3.2 0 00-2.7-1.5 3 3 0 00-3 2.2l-.2.8c0-.3-.3.5-.4.6-.4.7-1 1.3-1.3 2l-2.3 3.8-.5.8-.5.7-1.4 1.7-.9 1.2-.6-.4-1.5-1.2-1.8-1.6a32 32 0 00-3.6-2.5l-.8-.5c.4.2-.3-.4-.4-.5l-.6-.5q-.3-.4 0 0a3.3 3.3 0 01-.2-.6 2.7 2.7 0 00-3.1-1.2 2.8 2.8 0 00-2 3.4 8.2 8.2 0 002.6 3.7 21.5 21.5 0 002 1.5l1 .6.5.4 3.7 3.3 2.3 1.7.4.3.2.2 1 .9a3 3 0 005-1.4l.3-.7.3-.7.7-1q.4-.5 0-.3l.5-.4a22.2 22.2 0 002.9-4l1-1.7 1.1-2c1 1.3 1.8 2.5 2.8 3.6l.6.7.3.5.1.1.2.3.2.6c.7 1.6 1.7 3.3 3.5 3.6 2.2.5 3.8-.8 5-2.5.2 0 .7-.6.2-.1l.9-.9 1.6-1.5 3.3-3a25.5 25.5 0 011-.8zM89.9 243.1a31.8 31.8 0 002.8-1.5h.1l.2-.1a3 3 0 00-.3-6.1 9.7 9.7 0 00-4.2 1.5l-1.7 1c-.3 0-.5.2-.8.3l-.8.4-3.8 1.3-.9.3-1 .4q.5-.2 0 0h-.2v-.2-.1q0-.6-.2-1.1c0-.7-.3-1.4-.5-2a40 40 0 01-.7-4.3 43.7 43.7 0 00-1-4.7 2.5 2.5 0 00-4.9 0 9.3 9.3 0 00-.2 2.7l.2 1.5v.7l.1.3a29.5 29.5 0 00.9 5.3 34.1 34.1 0 01.8 4.2l.1.8.4 1q.2.5 0 0a4 4 0 002.7 2.5 6.3 6.3 0 004.2-.8l.3-.1 1.3-.5 2.3-.7a33.1 33.1 0 004.8-2zm-9.9-.3c.1.2 0 .1 0 0zm1.4 3.5h.1zM85 212.4l.9 2.8a14.6 14.6 0 001.3 2.8l1.5 2.1a20.5 20.5 0 002 2.9 3.2 3.2 0 005.5-2.3 3.6 3.6 0 00-1-2.4 2.3 2.3 0 00-.3-.3l-.8-1-1.5-2.1-.4-.7a5.2 5.2 0 00-.3-.8l-.1-.2-1-2.8-.4-1.1-.4-1.2a7.8 7.8 0 01-.5-2.3l-.1-2.6v-.2-.9a5 5 0 000-1.8 2.7 2.7 0 00-2.7-2 2.8 2.8 0 00-2.6 2 15.5 15.5 0 00-.5 5.9 25.6 25.6 0 001.3 6.2zM244.2 58.7h-.2a2.4 2.4 0 00-2.5.8 7.2 7.2 0 00-1.8 3.7 14.6 14.6 0 01-.8 2.2l-.6 2a33.9 33.9 0 00-1.5 4.7 14.6 14.6 0 00-.2 1.5l-.2.8c-1.3 1.5-.2 3.8 1.5 4.4 1.7.6 3.5.2 5.2-.1h.5l1.7-.3 1-.2.6-.1h.3a42.5 42.5 0 005-.8l1.2-.3.4-.1a2.9 2.9 0 001.2-5.6c-1.1-.5-2.6 0-3.7.3a18 18 0 01-3.5.7 19.7 19.7 0 00-2.7.3l-1 .2-.6.2h-.2l-1 .1a21.8 21.8 0 01.8-2.6l1.6-4.6.5-2 .2-.7a4.8 4.8 0 01.4-.6c1-1.4 0-3.4-1.6-3.9zM53 168.3c0-1.3.3-3 .5-4.6a12.5 12.5 0 010-1.6l.5-2.2a17.1 17.1 0 000-5.4c-.4-2.7-5-2.7-5.3 0l-.3 2.4v1.1l-.1.6-.6 2.2a19.2 19.2 0 00-.3 2.9c0 1.2-.5 2.8-.5 4.3a2.6 2.6 0 00-.1.6q-.2 1.4 0 .4c-.2.8-.4 1.5-.4 2.3a3 3 0 003 3 3.4 3.4 0 002.3-1 3 3 0 00.8-2.5l.2-.8a4.4 4.4 0 00.3-1.7zM73.2 168.4l1.2.3.8.3.4.2a3.2 3.2 0 001 .5h.2a10 10 0 002.3.8 3.2 3.2 0 00.8.1 3.2 3.2 0 000-6.3c.6 0 0 0-.2-.1h-.1l-1-.5-.5-.3a14.2 14.2 0 00-1.5-.6l-4.6-1.4a39.6 39.6 0 00-4.5-1.2 18.3 18.3 0 01-2.1-.5 5.2 5.2 0 00-3-.2c-2.7.6-2.6 5 0 5.5l.7.2h.1l.9.4a13.8 13.8 0 002.3.7 36.4 36.4 0 014.6 1.3l2.2.8zM68.6 174.4c-1.8-.7-3.3 1-3.4 2.6l-.4 4.6a13.4 13.4 0 01-.4 2l-.6 2.7-1 4.7-.3 1q.4-.6-.2.6a3 3 0 00-.2 1 3.3 3.3 0 001.6 3.1 2.8 2.8 0 003 0 4.2 4.2 0 001.5-2.3c-.3 1 .3-.5.3-.8l.3-1.3a24.8 24.8 0 00.6-2.8v-.2l.1-.7.3-1.4.5-2.4a15.6 15.6 0 00.3-2.9v-3.7a3.3 3.3 0 00.2-.6 3 3 0 00-2.2-3.2zm-3 3.5v-.3a4 4 0 000 .4zM94.8 187.8v.1q-.2-1.1 0 0z"/>
  <path d="M90.6 191.7a8 8 0 002.6-.8 3.3 3.3 0 001.2-1.1 3.1 3.1 0 00.4-1.6v-.4a3 3 0 00-2.9-2.7h.6a3.1 3.1 0 00-2.1.2c-2.5.8-5 .9-7.5 1.6a37.7 37.7 0 00-4.2 1.5l-1.3.6-.2.1-.5.2-.7.3c-2.3 1.1-1.5 4.5.7 5.2a4.2 4.2 0 002.5-.2l1.2-.5.5-.2a42.3 42.3 0 014.7-1.4c1.6-.4 3.3-.5 5-.8zM56.7 210h-.4a2.6 2.6 0 00-2 .2 2.7 2.7 0 00-1.3 3 3.6 3.6 0 002.3 2.4 8.7 8.7 0 002.3.1c1.5.1 2.9-.2 4.4-.2 3.2.1 6.5.5 9.7.4a3 3 0 100-6.2 309.6 309.6 0 00-10.4-.2l-1.3.2h-.5a18.4 18.4 0 01-1.9.1 7.9 7.9 0 00-.9.1zM196.5 57l.8 1.4.1.2.3 1c.6 2 1 4.2 1.8 6.3a3.2 3.2 0 005.8.7l.2-.3a2.9 2.9 0 00-.3-3.3c-.6-2-1.1-4.1-1.8-6.1a14 14 0 00-1.2-2.6 37.7 37.7 0 005.4-.6l.8-.1h2.6a6.3 6.3 0 004.6-1.7c1.5-1.4 1.5-3.3 1.3-5.1a13 13 0 00-.4-1.7l-.1-.5v-1.1a23.5 23.5 0 00-.3-2.7v-.2l-.1-.5-.2-1a6.7 6.7 0 00-2-4 3 3 0 00-3.4-.4 2.9 2.9 0 00-1 4 3.6 3.6 0 01.3.6l.2.8v.5l.2 1.3q.3 1.3 0 .6v.7l.1 1.6a16.7 16.7 0 00.4 2.4h-.3a15.8 15.8 0 00-2.6.1l-2 .3-.7.1h-.4c-2.1.3-4.2.3-6.3.3a3.5 3.5 0 00-3.6 2.8 6.5 6.5 0 00.4 3.5 14.5 14.5 0 001.4 2.7zM191.4 90.2a2.9 2.9 0 00-.3 2 7 7 0 00.2 2.2 2.8 2.8 0 001.4 1.7l.2.2a8.6 8.6 0 003.5 2.4 13.4 13.4 0 003.9.8l4.4.2h2l.6.1.6.1a15 15 0 011.6.4l.7.3c-.6-.2.4.2.5.3l.4.3.4.3c-.3-.3.1.3.2.4v.3a8 8 0 01.3.8v.5a14 14 0 010 1.8v1.6a14.3 14.3 0 01-.3 1.5l-.7 4.4a14 14 0 00-.2 3.8 8.3 8.3 0 001.7 4.3c1.9 2.4 5.5 2.6 8.2 2.3a24.4 24.4 0 008.5-2.6c8-4.2 11.5-13 11.3-21.5a27.4 27.4 0 00-3-12.3 28.5 28.5 0 00-10.7-10.7 23 23 0 00-5.3-2.5 20.3 20.3 0 00-6.5-.7 31.5 31.5 0 00-12 2.5 23.2 23.2 0 00-8 6.7 20.3 20.3 0 00-1.8 2.4 13 13 0 00-1.2 3.2l-.6 2.5zm6.2 0l.5-1.7.3-.8c-.2.5.3-.5.4-.6l.5-.7.2-.2 1-1.3a23.4 23.4 0 012.6-2.4l.1-.1.2-.1.6-.5a17 17 0 012.1-1.2l.5-.2a16.8 16.8 0 011.6-.5 29.2 29.2 0 017.5-1 13.1 13.1 0 016.7 1.5c1 .5 2 1 3 1.7a18.7 18.7 0 012.6 2 17.9 17.9 0 014.2 5l.7 1.4.2.4.2.4a21.4 21.4 0 01.9 2.9l.2 1.4.1.4v.4a29.1 29.1 0 01.2 3.1 27 27 0 01-.1 3v.3l-.1.5-.4 1.6a22.9 22.9 0 01-.8 2.7l-.1.4-.2.4a19.6 19.6 0 01-1.8 3v.1l-.1.1a15.4 15.4 0 01-2 2l-.3.3a17.4 17.4 0 01-1.7 1 14 14 0 01-3.4 1.6 21.3 21.3 0 01-2.9.7h-.4a13.8 13.8 0 01-1.8.1h-.6a6.7 6.7 0 01-.9-.3v-.1c.1.1 0 0-.1 0l-.1-.3v-.2l-.1-.5v-.7a11 11 0 01.2-1.8l.7-4c0-.5 0-1 .2-1.5v-.5l.2-2.4a10.8 10.8 0 00-2.5-7.9 11.8 11.8 0 00-7-3c-2.8-.5-5.7-.3-8.6-.6h-.3-.2a9.8 9.8 0 01-1.4-.4c.3 0-.1-.1-.4-.2l-.3-.3-.3-.7.5-1.7zM217.1 117zM270 22.3a3.7 3.7 0 00.6.4 12.5 12.5 0 011.5.9h.1l.2.3.7.6a8.7 8.7 0 001 .8l.4.4v.1l.2.2a7.6 7.6 0 001 1.1l.6.7.2.1v.2l.8 1.4.1.3c.1.4.2 1 .1.2a3.1 3.1 0 105.8-1.7 14.8 14.8 0 00-1.3-2.8 8.2 8.2 0 00-1.4-2l-1-.9q.2.3 0 0l-.7-.9a9.4 9.4 0 00-1.8-1.5l-.5-.5-1.3-1a9.4 9.4 0 00-2.4-1.2c.7.2-.9-.5-.9-.5a4.7 4.7 0 00-1.3-.2c-3-.2-3.8 4.8-.8 5.5zM272 17zM268.7 78.4a23.7 23.7 0 004-5.5 16.7 16.7 0 011.6-2.2c.8-1 1.2-1.7 2-2.5a2.7 2.7 0 00-4-3.9 24.4 24.4 0 00-2 2.4 22.4 22.4 0 00-2.3 2.8 26 26 0 01-3.4 4.8 3 3 0 000 4.1 3 3 0 004.1 0zM257 84.2a4 4 0 00-1.3-.6l-.5-.2c-.2 0-1.4-.3-.9-.1a12.1 12.1 0 00-3.4-.4h-2.6a7.6 7.6 0 00-1.5.2l-.8.4a.8.8 0 00-.1 0c-3 .5-2.3 5.6.7 5.3a4.8 4.8 0 001.2-.2l.3-.1a1 1 0 00.2 0h2.6c1.2 0 1.7.3 3 .4-.5 0 .4.2.5.2a3.3 3.3 0 002.7-.4 2.7 2.7 0 001.3-2.3 2.8 2.8 0 00-1.3-2.2zM114 147.4zM105.6 150.6a2.9 2.9 0 001 3.8 2.8 2.8 0 003.9-1l.8-1.6a13.6 13.6 0 011.2-1.9l.8-1.2a2.8 2.8 0 00.7-1.2v-.1a.7.7 0 01-.2.2l.2-.3c0-.6.1-.7 0-.1a.7.7 0 010 .1 2.7 2.7 0 00-.2-3.5 2.7 2.7 0 00-3.9 0 5.6 5.6 0 00-1 1.7l-.6.7-.2.4-.8 1a14.7 14.7 0 00-1.7 3zM282.6 44.1a9 9 0 001.6 3.2l.9 1.3.4.8.4.6.2.2c1.3 1.9 2.5 3.9 4 5.6l.5.5c0 .2.4.6.5.7l.5.6a3.2 3.2 0 005.8 1c1.5-2.5-.9-5-2.3-6.7-1.5-1.7-2.8-3.7-4.4-5.6a11.5 11.5 0 00-.7-1.4h.1c.7-.2 1.3-.6 2-.7a12.4 12.4 0 002.2-.6 26.9 26.9 0 002.5-1.1l.9-.5s1.2-.6.6-.4c1.6-.5 3-1 4-2.5 1-1.8.2-3.6-.7-5.2l-.1-.3-.7-1.5-.9-1.9-.4-.8-.3-.7-.8-2.2h.3a18 18 0 005 .2 24.9 24.9 0 013 .2 7.6 7.6 0 001.7.3 23 23 0 005.5-.4 2.7 2.7 0 000-5.2 21.6 21.6 0 00-5.2-.4h-.1a2.5 2.5 0 00-.3 0 12.6 12.6 0 00-1.7-.3 19.2 19.2 0 00-2.6-.1h-3.2a5.2 5.2 0 00-.8-.1 20.3 20.3 0 00-4.6-1 3 3 0 00-3 3v.2l-.1.8a5.8 5.8 0 00-.1 2.7l1.1 3.6a29 29 0 001.6 3.5l.5 1.2.2.5.3.8-1.6.9a12.2 12.2 0 01-2.9 1.2c-.6.2-1.2.2-1.8.5l-.9.3s-.8.1-.4 0a14.7 14.7 0 00-3.3.5c-2.2.7-2.8 2.6-2.4 4.7zM336.6 109.6c.1-1-.1.8 0 0z"/>
  <path d="M342 100.2a3.2 3.2 0 00-1 1 7.6 7.6 0 00-1.4 1.2 10.6 10.6 0 00-2.1 3.5 12.4 12.4 0 00-.8 3l-.1.7-.1.6-.1 1a14.4 14.4 0 000 2c.3 5.3 3.2 10.3 6.8 14.2l4.7 4.6 1 1.2.4.4.3.5.9 1.3.3.7.2.4v.2a15.6 15.6 0 011 3.2v1.5l.2 2.1a36.6 36.6 0 001 8 12 12 0 004.2 6.6 10.4 10.4 0 006.2 1.8h.4v-5.8h-1.4l-.4-.1-.6-.2h-.1l-.6-.4-.2-.1a6.7 6.7 0 01-.5-.5l-.1-.1a9 9 0 01-.8-1.5 14.8 14.8 0 01-.5-1.4 16.3 16.3 0 01-.4-1.8v-.6a34.2 34.2 0 01-.3-2.7c0-1.3 0-2.6-.2-4a21 21 0 00-2-7.8 22.7 22.7 0 00-4.3-5.6c-1.7-1.7-3.5-3.2-5-5l-.6-.6-.1-.2-.2-.2a26 26 0 01-2.2-3.5l-.4-.8-.2-.7a16.6 16.6 0 01-.5-1.7l-.2-.8v-.3-.4a14.4 14.4 0 010-2v-.9-.4-.2a11.6 11.6 0 01.5-1.5l.1-.5a11.8 11.8 0 01.7-1.2l.4-.4.3-.3a4 4 0 00.9-.3l.4-.2 1.3-.5.4-.2.8-.2a13 13 0 011.4-.4H352.3a16.7 16.7 0 011.9.4l1.7.6.9.3.2.1.4.2a37.6 37.6 0 016.6 3.8V102a32.2 32.2 0 00-9.4-3.8 16.8 16.8 0 00-12.5 2.1zM254.7 254.4l.5.3 1.1.5 2.2 1 1 .4.2.1.9.4a3 3 0 004-1 3 3 0 00-1-4l-2.3-1.1-3-1.2-2.5-1a7 7 0 01-.3-.1 1.6 1.6 0 00-.2-.1 2 2 0 00-1.2-.4 2.5 2.5 0 00-1.7.4c-2 1-1.8 4.4.3 5a8.3 8.3 0 001.8.8q-.3-.2.2 0zM155.1 59a6 6 0 002.6-1.9A2.8 2.8 0 00156 53a4.4 4.4 0 00-3.4.8h-.2a2.4 2.4 0 00-.7.5 7.4 7.4 0 01-1.1.6h-.2a22.6 22.6 0 01-1.8.7l-2.5.7a2.8 2.8 0 00-2 2.7 2.8 2.8 0 002.8 2.8 10.1 10.1 0 002.7-.5 16.4 16.4 0 002.7-.9l1.5-.6.6-.3.3-.2q-.8.1.4-.3zM336.6 150.2a14.5 14.5 0 00-1 1.4l-.3.5-.6.9-2 3-.2.3a157 157 0 01-.7 1l-2.2-2.5-2.2-2.4-1.2-1.2a2.4 2.4 0 00-1.7-2h-.4a2.6 2.6 0 00-3.2 3 7.9 7.9 0 002.1 3.4l.6.6.2.3 1.7 2 3 3.2c1 1.1 2.3 3 4.3 2.3a5.6 5.6 0 003-3 5.5 5.5 0 01.4-.5c-.3.5.2-.2.2-.2a18.5 18.5 0 001.3-1.8l2.4-3.5.6-1c.2 0 .6-.4.7-.5a2.6 2.6 0 00-.5-4.2 3.3 3.3 0 00-4.3 1zm4.2 3.7zM346.3 164.4c-.1 0-.1 0 0 0zM348.4 164.3a1 1 0 01.1.1l.1.1.9 1a26 26 0 002 2.3l2.5 2.4a8.4 8.4 0 001.5 1.3 3.6 3.6 0 003.6 0 3 3 0 00.6-4.5 8.4 8.4 0 00-1-.7v-.1a12.4 12.4 0 00-1.4-1.3l-.3-.3-.7-.5a16.8 16.8 0 01-1.4-1.6 12.4 12.4 0 00-3.4-3.2 3.1 3.1 0 00-3.3-.3l.3-.1a2.6 2.6 0 00-1.7 3.5 3 3 0 001.6 2zm.4.2h-.2v-.1a2.6 2.6 0 00.2.1zM306.6 127.8a2.6 2.6 0 00-1.9 2.5 2.6 2.6 0 002.6 2.5c5.5-.6 10.7-2.1 16-3.6a3 3 0 001.7-4.3c-1-2-3-3.5-4.6-5.1l-3.7-3.8-2.7-2.8h.1l.5-.2 1.5-.6 1.4-.6.6-.3c-.8.3 0 0 0 0 3-1.2 5.9-2.4 8.7-3.9a3 3 0 001-4.2 98 98 0 00-12-13.7 3.1 3.1 0 00-4.3 4.4l6.4 6.7 2.7 3-5 2.2q-.4.2.1 0l-.5.2-1 .4-1.3.5q-.3 0-.5.2a5.5 5.5 0 00-.7.2l-.5.2a32.8 32.8 0 00-3.6 1.2 3 3 0 00-1.5 2.6c-.1 1.7 1.2 3.2 2.2 4.4a53.6 53.6 0 007 7.3l1.7 1.6-3.7 1.1a56.9 56.9 0 00-6.7 2zM354.8 84.2l-.4-.3a4.3 4.3 0 00-1.1-1.1 12 12 0 01-1.3-.7l-.2-.2-.6-.6a26.5 26.5 0 00-4.5-3.8 2.6 2.6 0 00-4.2-.3 13.7 13.7 0 00-2.2 3.3l-.5 1.1v.1l-.2.3-1 2-2 3.5-1.2 1.7-1.2 1.7c-1.7 2.6 2.1 5.3 4.2 3.2a7.8 7.8 0 00.7-1l.2-.1q-.4.4.3-.5l1.3-1.7a32 32 0 002.1-3.5 26 26 0 002-3.8l2.6 2.6a17.3 17.3 0 001.5 1l.7.5.1.1a4.6 4.6 0 003.7 2 3 3 0 001.2-5.5zM285.3 130.6a2.8 2.8 0 001 3.7 4.3 4.3 0 001.4.6h.1a2.2 2.2 0 00.3.2 10.6 10.6 0 011 .6l1.5 1 .8.6.6.4a11.6 11.6 0 012.2 2.6c1 1.5 1.7 3.7 4 3.5a2.7 2.7 0 002.6-2c.4-1.7-.8-3.3-1.8-4.8a20 20 0 00-2.9-3.3 27.2 27.2 0 00-3.8-2.8 8 8 0 00-4.3-1.6 2.6 2.6 0 00-2.7 1.3zM364 78.4V74a9.1 9.1 0 00-.6 1.1 2.7 2.7 0 00.6 3.3zM5.4 61a11.8 11.8 0 006.6-3.9 18.5 18.5 0 003.2-6.8l1-3.2.2-.8.2-.4a12 12 0 01.8-1.4l.2-.4.3-.3a13.8 13.8 0 011.2-1.2l.4-.3.5-.4 1.5-1c4.2-2.6 10-4.6 11.2-10a3.6 3.6 0 000-.5 3.7 3.7 0 00.3-1 10.5 10.5 0 00-.5-3.5 13.3 13.3 0 00-3.6-6.1 19.4 19.4 0 00-15-4.9A23.1 23.1 0 00.1 21.3l-.2.2v9.7l1.7-2.5v-.1l.2-.2a27.1 27.1 0 013-3.2l.7-.5.4-.4a22 22 0 012.7-1.7l.8-.4.4-.2a19 19 0 012.9-.9l.9-.1q.5-.1.1 0l.6-.1a18.5 18.5 0 011.9 0h1.5a17.1 17.1 0 013.6 1l.3.2a16.3 16.3 0 011.8 1l.4.2.2.1a11.9 11.9 0 011.3 1.3l.1.2.2.2a9.6 9.6 0 01.5.8l.2.5.2.6a13.1 13.1 0 01.5 1.7v.7l-.4.6-.3.3-.4.4a12.1 12.1 0 01-.9.9l-.4.3-.9.5-5.9 3.4a19.3 19.3 0 00-5 4.3A19.6 19.6 0 009.7 47l-1 3-.3 1.2-.3.5-.5.9-.3.4-.3.4-.4.4c.1-.2-.4.2-.4.3l-.7.4-.5.2a10.8 10.8 0 01-1.5.4h-.2l-.8.1c-.2.1-.6 0-.8 0H1a11.7 11.7 0 01-1.1-.3v6.4a15.6 15.6 0 005.4-.2zM10.3 251a58.5 58.5 0 000-8.6 25 25 0 00-1.9-8.7 16 16 0 00-3.2-4.5 3 3 0 00-1-1.5 6.6 6.6 0 00-3.6-1.3H0v6.3a37 37 0 012 2c-.2 0 .2.4.2.5a11.9 11.9 0 011 1.6l.1.3.2.8a18 18 0 01.4 1.8 35 35 0 01.4 4.1 54 54 0 01-.2 8.4v.4l-.2.8a20.3 20.3 0 01-.9 3.2l-.2.5-.5 1a11 11 0 01-2.3 2.7v7.3a21 21 0 004-2.8c4.2-3.7 5.9-9 6.3-14.3zM2.2 279.8l.7-.2a2.9 2.9 0 001-.6 2.6 2.6 0 001.5-1.1 2.8 2.8 0 00-1.3-4.3h-.3a2.4 2.4 0 00-2.2.3l-.4.2-1.2.2v6.1l.6-.2c.5 0 1-.3 1.6-.4zM21.7 77.7c2-1.2 4.1-2.3 5.6-4.1l.5-.7q-.2.4.2 0l.7-.8a17.3 17.3 0 001.5-1.9A8.3 8.3 0 0031 68a14.3 14.3 0 00.4-2.3c0-.2.3-1 0-.2a3.3 3.3 0 00.2-.6 7.2 7.2 0 00-.1-2.5l-.2-.8.1.4a3.3 3.3 0 010-.5 18.8 18.8 0 00-.3-2.2 4.6 4.6 0 00-.4-1l-.2-.5a20.9 20.9 0 00-1-2c-.6-1.2-1.3-2.2-2-3.3a3.3 3.3 0 00-4.5-1.1 3.3 3.3 0 00-1.2 4.4l1.8 2.7a13 13 0 01.7 1.3 1.8 1.8 0 00.1.2l.4 1v-.2c-.1-.3 0 .3 0 .4A16 16 0 0025 63l.1.7a3.4 3.4 0 00-.2 1v.9a9.7 9.7 0 01-.4 1.4l-.4.5c-.5.6-1.1 1-1.6 1.7l-.2.2a8 8 0 01-.6.6l-.2.1-.5.4-2.6 1.5a3.3 3.3 0 003.3 5.7zm3.4-14v-.1zm-.7 3.5V67q-.1.6 0 .2zM11.7 154c7.4-8.5 6.2-20.8 4.2-31.1a27.2 27.2 0 00-4.6-11 38.1 38.1 0 00-9.5-8.8L0 102v7.4l.6.5.5.4 1.4 1.2a34.4 34.4 0 012.9 2.9l.6.6v.2l.2.1a18.2 18.2 0 012.1 3.8l.3.6a39 39 0 011.8 7.4 55.3 55.3 0 01.7 14v.3l-.3 1a22 22 0 01-1 3.2l-.1.5-.3.5a19.8 19.8 0 01-2.5 4l-1.2 1.1-.6.5H5a3.3 3.3 0 01-.4.4l-1.2.6-.4.2-.4.2a13.5 13.5 0 01-1.3.4l-.7.1H0v6a16.5 16.5 0 0011.7-6zM3 78.7a4 4 0 001.4-1.4q-.2.4.1 0l.8-1 1.9-2.7.3-.5.4-.5a2.8 2.8 0 00.5-.8l.6-.4.2-.4.1-.1a6.8 6.8 0 00.8-1 3 3 0 00-1.4-4.6h-.1a2.9 2.9 0 00-3.3 1.3.9.9 0 000 .2l-.5.6a5.2 5.2 0 00-1.4 1.5q-.3 1.2-.2.5l-.4.6-.7 1C1.4 72.2.6 73 0 74v4.4a2.6 2.6 0 003 .3zm5.4-7zM55.8 65.8a24 24 0 004.9 7.5 2.6 2.6 0 00.7.5 16 16 0 006.4 3.8c5.7 1.6 10.6-2 14.8-5.3l1.4-1.1.4-.4.7-.5a9.6 9.6 0 011.5-1c.3 0 .5-.1.8-.3h.2l.3-.2a41.7 41.7 0 006.9-3.2 12.3 12.3 0 005.1-6.4 11.8 11.8 0 00-.3-7.6A18.3 18.3 0 0090 40.8a30.1 30.1 0 00-13.8-2 24.1 24.1 0 00-13.4 4.8 21.9 21.9 0 00-7.5 13 17 17 0 00.6 9.2zm5-6V59l.1-.3v-.4a19.3 19.3 0 011-3.4l.2-.5.3-.6a20.4 20.4 0 011-1.8 21.3 21.3 0 011.8-2.4 14.6 14.6 0 011.2-1.1l.4-.3.6-.5a16.9 16.9 0 012.5-1.3l.4-.2a19 19 0 014-1l.5-.1h.5a28.8 28.8 0 013.5-.2c1 0 2 0 3 .2H82.2l.7.2 1.8.3 1.4.4c.3 0 .5.2.8.3l.5.2a15.4 15.4 0 012.5 1.5l.4.3.6.5a12.6 12.6 0 01.9 1 5 5 0 00.3.4l.4.7 1 1.7.2.5a4.6 4.6 0 00.2.5 10.7 10.7 0 01.4 1.5V55.3a9 9 0 010 1.4l-.1.6a6.4 6.4 0 01-.2.6l-.2.4a6.8 6.8 0 01-.4.6l-.4.4-.5.5-.4.3a16.3 16.3 0 01-1.5 1l-1.5.7-.8.4-.5.2-3.6 1.5c-2.5 1-4.5 3-6.5 4.7l-.7.6-.2.1-.1.1-1.5 1a9 9 0 01-3 1.4l-.7.2h-1.3-.5a9.8 9.8 0 01-1.3-.4l-.3-.1a13.6 13.6 0 01-2.3-1.4l-.3-.3-1.2-1.3a29.4 29.4 0 01-2.7-4.3l-.2-.5-.3-.9-.2-.8V62v-.3a14.8 14.8 0 010-1.8zM71.3 108.2c-.2-.2 0-.1 0 0z"/>
  <path d="M70.8 94.8l2.9-1.9a13.6 13.6 0 002.3-1.8c1.8-2 0-5.3-2.7-4.6-1.9.6-3.6 2-5.3 3a47.5 47.5 0 00-4.4 3.1 29.1 29.1 0 01-4.5 2.7 3 3 0 00-1.4 3.4c.9 2.6 2.7 5 4.2 7.3a53.4 53.4 0 003.2 4.5c1 1.3 2.4 2.8 4.2 2.7a2.9 2.9 0 002-5l.4.4-.5-.6-.2-.1-.5-.4a12.4 12.4 0 01-1.1-1.3l-.5-.5a79 79 0 01-4.2-6.5 19.7 19.7 0 002.4-1.7 39.5 39.5 0 013.7-2.7zM40.6 42.6a57.3 57.3 0 0014.2-4.7 3.3 3.3 0 001.2-4.5 3.3 3.3 0 00-4.5-1.2 50.4 50.4 0 01-6 2.4 47.5 47.5 0 01-6.6 1.7 3.3 3.3 0 00-2.3 4 3.3 3.3 0 004 2.3zM46.3 59.1V58.8l.2-1a3.3 3.3 0 00-2.3-4 3.3 3.3 0 00-4 2.3 27 27 0 001.7 16.7 3.3 3.3 0 004.4 1.2 3.3 3.3 0 001.2-4.5l-.2-.3-.2-.6a17.5 17.5 0 01-.5-1.8 19.1 19.1 0 01-.4-1.6V65v-1a26.3 26.3 0 010-3.4v-1.5zM33.9 116v.1l.1.1a16.6 16.6 0 001.3 1.8l3.1 2.8.7.6-.2.1a45.8 45.8 0 00-4.3 2.9l-4.1 2.4c-1.9 1-3.2 3-2.5 5.1a5.3 5.3 0 002 2.6l1 .8.9.8 3.7 3.5 1.7 1.8.5.6.8 1.2A3.2 3.2 0 0044 140a32.6 32.6 0 00-5.4-6.2L36 131l3.4-2.2a28.5 28.5 0 013-2 15.1 15.1 0 002.7-1.7 4.2 4.2 0 001.6-3.4 4.5 4.5 0 00-.8-2.3 9.8 9.8 0 00-.6-.7 2 2 0 000-.2 6.4 6.4 0 00-.8-1 31.6 31.6 0 00-2.7-2.4 36.2 36.2 0 01-2.1-2c.4.5-.2-.3-.2-.4l-.2-.3a37 37 0 003.9-1.8l1.7-1 .8-.4.6-.3h.1a9.2 9.2 0 003.1-1.5 4.6 4.6 0 002-5c-.2-1.5-1.6-2.4-2.7-3.2l-.2-.2-.6-.8-1.6-1.7a31.1 31.1 0 01-2.5-3.1c1.3-1 2.7-2 4-3.2a47.1 47.1 0 003.4-3.3 3.2 3.2 0 00-4.5-4.5L44 85.3l-1.4 1.2-.5.4-.9.6a18.3 18.3 0 00-3.2 2.6 4.6 4.6 0 00-.7 5.3 12.7 12.7 0 001.4 1.9 41.8 41.8 0 01.9 1 41.6 41.6 0 002.8 3.4l.6.6v.1l.2.3.4.5-2 1-3.5 1.9-.6.3-.7.2a14 14 0 00-2 1 5.5 5.5 0 00-2.8 2.9 4.8 4.8 0 001 4.4l.9 1.1zm-.3 16.3c-.4.4-.2.2 0 0zM46 102.1zm-.2 3v-.1zM36.3 177c.4.5.4.3 0 0zM44.2 253.6a6.1 6.1 0 002.6 0 3 3 0 002.1-2.2 36 36 0 00.3-6.6v-3.5l3 .7c2.1.6 4.2 1.7 6.4 2.1a3.1 3.1 0 003.8-3c.4-4.6.2-9.3.3-14 0-3-4.5-3.6-5.3-.7-.7 2.5-.5 5.2-.7 7.7l-.1 3a21 21 0 00-3-1c-2.5-.7-5.5-1.8-8-1.1a3 3 0 00-2.2 2.1 39 39 0 00-.3 6.7v3.3h-3.9a57.2 57.2 0 00-7.8 0 7.6 7.6 0 00-3.4 1c-2.3 1.5-1.5 4.7-1 7l.5 2.4v.2l.2 1.1c0 .6.2 1.1.3 1.7l.6 3.3a43.8 43.8 0 01.3 1.8 7.6 7.6 0 00.2 1.5 3 3 0 003.7 2.1 3 3 0 002.2-3 9.5 9.5 0 00-.2-2.4l-.4-2.3-.8-4.2-.2-1v-.7l-.4-1.9-.1-.5h4.8l4.1.1h1l.6.1.8.2zM33.4 256.2v.1c0-.4 0-.3 0 0zM45 217.8c1.7-2.6-2.3-5.8-4.5-3.4a4.8 4.8 0 00-.9 1.4 24.9 24.9 0 00-.7 1.8 11.8 11.8 0 01-.5 1.5l-.2.5-.7 1.5-.6 1.7-.3.7-.5 1.1-.1.4-.4.8a8.1 8.1 0 00-.7 2.9c-.2 3.3 5.2 4.1 5.8.8a2 2 0 00.3-.9 4 4 0 000-.4l.5-1.2.1-.3c.6-1.2 1-2.4 1.4-3.6l.1-.2.4-.8a19.2 19.2 0 00.8-2c0-.2.3-1.1 0-.5a17 17 0 00.7-1.8zM30 241.5a3.2 3.2 0 000-4.4 3.1 3.1 0 00-.7-.5 26 26 0 00-3-2c-1.3-.6-2.5-1.5-3.8-2.2l-3.9-2.1a38.4 38.4 0 00-3.5-2.3 2.6 2.6 0 00-3.5 3.6 9.9 9.9 0 003.2 3.3 30 30 0 003.8 2.3c1.3.7 2.5 1.6 3.7 2.4l2 1 .7.5.5.4a3.2 3.2 0 004.5 0zM25 221.5c4.7-1.3 7.7-5.4 10.2-9.3a31.7 31.7 0 014.3-5.8l.7-.7.2-.2.2-.1a9.2 9.2 0 01.8-.5l.5-.3a12.3 12.3 0 011.5-.4l.8-.2.6-.1h.6a32 32 0 005.5-1.5 11.6 11.6 0 005.6-4.5 9.3 9.3 0 00-1.2-10.9c-2-2.3-5.3-3-8.2-3.3a30.6 30.6 0 00-8.1.5 2 2 0 00-.2 0h-.5l-3 .5-1 .1H34c.8 0-.2.1-.3.1-4.5.5-9 .3-13.5.8-5.1.5-10 2.3-13.5 6a17.7 17.7 0 00-4.9 13.8c.6 5.5 4 9.9 8.4 12.9a19 19 0 0014.8 3zm25.7-30.6c-.5-.4-.2-.2 0 0zm-30.7 25h-.4a17.2 17.2 0 01-3.3-1l-.5-.1a21 21 0 01-2.4-1.3l-.7-.5-.4-.3a19.7 19.7 0 01-2.5-2.5l-.2-.1v-.2l-.6-.7a12 12 0 01-.7-1.3l-.1-.5-.3-.8-.2-.8v-.3-.3a13.3 13.3 0 010-1.6v-.9-.1-.3a15.9 15.9 0 01.4-1.7l.3-.7.1-.4v-.1a14.5 14.5 0 011.5-2.5l.4-.4.5-.6a15.4 15.4 0 011.3-1.2l.2-.2a13.8 13.8 0 012-1.2l.7-.3.1-.1h.2a18.6 18.6 0 012-.7 24.6 24.6 0 012.7-.5l.6-.1 3.8-.2a167.2 167.2 0 0015-1.5h.3l4.4-.2a27.2 27.2 0 013.3.1h.2a15 15 0 011.8.5h.2l.2.1a6.6 6.6 0 01.8.5 5 5 0 01.5.5 4.7 4.7 0 01.2.4l.2.5a3 3 0 010 .7 5.4 5.4 0 010 .8l-.1.5v.1l-.1.2a7.3 7.3 0 01-.5.7l-.2.3-.4.4a9.3 9.3 0 01-1.3.7l-.5.2-1 .3-3.5.7-.8.2-.9.1a13.2 13.2 0 00-2 .6c-5.4 1.9-8.2 7.1-11.2 11.7a38.5 38.5 0 01-2.5 3.2l-.6.5-.5.4a11.3 11.3 0 01-1 .7 7 7 0 01-.4.2l-.4.1-.8.2-.5.1a13.8 13.8 0 01-1.6 0H20zM8.8 181.5a3.3 3.3 0 00.4-1.6 6.2 6.2 0 01.3-1c-.2.5.3-.5.3-.4l.4-1a22.2 22.2 0 00.8-2.1l.3-.5.5-1a20 20 0 00.9-2.2v-.2l.2-.2c0-.3.2-.5.3-.8l1-2.1a15 15 0 00.4-1.6 2.8 2.8 0 00-5-2.1 8.4 8.4 0 00-.5 1.1l-.2.5-.8 1.5-1.7 3.8-1.6 3.6a11.6 11.6 0 00-1.5 4.8c-.2 2.9 4.2 4 5.5 1.5zm.4-1.5c0 .2 0 .2 0 0zM59 288.3a13.6 13.6 0 006.8-3.8c2.9-2.8 4.8-6.7 6.8-10.2 2.2-3.8 4.3-8 3.7-12.4a14 14 0 00-6-9.5 10.5 10.5 0 00-6.6-1.5 15.7 15.7 0 00-4.3 1 6.7 6.7 0 00-4 1.4 36 36 0 00-6.4 5.5 19 19 0 00-4.7 14.7c.5 5 2.5 10.3 6.8 13.3a10.5 10.5 0 007.9 1.5zm-3-5.4h-.4a6.5 6.5 0 01-.6-.3l-.4-.2-.6-.4h-.2l-.1-.2a9.6 9.6 0 01-.7-.7 8 8 0 01-.5-.5l-.2-.3a12.5 12.5 0 01-.8-1.4 14.6 14.6 0 01-1.2-3 14.3 14.3 0 011.2-11.3 22.6 22.6 0 014.6-5.1 14.7 14.7 0 012-1.7 2.7 2.7 0 001 0 92 92 0 013.9-1h.6l.8-.1h1.1l.5.1a4.8 4.8 0 012.3 1.4l.6.6v.1l.2.1a11.1 11.1 0 011 1.7V261c.2.3.3.5.3.8l.2.8.1.5v1.2a14 14 0 01-.5 2 21.9 21.9 0 01-1.5 3.3l-2.1 3.8-2 3.3a24.4 24.4 0 01-2.3 3.1c-.3.5-.8.9-1.2 1.2l-.4.4-.6.4a10.5 10.5 0 01-1.3.8c.2-.2-.5.1-.5.1a8.2 8.2 0 01-1 .3c.5-.1-.4 0-.4 0a7.7 7.7 0 01-1 0zM49.9 298.8a12 12 0 00-.4-1l-.3-.7c-.4-1.1-1.1-2.4-2.5-2.6a3 3 0 00-2 .2.5.5 0 00-.1 0 2.9 2.9 0 00-1 1 3.2 3.2 0 00-.5 1.9 7.3 7.3 0 001 2.8v.2a15.3 15.3 0 01.5 1.6l.5 2.6a26.7 26.7 0 01.5 4.9v2a3.7 3.7 0 00.5 2 2.4 2.4 0 002.4 1.7 2.3 2.3 0 002.2-1.5 8.6 8.6 0 00.7-4 30.9 30.9 0 00-.3-5.6 31.2 31.2 0 00-1.2-5.5zM24.3 296.5a32.9 32.9 0 013 3 9 9 0 001.1 1.2 6.5 6.5 0 002.2 1 2.7 2.7 0 003-1.3 2.7 2.7 0 00-.4-3.2 5 5 0 00-.7-.5 1.3 1.3 0 01-.1-.1l-1-1.2a32 32 0 00-2.6-3l-3-2.8 1.4-.7.5-.2 1-.4 2.2-.4 1.9-.4c1.5-.4 3-.4 4-2a3 3 0 00-3.4-4.3 6 6 0 00-.4.1 5.4 5.4 0 01-.8.2 11 11 0 00-1.3.2c-1.5.5-3.2.6-4.7 1.1l-2.3 1-.8.5a1.5 1.5 0 00-.2.1h-.2a10.7 10.7 0 00-4 1.9 3 3 0 00-.6 3.6 48.2 48.2 0 006.2 6.6zm8.2.2zm0 0l-.2-.2.1.1zM38 312.3l-1.2-.4-2.3-.7-5-1.3-3.5-1-1.6-.7-.6-.2a1.1 1.1 0 00-.1 0 2.7 2.7 0 00-3 4.4 8.9 8.9 0 003.4 1.8 36.5 36.5 0 003.6 1.2l5.2 1.6c1.7.4 3.4 1.3 5.2 1.2a3 3 0 000-6zM75.8 27.4a37.6 37.6 0 00.6 4.2c.7 2.7 5.2 2.2 5-.7-.2-1 0-2 0-3l-.6-3.9-.3-2.3h.4a47.8 47.8 0 001.8.3l2 .4 1.8.4 1.3.2h.8a43.7 43.7 0 004.5.7 3 3 0 000-6l-1-.1h-.4l-2.6-.4-1-.1-.5-.1-2.5-.4h-.4l-1.3-.2h-1v-.1l-.6-.1-.9-.2s-.8-.3-.3 0a5 5 0 00-2.7-.6 3.5 3.5 0 00-3.3 3.7 29.8 29.8 0 00.6 4l.6 4.3zM82.6 278l.1-.3.1-.2 1.1-2a2.5 2.5 0 00-3-3.1 6.3 6.3 0 00-3.5 3.1l-.5 1.2c.2-.5-.4.4-.4.4l-1.2 2-.9 1.5a5.6 5.6 0 00-.5 1.3c.2-.6-.3.3-.4.4v.1l-.1.1a7.8 7.8 0 00-.9 1.3l-.3.6c0 .2-.7 1-.2.4a3.2 3.2 0 00-.5 3.8A3 3 0 0075 290a4.6 4.6 0 001.4-.8 3.1 3.1 0 00.8-1.1 21 21 0 011.2-2 11 11 0 00.8-1.4 10.2 10.2 0 00.5-1.2c-.2.5.3-.5.4-.6l2-3.7a6 6 0 00.5-1.2zM22.5 90.8l.8-.2H24a3 3 0 002.9-3.7 3 3 0 00-3.4-2.2 17.9 17.9 0 00-3.9 1 38.8 38.8 0 01-4.5 1 42.9 42.9 0 01-4.3.9 10 10 0 00-4.9 1.3 2.7 2.7 0 002.8 4.7l.4-.1a6.3 6.3 0 01.8-.2h.3l1.1-.1a40 40 0 005-.8l4.3-1 2-.6zM24 112a21.5 21.5 0 00.1-5.5l-.1-5.1a2.7 2.7 0 10-5.4 0c-.2 1.7-.1 3.4-.1 5a21.5 21.5 0 00.2 5.5 2.7 2.7 0 005.2 0zM12.2 295.8h-.4c-1.3-.2-3 .2-3.2 1.8l-.1.4-.2.4-.8 1.4-2 3.1a40.8 40.8 0 00-3.8 7.1 6 6 0 00-1 2.5 3.2 3.2 0 00-.1.7 2.9 2.9 0 005.7.1l.4-.5a10 10 0 00.4-1l.2-.4a32.3 32.3 0 001-2.1l.6-1 1.4-2.2 2-3.4a10.7 10.7 0 001.3-2.9c.9-1.4.4-3.7-1.4-4zm-6 17.6c0 .1 0 .2 0 0zM18.6 274.6c.1 0 .8.6.3.1 1.5 1.2 2.6 1.8 4.5 1a2.8 2.8 0 00.5-4.5 7.5 7.5 0 00-.7-.6 1.6 1.6 0 00-.2 0 17.7 17.7 0 00-3.4-2.2c-1.7-1-3.2-2.4-5-3.4a2.8 2.8 0 00-3.8 3.9 2.2 2.2 0 00.5.7l.4.2a37.8 37.8 0 005.2 3.8l1.3.7.4.3z"/>
  <path d="M40 177.5a3.1 3.1 0 001-4.2c-.8-1.5-2.4-2-4-2.5l-.2-.1-.3-.2-.8-.3a13.3 13.3 0 01-2-1c-1.4-1-3-1.5-4.4-2.3l-.6-.3.3-.2.9-.8.2-.2.3-.2 2-1.4.9-.7.2-.1 1-.7a27.7 27.7 0 001.8-1.5l1-.7a4.1 4.1 0 01.4-.2 3.3 3.3 0 002.2-2.3 3 3 0 000-3.2 6.2 6.2 0 00-2.8-2.2l-1.8-.8-.3-.2-1.2-.8-3.8-2.5a63 63 0 00-1.9-1.1 8 8 0 00-.6-.5l-.5-.2c-1.7-1.2-4.7-.1-4.5 2.2a3.2 3.2 0 001.1 2.4 4 4 0 001 .6q-.6-.6.3.2l.6.5 3.8 2.6 3 2h-.1l-.2.2-.6.4-1 .7-1.3 1c.3-.3-.6.4-.7.4a23 23 0 00-2.3 1.7l-1 .7-.3.4-.4.3a14.9 14.9 0 00-1.2 1.2l-.5.5a2.8 2.8 0 00-1.6 1.3 3 3 0 000 3 8.6 8.6 0 004 3.1l4.1 2.1 2.1 1.2a21.9 21.9 0 002.7 1.3l.4.2a35.8 35.8 0 001.6.6l.2.1a7 7 0 01-.5-.6 3.1 3.1 0 004.2 1zM347.8 17.9a10 10 0 001.6-1.1l1.8-1.3a21.6 21.6 0 013.4-2l.6-.2 1.3-.5 1.8-1 .8-.4a3 3 0 002.5-4.8 3.8 3.8 0 00-1.7-1.4 3 3 0 00-1.7.1 10.2 10.2 0 00-3 1.2l-1.8 1-.3.1-.6.2-1 .5a21.8 21.8 0 00-3.6 2.2l-1.2 1q.3-.3 0 0l-1 .6a6.4 6.4 0 00-1.6 2.1 2.7 2.7 0 003.7 3.7zm11.4-6.5c.3-.2.3-.2 0 0zM316.1 7.8c-.3 1.1-.8 2.7-.3 3.9a3.1 3.1 0 003.8 2 25.2 25.2 0 003.6-.9 24 24 0 005-1c2.5-.7 5-1.2 7.4-2a3 3 0 10-1.7-5.9c-2.3.8-4.7 1.3-7 2l-2.3.6-.8.2h-1.1l.7-2.1a59.9 59.9 0 011.4-4.6h-6.2a74.2 74.2 0 00-2.5 7.8zM267.1 2.5l-.6 1.2-1 1.5-.3.4-.4.5a18.9 18.9 0 01-2 1.9l-.2.1-.4.3c.6-.5.1-.1 0 0a6.2 6.2 0 00-.7.4c-2 1.2-1.1 4.2 1 4.8a1.3 1.3 0 00.1 0 3.3 3.3 0 001.7.1 8 8 0 001.5-.7 26.4 26.4 0 002.6-2 15 15 0 002.7-3.3 18.2 18.2 0 001.9-3.5 16.4 16.4 0 001-4.2h-6.2a17.3 17.3 0 01-.5 1.9l-.2.6zM261 9.6q-.5 1.2 0 0zm1 3.7c-1-.6-.4-.2.1 0zM292.1.7l1 1h-2.8a19.6 19.6 0 00-5 .6c-.1 0-1 .2-.3.1a8.1 8.1 0 00-1.5.3 5.6 5.6 0 00-1.6.7 2.8 2.8 0 00-2 2.7 3 3 0 002.8 2.9 3.7 3.7 0 002.1-.6c-.6.4.1 0 .3 0h.1a5.3 5.3 0 00.8-.2l2.1-.4h.4l1.2-.1c1.4 0 2.8.2 4.2.1a11.7 11.7 0 002.4-.4l.9-.2H297.5c2.5.8 5-2.2 3.5-4.5a29 29 0 01-1.3-2V.3l-.2-.2V0h-8l.6.7zM195.4.9l.8.6c.9.6 1.9 1 2.8 1.5l-.5.7-.1.1-.1.1-1.5 1.7c-1.7 1.7-5.6 5.2-3.7 8a7 7 0 002.6 2l.7.5a23 23 0 002 1.4l.7.4.4.4a13.6 13.6 0 011.3 1.3 6.1 6.1 0 001 .9h.1l-.1.3q.2-.3-.1 0t-.7 1l-2.6 3.6a14.8 14.8 0 00-1.8 2.7c0 .3-.2.6-.4.9a3 3 0 00-.3.1c-2.3 1-2.5 5.2.5 5.8 3.3.7 4.8-2.2 6-4.7a14.3 14.3 0 011.5-2l1.7-2.3.6-.8V25l.7-.9.4-.5q-.2.3.1 0a9.5 9.5 0 00.7-.7 3.6 3.6 0 001-3.4 5.6 5.6 0 00-2.4-2.8 31.3 31.3 0 00-.6-.5 5.7 5.7 0 00-.8-.7l-1.6-1.7a16.8 16.8 0 00-2-1.4l-1-.6-.3-.3h-.2c0-.2-.2-.3-.3-.3L202 9a20.7 20.7 0 001.5-1.8l.4-.6.8-.7.7-.6a6 6 0 001.3-1.6 3.1 3.1 0 00-.4-3.7h-12.2l.4.3zm.4 28.7c0 .1-.1.2 0 0zm7.9-10.8q.4-.4 0 0zm.3-12.4zM132.7 39.8a27.4 27.4 0 005.4 6.2 11.6 11.6 0 007.9 3c2.9-.2 5.3-2 7.3-4a46.3 46.3 0 004.6-6q.4-.7 1-1.3l.2-.4.4-.6a25.3 25.3 0 012.8-2.6 37.2 37.2 0 005.4-5 13.5 13.5 0 002.8-8.4 13.2 13.2 0 00-2.8-8.1 15.6 15.6 0 00-6.4-4.6 24 24 0 00-7.4-1.3 77.2 77.2 0 00-8.8.1 10 10 0 00-1.6.3l-1.4.2a3.8 3.8 0 00-1 .4 15.4 15.4 0 00-9.3 7.5 22.1 22.1 0 001 24.6zm2-13.2l.1-1.6V25l.2-1a21.8 21.8 0 011-3 22.3 22.3 0 011.2-2.9 11.7 11.7 0 01.8-1.2 16.2 16.2 0 011.8-1.9l.4-.3a11 11 0 011-.6l.5-.3H142a20 20 0 012.8-.9 3 3 0 00.4-.1h10.3l.6.2h.7a15 15 0 011.6.5c.3 0 .5.2.8.3l.3.1a13.4 13.4 0 011.4.8l.7.5.5.4a11.5 11.5 0 011 1.1l.3.4.3.7.2.5.3.8.1.7V22a11 11 0 01-.4 1.4v.2l-.1.2-.5.8-.3.5-.7.8c-1.6 1.8-3.7 3.2-5.5 4.8a31.2 31.2 0 00-4.8 6l-1.8 2.5-.4.5-.5.6a16.8 16.8 0 01-1.4 1.4l-.2.2-.4.3-.5.3-.5.3h-.3l-.2.1h-.7-.2l-.6-.2-.5-.2a11.6 11.6 0 01-1-.6 9.5 9.5 0 01-2-1.8 24.5 24.5 0 01-3.8-5 16.1 16.1 0 01-2-5.6 13.3 13.3 0 01-.3-2.8zM132.9 0s.1.1 0 0zM133.6.5a5.3 5.3 0 003.1 1.4 2.9 2.9 0 002.8-1.9H133a4.2 4.2 0 00.6.4zM226.4 14.2a17 17 0 0015.6 2.2 26.2 26.2 0 0012.4-9.7 22.2 22.2 0 003.2-6.7H251l-.1.3-.2.4a20 20 0 01-1.8 3.1l-.3.4-.4.5a23.8 23.8 0 01-2.6 2.6l-.7.5V8l-.2.2a21.6 21.6 0 01-3.1 1.9l-.9.4q-.5.2-.1 0l-.6.3a15.9 15.9 0 01-1.8.5l-.8.1h-.6a11.2 11.2 0 01-1.7 0h-.6l-1-.3a11.9 11.9 0 01-5.3-3A15.8 15.8 0 01227 7l-.1-.2-.1-.1-.5-.7a13.2 13.2 0 01-1-1.5c0-.3-.2-.5-.3-.8l-.2-.7-.2-.8v-.3V1 .4l.1-.4h-6v.7c-.5 5.4 3.5 10.5 7.6 13.5zM83 2.2l-.6 1.1-.2.4a2.2 2.2 0 00-.8 1.3 3 3 0 001.4 3.2 2.9 2.9 0 003.4-.4 21.1 21.1 0 002.5-4 19.5 19.5 0 011.4-2.1l.5-.7a7.8 7.8 0 00.8-1h-7l-.3.3-1.1 2zM87 6c.2-.3.2-.2 0 .4a2.3 2.3 0 000-.4zM102.2 16.4h.2a2.9 2.9 0 003.2-1.2 2.4 2.4 0 00.4-1l.6-1.4.2-.5c-.1.3.3-.2.3-.2l1.3-1.2.4-.4c-.2.2.1 0 .3-.1l.3-.1a8 8 0 001.2-.5 6.1 6.1 0 012.2-.7 13.8 13.8 0 011.6 0h1.6l1.4.4 1 .3.5.2 1 .4.3.1a9.4 9.4 0 011.5.9l.2.1.8.7a3 3 0 003 0c1.5-.7 1.7-3 .6-4.2-1.3-2.1-4.2-3.3-6.3-4.1a17.7 17.7 0 00-8.6-.7 12.7 12.7 0 00-2 .4 7.6 7.6 0 00-1.1.6l-.4.2-1.8.7-.7.5-1 .8a17.7 17.7 0 00-2.7 2.8 9.6 9.6 0 00-1 2 6.1 6.1 0 00-.6 2.4 3 3 0 002.1 2.8zM162.3 3.4a3 3 0 001.3-3.4h-6.1a5.7 5.7 0 001.4 3 2.9 2.9 0 003.4.4zM179.2 15.6c1.2-.2 2-1.4 2.6-2.4a1.3 1.3 0 00.2-.2l.7-.7L184 11a28 28 0 002.4-2.3c1.2-1.5 1.4-3.7-.4-4.8a2.6 2.6 0 00-2.7 0 2.9 2.9 0 00-.8.7L179 7.7a16.1 16.1 0 00-2 2.2l-.5.7v.1a2.7 2.7 0 00-.8 1.4 2.9 2.9 0 003.5 3.5zM2.1 2.9c1.6 1.1 3.5 2 5.2 3l3.3 2 5.5 2.6a3 3 0 004-1 3 3 0 00-1-4.1l-5.3-2.6c-1.2-.6-2.2-1.3-3.3-2L9 0H.7A3.3 3.3 0 002 2.9zM37.6 11.2a26.8 26.8 0 006.2 5.3 26.2 26.2 0 0016.7 3.2c4.7-.7 9.3-3.3 11.5-7.6a10.9 10.9 0 001-7.9A12 12 0 0070.8 0h-9.2l.6.3 1.3.9.6.4.5.4a15.2 15.2 0 011.1 1.1l.4.5.3.3a9.2 9.2 0 01.7 1.2l.2.4a7.8 7.8 0 01.2 1v.3a7.6 7.6 0 010 .8V7.9a8 8 0 01-.2.8v.1l-.1.2-.4.7c0 .2-.3.4-.4.6l-.3.4a11 11 0 01-1.1 1v.1l-.3.1-.6.4a14 14 0 01-1.4.8h-.2a15.9 15.9 0 01-2.5.8l-.7.2h-.5a19.8 19.8 0 01-4 0 24 24 0 01-3.3-.7 20.3 20.3 0 01-3.6-1.3 19.6 19.6 0 01-5.8-4.5A58 58 0 0137.4 2L36 0h-7a50.5 50.5 0 003.4 5 78.8 78.8 0 005.2 6.2zM351.6 207c-1.6-.6-2.7-.4-3.8.9a7.5 7.5 0 00-.8 1.7 7.6 7.6 0 00-.4 1.5c-.3 1.4-.2.5-.6 1.8a34.4 34.4 0 01-1 3.6l-.4-.2-3.6-2.3-1.3-.8-.7-.5-.2-.1-.4-.4c-1.3-1.2-2.4-2.5-4.3-2.7-3-.3-4.4 2.5-5.3 4.8-.4 1-.6 2-.9 3.1l-1.2-1-.6-.5-.1-.1-.7-.7-1.6-1.6-2.7-2.9a3 3 0 10-4.5 4.1 78.2 78.2 0 006.1 6.2l.2.2.7.6 1.3 1.4a12.6 12.6 0 002.6 3 3.1 3.1 0 004.6-1.7 122.3 122.3 0 002-5.7 16.4 16.4 0 01.4-1.8l1 .8 2.8 1.7 6.8 4.4c1.6 1 4.2.4 4.7-1.6.2-1.1.7-2.2 1-3.3l1.2-3.7a17 17 0 00.5-1.7l.3-1.4v-.1a12.3 12.3 0 00.4-2.1c.1-1.5-.2-2.3-1.5-2.8z"/>
  <path d="M351.9 214.4c-.2 0 .8.8 0 0z"/>
  <path d="M361.4 215.2l-1-1a17.5 17.5 0 00-1.3-1.3l-1.8-1.5-.3-.3a7.8 7.8 0 00-.9-.8c-1.8-1.5-3-2.7-5.3-3.5a2.5 2.5 0 00-2.5.5 2.6 2.6 0 00-.2 3.6l-.3-.3a3.6 3.6 0 001.1 1.2l.2.2.2.1 1 1 .9.7.4.4.3.2.7.6q.4.3-.2 0a5.7 5.7 0 00.6.5 19 19 0 001.7 1.5l.4.4c.4.3 1 .8 1 1 .2 0 .3.2.3.2l.6.6a3.5 3.5 0 001.8 1 3 3 0 002.2-.6 3.1 3.1 0 00.4-4.4z"/>
</svg>
