<svg xmlns="http://www.w3.org/2000/svg" viewBox="0 0 364 285.613">
  <defs>
    <clipPath id="pattern-3-a">
      <rect width="363.999" height="285.613" fill="none"/>
    </clipPath>
  </defs>
  <g >
    <g clip-path="url(#pattern-3-a)"  transform="translate(-79.755 -75.507) translate(79.755 75.507)">
      <g >
        <g >
          <g >
            <path d="M436.411-65.811c-4.575-.37-9.149-.631-13.724-.836-17.292-.714-34.578-.968-51.875-1.183-2.341-.025-4.458-.016-6.671.162-2.246.18-4.3.444-6.209.726a125.447 125.447 0 00-12.786 2.555 130.591 130.591 0 00-13.212 4.116c-3.665 1.343-7.451 2.946-11.978 4.592a33.013 33.013 0 01-9.415 2.3 8.381 8.381 0 01-7.1-2.681c-2.707-2.377-9.4-3.374-16.076-4.149-8.133-.914-17.331-1.537-26.738-2.222-8.3-.571-17.009-1.3-25.78-1.173-6.992.107-14.074.686-21.072 1.207s-13.995 1.1-20.993 1.64c-14 1.108-27.937 1.213-41.925 1.356-14.514.182-29.04.641-43.556 1.98-6.932.656-14.274.174-20.716 5.8-5.894 5.156-10.471 13.962-14.946 22.342-4.622 8.658-9.438 17.444-15.7 21.849-8.519 6-17.542 1.32-25.877-4.188-12.489-8.25-24.376-19.7-36.44-28.9a113.25 113.25 0 00-18.127-11.736 44.915 44.915 0 00-16.276-4.956q.022-2.018.045-4.036a39.2 39.2 0 0116.21 3.729A97.091 97.091 0 01-6.333-46.541C5.783-37.673 17.716-26.254 30.28-18.057c8.2 5.354 17.526 10.128 25.921 4.035 6.293-4.556 10.893-14 15.309-23.094 4.262-8.776 8.7-18.06 14.7-22.934a15.668 15.668 0 019.9-3.63c3.682-.079 7.365-.139 11.047-.209q21.766-.412 43.533-.833 21.036-.4 42.071-.813l21.067-.408c6.974-.148 14.017-.463 20.983-.355 8.817.144 17.591 1.1 25.967 1.842 9.527.887 18.888 1.652 27.1 2.651 6.787.855 13.31 1.9 15.706 4.318 1.139 1.151 2.691 2.969 7.017 2.9a30.9 30.9 0 009.291-2.156c4.51-1.614 8.232-3.187 11.837-4.5a128.1 128.1 0 0113.121-4.037c3.9-.973 7.982-1.817 12.808-2.544 1.92-.29 4-.57 6.279-.777 2.216-.2 4.4-.25 6.733-.29q26.008-.463 52.016-.9l13.676-.226q.027 2.111.049 4.206z"/>
            <path d="M436.528-54.894a127.652 127.652 0 00-13.7-3.23c-17-2.919-33.9-4.45-50.951-6.068a50.823 50.823 0 00-6.608-.232c-2.207.085-4.261.285-6.2.523a111.875 111.875 0 00-13.072 2.422 138.991 138.991 0 00-13.8 4.169c-3.936 1.4-8.01 3.053-12.692 4.748a42.56 42.56 0 01-10.06 2.66 9.767 9.767 0 01-7.623-2.079 22.188 22.188 0 00-7.011-2.292 93.886 93.886 0 00-9.62-1.318c-7.792-.72-16.435-1.066-25.386-1.307a211.674 211.674 0 00-24.9.413c-13.872 1.222-27.82 5.131-41.638 8.584a121.165 121.165 0 01-20.629 3.521c-6.867.433-13.66-.184-20.532-.133-14.415.135-28.973 1.364-43.372 5.587-7.016 2.056-13.944 4.343-20.394 10.195-5.848 5.3-11.053 12.509-16.322 19.3C66.581-2.426 60.941 4.162 54.556 7.607c-3.564 1.926-7.366 3.128-11.106 2.255-5.024-1.168-9.951-3.89-14.752-7.056-12.155-8.028-23.8-19.165-35.592-28.815a177.316 177.316 0 00-16.637-12.517 68.329 68.329 0 00-17.358-8.186l.046-4.154a58.084 58.084 0 0117.5 7.191A151.234 151.234 0 01-6.625-31.562c11.922 9.541 23.681 20.859 35.99 29.029 4.812 3.19 9.762 5.95 14.813 7.068 3.736.829 7.517-.361 11.037-2.548C61.51-1.92 66.787-9.453 71.859-17.196c4.921-7.513 9.837-15.4 15.662-20.724 6.422-5.869 13.489-7.078 20.479-8.566 14.467-3.069 29.013-3.943 43.484-4.065 6.916-.048 13.788.383 20.7.068a166.193 166.193 0 0020.823-2.564c13.9-2.518 27.965-5.468 41.88-6.274a245.573 245.573 0 0125.312.184c9.154.4 18.037.842 25.985 1.635 6.465.663 13.346 1.56 16.475 3.842a9.045 9.045 0 007.363 2.328 37.977 37.977 0 009.754-2.523c4.6-1.682 8.545-3.322 12.355-4.7a135.793 135.793 0 0113.514-4.178 116.157 116.157 0 0112.906-2.509c1.917-.26 3.96-.49 6.175-.618a56.262 56.262 0 016.618.064c17.166 1.057 34.261 2.122 51.4 4.239 4.577.6 9.156 1.346 13.733 2.346q.028 2.156.051 4.317z"/>
            <path d="M436.643-43.978a88.517 88.517 0 00-13.512-5.107c-8.276-2.379-16.435-3.951-24.62-5.5-8.186-1.516-16.4-3.011-24.782-4.427a46.747 46.747 0 00-6.651-.736c-2.23-.063-4.349.017-6.381.159a103.047 103.047 0 00-13.741 1.952 142.018 142.018 0 00-14.791 3.94c-4.347 1.393-8.842 3.056-13.795 4.758a61.037 61.037 0 01-11.067 3 16.591 16.591 0 01-4.955.008 12.732 12.732 0 01-3.559-1.377 32.678 32.678 0 00-7.448-1.833c-2.922-.484-6.043-.819-9.285-1.071-7.3-.561-15.24-.757-23.578-.687a147.83 147.83 0 00-23.592 1.708 108.23 108.23 0 00-20.431 5.868c-6.765 2.594-13.5 5.752-20.252 8.61-6.617 2.781-13.339 5.247-19.975 6.015a66.527 66.527 0 01-10.072-.036c-3.285-.106-6.593-.14-9.921-.067-14.208.3-28.8 2.676-42.911 9.813-13.6 6.784-25.985 19.235-38.9 28.68-6.524 4.749-13.2 8.616-20.079 10.565-3.753 1.068-7.673 1.952-11.486 1.022-4.9-1.19-9.731-3.729-14.459-6.741C14.731 7.092 3.477-3.336-7.9-12.947c-5.313-4.5-10.743-9.088-16.269-13.089a107.276 107.276 0 00-16.843-10.18l.047-4.272a88.549 88.549 0 0117.076 9.452c5.594 3.87 11.083 8.431 16.438 12.924C4.11-8.438 15.536 2.315 27.418 10.03c4.765 3.089 9.639 5.714 14.6 6.91 3.77.913 7.635-.154 11.3-1.6 6.629-2.607 12.871-7.63 18.931-13.354 5.833-5.512 11.548-11.61 17.545-16.774a74.189 74.189 0 0120.353-12.417c14.247-5.959 28.825-7.826 43.126-8.042 3.364-.053 6.714-.018 10.048.073a83.662 83.662 0 0010.182.068c6.734-.62 13.536-2.674 20.266-5 13.649-4.882 27.328-10.249 41.123-12.081a170.621 170.621 0 0124.169-1.22c8.6.04 16.844.282 24.359.9 3.32.278 6.507.643 9.443 1.174a27.61 27.61 0 017.293 2.039 11.366 11.366 0 008.115 1.675 52.028 52.028 0 0010.622-2.859c4.832-1.7 9.143-3.369 13.308-4.772a142.007 142.007 0 0114.35-4.073 106.506 106.506 0 0113.431-2.191c1.987-.189 4.073-.325 6.287-.33a47.058 47.058 0 016.623.516c8.44 1.14 16.776 2.4 25.1 3.71 8.32 1.338 16.623 2.722 25 4.789a99.583 99.583 0 0113.605 4.4q.023 2.232.046 4.451z"/>
            <path d="M436.76-33.061a72.029 72.029 0 00-13.222-6.528 207.284 207.284 0 00-23.52-6.659c-7.788-1.846-15.646-3.782-23.934-5.88a53.637 53.637 0 00-6.764-1.368 60.706 60.706 0 00-6.688-.413 94.559 94.559 0 00-14.65 1.063c-10.08 1.456-20.03 4.466-31.179 8.029a98.877 98.877 0 01-12.306 3.339 24.523 24.523 0 01-5.58.412 17.439 17.439 0 01-4.058-.915 58.11 58.11 0 00-7.736-1.219c-2.853-.347-5.791-.611-8.81-.811-6.718-.439-13.857-.611-21.477-.367a105.307 105.307 0 00-22 2.666 81.569 81.569 0 00-19.918 8.221c-6.51 3.608-12.947 7.976-19.476 12-6.285 3.848-12.777 7.3-19.161 8.433-3.388.6-6.5.223-9.759.075-3.149-.139-6.347-.164-9.582-.027a75.824 75.824 0 00-42.273 14.3c-7.029 5.05-13.491 12.2-20.55 17a72.739 72.739 0 01-21.246 9.9 88.19 88.19 0 01-23.239 3.144c-4 .046-8.072.234-12.069-.718a50.594 50.594 0 01-14.03-6.178C12.449 17.765 1.676 8.276-9.187-.98-19.54-9.928-30.224-18.932-41.125-25.721q.024-2.195.049-4.39C-29.96-23.894-19.098-14.934-8.622-5.877c11.086 9.433 22.068 19.333 33.4 26.343a50.174 50.174 0 0014.221 6.432c3.906.944 7.914.429 11.808-.056a75.187 75.187 0 0021.871-6.321A112.525 112.525 0 0092.739 8.538c6.856-5.054 13.443-11.3 20.46-15.709 13.885-8.778 28.49-11.959 42.555-12.412 3.274-.109 6.52-.08 9.728.045 3.3.133 6.491.487 9.9-.027 6.49-.983 13.083-4.029 19.515-7.444 6.629-3.543 13.2-7.412 19.823-10.6a90.5 90.5 0 0120.138-7.249 121.088 121.088 0 0122.69-2.307c7.929-.188 15.412-.021 22.381.464 3.117.22 6.135.514 9.021.921a43.857 43.857 0 017.628 1.495 15.073 15.073 0 003.84 1.122 20.638 20.638 0 005.308-.234 79.266 79.266 0 0011.768-3.193c10.9-3.6 20.376-6.7 30.051-8.367a98.086 98.086 0 0114.251-1.488 61.881 61.881 0 016.549.147 49.341 49.341 0 016.711 1.088c8.318 1.812 16.333 3.588 24.3 5.329a230.666 230.666 0 0124.006 6.278 77.771 77.771 0 0113.351 5.983q.025 2.274.047 4.559z"/>
            <path d="M436.872-22.144a61.614 61.614 0 00-12.88-7.6c-7.742-3.318-14.934-5.03-22.262-7-7.327-1.909-14.791-4.077-23.07-6.861-2.311-.776-4.607-1.57-6.906-2.107a60.663 60.663 0 00-7.049-1.193 86.978 86.978 0 00-15.673-.258c-11.114.748-22.208 3.446-33.989 6.916-4.447 1.3-9.109 2.742-13.645 3.717a39.428 39.428 0 01-6.259.9 27.87 27.87 0 01-4.6-.338c-2.566-.255-5.356-.274-7.959-.449-2.759-.186-5.5-.38-8.274-.545-5.693-.343-11.821-.654-18.4-.45a76.527 76.527 0 00-21.133 3.384 68.049 68.049 0 00-19.4 10.459c-6.22 4.562-12.3 10.049-18.554 15.147-5.9 4.781-12.137 9.144-18.276 10.6-3.355.79-6.287.346-9.415.148a74.091 74.091 0 00-9.224-.013c-13.721.826-28.339 6.28-41.558 18.7a122.5 122.5 0 00-10.805 11.852 34.378 34.378 0 01-10 8.115c-7.954 4.472-16.194 5.486-24.2 5.159-8.9-.344-17.735-2.461-26.635-4.55-4.249-1-8.477-1.737-12.74-2.709a51.949 51.949 0 01-13.542-5.545C9.966 27.482-.285 19.017-10.596 10.279c-10.027-8.591-20.267-17.589-30.636-25.5l.05-4.508c10.6 7.467 21.03 16.48 31.2 25.236 10.55 8.971 21.027 17.878 31.755 24.08a51.251 51.251 0 0013.754 5.814c4.144.962 8.3 1.284 12.449 1.84 8.389 1.126 16.766 1.972 25.167 1.253a51.425 51.425 0 0022.922-7.127 42.9 42.9 0 009.835-7.943 112.162 112.162 0 0110.851-10.78 69.3 69.3 0 0141.868-16.838 87.315 87.315 0 019.379.011c3.185.174 6.2.585 9.564-.126 6.241-1.324 12.59-5.306 18.659-9.706 6.378-4.651 12.616-9.671 18.962-13.832a72.793 72.793 0 0119.617-9.509 88.121 88.121 0 0121.966-3.173c6.9-.2 13.346.065 19.273.435 2.882.178 5.706.4 8.507.66 2.606.239 5.417.375 7.865.8a22.26 22.26 0 004.367.6 31.779 31.779 0 005.965-.678c4.363-.866 8.853-2.276 13.066-3.549 11.5-3.508 22.11-6.358 32.773-7.444a90 90 0 0115.231-.358 60.212 60.212 0 016.891.835 63.938 63.938 0 016.844 1.779c8.271 2.489 15.906 4.583 23.436 6.5 7.53 1.97 14.955 3.761 22.814 6.947a65.67 65.67 0 0113.027 7.173q.026 2.34.047 4.685z"/>
            <path d="M436.993-11.227a54.029 54.029 0 00-12.555-8.485c-7.477-3.53-14.113-4.88-20.971-6.7a156.872 156.872 0 01-22.291-7.421c-2.339-.967-4.692-2.065-7.038-2.894a64.514 64.514 0 00-7.393-2.114 82.068 82.068 0 00-16.66-1.919c-12.129-.216-24.281 2.039-36.732 5.437-4.951 1.341-10 2.88-14.952 4.143-2.36.6-4.7 1.133-6.921 1.468-1.873.284-3.405.241-5.133.367-2.823.206-5.576.474-8.2.471-2.666 0-5.221-.127-7.757-.275-5.174-.306-10.56-.787-16.418-.662a55.393 55.393 0 00-19.254 3.644c-6.87 2.674-13.038 7.094-18.975 12.565-5.937 5.437-11.645 11.926-17.591 17.954-5.5 5.542-11.481 10.715-17.412 12.4-3.336.939-6.088.389-9.081.1a52.478 52.478 0 00-8.873-.09c-13.521.972-28.146 8.16-40.867 22.738a149.023 149.023 0 00-10.688 14.25 26.151 26.151 0 01-10.349 8.636c-9.071 4.439-18.354 3.492-27.086 1.211-10.006-2.576-19.849-7.468-29.956-11.866a74.986 74.986 0 00-13.383-4.686 55.094 55.094 0 01-13.074-5.014c-9.779-5.057-19.512-12.7-29.274-20.89-9.762-8.251-19.554-17.044-29.458-25.887q.026-2.313.051-4.626c10.079 8.44 20.075 17.408 29.914 25.775 10 8.428 19.963 16.333 30.076 21.757 8.777 4.721 17.63 5.982 26.383 9.059 9.579 3.38 18.987 7.088 28.521 8.729 8.427 1.476 17.26 1.595 25.841-2.826a28.633 28.633 0 0010.209-8.379 137.22 137.22 0 0110.738-13.218c12.939-13.673 27.559-20.092 41.163-21.018a60.725 60.725 0 019.025.042c3.052.242 5.882.739 9.224-.141 6.018-1.594 12.112-6.423 17.785-11.652 6.084-5.638 11.955-11.7 18.014-16.762 6.059-5.094 12.306-9.187 19.148-11.653a63.813 63.813 0 0120.066-3.566c6.174-.173 11.884.221 17.28.539 2.64.153 5.272.308 7.978.395 2.612.083 5.368-.047 8.088-.047a41.411 41.411 0 004.9-.04 54.085 54.085 0 006.636-1.205c4.766-1.131 9.651-2.625 14.388-3.949 12.155-3.426 23.857-5.891 35.55-6.127a83.815 83.815 0 0116.238 1.155 62.321 62.321 0 017.248 1.7c2.325.7 4.659 1.664 6.984 2.547a211.572 211.572 0 0022.618 7.218c7.062 1.909 13.943 3.446 21.535 6.895a57.083 57.083 0 0112.692 8.1q.023 2.41.049 4.817z"/>
            <path d="M437.109-.31a49.006 49.006 0 00-12.3-9.371c-7.236-3.7-13.359-4.536-19.8-6.063a93.312 93.312 0 01-21.676-7.724c-2.366-1.15-4.74-2.521-7.122-3.63a72.646 72.646 0 00-7.649-3.045 80.706 80.706 0 00-17.475-3.733c-13-1.34-26.025.366-39.122 3.721-5.365 1.368-10.763 3.02-16.1 4.618-2.524.755-5.04 1.5-7.494 2.124-1.938.5-3.708.753-5.59 1.2a57.181 57.181 0 01-8.557 1.541 52.519 52.519 0 01-7.34.011c-9.479-.45-18.771-3.322-32.208 2.56-6.977 3.136-13.005 8.266-18.7 14.53-5.7 6.229-11.064 13.591-16.71 20.383-5.124 6.134-10.89 12-16.662 13.792-3.339 1.026-5.934.311-8.8-.113a38.9 38.9 0 00-8.551-.305 44.088 44.088 0 00-19.305 6.347c-7.477 4.462-14.65 11.419-21 19.852a172.788 172.788 0 00-10.6 16.426 23.683 23.683 0 01-10.527 9.42c-10.079 4.725-20.29 2.182-29.6-1.561-10.958-4.341-21.682-11.6-32.9-18.157-4.537-2.661-9.141-5.219-13.881-6.365a62.3 62.3 0 01-12.7-4.749c-9.37-4.6-18.719-11.411-28.078-19.238-9.359-7.866-18.727-16.751-28.14-26.407q.026-2.372.053-4.744c9.618 9.282 19.166 18.108 28.7 26.124 9.53 7.966 19.043 15.121 28.587 19.9a58.332 58.332 0 0012.853 4.826c4.653 1.075 9.184 3.3 13.681 5.662 10.735 5.619 21.082 11.872 31.633 15.48 9.072 3.147 18.881 5.021 28.529.471a24.408 24.408 0 0010.476-9.028 162.947 162.947 0 0110.636-15.471c12.462-15.6 27.1-23.741 40.535-24.716a44.3 44.3 0 018.691.188c2.919.354 5.582.988 8.916-.008 5.838-1.758 11.7-7.327 16.981-13.213 5.777-6.466 11.291-13.449 17.09-19.331 5.8-5.916 11.882-10.731 18.8-13.66a46.6 46.6 0 0118.3-3.67c5.481-.039 10.478.574 15.4.871a74.553 74.553 0 007.511.121 70.947 70.947 0 008.379-1.039c1.819-.295 3.485-.407 5.4-.806 2.354-.49 4.8-1.135 7.251-1.818 5.166-1.441 10.416-3.041 15.608-4.4 12.814-3.371 25.472-5.337 38.1-4.516a80.879 80.879 0 0117.137 2.91 68.4 68.4 0 017.549 2.633c2.369.988 4.737 2.243 7.093 3.312a115.29 115.29 0 0021.929 7.6c6.618 1.667 12.963 2.746 20.3 6.365a50.934 50.934 0 0112.4 8.954q.042 2.471.069 4.939z"/>
            <path d="M437.226 10.607a47.189 47.189 0 00-12.189-10.5c-7.6-4.255-13.41-4.519-19.719-5.881a67.2 67.2 0 01-20.473-7.689c-2.362-1.313-4.741-2.871-7.118-4.187a85.937 85.937 0 00-7.747-3.8 82.816 82.816 0 00-17.977-5.424c-13.622-2.473-27.251-1.39-40.872 1.948-5.654 1.383-11.31 3.156-16.946 5.127-4.674 1.636-9.2 3.182-13.819 4.983a46.225 46.225 0 01-9.1 2.76 30.871 30.871 0 01-7.1.335c-8.889-.457-16.417-4.55-29.47 1.851-7.15 3.582-13.111 9.368-18.641 16.335-5.53 6.932-10.629 15.044-16.046 22.467-4.844 6.607-10.454 13.026-16.116 14.781-3.373 1.033-5.848.093-8.6-.532a30.166 30.166 0 00-8.283-.689 38.343 38.343 0 00-19.036 6.773c-7.606 5.057-14.765 12.99-20.924 22.169a186.4 186.4 0 00-10.574 18.363 23.587 23.587 0 01-10.4 10.524 25.744 25.744 0 01-14.647 2.218 52.943 52.943 0 01-16.8-5.152c-11.671-5.519-23.053-14.558-35.143-22.782-4.6-3.141-9.245-6.035-14.119-7.441a77.635 77.635 0 01-12.5-4.9c-18.151-9-36.28-24.881-54.445-46.016l.054-4.862a293.508 293.508 0 0027.59 26.912c9.187 7.733 18.37 14.216 27.564 18.69a69.117 69.117 0 0012.568 4.772c4.822 1.266 9.475 4.087 14.048 7.038 11.719 7.533 22.83 15.833 34.207 20.886a52.96 52.96 0 0016.317 4.66 26.652 26.652 0 0014.378-2.18 23.41 23.41 0 0010.505-9.971 181.7 181.7 0 0110.579-17.495c6.239-8.855 13.4-16.35 20.94-21.146a40.833 40.833 0 0119.144-6.621 33.739 33.739 0 018.4.489c2.8.523 5.325 1.352 8.678.311 5.708-1.791 11.38-7.974 16.338-14.372 5.51-7.143 10.721-14.922 16.318-21.54 5.6-6.653 11.58-12.144 18.641-15.521 13.187-6.161 21.508-2.658 30.628-2.2a38.165 38.165 0 007.185-.178 49.322 49.322 0 008.82-2.177c1.941-.62 3.818-1.069 5.784-1.686 2.555-.8 5.145-1.662 7.74-2.506 5.509-1.794 11.059-3.511 16.6-4.888 13.4-3.344 26.788-4.721 40.159-2.763a81.434 81.434 0 0117.792 4.676 79.008 79.008 0 017.726 3.485c2.386 1.234 4.764 2.72 7.134 3.96a77.729 77.729 0 0020.662 7.57c6.444 1.476 12.427 1.96 20.044 6.033a47.572 47.572 0 0112.211 9.924q.023 2.53.05 5.059z"/>
            <path d="M437.342 21.546a50.375 50.375 0 00-12.23-11.981c-7.613-4.854-13.209-4.96-19.364-6.3a58.584 58.584 0 01-20.336-8.22c-4.8-2.961-9.871-6.274-14.688-8.638a87.289 87.289 0 00-18.055-6.627c-13.872-3.371-27.737-2.892-41.608.457a133.859 133.859 0 00-31.449 12.345c-6.513 3.493-12.173 4.948-16.87 4.672-8.7-.4-14.946-5.686-27.981 1.278-7.285 3.963-13.262 10.322-18.749 17.876-5.487 7.518-10.484 16.231-15.8 24.091-4.751 6.995-10.319 13.753-15.922 15.438-3.412 1.013-5.825-.1-8.523-.865a26.175 26.175 0 00-8.131-.961c-5.729.222-12.284 2.326-18.916 7.033-7.736 5.48-14.917 14.115-20.972 23.775a188.247 188.247 0 00-10.636 19.741c-2.625 5.553-5.9 9.431-10 11.745a24.026 24.026 0 01-14.853 2.663 51.238 51.238 0 01-17.375-5.515c-11.983-5.952-23.657-15.871-36.216-24.824a59.594 59.594 0 00-14.054-7.664 112.66 112.66 0 01-12.515-5.6c-17.935-9.343-35.871-24.758-53.8-48.72q.028-2.5.055-4.992C-23.668 44.219-5.699 59.78 12.276 68.86a91.382 91.382 0 0012.494 5.2 53.492 53.492 0 0114.1 7.655c12.421 8.786 24.027 18.464 35.942 24.333a52.26 52.26 0 0017.226 5.482 24.672 24.672 0 0014.823-2.425c3.993-2.12 7.514-5.8 10.162-11.242a188.044 188.044 0 0110.589-19.283c6.085-9.507 13.255-17.9 20.949-23.221 6.616-4.582 13.182-6.641 18.956-6.844a26.962 26.962 0 018.173.966c2.711.757 5.145 1.838 8.549.838 5.622-1.672 11.187-8.307 15.943-15.145 5.352-7.727 10.353-16.186 15.833-23.448 5.48-7.3 11.438-13.4 18.711-17.207 13-6.682 19.7-1.885 28.431-1.439 4.724.305 10.088-.927 16.571-3.986a165.285 165.285 0 0131.271-11.315c13.807-3.336 27.622-4.076 41.438-1.068a85.208 85.208 0 0118.069 6.153q3.855 1.806 7.711 4.055c2.353 1.373 4.728 2.973 7.067 4.361a59.384 59.384 0 0020.35 7.912c6.192 1.275 11.837 1.337 19.45 5.868a47.882 47.882 0 0112.2 11.281q.028 2.603.058 5.205z"/>
            <path d="M437.48 34.443a70.771 70.771 0 00-12.2-13.312c-7.094-5.719-13.036-7.729-19.286-10.133a120.345 120.345 0 01-21.13-9.964c-4.771-2.828-9.964-6.443-14.778-8.934a86.985 86.985 0 00-18.342-7.161 80.523 80.523 0 00-40.017.02 99.94 99.94 0 00-17.347 6.01 111.252 111.252 0 00-13.563 7.476c-6.329 4.012-12.222 5.431-16.851 5.4-8.79.059-15.784-4.442-28.488 3.227-6.807 4.159-13.485 12.114-19.027 19.6-5.606 7.525-10.814 15.744-16.68 23.739-5.192 7.055-11.081 13.911-16.869 16.551-3.28 1.488-5.781 1.133-8.574 1.174a45.041 45.041 0 00-8.493.931 49.018 49.018 0 00-18.418 8.229c-7.417 5.261-14.475 13.078-20.6 22.064a174.077 174.077 0 00-10.639 18.049 25.443 25.443 0 01-10.808 11.323 24.461 24.461 0 01-14.083 2.27 49.509 49.509 0 01-16.437-5.151c-11.525-5.633-22.788-15.018-34.98-23.349-8.585-5.88-17.635-8.883-26.606-13.357a123.99 123.99 0 01-27.538-18.23c-9.181-8.063-18.367-18.644-27.558-32.563q.032-2.928.065-5.855c18.1 26.043 36.206 40.8 54.307 50.131 4.161 2.17 8.323 4.08 12.481 5.838a73.459 73.459 0 0114.149 7.731c12.346 8.622 23.8 18.208 35.53 23.972a50.762 50.762 0 0016.994 5.346 24.5 24.5 0 0014.738-2.546c4.039-2.184 7.61-5.959 10.334-11.4a191.545 191.545 0 0110.654-18.974c6.1-9.364 13.227-17.641 20.819-23.078a41.762 41.762 0 0118.818-7.832 33.125 33.125 0 018.215-.051c2.744.33 5.182 1.074 8.512-.186 5.667-2.16 11.37-8.969 16.3-15.968 5.741-8.172 10.7-16.477 16.263-24.031 5.4-7.37 11.793-14.577 18.555-18.484 13-7.4 19.615-2.318 28.427-2.133 4.617.158 10.267-1.251 16.629-4.921a137.422 137.422 0 0114.076-7.243 110.049 110.049 0 0117.166-5.793c13.743-3.374 27.467-3.728 41.2-.227a87 87 0 0118.011 6.868c4.829 2.441 10.013 5.974 14.806 8.857a76.849 76.849 0 0021.146 9.151c6.1 1.735 11.807 2.765 18.849 7.779a58.49 58.49 0 0112.2 12.49q.033 3.326.068 6.65z"/>
            <path d="M437.645 49.962a117.3 117.3 0 00-12.367-15.871 98.765 98.765 0 00-20.5-16.4c-6.72-4.164-13.593-7.976-21.408-12.645-4.776-2.857-9.834-6.342-14.63-8.878a87.985 87.985 0 00-17.748-7.2 74.7 74.7 0 00-38.233-.536 81.931 81.931 0 00-16.546 5.959A83.351 83.351 0 00283.192 2.5a33.9 33.9 0 01-16.615 6.649c-9.3 1.05-17.24-2.245-29.808 6.747a67.165 67.165 0 00-9.84 9.49c-3.32 3.7-6.54 7.642-9.725 11.7-6.128 7.8-12.154 16.169-18.609 24.128-5.942 7.31-12.394 14.333-18.644 18.015-3.243 1.906-5.988 2.416-8.92 3.151-2.8.7-5.644 1.466-8.565 2.407a70.922 70.922 0 00-18.041 8.567 86.51 86.51 0 00-20.108 19.585 156.08 156.08 0 00-10.6 16.07 24.272 24.272 0 01-10.821 10.144 23.26 23.26 0 01-13.207 1.558 48.169 48.169 0 01-15.03-5.2c-10.551-5.427-20.9-14.1-32.213-21.507-8.593-5.641-17.683-8.412-26.62-11.909-9.7-3.779-19.278-8.352-28.893-16.126-9.53-7.652-19.235-18.587-28.918-34.535l.074-6.66c9.426 14.954 18.82 25.806 28.2 33.73 9.38 7.964 18.746 13 28.12 17.23 8.949 4.051 18.045 7.045 26.622 12.8 11.787 7.885 22.629 16.915 33.7 22.431a48.868 48.868 0 0015.784 5.145 24.028 24.028 0 0013.7-1.951 24.991 24.991 0 0010.874-10.768 166.038 166.038 0 0110.624-17.1c6.145-8.573 13.127-15.889 20.365-20.914a58.374 58.374 0 0118.243-8.5 69.49 69.49 0 018.537-1.717c2.857-.4 5.467-.465 8.718-2.17 5.987-3.149 12.137-10.079 17.678-17.248 6.139-7.964 11.734-16.249 17.567-23.888 3.04-3.986 6.151-7.836 9.408-11.4a56.86 56.86 0 019.813-8.966c12.642-8.3 20.093-4.335 29.115-4.843A32.376 32.376 0 00281.87.679a96.216 96.216 0 0113.329-7.827 90.5 90.5 0 0116.984-6.014 77.546 77.546 0 0139.2.251 87.341 87.341 0 0118.085 7.216c4.809 2.523 9.961 6.117 14.734 8.943 8.064 4.777 14.762 7.99 21.23 11.166 6.469 3.255 12.708 6.472 19.863 13.074a89.79 89.79 0 0112.265 14.484q.042 3.995.085 7.99z"/>
            <path d="M437.829 67.238a213.244 213.244 0 00-12.677-19.206 155.712 155.712 0 00-43.944-40.32c-4.768-2.978-9.585-6.091-14.331-8.609a90.4 90.4 0 00-16.45-6.868 69.019 69.019 0 00-36.444-1.188 66.591 66.591 0 00-15.1 5.58 59.112 59.112 0 00-7.134 4.329c-1.9 1.348-3.6 2.881-5.424 4.418a38.74 38.74 0 01-16.1 8.135c-10.17 2.486-19.246.66-31.846 11.49a110.626 110.626 0 00-9.8 10.411c-3.433 3.92-6.85 7.966-10.282 12.072-7 8.366-14.078 17.061-21.381 25.21-6.868 7.654-14.025 14.915-20.987 19.758-6.155 4.288-11.985 6.255-17.836 8.609a126.015 126.015 0 00-17.825 8.355 81.961 81.961 0 00-19.548 16.54 147.46 147.46 0 00-10.52 13.9 22.345 22.345 0 01-10.219 8.434c-9.178 3.548-17.86-.394-25.629-4.883-9.211-5.285-18.292-13.149-28.369-19.471-8.706-5.492-17.679-7.3-26.61-9.434-10.505-2.51-20.708-5.761-31.006-13.108-9.873-6.971-20.162-17.884-30.5-35.883l.08-7.25c9.976 16.932 19.945 27.888 29.633 35.228 9.932 7.589 19.8 11.548 29.873 14.76 8.926 2.855 17.971 5.222 26.6 10.77 10.788 6.9 20.587 15.234 30.558 20.594a47.442 47.442 0 0014.2 5.289 22.244 22.244 0 0012.639-1.111 23.352 23.352 0 0010.7-9.457 144.622 144.622 0 0110.552-14.993 84.514 84.514 0 0119.821-18.112 89.738 89.738 0 0117.817-8.471c2.9-1.059 5.745-2.021 8.581-3.017a39.706 39.706 0 009.167-4.112c6.57-4.238 13.352-11.368 19.732-18.837 6.8-7.981 13.289-16.443 19.769-24.445 3.346-4.135 6.7-8.175 10.105-12.03a82.884 82.884 0 019.92-10.042c12.484-9.735 20.933-7.2 30.551-8.868a35.944 35.944 0 0016.549-7.423 72.577 72.577 0 0112.658-8.338 74.064 74.064 0 0116.052-5.862 71.911 71.911 0 0137.15.829 88.917 88.917 0 0117.352 7.134c4.772 2.535 9.707 5.849 14.479 8.758 7.612 4.631 14.683 9.117 21.669 14.361a124.97 124.97 0 0121.16 19.988 156.145 156.145 0 0112.5 17.436q.047 4.475.095 8.95z"/>
            <path d="M438.024 85.405q-6.516-12.257-13.039-22.801-23.1-37.429-46.158-52.789c-21.344-14.134-41.881-21.51-63.2-16.653a53.477 53.477 0 00-13.95 5.3 47.123 47.123 0 00-6.6 4.4 63.5 63.5 0 00-5.028 4.709 43.8 43.8 0 01-16.04 9.953c-10.943 4.018-21.143 4.057-33.537 16.535-3.45 3.517-6.736 7.67-10.107 11.57q-5.54 6.4-11.218 12.818c-7.927 8.942-16.012 17.825-24.15 26.133-14.28 14.575-28.371 26.757-42.052 33.172-11.8 5.583-23.731 8.93-36.2 20.657a115.745 115.745 0 00-10.4 11.5 19.967 19.967 0 01-9.744 6.9c-8.152 2.377-15.552-1.782-22.246-6.238-7.858-5.213-15.65-12.438-24.528-17.77a36.979 36.979 0 00-12.444-4.942 134.587 134.587 0 00-14.075-1.415c-11.388-.878-22.268-2.652-33.312-9.44-10.229-6.202-21.16-16.831-32.288-36.914q.042-3.8.084-7.609c10.711 19 21.3 29.8 31.346 36.405 10.651 7.088 21.175 9.639 32.1 11.4 4.5.725 9.1 1.314 13.731 2.469a44.986 44.986 0 0112.839 5.526c9.506 5.838 17.978 13.386 26.549 18.632 7.263 4.468 15.336 8.509 24.028 5.526a21.217 21.217 0 0010-7.706 132.236 132.236 0 0110.464-12.757c12.462-13.032 24.83-17.631 36.816-22.92a88.342 88.342 0 0018.136-10.038c7.363-5.443 14.881-12.827 22.215-20.648 7.7-8.216 15.262-17 22.693-25.639 3.6-4.183 7.17-8.342 10.723-12.427 3.26-3.752 6.528-7.75 9.94-10.966 12.5-11.619 22.113-10.676 32.65-13.884a41.216 41.216 0 0016.066-8.994c1.753-1.6 3.38-3.161 5.238-4.558a52.873 52.873 0 016.88-4.365 60 60 0 0114.552-5.447 66.216 66.216 0 0135.211 1.489c9.9 3.026 20.039 8.682 30.115 15.176 15.049 9.686 29.982 24.109 44.991 46.225q6.416 9.47 12.847 20.927.051 4.748.102 9.498z"/>
            <path d="M438.218 103.6q-6.771-13.789-13.385-26.168c-16.309-30.422-31.5-53.464-48.315-65.349a121.688 121.688 0 00-13.392-7.838 100.768 100.768 0 00-14.9-6.558c-10.106-3.41-20.374-4.668-30.784-2.393A42.666 42.666 0 00304.311.489a41.687 41.687 0 00-10.407 9.293 47.4 47.4 0 01-16.4 12.065c-11.494 5.4-22.694 7.421-34.724 21.186-3.605 4.166-6.958 8.669-10.658 12.979-4.08 4.752-8.272 9.384-12.49 13.893-8.78 9.39-17.69 18.281-26.553 26.678-8.728 8.274-17.442 16.057-26.154 23.465-6.539 5.556-12.973 11.17-19.325 14.493-11.5 6.04-22.455 7.1-34.739 16.066a81.7 81.7 0 00-10.25 9.027c-3.025 3.118-6.305 5-9.521 5.54-7.015 1.2-13.047-3.062-18.572-7.442-6.56-5.2-13.116-11.96-20.919-16.437a26.581 26.581 0 00-11.34-3.81c-5.183-.34-10.237.261-15.092.613-12.257.88-23.8.551-35.588-5.672a65.265 65.265 0 01-17.78-14.212 118.143 118.143 0 01-16.257-23.525l.086-7.72c11.518 21.041 22.754 31.477 33.144 37.328 11.4 6.513 22.6 7.588 34.409 7.64a120.38 120.38 0 0114.393.451 31.42 31.42 0 0112.086 4.426c8.316 4.9 15.492 11.849 22.7 17.037 6.177 4.453 12.97 8.718 20.634 6.869a18.88 18.88 0 009.51-6.178 101.7 101.7 0 0110.341-10.36c12.445-10.5 23.968-12.732 35.642-18.569 6.141-3.048 12.4-7.684 18.775-12.877 8.247-6.723 16.545-14.371 24.817-22.512 8.54-8.4 17.084-17.361 25.469-26.587 3.937-4.332 7.841-8.727 11.666-13.166 3.484-4.044 6.775-8.315 10.259-12.108 12.303-13.249 23.031-14.174 34.339-18.929A45.62 45.62 0 00291.829 8.61a55.64 55.64 0 014.838-4.851 42.794 42.794 0 016.339-4.44 48.115 48.115 0 0113.4-5.177c10.995-2.489 21.86-1.411 32.6 2.113a97.138 97.138 0 0115.023 6.508 140.6 140.6 0 0113.661 8.032c15.993 10.894 31.389 31.184 47.214 58.746q6.578 11.458 13.211 24.448.051 4.806.103 9.611z"/>
            <path d="M438.402 120.956c-4.716-10.095-9.277-19.761-13.687-28.9-8.568-17.73-16.511-33.376-24.627-46.5-8.117-13.101-16.408-23.678-25.682-30.445a65.147 65.147 0 00-6.681-4.045c-2.135-1.2-4.254-2.395-6.356-3.523a111.274 111.274 0 00-14.035-6.465c-9.258-3.413-18.771-5.089-28.453-3.029a34.326 34.326 0 00-12.063 5.053 37.2 37.2 0 00-9.61 9.854c-4.078 5.778-10.093 10.389-16.289 13.814-12.116 6.744-24.394 10.409-36.293 25.648-1.791 2.311-3.434 4.75-5.255 7.11s-3.7 4.658-5.612 6.908c-4.339 5.1-8.837 9.92-13.332 14.513-9.677 9.9-19.408 18.845-29.047 27.435-9.479 8.459-18.974 16.495-28.5 25.171-6.707 6.1-13.263 13.425-19.9 17.314-11.534 6.748-21.594 5.7-33.658 12.085a63.9 63.9 0 00-10.149 6.778c-3.048 2.46-6.135 3.951-9.186 4.1-6.123.3-11.016-4.1-15.555-8.515-5.272-5.136-10.605-11.392-17.37-15.1a21.336 21.336 0 00-10.726-2.954c-5.435.156-10.675 1.455-15.66 2.411-13.059 2.49-25.223 3.421-37.69-2.335-6.127-2.845-12.327-7.211-18.779-14.147-5.353-5.753-10.972-13.366-16.827-24.38l.084-7.568a115.262 115.262 0 0016.544 23.934 62.519 62.519 0 0018.257 14.166c12.11 5.988 23.951 5.7 36.59 4.051 4.92-.648 10.066-1.588 15.371-1.495a23.666 23.666 0 0111.035 3.391c7.3 4.11 13.279 10.63 19.229 15.806 5.054 4.393 10.544 8.729 17.129 7.97 3.131-.359 6.307-2.049 9.338-4.857a72.654 72.654 0 0110.2-7.969c12.2-7.767 22.74-7.823 34.226-14.154 6.48-3.567 12.984-9.976 19.6-15.781 9.1-8 18.18-15.9 27.275-24.273C201.49 93.542 210.794 84.61 220 74.975c4.354-4.556 8.694-9.281 12.9-14.2 1.872-2.188 3.717-4.415 5.511-6.675s3.465-4.609 5.262-6.8c11.961-14.461 23.661-17.27 35.461-23.322 5.978-3.034 12.054-7.322 16.36-12.894a39.209 39.209 0 0110.022-9.524 38.542 38.542 0 0112.618-5.111c10.061-2.167 19.967-.721 29.671 2.683a104.975 104.975 0 0114.481 6.5c2.149 1.144 4.314 2.361 6.492 3.6a74.058 74.058 0 016.72 4.1c17.609 12.772 32.548 38.086 49.27 70.848q6.622 13.043 13.535 27.529.05 4.62.099 9.247z"/>
            <path d="M438.569 136.609c-4.883-10.611-9.5-20.865-13.867-30.546-9.6-21.185-17.911-39.136-26.565-54.3-7.591-13.259-15.891-25.23-25.278-32.086a61.923 61.923 0 00-6.663-3.972c-2.091-1.173-4.163-2.355-6.21-3.488a127.6 127.6 0 00-13.416-6.593c-8.563-3.5-17.493-5.624-26.625-3.692a28.414 28.414 0 00-11.239 5.082 35.873 35.873 0 00-9.046 10.674c-3.7 6.171-9.525 11.235-16.059 15.245-12.551 7.725-25.829 12.629-37.634 29.117-1.768 2.481-3.344 5.063-5.174 7.579-1.816 2.5-3.734 4.926-5.7 7.268-4.512 5.388-9.235 10.317-13.908 14.917-10.408 10.249-20.765 19.11-31.027 27.812-10 8.5-20.179 16.729-30.324 26.591-2.2 2.145-4.406 4.382-6.578 6.765-1.716 1.882-3.371 3.935-5.077 5.811a47.651 47.651 0 01-8.678 7.645c-5.561 3.7-10.666 4.857-15.652 5.646-5.488.87-11.045 1.352-17.114 3.474a54.56 54.56 0 00-10.1 4.848c-3.137 1.891-6.173 3.1-9.172 2.916-5.459-.352-9.458-4.77-13.21-9.232-4.216-5.031-8.549-10.805-14.536-13.888a19.827 19.827 0 00-10.375-2.349c-5.6.411-10.972 2.193-16.019 3.542-13.71 3.644-26.357 5.438-39.365-.076-6.364-2.721-12.81-7.074-19.559-14.276-5.4-5.762-11.143-13.462-17.167-25.076q.04-3.568.079-7.136c5.937 11.281 11.612 18.93 16.991 24.684 6.773 7.248 13.26 11.655 19.665 14.41 12.531 5.352 24.765 4 37.933.966 5.024-1.163 10.329-2.711 15.853-3.037a20.311 20.311 0 0110.8 2.742c6.263 3.418 11.048 9.343 15.744 14.376 4.153 4.438 8.6 8.884 14.372 8.963 2.982.038 6.02-1.257 9.078-3.42a60.642 60.642 0 0110.382-6.029c11.876-5.259 21.582-3.407 33.173-10.584 6.763-4.2 13.326-12.26 20.108-18.6 9.823-9.2 19.628-17.328 29.362-25.816 10.054-8.752 20.211-17.789 30.354-28.01 4.457-4.489 8.931-9.237 13.235-14.323 1.941-2.294 3.842-4.652 5.666-7.072 1.755-2.329 3.3-4.708 4.995-7.014 11.959-16.184 24.865-20.457 37.359-27.819 6.3-3.687 12.068-8.44 15.975-14.3a37.257 37.257 0 019.254-10.191 31.418 31.418 0 0111.955-5.18c9.274-1.919 18.364-.1 27.162 3.255a117.326 117.326 0 0114.072 6.645c2.067 1.123 4.154 2.3 6.257 3.481a60.546 60.546 0 016.655 4.019c9.074 6.68 17.274 17.743 24.941 30.494 8.525 14.213 16.777 31.13 26.058 50.98 4.392 9.419 8.976 19.384 13.769 29.759q.046 4.199.09 8.399z"/>
            <path d="M438.709 149.694c-4.94-10.469-9.557-20.871-13.861-30.7-10.027-22.788-18.36-42.085-27.13-58.49-7.358-13.726-15.814-27.171-25.552-33.944-2.238-1.562-4.5-2.637-6.743-3.924-2.112-1.212-4.2-2.448-6.254-3.643-4.491-2.611-8.846-5.035-13.185-7.008-8.112-3.7-16.712-6.326-25.555-4.417a24.833 24.833 0 00-10.779 5.33 37.26 37.26 0 00-8.839 11.854 36.007 36.007 0 01-6.89 9.389 54.586 54.586 0 01-8.757 6.765c-12.755 8.169-26.9 13.688-38.632 31.057-1.73 2.566-3.21 5.248-4.971 7.865-1.745 2.593-3.636 5.112-5.587 7.509a162.66 162.66 0 01-14.084 15.017c-10.877 10.381-21.592 18.94-32.23 27.6-10.213 8.338-20.9 16.674-31.359 27.6-2.241 2.345-4.469 4.833-6.619 7.508-1.76 2.188-3.39 4.552-5.119 6.754a52.788 52.788 0 01-8.82 9.062 28.419 28.419 0 01-15.407 6.039c-5.435.583-10.771.39-16.756 1.674a49.431 49.431 0 00-10.118 3.4c-3.331 1.517-6.546 2.531-9.644 2.1-5.112-.719-8.6-4.974-11.882-9.482-3.534-4.875-7.223-10.124-12.783-12.681-9.016-4.169-18.335-.722-26.484 1.578-14.142 4.028-27.063 6.107-40.395.492-6.491-2.763-13.074-7.207-20.007-14.712-5.335-5.773-11.121-13.55-17.157-25.621l.071-6.407c6.053 11.833 11.825 19.564 17.213 25.331 6.845 7.327 13.366 11.706 19.8 14.422 13.18 5.509 25.976 3.51 39.9-.413 8.135-2.265 17.457-6 26.421-1.551 5.755 2.842 9.755 8.4 13.619 13.367 3.5 4.484 7.223 8.856 12.487 9.4 3.017.307 6.106-.8 9.308-2.509a51.52 51.52 0 0110.1-4.15c6.033-1.715 11.485-1.859 16.937-2.566a32.1 32.1 0 0015.525-5.721 49.166 49.166 0 008.73-8.221c1.72-2.019 3.369-4.207 5.107-6.219 2.174-2.517 4.4-4.866 6.625-7.1 10.324-10.341 20.752-18.632 30.887-27.087 10.461-8.707 21.012-17.467 31.662-27.8a188.559 188.559 0 0014.042-15c1.964-2.37 3.879-4.844 5.675-7.389 1.811-2.568 3.351-5.2 5.1-7.729 11.773-16.927 25.446-22.189 38.117-30.184 6.646-4.189 12.363-9.377 15.905-15.72a36.17 36.17 0 018.9-11.137 26.576 26.576 0 0110.986-5.16c8.969-1.908 17.721.428 26.051 4a136.93 136.93 0 0113.26 6.733c2.042 1.152 4.111 2.348 6.2 3.528a66.479 66.479 0 016.684 3.949c9.576 6.906 17.941 19.55 25.445 33.09 8.722 15.786 17.055 34.408 26.862 56.428 4.344 9.793 8.965 20.17 13.891 30.817q.051 3.516.089 7.027z"/>
            <path d="M438.813 159.511c-4.883-10.288-9.459-20.654-13.718-30.4-10.269-23.4-18.913-43.341-27.973-60.249-7.451-13.876-16.08-27.776-25.855-34.463-2.256-1.552-4.536-2.666-6.8-3.963-2.122-1.217-4.222-2.43-6.3-3.6a130.47 130.47 0 00-12.9-6.487c-7.852-3.324-16.119-5.5-24.528-3.452-8.575 2.112-15.21 8.787-19.862 17.035a40.285 40.285 0 01-7.123 9.366 61.62 61.62 0 01-8.871 6.948c-12.759 8.442-26.827 14.613-38.648 31.9-1.762 2.578-3.306 5.286-5.1 7.907s-3.728 5.173-5.71 7.592a161.088 161.088 0 01-13.957 14.81c-10.55 10-20.9 18.173-31.2 26.555-9.98 8.136-20.421 16.423-30.661 27.3-2.268 2.412-4.521 4.967-6.7 7.691-1.767 2.21-3.421 4.582-5.171 6.78a57.837 57.837 0 01-8.851 9.088 35.912 35.912 0 01-16.06 7.394c-5.677 1.17-11.234 1.493-17.306 2.919a64.423 64.423 0 00-9.979 3.266 19.767 19.767 0 01-9.648 1.788c-4.978-.566-8.688-3.95-12.24-7.8-3.8-4.141-7.711-8.455-13.1-10.807a23.257 23.257 0 00-10.4-2.28c-5.629.383-11.016 2.026-16.072 3.172-13.938 3.136-26.807 3.982-40.041-2.485-6.463-3.186-13.007-8-19.857-15.654-5.4-6.032-11.153-13.935-17.19-25.833q.03-2.729.061-5.457c6.038 12.062 11.816 19.873 17.159 25.718 6.927 7.578 13.511 12.141 20.007 15.036 13.335 5.881 26.268 4.149 40.393.344 5.013-1.357 10.422-3.229 16.064-3.519a23.168 23.168 0 0110.436 2.151c5.477 2.481 9.17 7.417 12.714 12.089 3.32 4.351 6.826 8.35 11.875 9.087 3.1.445 6.361-.443 9.717-1.874a52.507 52.507 0 0110.05-3.194c5.981-1.229 11.34-1.111 16.827-1.831a29.594 29.594 0 0015.525-6.459 54.639 54.639 0 008.819-9.2c1.738-2.238 3.372-4.641 5.138-6.874 2.157-2.729 4.4-5.276 6.656-7.675 10.427-11.062 21.121-19.441 31.3-27.736 10.59-8.61 21.246-17.051 32.086-27.365a158.716 158.716 0 0014.086-15.024c1.962-2.42 3.864-4.965 5.619-7.588s3.249-5.333 4.985-7.914c11.735-17.411 25.931-23.151 38.681-31.416a55.74 55.74 0 008.78-6.847 36.614 36.614 0 006.887-9.428 38.492 38.492 0 019-11.941 25 25 0 0110.738-5.384c8.725-1.936 17.222.651 25.243 4.313a147.758 147.758 0 0113.135 7c2.074 1.212 4.177 2.467 6.306 3.705 2.256 1.313 4.528 2.409 6.781 3.968 9.748 6.713 18.255 20.475 25.582 34.253 8.839 16.663 17.237 36.258 27.353 59.32 4.268 9.776 8.859 20.135 13.764 30.455q.026 2.624.054 5.249z"/>
            <path d="M438.887 166.467c-4.942-10.4-9.605-20.927-13.965-30.767-10.747-24.147-20.033-44.761-29.692-62.007a175.156 175.156 0 00-14.026-21.655c-4.009-5.145-8.338-9.751-12.907-12.682a74.316 74.316 0 00-6.782-3.617c-2.06-1.048-4.109-2.065-6.147-3.026a99.909 99.909 0 00-12.19-4.928c-7.382-2.36-15.075-3.473-22.71-1.027-7.97 2.565-14.465 8.927-19.536 16.813-4.3 6.7-10.2 11.78-16.773 16.231-12.889 8.687-26.841 15.582-38.985 32.647-1.789 2.514-3.405 5.178-5.22 7.726s-3.708 4.972-5.655 7.285a150.354 150.354 0 01-13.291 13.751c-9.772 9-19.293 16.211-28.792 23.723-9.316 7.375-19.027 15.019-28.667 25.19-2.21 2.333-4.407 4.806-6.546 7.435-1.76 2.163-3.433 4.479-5.188 6.612a71.621 71.621 0 01-9.206 9.4c-12.792 10.7-24.164 11.737-36.332 15.549-6.573 2.061-13.453 5.9-19.917 5.995-4.944.071-9.174-1.9-13.313-4.5-4.425-2.792-8.911-5.735-14.231-7.561-3.311-1.136-7.041-2.347-10.5-2.245-5.518.175-10.834 1.175-15.9 1.71-13.488 1.4-26.127.338-39.057-7.42a78.419 78.419 0 01-19.4-17.068 134.418 134.418 0 01-17.042-26.227q.026-2.341.052-4.681a123.351 123.351 0 0017.157 25.97c6.777 7.734 13.274 12.761 19.7 16.195 13.126 6.965 25.917 6.861 39.686 4.37 5.07-.926 10.433-2.336 16.028-2.682 3.447-.2 7.174.979 10.418 2.3 5.343 2.167 9.471 5.949 13.5 9.594 3.771 3.391 7.674 6.237 12.623 6.582a21.687 21.687 0 009.66-1.9 78.608 78.608 0 0110.013-3.415c6.193-1.635 11.949-2.349 17.818-3.918a42.509 42.509 0 0016.607-8.315 62.154 62.154 0 008.956-9.146c1.755-2.17 3.418-4.519 5.184-6.711 2.172-2.7 4.412-5.232 6.667-7.626 10.029-10.637 20.21-18.727 29.96-26.616 10.01-8.088 20.061-15.929 30.328-25.582a158.778 158.778 0 0013.744-14.47c1.977-2.39 3.906-4.906 5.717-7.51s3.385-5.3 5.161-7.856c11.931-17.2 25.936-23.669 38.733-32.221 6.651-4.46 12.3-9.586 16.287-16.3 4.837-8.121 11.483-14.646 19.8-16.9 8.119-2.187 16.177-.4 23.857 2.58a117.954 117.954 0 0112.645 5.934c2.068 1.1 4.153 2.247 6.257 3.412 2.26 1.251 4.541 2.345 6.8 3.866 4.507 3.037 8.76 7.716 12.679 12.918a177.416 177.416 0 0113.538 21.564c9.278 17.062 18.157 37.276 28.594 60.957 4.285 9.766 8.881 20.177 13.775 30.487q.006 1.889.026 3.783z"/>
            <path d="M438.941 171.427c-5.095-10.682-9.948-21.508-14.517-31.572-11.426-25.069-21.551-46.368-32-63.821a165.26 165.26 0 00-15.069-21.595c-4.234-4.994-8.763-9.389-13.5-12.045a69.238 69.238 0 00-12.593-5.1 69.906 69.906 0 00-11.214-2.806c-6.766-1.057-13.691-.75-20.359 2.256-7.349 3.331-13.3 9.492-18.705 16.878-4.8 6.557-11.3 11.576-17.745 15.967-13.138 8.874-27.07 16.478-39.685 33.277-1.8 2.39-3.459 4.953-5.264 7.377-1.74 2.336-3.556 4.57-5.4 6.672a125.564 125.564 0 01-12.208 12.033c-8.742 7.582-17.15 13.378-25.572 19.575-8.351 6.148-17.056 12.68-25.851 21.779-3.981 4.117-7.523 8.755-11.352 13.325a98.862 98.862 0 01-9.839 10.2c-13.868 12.388-26.94 16.966-40.412 22.456-6.857 2.794-13.844 6.512-20.7 7.8a38.189 38.189 0 01-14.792-.344c-5.17-1.043-10.353-2.455-15.8-3.633-3.486-.751-7.221-1.833-10.754-2.053-5.336-.322-10.541-.157-15.57-.432-12.919-.724-25.217-3.935-37.727-13.172a97.853 97.853 0 01-18.774-18.721 158.965 158.965 0 01-16.71-26.795q.023-2.08.046-4.161A143.359 143.359 0 00-26.2 181.213a85.4 85.4 0 0019.168 17.72c12.773 8.34 25.285 10.248 38.556 9.676 5.059-.226 10.335-.906 15.786-.9 3.48.008 7.213 1.188 10.587 2.177 5.339 1.567 10.1 3.9 14.818 6.027 4.416 1.976 8.894 3.307 13.868 2.9 6.61-.539 13.511-4.3 20.184-6.638 12.653-4.433 24.68-6.846 37.863-18.156a80.651 80.651 0 009.434-9.675c1.752-2.111 3.429-4.4 5.183-6.542 2.1-2.565 4.256-4.976 6.421-7.248 9.324-9.778 18.657-17.022 27.615-23.951 9.093-7.027 18.194-13.712 27.577-22.184a141.681 141.681 0 0012.9-13.126c1.913-2.238 3.788-4.6 5.573-7.069 1.813-2.5 3.451-5.134 5.245-7.6 12.32-16.966 26.254-24.146 39.231-32.914 6.519-4.432 12.642-9.49 17.145-16.146 5.214-7.7 11.521-13.97 19.251-16.811 7.264-2.657 14.67-2.079 21.817-.21a87.515 87.515 0 0111.824 4.125c2.007.844 4.022 1.75 6.044 2.7a65.541 65.541 0 016.766 3.385c4.629 2.833 9.03 7.367 13.12 12.459a171.963 171.963 0 0114.414 21.651c9.959 17.347 19.563 38.238 30.563 62.739 4.434 9.918 9.164 20.551 14.158 31.048q.015 1.389.03 2.777z"/>
            <path d="M438.978 175.256c-5.312-11.08-10.421-22.3-15.262-32.664-12.24-26.114-23.323-48.061-34.7-65.579a150.635 150.635 0 00-16.286-21.259c-4.512-4.763-9.3-8.85-14.261-11.118a44.08 44.08 0 00-12.162-3.248 45.7 45.7 0 00-9.83-.444 37.37 37.37 0 00-17.974 6.09 56.132 56.132 0 00-8.31 6.7c-3.273 3.156-6.165 6.8-9.3 10.477-5.224 6.117-12.066 10.9-18.342 15.16-13.655 9.17-27.851 17.534-41.173 34.294-3.387 4.258-6.46 8.632-10.057 12.483a94.073 94.073 0 01-10.612 9.719c-7.692 6.066-14.924 10.237-22.211 14.923-7.211 4.637-14.766 9.767-22.6 17.576-3.762 3.75-7.189 8.095-10.84 12.4a146.321 146.321 0 01-10.359 11c-15.337 14.687-30.341 23.1-45.475 30.666-7.152 3.574-14.321 7.329-21.51 9.947a80.4 80.4 0 01-16.752 4.19 75.158 75.158 0 01-17.4.341c-3.8-.367-7.651-1.239-11.444-1.919-5-.894-9.945-1.608-14.784-2.732a79.715 79.715 0 01-36.236-18.964c-11-9.806-22.616-24.083-34.353-47.865q.022-1.955.043-3.911a170.68 170.68 0 0016.565 27.06 107.335 107.335 0 0018.522 19.395 70.931 70.931 0 0037.183 15.442c4.89.6 9.918.788 15.049 1.314 3.705.384 7.545 1.4 11.229 2.011a154.3 154.3 0 0016.291 2.035 49.968 49.968 0 0015.676-1.416c6.941-1.8 13.935-5.487 20.852-8.562 14.165-6.3 28.051-12.362 42.535-25.716a114.51 114.51 0 009.879-10.35c3.764-4.464 7.268-9.006 11.165-12.991 8.434-8.626 16.71-14.641 24.637-20.23 8.062-5.681 16.1-10.909 24.52-18.013a113.179 113.179 0 0011.408-11c3.732-4.161 6.829-8.737 10.293-13.271 12.985-17 27.145-24.909 40.592-34 6.264-4.275 12.789-9.152 17.688-15.435a84.321 84.321 0 019.449-10.747 42.424 42.424 0 018.857-6.294 35.529 35.529 0 0119.638-3.728 59.575 59.575 0 0110.512 1.86 58.47 58.47 0 0112.439 4.388c4.824 2.5 9.451 6.777 13.791 11.682a159.343 159.343 0 0115.54 21.485c10.815 17.5 21.313 39.074 33.055 64.564 4.674 10.186 9.627 21.169 14.806 32.008q.011 1.122.019 2.246z"/>
            <path d="M439.019 178.818c-5.538-11.487-10.909-23.085-16.027-33.742-13.076-27.131-25.126-49.608-37.432-67.045a136.455 136.455 0 00-17.527-20.737c-4.8-4.492-9.847-8.23-15.049-10.086a28.988 28.988 0 00-11.7-1.4 30.567 30.567 0 00-8.7 1.837c-5.452 2.018-10.439 5.661-15.211 10.038-2.5 2.3-4.959 4.793-7.418 7.405-2.932 3.116-5.858 6.812-9.027 9.987-5.775 5.758-13.026 10.326-19.427 14.6-14.008 9.262-28.306 18.415-42.149 34.659-3.248 3.808-6.273 7.8-9.652 11.116a63.865 63.865 0 01-9.28 7.554c-6.492 4.339-12.374 6.74-18.374 9.748a76.261 76.261 0 00-19.2 13.036 144.946 144.946 0 00-10.293 11.346c-3.692 4.3-7.426 8.319-11.162 12.089a237.49 237.49 0 01-50.368 38.933c-7.566 4.389-15.074 8.341-22.619 12.22a179.993 179.993 0 01-18.541 8.549 53.355 53.355 0 01-19.254 3.844 42.048 42.048 0 01-11.807-1.858c-4.8-1.448-9.595-2.952-14.338-4.894-11.654-4.775-23.127-12.135-34.658-24.242-10.832-11.374-22-26.956-33.127-50l.044-3.948c11.5 23.5 22.946 38.3 33.886 48.711 11.843 11.273 23.586 17.424 35.635 21.057 4.8 1.444 9.691 2.472 14.614 3.587a72.11 72.11 0 0011.583 1.881 62.152 62.152 0 0018.107-1.74c13.094-3.1 26.287-9.748 39.367-16.711 15.752-8.38 31.442-18.257 47.338-33.809 3.574-3.5 7.147-7.289 10.665-11.42 3.58-4.2 6.956-8.416 10.631-12.006a106.919 106.919 0 0121.3-15.861c6.8-4.049 13.517-7.548 20.751-12.956a82.212 82.212 0 0010.1-8.9c3.513-3.65 6.567-7.885 9.9-11.969 13.527-16.582 27.756-25.24 41.546-34.449 6.319-4.263 13.309-8.971 18.754-14.963 3.161-3.492 6.045-7.154 9.191-10.3a72.221 72.221 0 017.97-6.965 39.919 39.919 0 0116.923-7.586 38.839 38.839 0 019.4-.434 37.3 37.3 0 0111.984 2.535c5.054 2.115 9.94 6.073 14.561 10.738a145.125 145.125 0 0116.758 21.08c11.73 17.5 23.181 39.662 35.739 66.166 4.947 10.48 10.156 21.844 15.554 33.08q.028 1.111.039 2.225z"/>
            <path d="M439.059 182.98c-5.738-11.831-11.34-23.747-16.7-34.633-13.864-28.06-26.813-50.956-39.988-68.233a124.719 124.719 0 00-18.684-20.135c-5.053-4.206-10.337-7.6-15.754-9.053-6.556-1.8-13.445-.042-18.924 4.129-4.736 3.594-8.548 8.7-12.608 13.849-2.1 2.669-4.278 5.385-6.6 8.074a86.152 86.152 0 01-8.833 9.365 116.385 116.385 0 01-10.28 7.278c-3.38 2.257-6.78 4.447-10.177 6.663-14.32 9.323-28.755 19.31-43.015 34.878a126.831 126.831 0 01-9.329 9.814 39.864 39.864 0 01-8.07 5.534c-5.387 2.747-9.987 3.484-14.78 4.914a41.034 41.034 0 00-16.052 8.749 103.2 103.2 0 00-9.819 10.319q-5.918 6.79-11.885 13.006c-18.286 19.133-36.627 34.873-54.925 46.649-7.943 5.109-15.779 9.259-23.582 14.152-6.959 4.358-13.6 8.776-20.21 12.3-6.851 3.645-13.742 6.284-20.98 6.594a28.755 28.755 0 01-12.125-1.928 115.866 115.866 0 01-13.94-6.612c-11.08-6.254-22.126-15.276-33.182-28.514-10.624-12.722-21.364-29.316-32.008-51.683l.048-4.29c10.928 22.788 21.934 38.781 32.694 50.685 11.351 12.558 22.665 20.575 34.1 25.949a138.157 138.157 0 0014.182 5.589 34.991 34.991 0 0011.933 1.869c6.764-.1 13.349-2.053 19.913-4.955 6.327-2.8 12.671-6.377 19.179-10.02 7.653-4.289 15.287-8.321 23-12.991a263.209 263.209 0 0052.108-41.882c3.828-3.922 7.653-8.059 11.444-12.457a127.47 127.47 0 0110.1-10.957 61.256 61.256 0 0118-11.4c5.54-2.406 10.937-4.173 17-7.9a54.1 54.1 0 008.812-6.781c3.306-3.115 6.316-6.964 9.517-10.62 14.012-16.014 28.358-25.469 42.489-34.756 6.474-4.3 13.844-8.769 19.816-14.37 3.16-2.982 6.128-6.687 8.941-9.779 2.4-2.64 4.748-5.216 7.1-7.661 4.479-4.643 9.037-8.86 14.223-11.467a26.152 26.152 0 0119.835-1.864c5.285 1.7 10.426 5.311 15.324 9.7a131.741 131.741 0 0117.969 20.517c12.637 17.382 25.03 40.027 38.406 67.514 5.213 10.751 10.676 22.477 16.293 34.1q.014 1.377.024 2.751z"/>
            <path d="M439.124 188.605c-5.871-12.018-11.629-24.114-17.154-35.11-14.519-28.807-28.211-52.028-42.11-69.157a117.171 117.171 0 00-19.635-19.625c-5.236-3.957-10.688-7.07-16.257-8.207-6.75-1.393-13.133 1.4-17.775 7.1-4.078 5.014-6.8 11.276-10.4 17.314-3.634 6.1-8.762 12.985-14.787 17.109-3.513 2.4-7.28 4.442-10.859 6.641-3.493 2.143-6.992 4.319-10.49 6.576a248.069 248.069 0 00-43.611 34.949 93.671 93.671 0 01-9.205 8.762 24.759 24.759 0 01-7.156 3.918c-4.491 1.47-8 .832-11.786.959-3.855.129-8.167 1.1-13.5 5.285a79.638 79.638 0 00-9.524 9.48q-6.2 6.918-12.41 13.542c-19.525 20.818-39.1 39.478-58.662 52.9-8.173 5.608-16.269 9.832-24.189 15.345-7.59 5.276-14.615 10.726-21.578 15.068-7.211 4.483-14.495 7.927-22.4 8.415a25.43 25.43 0 01-12.332-2.1 92.829 92.829 0 01-13.663-7.693c-21.033-14.256-42.128-40.162-63.115-84.116q.027-2.475.055-4.951c10.52 22.136 21.124 39.008 31.666 52.125 10.9 13.562 21.8 23.071 32.708 29.729a106.611 106.611 0 0013.824 7.078 26.946 26.946 0 0012.215 1.98c7.49-.4 14.536-3.363 21.53-7.354 6.748-3.861 13.541-8.693 20.741-13.416 7.863-5.166 15.8-9.362 23.85-14.682 18.789-12.425 37.614-29.291 56.377-49.1q6.062-6.4 12.1-13.252a92.761 92.761 0 019.688-9.99 32.557 32.557 0 0115.056-7.391c4.4-.925 8.588-1.129 13.625-3.376a33.45 33.45 0 007.7-4.9 113.115 113.115 0 009.255-9.4c14.374-15.289 28.857-25.582 43.267-34.92 3.435-2.231 6.874-4.416 10.3-6.633 3.451-2.24 7.173-4.448 10.5-7.055a66.481 66.481 0 008.8-9.093c2.291-2.713 4.379-5.506 6.346-8.284 3.87-5.453 7.272-11.008 11.764-15.134 5.17-4.753 11.872-6.911 18.468-5.284 5.479 1.329 10.834 4.609 15.963 8.719a121.479 121.479 0 0119.053 19.932c13.453 17.218 26.691 40.24 40.808 68.591 5.431 10.942 11.1 22.942 16.9 34.863q.018 1.927.039 3.843z"/>
            <path d="M439.208 196.56c-5.893-11.942-11.688-24-17.252-34.924-14.951-29.262-29.153-52.729-43.542-69.835-6.671-7.9-13.382-14.481-20.256-19.406-5.307-3.8-10.817-6.779-16.436-7.76a14.761 14.761 0 00-10.913 2.045 20.818 20.818 0 00-6.222 7.041c-3.57 6.156-5.455 13.326-8.819 20.248-3.337 6.893-8.3 12.823-14.726 16.152-7.3 3.792-14.7 7.757-22.021 12.48a305.922 305.922 0 00-43.776 34.888 79.3 79.3 0 01-9.4 8.134 17.985 17.985 0 01-6.715 2.958c-3.91.682-6.654-.866-9.746-1.591-3.2-.752-6.941-.431-11.911 3.2a74.024 74.024 0 00-9.513 8.994c-4.209 4.49-8.415 9.014-12.62 13.492-20.365 21.7-40.7 42.367-61.094 56.744-8.14 5.744-16.386 9.806-24.228 15.423-8.036 5.754-15.3 11.8-22.467 16.548-7.415 4.9-14.943 8.792-23.312 9.25a26.417 26.417 0 01-12.361-2.333 75.036 75.036 0 01-13.577-8.014c-20.628-15.065-41.119-43.361-61.871-85.512l.066-5.948c20.858 43.385 41.713 70.224 62.576 84.906a86.384 86.384 0 0013.608 7.894 25.326 25.326 0 0012.366 2.177c8.088-.5 15.475-4.141 22.777-8.816 7.053-4.531 14.179-10.238 21.948-15.739 7.917-5.613 16.08-9.814 24.277-15.517 19.907-13.848 39.8-33.321 59.674-54.551q6.264-6.693 12.524-13.6a75.571 75.571 0 019.483-9.264c5.175-3.937 9.242-4.616 12.827-4.383 3.5.227 6.706 1.241 10.956.107a21.568 21.568 0 006.941-3.5 86.473 86.473 0 009.231-8.489 265.085 265.085 0 0143.725-34.941c3.525-2.271 7.052-4.442 10.575-6.545 3.648-2.18 7.427-4.155 11.035-6.416 6.155-3.863 11.209-10.52 14.689-16.864s5.892-12.952 9.771-18.4c4.392-6.144 10.624-9.215 17.487-7.908 5.6 1.061 11.086 4.107 16.361 8a115.663 115.663 0 0119.892 19.504c14.1 17.1 28 40.416 42.7 69.419 5.555 10.995 11.341 23.107 17.234 35.134q.026 2.76.055 5.518z"/>
            <path d="M439.022 206.72c-5.947-11.8-11.782-23.67-17.4-34.511-14.818-28.5-28.874-51.729-43.124-68.84a118.689 118.689 0 00-19.576-19.161c-5.482-4.088-11.18-7.286-16.993-8.338a13.92 13.92 0 00-10.674 2.019 21.657 21.657 0 00-6.405 7.744c-3.5 6.52-5.36 14.043-8.771 21.275a37.692 37.692 0 01-5.863 9.211 27.084 27.084 0 01-9.3 6.6 193.551 193.551 0 00-22.313 11.817 259.8 259.8 0 00-43.221 33.928c-5.926 5.67-11.411 10.142-16.277 10.951-3.822.641-6.582-.752-9.648-1.395-3.234-.678-6.957-.314-11.789 2.992a66.9 66.9 0 00-9.8 8.836c-4.236 4.415-8.47 8.881-12.7 13.309-20.178 21.12-40.315 41.342-60.5 55.538-8.189 5.766-16.559 9.888-24.44 15.425-8.194 5.756-15.635 11.693-22.992 16.255-7.5 4.636-15.115 8.262-23.525 8.594a27.8 27.8 0 01-12.223-2.361 72.877 72.877 0 01-13.665-7.893c-20.51-14.751-40.842-42.746-61.508-83.638q.039-3.487.077-6.974c20.753 41.391 41.134 70.3 61.694 85.337 8.621 6.344 17.484 10.746 25.923 10.354 8.467-.4 16.036-4.371 23.474-9.306 7.193-4.79 14.5-10.927 22.626-16.71 7.762-5.521 16.023-9.452 24.078-15.141 20.542-14.488 41.006-35.566 61.531-57.32 4.2-4.446 8.4-8.92 12.6-13.31a77.164 77.164 0 019.592-8.936c4.916-3.564 8.566-3.829 11.654-2.908 2.952.881 5.538 2.6 9.34 2.042 4.806-.691 10.327-5.4 16.262-10.871 14.569-13.426 29.138-25.41 43.708-34.837a180.994 180.994 0 0122.183-12.243c6.562-3.031 11.527-8.415 14.874-15.641 3.34-7.179 5.018-14.614 8.471-21.074a20.715 20.715 0 016.124-7.39 14.4 14.4 0 0110.943-2.093c5.607.978 11.1 3.951 16.4 7.734 6.908 4.929 13.658 11.518 20.369 19.43 14.486 17.141 28.79 40.675 43.822 70 5.541 10.844 11.315 22.827 17.183 34.666a67.765 67.765 0 01-.221 6.834z"/>
            <path d="M437.279 215.231c-5.715-10.775-11.3-21.619-16.694-31.744-13.982-26.15-27.108-48.339-40.429-65.255a126.019 126.019 0 00-18.96-19.861c-5.338-4.32-10.9-7.725-16.587-8.969a13.765 13.765 0 00-10.488 1.623 23.284 23.284 0 00-7.133 7.79c-3.882 6.346-6.405 13.88-10.238 21-3.846 7.172-8.958 12.795-15.5 15.726-7.421 3.345-14.865 6.671-22.261 10.581a167.418 167.418 0 00-42.784 31.808c-5.745 5.871-11.059 10.267-16.193 11.965-4.26 1.414-7.725 1.066-11.368 1.318a25.422 25.422 0 00-13.209 4.826 68.341 68.341 0 00-9.92 8.735q-6.282 6.442-12.564 12.762c-19.238 19.3-38.476 37.192-57.719 50.279-8.115 5.519-16.246 9.756-24.1 14.993-8.318 5.542-16.091 10.972-23.8 15.017-7.977 4.174-16.028 7.18-24.67 7.175a30.358 30.358 0 01-12.647-2.713 82.983 82.983 0 01-13.629-7.874c-20.069-14.128-40.067-39.743-60.182-78.841q.039-3.552.079-7.1c20.543 40.5 40.817 67.792 61.242 82.361a75.936 75.936 0 0013.656 7.878 28.126 28.126 0 0012.212 2.4c8.456-.241 16.182-3.671 23.8-8.156 7.477-4.413 15.027-10.211 23.27-15.927 7.9-5.482 16.24-9.679 24.445-15.414 19.928-13.917 39.823-33.484 59.743-54.123 4.227-4.378 8.456-8.8 12.687-13.206a64.729 64.729 0 019.8-8.738c4.871-3.3 8.727-3.838 12.144-3.405 3.219.407 6.172 1.519 10.1.689 4.941-1.036 10.363-5.445 16.243-11.2a223.958 223.958 0 0143.01-33.29 223.9 223.9 0 0122.3-11.484c6.645-2.96 11.677-8.449 15.272-15.849 3.533-7.238 5.583-14.807 9.2-21.311a22.218 22.218 0 016.531-7.726 13.812 13.812 0 0110.683-1.952c5.8 1.115 11.477 4.381 16.941 8.553a120.523 120.523 0 0119.271 19.2c14 17.041 27.8 39.961 42.394 67.775 5.619 10.752 11.452 22.461 17.4 34.115a44.213 44.213 0 01-1.348 5.569z"/>
            <path d="M434.257 222.614c-5.488-9.569-10.823-19.321-15.959-28.631-12.621-22.766-24.286-43.085-36.168-59.28a136.258 136.258 0 00-17.26-19.823c-4.909-4.476-10.041-8.1-15.314-9.724-7.456-2.286-13.874 1.167-19 7.867-4.58 6.011-8.014 13.538-12.552 20.5-4.575 7.046-10.169 12.61-16.9 15.461-7.385 3.141-14.743 5.792-22.035 8.853-13.638 5.662-27.47 13.355-41.2 28.183a96.429 96.429 0 01-9.011 8.91 47.205 47.205 0 01-7.762 5.243c-4.937 2.628-9.363 3.754-13.835 5.278a55.458 55.458 0 00-15.4 7.887c-7.062 5.144-14.536 13.21-21.739 19.911-17.788 16.575-35.569 31.365-53.357 42.884-8.116 5.247-16.173 9.567-24.119 14.447-8.769 5.381-17.176 10.385-25.54 13.873-8.653 3.6-17.361 5.825-26.464 5.131a36.389 36.389 0 01-12.656-3.282 94.628 94.628 0 01-13.466-7.67c-19.479-13.26-38.968-36.092-58.436-72.578l.08-7.223c19.975 38.459 39.892 63.287 59.847 77.141a86.018 86.018 0 0013.588 7.784 31.573 31.573 0 0012.4 2.792c8.775.217 17.018-2.546 25.194-6.544 7.907-3.875 15.867-9.174 24.314-14.672 8.006-5.214 16.25-9.56 24.5-15.117 18.755-12.646 37.511-29.589 56.264-48.045q6.061-5.965 12.12-12.119a73.846 73.846 0 0110.033-8.814 31.882 31.882 0 0113.844-5.688c3.88-.616 7.627-.69 12.08-2.447a32.12 32.12 0 007.23-4.12 77.166 77.166 0 009.2-8.548 147.065 147.065 0 0141.958-30.524c7.378-3.682 14.788-6.859 22.207-10.115 6.718-2.931 12.039-8.534 16.175-15.846 4.029-7.092 6.817-14.646 10.907-20.909 4.62-7.038 10.725-10.748 18.077-8.935 5.472 1.361 10.817 4.752 15.95 9.026a129.349 129.349 0 0119 20.464c12.793 16.662 25.4 38.155 38.872 63.079 5.335 9.911 10.866 20.462 16.533 30.917-.677 1.742-1.416 3.391-2.2 5.023z"/>
            <path d="M430.447 230.009c-5.144-8.109-10.11-16.573-14.861-24.893-11.226-19.549-21.318-38-31.7-53.317-8.7-12.8-18.259-24.835-28.5-28.962-7.692-3.111-14.7-.182-20.627 5.819-5.342 5.425-9.8 12.644-15.124 19.247-5.336 6.646-11.464 12.081-18.414 14.816-7.254 2.865-14.419 4.641-21.458 6.64-13.037 3.608-26.392 8.877-39.75 24-3.089 3.48-6.036 7-9.248 10.031a79.378 79.378 0 01-8.492 6.982c-5.785 4.112-11.314 6.929-16.8 9.935a133.336 133.336 0 00-17.815 11.338c-7.1 5.452-14.4 12.628-21.563 18.592a378.422 378.422 0 01-47.944 34.1c-8.086 4.822-16.071 9.15-24.079 13.614-9.26 5.158-18.315 9.664-27.345 12.515-9.335 2.944-18.707 4.294-28.3 2.8-8.625-1.34-17.33-5.687-26.029-11.334-18.813-12.282-37.578-31.863-56.434-65.38q.041-3.671.081-7.341c19.314 35.686 38.649 57.608 57.97 70.571a99.011 99.011 0 0013.045 7.4 39.479 39.479 0 0013.136 3.609c9.15.868 17.967-1.079 26.739-4.449 8.591-3.305 17.218-8.179 26.159-13.515 7.857-4.692 15.768-8.956 23.766-14 17.341-10.965 34.657-24.736 52-40.415 7.291-6.584 14.8-14.485 21.964-19.764a71.634 71.634 0 0115.92-8.771c4.7-1.929 9.38-3.532 14.479-6.507a55.71 55.71 0 008.244-5.926 112.641 112.641 0 009.084-9.253c13.648-14.923 27.372-21.9 40.869-26.96 7.247-2.758 14.606-5.137 21.978-8.267 6.689-2.83 12.365-8.385 17.087-15.224 4.714-6.8 8.422-14.179 13.159-20 5.323-6.518 11.865-9.949 19.361-7.525 11.208 3.609 21.868 15.962 31.616 29.511 11.453 15.955 22.67 35.729 34.891 57.531 5.032 9.023 10.265 18.4 15.66 27.545-.877 1.692-1.792 3.416-2.725 5.207z"/>
            <path d="M426.344 238.297c-4.742-6.636-9.274-13.789-13.568-21.118-9.461-16.052-17.624-32.111-26.1-46.09-7.524-12.354-15.944-24.6-25.315-29.157-8.011-3.862-14.842-1.648-21.236 2.954-6.393 4.625-12.349 11.639-18.6 17.919-6.179 6.21-12.952 11.5-20.318 14.107-7.225 2.569-14.245 3.381-21.065 4.262-12.134 1.444-24.772 4.07-37.6 19.161-3.294 3.852-6.377 7.963-9.792 11.566a116.239 116.239 0 01-9.51 8.948 237.463 237.463 0 01-19.68 14.46c-6.752 4.606-13.494 9.23-20.335 14.628-3.531 2.785-7.051 5.885-10.588 8.79-3.584 2.945-7.159 5.66-10.715 8.2-14.277 10.152-28.187 17.7-42.479 25.373-7.771 4.148-15.5 8.332-23.291 12.274-9.924 5.025-19.751 9.148-29.561 11.424-10.154 2.357-20.333 2.873-30.617.472a65.2 65.2 0 01-13.307-4.915 142.531 142.531 0 01-12.615-6.857 139.252 139.252 0 01-27.012-21.654 189.913 189.913 0 01-27.2-36.01q.041-3.729.083-7.459c18.609 32.488 37.033 51.018 55.556 63.021 8.834 5.68 17.707 10.14 26.485 11.661 9.659 1.677 19.139.583 28.588-2.138 9.379-2.7 18.782-7.167 28.358-12.364 7.791-4.228 15.546-8.43 23.383-12.963a376.65 376.65 0 0046.488-31.592c7.151-5.713 14.4-12.638 21.509-18.166a173.913 173.913 0 0118.627-12.4 185.24 185.24 0 0017.465-11.147 90.322 90.322 0 009.027-7.75c3.248-3.182 6.213-6.847 9.337-10.4 13.191-15.1 26.329-19.609 39.105-22.589 6.98-1.684 14.111-3.185 21.354-5.975 7.068-2.714 13.375-8.094 18.964-14.637 5.58-6.508 10.364-13.627 15.97-18.85 6.075-5.645 13.169-8.35 20.825-5.122 10.1 4.24 19.436 16.546 27.884 29.382 9.771 14.9 19.259 32.555 29.91 50.943 4.624 8.028 9.469 16.109 14.5 23.785-.961 1.904-1.942 3.899-2.914 6.023z"/>
            <path d="M422.442 248.013a146.826 146.826 0 01-12.345-17.86c-8.079-13.555-14.549-27.86-21.445-40.691-6.17-11.412-13.241-23.012-21.573-27.655-16.473-9.075-30.041 5.319-44.02 16.685-6.843 5.592-14.179 10.628-21.864 13.032-7.136 2.238-13.932 2.063-20.431 1.8-11.475-.636-23.716-.711-36.327 15.106-3.3 4.11-6.345 8.517-9.775 12.443a144.913 144.913 0 01-10.5 10.79 284.442 284.442 0 01-22.428 18.4c-7.681 5.81-15.347 11.433-23.04 17.47-3.668 2.879-7.355 6.063-11.014 8.706-3.274 2.368-6.525 4.46-9.733 6.331-12.679 7.322-24.492 11.412-37.226 17.384-7.692 3.573-15.493 7.8-23.294 11.371-10.486 4.814-20.942 8.483-31.389 10.16a71.734 71.734 0 01-32.421-1.8 91.962 91.962 0 01-13.775-5.772c-4.161-2.037-8.291-4.2-12.368-6.541a146.047 146.047 0 01-25.642-18.487 151.715 151.715 0 01-26.094-31.356q.042-3.789.084-7.577a178.912 178.912 0 0026.806 34.619 140.484 140.484 0 0026.559 20.757c4.273 2.581 8.577 4.876 12.9 6.958a70.767 70.767 0 0013.487 5.128 68.076 68.076 0 0030.86.125c17.64-3.626 35.618-13.844 53.471-23.125 13.863-7.188 27.224-13.76 41.069-23.125 3.391-2.308 6.8-4.8 10.231-7.517 3.575-2.837 7.147-5.978 10.722-8.805 7.083-5.6 14.091-10.536 21.116-15.513a253.536 253.536 0 0020.553-15.71 125.211 125.211 0 009.8-9.5c3.353-3.636 6.371-7.747 9.6-11.6 12.857-15.449 25.468-17.291 37.517-18.149 6.672-.552 13.566-1.107 20.7-3.553 7.382-2.526 14.267-7.67 20.593-13.643 13.05-12.2 25.149-28.094 41.426-19.769 8.972 4.691 16.92 16.657 24 28.639 8.03 13.664 15.719 29.217 24.785 44.526a230.828 230.828 0 0013.216 20.154c-.968 2.224-1.9 4.607-2.791 7.164z"/>
            <path d="M419.236 259.275a87.986 87.986 0 01-11.165-14.962c-6.891-11.481-11.81-24.212-17.2-35.856-5.068-10.866-11.038-22-18.718-26.817-8.429-5.289-17.033-4.435-24.79-1.241-7.725 3.152-15.11 8.641-22.833 13.911-7.335 5.02-15.079 9.856-23.037 12.141-7.217 2.077-13.932.95-20.237-.4-5.337-1.164-10.952-2.615-16.771-1.6-5.819.984-11.841 4.432-18 12.444-3.372 4.387-6.381 9.163-9.87 13.411a155.353 155.353 0 01-11.3 12.282 292.137 292.137 0 01-25.112 21.585c-8.352 6.521-16.7 12.683-25.057 18.945-3.679 2.76-7.423 5.824-11.089 8.173a75.084 75.084 0 01-9.246 5.074c-11.427 5.154-21.2 6.237-32.715 10.847-7.437 2.938-15.221 7.161-22.866 10.389-11.091 4.709-22.18 8.073-33.265 9.315a77.435 77.435 0 01-34.392-3.589 120.2 120.2 0 01-13.781-6.2c-4.136-2.046-8.214-4.1-12.2-6.223a165.132 165.132 0 01-24.586-15.547 119.628 119.628 0 01-25.384-27.339l.085-7.7a142.419 142.419 0 0025.937 30.28 149.721 149.721 0 0025.4 17.691c4.051 2.279 8.167 4.408 12.319 6.444a98.317 98.317 0 0013.942 5.944 73.386 73.386 0 0033.029 2.191c10.618-1.59 21.244-5.2 31.889-10 7.67-3.448 15.361-7.607 22.895-10.964 12.4-5.583 23.678-8.819 36.016-15.53a103.652 103.652 0 009.591-5.979c3.593-2.519 7.227-5.624 10.831-8.429 7.915-6.162 15.815-12 23.726-18.065a289.882 289.882 0 0023.2-19.378 149.47 149.47 0 0010.745-11.245c3.452-4.027 6.49-8.549 9.822-12.738 6.292-7.91 12.476-11.767 18.5-13.375 6.025-1.631 11.89-1.012 17.539-.5 6.458.562 13.246.958 20.41-1.275 7.8-2.427 15.283-7.482 22.3-12.948 14.21-11.055 28.364-24.854 44.877-15.212 8.136 4.783 14.877 16.313 20.736 27.588 6.4 12.4 12.383 26.094 20.023 38.916a126.534 126.534 0 0012.065 17.136c-.817 2.614-1.582 5.408-2.263 8.405z"/>
            <path d="M417.224 271.861a62.4 62.4 0 01-10.838-13.483c-5.846-9.758-9.711-21.43-14.084-32.4-4.373-10.9-9.255-21.092-17.138-26.114-8.408-5.281-17.073-4.74-24.963-2.22-8.425 2.655-16.582 7.769-25 12.819-7.652 4.6-15.705 9.343-23.851 11.465-7.213 1.881-13.79-.1-19.85-2.371-5.562-2.1-10.864-4.7-16.946-4.207-5.746.454-11.674 4.572-17.046 12.08-1.624 2.269-3.069 4.725-4.643 7.043-1.638 2.413-3.357 4.726-5.124 6.944a148.673 148.673 0 01-11.438 12.679 271.333 271.333 0 01-26.69 22.918c-9.007 6.9-18.036 13.27-27.059 19.48-3.711 2.556-7.494 5.334-11.2 7.458a54.99 54.99 0 01-8.771 4.1c-10.7 3.745-18.771 2.5-29.615 6.269-7.35 2.518-15.341 6.877-22.96 9.847a119.291 119.291 0 01-34.134 8.383 83.828 83.828 0 01-35.3-4.557 132.361 132.361 0 01-14.352-6.521c-4.136-2.062-8.2-4.045-12.117-5.972a209.818 209.818 0 01-23.726-13.015 95.532 95.532 0 01-24.884-23.984q.043-3.906.087-7.813a112.686 112.686 0 0025.272 26.439 173.86 173.86 0 0024.383 14.865c3.965 2.066 8.036 4.1 12.169 6.15a124.368 124.368 0 0013.868 6.287 79.025 79.025 0 0034.823 3.882c11.07-1.153 22.142-4.385 33.213-8.979 7.651-3.153 15.516-7.429 22.942-10.254 11.305-4.36 20.605-4.777 31.795-9.482a68.106 68.106 0 008.877-4.627c3.772-2.32 7.623-5.4 11.409-8.189 8.638-6.362 17.28-12.693 25.915-19.442a287.385 287.385 0 0025.324-21.878 155.733 155.733 0 0011.154-12.191c3.523-4.309 6.529-9.119 9.9-13.621 6.187-8.265 12.224-11.681 18.047-12.5 5.822-.849 11.429.9 16.747 2.29 6.167 1.583 12.779 2.921 19.908.954 8.138-2.241 16.1-7.138 23.639-12.108 7.89-5.187 15.474-10.528 23.377-13.487 7.772-2.939 16.35-3.625 24.736 1.655 7.568 4.77 13.32 15.718 18.154 26.474 5.09 11.4 9.67 23.843 16.33 34.95a79.241 79.241 0 0011.02 14.5c-.556 2.97-1.026 6.12-1.36 9.484z"/>
            <path d="M416.901 285.302a54.469 54.469 0 01-11.025-12.83c-5.915-9.563-9.226-20.9-13.233-31.363-4.044-10.495-9.119-20.314-16.33-24.977a24.306 24.306 0 00-12.357-3.571 39.355 39.355 0 00-13.05 1.708c-8.569 2.486-16.954 7.161-25.519 11.948-7.635 4.27-15.84 9.317-23.91 11.375-7.243 1.839-13.957-.764-19.951-3.528-5.486-2.553-10.7-5.69-16.737-5.593-5.757.085-11.641 4.131-16.962 11.578-1.7 2.383-3.2 4.971-4.846 7.4-1.521 2.239-3.121 4.375-4.767 6.42a132.608 132.608 0 01-11.491 12.441 243.216 243.216 0 01-27.729 22.542c-8.911 6.346-17.85 12.144-26.783 17.681-6.995 4.357-13.869 8.631-20.536 10.573-10.414 2.97-17.911 1.04-28.544 4.425-7.273 2.278-15.152 6.451-22.688 9.207a122.1 122.1 0 01-34.992 7.764 90.843 90.843 0 01-35.184-4.693 127.839 127.839 0 01-14.365-6.166c-4.156-2.015-8.239-3.919-12.161-5.709-8.183-3.725-15.742-7.008-23.522-11.422a83.525 83.525 0 01-24.832-21.514q.044-3.965.088-7.931c9 11.948 17.02 18.274 24.834 23.312 7.814 4.924 15.421 8.56 23.6 12.5 3.912 1.888 7.976 3.856 12.115 5.922a131.347 131.347 0 0014.337 6.471 85.55 85.55 0 0035.49 4.7 119.531 119.531 0 0034.325-8.2c7.609-2.917 15.635-7.3 22.969-9.749 10.753-3.645 18.486-1.963 29.086-5.473 6.525-2.2 13.139-6.641 19.958-11.223 9.108-6.1 18.22-12.414 27.307-19.286a263.848 263.848 0 0027.012-23.022 144.539 144.539 0 0011.472-12.725c1.756-2.214 3.461-4.526 5.082-6.941 1.565-2.332 2.992-4.8 4.6-7.1 5.326-7.568 11.234-11.716 16.98-12.037 6.076-.347 11.334 2.477 16.866 4.765 6.031 2.479 12.608 4.645 19.85 2.769 8.155-2.111 16.232-6.843 23.913-11.366 8.515-5 16.785-10.035 25.3-12.629 7.918-2.448 16.629-3.029 25.046 2.25 7.9 5.028 12.621 15.111 16.82 25.864 4.2 10.829 7.872 22.328 13.662 31.957a59.028 59.028 0 0010.866 13.258 101.719 101.719 0 00-.064 10.218z"/>
            <path d="M418.432 299.021a55.376 55.376 0 01-11.008-12.041c-5.984-8.862-9.848-19.683-14.267-29.761-4.522-10.257-9.911-19.679-17.067-24.183-4.132-2.593-8.54-2.849-12.61-2.988a52.16 52.16 0 00-12.841 1.228c-8.719 1.858-17.354 5.494-26.072 9.494-4.168 1.913-8.356 3.916-12.578 5.82-3.786 1.707-7.9 3.962-11.764 4.754-6.937 1.409-13.647-.764-19.7-2.908-5.359-1.921-10.562-4.2-16.355-3.739-5.817.451-11.717 4.363-17.175 10.982-3.4 4.122-6.4 8.717-9.9 12.633a120.891 120.891 0 01-11.329 11.04 220.194 220.194 0 01-26.1 18.909c-8.831 5.594-17.676 10.708-26.516 15.776-3.787 2.174-7.641 4.583-11.412 6.276a68.819 68.819 0 01-8.825 3.281c-10.874 3.111-19.977 2.972-30.958 6.277-7.5 2.218-15.237 5.766-22.958 8.281a130.442 130.442 0 01-33.569 6.628 98.319 98.319 0 01-35.189-4.332 141.855 141.855 0 01-13.919-5.45c-4.137-1.8-8.2-3.531-12.144-5.2-8.265-3.493-16-6.727-23.915-10.89a87.053 87.053 0 01-24.991-19.422q.045-4.025.089-8.049a83.993 83.993 0 0024.811 20.968c7.79 4.344 15.367 7.606 23.542 11.262 3.917 1.757 7.99 3.617 12.138 5.578a133.065 133.065 0 0014.351 6.056 92.363 92.363 0 0035.5 4.621 123.9 123.9 0 0034.339-7.464c7.664-2.729 15.589-6.812 22.983-9.066 10.7-3.319 18.545-1.717 29.1-4.743a53.559 53.559 0 008.782-3.516c3.691-1.848 7.462-4.292 11.164-6.554 9.122-5.568 18.249-11.356 27.35-17.708a237.6 237.6 0 0027.094-21.58 130.989 130.989 0 0011.483-12.175c3.494-4.246 6.377-9.087 9.7-13.584 5.341-7.219 11.223-11.208 16.966-11.351 5.989-.156 11.195 2.811 16.648 5.265 5.986 2.668 12.709 5.286 19.874 3.609 3.917-.924 7.965-2.975 11.789-4.855 4.076-2 8.1-4.208 12.081-6.372 8.706-4.721 17.249-9.287 25.957-11.692a41.771 41.771 0 0112.7-1.649c3.984.139 8.267.7 12.331 3.245 7.3 4.6 12.49 14.46 16.667 25.044 4.078 10.4 7.489 21.634 13.4 31.059a54.326 54.326 0 0010.984 12.656q.442 5.147 1.339 10.53z"/>
            <path d="M421.384 312.562a60.088 60.088 0 01-11.563-11.356c-6.16-7.937-10.782-17.924-15.831-27.254-5.211-9.583-11.078-18.031-18.172-22.023-4.036-2.27-8.289-2.53-12.308-2.92a76.837 76.837 0 00-13.51-.1 129.631 129.631 0 00-27.3 5.539c-4.288 1.292-8.581 2.73-12.882 4.223-3.874 1.346-7.942 3.291-11.846 4.105-6.69 1.387-13.347.247-19.584-.734-5.261-.847-10.492-1.774-16.043-.457-5.743 1.355-11.447 5.372-16.771 11.055-3.368 3.6-6.449 7.64-9.907 11a100.891 100.891 0 01-11.155 9.3 195.545 195.545 0 01-24.267 14.583c-8.295 4.34-16.585 8.36-24.879 12.57-3.74 1.9-7.519 4.043-11.246 5.614-3.184 1.346-6.348 2.507-9.473 3.524-11.829 3.769-22.919 5.714-34.794 9.295-7.626 2.267-15.263 5.139-23 7.28a141.915 141.915 0 01-32.536 5.323 109.422 109.422 0 01-33.182-3.684 147.352 147.352 0 01-14.092-4.814c-4.124-1.58-8.2-3.151-12.181-4.7-8.381-3.257-16.352-6.447-24.456-10.4a93.871 93.871 0 01-25.254-17.56q.045-4.083.091-8.167a88.277 88.277 0 0025 18.977c7.941 4.114 15.71 7.336 23.98 10.772 3.944 1.642 8.009 3.339 12.141 5.087a145.263 145.263 0 0013.852 5.3 100.354 100.354 0 0034.858 4.264 132.672 132.672 0 0033.724-6.426c7.71-2.446 15.363-5.816 22.871-8.028 11.1-3.328 20.612-3.643 31.635-6.86a76.1 76.1 0 009.163-3.41c3.668-1.633 7.428-3.953 11.112-6.02 8.607-4.823 17.218-9.642 25.819-14.889a216.144 216.144 0 0026.106-18.24 116.534 116.534 0 0011.544-10.961c3.473-3.806 6.487-8.315 9.887-12.283 5.375-6.267 11.17-10.084 16.889-10.695s10.919 1.384 16.238 3.1c6.1 1.931 13 4.128 19.913 2.539 3.885-.9 7.959-3.052 11.778-4.7 4.115-1.781 8.206-3.622 12.281-5.369 8.765-3.755 17.462-7.1 26.225-8.775a56.271 56.271 0 0113.263-1.048c4.073.181 8.472.416 12.6 2.986 7.122 4.448 12.586 13.7 17.234 23.833 4.54 9.947 8.562 20.607 14.582 29.269a56.072 56.072 0 0011.046 11.831q1.027 5.248 2.4 10.504z"/>
            <path d="M425.263 325.652a69.457 69.457 0 01-12.038-10c-6.593-6.88-12.173-15.819-18.044-24.15-5.994-8.467-12.406-15.709-19.555-19.037-4.232-1.971-8.572-2.5-12.813-3.3q-6.947-1.309-13.9-1.95a140.905 140.905 0 00-28.687.3q-6.625.746-13.251 2.122c-3.994.833-8.006 2.088-12 3.02-6.476 1.507-12.955 1.789-19.334 2.493a50.651 50.651 0 00-15.394 3.643c-5.756 2.524-11.369 6.816-16.7 11.909-3.258 3.116-6.363 6.406-9.755 9.071a78.456 78.456 0 01-10.444 6.892 172.74 172.74 0 01-22.317 9.915c-7.708 2.947-15.4 5.772-23.121 9.057-3.64 1.547-7.281 3.306-10.918 4.8q-5.038 2.079-10.057 3.9c-13.2 4.775-26.261 8.648-39.469 12.537-7.778 2.273-15.543 4.573-23.345 6.3a160.448 160.448 0 01-30.583 3.923 126.687 126.687 0 01-31.667-3.051c-4.659-1.058-9.36-2.5-14.017-4.035-4.117-1.356-8.2-2.743-12.228-4.149-8.5-2.963-16.722-6.027-25.032-9.72-8.31-3.774-16.708-8.176-25.559-15.685l.092-8.285a95.634 95.634 0 0025.285 17.159c8.138 3.9 16.151 7.073 24.544 10.27 3.988 1.523 8.067 3.057 12.19 4.591 4.638 1.731 9.348 3.416 13.991 4.639a112.482 112.482 0 0033.26 3.583 145.449 145.449 0 0032.121-5.073c7.713-2.059 15.324-4.789 22.948-7.051 12.1-3.639 23.6-6.013 35.671-9.972 3.171-1.059 6.372-2.245 9.589-3.6 3.606-1.51 7.249-3.515 10.866-5.3 8.156-4.014 16.3-7.781 24.459-11.821a192.086 192.086 0 0024.169-13.766 96.277 96.277 0 0011.025-8.812c3.451-3.218 6.543-7.112 9.893-10.614 5.382-5.616 11.131-9.718 16.947-11.274 5.476-1.472 10.7-.869 15.928-.293 6.231.66 12.933 1.63 19.536.081 3.938-.931 7.971-2.685 11.889-3.938 4.327-1.383 8.65-2.676 12.97-3.809a131.081 131.081 0 0127.127-4.469 85.948 85.948 0 0113.6.407c4.158.458 8.527.748 12.694 3.03 7.093 3.887 13.058 12.113 18.428 21.5 5.2 9.131 10 18.9 16.228 26.6a61.576 61.576 0 0011.654 11.1c.975 3.494 2.025 6.929 3.124 10.312z"/>
            <path d="M429.574 338.106a88.066 88.066 0 01-12.6-8.407c-7.139-5.726-13.721-13.271-20.466-20.244-6.871-7.069-13.969-12.975-21.441-15.47-4.356-1.454-8.7-2.428-13.053-3.715-4.787-1.416-9.562-2.842-14.331-4.141a169.481 169.481 0 00-30.19-5.786q-22.3-1.928-44.685 7.561c-10.94 4.64-21.291 12.571-31.531 21.266a60.052 60.052 0 01-19.475 11.472c-6.786 2.35-13.514 3.629-20.181 5.043a191.092 191.092 0 00-20.882 5.328c-7.07 2.329-14.2 5.5-21.292 8.29a421.843 421.843 0 01-44.579 15.26c-17.565 4.759-35.123 7.655-52.683 7.867a154.467 154.467 0 01-29.924-2.5 236.788 236.788 0 01-25.774-6.655c-8.637-2.586-17.111-5.387-25.635-8.707-8.524-3.386-17.1-7.292-25.932-13.62q.047-4.2.093-8.4c8.834 7.268 17.259 11.578 25.6 15.283 8.344 3.627 16.607 6.649 25.125 9.542 4.147 1.413 8.355 2.8 12.588 4.143 4.509 1.436 9.049 2.759 13.559 3.748a131.085 131.085 0 0031.244 2.961 165 165 0 0030.213-3.618c7.915-1.657 15.807-3.876 23.707-6.166 13.5-3.936 26.916-8.139 40.418-13.131 7.017-2.6 14.028-5.772 21.046-8.63 7.48-3.044 14.919-5.587 22.376-8.2a171.034 171.034 0 0022.157-9.036 74.146 74.146 0 0010.3-6.385 118.218 118.218 0 009.719-8.661c5.4-5.052 11.054-9.438 16.865-12.233a55.211 55.211 0 0115.275-4.478c6.3-1.062 12.62-1.728 18.967-3.142 4-.892 8.016-2.058 12.02-2.78a129.855 129.855 0 0113.321-1.683 144.811 144.811 0 0128.9.808c4.792.6 9.583 1.424 14.375 2.428 4.262.889 8.594 1.495 12.845 3.39 7.177 3.2 13.7 10.189 19.848 18.387 6.027 8.072 11.8 16.734 18.471 23.375a72.164 72.164 0 0012.149 9.707c1.14 3.384 2.308 6.696 3.473 9.929z"/>
            <path d="M433.818 349.83a127.99 127.99 0 01-13.112-6.576c-7.756-4.48-15.27-10.318-22.852-15.648-7.639-5.34-15.38-9.751-23.262-11.4-9.582-1.974-19.073-6.542-28.394-10.731-10.31-4.618-20.524-9.084-30.822-11.949a81.194 81.194 0 00-14.833-2.817c-4.027-.353-8.254-.64-12.347.43-6.218 1.616-12.564 5.161-18.473 9.655-10.574 8.094-20.223 19.122-30.72 26.749a37.075 37.075 0 01-18.382 6.815c-6.139.693-12.232.437-18.111.482a87.746 87.746 0 00-18.938 1.846c-7.3 1.631-14.567 4.9-21.882 7.864-16.558 6.832-32.983 13.008-49.558 16.806a231 231 0 01-51.41 5.546 203.741 203.741 0 01-27.786-1.892 256.265 256.265 0 01-25.328-5.052c-8.823-2.114-17.568-4.492-26.336-7.29a136.348 136.348 0 01-26.467-11.231q.047-4.26.095-8.521c8.815 6.089 17.4 9.881 25.946 13.173 8.543 3.229 17.042 5.958 25.684 8.459a238.035 238.035 0 0026.023 6.435 161.618 161.618 0 0029.5 2.353 213.173 213.173 0 0052.248-7.408c15.152-4.008 30.29-9.54 45.439-15.607 7.206-2.864 14.443-6.083 21.626-8.3a161.95 161.95 0 0120.437-4.632c6.5-1.143 13.058-2.112 19.7-4.128a55.219 55.219 0 0019.528-10.767c10.182-8.428 20.443-16.961 31.272-22.226a98.165 98.165 0 0118.4-6.663c8.889-2.316 17.865-1.907 26.654-.8a176.671 176.671 0 0129.554 6.771c4.926 1.5 9.862 3.123 14.815 4.69 4.486 1.42 8.947 2.492 13.441 3.913 7.509 2.375 14.695 8.016 21.686 14.755 6.881 6.667 13.627 13.878 20.853 19.359a93.375 93.375 0 0012.689 8.072c1.169 3.241 2.323 6.396 3.423 9.465z"/>
            <path d="M437.5 360.825c-4.5-1.386-9.005-2.861-13.5-4.554-8.293-3.083-16.519-6.925-24.755-10.378-8.236-3.427-16.482-6.465-24.816-7.351-9.918-1.019-19.869-7.477-29.244-13.154-10.788-6.509-21.4-13.254-32.166-18.053a77.128 77.128 0 00-14.8-5.081 44.441 44.441 0 00-7.237-1.017 17.183 17.183 0 00-5.916.307c-6.307 1.9-12.462 6.612-17.932 12.539-4.854 5.268-9.226 11.386-13.824 16.835-5.031 5.972-10.373 10.99-16.222 14.393-5.809 3.379-11.679 3.512-17.39 2.722-5.711-.823-11.262-2.569-16.438-3.715a50.8 50.8 0 00-16.984-1.243 43.4 43.4 0 00-10.484 2.474c-3.978 1.465-7.938 3.049-11.878 4.619-18.12 7.36-35.851 13.714-54.011 16.86-4.3.775-8.639 1.41-12.986 1.859-3.837.4-7.72.638-11.56.872-8.47.512-16.94.759-25.411.685-8.766-.077-17.532-.5-26.3-1.326-8.437-.788-16.884-2.05-25.318-3.513-8.947-1.536-17.871-3.309-26.8-5.4a174.66 174.66 0 01-26.838-8.28l.1-8.639a140.955 140.955 0 0026.508 10.743c8.79 2.684 17.562 4.965 26.4 6.983 8.527 1.968 17.073 3.732 25.618 4.826a216.706 216.706 0 0027.451 1.756 261.89 261.89 0 0026.879-1.377 205.171 205.171 0 0023.841-3.731c16.968-3.715 33.737-10 50.681-17.009 3.817-1.559 7.642-3.134 11.475-4.644a60.972 60.972 0 0110.712-3.143 78.731 78.731 0 0118.305-1.207c5.727.179 11.719.716 17.775.311 6.056-.431 12.178-1.805 18.162-6.036a132.3 132.3 0 0016.438-14.184c4.7-4.653 9.375-9.542 14.335-13.594 5.8-4.733 12.244-8.7 18.442-10.173 4.119-.985 8.365-.6 12.408-.141a79.913 79.913 0 0114.512 3.168c10.359 3.185 20.622 8.034 30.992 12.983 9.448 4.526 19.135 9.521 28.9 11.353 7.94 1.514 15.766 5.652 23.506 10.657 7.706 5.011 15.357 10.512 23.208 14.753a139.6 139.6 0 0013.2 6.234c1.066 3.105 2.068 6.099 2.962 9.011z"/>
            <path d="M440.12 371.303c-4.683-.778-9.369-1.58-14.057-2.464-17.3-3.137-34.577-7.911-51.884-8.6-10.127-.3-20.159-7.658-29.5-14.438-11.218-8.112-22.161-16.911-33.352-23.434a75.8 75.8 0 00-15.046-6.995c-4.147-1.334-8.85-2.712-13.2-1.565-6.5 1.708-12.54 7.391-17.625 14.241-4.756 6.421-8.812 13.695-13.35 19.948-4.748 6.56-10.081 11.735-16.258 14.129-5.888 2.285-11.513 1.183-16.864-.8-5.351-2.022-10.429-4.931-15.227-7.1a35.91 35.91 0 00-15.528-3.619 35.937 35.937 0 00-10.273 1.645c-4.193 1.287-8.354 2.792-12.478 4.282-9.691 3.52-19.21 6.908-28.739 9.516a188.1 188.1 0 01-28.791 5.613c-4.348.505-8.763.873-13.189 1.061-3.769.159-7.574.219-11.346.288q-12.2.22-24.4.052-12.463-.183-24.927-.847c-8.379-.45-16.758-1.137-25.137-1.955-18.127-1.88-36.248-3.771-54.376-7.839q.049-4.378.1-8.757a185.23 185.23 0 0026.9 7.737c8.954 1.954 17.9 3.613 26.87 5.044 8.429 1.359 16.869 2.525 25.3 3.255 8.687.76 17.374 1.156 26.06 1.242 8.393.082 16.785-.123 25.179-.567 3.827-.205 7.7-.413 11.52-.769 4.373-.408 8.736-1 13.056-1.739 18.4-3 36.313-9.312 54.667-16.7 3.963-1.563 7.949-3.14 11.955-4.585a41.359 41.359 0 0110.457-2.345 47.329 47.329 0 0116.725 1.687c5.086 1.323 10.552 3.289 16.2 4.337 5.645 1.014 11.468 1.111 17.266-2.094 5.895-3.259 11.229-8.3 16.206-14.388 4.59-5.6 8.909-11.943 13.749-17.435 5.4-6.121 11.543-11.027 17.883-12.929a16.678 16.678 0 015.923-.256 43.3 43.3 0 017.258 1.135 76.872 76.872 0 0114.864 5.438c10.831 5.1 21.488 12.2 32.339 18.988 9.372 5.889 19.377 12.6 29.338 13.47 8.4.77 16.734 3.531 25.061 6.662 8.326 3.155 16.646 6.679 25.016 9.524 4.522 1.555 9.045 2.919 13.566 4.209.84 2.997 1.547 5.883 2.089 8.717z"/>
            <path d="M441.184 381.855l-13.952-.263q-26.534-.5-53.067-.99a30.506 30.506 0 01-13.986-3.562 101.487 101.487 0 01-15.457-10.525c-11.568-9.158-22.761-19.578-34.3-27.4-8.693-5.976-18.334-11.67-27.921-10.04-6.769 1.122-12.636 6.863-17.563 14.3-9.16 13.967-16.05 32.933-29.577 34.484-6.122.8-12.495-1.135-18.014-4.208-4.828-2.708-9.042-6.24-13.441-9.027a30.031 30.031 0 00-15.024-5.131c-7.426-.3-15.128 2.078-22.456 4.181-10.094 2.97-19.941 5.884-29.8 7.913a185.025 185.025 0 01-29.877 3.709c-4.178.194-8.424.263-12.686.2-3.812-.058-7.628-.139-11.44-.208l-23.734-.436q-52.218-.959-104.436-1.943.049-4.438.1-8.875c18.15 3.537 36.3 5.2 54.45 6.851q24.958 2.147 49.929 2.5 12.132.185 24.264.03c3.773-.047 7.573-.083 11.344-.208 4.43-.147 8.849-.47 13.2-.931a186.9 186.9 0 0028.993-5.361c9.591-2.537 19.173-5.873 28.938-9.339 7.532-2.617 15.176-5.67 22.768-5.7a34.588 34.588 0 0115.371 3.909c4.772 2.311 9.787 5.357 15.091 7.529 5.3 2.135 10.9 3.4 16.821 1.3 12.728-4.381 19.954-20.936 29.558-34.3 5.044-6.965 11.057-12.731 17.6-14.39 4.361-1.108 9.044.265 13.2 1.652a75.587 75.587 0 0115.083 7.247c11.231 6.751 22.2 15.816 33.464 24.121 9.358 6.927 19.365 14.292 29.534 14.524 17.4.565 34.778 4.613 52.174 7.306 4.691.756 9.382 1.446 14.069 2.119a65.058 65.058 0 01.78 8.962z"/>
          </g>
        </g>
      </g>
    </g>
  </g>
</svg>
