<svg style="position: absolute; width: 0; height: 0;" width="0" height="0" version="1.1" xmlns="http://www.w3.org/2000/svg" xmlns:xlink="http://www.w3.org/1999/xlink">
  
  <symbol id="cardstack-icon" viewBox="0 0 28 28"><path d="M0 0h28v28H0V0zm25 14l-10.417 9H3l4.747-4.1h6.94l5.672-4.9H25zm0-5l-10.417 9H3l4.747-4.1h6.94L20.359 9H25zm0-5l-10.417 9H3l10.42-9H25z" fill="#FFF" fill-rule="evenodd"/></symbol>

  <symbol id="accounts" viewBox="0 0 18 15" version="1.1" xmlns="http://www.w3.org/2000/svg" xmlns:xlink="http://www.w3.org/1999/xlink" xmlns:sketch="http://www.bohemiancoding.com/sketch/ns">
    <g id="Page-1" stroke="none" stroke-width="1" fill="none" fill-rule="evenodd" sketch:type="MSPage">
      <g id="AIA_select_type_tag" sketch:type="MSArtboardGroup" transform="translate(-10.000000, -13.000000)" fill="#FFFFFF">
        <g id="Group" sketch:type="MSLayerGroup" transform="translate(10.000000, 13.000000)">
          <rect id="line1" sketch:type="MSShapeGroup" x="11" y="3" width="7" height="2"></rect>
          <rect id="cross1" sketch:type="MSShapeGroup" x="0" y="3" width="8" height="2"></rect>
          <rect id="cross2" sketch:type="MSShapeGroup" transform="translate(4, 4) rotate(-90) translate(-4, -4) " x="0" y="3" width="8" height="2"></rect>
          <rect id="line2" sketch:type="MSShapeGroup" x="8" y="8" width="10" height="2"></rect>
          <rect id="line3" sketch:type="MSShapeGroup" x="3" y="13" width="15" height="2"></rect>
        </g>
      </g>
    </g>
  </symbol>

  <symbol id="page" viewBox="0 0 18 24" version="1.1" xmlns="http://www.w3.org/2000/svg" xmlns:xlink="http://www.w3.org/1999/xlink" xmlns:sketch="http://www.bohemiancoding.com/sketch/ns">
    <g id="Page-1" stroke="none" stroke-width="1" fill="none" fill-rule="evenodd" sketch:type="MSPage">
      <g id="AIA_text_formatting" sketch:type="MSArtboardGroup" transform="translate(-225.000000, -9.000000)" fill="#FFFFFF">
        <g id="Group-+-Editor-+-Rectangle-51-+-Rectangle-51-Copy-+-ON" sketch:type="MSLayerGroup" transform="translate(195.000000, 0.000000)">
          <g id="Group" sketch:type="MSShapeGroup">
            <g id="Rectangle-21-Copy-2-+-Page-+-Fill-1" transform="translate(1.000000, 0.000000)">
              <g id="Page-+-Fill-1" transform="translate(29.000000, 9.000000)">
                <g id="Fill-1">
                  <path d="M11,7 L11,1 L17,7 L11,7 Z M17.854,6.147 L11.854,0.147 C11.76,0.053 11.632,0 11.5,0 L0.5,0 C0.224,0 0,0.224 0,0.5 L0,23.5 C0,23.776 0.224,24 0.5,24 L17.5,24 C17.776,24 18,23.776 18,23.5 L18,6.5 C18,6.367 17.947,6.24 17.854,6.147 L17.854,6.147 Z"></path>
                </g>
              </g>
            </g>
          </g>
        </g>
      </g>
    </g>
  </symbol>

  <symbol id="tiles" viewBox="0 0 20 24" version="1.1" xmlns="http://www.w3.org/2000/svg" xmlns:xlink="http://www.w3.org/1999/xlink" xmlns:sketch="http://www.bohemiancoding.com/sketch/ns">
    <g id="Page-1" stroke="none" stroke-width="1" fill="none" fill-rule="evenodd" sketch:type="MSPage">
      <g id="AIA_text_formatting" sketch:type="MSArtboardGroup" transform="translate(-344.000000, -10.000000)" fill="#FFFFFF">
        <g id="Group-+-Editor-+-Rectangle-51-+-Rectangle-51-Copy-+-ON" sketch:type="MSLayerGroup" transform="translate(195.000000, 0.000000)">
          <g id="Group" sketch:type="MSShapeGroup">
            <g transform="translate(149.000000, 9.000000)">
              <path d="M5,4.9994 L5,1.9994 L8,4.9994 L5,4.9994 Z M5.853,1.1464 C5.76,1.0524 5.632,0.9994 5.5,0.9994 L0.5,0.9994 C0.224,0.9994 0,1.2234 0,1.4994 L0,11.4994 C0,11.7754 0.224,11.9994 0.5,11.9994 L8.5,11.9994 C8.776,11.9994 9,11.7754 9,11.4994 L9,4.4994 C9,4.3664 8.947,4.2394 8.853,4.1464 L5.853,1.1464 Z" id="Fill-25"></path>
              <path d="M16,4.9994 L16,1.9994 L19,4.9994 L16,4.9994 Z M19.853,4.1464 L16.853,1.1464 C16.76,1.0524 16.632,0.9994 16.5,0.9994 L11.5,0.9994 C11.224,0.9994 11,1.2234 11,1.4994 L11,11.4994 C11,11.7754 11.224,11.9994 11.5,11.9994 L19.5,11.9994 C19.776,11.9994 20,11.7754 20,11.4994 L20,4.4994 C20,4.3664 19.947,4.2394 19.853,4.1464 L19.853,4.1464 Z" id="Fill-27"></path>
              <path d="M5,17.9994 L5,14.9994 L8,17.9994 L5,17.9994 Z M5.853,14.1464 C5.76,14.0524 5.632,13.9994 5.5,13.9994 L0.5,13.9994 C0.224,13.9994 0,14.2234 0,14.4994 L0,24.4994 C0,24.7754 0.224,24.9994 0.5,24.9994 L8.5,24.9994 C8.776,24.9994 9,24.7754 9,24.4994 L9,17.4994 C9,17.3664 8.947,17.2394 8.853,17.1464 L5.853,14.1464 Z" id="Fill-29"></path>
              <path d="M16,17.9994 L16,14.9994 L19,17.9994 L16,17.9994 Z M16.853,14.1464 C16.76,14.0524 16.632,13.9994 16.5,13.9994 L11.5,13.9994 C11.224,13.9994 11,14.2234 11,14.4994 L11,24.4994 C11,24.7754 11.224,24.9994 11.5,24.9994 L19.5,24.9994 C19.776,24.9994 20,24.7754 20,24.4994 L20,17.4994 C20,17.3664 19.947,17.2394 19.853,17.1464 L16.853,14.1464 Z" id="Fill-31"></path>
            </g>
          </g>
        </g>
      </g>
    </g>
  </symbol>
  
</svg>
