<?xml version="1.0" encoding="UTF-8"?>
<svg width="20px" height="20px" viewBox="0 0 20 20" version="1.1" xmlns="http://www.w3.org/2000/svg" xmlns:xlink="http://www.w3.org/1999/xlink">
    <defs>
        <path d="M19.0318994,17.6176858 L22.7071068,21.2928932 C23.0976311,21.6834175 23.0976311,22.3165825 22.7071068,22.7071068 C22.3165825,23.0976311 21.6834175,23.0976311 21.2928932,22.7071068 L17.6176858,19.0318994 C16.078015,20.2635271 14.1250137,21 12,21 C7.02943725,21 3,16.9705627 3,12 C3,7.02943725 7.02943725,3 12,3 C16.9705627,3 21,7.02943725 21,12 C21,14.1250137 20.2635271,16.078015 19.0318994,17.6176858 Z M17.0413859,16.8563911 C18.2541765,15.5976949 19,13.8859457 19,12 C19,8.13400675 15.8659932,5 12,5 C8.13400675,5 5,8.13400675 5,12 C5,15.8659932 8.13400675,19 12,19 C13.8859457,19 15.5976949,18.2541765 16.8563911,17.0413859 C16.8827083,17.0071587 16.9115424,16.9742441 16.9428932,16.9428932 C16.9742441,16.9115424 17.0071587,16.8827083 17.0413859,16.8563911 Z" id="search-path-1"></path>
    </defs>
    <g stroke="none" stroke-width="1" fill="none" fill-rule="evenodd">
        <g transform="translate(-31.000000, -31.000000)">
            <g>
                <g transform="translate(21.000000, 20.000000)">
                    <g transform="translate(7.000000, 8.000000)">
                        <mask id="search-mask-2" fill="white">
                            <use xlink:href="#search-path-1"></use>
                        </mask>
                        <use fill="#000000" fill-rule="nonzero" xlink:href="#search-path-1"></use>
                        <g mask="url(#search-mask-2)" fill="#FFFFFF" fill-rule="evenodd">
                            <rect x="0" y="0" width="26" height="26"></rect>
                            <rect x="0" y="0" width="26" height="26"></rect>
                        </g>
                    </g>
                </g>
            </g>
        </g>
    </g>
</svg>