<svg xmlns="http://www.w3.org/2000/svg" xmlns:xlink="http://www.w3.org/1999/xlink" width="50.526" height="56.841" viewBox="0 0 50.526 56.841"><g fill="var(--icon-color, #000)"><path d="M 26.10496711730957 58.09135818481445 L 13.47355651855469 58.09135818481445 C 8.66336727142334 58.09135818481445 4.749997138977051 54.17798614501953 4.749997138977051 49.3677978515625 L 4.749997138977051 11.473557472229 C 4.749997138977051 6.66336727142334 8.66336727142334 2.749997138977051 13.47355651855469 2.749997138977051 L 45.05209732055664 2.749997138977051 C 49.86228561401367 2.749997138977051 53.77565765380859 6.66336727142334 53.77565765380859 11.473557472229 L 53.77565765380859 36.73638534545898 C 53.77565765380859 38.0640754699707 52.69549560546875 39.14423751831055 51.36780548095703 39.14423751831055 C 50.04010772705078 39.14423751831055 48.95994567871094 38.0640754699707 48.95994567871094 36.73638534545898 L 48.95994567871094 11.473557472229 C 48.95994567871094 9.318757057189941 47.2068977355957 7.565707206726074 45.05209732055664 7.565707206726074 L 13.47355651855469 7.565707206726074 C 11.31875705718994 7.565707206726074 9.565707206726074 9.318757057189941 9.565707206726074 11.473557472229 L 9.565707206726074 49.3677978515625 C 9.565707206726074 51.52259826660156 11.31875705718994 53.2756462097168 13.47355651855469 53.2756462097168 L 26.10496711730957 53.2756462097168 C 27.43266677856445 53.2756462097168 28.51282691955566 54.35580825805664 28.51282691955566 55.68350601196289 C 28.51282691955566 57.01119613647461 27.43266677856445 58.09135818481445 26.10496711730957 58.09135818481445 Z" stroke="none" transform="translate(-4 -2)"/><g><path d="M11.812-6.812h7.875A1.313,1.313,0,0,1,21-5.5a1.313,1.313,0,0,1-1.312,1.313H11.812V3.687a1.312,1.312,0,1,1-2.625,0V-4.187H1.313A1.312,1.312,0,0,1,0-5.5,1.312,1.312,0,0,1,1.313-6.812H9.188v-7.875A1.313,1.313,0,0,1,10.5-16a1.313,1.313,0,0,1,1.312,1.312Z" transform="translate(-4 -2) translate(32 55.235)"/></g></g></svg>