<svg xmlns="http://www.w3.org/2000/svg" xmlns:xlink="http://www.w3.org/1999/xlink" width="50.526" height="56.841" viewBox="0 0 50.526 56.841"><defs><clipPath id="a"><rect width="21" height="21" fill="none"/></clipPath><clipPath id="b"><path d="M11.812-6.812h7.875A1.313,1.313,0,0,1,21-5.5a1.313,1.313,0,0,1-1.312,1.313H11.812V3.687a1.312,1.312,0,1,1-2.625,0V-4.187H1.313A1.312,1.312,0,0,1,0-5.5,1.312,1.312,0,0,1,1.313-6.812H9.188v-7.875A1.313,1.313,0,0,1,10.5-16a1.313,1.313,0,0,1,1.312,1.312Z" transform="translate(0 16)" fill="#141229"/></clipPath><clipPath id="c"><rect width="33" height="33" transform="translate(0.3 0.3)" fill="#141229" stroke="#aca9c8" stroke-width="1"/></clipPath><clipPath id="d"><path d="M0,5H21V-16H0Z" transform="translate(0 16)" fill="#141229"/></clipPath></defs><g transform="translate(93 1)"><g transform="translate(-93 -1)"><g transform="translate(-4 -2)" fill="#141229"><path d="M 26.10496711730957 58.09135818481445 L 13.47355651855469 58.09135818481445 C 8.66336727142334 58.09135818481445 4.749997138977051 54.17798614501953 4.749997138977051 49.3677978515625 L 4.749997138977051 11.473557472229 C 4.749997138977051 6.66336727142334 8.66336727142334 2.749997138977051 13.47355651855469 2.749997138977051 L 45.05209732055664 2.749997138977051 C 49.86228561401367 2.749997138977051 53.77565765380859 6.66336727142334 53.77565765380859 11.473557472229 L 53.77565765380859 36.73638534545898 C 53.77565765380859 38.0640754699707 52.69549560546875 39.14423751831055 51.36780548095703 39.14423751831055 C 50.04010772705078 39.14423751831055 48.95994567871094 38.0640754699707 48.95994567871094 36.73638534545898 L 48.95994567871094 11.473557472229 C 48.95994567871094 9.318757057189941 47.2068977355957 7.565707206726074 45.05209732055664 7.565707206726074 L 13.47355651855469 7.565707206726074 C 11.31875705718994 7.565707206726074 9.565707206726074 9.318757057189941 9.565707206726074 11.473557472229 L 9.565707206726074 49.3677978515625 C 9.565707206726074 51.52259826660156 11.31875705718994 53.2756462097168 13.47355651855469 53.2756462097168 L 26.10496711730957 53.2756462097168 C 27.43266677856445 53.2756462097168 28.51282691955566 54.35580825805664 28.51282691955566 55.68350601196289 C 28.51282691955566 57.01119613647461 27.43266677856445 58.09135818481445 26.10496711730957 58.09135818481445 Z" stroke="none"/><path d="M 26.10496711730957 57.34135818481445 C 27.01911735534668 57.34135818481445 27.76282691955566 56.59764862060547 27.76282691955566 55.68350601196289 C 27.76282691955566 54.76935577392578 27.01911735534668 54.0256462097168 26.10496711730957 54.0256462097168 L 13.47355651855469 54.0256462097168 C 10.90520668029785 54.0256462097168 8.815707206726074 51.9361457824707 8.815707206726074 49.3677978515625 L 8.815707206726074 11.473557472229 C 8.815707206726074 8.905207633972168 10.90520668029785 6.815707206726074 13.47355651855469 6.815707206726074 L 45.05209732055664 6.815707206726074 C 47.62044525146484 6.815707206726074 49.70994567871094 8.905207633972168 49.70994567871094 11.473557472229 L 49.70994567871094 36.73638534545898 C 49.70994567871094 37.65052795410156 50.45365524291992 38.39423751831055 51.36780548095703 38.39423751831055 C 52.28194808959961 38.39423751831055 53.02565765380859 37.65052795410156 53.02565765380859 36.73638534545898 L 53.02565765380859 11.473557472229 C 53.02565765380859 7.076917171478271 49.44873809814453 3.499997138977051 45.05209732055664 3.499997138977051 L 13.47355651855469 3.499997138977051 C 9.076916694641113 3.499997138977051 5.499997138977051 7.076917171478271 5.499997138977051 11.473557472229 L 5.499997138977051 49.3677978515625 C 5.499997138977051 53.76443862915039 9.076916694641113 57.34135818481445 13.47355651855469 57.34135818481445 L 26.10496711730957 57.34135818481445 M 26.10496711730957 58.84135818481445 L 13.47355651855469 58.84135818481445 C 8.240997314453125 58.84135818481445 3.999996900558472 54.60035705566406 3.999996900558472 49.3677978515625 L 3.999996900558472 11.473557472229 C 3.999996900558472 6.240997314453125 8.240997314453125 1.999997138977051 13.47355651855469 1.999997138977051 L 45.05209732055664 1.999997138977051 C 50.2846565246582 1.999997138977051 54.52565765380859 6.240997314453125 54.52565765380859 11.473557472229 L 54.52565765380859 36.73638534545898 C 54.52565765380859 38.47951889038086 53.11093521118164 39.89423751831055 51.36780548095703 39.89423751831055 C 49.62466812133789 39.89423751831055 48.20994567871094 38.47951889038086 48.20994567871094 36.73638534545898 L 48.20994567871094 11.473557472229 C 48.20994567871094 9.730426788330078 46.79522705078125 8.315707206726074 45.05209732055664 8.315707206726074 L 13.47355651855469 8.315707206726074 C 11.73042678833008 8.315707206726074 10.31570720672607 9.730426788330078 10.31570720672607 11.473557472229 L 10.31570720672607 49.3677978515625 C 10.31570720672607 51.11093902587891 11.73042678833008 52.5256462097168 13.47355651855469 52.5256462097168 L 26.10496711730957 52.5256462097168 C 27.84810638427734 52.5256462097168 29.26282691955566 53.94036865234375 29.26282691955566 55.68350601196289 C 29.26282691955566 57.4266357421875 27.84810638427734 58.84135818481445 26.10496711730957 58.84135818481445 Z" stroke="none" fill="#aca9c8"/></g><g transform="translate(27 35.235)" clip-path="url(#a)"><g clip-path="url(#b)"><g transform="translate(-6.3 -6.3)" clip-path="url(#c)"><g transform="translate(6.3 6.3)" clip-path="url(#d)"><path d="M-5-21H29.125V13.125H-5Z" transform="translate(-1.563 14.438)" fill="#141229"/></g></g></g></g></g></g></svg>