<svg xmlns="http://www.w3.org/2000/svg" width="60" height="60" viewBox="0 0 60 60"><g transform="translate(-3.5 -3.5)"><g fill="#141229"><path d="M 53.17742156982422 62.90000152587891 L 13.82258033752441 62.90000152587891 C 8.461529731750488 62.90000152587891 4.099999904632568 58.53847122192383 4.099999904632568 53.17742156982422 L 4.099999904632568 13.82258033752441 C 4.099999904632568 8.461529731750488 8.461529731750488 4.099999904632568 13.82258033752441 4.099999904632568 L 53.17742156982422 4.099999904632568 C 58.53847122192383 4.099999904632568 62.90000152587891 8.461529731750488 62.90000152587891 13.82258033752441 L 62.90000152587891 53.17742156982422 C 62.90000152587891 58.53847122192383 58.53847122192383 62.90000152587891 53.17742156982422 62.90000152587891 Z M 13.82258033752441 8.06128978729248 C 10.64579010009766 8.06128978729248 8.06128978729248 10.64579010009766 8.06128978729248 13.82258033752441 L 8.06128978729248 53.17742156982422 C 8.06128978729248 56.35420989990234 10.64579010009766 58.9387092590332 13.82258033752441 58.9387092590332 L 53.17742156982422 58.9387092590332 C 56.35420989990234 58.9387092590332 58.9387092590332 56.35420989990234 58.9387092590332 53.17742156982422 L 58.9387092590332 13.82258033752441 C 58.9387092590332 10.64579010009766 56.35420989990234 8.06128978729248 53.17742156982422 8.06128978729248 L 13.82258033752441 8.06128978729248 Z" stroke="none"/><path d="M 13.82257843017578 4.700000762939453 C 8.792369842529297 4.700000762939453 4.700000762939453 8.792369842529297 4.700000762939453 13.82257843017578 L 4.700000762939453 53.17742156982422 C 4.700000762939453 58.2076301574707 8.792369842529297 62.29999923706055 13.82257843017578 62.29999923706055 L 53.17742156982422 62.29999923706055 C 58.2076301574707 62.29999923706055 62.29999923706055 58.2076301574707 62.29999923706055 53.17742156982422 L 62.29999923706055 13.82257843017578 C 62.29999923706055 8.792369842529297 58.2076301574707 4.700000762939453 53.17742156982422 4.700000762939453 L 13.82257843017578 4.700000762939453 M 53.17742156982422 59.53871154785156 L 13.82257843017578 59.53871154785156 C 10.31494903564453 59.53871154785156 7.461288452148438 56.68505096435547 7.461288452148438 53.17742156982422 L 7.461288452148438 13.82257843017578 C 7.461288452148438 10.31494903564453 10.31494903564453 7.461288452148438 13.82257843017578 7.461288452148438 L 53.17742156982422 7.461288452148438 C 56.68505096435547 7.461288452148438 59.53871154785156 10.31494903564453 59.53871154785156 13.82257843017578 L 59.53871154785156 53.17742156982422 C 59.53871154785156 56.68505096435547 56.68505096435547 59.53871154785156 53.17742156982422 59.53871154785156 M 13.82257843017578 3.5 L 53.17742156982422 3.5 C 58.87870788574219 3.5 63.5 8.121288299560547 63.5 13.82257843017578 L 63.5 53.17742156982422 C 63.5 58.87870788574219 58.87870788574219 63.5 53.17742156982422 63.5 L 13.82257843017578 63.5 C 8.121288299560547 63.5 3.5 58.87870788574219 3.5 53.17742156982422 L 3.5 13.82257843017578 C 3.5 8.121288299560547 8.121288299560547 3.5 13.82257843017578 3.5 Z M 53.17742156982422 58.33871078491211 C 56.02774047851562 58.33871078491211 58.33871078491211 56.02774047851562 58.33871078491211 53.17742156982422 L 58.33871078491211 13.82257843017578 C 58.33871078491211 10.97225952148438 56.02774047851562 8.661289215087891 53.17742156982422 8.661289215087891 L 13.82257843017578 8.661289215087891 C 10.97225952148438 8.661289215087891 8.661289215087891 10.97225952148438 8.661289215087891 13.82257843017578 L 8.661289215087891 53.17742156982422 C 8.661289215087891 56.02774047851562 10.97225952148438 58.33871078491211 13.82257843017578 58.33871078491211 L 53.17742156982422 58.33871078491211 Z" stroke="none" fill="#aca9c8"/></g><rect width="13" height="14" rx="2" transform="translate(14.5 37.5)" fill="#141229"/><rect width="13" height="14" rx="2" transform="translate(14.5 14.5)" fill="#141229"/><path d="M36.008,14.956H52.084" transform="translate(0 2)" fill="none" stroke="#141229" stroke-linecap="round" stroke-width="2.5"/><path d="M36.008,14.956H52.084" transform="translate(0 26)" fill="none" stroke="#141229" stroke-linecap="round" stroke-width="2.5"/><path d="M36.008,14.956h8.038" transform="translate(0 10)" fill="none" stroke="#141229" stroke-linecap="round" stroke-width="2.5"/><path d="M36.008,14.956h8.038" transform="translate(0 34)" fill="none" stroke="#141229" stroke-linecap="round" stroke-width="2.5"/></g></svg>