<svg viewBox="0 0 16.519 16.52" xmlns="http://www.w3.org/2000/svg"><g fill="var(--icon-color, #000)"><path d="m993.352 384.509a1.569 1.569 0 0 1 -1.565 1.565h-6.017a1.57 1.57 0 0 1 -1.565-1.565v-6.017a1.57 1.57 0 0 1 1.565-1.565h3.3l1.982-1.982h-5.282a3.551 3.551 0 0 0 -3.547 3.547v6.017a3.551 3.551 0 0 0 3.547 3.547h6.017a3.551 3.551 0 0 0 3.548-3.547v-5.286l-1.983 1.982z" transform="translate(-982.223 -371.537)"/><path d="m1030.612 355.344h-5.083a.98.98 0 0 0 -.991.968v.023a.979.979 0 0 0 .968.991h2.7l-5.947 5.947a.987.987 0 0 0 0 1.391.966.966 0 0 0 1.366.025l.025-.025 5.947-5.947v2.683a.991.991 0 0 0 1.982 0v-5.06a.98.98 0 0 0 -.967-.996z" transform="translate(-1015.061 -355.344)"/></g></svg>