<svg viewBox="0 0 16 16" xmlns="http://www.w3.org/2000/svg" xmlns:xlink="http://www.w3.org/1999/xlink"><clipPath id="a"><path d="m0 0h16v16h-16z"/></clipPath><clipPath id="b"><path d="m9-9h6a1 1 0 0 1 1 1 1 1 0 0 1 -1 1h-6v6a1 1 0 0 1 -1 1 1 1 0 0 1 -1-1v-6h-6a1 1 0 0 1 -1-1 1 1 0 0 1 1-1h6v-6a1 1 0 0 1 1-1 1 1 0 0 1 1 1z"/></clipPath><clipPath id="c"><path d="m-5-21h26v26h-26z"/></clipPath><clipPath id="d"><path d="m0 0h16v-16h-16z"/></clipPath><g clip-path="url(#a)"><g clip-path="url(#b)" transform="translate(0 16)"><g clip-path="url(#c)"><g clip-path="url(#d)"><path d="m-5-21h26v26h-26z"/></g></g></g></g></svg>