<svg viewBox="0 0 11.899 10.485" xmlns="http://www.w3.org/2000/svg" xmlns:xlink="http://www.w3.org/1999/xlink"><clipPath id="a"><path d="m0 0h11.899v10.485h-11.899z"/></clipPath><clipPath id="b"><path d="m9.509-7.991-2.536-2.536a1 1 0 0 1 0-1.414 1 1 0 0 1 1.414 0l4.243 4.241a1 1 0 0 1 0 1.414l-4.242 4.244a1 1 0 0 1 -1.414 0 1 1 0 0 1 0-1.414l2.535-2.535h-7.485a1 1 0 0 1 -1-1 1 1 0 0 1 1-1z"/></clipPath><clipPath id="c"><path d="m-7-21h28v28h-28z"/></clipPath><clipPath id="d"><path d="m1-1h12v-12h-12z"/></clipPath><g clip-path="url(#a)"><g clip-path="url(#b)" transform="translate(-1.024 12.234)"><g clip-path="url(#c)"><g clip-path="url(#d)"><path d="m6.973 6.444-13.435-13.435 13.435-13.435 13.435 13.435z"/></g></g></g></g></svg>