<svg viewBox="0 0 28 28" xmlns="http://www.w3.org/2000/svg"><path d="m14 6a14 14 0 0 1 -14-14 14 14 0 0 1 14-14 14 14 0 0 1 14 14 14 14 0 0 1 -14 14zm0-2.545a11.455 11.455 0 0 0 11.455-11.455 11.455 11.455 0 0 0 -11.455-11.455 11.455 11.455 0 0 0 -11.455 11.455 11.455 11.455 0 0 0 11.455 11.455zm1.273-12.242 4.387 2.194a1.273 1.273 0 0 1 .569 1.708 1.273 1.273 0 0 1 -1.708.569l-5.09-2.546a1.273 1.273 0 0 1 -.704-1.138v-7.636a1.273 1.273 0 0 1 1.273-1.273 1.273 1.273 0 0 1 1.273 1.273z" transform="translate(0 22)" stroke="none" fill="var(--icon-color, #000)" /></svg>
