<svg height="28" viewBox="0 0 28 28" width="28" xmlns="http://www.w3.org/2000/svg" xmlns:xlink="http://www.w3.org/1999/xlink"><clipPath id="clock-a"><path d="m14 6a14 14 0 0 1 -14-14 14 14 0 0 1 14-14 14 14 0 0 1 14 14 14 14 0 0 1 -14 14zm0-2.545a11.455 11.455 0 0 0 11.455-11.455 11.455 11.455 0 0 0 -11.455-11.455 11.455 11.455 0 0 0 -11.455 11.455 11.455 11.455 0 0 0 11.455 11.455zm1.273-12.242 4.387 2.194a1.273 1.273 0 0 1 .569 1.708 1.273 1.273 0 0 1 -1.708.569l-5.09-2.546a1.273 1.273 0 0 1 -.704-1.138v-7.636a1.273 1.273 0 0 1 1.273-1.273 1.273 1.273 0 0 1 1.273 1.273z" transform="translate(0 22)"/></clipPath><clipPath id="clock-b"><path d="m0 0h40.727v40.727h-40.727z"/></clipPath><clipPath id="clock-c"><path d="m0 6h28v-28h-28z" transform="translate(0 22)"/></clipPath><g clip-path="url(#clock-a)"><g clip-path="url(#clock-b)" transform="translate(-6.364 -6.364)"><g clip-path="url(#clock-c)" transform="translate(6.364 6.364)"><path d="m-5-27h40.727v40.727h-40.727z" transform="translate(-1.364 20.636)"/></g></g></g></svg>