<svg viewBox="0 0 22 22" xmlns="http://www.w3.org/2000/svg" xmlns:xlink="http://www.w3.org/1999/xlink"><clipPath id="a"><path d="m0 0h22v22h-22z"/></clipPath><clipPath id="b"><path d="m11 0a11 11 0 0 1 -11-11 11 11 0 0 1 11-11 11 11 0 0 1 11 11 11 11 0 0 1 -11 11zm0-2a9 9 0 0 0 9-9 9 9 0 0 0 -9-9 9 9 0 0 0 -9 9 9 9 0 0 0 9 9zm1-9.618 3.447 1.724a1 1 0 0 1 .447 1.342 1 1 0 0 1 -1.342.447l-4-2a1 1 0 0 1 -.552-.895v-6a1 1 0 0 1 1-1 1 1 0 0 1 1 1z"/></clipPath><clipPath id="c"><path d="m-5-27h32v32h-32z"/></clipPath><clipPath id="d"><path d="m0 0h22v-22h-22z"/></clipPath><g clip-path="url(#a)"><g clip-path="url(#b)" transform="translate(0 22)"><g clip-path="url(#c)"><g clip-path="url(#d)"><path d="m-5-27h32v32h-32z"/></g></g></g></g></svg>