<svg viewBox="0 0 11.899 11.9" xmlns="http://www.w3.org/2000/svg" xmlns:xlink="http://www.w3.org/1999/xlink"><clipPath id="a"><path d="m0 0h11.899v11.899h-11.899z"/></clipPath><clipPath id="b"><path d="m7.414-6 4.243 4.243a1 1 0 0 1 0 1.414 1 1 0 0 1 -1.414 0l-4.243-4.243-4.243 4.243a1 1 0 0 1 -1.414 0 1 1 0 0 1 0-1.414l4.243-4.243-4.243-4.243a1 1 0 0 1 0-1.414 1 1 0 0 1 1.414 0l4.243 4.243 4.243-4.243a1 1 0 0 1 1.414 0 1 1 0 0 1 0 1.414z"/></clipPath><clipPath id="c"><path d="m-5-17h22v22h-22z"/></clipPath><clipPath id="d"><path d="m0 0h12v-12h-12z"/></clipPath><g clip-path="url(#a)"><g clip-path="url(#b)" transform="translate(-.05 11.95)"><g clip-path="url(#c)"><g clip-path="url(#d)"><path d="m-4.95-16.95h21.9v21.9h-21.9z"/></g></g></g></g></svg>