<svg xmlns="http://www.w3.org/2000/svg" width="36" height="36" viewBox="0 0 36 36"><g transform="translate(-187.621 -85.59)" opacity="0.5"><path d="M13,42.666v-3h3v-3H13a3.009,3.009,0,0,0-3,3v3Z" transform="translate(177.621 60.924)" fill="#fff"/><path d="M54,10H36a3.008,3.008,0,0,0-3,3v9H30v3h3v6a3.01,3.01,0,0,0,3,3h6v3h3V34h9a3.01,3.01,0,0,0,3-3V13A3.009,3.009,0,0,0,54,10Zm0,21H36V13H54Z" transform="translate(166.621 75.59)" fill="#fff"/><path d="M50,39.666h3v3h3v-3a3.009,3.009,0,0,0-3-3H50Z" transform="translate(155.621 60.924)" fill="#fff"/><rect width="6" height="3" transform="translate(196.621 118.59)" fill="#fff"/><path d="M53,76.667v3H50v3h3a3.01,3.01,0,0,0,3-3v-3Z" transform="translate(155.621 38.923)" fill="#fff"/><path d="M16,79.667H13v-3H10v3a3.009,3.009,0,0,0,3,3h3Z" transform="translate(177.621 38.923)" fill="#fff"/><rect width="3" height="6" transform="translate(187.621 106.59)" fill="#fff"/></g></svg>