<svg viewBox="0 0 36 36" xmlns="http://www.w3.org/2000/svg"><g fill="var(--icon-color, #000)" opacity="var(--icon-opacity)" transform="translate(-187.621 -85.59)"><path d="m13 42.666v-3h3v-3h-3a3.009 3.009 0 0 0 -3 3v3z" transform="translate(177.621 60.924)"/><path d="m54 10h-18a3.008 3.008 0 0 0 -3 3v9h-3v3h3v6a3.01 3.01 0 0 0 3 3h6v3h3v-3h9a3.01 3.01 0 0 0 3-3v-18a3.009 3.009 0 0 0 -3-3zm0 21h-18v-18h18z" transform="translate(166.621 75.59)"/><path d="m50 39.666h3v3h3v-3a3.009 3.009 0 0 0 -3-3h-3z" transform="translate(155.621 60.924)"/><path d="m196.621 118.59h6v3h-6z"/><path d="m53 76.667v3h-3v3h3a3.01 3.01 0 0 0 3-3v-3z" transform="translate(155.621 38.923)"/><path d="m16 79.667h-3v-3h-3v3a3.009 3.009 0 0 0 3 3h3z" transform="translate(177.621 38.923)"/><path d="m187.621 106.59h3v6h-3z"/></g></svg>