<svg id="Icon_System_Error" data-name="Icon_System Error" xmlns="http://www.w3.org/2000/svg" viewBox="0 0 20 20"><circle id="Ellipse_24" data-name="Ellipse 24" cx="10" cy="10" r="10" fill="red"/><path id="Path_382" data-name="Path 382" d="M-.179-2.867H-2.522l-.49-6.924H.31ZM-3.05.418A1.61,1.61,0,0,1-2.618-.8,1.752,1.752,0,0,1-1.36-1.215,1.7,1.7,0,0,1-.126-.792,1.606,1.606,0,0,1,.31.418a1.606,1.606,0,0,1-.442,1.2A1.672,1.672,0,0,1-1.36,2.05a1.722,1.722,0,0,1-1.248-.427A1.6,1.6,0,0,1-3.05.418Z" transform="translate(11.433 13.731)" fill="#fff" stroke="rgba(0,0,0,0)" stroke-width="1"/></svg>