<svg viewBox="0 0 24 18" xmlns="http://www.w3.org/2000/svg"><g fill="var(--icon-color, #000)"><path d="m2.574-8.293a18.513 18.513 0 0 0 2.026 2.609c2.176 2.316 4.655 3.684 7.4 3.684s5.224-1.368 7.4-3.684a18.514 18.514 0 0 0 2.03-2.609c.163-.253.308-.49.434-.707-.126-.218-.271-.455-.434-.707a18.513 18.513 0 0 0 -2.03-2.609c-2.176-2.316-4.655-3.684-7.4-3.684s-5.224 1.368-7.4 3.684a18.513 18.513 0 0 0 -2.03 2.609c-.163.253-.308.49-.434.707.131.218.275.455.438.707zm-2.468-1.154a15.189 15.189 0 0 1 .789-1.345 20.493 20.493 0 0 1 2.251-2.891c2.515-2.685 5.474-4.317 8.854-4.317s6.339 1.632 8.855 4.316a20.493 20.493 0 0 1 2.251 2.891 15.189 15.189 0 0 1 .789 1.345 1 1 0 0 1 0 .894 15.188 15.188 0 0 1 -.789 1.345 20.492 20.492 0 0 1 -2.251 2.891c-2.516 2.686-5.475 4.318-8.855 4.318s-6.339-1.632-8.855-4.316a20.492 20.492 0 0 1 -2.251-2.891 15.188 15.188 0 0 1 -.788-1.346 1 1 0 0 1 0-.894zm11.894 3.447a3 3 0 0 1 -3-3 3 3 0 0 1 3-3 3 3 0 0 1 3 3 3 3 0 0 1 -3 3z" transform="translate(0 18)"/></g></svg>