<svg viewBox="0 0 22 20" xmlns="http://www.w3.org/2000/svg" xmlns:xlink="http://www.w3.org/1999/xlink"><clipPath id="a"><path d="m0 0h22v20h-22z"/></clipPath><clipPath id="b"><path d="m7.465-18h-4.465a1 1 0 0 0 -1 1v14a1 1 0 0 0 1 1h16a1 1 0 0 0 1-1v-11a1 1 0 0 0 -1-1h-9a1 1 0 0 1 -.832-.445zm3.07 1h8.465a3 3 0 0 1 3 3v11a3 3 0 0 1 -3 3h-16a3 3 0 0 1 -3-3v-14a3 3 0 0 1 3-3h5a1 1 0 0 1 .832.445z"/></clipPath><clipPath id="c"><path d="m-5-25h32v30h-32z"/></clipPath><clipPath id="d"><path d="m0 0h22v-20h-22z"/></clipPath><g clip-path="url(#a)"><g clip-path="url(#b)" transform="translate(0 20)"><g clip-path="url(#c)"><g clip-path="url(#d)"><path d="m-5-25h32v30h-32z"/></g></g></g></g></svg>