<svg viewBox="0 0 20 22" xmlns="http://www.w3.org/2000/svg" xmlns:xlink="http://www.w3.org/1999/xlink"><clipPath id="a"><path d="m0 0h20v22h-20z"/></clipPath><clipPath id="b"><path d="m6-2v-9a1 1 0 0 1 1-1h6a1 1 0 0 1 1 1v9h3a1 1 0 0 0 1-1v-10.511l-8-6.222-8 6.222v10.511a1 1 0 0 0 1 1zm2 0h4v-8h-4zm-7.614-12.789 9-7a1 1 0 0 1 1.228 0l9 7a1 1 0 0 1 .386.789v11a3 3 0 0 1 -3 3h-14a3 3 0 0 1 -3-3v-11a1 1 0 0 1 .386-.789z"/></clipPath><clipPath id="c"><path d="m-5-27h30v32h-30z"/></clipPath><clipPath id="d"><path d="m0 0h20v-22h-20z"/></clipPath><g clip-path="url(#a)"><g clip-path="url(#b)" transform="translate(0 22)"><g clip-path="url(#c)"><g clip-path="url(#d)"><path d="m-5-27h30v32h-30z"/></g></g></g></g></svg>