<svg viewBox="0 0 20 20" xmlns="http://www.w3.org/2000/svg"><path fill="var(--icon-color, #000)"  d="m2.649-2.063 10.644-10.644a1 1 0 0 1 1.414 0l3.293 3.293v-7.586a1 1 0 0 0 -1-1h-14a1 1 0 0 0 -1 1v14a1 1 0 0 0 .649.937zm2.765.063h11.586a1 1 0 0 0 1-1v-3.586l-4-4zm-2.414-18h14a3 3 0 0 1 3 3v14a3 3 0 0 1 -3 3h-14a3 3 0 0 1 -3-3v-14a3 3 0 0 1 3-3zm3.5 9a2.5 2.5 0 0 1 -2.5-2.5 2.5 2.5 0 0 1 2.5-2.5 2.5 2.5 0 0 1 2.5 2.5 2.5 2.5 0 0 1 -2.5 2.5zm0-2a.5.5 0 0 0 .5-.5.5.5 0 0 0 -.5-.5.5.5 0 0 0 -.5.5.5.5 0 0 0 .5.5z" transform="translate(0 20)"/></svg>