<svg viewBox="0 0 20 14" xmlns="http://www.w3.org/2000/svg" xmlns:xlink="http://www.w3.org/1999/xlink"><g fill="var(--icon-color, #000)"><path d="m6-12a1 1 0 0 1 -1-1 1 1 0 0 1 1-1h13a1 1 0 0 1 1 1 1 1 0 0 1 -1 1zm0 6a1 1 0 0 1 -1-1 1 1 0 0 1 1-1h13a1 1 0 0 1 1 1 1 1 0 0 1 -1 1zm0 6a1 1 0 0 1 -1-1 1 1 0 0 1 1-1h13a1 1 0 0 1 1 1 1 1 0 0 1 -1 1zm-5-12a1 1 0 0 1 -1-1 1 1 0 0 1 1-1 1 1 0 0 1 1 1 1 1 0 0 1 -1 1zm0 6a1 1 0 0 1 -1-1 1 1 0 0 1 1-1 1 1 0 0 1 1 1 1 1 0 0 1 -1 1zm0 6a1 1 0 0 1 -1-1 1 1 0 0 1 1-1 1 1 0 0 1 1 1 1 1 0 0 1 -1 1z" transform="translate(0 14)"/></g></svg>