<svg viewBox="0 0 20 14" xmlns="http://www.w3.org/2000/svg" xmlns:xlink="http://www.w3.org/1999/xlink"><clipPath id="a"><path d="m0 0h20v14h-20z"/></clipPath><clipPath id="b"><path d="m6-12a1 1 0 0 1 -1-1 1 1 0 0 1 1-1h13a1 1 0 0 1 1 1 1 1 0 0 1 -1 1zm0 6a1 1 0 0 1 -1-1 1 1 0 0 1 1-1h13a1 1 0 0 1 1 1 1 1 0 0 1 -1 1zm0 6a1 1 0 0 1 -1-1 1 1 0 0 1 1-1h13a1 1 0 0 1 1 1 1 1 0 0 1 -1 1zm-5-12a1 1 0 0 1 -1-1 1 1 0 0 1 1-1 1 1 0 0 1 1 1 1 1 0 0 1 -1 1zm0 6a1 1 0 0 1 -1-1 1 1 0 0 1 1-1 1 1 0 0 1 1 1 1 1 0 0 1 -1 1zm0 6a1 1 0 0 1 -1-1 1 1 0 0 1 1-1 1 1 0 0 1 1 1 1 1 0 0 1 -1 1z"/></clipPath><clipPath id="c"><path d="m-5-19h30v24h-30z"/></clipPath><clipPath id="d"><path d="m0 0h20v-14h-20z"/></clipPath><g clip-path="url(#a)"><g clip-path="url(#b)" transform="translate(0 14)"><g clip-path="url(#c)"><g clip-path="url(#d)"><path d="m-5-19h30v24h-30z"/></g></g></g></g></svg>