<svg height="3" viewBox="0 0 16 3" width="16" xmlns="http://www.w3.org/2000/svg" xmlns:xlink="http://www.w3.org/1999/xlink"><path fill="var(--icon-color, #000)" d="m6.75-1.157a1.462 1.462 0 0 1 -1.5-1.421 1.462 1.462 0 0 1 1.5-1.422 1.462 1.462 0 0 1 1.5 1.421 1.462 1.462 0 0 1 -1.5 1.422zm6.25 0a1.462 1.462 0 0 1 -1.5-1.421 1.462 1.462 0 0 1 1.5-1.422 1.462 1.462 0 0 1 1.5 1.421 1.462 1.462 0 0 1 -1.5 1.422zm-12.5 0a1.462 1.462 0 0 1 -1.5-1.422 1.462 1.462 0 0 1 1.5-1.421 1.462 1.462 0 0 1 1.5 1.421 1.462 1.462 0 0 1 -1.5 1.422z" transform="translate(1 4)"/></svg>