<svg viewBox="0 0 20 20" xmlns="http://www.w3.org/2000/svg" xmlns:xlink="http://www.w3.org/1999/xlink"><clipPath id="a"><path d="m0 0h20v20h-20z"/></clipPath><clipPath id="b"><path d="m16.032-5.382 3.675 3.675a1 1 0 0 1 0 1.414 1 1 0 0 1 -1.414 0l-3.675-3.675a8.962 8.962 0 0 1 -5.618 1.968 9 9 0 0 1 -9-9 9 9 0 0 1 9-9 9 9 0 0 1 9 9 8.962 8.962 0 0 1 -1.968 5.618zm-1.991-.761a6.977 6.977 0 0 0 1.959-4.857 7 7 0 0 0 -7-7 7 7 0 0 0 -7 7 7 7 0 0 0 7 7 6.977 6.977 0 0 0 4.856-1.959 1.01 1.01 0 0 1 .087-.1 1.009 1.009 0 0 1 .098-.085z"/></clipPath><clipPath id="c"><path d="m-5-26h30v32h-30z"/></clipPath><clipPath id="d"><path d="m0 0h20v-20h-20z"/></clipPath><g clip-path="url(#a)"><g clip-path="url(#b)" transform="translate(0 20)"><g clip-path="url(#c)"><g clip-path="url(#d)"><path d="m-5-25h30v30h-30z"/></g></g></g></g></svg>