<svg viewBox="0 0 22.002 21.022" xmlns="http://www.w3.org/2000/svg" xmlns:xlink="http://www.w3.org/1999/xlink"><clipPath id="a"><path d="m0 0h22.002v21.022h-22.002z"/></clipPath><clipPath id="b"><path d="m11-17.741-2.193 4.441a1 1 0 0 1 -.752.547l-4.906.717 3.551 3.46a1 1 0 0 1 .288.885l-.84 4.883 4.386-2.307a1 1 0 0 1 .931 0l4.386 2.307-.837-4.883a1 1 0 0 1 .288-.885l3.549-3.457-4.906-.717a1 1 0 0 1 -.752-.547zm-3.754 3.087 2.854-5.789a1 1 0 0 1 1.793 0l2.858 5.789 6.39.934a1 1 0 0 1 .553 1.706l-4.623 4.5 1.091 6.362a1 1 0 0 1 -1.447 1.057l-5.715-3.005-5.715 3.005a1 1 0 0 1 -1.451-1.054l1.091-6.362-4.625-4.503a1 1 0 0 1 .553-1.706z"/></clipPath><clipPath id="c"><path d="m-6-26h34v32h-34z"/></clipPath><clipPath id="d"><path d="m0 0h22v-21h-22z"/></clipPath><g clip-path="url(#a)"><g clip-path="url(#b)" transform="translate(.001 21)"><g clip-path="url(#c)"><g clip-path="url(#d)"><path d="m-5-26h32v31.022h-32z"/></g></g></g></g></svg>