<svg viewBox="0 0 20 20" xmlns="http://www.w3.org/2000/svg" xmlns:xlink="http://www.w3.org/1999/xlink"><clipPath id="a"><path d="m0 0h20v20h-20z"/></clipPath><clipPath id="b"><path d="m6-2v-10h-4v9a1 1 0 0 0 1 1zm2 0h9a1 1 0 0 0 1-1v-9h-10zm-6-12h16v-3a1 1 0 0 0 -1-1h-14a1 1 0 0 0 -1 1zm1-6h14a3 3 0 0 1 3 3v14a3 3 0 0 1 -3 3h-14a3 3 0 0 1 -3-3v-14a3 3 0 0 1 3-3z"/></clipPath><clipPath id="c"><path d="m-5-25h30v30h-30z"/></clipPath><clipPath id="d"><path d="m0 0h20v-20h-20z"/></clipPath><g clip-path="url(#a)"><g clip-path="url(#b)" transform="translate(0 20)"><g clip-path="url(#c)"><g clip-path="url(#d)"><path d="m-5-25h30v30h-30z"/></g></g></g></g></svg>