<svg viewBox="0 0 18 4" xmlns="http://www.w3.org/2000/svg" xmlns:xlink="http://www.w3.org/1999/xlink"><clipPath id="a"><path d="m0 0h18v4h-18z"/></clipPath><clipPath id="b"><path d="m9 0a2 2 0 0 1 -2-2 2 2 0 0 1 2-2 2 2 0 0 1 2 2 2 2 0 0 1 -2 2zm7 0a2 2 0 0 1 -2-2 2 2 0 0 1 2-2 2 2 0 0 1 2 2 2 2 0 0 1 -2 2zm-14 0a2 2 0 0 1 -2-2 2 2 0 0 1 2-2 2 2 0 0 1 2 2 2 2 0 0 1 -2 2z"/></clipPath><clipPath id="c"><path d="m-5-9h28v14h-28z"/></clipPath><clipPath id="d"><path d="m0 0h18v-4h-18z"/></clipPath><g fill="var(--icon-color, #000)" clip-path="url(#a)"><g clip-path="url(#b)" transform="translate(0 4)"><g clip-path="url(#c)"><g clip-path="url(#d)"><path d="m-5-9h28v14h-28z"/></g></g></g></g></svg>