<svg viewBox="0 0 24 20" xmlns="http://www.w3.org/2000/svg"><g fill="var(--icon-color, #000)"><path d="m18-1a1 1 0 0 1 -1 1 1 1 0 0 1 -1-1v-2a3 3 0 0 0 -3-3h-8a3 3 0 0 0 -3 3v2a1 1 0 0 1 -1 1 1 1 0 0 1 -1-1v-2a5 5 0 0 1 5-5h8a5 5 0 0 1 5 5zm-9-9a5 5 0 0 1 -5-5 5 5 0 0 1 5-5 5 5 0 0 1 5 5 5 5 0 0 1 -5 5zm0-2a3 3 0 0 0 3-3 3 3 0 0 0 -3-3 3 3 0 0 0 -3 3 3 3 0 0 0 3 3zm15 11a1 1 0 0 1 -1 1 1 1 0 0 1 -1-1v-2a3 3 0 0 0 -2.25-2.9 1 1 0 0 1 -.718-1.218 1 1 0 0 1 1.218-.718 5 5 0 0 1 3.75 4.836zm-8.248-16.9a1 1 0 0 1 -.721-1.217 1 1 0 0 1 1.217-.721 5 5 0 0 1 3.76 4.844 5 5 0 0 1 -3.76 4.844 1 1 0 0 1 -1.217-.721 1 1 0 0 1 .721-1.217 3 3 0 0 0 2.256-2.906 3 3 0 0 0 -2.256-2.906z" transform="translate(0 20)"/></g></svg>