<svg xmlns="http://www.w3.org/2000/svg" viewBox="0 0 177 300">
  <defs>
    <linearGradient id="card-membership-illus-b" x1=".363" y1=".34" x2="1.039" y2="1.063" gradientUnits="objectBoundingBox">
      <stop offset="0" stop-color="#6e0ebf"/>
      <stop offset="1" stop-color="#ff009d"/>
    </linearGradient>
    <clipPath id="card-membership-illus-a">
      <path d="M10 0h167v300H10a10 10 0 01-10-10V10A10 10 0 0110 0z" transform="translate(321 460)" fill="#dbdbdb"/>
    </clipPath>
  </defs>
  <g transform="translate(-321 -460)" clip-path="url(#card-membership-illus-a)">
    <path transform="translate(321 460)" fill="url(#card-membership-illus-b)" d="M0 0h177v300H0z"/>
    <g opacity=".9">
      <g fill="#00ebe5">
        <path d="M365.311 753.443a16.977 16.977 0 01-4.839 4.462 15.362 15.362 0 00-3.35 2.536c-.364.352-.794.341-1.152.645a24.107 24.107 0 01-2.354 2.275c-2.18 1.418-4.344 2.851-6.572 4.2-1.47.89-2.899 1.867-4.394 2.714a19.046 19.046 0 01-9.025 2.284c-3.67.096-7.348.306-11.007.164a46.792 46.792 0 01-19.521-4.877c-3.72-1.88-7.241-3.993-9.851-7.192a37.373 37.373 0 01-8.15-17.54 6.487 6.487 0 00-.195-.728 18.5 18.5 0 01-.955-6.7 19.525 19.525 0 00-.086-3.45c-.338-3.417.997-6.248 3.187-8.755a24.893 24.893 0 017.929-5.766 17.908 17.908 0 008.344-8.669c1.734-3.54 2.386-7.34 3.032-11.159.398-2.343.84-4.68 1.206-7.027.588-3.785.109-7.525-.411-11.286a54.7 54.7 0 01-.106-14.755 21.115 21.115 0 014.937-10.844 17.386 17.386 0 015.405-4.587 36.038 36.038 0 016.57-2.753 53.467 53.467 0 0116.927-1.704c6.54.307 13.049.224 19.41-1.636a134.827 134.827 0 0013.858-4.922 76.122 76.122 0 0119.126-5.638c6.46-.858 12.936-1 19.12 1.32 9.312 3.485 16.11 9.694 18.978 19.444 2.121 7.208.43 13.968-3.413 20.268a121.239 121.239 0 01-2.122 3.388 26.054 26.054 0 01-7.03 7.237c-1.65 1.142-3.361 2.188-5.006 3.314a56.036 56.036 0 01-6.008 3.498 59.031 59.031 0 00-6.8 4.19c-.76.534-1.713.68-2.478 1.272a62.909 62.909 0 00-8.312 7.144 18.379 18.379 0 00-3.515 4.792c-.52 1.162-.88 2.38-1.417 3.528a22.574 22.574 0 00-1.482 5.42c-.133.707-1.139.952-.98 1.062.848.592-.003.883-.126 1.274-.072.231-.307.43-.332.657-.417 3.867-2.114 7.356-3.345 10.968-1.142 3.354-2.085 6.851-4.172 9.785-.763 1.071-1.442 2.207-2.225 3.268-.936 1.275-2.19 2.334-2.864 3.774-.943 2.03-2.641 3.401-4.087 4.998-.079.088-.255.09-.388.133.5-1.082 1.721-1.58 2.171-2.716a26.136 26.136 0 00-4.013 4.286zm8.46-107.586a17.223 17.223 0 004.22-1.695 20.885 20.885 0 00-4.207 1.723 6.354 6.354 0 00-2.726.923 6.965 6.965 0 002.714-.952zm17.624-11.091a3.385 3.385 0 00.628.027 59.457 59.457 0 0115.41-.283c.186.022.42.114.618-.112-.338-.071-.652-.145-.97-.203a42.856 42.856 0 00-12.587-.085 7.434 7.434 0 00-3.091.684c-1.085-.31-2.057.347-3.106.381a.391.391 0 00-.308.572c.052.112.144.206.23.128.905-.827 2.227-.436 3.175-1.11zm-80.07 131.4a21.016 21.016 0 002.019.724c2.827.71 5.703 1.172 8.576 1.642 4.263.7 8.56.341 12.841.324a10.368 10.368 0 005.702-1.393 67.336 67.336 0 0015.335-13.296c3.54-4.195 7.545-7.995 11.194-12.102a43.141 43.141 0 006.506-9.75c1.44-2.952 2.379-6.095 3.52-9.163.94-2.523 1.814-5.066 2.896-7.545a41.122 41.122 0 001.552-5.64 26.131 26.131 0 014.229-9.259 42.245 42.245 0 016.645-6.9 96.34 96.34 0 0116.256-10.453 70.765 70.765 0 008.873-5.375 29.975 29.975 0 0010.774-14.788 13.063 13.063 0 00-2.27-13.037c-5.456-6.845-12.366-10.915-21.27-11.197a55.358 55.358 0 00-20.056 3.26c-4.056 1.408-7.952 3.22-12.001 4.64-5.517 1.929-11.066 3.74-16.932 4.283a88.315 88.315 0 01-13.618-.052 48.194 48.194 0 00-11.532.63 24.9 24.9 0 00-11.929 5.291c-.413.347-.42.338-1 .14-.175-.063-.241.08-.34.177a8.13 8.13 0 00-2.12 3.041c-.303.807-.414 2.084-.833 2.37-1.346.927-1.116 2.383-1.336 3.498a31.1 31.1 0 00-.5 4.322 54.64 54.64 0 00.326 10.928c.494 3.32.931 6.648.221 9.947-.206.955.512 2.394-1.012 2.94 0 0 .048.124.064.187a6.632 6.632 0 01-.164 3.509c-.34 1.077-.322 2.208-.658 3.272-.543 1.718-.515 3.594-1.51 5.197a12.966 12.966 0 00-1.018 2.402c-.662 1.82-1.914 3.329-2.674 5.119a9.72 9.72 0 01-1.812 1.985c-2.2 2.376-5.07 3.752-7.758 5.426-2.528 1.574-5.252 3.027-6.539 5.978-.518 1.195-1.347 2.344-1.133 3.716.573 3.689.194 7.493 1.51 11.092 1.025 2.8 1.292 5.839 2.813 8.501a43.492 43.492 0 004.822 7.563 15.916 15.916 0 003.286 3.067 48.012 48.012 0 0010.058 4.78zm52.805-19.31c-2.248 3.057-5.293 5.236-7.502 8.194 1.586-.43 7.616-6.892 7.505-8.195zM356.24 645.9a36.832 36.832 0 0011.38-3.117c-3.634 1.106-7.266 2.214-10.993 2.976a2.637 2.637 0 00-.384.14zm-39.382 5.839c2.324-1.193 4.695-2.287 7.084-3.344a17.787 17.787 0 00-7.078 3.343zm-30.63 74.928c.81-.982 1.49-2.047 2.244-3.064a6.512 6.512 0 00-2.24 3.063zm28.882-72.92c.024-.274-.055-.454-.306-.495a.786.786 0 00-.93.507c-.096.224.023.318.226.353.43.073.723-.167 1.019-.369z"/>
        <path d="M355.972 731.031c.05-.262.171-.47-.033-.681-.18.36-.621.616-.239 1.132.222.3-.167.515-.327.722a655.42 655.42 0 00-4.287 5.61c-1.35 1.783-2.812 3.495-4.025 5.383a22.2 22.2 0 01-2.182 2.53 3.933 3.933 0 00-.817 1.244c-.36.988-.439.99-1.164.137a.9.9 0 00-.306-.14c-.04.11-.113.207-.097.284a2.892 2.892 0 01-1.34 2.98 6.009 6.009 0 00-1.803 1.66 6.088 6.088 0 01-3.18 2.212c-.114.04-.302-.066-.373.1-.42.984-1.402 1.171-2.228 1.546-.79.359-1.657.514-2.432.942a12.844 12.844 0 01-4.24 1.485 18.032 18.032 0 01-2.294.54c-2.781.069-5.555.268-8.343.262-4.712-.013-8.656-1.948-12.42-4.453a19.427 19.427 0 01-5.484-5.59 14.771 14.771 0 01-1.303-2.708 22.673 22.673 0 01-1.571-11.094 9.321 9.321 0 013.278-6.13c.49-.424.97-1.039 1.927-.555.416.211 1.143-.441 1.667-.833a64.612 64.612 0 0010.092-9.401 58.471 58.471 0 008.423-11.833 27.981 27.981 0 002.681-10.035 20.988 20.988 0 00-1.043-8.092c-.577-1.985-1-4.014-1.56-6.004-.195-.71.44-.878.82-1.555-.928.62-.967.411-.979-.378a16.766 16.766 0 00-.395-2.423 10.135 10.135 0 01.382-5.097c.218-.615.085-1.246.377-1.794a16.458 16.458 0 011.158-2.053c.817-1.112 1.525-2.34 3.05-2.743.42-.11.484-.908 1.016-1.178a30.037 30.037 0 017.01-3.027 106.341 106.341 0 0118.184-2.39 33.528 33.528 0 0012.51-2.668c5.846-2.661 11.827-4.994 17.884-7.128a52.512 52.512 0 0117.752-3.39 27.641 27.641 0 017.569 1.088c3.535 1.018 5.547 3.527 6.601 6.864 2.026 6.408.879 12.372-2.808 17.893a48.311 48.311 0 01-8.767 9.994 16.635 16.635 0 01-5.23 3.489 12.357 12.357 0 00-2.677 1.88c-3.06 2.161-6.488 3.722-9.545 5.904-1.361.972-2.61 2.064-3.93 3.077a72.853 72.853 0 00-7.786 7.53 34.95 34.95 0 00-5.22 7.873q-2.435 4.5-4.962 8.952a30.9 30.9 0 01-3.15 4.99c-.884 1.024-1.364 2.284-2.32 3.239-.554.543-.55 1.569-1.521 1.831zm-45.233-9.546c.33-.004.505-.268.688-.462a54.3 54.3 0 005.039-5.729 15.7 15.7 0 002.492-3.734c-1.593 2.33-3.605 4.311-5.33 6.527-.915 1.177-2.157 2.082-2.874 3.423-1.715 1.107-2.951 2.736-4.486 4.038a20.288 20.288 0 004.471-4.063zm14.263-35.95c.065-.122.103-.319.198-.352.174-.06.182.13.236.26.15.369-.119.743.125 1.143a4.8 4.8 0 01.677 2.466c.018.787.573 1.558.854 2.348.062.176.12.457-.095.597-.399.26-.224.45.04.646a1.111 1.111 0 01.43.948 14.543 14.543 0 01-.098 3.933 8.238 8.238 0 00-.348 2.577 10.435 10.435 0 01-1.054 5.363c-.62 1.477-1.471 2.916-1.951 4.448-.415 1.324-1.456 2.147-2.08 3.294-.756 1.388-2.24 2.3-2.997 3.754-.465.894-1.712 1.244-1.975 1.99-.605 1.723-2.465 2.092-3.295 3.545a3.756 3.756 0 01-1.333 1.436c-1.23.642-1.97 1.879-3.23 2.505-1.587.789-2.77 2.184-4.43 2.938a25.435 25.435 0 00-2.852 1.765c-.857.54-1.226 1.717-1.779 2.638-.803 1.33-.385 2.747-.472 4.14a17.932 17.932 0 002.169 9.284c2.802 5.458 7.39 8.587 13.765 8.584.647 0 1.294-.002 1.94.014a29.106 29.106 0 0010.943-2.033c4.642-1.715 7.852-5.308 11.265-8.568a40.65 40.65 0 003.163-4.103 34.831 34.831 0 002.145-2.837c.646-1.004 1.37-1.95 2.083-2.892s1.548-1.807 2.2-2.79c.58-.876 1.363-1.561 1.924-2.483.749-1.232 1.665-2.398 2.509-3.594a106.957 106.957 0 008.137-13.477c1.316-2.607 2.555-5.266 4.093-7.736a58.61 58.61 0 0119.72-19.05c3.568-2.178 7.243-4.182 10.894-6.224 5.226-2.923 9.067-7.27 12.507-12.044a16.2 16.2 0 003.114-9.934c-.03-2.071-.508-3.966-2.555-5.118a18.134 18.134 0 00-6.102-1.654 15.716 15.716 0 00-3.999.023 42 42 0 00-9.551 1.632c-.731.255-1.465.057-2.2.31-.94.322-1.736.93-2.72 1.17-.566.136-1.122-.032-1.682.202-3.554 1.49-7.314 2.462-10.718 4.343-1.182.654-2.497 1.064-3.73 1.623a35 35 0 01-14.583 3.205 73.308 73.308 0 00-18.293 2.412c-2.288.596-4.68 1.07-6.689 2.51-1.165.835-2.555 1.612-3.137 2.842a14.446 14.446 0 00-1.812 5.832c-.01.51-.516 1.04-.476 1.23.155.728.134 1.482.328 2.198.42 1.544 1.234 3.033.777 4.742zm25.42 47.493a38.244 38.244 0 00-4.73 5.758c-1.47 2.068-3.134 3.976-4.699 5.961-1.48 1.878-3.232 3.54-4.864 5.296 5.957-4.689 9.863-11.064 14.293-17.015zm31.523-81.783a66.4 66.4 0 0117.365-3.524c-3.55-.784-15.209 2.006-17.365 3.524zM333.2 663.3c-3.286.826-6.385 2.02-8.659 4.723a44.964 44.964 0 018.66-4.723zm-33.87 66.586c-1.533.705-3.3 3.98-2.821 4.96a21.764 21.764 0 012.82-4.957zm77.855-76.775l-.134-.312a56.973 56.973 0 00-7.608 3.296zm-16.647 6.385a24.9 24.9 0 007.418-2.884c-2.465.973-4.916 1.994-7.415 2.886z"/>
        <path d="M379.028 684.977a1.6 1.6 0 01-.579 1.59c-1.119 1.23-2.743 1.926-3.558 3.455a4.834 4.834 0 01-1.347 1.203c-1.146.98-1.802 2.366-2.866 3.34-1.01.922-1.715 2.08-2.73 2.97-.537.475-.693 1.253-1.32 1.673a19.347 19.347 0 00-2.249 2.868c-.628 1.091-1.288 2.165-1.945 3.24-.113.185-.277.357-.533.215s-.446-.067-.428.22a3.063 3.063 0 01-1.344 2.337c-1.814 1.745-3.511 3.6-5.217 5.444-.337.366-1.136-.058-1.148.91-.007.49-.77 1.062-1.31 1.5s-.973.959-1.475 1.419c-3.717 3.385-7.287 6.918-10.772 10.545-1.932 2.011-4.035 3.852-6.016 5.823a14.454 14.454 0 00-1.355 1.676 2.922 2.922 0 01-1.807 1.385.461.461 0 00-.357.172c-1.89 2.45-4.781 3.04-7.483 3.894a28.168 28.168 0 01-6.03.81 12.519 12.519 0 01-3.801.272 33.009 33.009 0 01-3.878-.931 5.863 5.863 0 01-3-2.18 1.127 1.127 0 01.14-1.556 7.661 7.661 0 014.05-2.543 4.35 4.35 0 001.812-.658c.382-.3.614.337 1.223.059a22.342 22.342 0 005.543-4.057 98.222 98.222 0 009.672-10.437 32.2 32.2 0 003.336-5.147 43.7 43.7 0 001.712-3.475c.242-.55.636-.929 1.202-.334.338.354.573.102.843-.041a.32.32 0 00.141-.458c-.156-.318-.453-.155-.675-.132-.91.095-1.081-.22-.734-1.052a24.2 24.2 0 002.092-7.106 16.17 16.17 0 00-.085-3.733c-.51-3.61-1.598-7.091-2.389-10.639-.579-2.596-1.191-5.206-.542-7.881.152-.623-.058-1.525.947-1.71a.227.227 0 00.143-.136c.694-2.408.79-2.443 2.989-3.51a12.459 12.459 0 014.469-1.1c5.537-.455 10.688-2.176 15.838-4.145 6.269-2.401 12.287-5.436 18.656-7.534a58.853 58.853 0 0121.562-2.596c3.866.198 5.494 3.727 3.424 7.058a37.65 37.65 0 01-7.64 8.743c-3.42 2.924-7.075 5.54-10.67 8.232a27.763 27.763 0 01-3.003 2.206c-.568.318-1.016.616-1.508-.168zm-56.86 43.635c.296.084.463-.118.644-.288 2.29-2.134 4.288-4.546 6.473-6.779 1.048-1.07 1.41-2.68 2.803-3.468a.3.3 0 00.058-.531c-.257-.243-.496-.099-.62.139a14.732 14.732 0 01-1.918 2.4 66.06 66.06 0 01-5.193 5.986 11.081 11.081 0 00-2.231 2.576 14.215 14.215 0 00-3.178 2.907c1.022-1.017 2.475-1.567 3.163-2.942zm51.894-60.764c-1.389.1-2.401 1.041-3.577 1.608-1.367.248-2.415 1.197-3.704 1.622-2.223.734-4.475 1.408-6.633 2.307a48.55 48.55 0 01-13.884 3.522c-1.787.18-3.613-.307-5.378.49-1.077.488-2.273.769-2.786 1.957a10.133 10.133 0 00-.836 5.548c.515 3.582 1.725 6.99 2.596 10.482.906 3.628 1.583 7.234.71 11.025a60.365 60.365 0 01-3.805 10.347c-.295.683-1.01 1.177-1.33 1.976a5.907 5.907 0 01-1.969 3.032c-1.901 1.199-3.071 3.08-4.593 4.625-.503.505-.654 1.464-1.357 1.735a5.791 5.791 0 00-2.052 1.766 2.938 2.938 0 01-.859.645 14.338 14.338 0 00-2.761 2.001 22 22 0 01-5.381 3.24c-.57.233-1.227-.06-1.704.453a4.328 4.328 0 01-1.757 1.025 3.466 3.466 0 00-1.558 1.285 1.277 1.277 0 00.901.177c1.74-.005 3.412-.517 5.138-.652a17.827 17.827 0 008.417-2.814 34.506 34.506 0 005.138-4.438c3.223-3.125 6.473-6.226 9.6-9.444a152.2 152.2 0 015.372-5.282c3.05-2.843 5.938-5.845 8.792-8.877a52.163 52.163 0 006.18-7.855 55.164 55.164 0 015.434-6.836c3.666-4.165 7.356-8.3 12.027-11.408 4.2-2.793 8.427-5.546 12.426-8.63a33.1 33.1 0 007.833-7.986c.223-.345.678-.73.46-1.12-.184-.331-.734-.185-1.123-.174a82.45 82.45 0 00-12.133 1.256c-.726.129-1.538.717-2.322.006-.11-.101-.446-.017-.424.165.082.653-.459.448-.717.509q-2.428.581-4.833 1.25c-1.251.342-2.31 1.104-3.548 1.462zm-46.46 67.594a34.955 34.955 0 003.419-2.67c2.361-2.395 4.9-4.617 7.212-7.07a146.762 146.762 0 0110.774-10.518.656.656 0 00.22-.93c-7.637 6.724-14.14 14.46-21.625 21.188zm47.822-72.17a68.33 68.33 0 0110.238-2.311c3.521-.473 7.05-.857 10.584-1.127-7.08.274-14.138.71-20.821 3.439zm-10.964 4.811l-.098-.314-11.125 4.252.104.275zm-22.571 6.257c-2.26-.373-5.153.83-5.424 2.26a12.768 12.768 0 015.423-2.258zm7.584 39.593l.247.272c.64-.746 1.79-1.024 1.794-2.36z"/>
        <path d="M374.062 667.848a6.836 6.836 0 01-3.577 1.608c1.177-.568 2.188-1.508 3.577-1.608z"/>
      </g>
      <g fill="#00ebe5">
        <path d="M454.505 445.15a210.751 210.751 0 0129.862-15.296c.54.547-.26.608-.184.996.263.385 1.19-.246 1.19.81a1.876 1.876 0 01-1.21 1.724c-3.336 1.961-7.102 3.039-10.328 5.276-1.105.766-2.083 1.927-3.741 2.044-1.02.071-1.616 1.445-2.754 1.902-.712.286-1.374.887-2.172 1.213a18.237 18.237 0 00-7.845 6.113c-.37.497-.876.842-1.375.565-1.362-.757-3.018-.997-3.626-2.955a2.672 2.672 0 01.814-3.1 32.525 32.525 0 017.282-4.89c3-1.653 6.13-3.067 9.187-4.61 4.11-2.08 8.354-3.82 12.536-5.72.398-.18.983-.693 1.281-.136.224.421-.449.704-.833.891-2.424 1.179-4.897 2.236-7.393 3.257a65.091 65.091 0 00-6.938 3.522c-3.661 2.041-7.44 3.87-10.991 6.113a9.589 9.589 0 00-2.762 2.281zM425.303 478.307c-1.202.164-1.178-1.202-1.312-1.562-.358-.974-1.79-1.051-1.665-1.873.19-1.244-.186-2.62.983-3.737a79.45 79.45 0 017.28-5.817 35.493 35.493 0 015.612-3.744 5.126 5.126 0 012.858-.65 2.271 2.271 0 012.167 1.674 22.454 22.454 0 011.03 2.547c.178.868.237 1.7-.83 2.096-.75.278-1.092 1.026-1.673 1.507-2.335 1.931-4.249 4.37-6.995 5.803a51.32 51.32 0 00-5.752 3.732c-.53.374-1.123.863-1.703.024zM487.416 490.66l-1.012.715c.03.27.225.237.39.282.334.092.762-.398.979.03.26.518-.472.511-.626.847.397.383.86-.112 1.244.098.044 1.243-.693 1.78-1.716 2.257a34.679 34.679 0 00-7.798 4.812c-.89.749-2.383.486-3.067 1.572a7.459 7.459 0 01-3.575 2.752c-2.297.962-3.783 2.825-5.659 4.245-.528.399-.628 1.222-1.407 1.34-.255.037-.703.2-.656-.136.174-1.14-.824-1.14-1.338-1.656-.956-.958-.515-2.195-.04-3.232a9.736 9.736 0 013.515-3.838 95.273 95.273 0 0117.488-9.712c.938-.396 1.937-.999 3.278-.375zM484.129 460.458c-.746.658-1.515 1.355-2.31 2.017a133.456 133.456 0 01-16.087 11.196 59.025 59.025 0 00-6.378 4.014c-.567.452-1.232.679-1.554-.36a2.179 2.179 0 00-.45-.662 2.67 2.67 0 01.32-4.045 21.331 21.331 0 014.691-2.942 140.116 140.116 0 0020.005-12.143c.793-.597.885-.541 1.084.397a.445.445 0 00.21.27c1.104.535.741 1.361.469 2.258zM413.119 498.879c-2.373 1.78-5.023 2.642-7.217 4.228a51.9 51.9 0 00-6.546 4.964c1.949-1.342 3.894-2.688 5.846-4.022a68.768 68.768 0 017.053-4.014c1.205-.63 1.852-.17 2.21.788a1.571 1.571 0 01-1.064 2.172 12.058 12.058 0 00-5.185 3.04c-2.495 2.309-5.486 4.042-7.673 6.706-.504.614-1.337.894-1.886 1.586a4.2 4.2 0 00-1.152 2.511c-.032.603.205 1.563-.632 1.754a1.734 1.734 0 01-2.006-.738 3 3 0 00-.992-.68 3.247 3.247 0 01-.854-5.18 37.025 37.025 0 017.213-6.305 58.575 58.575 0 0110.778-6.456 2.965 2.965 0 012.107-.354zM452.74 557.779c-2.735-1.65-2.839-3.345-.548-5.058a22.411 22.411 0 015.971-2.813c4.832-1.752 9.718-3.338 14.694-4.65a6.552 6.552 0 013.407.228c.388.097 1.236.34 1.036.606-.408.548-.141 1.432-1.044 1.738-4.028 1.372-7.924 3.091-11.852 4.711-1.732.71-3.526 1.29-5.24 2.05-1.158.513-2.373 1.088-2.457 2.665-.01.19-.272.537-.356.522-1.291-.291-2.643.469-3.611.001zM517.97 512.605c2.355-.734 4.384-2.13 6.713-2.868a18.938 18.938 0 002.067-.615c1.074-.482 1.287.506 1.513.995a1.13 1.13 0 01-.693 1.485 46.049 46.049 0 00-8.397 4.87c-1.862 1.332-4.107 2.135-5.638 4.07a19.308 19.308 0 01-2.505 2.033c-1.117.947-1.352-.533-1.964-.96-.097-.068-.008-.417-.1-.471-.397-.23-1.228.63-1.271-.34-.059-1.318-.192-2.604 1.077-3.735a33.865 33.865 0 016.624-4.399c3.174-1.701 6.28-3.569 9.844-4.406.263-.062.521-.147.787-.188s.598-.024.682.28c.106.389-.2.597-.525.645-2.846.416-5.15 2.098-7.672 3.268a5.2 5.2 0 00-.542.336zM447.34 523.566a19 19 0 002.755-.63 1.831 1.831 0 012.37.64c.366.481-.04.924-.28 1.218a2.48 2.48 0 01-2.468.914c-.234-.045-.435-.363-.643-.016-1.015 1.69-3.036 1.702-4.485 2.671-.445.298-1.046.473-1.559.744-1.496.793-2.92 1.776-4.795 1.298-.437-.112-1.223-.132-1.36.55-.421 2.08-2.31 2.504-3.756 3.367-2.375 1.416-4.95 2.481-7.274 3.998-.263.17-.54.47-.827.184-.358-.358.423-.397.264-.791-.693-.036-1.606.441-1.8-.887-.067-.472-.776-.167-1.166.057-.298.17-.6.317-.807-.065-.252-.462.226-.499.455-.646a101.763 101.763 0 0113.11-6.903l11.891-5.424zM476.649 526.886c-.474-.124 1.397-.91-.22-.708-.044.005-.12.007-.129-.012a1.556 1.556 0 00-2.119-1.06c-.28.077-.723-2.247-.483-2.712a4.306 4.306 0 011.567-1.648 27.553 27.553 0 0112.022-4.138 4.556 4.556 0 014.61 2.552c.555.932.235 1.458-.844 1.71a33.87 33.87 0 00-3.357.96c-1.27.434-2.47 1.026-3.79 1.373-1.73.455-3.036 1.792-4.598 2.627a7.238 7.238 0 01-2.66 1.056zm-.706-4.568c2.5-1.226 5.01-2.445 7.6-3.49a15.118 15.118 0 00-7.6 3.49zM509.409 549.298l-1.31 1.209c.379-.047.577-.011.69-.092.921-.653 1.496.004 1.885.628a1.428 1.428 0 01-.446 1.907 21.461 21.461 0 01-3.1 1.992 27.382 27.382 0 00-4.406 2.478c-1.387 1.078-3.001 1.968-3.654 3.823a.941.941 0 01-1.751.197 2.624 2.624 0 00-1.034-.805c-2.495-1.334-2.714-3.805-.383-5.552a39.389 39.389 0 0110.925-5.274c.724-.257 1.43-.766 2.584-.51zM390.487 547.149c-.538.862-.057 1.726-.374 2.482-1.161-.497-1.488-1.487-1.002-2.826a5.725 5.725 0 012.91-3.067c2.675-1.398 5.204-3.057 8.232-3.834 1.185-.304 2.42-1.204 3.68-1.676 3.587-1.345 7.224-2.57 10.845-3.827a6.44 6.44 0 012.263-.36.828.828 0 01.855.534.694.694 0 01-.404.894 11.478 11.478 0 01-1.544.822c-5.018 1.906-10.077 3.707-15.051 5.72a19.918 19.918 0 00-5.38 3.295 6.908 6.908 0 00-1.392 2.567c-.113.242.02.743-.487.671-.968-.136-1.812-.2-1.737 1.215.017.322-.408.231-.655.09-.443-.253-.943-.566-.668-1.135.25-.526.12-.95-.091-1.565zM444.689 498.91c-.143-.329-.264-.448-.535-.247a27.545 27.545 0 01-2.984 2.131c-.643.357-1.25 1.52-2.263.466-.16-.168-.267.098-.262.286.01.442-.255.601-.638.737a2.2 2.2 0 00-1.34 1.366c-.517 1.27-1.663 1.35-2.439.236-.093-.134-.203-.463-.262-.39-1.408 1.727-.925-1.396-1.894-.73a1.618 1.618 0 01.106-1.303 5.056 5.056 0 012.25-2.072 38.264 38.264 0 0111.021-3.741 5.967 5.967 0 012.707.529c.524.136.565.662.522 1.116-.06.62-.344.518-.662.152a4.879 4.879 0 01-2.358 1.472c-.375.17-.718.44-.97-.008zM497.43 480.251c-.637.284-.894 1.27-2.003.695-.8-.415-.438-.704-.2-1.101-.7-.339-.908.61-1.59.412.4-1.212 1.407-1.997 1.975-3.051a.784.784 0 00.074-.09c1.25-.212 2.076-1.157 3.08-1.792a11.558 11.558 0 011.186-.873c3.51-1.624 6.803-3.67 10.404-5.12 2.823-1.135 5.547-2.515 8.432-3.51a6.136 6.136 0 012.427-.514l-3.367 1.95c.033-.028.065-.057.097-.088-1.896.242-3.356 1.498-5.157 2.008.185.543.496.28.698.35.347.122.422.43.382.768-.02.165-.018.427-.257.356-1.063-.317-1.302.58-1.693 1.17a1.792 1.792 0 01-1.72.786 2.416 2.416 0 00-2.456 1.37l-.802.372a6.043 6.043 0 00-4.117 2.192c-.519-.276-1.29.557-1.66-.377.135-.685.18-1.02-.768-.636-1.199.486-1.815 1.757-3.095 2.065a.275.275 0 00-.182.422.314.314 0 00.547.094c.684-.818 1.785-1.02 2.523-1.75.31-.308.597-.566 1.028-.21-.717 1.847-2.692 2.215-3.992 3.378-.172.155-.578-.784-.704.008a.7.7 0 00.91.716zm10.375-8.115l-.159-.384c-1.07.538-2.143 1.072-3.204 1.626-.124.065-.357.177-.24.399.082.155.29.31.432.173.902-.868 2.272-.942 3.17-1.811zM477.362 573.375a2.922 2.922 0 00-.926 1.893c-.069.363-.122.638-.55.547-.393-.083-.455-.43-.421-.748a3.225 3.225 0 011.116-1.963 19.44 19.44 0 017.117-4.035 15.338 15.338 0 002.332-.815c1.302-.697 2.594-.343 3.853-.054.589.135.286.852.17 1.269a.956.956 0 01-.702.552c-2.438.093-4.003 2.057-6.112 2.878-.695.27-1.132 1.403-2.04 1.77-.719.291-1.332.825-2.226.631-.517-.111-.523.635-.916.85-.202.112-.383.274-.61.175s-.385-.439-.266-.552c.799-.75-.131-1.623.181-2.398z"/>
        <path d="M447.341 523.566l-.383.278a33.717 33.717 0 00-6.755 2.223c-3 1.243-5.917 2.705-8.792 4.222-2.433 1.285-5.08 2.162-7.286 3.895a5.375 5.375 0 01-3.352 1.208c.588-1.513 1.992-1.87 3.077-2.535a75.454 75.454 0 019.004-4.438c5.52-2.443 10.946-5.138 16.86-6.578.339-.082.682-.268 1.1.194-1 .91-2.417.853-3.473 1.53zM502.137 534.434c-.657.061-.658 1.29-1.274.72-.524-.487.132-1.082.56-1.453a12.451 12.451 0 019.227-3.102c.528.031 1.303.061 1.318.879.012.725-.69.738-1.179.893-2.051.65-4.058 1.366-5.507 3.09-.364.432-.856.37-1.346.298a1.2 1.2 0 00-.53.032c-1.308.414-1.947.154-1.269-1.357zM509.028 468.824c-.982 1.345-2.67 1.4-3.997 2.11a9.946 9.946 0 01-3.113 1.396c-.292.045-.585.355-.8-.015a.552.552 0 01.29-.79 54.115 54.115 0 016.194-2.849c.508-.18.962.112 1.442.198zM509.044 468.872c.044-.403.051-.797.532-.997a73.72 73.72 0 018.274-3.125c.221-.063.499-.358.677.039.111.25-.061.43-.294.518-2.984 1.123-5.943 2.319-8.845 3.653-.081.037-.237-.086-.358-.133zM495.687 477.114a.793.793 0 01-.074.09c-.514.392-1.217.547-1.551 1.19-.12.229-.278.56-.597.329-.285-.207-.074-.46.092-.683a26.21 26.21 0 015.384-4.985c.338-.252.958-.369 1.222.024.314.465-.274.697-.58.856a16.742 16.742 0 00-3.896 3.179zM517.947 467.167c-.031.031-.064.06-.097.088.79-.204 1.73.162 2.366-.708.105-.144.824-.467 1.009.11.176.548-.427.653-.764.729a8.99 8.99 0 00-4.197 2.042c-.113-.66-.499-1.28.561-1.363.57-.045.712-.643 1.122-.898zM506.944 474.346l.801-.372.751-.095.105.232-2.43 1.387-.2-.236zM498.244 479.92c.253-.937 1.157-1.118 1.834-1.552s1.363-.796 2.047-1.191a1.094 1.094 0 01-.597.815c-1.107.622-2.191 1.283-3.284 1.929z"/>
      </g>
      <path d="M432.518 603.165s-2.972-7.665-4.513-12.511-6.167-11.452-9.25-15.2-1.983-1.655-1.1 2.035l.881 3.691a50.127 50.127 0 00-5.007-5.713c-1.862-1.576-.859 1 0 3.3a36.328 36.328 0 002.15 4.549s-4.012-2.972-5.876-3.975-1 .143.573 2.723a36.693 36.693 0 003.441 4.674s-3.87-2.456-5.877-3.422 2.723 3.464 4.157 5.693 4.73 10.112 7.311 13.123a58.842 58.842 0 005.59 5.59" fill="#ffa900"/>
      <path d="M431.565 624.606l-12.868-21.875 11.152-6.434 6.434 7.721" fill="#ff5050"/>
      <g transform="translate(366.55 553.054)">
        <circle cx="31.562" cy="31.562" fill="#281e78" r="31.562"/>
        <path d="M31.15 49.98l7.454-3.716-17.057-8.5-7.408 3.692zM40.779 45.179l7.427-3.7-26.664-13.3-7.427 3.7zM40.75 35.591l7.433-3.707-7.427-3.7-7.437 3.705z" fill="#00ebe5"/>
        <path d="M21.521 18.591l-7.432 3.7 17.064 8.508 7.433-3.707zM40.757 26.013l7.457-3.717-7.432-3.7-7.463 3.712zM31.147 13.788l-7.455 3.717 7.458 3.717 7.457-3.717z" fill="#37eb77"/>
      </g>
      <path d="M403.375 610.452s-2.972-7.665-4.513-12.511-6.167-11.452-9.25-15.195-1.983-1.655-1.1 2.035l.881 3.691a50.115 50.115 0 00-5.007-5.713c-1.864-1.577-.859 1 0 3.3a36.332 36.332 0 002.15 4.548s-4.014-2.972-5.876-3.975-1 .144.573 2.723a36.691 36.691 0 003.44 4.674s-3.87-2.456-5.877-3.422 2.723 3.464 4.157 5.694 4.73 10.112 7.31 13.123a58.842 58.842 0 005.59 5.59M450.944 594.028l1.475-8.906a.882.882 0 00-.86-1.274l-6.422-.981q3.111-10.111 6.8-20.034a15.216 15.216 0 0110.528 3.6 4.689 4.689 0 011.171 1.472 5.481 5.481 0 01.358 1.885 215.488 215.488 0 01.334 22.892" fill="#ba7301"/>
      <path d="M391.676 612.166s5.147 22.733 9.437 34.314 6.863 24.02 18.443 26.594 16.728-5.576 16.728-5.576v11.582h73.775s-9.008-52.328-11.153-69.057-5.451-24.6-11.027-24.17-17.711 1.866-32.723 4.011-18.444 1.286-19.731 4.289-13.725 50.614-13.725 50.614l-18.015-37.317" fill="#ff5050"/>
      <path d="M449.981 560.303a3.255 3.255 0 00-.534 5.18c2.082 1.662 5.8.379 7.365 2.532.953 1.31.483 3.128 0 4.675a129.972 129.972 0 00-5.641 31.7 30.227 30.227 0 00.817 10.455c1.03 3.359 3.277 6.5 6.53 7.832a16.109 16.109 0 003.975.925c5.316.714 11.43.512 15.079-3.419 3.91-4.21 3.307-10.8 2.073-16.415-.73-3.316-1.592-6.6-2.454-9.887l-3.122-11.891c-1.42-5.408-2.858-10.862-5.374-15.855-1.339-2.658-3.158-3.3-5.529-4.508-2.652-1.351-9.667-2.512-13.189-1.32" fill="#ffd800"/>
      <path d="M509.492 675.765l-73.207 1.273s-36.584 6.2-53.391 7.084-17.1 15.349-16.216 21.843 3.948 15.054 25 16.826 88.646-1.476 104.29-1.476 17.416-22.433 16.529-32.174-3.005-13.376-3.005-13.376z" fill="#160078"/>
      <path d="M447.792 710.05l12.832-.351c1.375-.037 2.884-.03 3.938.852 1.134.949 1.354 2.58 1.477 4.053q.672 7.962.729 15.961c.015 2.154-.1 4.548-1.62 6.072a3.39 3.39 0 01-1.7-1.6 5.028 5.028 0 01-1.207 1.738 1.721 1.721 0 01-1.978.228 2.585 2.585 0 01-.832-1.816 93.634 93.634 0 00-3.338-13.646 1.51 1.51 0 00-1.547-1.347 67.637 67.637 0 00-6.516-.533M485.777 710.05l12.832-.351c1.374-.037 2.884-.03 3.937.852 1.134.949 1.353 2.58 1.478 4.053q.671 7.962.728 15.961c.015 2.154-.1 4.548-1.62 6.072a3.386 3.386 0 01-1.7-1.6 5.035 5.035 0 01-1.208 1.738 1.719 1.719 0 01-1.977.228 2.583 2.583 0 01-.832-1.816 93.6 93.6 0 00-3.339-13.646 1.509 1.509 0 00-1.546-1.347q-3.243-.423-6.517-.533" fill="#16a564"/>
      <path d="M400.787 604.862c-.326-2.536-.651-7.549-.976-10.086a14.391 14.391 0 00-.745-3.484 11.189 11.189 0 00-1.542-2.59c-.215-.286-.557-.6-.882-.448a13.363 13.363 0 00-.812 5.711" fill="#ba7301"/>
      <path d="M275.308 493.714a1.416 1.416 0 01.899-2.249c.198-.062.349-.14.233-.34-.35-.602.01-.987.303-1.47.248-.413.677-.697.805-1.197a.462.462 0 01.547-.32c.364.06.4-.33.541-.411.87-.49.59-1.95 1.81-2.085.08-1.034 1.27-.862 1.731-1.63a6.843 6.843 0 012.47-1.886 26.769 26.769 0 014.53-2.393c2.192-.822 4.048-2.234 6.115-3.266.564-.282.972-.884 1.584-1.151 1.35-.582 2.138-2.016 3.627-2.38 1.38-1.81 3.603-2.53 5.232-4.038a77.63 77.63 0 008.844-9.495 81.06 81.06 0 006.174-9.16 67.887 67.887 0 003.513-8.014c2.194-5.328 4.063-10.78 6.194-16.134a72.548 72.548 0 015.256-10.39 94.815 94.815 0 019.962-13.664 32.331 32.331 0 018.063-6.853c3.637-2.116 9.906-1.602 12.757 1.16a12.683 12.683 0 012.72 3.701 22.4 22.4 0 001.061 1.944c.767 1.284 1.171 2.711 1.82 4.036.136.282.35.61.099.952a.241.241 0 00.004.31c1.707 2.59 2.105 5.575 2.436 8.543a43.891 43.891 0 01-.834 12.82q-1.703 9.312-4.157 18.452c-1.47 5.48-3.282 10.857-5.15 16.213-2.265 6.494-4.564 12.975-6.748 19.498-2.575 7.69-4.96 15.444-7.719 23.072-1.762 4.87-3.775 9.64-5.94 14.337a52.987 52.987 0 01-9.995 15.234 34.061 34.061 0 01-12.107 8.174c-5.8 2.219-11.717 2.394-17.107-1.094a59.828 59.828 0 00-13.429-6.162 20.812 20.812 0 01-13.344-12.507c-.645-1.663-1.867-3.018-2.587-4.652a36.749 36.749 0 01-2.139-5.226 32.355 32.355 0 01-.526-14.502c.1-.533-.05-1.295.722-1.578.045-.016.053-.215.03-.323-.26-1.39.495-2.53.935-3.745.125-.372.16-.359.765-.13zm86.23-32.828c-3.168 8.4-6.455 16.757-8.805 25.434zm-87.933 43.302a.883.883 0 00-.307.852c.216 2.967.086 5.98 1.157 8.836a2.026 2.026 0 01.145.575 10.229 10.229 0 00.903 2.763c.052.145.203.335.396.201s.041-.29-.012-.453c-.228-.699-.515-1.371-.727-2.08a31.207 31.207 0 01-1.43-8.293c-.017-.77-.08-1.544-.126-2.4zm80.16-72.15c1.262-2.189 3.821-12.873 3.382-14.043-.983 4.753-2.14 9.408-3.377 14.042zm15.75-.854c-1.189 4.979-2.502 9.93-3.37 14.981 1.304-4.955 2.462-9.941 3.37-14.984zm-54.747 38.725l-.205-.164-3.759 4.679c2.301-.719 2.78-2.902 3.965-4.516zm-28.18 55.884c-1.186-1.317-2.066-2.875-3.305-4.144a6.718 6.718 0 003.305 4.142zm10.836 7.565c-2.957-1.836-5.835-3.782-8.693-5.758a46.823 46.823 0 008.694 5.756zm32.535.92c-1.727 1.447-3.72 2.59-5.238 4.307a22.186 22.186 0 005.238-4.31zm41.95-98.01l-3.4 13.63c1.28-4.508 2.457-9.041 3.399-13.633zm-86.753 69.408c-.076-2.337.1-4.662.112-6.991a16.4 16.4 0 00-.113 6.989zm23.24 20.46c-.619-.117-.699.174-.686.47a9.387 9.387 0 00.585 2.3.33.33 0 00.4.241c.202-.062.165-.268.144-.438-.088-.705-.186-1.407-.273-2.11-.024-.242-.082-.45-.167-.463zm-18.853-23.348a20.876 20.876 0 001.205 7.08c-.558-2.335-.859-4.711-1.202-7.08zm-2.315 19.797a12.445 12.445 0 003.851 3.315zm49.193 2.662a14.34 14.34 0 001.78-3.33 8.376 8.376 0 00-1.776 3.33zm33.17-109.063a6 6 0 00-.26-2.714c-.026.924-.301 1.878.259 2.714zm-2.926 39.459c.432-1.596 1.36-3.082 1.522-4.954zm-72.226 33.729c1.268.11 1.079-1.022 1.56-1.535a5.2 5.2 0 00-1.563 1.536zm62.96-6.756a15.85 15.85 0 00-1 3.402c.185-1.178.89-2.197.999-3.4zm12.996-43.034l.054.013.919-3.687-.053-.013zm2.56-7.71l-.07-.04-.848 3.396.077.02zm-19.242.914l-.176-.098-.611 2.452zm-.448-27.92c-.048-.022-.092-.044-.145-.067l-.96 1.786.26.117zm-45.938 122.092l-.232.064c.196.564.233 1.184.732 1.652zm-1.163 10.155a6.523 6.523 0 002.125.884 4.442 4.442 0 00-2.13-.885z" fill="#00ebe5"/>
    </g>
  </g>
</svg>