<svg xmlns="http://www.w3.org/2000/svg" viewBox="0 0 177 390">
  <defs>
    <linearGradient id="card-space-illus-b" x1=".168" x2="1.072" y2="1.05" gradientUnits="objectBoundingBox">
      <stop offset="0" stop-color="#ff5050" />
      <stop offset="1" stop-color="#ac00ff" />
    </linearGradient>
    <clipPath id="card-space-illus-a">
      <path d="M10 0h167v390H10a10 10 0 01-10-10V10A10 10 0 0110 0z" transform="translate(321 460)" fill="#dbdbdb" />
    </clipPath>
  </defs>
  <g transform="translate(-321 -460)" clip-path="url(#card-space-illus-a)">
    <path transform="translate(321 460)" fill="url(#card-space-illus-b)" d="M0 0h177v390H0z" />
    <g opacity=".9">
      <path
        d="M494.525 510.964c.08.938.706 2.109-1.151 1.447-.987-.352-1.546 1.266-2.886 1.417a17.722 17.722 0 00-2.834.773c-.616.2-1.4-.036-1.616.878-.067.282-.263.48-.537.323-1.4-.8-2.312.329-3.313.874a60.373 60.373 0 00-11.475 7.841 95.588 95.588 0 00-13.518 14.479c-.074.1-.112.269-.207.308-.888.365.157 2.847-1.912 1.833-2.823-1.383-3.469-2.618-2.4-4.715a102.263 102.263 0 014.092-7.242c5.282-8.543 12.668-14.9 21.315-19.769a44.507 44.507 0 0118.911-5.367 50.95 50.95 0 0115.353.738 22.716 22.716 0 015.179 1.613c.832.426 1.692.636 2.445.992 2.923 1.382 6.281 2 8.573 4.648.559.646 1.726.581 2.605 1.172 8.291 5.569 13.517 13.214 15.089 23.018 1.536 9.573 1.9 19.227-.4 28.8a28.081 28.081 0 01-2.514 6.016c-1.135 2.261-2.617 4.366-3.43 6.795a3.357 3.357 0 01-.786 1.456c-2.347 2.049-3.981 4.724-6.192 6.9a53.106 53.106 0 01-8.152 6.473c-2.3 1.519-4.423 3.35-6.652 4.976-2.718 1.984-6.029 2.957-9.221 4.061a54.768 54.768 0 01-9.046 2.018c-.5.084-.92.379-1.3-.219a.715.715 0 00-.619-.268c-4.816 1.6-11.225.069-15.1-1.942a42.045 42.045 0 01-12.859-9.851 28.547 28.547 0 01-5.951-11.7c-.846-3.381-1.8-6.723-2.378-10.174-.809-4.8.489-9.078 2.873-13.118a107.071 107.071 0 016.617-9.791c2.373-3.163 5.871-4.486 9.333-5.585a37.791 37.791 0 0112.924-1.725 11.723 11.723 0 017.936 3.334 32.534 32.534 0 017.006 10.225c1.458 3.19 1.517 6.684 2.176 10.045.157.8-.386 1.373-1.348 1.44-.815.057-1.458.4-1.134 1.43.128 0 .189.005.25 0 .787-.07.9-1.651 1.89-1 .9.588.656 1.676.579 2.612a14.55 14.55 0 01-4.739 10.034c-2.452 2.2-4.63 4.651-7.994 5.8-6.791 2.329-10.154.355-15.1-4.225-1.627-1.505-2.116-3.631-2.878-5.608-2.272-5.9 2.167-9.851 7.143-9.9-.537 2.018-3.23 1.607-4.137 3.7 1.7-.512 2.761-1.5 4.026-2.089.563-.26 1.557-.947 1.78-.238.265.84 1.663 1.182.7 2.847a24.522 24.522 0 00-2.719 5.773 2.245 2.245 0 002.442 3.005 20.273 20.273 0 0012.643-5.955c2.221-2.188 2.825-5.39 2.578-8.509-.26-3.28-.41-6.6-1.766-9.711-.407-.933-2.31-4.291-3.146-4.918a3.563 3.563 0 00-2.207-.693c-.427 0-1.131.456-1.2-.6-.036-.5-.927-.52-.96-.117-.114 1.352-1.155 1.013-1.817 1.053-3.632.216-7.014 1.559-10.529 2.292a4.155 4.155 0 00-3.156 2.909 2.836 2.836 0 01-1.167 1.652c-2.873 1.75-3.652 4.809-5.014 7.551-.807 1.626-2.328 2.83-2.891 4.686a17.979 17.979 0 00-.312 9.19 49.628 49.628 0 003.013 9.867c2.062 4.552 6.029 6.806 10.51 8.409 1.734.621 3.728.261 5.337 1.577.251.206 1.743-.609 2.776-.708 9.817-.945 18.6-4.659 26.908-9.836 5.336-3.327 9.336-7.849 12.846-12.931 5.33-7.716 6.908-16.494 7.1-25.6a90.619 90.619 0 00-.628-13.716 18.308 18.308 0 00-10.009-14.426c-2.649-1.451-5.377-2.79-8.03-4.219a6.683 6.683 0 00-4.613-1c-1.645.356-3.588-.58-5.472-.635-2.026-.06-4.015-.847-6.087-.3-.534.141-.654-.037-.359-.572a.343.343 0 00-.48-.465c-1.69 1.516-4.1.2-5.926 1.672-1.104.877-1.447-1.23-2.681-1.515zm-8.471-2.361c-5.46-.481-22.684 12.164-25.178 17.874 7.377-7.39 15.207-14.138 25.178-17.874zm17.956 86.327c1.592-.495 3.211-.913 4.769-1.5 6.235-2.336 11.707-6.027 17.063-9.879a1.624 1.624 0 00.6-2.447c-6.388 6.443-14.458 10.005-22.432 13.826zm-9.991-17.071c.8-.248 1.6-.539 2.413-.735 2.542-.612 4.17-2.658 6.27-3.962a.871.871 0 00.29-1.173c-.3-.495-.677-.142-.892.135-2.106 2.716-5.244 3.869-8.081 5.735zm-14-34.148a8.57 8.57 0 00-5.3 2.726c2.06-.348 3.583-1.718 5.301-2.726zm4.137-29.117c-.684 0-1.17.025-1.652-.006a1.333 1.333 0 00-1.3.832c-.12.215-.2.56.074.636a1.317 1.317 0 001.29-.474c.379-.37 1.091-.157 1.588-.988zM388.433 539.511c.83-1.1 2.412-.736 2.546-2.354.056-.66.94-.161 1.43-.203a39.97 39.97 0 018.589.3c1.2.16 1.993 1.339 2.498 2.495.117.272.172.672-.199.866-.485.252-.446-.31-.665-.475a1.279 1.279 0 00-1.093-.409c.15 1.12.105 2.242 1.028 3.166.65.654-.247 1.259-.516 1.6-.651.824-.346 1.536-.287 2.373.057.803-.25 1.533.832 1.96a1.265 1.265 0 01.532 1.538c-.756.025-.731-.683-1.003-1.116-1.173.876-.286 1.501.118 2.173.209.35.662.655.308 1.142-.393.54-.741-.294-1.236-.015.663 1.026.511 1.814-.855 1.398-.932-.284-1.04.973-1.902.55a3.189 3.189 0 00.598-1.607c-.831-.262-.6.72-1.057.91-.655-.513-.022-1.543-1.072-1.837.65-.35 2.332.243.851-1.138-.483-.45.083-1.633-1.159-1.693-.317-.017.01-.486.117-.613a1.981 1.981 0 00-.172-2.834c-.857-.748-1.615-2.335-3.329-1.347-.42.244-1.057.153-1.594.143-.798-.01-1.544-.354-2.123.757a1.283 1.283 0 01-2.152-.188c-.645-1.015-1.473-1.172-2.235-.22-.475.594-.461.075-.804-.035-1.326-.425-1.684-2.442-3.536-1.981-.912.227-1.452.24-.47 1.212-1.563-.742-3.111-1.517-4.697-2.211a1.9 1.9 0 01-1.107-2.184c.038-.454.306-.773-.342-1.153s-.59-1.326-.296-1.932a9.309 9.309 0 00.53-3.321 1.388 1.388 0 00-1.693-1.752c-2.668.423-5.364-.177-8 .396-1.096.239-2.209-1.033-3.26.09a4.984 4.984 0 00-.882-.878c-.788-.47-1.613-.87-2.439-1.267-.751-.361-1.227-.787-.433-1.803-1.177 1-1.735.511-2.278-.47-.196-.355-.753-.657-.384-1.018.182-.18.973-.355 1.235.272.204.488.464.86.901.345.484-.577-.308-.761-.542-.916a4.59 4.59 0 01-2.157-5.226 1.742 1.742 0 00-1.246-1.987c-2.707-.957-5.624-1.907-8.35-1.393-1.787.34-3.442-.041-5.145.195-1.486.206-2.976-.32-4.55.075-1.371.343-3.902-2.14-3.769-3.671.239-2.755-.58-5.602.688-8.269.348-.735-.145-.965-.74-1.09-1.058-.222-2.122-.43-3.178-.666-.546-.12-1.147-.026-1.45-.78s-1.035-.318-1.575-.238c-.288.042-.594.66-.771.45-1.043-1.233-2.119.11-3.163-.11-.69-.143-.665-.123-1.408-.883-.217-.221-.702-.238-1.067-.247a18.736 18.736 0 01-7.941-1.82 1.711 1.711 0 01-1.174-2.134c.44-1.874-.041-3.706-.042-5.555.002-.645-.151-.976-.936-.81a20.4 20.4 0 01-7.696.179c-.54-.09-1.045.736-1.62.426-1.293-.702-2.538-1.496-3.767-2.307-.319-.21-.264-.563.153-.739.44-.19.54-.468.275-.895-.975-1.574-.3-2.92 1.642-3.22 2.818-.439 5.649-.823 8.47-1.255s5.627-.869 8.436-1.349a8.173 8.173 0 012.905-.113c1.08.205 2.206.919 1.927 2.004-.498 1.952-.038 4.077-1.095 5.89-.659 1.135.001 1.182.883 1.261 5.458.474 10.884 1.145 15.997 3.306.098.041.205.072.302.113 5.953 2.681 5.555 4.249 3.952 9.649-.782 2.635-1.485 2.452 1.895 2.66 3.459.211 6.944-.007 10.382.55 2.782.452 5.582.866 7.55 3.273 1.444 1.766 1.645 3.893 1.677 5.989.052 3.467 2.18 4.618 5.287 4.849 3.374.252 6.77.198 10.152.348 3.933.178 5.048 1.637 4.51 5.843-.117.911-.392 1.81-.432 2.721a3.557 3.557 0 003.08 3.923 45.117 45.117 0 005.875 1.372c.306.03.881-.206.822.452-.04.44-.47.558-.83.674-.973.302-.973.299-1.06 1.84zm5.7 2.307c.976-.24 1.5-.428 1.157-1.604-.181-.622-.93-1.404-.164-2.209.126-.14-.243-.295-.448-.308-.154-.011-.411-.276-.46.142-.16 1.363-1.124 1.515-2.32 1.42.704.383.558 1.58 1.773 1.374.327-.057.57-.907.944-.24.27.481.013.953-.48 1.427zm-57.46-42.721l.18-.4a9.445 9.445 0 00-6.1-2.366zm47.69 38.198c-1.297-.665-2.47-.878-3.367-1.64-.274-.23-.708-.526-.97-.118-.213.326.134.66.405.943 1.014 1.052 2.225 1.27 3.922.811zm.71.623c1.057.394 1.785 2.043 2.897.093-.926-.223-1.748-.8-2.903-.093zm4.252 3.56c-1.3-.065-2.32-.113-3.345-.17-.163-.013-.326-.614-.474-.024a.781.781 0 00.235.521c1.09-.24 2.255.841 3.58-.33zm-61.09-37.847l4.325.97a6.454 6.454 0 00-4.328-.973zm34.709 57.068a7.647 7.647 0 01-4.675-7.24 2.115 2.115 0 00-.989-2.101c-2.088-.938-3.704-2.64-5.976-3.332-3.493-1.066-7.14-1.635-10.485-3.175-1.267-.584-2.52-1.193-3.804-1.801-.561.427.399.621.205 1.027-.164-.063-.372-.076-.452-.183-1.358-1.834-3.397-3.385-3.143-5.965.096-.97-.45-1.724-.39-2.66.02-.331-1.041-.866-1.686-1.082-3.62-1.209-7.284-2.3-10.893-3.542a24.291 24.291 0 01-3.592-1.796 1.247 1.247 0 01-.804-1.372c.048-.62.19-1.9-1.221-1.782.03-1.066-1.546-1.405-1.061-2.827.55-1.61-.554-2.256-2.066-2.88-2.088-.862-4.243.045-6.239-.774a1.522 1.522 0 00-1.255.157c-.29.143-.752.386-.9.277-1.432-1.067-2.564.425-3.85.389-2.05-.058-4.116-.042-6.016-1.01-.593-.302-.59-.272-1.4.125-.142.068-.408-.052-.587-.143-1.227-.625-1.436-1.244-1.495-3.32-.01-.398-.648-.775-.98-1.168-1.162-1.368-.221-3.062-.696-4.54-.088-.274.023-.913-.313-.731-1.408.75-2.876-.633-4.262.227a4.711 4.711 0 01-1.55.442c-.579.115-1.287.256-1.67-.219-.325-.402.098-.945.42-1.291.646-.697-.527-1.508.35-2.347a7.406 7.406 0 013.377-1.834c2.952-.738 5.426-2.381 8.014-3.819.74-.41 1.305-.665 2.042-.065a2.037 2.037 0 01.72 2.05 16.831 16.831 0 01-1.429 5.174 1.573 1.573 0 00.667 2.11c1.822 1.124 3.707 2.011 5.976 1.479 4.16-.978 8.242-.129 12.35.505a24.624 24.624 0 003.056.1 4.809 4.809 0 013.073 1.211 2.544 2.544 0 01.642 2.94c-.923 3.24-.22 4.455 2.951 5.674 3.397 1.309 6.854 2.498 10.144 4.041 1.519.713 3.233 1.028 4.579 2.202 1.14.991 2.018 2.043 1.762 3.58-.277 1.662.583 2.534 1.846 3.241a50.316 50.316 0 0010.756 4.493 50.891 50.891 0 018.362 3.065c2.009.98 3.619 2.49 3.767 4.933a4.88 4.88 0 002.932 4.152 74.973 74.973 0 0013.25 5.31c5.278 1.743 10.71 3.009 15.894 5.048 1.23.484 2.531.875 3.186 2.268-1.079.473-1.816-.127-2.55-.493a21.969 21.969 0 00-4.996-1.787c-.223-.051-.622-.188-.675.182-.06.408.288.318.597.42 2.09.697 4.41.884 6.088 2.56.416.416 1.283.73.191 1.392-.391.238.07.556.125.836s.117.729-.099.708c-.833-.077-1.563.77-2.217.536a37.787 37.787 0 00-7.95-1.931c-2.975-.381-5.832-1.83-8.93-1.18-1.393-1.415-3.503.13-5.044-1.35-.999-.958-2.764-.491-4.119-.58-2.637-.171-4.723-1.367-6.881-2.55 1.608-.043 2.847 1.172 4.422 1.265-1.936-.748-3.668-1.88-5.552-2.8.034.847 1.369.586 1.148 1.55zm-32.842-33.742c-2.81-2.462-6.748-2.62-9.723-4.745-.316-.227-.837-.273-1.018.1-.226.468.205.788.593.985 1.643.842 3.405 1.479 5 2.35 1.677.912 3.405.963 5.145 1.259 1.52 1.464 3.504 1.962 5.429 2.75-.187-1.786-2.7-2.977-5.426-2.7zm19.593 13.427a49.351 49.351 0 01-10.33-4.527c.623 2.126 7.605 5.145 10.33 4.526zm10.488 4.907c-.108-1.408-2.856-2.759-4.738-2.313 1.782.299 3.099 1.54 4.739 2.313zm-66.793-33.858c1.16 1.354 2.167 1.979 3.922 1.414-1.385-.521-2.318-1.283-3.92-1.413zm57.239 30.133c1.217.065 2.378.873 3.666.476-1.206-.256-2.23-1.72-3.663-.475zm-12.588.45a7.867 7.867 0 005.155 2.542zm-15.826-11.942a9.778 9.778 0 00-4.146-1.821 7.733 7.733 0 004.147 1.82zm42.677 22.458l-.255.399a6.32 6.32 0 003.986 1.755zm-35.17 17.662c.283.659 1.252.8 1.095 1.773a3.528 3.528 0 01-2.288-1.345 2.956 2.956 0 00-1.075-.937c-1.116-.48-1.765-1.06-.671-2.283.5-.555-.589-3.436-1.36-3.906-.956-.582-1.946-1.545-2.833-1.743-2.382-.53-4.652-1.902-7.23-1.356-.5.106-.783-.23-1.168-.378-1.43-.542-2.608-1.906-4.445-1.177-.719.285.109-.868-.683-1.1a8.371 8.371 0 01-2.443-1.543c-1.891-1.427-2.458-2.77-1.275-4.7.77-1.26-.018-1.254-.713-1.621.692-.331 1.664-.385.695-1.393-.633-.658.036-1.455.082-2.173.036-.506.385.078.616.168.398.157.861.347 1.287.002-.33-.38.477-1.033-.39-1.352-.543-.199-.762-.828-.892-1.521-.496 1.27-1.837 1.172-2.658 1.913a6.59 6.59 0 00-1.809 1.722c-.267.533-.774.44-.69.083.242-1.06-.622-2.091.046-3.138.263-.41.507-.286.804-.208s.744.818.832.272c.173-1.055.967-1.55 1.482-2.298-1.491.03-.12-1.073-.559-1.535-.103-.11.494-1.013 1.007-.543 1.328 1.215 2.156.049 2.702-.699a2.682 2.682 0 013.03-.989c.237.633-1.134.885-.39 1.642.602.614 1.099-.079 1.646-.116.299-.02.703-.033.754-.46s-.376-.51-.635-.64c-1.365-.678-.328-1.64.098-1.681 1.372-.139 2.618-.921 4.03-.739 1.492.19 1.89 1.018 1.115 2.277a.822.822 0 00-.114.462c.244 3.289-2.079 5.138-4.074 7.119-1.706 1.693-1.71 1.824.444 2.986a40.78 40.78 0 007.952 2.776 52.9 52.9 0 019.133 3.195c2.294 1.174 3.71 2.988 3.5 5.708a2.337 2.337 0 001.815 2.64 91.74 91.74 0 0013.424 3.441 40.217 40.217 0 016.444 2.05 6.063 6.063 0 013.915 5.813 6.141 6.141 0 003.128 5.45c5.567 3.721 11.679 6.344 17.806 8.927 6.322 2.665 12.762 5.032 19.244 7.277a3.687 3.687 0 011.01.506c.48.364 1.06.859.78 1.453-.221.473-.88.043-1.345.033-.445-.008-1.065-.574-1.284.055-.234.67.61.72 1 1.036.527.433 2.285.828.123 1.507a.475.475 0 00-.226.353c-.2 2.402-1.877 3.145-4.253 2.258a31.92 31.92 0 00-5.146-1.403c-3.376-.641-6.596-1.791-9.876-2.718a127.79 127.79 0 01-16.84-5.958 29.505 29.505 0 01-8.632-5.656 1.961 1.961 0 00-1.415-.736 2.74 2.74 0 00.623 1.568c-.566-.748-1.328-1.386-1.228-2.493.042-.464-.282-.71-.556-1.052-.37-.46-1.1-1.22.092-1.717a1.074 1.074 0 00.24-.188c-1.23-.643.225-1.561-.221-2.244a5.238 5.238 0 01-.824-2.813 2.094 2.094 0 00-1.16-1.618c-.498-.327-1.65-.15-.779-1.294a1.236 1.236 0 00-.427-.401.436.436 0 00-.6.368c-.157.735-.66 1.109-1.271.804-.972-.482-2.201-.065-3.009-.899-.418-.432.353-.821.218-1.409-.842.376-2.02-.492-2.546.866-.02.049-.26.088-.301.044-.714-.776-1.167-.454-1.98.077-.866.565-1.925-.32-2.88-.65-.15-.052-.395-.159-.449-.1-1.515 1.58-1.909-.697-2.919-.862-.31-.05-.285-.422-.223-.799.246-1.528-.303-2.031-1.72-1.865a7.532 7.532 0 01-1.707-.175zm33.757 13.88a40.627 40.627 0 00-4.4-3.806c-.198-.089-.426-.21-.56.034a.85.85 0 00-.093.601c.408 1.244 3.548 3.196 5.053 3.171zm-10.514-14.001c.157 1.636 1.697 2.056 2.693 2.963a.486.486 0 00.714-.055c.168-.162.221-.464.012-.538-1.364-.483-1.69-2.446-3.418-2.37zm-39.918-18.754c-.83-.573-1.636-1.173-2.494-1.693-.233-.142-.332-.847-.84-.31-.377.397-.216.718.018 1.133.75 1.327 2.053.933 3.319.873zm48.372 39.667c-1.995-1.135-3.81-2.553-5.75-3.776 1.492 1.932 3.631 2.838 5.75 3.777zm-3.231-6.004l-.144.213c1.323.922 2.64 1.84 3.969 2.746a.409.409 0 00.394-.074.494.494 0 00-.167-.703c-1.339-.747-2.698-1.46-4.051-2.184zm11.4 1.934a10.858 10.858 0 00-3.653-1.726c1.273.455 1.611 2.628 3.654 1.724zm-62.37-46.105c-.65 0-1.197-.078-1.412.562s.007 1.218.8 2.047c-.41-1.232.307-1.763.61-2.613zm1.132 15.568c-.077-1.636-.077-1.636-2.067-1.474zm52.285 36.727a7.894 7.894 0 01-4.03-2.22c1.844.236 2.652 1.754 4.03 2.22z"
        fill="#00ebe5" />
      <g transform="translate(124.462 126.441)">
        <ellipse cx="13.568" cy="2.313" rx="13.568" ry="2.313" transform="translate(441.691 504.139)" opacity=".1" />
        <ellipse cx="43.612" cy="8.246" rx="43.612" ry="8.246" transform="translate(149.7 525.281)" opacity=".1" />
        <ellipse cx="70.622" cy="12.039" rx="70.622" ry="12.039" transform="translate(315.747 527.951)" opacity=".1" />
        <ellipse cx="72.785" cy="13.422" rx="72.785" ry="13.422" transform="translate(40.475 586.58)" opacity=".1" />
        <ellipse cx="66.595" cy="15.404" rx="66.595" ry="15.404" transform="translate(302.486 619.995)" opacity=".1" />
        <path d="M207.005 561.919l61.225 15.74 58.805-45.081-63.383-12.034z" fill="#55b7f9" />
        <path fill="none" stroke="#c0fffd" stroke-linecap="round" stroke-miterlimit="10" stroke-width="3"
          d="M258.348 563.344l27.226-21.08m-19.322 24.134l29.014-22.624" />
        <path
          d="M248.677 549.161c6.765-1.833 13.162-11.376 18.28-8.064s-.3 10.167-5.225 11.812-8.12 3.839-11.5 5.941c-5.379 3.663-16.27 4.665-16-.455s7.042-8.32 14.445-9.234z"
          fill="#fff" />
        <path d="M301.429 487.891s9.21 13.815 18.838 8.373l2.652 2.372 4.186-4.6-1.67-7.959-10.605-6.559-11.442 5.3z"
          fill="#ffaea1" />
        <path
          d="M416.787 517.685h3.363s-5.475-25.421-5.632-28.784l-3.911-8.448s-3.676.078-3.911-1.8 3.911-8.135 3.911-8.135 7.118-11.42 7.9-11.342-2.19 17.677-.782 23.074 20.024 37.7 20.024 37.7l-2.738 8.369-18.46-4.233z"
          fill="#f78174" />
        <path
          d="M417.209 522.363l17.711 1.154s-12.622-22.2-16.147-30.754a3.594 3.594 0 00-1.752-1.869c-2.735-1.329-8.926-4.624-8.209-6.892.916-2.9 1.26-10.382-.057-17.864s4.485.195 8.455 13.38c4 6.963 38.476 40.974 43.361 47.387s2.138 18.169-12.672 18.169h-39.334z"
          fill="#ffaea1" />
        <path d="M434.921 523.517s5.684 7.9 11.1 8.489c0 0 1.025 1.245-.513 1.1s-7.616-2.449-12.085-9.685z"
          fill="#f99187" />
        <path d="M420.151 517.685l9.594.535s.5-.563-.226-.712-9.558-.712-9.558-.712z" fill="#db6158" />
        <path
          d="M377.973 545.72H354.83s-7.656-2.2-15.438-17.769-3.634-24.712-3.634-24.712l13.318-3.143s7.517 15.318 21.9 18.124l4.608-1.423 4.978 6.623z"
          fill="#ff127e" />
        <path
          d="M377.187 543.632c-26.511 1.359-32.391-10.267-32.279-13.638-.252-3.218 0-19.888 0-19.888l-4.472 2.955-2.879 10.808a53.625 53.625 0 001.835 4.082c7.782 15.572 15.438 17.769 15.438 17.769h23.144l.109-.94z"
          fill="#d8257f" />
        <path d="M349.075 505.779s-1.136 4.07-4.751 4.421-.4-4.971-.4-4.971l1.456-.5z" fill="#ce0268" />
        <path d="M327.454 487.64l12.982 8.238-3.6 4.218-6.93.513z" fill="#f78174" />
        <path
          d="M278.755 525.293a1.164 1.164 0 011.324 1.057l1.354 16.491h-1.027l-2.635-16.209a1.164 1.164 0 01.984-1.339z"
          fill="#283054" />
        <path d="M315.747 527.951l-18.109 6.106s-5.1-1.541-5.8-.941l-9.2 7.9h12.198l27.506-6.537z" fill="#f78174" />
        <path d="M293.404 535.284s-3.739 4.733-2.319 5.68 6.389-3.36 6.389-3.36" fill="none" stroke="#db6158"
          stroke-linecap="round" stroke-miterlimit="10" />
        <path
          d="M411.463 545.72h-33.49s-11.381-13.2-2.393-28.923c0 0 8.038-4.763 12.981-4.648 4.433.1 24.032 2.314 28.024 2.769a1.284 1.284 0 011.036.767c.848 1.96 2.944 8.014 1.169 16.8-2.18 10.813-6.38 13.235-7.327 13.235z"
          fill="#0957d3" />
        <path
          d="M301.429 489.478s1.135-2.587 4.886-2.522 8.212 3.039 10.541 2.845c0 0-1.811-2.975.388-3.751s4.318 1.2 5.133 3.024a4.176 4.176 0 002.238.274s.582 6.078-2.651 10.282-11.834 15.586-10.088 22.73 6.725 12.29 11.575 12.918 11.833-3.833 11.833-3.833l-1.875-32.812s.323-6.5-3.492-9.284l-1.1-1.94s-5.69-15.843-14.1-17.589c-5.233-.903-15.91 8.215-13.288 19.658z"
          fill="#3f1618" />
        <path
          d="M326.673 510.817c-5.044 6.181-10.262 13.822-10 20.627a11.733 11.733 0 006.782 3.836c3.676.477 8.575-1.97 10.733-3.183.321-1.159.469-1.934.469-1.934l.351-3.636-1.594-27.893s.323-6.5-3.492-9.284c-.004.001 4.18 12.36-3.249 21.467z"
          fill="#331215" />
        <path
          d="M345.602 503.239s-3.431 40.919-10.266 41.529-47.448.916-47.448.916-11.756 4.733-11.146 2.137 2.9-7.023 5.344-7.329a74.949 74.949 0 019.008.153s35.628-7.94 38.655-8.7l2.264-23.819z"
          fill="#ffaea1" />
        <path d="M331.552 512.98s7.5-3.47 13.4-3.266l.414-3.937-2.036-1.229-10.539 4.45-1.033 1.819z" fill="#f99187" />
        <path
          d="M331.757 510.817s1.067-10.281 1.152-12.182 5.205-8.045 11.861-6.423c5.034 2.048 4.306 13.567 4.306 13.567s-6.611-1.357-17.319 5.038z"
          fill="#fc4ca4" />
        <path d="M320.268 496.264a7.616 7.616 0 002.072-2.713 6.085 6.085 0 01-1.172 3.519z" fill="#f99187" />
        <path
          d="M417.622 515.686a1.284 1.284 0 00-1.036-.768c-3.992-.455-23.591-2.666-28.025-2.769 0 0 25.9 7.9 30.79 10.759a24.17 24.17 0 00-1.729-7.222z"
          fill="#064cb2" />
        <path
          d="M377.973 545.72h33.49c.584 0 2.4-.923 4.22-4.157-18.636 2.063-32.979-.54-37.751-5.535-3.989-4.47-2.353-19.231-2.353-19.231-8.987 15.727 2.394 28.923 2.394 28.923z"
          fill="#074da0" />
        <path
          d="M324.615 489.351a6.757 6.757 0 004.2-1.94 8.321 8.321 0 01.636 1.122 7.638 7.638 0 01-4.8 2.336s-.042-1.09-.036-1.518z"
          fill="#fff" />
        <path
          d="M240.387 492.472l1.662 16.848s12.012 17.453 15.639 23.723c0 0-.227 8.991-1.058 9.217s-3.475-9.066-3.475-9.066-23.346-22.212-23.648-25.914-.263-11.52-.263-11.52l3.814-2.532z"
          fill="#cad3ff" />
        <path d="M240.478 493.553l.147 1.324a24.028 24.028 0 01-11.381 4.188v-3.3l9.293-2.515z" fill="#a3b0e2" />
        <path d="M172.938 516.24s1.124 1.9 4.66 1.542c4.055-.259-2.64-4.6-2.64-4.6l-1.509 1.25z" fill="#054726" />
        <path
          d="M177.806 525.881s-7.825-5.892-9.732-5.293-8.29 3.33-12.6 3.509-2.824 2.738 5.563 3.765 12.067 1.2 13.778 2.482 2.991-4.463 2.991-4.463z"
          fill="#cad3ff" />
        <path
          d="M214.267 508.507s10.954 8.315 22.079 17.815c5.734 5.135 1.027 11.468-1.968 11.125-7.445 1.626-8.729-1.125-11.3-2.959s-21.138-19.125-21.48-19.465 5.734-5.3 5.734-5.3z"
          fill="#0b2a49" />
        <path
          d="M202.959 514.227s25.154 16.33 25.864 22.416-12.679 8-21.6 5.622c-7.506-1.362-31.24-7.413-34.08-11.336-1.116-.981 3.821-7.269 8.1-7.979 0 0-5.993-4.886-7.248-9.847s13.76-4.59 13.76-4.59z"
          fill="#143760" />
        <path
          d="M202.959 514.227l-15.21-5.714s-15.015-.371-13.76 4.59a15.473 15.473 0 003.033 5.532c.185-1.329 1.023-4.866 4.716-5.04 4.3-.2 16.136 4.583 24.163 2.6-1.8-1.226-2.942-1.968-2.942-1.968z"
          fill="#0f3051" />
        <path
          d="M223.509 463.392s-17.89-2.894-24.4 6.161c-.707 3.094-1.2 4.952-1.2 4.952s-8.559 15.35-18.039 23.839-8.064 14.643-6.932 17.9c0 0 3.816-6.3 9.937-5.022s21.754 6.791 27.484 2.9 18.888-18.358 18.888-18.358a22.868 22.868 0 0011.743-2.439s-1.119-21.366-9.976-26.057z"
          fill="#16a564" />
        <path
          d="M193.005 511.496a43.239 43.239 0 00-9.6-.161c6.45 1.457 21.379 6.566 26.949 2.783 5.142-3.491 16.263-15.5 18.492-17.926-3.685 3.694-21.682 16.666-35.841 15.304z"
          fill="#0f9655" />
        <path
          d="M181.237 522.95s14.566 12.635 23.069 15.66c.8.345.727 1.226-.613.651s-10-4.673-23.887-15.885a8.6 8.6 0 011.431-.426z"
          fill="#0f3051" />
        <path
          d="M229.246 495.76l3.42-3.64s6.252-1.509 8.142-2.524a19.069 19.069 0 01.18 3.725 23.046 23.046 0 01-11.742 2.439z"
          fill="#fff" />
        <path
          d="M213.208 491.46l.651-.375-.326-14.3-.63 10.349zm-15.306-16.98l-.483 17.465 4.163.564-.41 1.663-4.68-2.058.647-16.313s.582-.963.763-1.321z"
          fill="#127c49" />
        <path
          d="M200.169 491.95s.214 10.74 2.778 15.164 16.882 21.005 26.284 28.474c2.137 3.2.321 11 3.1 11.743 1.5 0 1.389-8.441 1.389-8.441s.855 3.526 3.206 2.885c1.8-.675-3.26-7.711-3.26-7.711s-15.79-26.718-20.776-31.509c0 0-.756-9.748-1.511-12.1s-11.21 1.495-11.21 1.495z"
          fill="#cad3ff" />
        <path
          d="M211.693 491.834s.065.357.114.671a28.8 28.8 0 01-11.561 1.259 5.862 5.862 0 01-.057-1.171c.064-.257 3.8-1.033 3.8-1.033z"
          fill="#a3b0e2" />
        <path d="M197.426 491.947s5.423 2.255 15.781-.487l-.3-4.326s-10.785 1.279-15.477.244z" fill="#fff" />
        <path d="M229.246 495.76l9.195-9.832-7.589 9.889s-.697-.006-1.606-.057z" opacity=".25" />
        <path
          d="M232.9 468.606a9.27 9.27 0 00-1.887-1.343l-7.5-3.871s-.6-.1-1.614-.2c-1.246.5-2.9 1.836-1.415 5.408 2.209 5.318 8.468 5.686 10.595 4.868 1.976-.762 3.068-2.457 1.821-4.862z"
          fill="#fff" />
        <path
          d="M229.25 456.83l-5.741 6.562s-3.155-.315-2.271 4.164c.966 4.94 8.84 6.235 10.788 4.1 1.514-1.7-.5-3.6-.5-3.6l1.325-1.577a7.782 7.782 0 008.265-.252c4.606-2.776-4.416-11.167-4.416-11.167l-3.849-1.893z"
          fill="#cad3ff" />
        <path d="M232.833 466.504a6.472 6.472 0 01-3-3.526 11.565 11.565 0 001.653 5.085z" fill="#a3b0e2" />
        <path
          d="M230.685 457.953s1.8-1.97 2.87-1.182-.723 2.87-.723 2.87v.394l1.342-.563s2.532 14.46 15.25 6.048c0 0 6.359-1.208 5.233-7.736-.788-4.952-8.1-6.584-8.1-6.584s1.519-9.173-5.965-12.268-19.02 6.528-18.514 12.887 6.301 6.584 8.607 6.134z"
          fill="#111f44" />
        <path
          d="M186.228 496.854c10.248-8.026 10.727-16.4 10.727-16.4l.183-4.618c-2.3 3.912-9.475 15.526-17.268 22.5-9.479 8.489-8.064 14.643-6.932 17.9a13.254 13.254 0 013.45-3.574c-.856-3.607 1.345-9.156 9.84-15.808z"
          fill="#0f9655" />
        <path
          d="M258.205 527.608h1.515a1.121 1.121 0 011.121 1.145l-.365 16.832a1.22 1.22 0 01-1.325 1.189l-.385-.033a1.22 1.22 0 01-1.114-1.174l-.568-16.8a1.121 1.121 0 011.121-1.159z"
          fill="#1661f7" />
        <path d="M260.673 536.487s2.949 5.658 2.534 6.354-2.986-.548-2.986-1.129a11.19 11.19 0 01.381-1.945z"
          fill="#cad3ff" />
        <path d="M269.824 612.52l59.925-33.008 40.572 18.244-8.313 15.672-42.453 29.257z" fill="#e9edff" />
        <path fill="none" stroke="#e26488" stroke-linecap="round" stroke-miterlimit="10" stroke-width="2"
          d="M285.573 613.424l44.176-24.743m-34.534 31.313l44.176-24.743m-33.889 30.162l13.19-7.325" />
        <path
          d="M342.919 532.8s.267 9.335 9.2 10.936 20.271-2.534 20.271-2.534l3.187-6.7-3.7-1.611s-1.092-.731-6.176-.092l-11.983-4.849-11.659 1.538z"
          fill="#7a5e4b" />
        <path
          d="M343.325 535.284a10.806 10.806 0 008.8 8.454c.08.014.16.025.24.038l2.467-2.839v-2.779s-6.558 4.409-11.507-2.874z"
          fill="#634a39" />
        <path
          d="M413.084 619.592s8.758 5.636 10.06 5.264 19.9 7.72 21.113 14.323c1.116 4.638-42.947-8.661-48.865-10.655l5.988-7.575z"
          fill="#7a5e4b" />
        <path
          d="M411.608 630.568c-5.47-3.406 1.475-10.976 1.475-10.976l-9.406 1.091-3.8 2.169-4.484 5.672c3.546 1.195 20.781 6.446 33.792 9.468-.133-.042-12.144-4.042-17.577-7.424z"
          fill="#5b4231" />
        <path
          d="M348.798 534.597s-1.608-3.109 1.072-3.323c1.715 0 1.93 2.894 1.93 2.894s12.544 4.5 15.224-2.894c1.715-5.253-4.181-12.115-12.758-14.044s-18.333 3.86-17.368 9.756 4.502 10.29 11.9 7.611z"
          fill="#162c68" />
        <path
          d="M395.393 628.523s12.281-7.815 17.691-8.932a17.421 17.421 0 00-6.956-3.083c-3.779-.61-16.232 6.008-16.232 6.008l-1.2 3.774z"
          fill="#445c99" />
        <path
          d="M349.333 518.835s-2.037-14.366 10.828-12.115c8.791 3 4.289 15.974 2.359 16.724s-13.187-4.609-13.187-4.609z"
          fill="#162c68" />
        <path
          d="M370.182 643.794s31.372 2.417 42.9 1.647c0 0 14.5 6.261 16.363 4.724s-4.724-9.8-30.228-19.834a27.723 27.723 0 00-17.465 2.038l-13.276 8z"
          fill="#7a5e4b" />
        <path d="M399.22 630.331l1.289.513s-11.815.647-21.923 13.538l-8.4-.588.278-5.347 18.747-9.044 7.506-.256z"
          fill="#634a39" />
        <path
          d="M366.779 597.218s-31.311 20.046-31.443 29.153 17.026 17.95 34.845 17.422c0 0 14.783-13.991 29.037-13.463 0 0-5.412-3.828-7.523-3.96 0 0 13.727-2.039 19.534-9.863 0 0 8.58-1.488 9.371-9.011s-53.821-10.278-53.821-10.278z"
          fill="#808dc4" />
        <path
          d="M420.602 607.497c.792-7.523-53.822-10.279-53.822-10.279l-1.341.876s14.732 12.137 21.405 17.683 16.607 5.448 24.386.731c0 0 8.58-1.488 9.372-9.011z"
          fill="#5e70aa" />
        <path d="M369.381 532.538s9.021 3.638-6.2 10l7.3 1.095 6.049-5.266-3.218-5.193-2.986-.6s-.533-.039-.945-.036z"
          fill="#634a39" />
        <path
          d="M354.829 538.156s9.593 8.043 17.321 0c3.132-4.022-1.83-5.585-1.83-5.585s8.524-1.884 20.245 12.019 32.519 45.618 33.553 58.6c-.115 9.537-24.935 17.351-34.645 11.031s-20.626-16.547-22.694-17.007l4.367-3.677-6.2-8.5s-2.413 2.528-8.388.919l3.217-10.227s-14.364 3.907-20.109-1.724c-.007-.002-3.567-25.048 15.163-35.849z"
          fill="#4addd9" />
        <path
          d="M391.696 626.372s-27.249 7.4-35.58 7.664c0 0-.586.846 1.5.716s27.717-4.782 35.956-7.793a6.692 6.692 0 00-1.876-.587z"
          fill="#546aa3" />
        <path
          d="M364.942 585.039a8.9 8.9 0 002.989-5.838 11.817 11.817 0 01-1.494 7.886zm-4.846 1.452l-2.52-5.924 2.2-4.836.326-11.848 1.913 22.459a3.244 3.244 0 01-1.919.149z"
          fill="#30b2ac" />
        <path
          d="M341.323 581.331s-19.81 16.559-23.249 20.136-6.466 10.18-4.677 10.18 8.529-7.7 8.529-7.7l3.714.826s20.4-9.6 23.431-12.625-7.748-10.817-7.748-10.817z"
          fill="#634c3d" />
        <path
          d="M359.77 575.731s1.792 25.235-3.032 31.87-28.589 19.3-44.632 23.643c-3.016 1.086-7.6 6.635-9.891 6.152s.6-5.549.6-5.549-2.292 1.93-3.257 1.086 2.533-3.136 9.409-7.479 32.087-18.576 31.846-24.97-1.154-26.477-1.154-26.477 4.447 4.956 20.111 1.724z"
          fill="#7a5e4b" />
        <path d="M339.662 574.007l.055 1.224s6.258 7.785 20.3 5.766l-.246-5.267s-14.239 3.107-20.109-1.723z"
          fill="#634a39" />
        <path
          d="M390.566 544.591c-11.721-13.9-20.245-12.019-20.245-12.019a5.243 5.243 0 012.375 1.629c5.457 2.062 20.392 12.6 50.515 64.466-4.283-14.753-22.122-41.592-32.645-54.076z"
          fill="#36fff5" />
        <path
          d="M318.863 594.514l1.842.085a.874.874 0 01.834.9l-.714 20.338-1.967 2.325-1.846-2.418.936-20.4a.875.875 0 01.915-.83z"
          fill="#ea4f76" />
        <path d="M317.737 599.946l3.636.263v-.527l-3.61-.3z" fill="#f97a9e" />
        <path d="M325.645 604.769s-3.2 6.5-5.2 6.325.745-6.325.745-6.325l.737-.826 1.41-1.034 1.909.549z"
          fill="#634c3d" />
        <g transform="translate(197.921 545.38)">
          <path d="M1 20.328l.107 13.355a.583.583 0 00-.107.322c0 1.236 4.61 2.239 10.3 2.239s10.3-1 10.3-2.239V20.328z"
            fill="#412e44" />
          <ellipse cx="10.297" cy="2.239" rx="10.297" ry="2.239" transform="translate(1 18.088)" fill="#c89bd3" />
          <path d="M11.296 21.45a26.292 26.292 0 01-8.732-1.123 34.5 34.5 0 0117.464 0 26.3 26.3 0 01-8.732 1.123z"
            fill="#412e44" />
          <path d="M1 25.54s7.946 1.288 12.769.8v5.475a30.5 30.5 0 01-12.68-.45z" fill="#865f8e" />
          <path
            d="M22.768 14.923a1.012 1.012 0 01-.149 1.49l-17.528 13-1.032-.9 17.329-13.706a1.012 1.012 0 011.38.116z"
            fill="#38526d" />
          <path d="M7.384 25.886l-3.321 2.627 1.032.9 3.384-2.509z" fill="#7095b7" />
          <path d="M4.063 28.512S1 29.345 1 31.675s-.081 4.225-1 4.96c0 0 6.479-2.691 5.1-7.224z" fill="#98d7fa" />
          <path
            d="M7.528 2.416L8.802.09a.173.173 0 01.291-.019l1.468 2a1.021 1.021 0 01.2.6v18.778s-1.4-.034-1.921-.065l-1.433-18.4a1.019 1.019 0 01.121-.568z"
            fill="#38526d" />
          <path
            d="M10.762 9.585V2.673a1.021 1.021 0 00-.2-.6l-1.468-2a.173.173 0 00-.291.019L7.529 2.418a1.019 1.019 0 00-.123.57l.516 6.632a5.908 5.908 0 002.84-.035z"
            fill="#21374c" />
          <path
            d="M20.37 22.002c.277-1.444-2.607-1.067-2.607-1.067a1.667 1.667 0 00-.782.132.161.161 0 00.011.081.174.174 0 00.011.026c.058.118.257.306.926.416.546.124.482.359.482.359 1.162.925.621 2.4-.478 3.381s-.863 5.18.51 5.726 1.531-1.528 1.177-3.019.314-2.433 1.083-3.453-.613-1.141-.333-2.582zm-.748 10.121s-.242-.857.264-.792 1.012 1.98.572 2.728-.484 1.518.572 1.144 4.707-.352 5.037.726-2.86.88-3.41 1.078.044 1.188-1.606 1.166-4.666-1.416-2.741-2.528c.277-.6-.493-2.619.365-2.949s.988 0 .947-.573zm4.487 7.193c.957-.251 1.628-1.276 3.519-1.254s2.882-1.408 5.126-.88 4.531 1.32 3.63 2.244-3.476.99-5.28 1.5-6.135 1.452-8.072.99-8.163-.44-6.953-1.738 6.182-.381 8.03-.862z"
            fill="#ffc50d" />
        </g>
        <path
          d="M267.377 584.464c3.935-3.745 12.32-3.021 18.2-4.334s22.568-11.87 27.969-9.21-6.729 9.186-11.056 12.224-13.33 10.2-25.766 11.365c-10.472 1.651-17.761-2.279-9.347-10.045z"
          fill="#ff6529" />

        <path d="M251.575 649.07l20.507-12.7 25.4 18.643-20.274 13.516z" fill="#dccdf9" />
        <path fill="none" stroke="#9b8bc1" stroke-linecap="round" stroke-miterlimit="10"
          d="M258.293 649.41l14.199-8.557m-10.789 10.541l13.579-8.309m-10.479 10.479l13.207-8.433" />
        <path d="M268.493 655.796l12.618-8.247 4.9 3.844-12.194 8.185z" fill="#9b8bc1" />


        <path
          d="M273.981 626.921a2.647 2.647 0 01-1.331 3.647l-19.6 8.234h-4.507a.328.328 0 01-.263-.524l3.007-4.048 19.266-8.523a2.646 2.646 0 013.428 1.214z"
          fill="#7fcc4e" />
        <path d="M264.808 628.248s2.04 2.5 2.309 4.644l2.707-1.137a7.625 7.625 0 00-2.123-4.787z" fill="#d3f4bd" />
        <path d="M251.288 634.23a17.629 17.629 0 011.764 4.572l14.066-5.909.2-3.363-2.508-1.281z" fill="#d3f4bd" />


        <path
          d="M308.674 546.082a2.647 2.647 0 012.537-2.938l21.245-.755 4.214 1.6a.328.328 0 01.061.583l-4.246 2.72-21.036 1.144a2.647 2.647 0 01-2.775-2.354z"
          fill="#132a7c" />
        <path d="M317.723 548.091s-1.022-3.059-.513-5.161l-2.934.1a7.622 7.622 0 00.29 5.228z" fill="#6887e0" />
        <path d="M332.485 547.291a17.638 17.638 0 01-.029-4.9l-15.247.542-1.377 3.074 1.893 2.084z" fill="#6887e0" />


        <path
          d="M333.47 554.118a2.647 2.647 0 01-2.229 3.178l-21.062 2.883-4.352-1.161a.328.328 0 01-.119-.574l3.952-3.132 20.815-3.249a2.647 2.647 0 012.995 2.055z"
          fill="#7fcc4e" />
        <path d="M324.266 553.029s1.324 2.941 1.029 5.084l2.909-.4a7.624 7.624 0 00-.813-5.173z" fill="#d3f4bd" />
        <path d="M309.659 555.31a17.641 17.641 0 01.52 4.873l15.115-2.069 1.062-3.2-2.09-1.885z" fill="#d3f4bd" />


        <path
          d="M230.06 630.541a2.648 2.648 0 012.4-3.055l21.185-1.758 4.286 1.4a.328.328 0 01.088.58l-4.119 2.911-20.958 2.137a2.647 2.647 0 01-2.882-2.215z"
          fill="#ba3b38" />
        <path d="M239.193 632.121s-1.166-3.006-.757-5.131l-2.925.243a7.623 7.623 0 00.536 5.209z" fill="#ef9292" />
        <path d="M253.9 630.619a17.627 17.627 0 01-.261-4.893l-15.2 1.262-1.23 3.136 1.987 1.995z" fill="#ef9292" />

        <path d="M105.929 650.408l22.22-19.38 42.195 14.1-22.6 20.815z" fill="#e9edff" />
        <path fill="none" stroke="#9ea4b7" stroke-linecap="round" stroke-miterlimit="10" stroke-width="2"
          d="M116.621 648.488l13.58-12.119m-7.696 14.435l13.228-12.087m-6.614 14.235l12.649-12.154m-5.632 14.168l12.355-11.482m-4.7 13.967l11.818-11.751" />


        <path
          d="M197.313 646.583a1.059 1.059 0 001.354.165l44.684-29.165-2.442-3.329-43.435 30.744a1.06 1.06 0 00-.161 1.585z"
          fill="#352338" />
        <path d="M240.912 614.257l2.443 3.326-9.588 6.258-1.961-3.141z" fill="#5e4263" />
        <path d="M240.911 614.257a5.854 5.854 0 015.928-3.16c4.483.273 6.022-1.333 6.022-1.333s-4.07 9.03-9.509 7.822z"
          fill="#e9edff" />


        <path d="M462.787 456.272s1.235-18.558 3.945-18.475-1.972 27.015-1.972 27.015l-1.667 2.326z" fill="#c62658" />
        <path d="M459.837 455.131s-1.127-20.294 1.333-20.573 3.383 30.369 2.46 35.9-3.255-.307-3.255-.307z"
          fill="#e23b67" />
        <path d="M461.169 474.25s-9.021-35.774-3.69-38.234c3.075-.82 5.308 38.234 5.308 38.234z" fill="#ff5076" />
        <path d="M463.63 474.255s9.328-27.676 6.458-31.366c-1.947-2.768-8.405 31.366-8.405 31.366z" fill="#ff5076" />
        <path d="M459.735 474.254s-11.89-37.721-8.611-39.669c2.46-1.128 9.328 32.6 10.046 39.669z" fill="#ff5f91" />
        <path
          d="M471.166 494.057c0-.008 0-.016-.007-.023-.033-.044-.065-.09-.1-.135-.05-.072-.1-.144-.151-.214-4.077-5.934-5.45-19.944-5.45-19.944h-8.061s-1.373 14.011-5.45 19.944c-.052.07-.1.142-.151.214a3.13 3.13 0 01-.1.135c0 .008 0 .016-.007.023a9.385 9.385 0 00-1.435 5.116c0 4.233 2.5 7.665 5.585 7.665h11.17c3.085 0 5.585-3.432 5.585-7.665a9.384 9.384 0 00-1.428-5.116z"
          fill="#412e44" />
        <path
          d="M471.982 495.69a8.282 8.282 0 00-.818-1.631c0-.008 0-.016-.007-.023-.033-.044-.065-.09-.1-.135-.05-.072-.1-.144-.151-.214-.086-.125-.17-.26-.254-.392h-18.453c-.084.132-.167.266-.253.391-.052.07-.1.142-.151.214-.032.045-.064.091-.1.135 0 .008 0 .016-.007.023a8.311 8.311 0 00-.819 1.631zm-14.993-18.74h8.881a88.694 88.694 0 01-.208-1.5h-8.465c-.056.435-.125.941-.208 1.5z"
          fill="#703f7a" />

        <g transform="translate(60.413 470.756)">
          <path d="M93.951 25.003l2.546 6.13s-3.773 4.527-5.376 5.187-2.735-8.2-2.735-8.2z" fill="#2a3479" />
          <path d="M96.494 61.57c.323.4 5.471 11.352 5.471 11.352l24.287 35.374-4.356 5.412-28.287-26.663z"
            fill="#37499f" />
          <path d="M90.218 37.451s9.5.1 8.975 16.6-8.975 57.813-8.975 57.813l-22.439-6.737-6.732-13.253 16.5-44.164z"
            fill="#b7255d" />
          <path d="M91.039 42.347s2.631 10.714-7.331 34.585l5.553 31.824-21.154-7.291-4.417-5.164z" fill="#8c0e41" />
          <path
            d="M85.969 19.634l16.483-9.021h4.789l2.784 13.476s-5.791 3.564-10.246-.891l-10.247 5.569zM27.812 121.375s-10.435-4.585-11.934-4.022-16.547 7.6-15.855 8.231 26.29 1.038 26.29 1.038z"
            fill="#ffbdae" />
          <path d="M27.106 121.07l-.994-.421a9.3 9.3 0 01-5.579 5.864l4.978.1 2.3-2.15z" fill="#f79484" />
          <path
            d="M68.401 97.157s39.768 18.475 45.358 26.78-7.492 15.652-26.425 13.1-61.9-9.623-61.9-9.623.327-7.307 4.948-10.057a15.1 15.1 0 01-5.869-11.384c-.125-7.35 26.723-14.094 26.723-14.094z"
            fill="#e2406e" />
          <path
            d="M26.818 113.44a11.928 11.928 0 009.6.894l1.822-3.466 3.091-1.018 29.727-11.437-2.654-1.255-15.732.749s-18.665 1.866-18.9 2.053-8.914 8.841-8.914 8.841a14.3 14.3 0 001.96 4.639zm3.567 3.913s4.7 6.119 17.094 7.539 42.053 5.283 42.053 5.283v.988s-42.951-4.582-46.815-5.84a29.5 29.5 0 01-13.5-7.1 3.875 3.875 0 011.168-.87z"
            fill="#c4275b" />
          <path
            d="M92.861 10.614c.374 2.448 3.215 5.962 7.476 4.243 0 0 1.047-2.216 2.991-1.893s.3 3.912.3 3.912l.3.523 2.093-.673s.3 13.009 12.112 8.374c7.028-3.364 3.738-10.916 2.243-12.336 0 0 2.617-6.5-4.561-11.663s-22.954 9.513-22.954 9.513z"
            fill="#171143" />
          <path
            d="M85.974 17.185s7.426 9.773 6 20.267c.894 21.855-23.566 59.705-23.566 59.705l-28.415 9.324-4.995-3.33-1 9.324s-14.1-4.551-16.539-9.1c-.005-.002 6.315-55.389 68.515-86.19z"
            fill="#37499f" />
          <path
            d="M85.972 17.185a27.358 27.358 0 015.908 14.042l-5 4.1s-1.164-12.649-3.065-17.052c-.006.001 1.579-.757 2.157-1.09z"
            fill="#576fc4" />
          <path d="M59.72 72.298l25.913 58.343 7.974-2.791-13.374-51.771z" fill="#37499f" />
          <path d="M82.7 124.034l9.029-3.457.237.917-8.886 3.4z" fill="#263a84" />
          <ellipse cx="1.099" cy="1.04" rx="1.099" ry="1.04" transform="translate(87.334 124.892)" fill="#263a84" />
          <ellipse cx="1.099" cy="1.04" rx="1.099" ry="1.04" transform="translate(120.824 107.716)" fill="#263a84" />
          <path d="M117.457 109.521c.037.035 5.564-5.933 5.564-5.933l-.419-.611-5.815 5.912z" fill="#263a84" />
          <path
            d="M121.896 113.708l3.357 3.109s1.527 5.311 2.612 4.463c1-1.151.115-5.368.115-5.368l1.39-3.18-3.117-4.436z"
            fill="#ffbdae" />
          <path
            d="M126.409 90.25l.073-.008a1.564 1.564 0 011.726 1.413l3.509 38.6h-1.967l-4.723-38.256a1.563 1.563 0 011.382-1.749z"
            fill="#162049" />
          <path
            d="M130.1 112.474s2.268 6.022 2.263 7.429c-.136.59-1.946-.175-1.963-.356-.3-.751-.3-7.073-.3-7.073zm-37.059 15.565l-6.647 2.294s-6.665 10.706-4.664 10.564 10.364-5.432 10.364-5.432 2.644 3.788 4.646 3.145-3.699-10.571-3.699-10.571z"
            fill="#ffbdae" />
          <path d="M86.394 130.334l-.283.46 7.311-2.074-.381-.681zm39.858-22.037l.323.46-3.723 5.869-.956-.917z"
            fill="#f79484" />
          <path
            d="M69.788 94.94L59.721 72.298l1.327-29.474s-.911.478-1.327 2.858-1.237 27.011-1.237 27.011l9.917 24.467zm10.445-18.862l1.074-31.149s.9-1.492 1.067 0-1.071 28.959-1.071 28.959-.478 1.006-1.07 2.19z"
            fill="#050505" opacity=".25" />
          <path
            d="M102.179 156.513c2.327 4.26 16.146 12.752 40.621-1.954 23.961-14.4 31.983-24.261 26.43-31.824-5.467-7.445-22.592 7.577-30.973 10.313a7.321 7.321 0 01-.777.2c-6.776 1.414-42.454 10.168-35.301 23.265z"
            fill="#f9d230" />
          <path d="M99.779 23.198a8.464 8.464 0 01-2.061-3.508 16.813 16.813 0 00.92 4.129z" fill="#f79484" />
          <path d="M132.363 119.903c-.013.774-1.413.62-1.963-.356-.3-.756-.3-7.074-.3-7.074" fill="#ffbdae" />
          <path d="M131.717 130.252h-2.137s-2.481 1.9-.589 5.477 2.924 5.131 2.24 6.94c.001 0 5.271-7.296.486-12.417z"
            fill="#ffe576" />
          <path d="M128.946 123.749h2.179l.591 6.5h-1.967z" fill="#2d3b68" />
        </g>
      </g>
    </g>
  </g>
</svg>