<svg xmlns="http://www.w3.org/2000/svg" viewBox="0 0 177 390">
  <defs>
    <linearGradient id="card-pay-illus-b" x1=".149" y1=".296" x2=".73" y2=".801" gradientUnits="objectBoundingBox">
      <stop offset="0" stop-color="#0ffff9"/>
      <stop offset="1" stop-color="#37eb77"/>
    </linearGradient>
    <clipPath id="card-pay-illus-a">
      <path d="M10,0H177a0,0,0,0,1,0,0V390a0,0,0,0,1,0,0H10A10,10,0,0,1,0,380V10A10,10,0,0,1,10,0Z" transform="translate(321 460)" fill="#dbdbdb"/>
    </clipPath>
  </defs>
  <g transform="translate(-321 -460)" clip-path="url(#card-pay-illus-a)">
    <rect width="177" height="390" transform="translate(321 460)" fill="url(#card-pay-illus-b)"/>
    <g opacity=".9">
      <g fill="#c3fc33">
        <path d="M458.1,2241.5a5.119,5.119,0,0,0-1.781,3.405c-.118.75-.8.853-1.318.985a2.2,2.2,0,0,0-1.218.5.854.854,0,0,1-.81.066,12.23,12.23,0,0,1-1.872-1.168,26.838,26.838,0,0,1-4.916-6.256,57.105,57.105,0,0,1-4-7.077c-.339-.777-.353-.771.5-1.375.694,1.319,1.34,2.658,2.089,3.938.594,1.014,1.312,1.956,2.035,3.017a.983.983,0,0,0-.1-1.082,40.648,40.648,0,0,1-3.888-6.637l.59-.386.339.293v-.866l1.586-.315c.473.221.7,1.058,1.476,1.162-.025.847.715,1.268,1.087,1.887a19.969,19.969,0,0,0,1.529,2c.5-.067.873-.136,1.251-.163,1.324-.094,1.292-.052,2.117.676.916.808,1.544,1.938,2.725,2.452a.323.323,0,0,1,.165.229c.037.85.514,1.159,1.312,1.366.67.173.86.88.892,1.575C457.917,2240.26,458.015,2240.789,458.1,2241.5Z" transform="translate(-6 22) translate(91.998 -1417.016) translate(-99.233 -75.276)"/>
        <path d="M263.271,2078.133c.948.474.948.474,1.458-.519.649-.222,1.432.225,2.019-.37a19.054,19.054,0,0,0,1.98.481c1.081.148,1.639.984,2.25,1.689.414.478.848.958,1.227,1.477.442.607.972,1.15,1.417,1.757.4.549.747,1.142,1.105,1.724a1.015,1.015,0,0,1,.212.528,1.258,1.258,0,0,0,.439,1.079c.617.623.57,1.537.783,2.313a6.887,6.887,0,0,1,.021,2.325c-.025.3-.064.927-.714.461-.046-.033-.273.21-.43.3s-.448.28-.505.229c-.687-.6-.855-.172-1.169.424-.462.877-.744.813-1.984.591-.755-.135-1.555-.159-2-.813-1.2-1.771-2.419-3.53-2.585-5.794a3.536,3.536,0,0,0-1.068-2.507c-.645-.562-1.073-1.366-1.953-1.679-.265-.095-.46-.411-.666-.644a2.587,2.587,0,0,1-.685-1.751C262.414,2078.708,262.988,2078.545,263.271,2078.133Z" transform="translate(-6 22) translate(91.998 -1417.016) translate(-22.596 -10.695)"/>
        <path d="M435.362,2171.292c-.774-.774-1.423-1.531-2.18-2.16-2.172-1.8-3.2-4.351-4.5-6.724a6.518,6.518,0,0,1-.391-3.415c0-.2.281-.394.442-.6l.73,1.444V2157.7a5.38,5.38,0,0,0,1.209-.627,1.162,1.162,0,0,1,1.157-.19,4.6,4.6,0,0,1,1.161.7,4.233,4.233,0,0,0,.748,3.035c.488-.132,1.066.215,1.555-.287a.629.629,0,0,1,.591-.026c1.2.722,2.671,1.1,3.277,2.586.109.266.23.612.449.73.33.179.033.738.6.759.467.018.169.493.252.752a7.055,7.055,0,0,1,.3.964,5.676,5.676,0,0,1,.011.933,9.524,9.524,0,0,0-2.563,3.8Z" transform="translate(-6 22) translate(91.998 -1417.016) translate(-93.376 -44.659)"/>
        <path d="M211.809,2053.76c.285-.388.507-.712.753-1.016a1.2,1.2,0,0,1,.357-.261c.367-.206.63.375,1.041.122a2.626,2.626,0,0,1,1.067-.412c.3-.029.757.339.921.221.366-.263.583-.343.9.013.058.066.275.016.41-.016,1-.241.995-.244,1.528.725l.25-.722a8.121,8.121,0,0,1,.378,1.051,7.818,7.818,0,0,1,.117,1.2,2.6,2.6,0,0,0,.231,1.224l.151-1.5.161-.007a7.834,7.834,0,0,1,.083.8c.009,1.352-.056,2.707.022,4.054a5.008,5.008,0,0,1-.807,3.246c-.252-.241-.49-.605-.777-.023-.313.636-.815.588-1.464.3-.108.691-.156,1.507-1.3,1.247v-1.733l-.23-.046-.55,1.789c-.512-.343-.931-.708-.848-1.428.023-.2-.213-.423-.289-.65-.33-.982-.324-.985-1.141-1.008-.155,0-.312,0-.468,0h-.428c-.4-.4-.752-.776-1.133-1.128a4.268,4.268,0,0,1-1.2-2.776c-.065-.512.046-1.046-.027-1.556a1.953,1.953,0,0,1,.465-1.372C210.492,2053.3,210.77,2053.278,211.809,2053.76Z" transform="translate(-6 22) translate(91.998 -1417.016) translate(-0.006)"/>
        <path d="M363.732,2070.516c-.667.453-1.308.906-1.977,1.315-.065.04-.3-.2-.549-.371a5.768,5.768,0,0,1-.421.734,9.079,9.079,0,0,1-.655.667c-.44.454-.864.958-1.515.27-.049-.052-.2,0-.3-.011-.731-.079-1.428.1-2.162-.485a16.989,16.989,0,0,1-1.9-1.382,7.915,7.915,0,0,1-1.425-1.75,5.333,5.333,0,0,1-.911-3.362,4.7,4.7,0,0,1,.459-1.019l.97.8c.255-.844.2-1.826.985-2.569l.973.727v-1.14a13,13,0,0,1,2.99-.467,2.271,2.271,0,0,1,1.474.581,8.716,8.716,0,0,1,1.46,1.378c.354.533.839.979,1.211,1.528a19.56,19.56,0,0,1,1.263,2.918A4.222,4.222,0,0,1,363.732,2070.516Z" transform="translate(-6 22) translate(91.998 -1417.016) translate(-60.774 -4.385)"/>
        <path d="M256.383,2128.156v3.354a7.825,7.825,0,0,0,.284-2.556c.01-.343-.152-.769.264-.974a4.7,4.7,0,0,1,1.346-.49c.159-.023.463.353.553.6a2.91,2.91,0,0,1,.022.928c.259-.108.413-.233.552-.218.285.032.677.3.823.189.813-.6,1.7-.205,2.543-.251a1.449,1.449,0,0,1,1.137.541c.448.759,1.349.991,1.823,1.885a2.178,2.178,0,0,0,.463,1.361,3.15,3.15,0,0,1,.8,2.466,9.678,9.678,0,0,0-.013,1.48c-1.065.632-2.174,1.247-3.237,1.932-1.112.718-2.124.235-3.07-.261-.691-.361-1.617-.532-1.851-1.5-1.544-.7-1.818-2.323-2.643-3.552a6.44,6.44,0,0,1-.695-2.662c-.13-.723.381-1.56.608-2.347Z" transform="translate(-6 22) translate(91.998 -1417.016) translate(-19.624 -32.142)"/>
        <path d="M308.229,2153.931l-2.141-2.141a12.621,12.621,0,0,1,.027-1.741c.03-.223.354-.449.594-.58.091-.051.326.162.5.255.227-.449.36-1.058,1.127-.91a.616.616,0,0,0,.442-.042,1.477,1.477,0,0,1,1.288-.489,6.154,6.154,0,0,1,2.536.991,11.292,11.292,0,0,1,3.307,4.224,17.225,17.225,0,0,1,.956,3.176,1.514,1.514,0,0,1-.583,1.5c-.888.622-1.742,1.293-2.65,1.885a1.891,1.891,0,0,1-1.1.309,4.688,4.688,0,0,1-4.561-3.831,3.188,3.188,0,0,1-.282-1.112A7.309,7.309,0,0,1,308.229,2153.931Z" transform="translate(-6 22) translate(91.998 -1417.016) translate(-41.225 -41.005)"/>
        <path d="M307.31,2250.372l-.185-.94c0,1.244-1.317,1.709-1.6,2.766a.62.62,0,0,1-.894.337c-.378-.342-.635-.093-.848.046a1.381,1.381,0,0,1-1.627,0c-1.668-.976-3.39-1.872-4.373-3.66-1.185-.641-1.532-1.944-2.269-2.934a7.69,7.69,0,0,1-.722-1.791c.436-.635,1.068-.467,1.834-.085a2.553,2.553,0,0,0-.205-.9c-.209-.281.014-.392.133-.441a4.623,4.623,0,0,0,1.539-.817c.108-.1.415-.062.605,0,.34.1.631.32,1.009.013.107-.087.455.086.674.182a9.649,9.649,0,0,1,4.7,3.7,4.545,4.545,0,0,0,.741.746c.725.674.861,1.655,1.422,2.381A1.224,1.224,0,0,1,307.31,2250.372Z" transform="translate(-6 22) translate(91.998 -1417.016) translate(-36.41 -80.973)"/>
        <path d="M474.542,2127.7l.128-.895c.114.082.214.115.241.179a18.9,18.9,0,0,1,1.135,2.967c.148.66.336,1.291-.3,1.8-.434.349.006,1.354-.97,1.3-.461.74-1.2.666-1.906.615a10.921,10.921,0,0,1-.467,1.408c-.234.485-.984.622-1.787.393-.183-.053-.36-.23-.529-.216-1.3.113-1.3.123-1.846-.9a15.488,15.488,0,0,1-.815-1.537,2.263,2.263,0,0,0-1.319-1.344,2.972,2.972,0,0,1-1.784-2.279,2.547,2.547,0,0,1,1.091-2.414l1.374,1.794c0-.755-.008-1.264,0-1.772s.065-.4.865-.762c.57-.257,1.4.055,1.726-.737l1.691-.065c1.041-.041,1.965.073,2.451,1.23A5.593,5.593,0,0,0,474.542,2127.7Z" transform="translate(-6 22) translate(91.998 -1417.016) translate(-108.761 -31.179)"/>
        <path d="M211.678,2133.227a2.151,2.151,0,0,1-1.779-1.91,13.242,13.242,0,0,1-.4-2.985,26.9,26.9,0,0,0-.005-4.055c-.049-.653.37-1.136.361-1.746,0-.159.218-.465.323-.459.8.046,1.187-.826,2.031-.83.559,0,1.114-.527,1.742-.855.618.618,1.932-.146,2.433,1.216-.328.958.489,1.8.766,2.779.038.136.182.259.183.389.013,1.544.008,3.088.008,4.766l-.627-.556c.084.363.068.64.192.735s.41-.011.6.051c.084.029.13.252.139.391,0,.064-.134.2-.184.194-.378-.074-.751-.177-1.16-.28l-.8,1.731-.935-.07c.446.449-.066.611-.252.887s-.326.594-.476.874c-.983-.107-1.35-.741-1.613-1.581Z" transform="translate(-6 22) translate(91.998 -1417.016) translate(0 -29.11)"/>
        <path d="M412.2,2264.024c-.809-.023-1.574-.241-1.965.655-.66-.87-.738-1.487-.065-2.178a9.862,9.862,0,0,1,1.361-1.485c.518-.361.708-1.159,1.154-1.667a6.9,6.9,0,0,1,1.3-.939l.519.508-.734.521.081.188,1.113-.175c.106.159.23.57.5.708a10.245,10.245,0,0,1,3.58,3.637,12.82,12.82,0,0,1,.683,1.587c.632,1.276.794,1.512.6,2.673a4.258,4.258,0,0,1-.951,2.415,1.781,1.781,0,0,0-.551,1c-.034.871-.513,1.01-1.216.966a1.878,1.878,0,0,0-.6.064c-1.228.33-1.355.3-1.967-.645a19.639,19.639,0,0,1-1.867-4.535C412.8,2266.23,412.512,2265.1,412.2,2264.024Z" transform="translate(-6 22) translate(91.998 -1417.016) translate(-85.458 -88.026)"/>
        <path d="M372.071,2229.163a10.677,10.677,0,0,1-2.455-1.638c-1.319-1.332-2.735-2.58-3.951-4a20.157,20.157,0,0,1-3.406-4.711c.081-.691.981.042,1-.772.005-.233.575-.458.892-.678.785-.548,1.224-.64,1.8-.031a3.435,3.435,0,0,0,1.956.973c1.141.242,1.929,1.118,2.905,1.657a13.64,13.64,0,0,1,2.638,2.312,14.792,14.792,0,0,1,1.364,1.2,4.157,4.157,0,0,1,.863,1.6,1.632,1.632,0,0,1-.445,1.183c-.328.382-.484.934-1.059,1.119-.332.107-.285.479-.35.784-.075.352-.173.779-.782.338C372.608,2228.186,372.25,2228.623,372.071,2229.163Z" transform="translate(-6 22) translate(91.998 -1417.016) translate(-65.209 -70.313)"/>
        <path d="M484.588,2212.978a6.8,6.8,0,0,1-3.308-3.423,28.484,28.484,0,0,1-1.776-3.626c-.5-1.246-1.361-2.427-.975-3.995,1.127.785,1.034,2.286,2.115,3.29-.2-1.588-1.022-2.814-1.432-4.487l1.027.563.15-.842,1.485-.282c.145.233.336.577.563.9.885,1.24.89,1.234,2.5,1.805a2.642,2.642,0,0,1,.511.272,7.855,7.855,0,0,1,3.063,3.04,5.329,5.329,0,0,1,.583,1.972.663.663,0,0,0,.194.381.378.378,0,0,1-.113.639c-.7.4-1.006,1.176-1.63,1.642a1.049,1.049,0,0,0-.362.791,1.523,1.523,0,0,1-1.352.933c-.252-.058-.416-.522-.76-.18A5.811,5.811,0,0,0,484.588,2212.978Z" transform="translate(-6 22) translate(91.998 -1417.016) translate(-114.797 -63.168)"/>
        <path d="M393.715,2152.92l-.954.157.384.718-2.312,2.312a2.34,2.34,0,0,0-.433,0c-1.753.325-2.921-.67-3.9-1.87a14.155,14.155,0,0,1-1.923-3.1,3.248,3.248,0,0,1-.375-2.306l1.48,3.251.253-.082a2.988,2.988,0,0,0-.121-.593c-.317-.753-.677-1.489-.976-2.249-.132-.336-.416-.755.307-.911.223-.048.354-.53.524-.814.149-.25.294-.5.412-.7.73-.067.737.573,1.193.835-.106-.4-.213-.8-.352-1.334l.859-.681c.2.2.458.509.7-.067.263-.623.651-.865,1.282-.456.057.037.176.065.214.034.73-.6,1.159,0,1.5.458a15.145,15.145,0,0,1,1.668,3.673c.113.295.361.986-.471,1.02-.046,0-.083.26-.124.4.173.042.439.176.5.109a.368.368,0,0,1,.671.25C393.448,2151.635,394.1,2152.272,393.715,2152.92Z" transform="translate(-6 22) translate(91.998 -1417.016) translate(-74.542 -39.538)"/>
        <path d="M390.326,2100.011l.646.646.139-1.2c.643-.135,1.307-.3,1.98-.4a4.21,4.21,0,0,1,1.242,0c.31.048.067.625.644.675.372.033.66.667.925,1.108.215.359-.107,1.134.711,1.087q.042.761.085,1.522c0,.05.014.1.021.147l2.323,2.323a4.894,4.894,0,0,1,.763.008c.388.062.806.447.607.685-.443.53.351.9.035,1.329a4.416,4.416,0,0,1-2.573.23l.73,1.58c-.157.151-.364.518-.568.516-1.288-.009-2.643.318-3.791-.6a5.5,5.5,0,0,1-.929-.746c-.552-.691-1.046-1.429-1.55-2.158-.248-.36-.46-.745-.7-1.111-.369-.569-.26-1.386-.937-1.793a3.314,3.314,0,0,0-.534-1.8A1.5,1.5,0,0,1,390.326,2100.011Z" transform="translate(-6 22) translate(91.998 -1417.016) translate(-76.814 -19.984)"/>
        <path d="M303.024,2060.3h1.441c.558,0,1.161-.092,1.289.713a.4.4,0,0,0,.322.212c.661-.1.832.526,1.236.8,1.1.745,1.258,1.972,1.532,3.107.156.647-.053,1.111-.789,1.552a6.211,6.211,0,0,0-2.428,1.7c-.5.01-.911.793-1.5.166a.605.605,0,0,0-.412-.118c-1.973.038-3.207-1.095-4.238-2.6a7.068,7.068,0,0,1-1.384-2.394,8.316,8.316,0,0,1-.162-1.178c-.009-.129.067-.354.158-.387.794-.283,1.371-.961,2.14-1.236A6.194,6.194,0,0,1,303.024,2060.3Z" transform="translate(-6 22) translate(91.998 -1417.016) translate(-37.752 -3.448)"/>
        <path d="M301.933,2191.769l.723,1.138c.073-.544.1-.73.123-.917.069-.62.068-.619.851-.7.1-.01.248,0,.284-.052a1.234,1.234,0,0,1,1.478-.551,5.123,5.123,0,0,1,1.819.851,14.385,14.385,0,0,1,3.961,6.141,4.005,4.005,0,0,1,.021,1.345l-.6-.066c.04.561-.087.975-.743,1.108a.77.77,0,0,0-.485.531c-.066.675-.759.346-1,.7-.387-.615-1.051.13-1.486-.309-.416-.421-.986-.746-1.261-1.239a17.354,17.354,0,0,1-1.541-3.406,2.026,2.026,0,0,0-.918-1.284,4.042,4.042,0,0,1-1.717-1.812C301.135,2192.574,301.122,2192.58,301.933,2191.769Z" transform="translate(-6 22) translate(91.998 -1417.016) translate(-39.167 -59.091)"/>
        <path d="M352.348,2157.492a2.154,2.154,0,0,1,.013-.565c.033-.13.256-.218.275-.343s-.138-.292-.14-.44c0-.131.183-.292.147-.389a1.176,1.176,0,0,0-.366-.467,1.508,1.508,0,0,0-.476-.14l.255.885c-.552-.336-1.165-.6-.9-1.416l.73.314c.09-.976-.815-.468-1.163-.93.51.06.85-.291,1.363-.223.238.031.548-.474.912-.818l1.737,1.417.167-1.022,2.3-.444c.4.511.712.976,1.092,1.376.33.347.784.578,1.1.932a8.764,8.764,0,0,1,1.674,3.517c.132.448.278,1.157-.577,1.276,0,.822-.863.945-1.254,1.466a1.847,1.847,0,0,1-2.292.388,8.5,8.5,0,0,1-3.216-2.725C353.286,2158.608,352.783,2158.1,352.348,2157.492Z" transform="translate(-6 22) translate(91.998 -1417.016) translate(-60.287 -42.993)"/>
        <path d="M397.454,2193.442l.774.264c.057-1.315-1.3-1.683-1.491-2.895a3.208,3.208,0,0,1,.661.3,10.812,10.812,0,0,1,.8.789,2,2,0,0,0-.56-1.261c.822-.994.822-.994,1.792-1a8.665,8.665,0,0,0,1.672,1.811c.755.461.978,1.248,1.534,1.813a7.786,7.786,0,0,1,1.237,1.967,2.237,2.237,0,0,1,.3,1.259c-.08.5-.295,1.241-.65,1.384-.585.236-.454.649-.638,1a1.737,1.737,0,0,1-1.23,1.062c-.369.061-.809.343-1.08.221a5.738,5.738,0,0,1-1.829-1.2,31.383,31.383,0,0,1-2.531-3.154c-.2-.274-.107-.755-.165-1.3l.588.474C396.523,2194.2,397.22,2193.922,397.454,2193.442Z" transform="translate(-6 22) translate(91.998 -1417.016) translate(-79.632 -58.673)"/>
        <path d="M376.057,2291.078l-.832-.458c-.351,1.27-.438,1.335-1.476.878.274.637.493,1.148.733,1.7l-.829.481-1.582-1.583c-.338.762.593,1.114.5,1.848-.835.117-1.319-.451-1.8-.973-.263-.286-.4-.684-.675-.959a34.534,34.534,0,0,1-3.3-3.935,2.69,2.69,0,0,0-.328-.332,3.115,3.115,0,0,1-1.292-2.088c.608-.372.93.2,1.343.557.42-.7-.551-.789-.508-1.3.037-.618,1.213.17.914-.84h1.693c.484.342.975.678,1.457,1.028a9.142,9.142,0,0,0,1.394,1.143c.574.278.955.936,1.46,1.381.33.291.539.689,1.066.82.381.094.584.673,1.163.6.161-.021.452.27.534.477A11.722,11.722,0,0,1,376.057,2291.078Z" transform="translate(-6 22) translate(91.998 -1417.016) translate(-66.454 -98.981)"/>
        <path d="M360.357,2110.793c.538.036.909-.243,1.4.112l-.629.217c.185.626.39,1.249.54,1.884.039.163-.046.484-.16.532-.627.265-.816.94-1.3,1.309a1.713,1.713,0,0,1-.823.249c-.141.016-.308-.2-.45-.183a1.6,1.6,0,0,0-.512.272c-.268-.948-.254-.986-1.311-1.346-.632-.215-.763-.837-1.211-1.228l-.306.652c-.158-.166-.423-.315-.422-.464.008-1.862.007-1.9-.844-3.02-.479.842.439,1.329.489,2.153-.228-.036-.567-.009-.607-.106-.4-.971-1.008-1.888-.383-3.053.194-.362.229-.552.663-.559a1.681,1.681,0,0,0,.8-.313c.619-.391,1.216-.818,1.878-1.269l.257.384c.522.364,1.067-.616,1.154.406.025.29.673-.4.673.358,0,.293.539.588.81.858l-.281.73.231.16.443-.843.654,1.11Z" transform="translate(-6 22) translate(91.998 -1417.016) translate(-61.494 -23.24)"/>
        <path d="M269.841,2189.106l-.961-1.213-.4.812a3.514,3.514,0,0,1-1.35-1.233c-.761-1.073-1.35-2.258-2.121-3.333a2.873,2.873,0,0,1-.315-2.351c.712-.144.867.692,1.46.9v-1.522l3.2-.451a8.386,8.386,0,0,1,2.211,3.11c.277.664.849,1.163,1.022,1.923.069.3-.316.7.157.928a3.743,3.743,0,0,1-.145.367c-.774-.279-1.034.843-1.779.663-.048-.012-.18.276-.254.433a4.99,4.99,0,0,1-.22.531A2.943,2.943,0,0,1,269.841,2189.106Z" transform="translate(-6 22) translate(91.998 -1417.016) translate(-23.518 -54.864)"/>
        <path d="M331.459,2228.329l.619,1.431.288-.761c.07.043.185.073.2.129a3.144,3.144,0,0,0,.782,1.4,3.737,3.737,0,0,1,.557.86,1.762,1.762,0,0,0,1.311,1.013l.251-.51.857.642c0,.195.021.279,0,.294-.283.184-.573.358-.837.52l.249,1.393-1.094-.532-.63,1.27-.757.086v.695a1.452,1.452,0,0,1-2.109-.112c-.742-.676-1.578-1.248-2.334-2.053l.962-.635a4.712,4.712,0,0,0-.926-1.744,10.692,10.692,0,0,1-1.01-1.885c.459-.564.82-.146,1.24.03.018-.157.091-.326.04-.439-.313-.705-.178-1.054.487-1.084C330.227,2228.306,330.853,2228.329,331.459,2228.329Z" transform="translate(-6 22) translate(91.998 -1417.016) translate(-50.516 -75.182)"/>
        <path d="M256.019,2237.354l.743,1.1c.07-.217.165-.356.143-.472-.107-.565-.245-1.123-.389-1.759h.908c.079.163.175.363.366.759V2235.7a1.773,1.773,0,0,0,.434-.16c.242-.181.626-.591.666-.558.4.327.888.129,1.274.277a1.448,1.448,0,0,1,1.112,1.337c0,.219-.293.462-.249.646.036.15.437.183.557.352a.618.618,0,0,1,0,.589c-.405.323-.316.741-.288,1.133a.788.788,0,0,1-.614.91c-.465.132-.573.429-.671.874a1.188,1.188,0,0,1-1.3,1.014,3.007,3.007,0,0,0-.757.049c-.621.135-1.4-.013-1.6-.47-.472-1.111-1.157-2.162-1.029-3.47C255.385,2237.718,255.692,2237.573,256.019,2237.354Z" transform="translate(-6 22) translate(91.998 -1417.016) translate(-19.562 -78.026)"/>
        <path d="M343.869,2188.669l1.293.379a1.183,1.183,0,0,0-.172-1.437c.547-.5.912.252,1.449.171l.155-.835c.421-.451.8.38,1.309-.011s.651.464,1.093.564a1.424,1.424,0,0,1,.657.532c.587.72.679,1.738,1.469,2.366.19.151.088.667.131,1.126-.876-.43-.93.961-1.774.631-.259.42-.015,1.182-.964,1.273l-.481-.82-.377.788c-.532.126-.775-.333-.95-.624a6.482,6.482,0,0,0-2.305-2.3A1.278,1.278,0,0,1,343.869,2188.669Z" transform="translate(-6 22) translate(91.998 -1417.016) translate(-57.286 -57.462)"/>
        <path d="M325.98,2113.861,324,2115.417h-1.312c-.511-.739-.677-1.712-1.431-2.322a4.225,4.225,0,0,0-1.409-2.385c-.2-.228-.154-.663-.238-1.088.226-.062.449-.059.566-.167,1.2-1.123,2.329-.492,3.286.274a10.3,10.3,0,0,1,2.083,2.4A5.234,5.234,0,0,1,325.98,2113.861Z" transform="translate(-6 22) translate(91.998 -1417.016) translate(-47.002 -24.184)"/>
      </g>
      <g fill="#c3fc33">
        <path d="M1897.91,2132.819a16.977,16.977,0,0,1-3.021,5.848,15.362,15.362,0,0,0-2.28,3.529c-.222.455-.63.592-.862,1a24.107,24.107,0,0,1-1.434,2.943c-1.564,2.078-3.107,4.165-4.74,6.194-1.077,1.339-2.085,2.746-3.2,4.054a19.046,19.046,0,0,1-7.7,5.233c-3.415,1.345-6.8,2.8-10.287,3.918a46.792,46.792,0,0,1-20.012,2.094c-4.139-.494-8.17-1.276-11.717-3.389A37.373,37.373,0,0,1,1819,2150.548a6.487,6.487,0,0,0-.432-.617,18.5,18.5,0,0,1-3.189-5.97,19.525,19.525,0,0,0-1.261-3.212c-1.486-3.095-1.2-6.212,0-9.317a24.893,24.893,0,0,1,5.479-8.13,17.908,17.908,0,0,0,4.876-11c.419-3.919-.269-7.714-.967-11.523-.428-2.338-.811-4.685-1.271-7.016-.742-3.758-2.471-7.108-4.246-10.465a54.7,54.7,0,0,1-5.146-13.829,21.115,21.115,0,0,1,.93-11.878,17.386,17.386,0,0,1,3.511-6.159,36.038,36.038,0,0,1,5.232-4.834,53.467,53.467,0,0,1,15.323-7.391c6.251-1.948,12.339-4.252,17.68-8.176a134.827,134.827,0,0,0,11.339-9.365,76.122,76.122,0,0,1,16.044-11.839c5.778-3.016,11.814-5.364,18.419-5.3,9.942.091,18.454,3.6,24.483,11.781,4.459,6.048,5.182,12.979,3.725,20.214-.263,1.306-.529,2.612-.835,3.909a26.054,26.054,0,0,1-4.13,9.205c-1.16,1.637-2.411,3.205-3.572,4.826a56.036,56.036,0,0,1-4.449,5.342,59.031,59.031,0,0,0-4.956,6.263c-.533.762-1.378,1.224-1.894,2.043a62.909,62.909,0,0,0-5.367,9.556,18.379,18.379,0,0,0-1.665,5.705c-.091,1.27-.013,2.537-.124,3.8a22.574,22.574,0,0,0,.461,5.6c.116.71-.745,1.284-.559,1.333,1,.267.3.831.318,1.24.012.242-.141.509-.087.731.931,3.777.529,7.636.608,11.451.074,3.542.384,7.151-.574,10.622-.35,1.267-.6,2.567-.973,3.832-.443,1.518-1.259,2.942-1.4,4.525-.192,2.231-1.319,4.1-2.131,6.095-.044.11-.209.171-.319.258.1-1.188,1.077-2.073,1.111-3.295a26.136,26.136,0,0,0-2.305,5.4Zm-28.846-103.991a17.223,17.223,0,0,0,3.386-3.036,20.885,20.885,0,0,0-3.365,3.058,6.354,6.354,0,0,0-2.246,1.8A6.965,6.965,0,0,0,1869.064,2028.827Zm12.767-16.45a3.385,3.385,0,0,0,.6-.189,59.457,59.457,0,0,1,14.384-5.537c.182-.043.433-.036.542-.317-.342.049-.663.087-.981.142a42.856,42.856,0,0,0-11.857,4.225,7.434,7.434,0,0,0-2.671,1.7c-1.126.079-1.814,1.029-2.788,1.42a.391.391,0,0,0-.094.643c.087.087.206.144.26.041C1879.794,2013.42,1881.169,2013.335,1881.83,2012.377Zm-30.3,150.862a21.016,21.016,0,0,0,2.145-.011c2.9-.3,5.76-.849,8.621-1.39,4.245-.8,8.16-2.607,12.177-4.088a10.368,10.368,0,0,0,4.882-3.259,67.336,67.336,0,0,0,9.862-17.739c1.893-5.153,4.356-10.093,6.38-15.2a43.141,43.141,0,0,0,2.779-11.387c.344-3.267.151-6.542.174-9.815.02-2.692-.028-5.381.141-8.081a41.122,41.122,0,0,0-.471-5.831,26.131,26.131,0,0,1,.807-10.146,42.245,42.245,0,0,1,3.885-8.756,96.34,96.34,0,0,1,11.7-15.383,70.765,70.765,0,0,0,6.5-8.086,29.975,29.975,0,0,0,5.066-17.581,13.063,13.063,0,0,0-6.592-11.474c-7.468-4.566-15.353-6.028-23.817-3.247a55.358,55.358,0,0,0-17.731,9.922c-3.33,2.711-6.371,5.746-9.691,8.465-4.524,3.7-9.119,7.3-14.446,9.816a88.315,88.315,0,0,1-12.814,4.609,48.194,48.194,0,0,0-10.621,4.536,24.9,24.9,0,0,0-9.4,9.052c-.269.467-.279.461-.891.474-.187,0-.2.158-.26.282a8.13,8.13,0,0,0-.951,3.583c-.01.862.323,2.1.027,2.511-.948,1.332-.234,2.622-.059,3.745a31.1,31.1,0,0,0,1.008,4.232,54.64,54.64,0,0,0,4.044,10.158c1.6,2.951,3.149,5.928,3.61,9.271.133.968,1.3,2.075.055,3.109,0,0,.087.1.124.154a6.632,6.632,0,0,1,1.046,3.353c.048,1.129.452,2.185.5,3.3.078,1.8.746,3.553.36,5.4a12.966,12.966,0,0,0-.136,2.605c0,1.937-.66,3.783-.762,5.725a9.72,9.72,0,0,1-1.024,2.485c-1.255,2.986-3.481,5.26-5.434,7.752-1.837,2.344-3.9,4.641-4.1,7.854-.078,1.3-.464,2.664.206,3.88,1.8,3.27,2.745,6.975,5.213,9.906,1.921,2.281,3.211,5.045,5.551,7.027a43.492,43.492,0,0,0,7.117,5.457,15.916,15.916,0,0,0,4.137,1.759A48.012,48.012,0,0,0,1851.534,2163.239Zm43.016-36.207c-1.066,3.642-3.182,6.731-4.247,10.266C1891.643,2136.352,1895.1,2128.218,1894.55,2127.031Zm-41.943-92.167a36.832,36.832,0,0,0,9.629-6.822c-3.037,2.282-6.071,4.566-9.313,6.556A2.637,2.637,0,0,0,1852.607,2034.864Zm-35.009,18.955c1.776-1.915,3.63-3.754,5.513-5.565A17.787,17.787,0,0,0,1817.6,2053.819Zm-3.156,80.886c.426-1.2.7-2.433,1.06-3.647A6.512,6.512,0,0,0,1814.442,2134.705Zm2.2-78.4c-.071-.266-.207-.409-.457-.361a.786.786,0,0,0-.7.794c-.014.244.13.291.333.255C1816.243,2056.917,1816.437,2056.591,1816.646,2056.3Z" transform="translate(-6 22) translate(-564.673 -2110.875) rotate(20) translate(0 0)"/>
        <path d="M1901.81,2136.8c-.043-.263,0-.5-.264-.629-.046.4-.373.792.163,1.146.311.206.019.541-.061.79-.718,2.241-1.416,4.492-2.109,6.738-.66,2.137-1.447,4.246-1.942,6.435a22.2,22.2,0,0,1-1.185,3.124,3.933,3.933,0,0,0-.342,1.448c0,1.052-.074,1.08-1.047.527a.9.9,0,0,0-.335-.027c0,.117-.036.233.006.3a2.892,2.892,0,0,1-.24,3.258,6.009,6.009,0,0,0-1.127,2.177,6.088,6.088,0,0,1-2.231,3.166c-.094.078-.307.042-.317.222-.058,1.068-.917,1.58-1.565,2.215-.619.607-1.381,1.05-1.963,1.717a12.844,12.844,0,0,1-3.477,2.846,18.032,18.032,0,0,1-1.97,1.291c-2.59,1.016-5.129,2.152-7.751,3.1-4.432,1.6-8.8,1.13-13.193.063a19.427,19.427,0,0,1-7.065-3.376,14.771,14.771,0,0,1-2.151-2.1,22.673,22.673,0,0,1-5.271-9.887,9.321,9.321,0,0,1,.984-6.881c.315-.567.557-1.309,1.621-1.181.463.056.923-.806,1.282-1.353a64.612,64.612,0,0,0,6.267-12.286,58.471,58.471,0,0,0,3.868-14,27.981,27.981,0,0,0-.912-10.347,20.988,20.988,0,0,0-3.748-7.247c-1.221-1.668-2.313-3.43-3.519-5.109-.427-.6.112-.975.238-1.741-.66.9-.768.717-1.049-.021a16.766,16.766,0,0,0-1.2-2.142,10.135,10.135,0,0,1-1.384-4.92c-.006-.652-.347-1.2-.26-1.814a16.458,16.458,0,0,1,.386-2.326c.388-1.324.633-2.721,1.928-3.62.358-.248.145-1.019.552-1.455a30.037,30.037,0,0,1,5.551-5.242,106.341,106.341,0,0,1,16.271-8.466,33.528,33.528,0,0,0,10.842-6.785c4.584-4.5,9.407-8.738,14.368-12.815a52.512,52.512,0,0,1,15.522-9.257,27.641,27.641,0,0,1,7.485-1.566c3.67-.253,6.419,1.417,8.551,4.192,4.095,5.329,5.057,11.325,3.481,17.774a48.311,48.311,0,0,1-4.82,12.39,16.635,16.635,0,0,1-3.721,5.067,12.357,12.357,0,0,0-1.873,2.683c-2.136,3.077-4.824,5.716-6.95,8.812-.947,1.379-1.747,2.833-2.64,4.236a72.853,72.853,0,0,0-4.742,9.739,34.95,34.95,0,0,0-2.213,9.184q-.748,5.061-1.6,10.109a30.9,30.9,0,0,1-1.254,5.767c-.48,1.264-.5,2.612-1.072,3.836C1902.278,2135.259,1902.632,2136.222,1901.81,2136.8Zm-45.77,6.5c.308-.116.383-.424.489-.669a54.3,54.3,0,0,0,2.775-7.107,15.7,15.7,0,0,0,1.065-4.361c-.7,2.734-1.913,5.284-2.776,7.956-.458,1.419-1.315,2.694-1.53,4.2-1.233,1.626-1.838,3.58-2.835,5.329A20.288,20.288,0,0,0,1856.04,2143.3Zm1.107-38.659c.019-.138-.012-.336.066-.4.143-.116.216.061.311.165.267.294.142.738.508,1.031a4.8,4.8,0,0,1,1.479,2.085c.287.734,1.072,1.268,1.606,1.915.119.144.269.388.115.593-.286.38-.056.5.259.593a1.111,1.111,0,0,1,.727.744,14.543,14.543,0,0,1,1.254,3.729,8.238,8.238,0,0,0,.554,2.541,10.435,10.435,0,0,1,.844,5.4c-.077,1.6-.385,3.243-.312,4.847.063,1.386-.634,2.516-.828,3.807-.235,1.563-1.318,2.927-1.532,4.552-.131,1-1.184,1.755-1.176,2.546.021,1.826-1.6,2.809-1.883,4.458a3.756,3.756,0,0,1-.762,1.806c-.936,1.023-1.209,2.439-2.179,3.458-1.221,1.284-1.855,3-3.157,4.276a25.435,25.435,0,0,0-2.077,2.634c-.62.8-.564,2.033-.769,3.087-.3,1.525.578,2.713.973,4.053a17.932,17.932,0,0,0,5.213,7.982c4.5,4.17,9.882,5.541,15.871,3.358.608-.221,1.215-.445,1.828-.651a29.106,29.106,0,0,0,9.587-5.652c3.776-3.2,5.563-7.674,7.655-11.905a40.65,40.65,0,0,0,1.569-4.937,34.831,34.831,0,0,0,1.046-3.4c.263-1.164.62-2.3.968-3.43s.837-2.227,1.113-3.374c.245-1.021.747-1.933.959-2.991.282-1.414.744-2.823,1.128-4.235a106.957,106.957,0,0,0,3.037-15.448c.345-2.9.6-5.822,1.2-8.669a58.61,58.61,0,0,1,12.015-24.646c2.609-3.267,5.377-6.407,8.109-9.575,3.911-4.534,6.034-9.932,7.633-15.595a16.2,16.2,0,0,0-.471-10.4c-.736-1.936-1.834-3.553-4.151-3.935a18.134,18.134,0,0,0-6.3.532,15.716,15.716,0,0,0-3.75,1.39,42,42,0,0,0-8.417,4.8c-.6.49-1.357.555-1.961,1.043-.773.625-1.313,1.469-2.157,2.03-.484.322-1.064.354-1.51.766-2.831,2.615-6.031,4.815-8.587,7.747-.887,1.018-1.982,1.853-2.949,2.8a35,35,0,0,1-12.608,8,73.308,73.308,0,0,0-16.365,8.523c-1.946,1.342-4.032,2.606-5.427,4.646-.809,1.183-1.85,2.389-1.976,3.744a14.446,14.446,0,0,0,.292,6.1c.165.482-.129,1.153-.027,1.318.395.632.633,1.347,1.061,1.954C1855.718,2101.758,1856.992,2102.879,1857.147,2104.641Zm40.131,35.934a38.244,38.244,0,0,0-2.475,7.028c-.675,2.446-1.586,4.808-2.377,7.209-.748,2.271-1.827,4.431-2.76,6.64C1893.66,2155.009,1895.15,2147.682,1897.278,2140.575Zm1.65-87.633a66.4,66.4,0,0,1,15.113-9.25C1910.436,2044.169,1900.435,2050.778,1898.928,2052.942Zm-41.682,28c-2.805,1.9-5.309,4.082-6.521,7.4A44.964,44.964,0,0,1,1857.246,2080.942Zm-9.053,74.155c-1.2,1.187-1.74,4.868-.955,5.626A21.764,21.764,0,0,1,1848.193,2155.1Zm46.9-98.773-.232-.248a56.973,56.973,0,0,0-6.022,5.7Zm-13.459,11.694a24.9,24.9,0,0,0,5.984-5.248C1885.635,2064.528,1883.681,2066.325,1881.638,2068.018Z" transform="translate(-6 22) translate(-564.673 -2110.875) rotate(20) translate(-20.341 -21.847)"/>
        <path d="M1924.95,2106.158a1.6,1.6,0,0,1,0,1.692c-.631,1.538-1.919,2.748-2.162,4.464a4.834,4.834,0,0,1-.854,1.591c-.742,1.312-.884,2.839-1.551,4.118-.633,1.212-.9,2.541-1.55,3.726-.342.629-.222,1.413-.668,2.023a19.347,19.347,0,0,0-1.132,3.464c-.217,1.24-.47,2.475-.72,3.71-.043.212-.138.43-.427.384s-.442.089-.327.353a3.063,3.063,0,0,1-.464,2.656c-1.107,2.26-2.068,4.584-3.04,6.9-.192.459-1.087.334-.768,1.248.161.462-.359,1.261-.718,1.858s-.586,1.233-.9,1.837c-2.335,4.452-4.482,8.993-6.516,13.593-1.128,2.551-2.474,5-3.662,7.53a14.454,14.454,0,0,0-.7,2.038,2.922,2.922,0,0,1-1.224,1.92.461.461,0,0,0-.277.283c-.937,2.949-3.453,4.492-5.7,6.219a28.168,28.168,0,0,1-5.389,2.823,12.519,12.519,0,0,1-3.479,1.556,33.009,33.009,0,0,1-3.962.451,5.863,5.863,0,0,1-3.565-1.022,1.127,1.127,0,0,1-.4-1.51,7.661,7.661,0,0,1,2.935-3.775,4.35,4.35,0,0,0,1.478-1.238c.257-.412.692.107,1.169-.363a22.342,22.342,0,0,0,3.822-5.708,98.222,98.222,0,0,0,5.519-13.116,32.2,32.2,0,0,0,1.374-5.977c.2-1.28.334-2.56.42-3.851.04-.6.28-1.09,1.016-.725.438.217.573-.1.778-.327a.32.32,0,0,0-.024-.479c-.256-.245-.479.01-.68.108-.822.4-1.091.162-1.049-.738a24.2,24.2,0,0,0-.465-7.393,16.17,16.17,0,0,0-1.357-3.479c-1.713-3.217-3.926-6.117-5.883-9.18-1.432-2.242-2.9-4.485-3.205-7.221-.07-.637-.576-1.413.305-1.93a.227.227,0,0,0,.088-.177c-.171-2.5-.093-2.566,1.608-4.321a12.459,12.459,0,0,1,3.823-2.562c5.048-2.321,9.3-5.7,13.466-9.312,5.069-4.4,9.687-9.31,14.954-13.46a58.853,58.853,0,0,1,19.374-9.814c3.7-1.136,6.437,1.623,5.631,5.461a37.65,37.65,0,0,1-4.188,10.829c-2.215,3.917-4.754,7.626-7.211,11.385a27.763,27.763,0,0,1-2.068,3.1C1926,2106.293,1925.681,2106.726,1924.95,2106.158Zm-38.506,60.45c.306-.022.394-.269.506-.49,1.421-2.789,2.474-5.739,3.764-8.584.619-1.365.408-3,1.448-4.218a.3.3,0,0,0-.127-.519c-.325-.14-.5.077-.536.343a14.732,14.732,0,0,1-.981,2.912,66.06,66.06,0,0,1-2.832,7.4,11.081,11.081,0,0,0-1.216,3.184,14.215,14.215,0,0,0-1.992,3.819C1885.091,2169.149,1886.268,2168.136,1886.444,2166.608Zm27.981-74.848c-1.271.569-1.9,1.8-2.811,2.735-1.2.7-1.86,1.95-2.926,2.791-1.838,1.45-3.724,2.853-5.444,4.436a48.55,48.55,0,0,1-11.842,8.058c-1.618.781-3.5.948-4.886,2.3-.845.827-1.873,1.5-1.949,2.792a10.133,10.133,0,0,0,1.112,5.5c1.709,3.189,4.012,5.978,6.025,8.961,2.092,3.1,3.961,6.257,4.437,10.118a60.365,60.365,0,0,1-.036,11.024c-.044.743-.547,1.452-.574,2.312a5.907,5.907,0,0,1-.813,3.522c-1.377,1.777-1.833,3.945-2.734,5.917-.3.647-.114,1.6-.682,2.095a5.791,5.791,0,0,0-1.324,2.361,2.938,2.938,0,0,1-.587.9,14.338,14.338,0,0,0-1.91,2.825,22,22,0,0,1-3.949,4.884c-.455.414-1.173.363-1.446,1.009a4.328,4.328,0,0,1-1.3,1.564,3.466,3.466,0,0,0-1.025,1.741,1.277,1.277,0,0,0,.908-.142c1.632-.6,3.029-1.653,4.605-2.37a17.827,17.827,0,0,0,6.947-5.523,34.506,34.506,0,0,0,3.31-5.928c1.96-4.039,3.953-8.064,5.791-12.158,1.03-2.293,2.1-4.563,3.241-6.8,1.894-3.715,3.581-7.524,5.226-11.349a52.163,52.163,0,0,0,3.12-9.495,55.164,55.164,0,0,1,2.769-8.282c2.02-5.168,4.074-10.315,7.4-14.834,2.991-4.061,6.022-8.094,8.725-12.36a33.1,33.1,0,0,0,4.629-10.183c.092-.4.387-.918.049-1.21-.286-.248-.753.078-1.115.221a82.45,82.45,0,0,0-10.971,5.33c-.638.369-1.2,1.2-2.18.8-.138-.058-.425.136-.342.3.3.585-.278.578-.5.723q-2.083,1.377-4.114,2.827C1916.2,2089.922,1915.466,2091,1914.425,2091.76Zm-20.54,79.408a34.955,34.955,0,0,0,2.3-3.678c1.4-3.058,3.026-6.015,4.359-9.111a146.762,146.762,0,0,1,6.527-13.568.656.656,0,0,0-.111-.95C1902.083,2152.792,1898.618,2162.286,1893.885,2171.168Zm20.255-84.173a68.33,68.33,0,0,1,8.83-5.674c3.147-1.649,6.332-3.217,9.56-4.679C1925.97,2079.321,1919.488,2082.144,1914.141,2086.995Zm-8.657,8.27-.2-.261-9,7.8.192.223Zm-19.07,13.6c-2.251.422-4.559,2.542-4.324,3.978A12.768,12.768,0,0,1,1886.413,2108.867Zm20.668,34.611.325.171c.347-.92,1.332-1.574.879-2.832Z" transform="translate(-6 22) translate(-564.673 -2110.875) rotate(20) translate(-37.567 -42.367)"/>
        <path d="M1970.582,2117.589a6.836,6.836,0,0,1-2.811,2.735C1968.683,2119.387,1969.311,2118.158,1970.582,2117.589Z" transform="translate(-6 22) translate(-564.673 -2110.875) rotate(20) translate(-93.724 -68.196)"/>
      </g>
      <g transform="translate(-6 22) matrix(0.966, 0.259, -0.259, 0.966, 283.42, 453.684)">
        <path d="M0,0S31.01,17.774,39.87,20.728s17.167,4.615,20.49,5.537,4.614,5.722-7.937,4.246S22.432,24.952,18,22.368,0,10.485,0,10.485Z" transform="translate(93.896 25.086)" fill="#ff869e"/>
        <path d="M0,59.936,33.971,0,74.716,58.874Z" transform="translate(117.884 29.282)" fill="#ff009d"/>
        <path d="M43.046,0a51.537,51.537,0,0,1,9.687,8.966l2.779,3.611s-5.839,33.115-9.094,43.639a176.045,176.045,0,0,1-9.823,23.608L0,58.232s19.866-31.512,28.543-42.7S43.046,0,43.046,0Z" transform="translate(40.888 9.393)" fill="#005fd0"/>
        <path d="M0,5.629s.84,8.454,1.076,11.524,2.126,2.362,9.211,2.6,25.038,0,25.038,0,1.653-2.993-3.071-4.449S18.5,12.429,16.637,7.232A38.928,38.928,0,0,1,14.54,0Z" transform="translate(126.03 165.196)" fill="#ff869e"/>
        <path d="M.727,2.074C-.728,5.166.45,10.9.45,10.9,2.5,17.2,6.592,41.767,13.9,51.586s27.122,17.2,33.059,20.229c5.136,2.616,23.593,9.644,26.105,8.959s2.968-1.827,2.968-1.827,3.882,0,2.512-1.826c-.528-.7-15.132-9.529-23.18-13.479C43.11,57.627,31.835,51.226,28.745,47.294,23.721,40.9,19.267,21,15.521,8.389,12.31-2.424,3.875.308,3.875.308Z" transform="translate(76.289 14.024)" fill="#ff869e"/>
        <path d="M24.143,73.03l-8.133.825L6.087,74.869l-4.692.476L0,58.156,14.652,56.7l9.966-.988L43.947,53.8,40.855,32.724,39.307,22.146,37.717,11.3,36.158.7l-.1-.7L41.32,2.33h.011l23.1,10.2-.306,10.8-.127,4.422L63.672,39.07l-.639,22.679-.211,7.345-6.536.665L36.036,71.82Z" transform="translate(11.859 92.797)" fill="#0b0151"/>
        <path d="M111.568,108.46H94.157s-.09-.608-.254-1.681c-.343-2.293-1.031-6.71-1.892-11.762-.888-5.189-1.955-11.043-3.028-15.968-.555-2.531-1.109-4.814-1.649-6.632-.655-2.235-1.284-3.767-1.833-4.19-1.448-.74-3.382-1.638-5.707-2.663-2.922-1.295-6.452-2.8-10.378-4.438-8.571-3.593-19.028-7.884-29.136-12.249-3.556-1.538-7.064-3.081-10.43-4.607C17.228,38.547,6.564,33.068,2.944,29.236c-4.274-4.522-3.286-10.816-.872-16.4A50.529,50.529,0,0,1,7.605,3.387C9.138,1.295,10.284,0,10.284,0S45.021,18.864,68.049,31.133c3.884,2.066,7.429,3.947,10.425,5.522,4.27,2.24,7.413,3.857,8.777,4.486,6.278,2.9,11.418,4.655,14.235,9.839a17.711,17.711,0,0,1,1.77,5.141c.285,1.453.677,3.694,1.141,6.452.819,4.888,1.854,11.4,2.885,17.965.618,3.968,1.236,7.958,1.8,11.63C110.485,101.289,111.568,108.46,111.568,108.46Z" transform="translate(31.878 65.61)" fill="#160078"/>
        <path d="M13.254,17.189v.005S6.575,28.74,5.608,31.974c-.19.629-3.852,1.511-5.057-1.8C-.6,27.023.308,10.188.916,1.089L11.859,0Z" transform="translate(0 150.952)" fill="#ff869e"/>
        <path d="M0,7.374s7.945-10.74,16.769-6.3c5.035,2.535,4.578,9.5,4.578,9.5L25,15.6h-4.8s-.685,2.055-1.37,3.882-2.891,7.535-4.985,4.11S0,7.374,0,7.374Z" transform="translate(83.935 2.019)" fill="#ff869e"/>
        <path d="M4.667,3.082A3.1,3.1,0,0,1,1.938,1.8C.963.334,1.044-.155.379.041c-1.348.4,1.267,3.606,2.144,3.9a13.321,13.321,0,0,0,1.668.434Z" transform="translate(98.495 17.348)" fill="#00040a"/>
        <circle cx=".805" cy=".805" transform="translate(101.067 12.713)" fill="#00040a" r=".805"/>
        <path d="M29.362,8.4s-6.1.219-9.218,2.583A60.609,60.609,0,0,1,8.522,18.072c-3.789,1.576-11.029.662-7.646-4.554s7.2-9.479,11.374-11.5c6.233-3.02,10.468-2.342,13.61,0A9.781,9.781,0,0,1,29.362,8.4Z" transform="translate(75.412 0)" fill="#160078"/>
        <path d="M0,0,8.99,3.871s2.985-2.142,5.186-1.935,2.508.742,3.761,1.224.386,2.025-.964,1.35-3.568-.964-4.242-.289l-.675.675-1.639,1.35,1.547.923h6.581s.683,1.136-.254,1.678a2.531,2.531,0,0,1-1.528.444s.374.69-.5,1.725a2.138,2.138,0,0,1-2.208.591s-.049,1.084-.986,1.232a4.851,4.851,0,0,1-1.972-.2Z" transform="translate(138.981 81.554)" fill="#ff869e"/>
      </g>
      <g>
        <path d="M.1,0C.316.546-.64,8.546.889,10.731S6.9,5.707,6.9,5.707Z" transform="translate(-6 22) translate(467.776 532.366) rotate(45) translate(75.88 6.013)" fill="#ffc9af"/>
        <path d="M8.064,11.721S2.165-.734.2.034C-1.055.526,3.914,13.577,6.1,13.9S8.064,11.721,8.064,11.721Z" transform="translate(-6 22) translate(467.776 532.366) rotate(45) translate(74.712 0)" fill="#ffc9af"/>
        <path d="M12.887,8.191C14.049,9.6,6.368.256,6.007,0,6.007,0,1.42,1.2,0,5.024l5.352,8.956s3.5-.764,4.915-1.966A13.44,13.44,0,0,0,12.887,8.191Z" transform="translate(-6 22) translate(467.776 532.366) rotate(45) translate(76.769 11.721)" fill="#e54c1d"/>
        <path d="M4.358,17.7S.59,9.888.044,6.939a3.866,3.866,0,0,1,.492-2.4S-.665,1.1.536.66,5.014,7.1,5.014,7.1,3.266.223,4.468,0,8.4,7.977,12.55,12.783c0,0-2.4,3.058-4.259,3.932A11.967,11.967,0,0,1,4.358,17.7Z" transform="translate(-6 22) translate(467.776 532.366) rotate(45) translate(0 58.352)" fill="#ffc9af"/>
        <path d="M2.816,9.982S2.051.371,1.723.044-.789,1.136.3,7.471,2.816,9.982,2.816,9.982Z" transform="translate(-6 22) translate(467.776 532.366) rotate(45) translate(9.734 61.153)" fill="#ffc9af"/>
        <path d="M0,4.915S2.949.219,8.191,0l6.662,7.864S7.318,13.98,6.771,13.325,0,4.915,0,4.915Z" transform="translate(-6 22) translate(467.776 532.366) rotate(45) translate(4.358 71.135)" fill="#e54c1d"/>
        <path d="M16.41,7.044C14.928,5.2,14.785,0,14.785,0s.35,3.425-5.1,6.88C2.969,11.14,0,9.829,0,9.829s2.478.84,5.263,6.471c0,0,6.7-1.229,9.728-4.833S17.406,8.284,16.41,7.044Z" transform="translate(-6 22) translate(467.776 532.366) rotate(45) translate(66.803 69.006)" fill="#e54c1d"/>
        <path d="M16.7.471C17.061.808,67,37.5,67,37.5L107.954,6.041S106.971,22.1,123.19,31.27c-1.475-.163-36.534,26.376-48,27.687S58.97,61.578,27.023,38.97.32,7.024.32,7.024,13.918-2.15,16.7.471Z" transform="translate(-6 22) translate(467.776 532.366) rotate(45) translate(104.737 108.671)" fill="#da2032"/>
        <path d="M1.119.125C-1.447,4.283.959,5.085,2.779,8.987A156.194,156.194,0,0,0,15.7,19.073c7.687,5.44,13.8,9.492,18.806,12.495C18.266,7.551,1.919-1.173,1.119.125Z" transform="translate(-6 22) translate(467.776 532.366) rotate(45) translate(116.062 128.568)" fill="#1a1a1a"/>
        <path d="M.784,17.246s34.9,54.772,51.278,62.636S124.636,92.66,124.636,92.66s-6.225-22.936,1.966-33.912c-1.8-.328-59.3,3.276-59.8,3.113s-34.239-44.4-39.481-50.295S15.692-.884,12.252.1-3.148,7.525.784,17.246Z" transform="translate(-6 22) translate(467.776 532.366) rotate(45) translate(92.805 115.597)" fill="#da2032"/>
        <path d="M111.581,89.288l-4.587-5.406s2.457-4.1-.328-6.553-6.88-3.44-10.649-8.519c0,0,5.079-10.976,3.277-21.789S96.4,40.085,95.417,33.532s-2.4-12.45-5.57-15.727S82.2,8.849,82.529,6.119,81.218-.107,79.143,0,68.768,6.119,71.171,9.176s5.351,3.932,5.024,10.376,4.15,14.744,3.6,20.424-4.642,10.157-4.041,15.509c.089.789-3.167-.218-3.167-.218,2.13,5.352-10.485,10.1-10.485,10.1s-2.512,4.314-1.42,7.263c0,0-.218,1.2-3.931.983s-10.922-2.84-18.239,0a30.042,30.042,0,0,0-18.458-7.973s-7.605-8.578-12.178-8.191c-5.488.464-9.125,4.6-7.481,8.956C1.49,69.3,4.712,69.956,8.207,72.9S14.05,81.26,20.712,84.318s14.854,3.5,19.113,6.225,15.837,8.519,28.724.764c0,0,2.84,2.621,3.058,8.3s4.7,8.519,7.645,8.41l4.478,5.461S95.308,97.643,111.581,89.288Z" transform="translate(-6 22) translate(467.776 532.366) rotate(45) translate(9.859 19.364)" fill="#f6c32c"/>
        <path d="M.121,9.973C-.157,9.58.1,8.724.31,8.279c.614-1.249,1.515-2.352,4.239-4.3C7.363,2.1,10.7-.147,14.7.008a.62.62,0,0,1,.587.663c-.087,1.3-.844,4.433-5.743,7.322C4.918,10.721.719,10.818.121,9.973Z" transform="translate(-6 22) translate(467.776 532.366) rotate(45) translate(66.35 68.63)" fill="#1a1a1a"/>
        <path d="M13.351,5.407,7.945,0,0,4.833l3.809,6.676S10.526,10.485,13.351,5.407Z" transform="translate(-6 22) translate(467.776 532.366) rotate(45) translate(66.312 66.547)" fill="#ffc9af"/>
        <path d="M9.752,15.976S.25,18.024,0,7.13,10.9,1.068,10.9,1.068s10.813,4.971,6.717,10.485C15.486,14.42,9.752,15.976,9.752,15.976Z" transform="translate(-6 22) translate(467.776 532.366) rotate(45) translate(57.953 56.633)" fill="#ffc9af"/>
        <path d="M9.7,15.047a2.2,2.2,0,0,1-2.232.942c-1.16-.344-1.9-1.434-1.474-3.6,0,0-5.652,2.949-5.98-2.867S5.91-.721,12.135.1s10.84,4.915,11.386,10.485c.451,4.6-1.747,8.082-6.8,9.092a4.054,4.054,0,0,1-3.37-.538,2.522,2.522,0,0,1-.969-2.151c.041-.813-.07-2.083-1.067-2.573C10.374,13.982,9.984,14.609,9.7,15.047Z" transform="translate(-6 22) translate(467.776 532.366) rotate(45) translate(54.34 50.723)" fill="#55353a"/>
        <path d="M16.058,11.483c-1.779,4.2-7.625,8.032-11.824,6.253S-.93,9.238.85,5.039a8.259,8.259,0,0,1,15.209,6.444Z" transform="translate(-6 22) translate(467.776 532.366) rotate(45) translate(62.667 41.169)" fill="#55353a"/>
        <path d="M.007,0S-.4,9.5,5.249,16.628s9.993,8.6,9.993,8.6.9-4.669-6.39-15.4C4.076,2.8.007,0,.007,0Z" transform="translate(-6 22) translate(467.776 532.366) rotate(45) translate(212.684 114.712)" fill="#1a1a1a"/>
        <path d="M.017,6.8,11.485,0s9.257-.246,12.042,3.768,1.883,9.174,1.638,9.256-15.072,9.01-15.072,9.01-4.165-1.6-7.29-7.209C-.392,9.1.017,6.8.017,6.8Z" transform="translate(-6 22) translate(467.776 532.366) rotate(45) translate(214.803 112.907)" fill="#ffc9af"/>
        <path d="M0,7.618,5.325,0,32.766,21.625,13.68,20.642a21.013,21.013,0,0,0-4.914-8.437C5.953,9.214,0,7.618,0,7.618Z" transform="translate(-6 22) translate(467.776 532.366) rotate(45) translate(226.288 105.292)" fill="#1a1a1a"/>
        <path d="M0,2.212,1.72,0,29.243,22.035l-1.8,1.8Z" transform="translate(-6 22) translate(467.776 532.366) rotate(45) translate(231.612 103.081)" fill="gray"/>
        <path d="M4.544,0S.407,5,.039,16.547c-.41,12.86,2.539,17.365,2.539,17.365s2.44-2.055,3.031-17.119C6.1,4.259,4.544,0,4.544,0Z" transform="translate(-6 22) translate(467.776 532.366) rotate(45) translate(214.863 174.345)" fill="#1a1a1a"/>
        <path d="M1.728,0,15.161,1.146S27.2,2.7,30.4,9.42s1.392,9.5,1.392,9.5L1.4,18.348S-.12,16.965.008,8.273C.09,2.7,1.728,0,1.728,0Z" transform="translate(-6 22) translate(467.776 532.366) rotate(45) translate(216.369 181.964)" fill="#ffc9af"/>
        <path d="M0,6.307,10.731,0,34.567,24.82l-18.758-.9s1.72-6.225-4.587-11.222S0,6.307,0,6.307Z" transform="translate(-6 22) translate(467.776 532.366) rotate(45) translate(230.384 176.802)" fill="#1a1a1a"/>
        <path d="M0,1.556,2.785,0,25.639,24.738l-1.8,1.638Z" transform="translate(-6 22) translate(467.776 532.366) rotate(45) translate(241.114 175.247)" fill="gray"/>
        <path d="M29.543,2.212l.064-.013L27.741,0S13.761,5.789,0,24.137C0,24.137,19.222,4.178,29.543,2.212Z" transform="translate(-6 22) translate(467.776 532.366) rotate(45) translate(89.111 103.245)" fill="#1a1a1a"/>
        <path d="M2.211,7.973,0,5.352A13.251,13.251,0,0,0,4.778,0,34,34,0,0,1,2.211,7.973Z" transform="translate(-6 22) translate(467.776 532.366) rotate(45) translate(103.664 80.199)" fill="#1a1a1a"/>
        <path d="M0,7.645c.1.029.254.072.457.126A25.6,25.6,0,0,0,15.4,3.931,28.908,28.908,0,0,1,13.325,0,19.714,19.714,0,0,1,0,7.645Z" transform="translate(-6 22) translate(467.776 532.366) rotate(45) translate(63.008 106.739)" fill="#1a1a1a"/>
        <path d="M1.61,0S5.235,14.9,0,22.953" transform="translate(-6 22) translate(467.776 532.366) rotate(45) translate(89.171 85.809)" fill="none" stroke="#e54c1d" stroke-linecap="round" stroke-linejoin="round" stroke-width="2.276"/>
        <path d="M0,4.883S3.674.755,11.073,0" transform="translate(-6 22) translate(467.776 532.366) rotate(45) translate(96.822 95.825)" fill="none" stroke="#e54c1d" stroke-linecap="round" stroke-linejoin="round" stroke-width="2.276"/>
      </g>
    </g>
  </g>
  <text transform="matrix(0.819, 0.574, -0.574, 0.819, 74.662, 125.334)" fill="#00ebe5" font-size="31" font-family="OpenSans-Bold, Open Sans" font-weight="700" letter-spacing=".01em">
    <tspan x="0" y="0">ยง</tspan>
  </text>
</svg>