<svg height="15.11" viewBox="0 0 14.108 15.11" width="14.108" xmlns="http://www.w3.org/2000/svg"><g fill="#00ebe5"><path d="m72.869 329.746 3.081-1.552-7.051-3.55-3.062 1.541z" transform="translate(-65.815 -314.636)"/><path d="m76.781 301.349 3.07-1.546-11.022-5.551-3.07 1.546z" transform="translate(-65.746 -288.243)"/><path d="m129.774 297.346 3.073-1.548-3.07-1.546-3.077 1.548z" transform="translate(-118.751 -288.243)"/></g><g fill="#37eb77"><path d="m68.736 263.823-3.072 1.547 7.054 3.552 3.073-1.548z" transform="translate(-65.664 -261.818)"/><path d="m129.777 266.922 3.083-1.552-3.072-1.547-3.083 1.552z" transform="translate(-118.752 -261.818)"/><path d="m99.227 248.583-3.083 1.553 3.083 1.552 3.083-1.552z" transform="translate(-92.173 -248.583)"/></g></svg>