<svg id="Issued_by_Logo" data-name="Issued by Logo" xmlns="http://www.w3.org/2000/svg" width="40" height="40" viewBox="0 0 40 40">
  <rect id="Rectangle_3253" data-name="Rectangle 3253" width="40" height="40" rx="9" fill="#281e78"/>
  <g id="Button_Cardstack" transform="translate(8.5 7.654)">
    <g id="Default">
      <g id="Cardstack_Logo" data-name="Cardstack Logo">
        <path id="Path_8305" data-name="Path 8305" d="M77.169,332.785l4.966-2.476-11.363-5.665-4.935,2.46Z" transform="translate(-65.801 -308.675)" fill="#00ebe5"/>
        <path id="Path_8306" data-name="Path 8306" d="M83.521,305.576l4.948-2.467-17.763-8.857-4.948,2.466Z" transform="translate(-65.739 -284.664)" fill="#00ebe5"/>
        <path id="Path_8307" data-name="Path 8307" d="M131.652,299.189l4.952-2.47-4.948-2.466-4.952,2.469Z" transform="translate(-113.888 -284.664)" fill="#00ebe5"/>
        <path id="Path_8308" data-name="Path 8308" d="M70.615,263.823l-4.951,2.468,11.367,5.668,4.952-2.47Z" transform="translate(-65.664 -260.624)" fill="#37eb77"/>
        <path id="Path_8309" data-name="Path 8309" d="M131.656,268.767l4.968-2.476-4.951-2.468L126.7,266.3Z" transform="translate(-113.888 -260.624)" fill="#37eb77"/>
        <path id="Path_8310" data-name="Path 8310" d="M101.112,248.583l-4.968,2.477,4.968,2.476,4.968-2.476Z" transform="translate(-89.745 -248.583)" fill="#37eb77"/>
      </g>
    </g>
  </g>
</svg>
