<svg id="Card_Wallet_app_icon_FINAL" data-name="Card Wallet app icon FINAL" xmlns="http://www.w3.org/2000/svg" viewBox="0 0 18.938 18.938">
  <path id="Path_1" data-name="Path 1" d="M4.208,0H14.729a4.208,4.208,0,0,1,4.208,4.208V14.729a4.208,4.208,0,0,1-4.208,4.208H4.208A4.208,4.208,0,0,1,0,14.729V4.208A4.208,4.208,0,0,1,4.208,0Z" fill="#37eb77"/>
  <path id="Path_24" data-name="Path 24" d="M-1309.984-2512.584l2.254-1.123,5.189,2.587-2.268,1.131Zm-.008-2.911,2.26-1.126,8.112,4.045-2.26,1.126Zm5.844,0,2.261-1.128,2.26,1.126-2.261,1.128Zm-5.853-2.918,2.261-1.127,5.191,2.588-2.261,1.128Zm5.853,0,2.269-1.131,2.261,1.127-2.268,1.131Zm-2.93-1.46,2.269-1.131,2.269,1.131-2.268,1.131Z" transform="translate(1314.278 2524.964)" stroke="rgba(0,0,0,0)" stroke-width="1"/>
</svg>
