<svg height="32" viewBox="0 0 34 32" width="34" xmlns="http://www.w3.org/2000/svg"><path d="m17.104 1.437c-1.541-.125-15.02 7.619-15.229 8.438s5.859 2.506 5.813 3.375c-.047.869-5.926 1.793-6 2.562-.075.77 6.143 2.676 6.134 3.432-.01.756-6.105 1.95-6.259 2.818-.155.869 13.861 8.188 15.461 8.188 1.601 0 15.02-7.001 14.976-8s-6.124-2.2-6.093-3.006 6.2-2.365 6.093-3.119-5.698-2.988-5.693-3.681c.005-.694 5.65-2.443 5.693-3.069s-13.354-7.813-14.896-7.938z" fill="#ffffff"/><g fill="#00ebe5"><path d="m17 27.563 4.763-2.374-10.9-5.432-4.732 2.354z"/><path d="m23.157 24.494 4.746-2.366-17.046-8.495-4.746 2.366z"/><path d="m23.134 18.368 4.749-2.369-4.746-2.366-4.749 2.369z"/></g><path d="m10.845 7.506-4.749 2.367 10.9 5.436 4.749-2.368z" fill="#37eb77"/><path d="m23.138 12.248 4.765-2.375-4.749-2.367-4.77 2.378z" fill="#37eb77"/><path d="m16.999 4.438-4.765 2.375 4.765 2.375 4.765-2.375z" fill="#37eb77"/></svg>