<svg height="20" viewBox="0 0 20 20" width="20" xmlns="http://www.w3.org/2000/svg"><path d="m10 0a10 10 0 1 1 -10 10 10 10 0 0 1 10-10z" fill="#6638ff"/><path d="m.935-6.817a2.1 2.1 0 0 1 .257-1.03 2.085 2.085 0 0 1 .691-.753 1.868 1.868 0 0 1 -.948-1.66 1.749 1.749 0 0 1 .795-1.5 3.545 3.545 0 0 1 2.092-.563 6.5 6.5 0 0 1 2.588.6l-.585 1.354q-.485-.228-.987-.41a3.088 3.088 0 0 0 -1.059-.182 1.648 1.648 0 0 0 -.841.164.554.554 0 0 0 -.264.506.758.758 0 0 0 .353.613 5.346 5.346 0 0 0 1.166.585 4.531 4.531 0 0 1 1.707 1.061 1.989 1.989 0 0 1 .549 1.379 2.066 2.066 0 0 1 -.887 1.853 2.055 2.055 0 0 1 .667.659 1.722 1.722 0 0 1 .225.9 1.975 1.975 0 0 1 -.854 1.682 3.786 3.786 0 0 1 -2.285.624 5.158 5.158 0 0 1 -2.487-.565v-1.474a7.323 7.323 0 0 0 1.283.5 4.476 4.476 0 0 0 1.2.2q1.389-.002 1.389-.836a.716.716 0 0 0 -.132-.449 1.515 1.515 0 0 0 -.453-.353 9.128 9.128 0 0 0 -.891-.424 4.849 4.849 0 0 1 -1.8-1.087 2.035 2.035 0 0 1 -.489-1.394zm1.59-.157a1.073 1.073 0 0 0 .463.848 5.082 5.082 0 0 0 1.29.7 1.238 1.238 0 0 0 .556-1.041 1.077 1.077 0 0 0 -.36-.82 4.092 4.092 0 0 0 -1.308-.684.957.957 0 0 0 -.453.381 1.084 1.084 0 0 0 -.188.616z" fill="#fff" transform="translate(6.314 16.587)"/></svg>