<svg xmlns="http://www.w3.org/2000/svg" viewBox="0 0 177 300">
  <defs>
    <linearGradient id="card-catalog-illus-b" x1=".168" x2="1.072" y2="1.05" gradientUnits="objectBoundingBox">
      <stop offset="0" stop-color="#0069f9"/>
      <stop offset="1" stop-color="#ac00ff"/>
    </linearGradient>
    <clipPath id="card-catalog-illus-a">
      <path d="M10 0h167v300H10a10 10 0 01-10-10V10A10 10 0 0110 0z" transform="translate(321 460)" fill="#dbdbdb"/>
    </clipPath>
  </defs>
  <g transform="translate(-321 -460)" clip-path="url(#card-catalog-illus-a)">
    <path transform="translate(321 460)" fill="url(#card-catalog-illus-b)" d="M0 0h177v300H0z"/>
    <g opacity=".9">
      <g fill="#c3fc33">
        <path d="M479.28 461.622c-.635 1.072-1.783 1.545-2.72 2.24a76.244 76.244 0 00-8.556 7.271 4.678 4.678 0 01-2.903 1.696c-.307.027-1.153.117-.26.715.376.251.051.423-.099.595a54.949 54.949 0 01-4.305 4.77 17.431 17.431 0 00-1.412 1.955c-1.59 1.779-2.575 3.954-3.925 5.89a30.323 30.323 0 00-1.985 3.896c-.378-.216.088-.631-.228-.752a.483.483 0 00-.625.308c-.107.83-.923 1.562-.328 2.494a.613.613 0 01-.318.932c-.52.104-.927.058-.367.678.048.054.041.159.06.24-1.673.3-.5 1.603-.838 2.369-.889 2.008-1.334 4.167-2.2 6.205a17.539 17.539 0 00-1.08 4.932 13.01 13.01 0 01-.804 3.626 5.145 5.145 0 00-.524 1.949c0 .918-.684 1.063-1.302 1.337-.765.34-.679-.361-.885-.702-.374-.615-1.098-.362-1.603-.507-2.164-.617-2.534-2.415-2.867-4.115a26.852 26.852 0 01.13-8.279 58.019 58.019 0 018.627-24.251 79.316 79.316 0 0116.078-18.27c2.61-2.223 5.453-4.142 8.2-6.184 2.244-1.666 4.489-3.305 6.86-4.775 3.863-2.395 7.789-4.674 11.858-6.709a122.15 122.15 0 0120.898-8.603 43.157 43.157 0 0111.748-1.65 5.976 5.976 0 012.018.29c.475.17 1.112.24 1.17.835a1.255 1.255 0 01-1.005 1.344c1.315.121 2.536.193 1.849 1.9-.102.256.095.334.24.495.754.836.625 1.56-.35 2.21.267.153.781-.181.821.352.027.366-.361.448-.637.523-3.013.758-5.972 1.719-8.936 2.658a150.661 150.661 0 00-15.668 5.89c-4.702 2.085-9.287 4.384-13.8 6.834a43.284 43.284 0 00-5.09 3.336 156.843 156.843 0 0143.52-18.103c-.287.664-.936.654-1.444.81-12.466 3.82-24.621 8.38-36.053 14.74-3.379 1.88-6.594 4.005-9.837 6.096a3.954 3.954 0 01-1.149.54c-.588-.691.355-.712.501-.823 1.277-.982 2.634-1.86 4.187-2.917-1.719.339-9.84 6.189-10.261 7.348a13.563 13.563 0 012.844-2.27c.848-.582 1.543-1.525 2.756-1.389zm28.408-24.665a71.142 71.142 0 0110.794-2.642c1.39-.193 2.789-.333 4.18-.517.315-.041.825.008.82-.406-.005-.498-.513-.262-.814-.305a1.09 1.09 0 00-.254.017 50.677 50.677 0 00-14.726 3.853zm18.2 1.42c-2.584.088-15.108 3.996-17.498 5.416 5.9-1.77 11.559-4.045 17.499-5.415zm-4.185-1.88a44.468 44.468 0 00-9.598 2.528z"/>
        <path d="M519.42 460.276c.685.13 1.256.222 1.817.35.359.081.8.09.865.603.057.456-.33.54-.61.715a.579.579 0 00-.325.508c1.353-.043 1.433.114 1.231 1.457-.048.33-.662.874.216 1.265.417.188-.18.48-.443.58a17.231 17.231 0 01-4.96.999c-2.341.215-4.654.62-6.959 1.025a53.814 53.814 0 00-14.899 5.402 38.679 38.679 0 00-8.091 5.447c3.764-2.17 7.229-4.884 11.615-6.408a1.979 1.979 0 01-1.371 1.107 56.997 56.997 0 00-12.354 7.876c-.165.137-.309.52-.586.205-.719-.818-1.22.067-1.528.349-.451.415-1.352.867-.573 1.91-1.886-.727-1.93 1.309-3.135 1.591.524.579.833-.184 1.341.075-.722.806-1.472 1.557-2.116 2.392-.407.526-.56-.702-1.07-.007-.701.954-1.769 1.635-2.488 2.58-.334.44-.807.179-1.12.626.953.3.93.645.194 1.286a9.382 9.382 0 00-2.61 3.71c-.382.992-1.215 1.762-1.551 2.794-.097.303-.396.234-.652.258-1.105.098-1.423.58-1.117 1.652a3.1 3.1 0 01-.203 2.934.949.949 0 01-.63.448c-.776.205-.944 1.49-.42 2.15a3.206 3.206 0 01.361 2.9c-.44 1.356.219 2.411.398 3.581a.917.917 0 01-.521 1.107c-.907.566-1.073-.437-1.458-.756-.332-.275-.336-.837-.998-.44-.325.193-.623-.134-.825-.435-.524-.783-1.427-1.452-.775-2.601.01-.018.323-.756-.44-.579-.246.057-.586-.457-.606-.854-.104-1.859-.798-3.646-.588-5.544.049-.437-.15-.89.565-.786.163.023.411.062.4-.159-.01-.183-.214-.52-.303-.511-.927.1-.764-.593-.548-.939.604-.96.189-2.079.592-3.03.644-1.507.894-3.16 2.172-4.438.461-.465.424-1.61.795-2.43a46.928 46.928 0 013.842-6.204 54.513 54.513 0 013.526-4.489 58.853 58.853 0 019.507-9.061 66.268 66.268 0 0114.03-8.188 50.755 50.755 0 0116.905-4.526 16.337 16.337 0 016.823.646c.413.149 1.075.114 1.074.717-.001.527-.546.688-1.008.822-.1.026-.178.14-.388.318zm-28.262 7.29a37.515 37.515 0 013.536-1.523c1.387-.445 2.648-1.17 4.093-1.558 1.101-.297 2.335-.871 3.496-1.293a64.717 64.717 0 0112.374-2.637 10.3 10.3 0 012.148-.039c.225.014.445.276.673.026a.4.4 0 00.06-.335c-.137-.355-.47-.319-.76-.307a14.465 14.465 0 01-3.751.106c-1.888-.45-3.439.552-5.159.73-1.233.124-2.397.947-3.552.825-1.741-.18-3.012.715-4.483 1.198-1.409.463-2.522 1.623-3.836 1.954a9.3 9.3 0 00-4.84 2.852zm21.206-1.358c-7.505.896-14.237 3.838-20.595 7.774a72.624 72.624 0 0120.596-7.771zm-17.849 3.007c3.509-1.429 6.948-3.015 10.559-4.176a29.42 29.42 0 00-10.56 4.175zm-8.164.76c1.352.28 1.962-1.14 3.144-1.164.194-.004.325-.294.228-.51-.11-.253-.43-.445-.61-.258-.776.823-2.087.869-2.763 1.931zM521.424 475.171a1.289 1.289 0 01-.628.708c-.29.193-.907.184-.73.701.183.537.645.14.988.083.126-.021.244-.093.37-.103.554-.047.862.104.502.705-.075.13-.32.372-.142.361 1.582-.093.53 1.017.735 1.535.423 1.08-.674 1.212-1.126 1.733-1.26 1.451-3.134 2.224-4.22 3.905-.425.658-1.181.482-1.775-.012-.315 1.709-1.87 2.26-3.025 3.139-2.32 1.768-5.109 3.086-6.994 5.216-1.91 2.163-4.361 3.404-6.456 5.194l-2.426.948a10.835 10.835 0 00-.919.676 20.126 20.126 0 01-4.978 3.558c-.392.181-.8.747-.891-.366-.036-.433-1.235-.814-1.944-1.127-.335-.148-.74-.25-.663-.632.265-1.313-.082-2.725 1.046-3.9a80.777 80.777 0 019.277-8.356c2.635-2.013 5.347-3.904 8.07-5.789a73.612 73.612 0 016.805-4.176c2.342-1.271 4.539-2.814 6.971-3.948a2.449 2.449 0 012.153-.053z"/>
        <path d="M521.722 466.574a42.17 42.17 0 01-9.626 1.792c-.016-.1-.036-.21-.052-.314zM510.99 468.603l-6.908 1.864a14.762 14.762 0 016.908-1.864z"/>
      </g>
      <path d="M361.918 620.013c.435-.194.521.482.918.352.083.45.557.514.808.812.175.067-.43.317.097.374a3.302 3.302 0 011 .492l-.288.72.418-.325.375.863-.478.416a1.539 1.539 0 001.138.907l-.635-1.032.553-.332c.104.173-.305.564.288.536l.095-.616c.086.007.171-.008.184.02.184.327.357.66.532.992a2.301 2.301 0 011.814.027l-.441.343c.094.203-.046.567.325.75l.346-.838c.355.056.443.007.47-.228.593-.054.274.583.564.821l.416-.465c.151.135.1.413.453.38.488-.04.999.127 1.488.08s.673.25.897.599l.35-.46c.387.37.918.304 1.398.431 1.14.315 2.304.51 3.456.766 1.03.228 2.074.393 3.107.6.852.17 1.705.339 2.55.54 1.15.27 2.32.432 3.474.67.902.185 1.831.333 2.748.488.303.05.65-.02.908.255a.341.341 0 00.266.069c1.026-.162 1.95.432 2.96.402a.264.264 0 01.174.068c.612.596 1.426.467 2.163.589a19.842 19.842 0 013.435.88 2.881 2.881 0 00.715.213c.229.016.367.204.563.237a1.882 1.882 0 00.755-.017c.335-.089.175.435.55.358.274-.055.592.18.896.208.5.048.921.433 1.467.305.113-.026.328.134.407.264.142.234.196.317.498.138.165-.098.534.097.787.21a13.37 13.37 0 012.487.887 6.803 6.803 0 012.324.736c.178.058.364.095.537.165.323.13.531.444.971.42.31-.018.53.48.973.373.086-.02.276.18.336.31.151.35.206-.02.287-.012.127.012.239.164.368.183a3.101 3.101 0 011.575.698 28.628 28.628 0 002.677 1.461c.256.175.64.165.775.533.651.066.908.741 1.464.951.234.088.584.08.694.241a4.353 4.353 0 001.104.937c.38.294.73.627 1.089.946.047.042.139.083.139.125 0 .376.38.398.525.588.331.432.866.643 1.115 1.153a3.454 3.454 0 01.403 1l.442-.275c.312.874 1.274 1.394 1.261 2.542l.611.397c-.013.19-.084.438-.022.477.43.28.773.533.36 1.1-.065.087.102.343.238.751l.22-.871c.186.43.328.73.445 1.04a3.307 3.307 0 01.28.89c.025.352.28.619.27.975a3.846 3.846 0 00.063.955c.074.322.005.65.165.984.105.223-.08.585-.137.891l-.345.088-.11-.4c-.09.191-.181.294-.179.394a2.176 2.176 0 00.425 1.059c.08.134.187.308.161.44-.036.183-.238.335-.27.517-.027.149.19.387.131.473-.294.437-.24 1.028-.647 1.403a7.403 7.403 0 01-1.268 2.32 11.437 11.437 0 01-3.285 3.435 16.893 16.893 0 01-4.723 2.495c-1.19.414-2.36.867-3.581 1.2a39.04 39.04 0 00-4.886 1.754c-.491.205-.895.56-1.408.756a5.078 5.078 0 00-1.326.852 8.826 8.826 0 00-.993 1.025c-.253.285-.336.72-.785.841-.087.025-.144.211-.185.333-.05.146-.03.325-.104.452a6.751 6.751 0 00-.333 5.905c.45 1.155 1.04 2.226 1.536 3.353.702 1.581 1.566 3.08 2.254 4.669.535 1.235 1.182 2.421 1.777 3.63a25.134 25.134 0 011.894 4.118c.478.43.44 1.107.77 1.616a12.333 12.333 0 01.677 1.897 17.22 17.22 0 01.653 2.268 4.052 4.052 0 00.404 1.301 1.118 1.118 0 01.164.775c-.103.485.097.906.162 1.355a15.92 15.92 0 01-.27 6.387 20.623 20.623 0 00-.756 2.602c-.515.536-.571 1.31-.988 1.902a11.37 11.37 0 01-1.178 1.748 9.262 9.262 0 01-2.286 2.094 15.896 15.896 0 01-4.389 2.814 14.075 14.075 0 01-3.76.904 4.202 4.202 0 01-2.046-.136c-.436-.164-.907-.192-1.36-.354a1.777 1.777 0 01-1.006-.627c-.096-.137-.387-.12-.563-.22a6.845 6.845 0 01-.928-.603c-.215-.173-.284-.535-.663-.484-.091-.43-.57-.426-.79-.699-.192-.243-.306-.545-.498-.786-.31-.391-.66-.752-.984-1.13a1.52 1.52 0 01-.255-.389 12.037 12.037 0 00-1.553-2.201c-.556-.784-1.21-1.502-1.694-2.336-.349-.593-.798-1.114-1.185-1.666-.409-.584-.763-1.212-1.195-1.776a42.434 42.434 0 01-2.342-3.697q-1.47-2.38-2.912-4.774c-1.682-2.797-3.345-5.605-5.033-8.4a14.332 14.332 0 00-1.38-1.983c-.254-.293-.373-.65-.632-.924-.389-.41-.764-.834-1.163-1.233a7.303 7.303 0 01-.984-.906c-.428-.636-1.064-1.055-1.54-1.646a2.393 2.393 0 00-2.206-.692c-.365.045-.72.162-1.085.223a3.083 3.083 0 00-2.641 2.46 5.34 5.34 0 01-.664 1.77c.134.529-.539.815-.41 1.343a9.393 9.393 0 01-1.34 1.806 3.84 3.84 0 00-1.153 1.296 25.148 25.148 0 01-2.729 3.768 15.454 15.454 0 01-2.304 2.362c-.571.498-1.214.882-1.808 1.331a10.216 10.216 0 01-2.288 1.1 13.191 13.191 0 01-5.16.882 14.724 14.724 0 01-3.798-.44c-.514-.138-1.013-.399-1.513-.556-.553-.176-.956-.614-1.47-.726a3.377 3.377 0 01-1.376-.708c-.756-.59-1.473-1.235-2.18-1.886a14.435 14.435 0 01-1.753-2.18 12.569 12.569 0 01-1.744-3.206 2.337 2.337 0 01-.201-.535c-.082-.988-.194-1.98-.19-2.968a13.198 13.198 0 00-.835-4.59 3.636 3.636 0 01-.094-.79 3.135 3.135 0 01-.817-.213 2.637 2.637 0 00-.72-.228 1.422 1.422 0 01-.67-.436c-.173-.213-.503.039-.624-.292-.033-.09-.31-.093-.477-.135a2.486 2.486 0 00-.542-.131c-.279-.004-.114-.421-.438-.403-.17.008-.343-.159-.523-.221-.205-.072-.427-.097-.629-.178-.283-.115-.4-.408-.604-.59-.142-.125-.503.032-.729-.048a5.842 5.842 0 00-.883-.355c-.304-.056-.782-.244-.59-.806.012-.036-.252-.164-.406-.264l-.063.496c-.348-.066-.786.157-.914-.375-.237.108-.21-.16-.292-.2-.235-.114-.659.363-.765-.243a5.928 5.928 0 01-.877-.18c-.114-.039-.15-.308-.262-.342-.162-.05-.423.118-.461-.18-.034-.283-.286-.051-.32-.158s.036-.24.058-.361c-.69-.189-.69-.189-1.154.225a2.933 2.933 0 01-.285-.48 1.916 1.916 0 01-.055-.466l-.58.282c-.983-1.084-1.088-1.117-2.017-.612l-.573-.373.058-.42c-.383.356-.383.356-.961.312-.212-.07.435-.362-.106-.372a.734.734 0 01-.673-.47.693.693 0 00-.447-.29c-.331-.073-.71-.323-.966.182-.046.089-.28.144-.404-.159a3.042 3.042 0 00-.769-.776l-.147.577c-.365-.476-.68-.846-1.298-.69-.198.049-.185-.337-.536-.348a5.475 5.475 0 01-1.496-.495l-.307.344c-.055-.006-.094 0-.11-.014a6.633 6.633 0 00-1.337-.63 28.34 28.34 0 01-1.429-.45c-2.218-.737-4.52-1.173-6.752-1.846-1.586-.477-3.18-.943-4.75-1.493-1.32-.462-2.655-.92-4.011-1.294a23.432 23.432 0 01-2.207-.867c-.232-.09-.482-.137-.716-.226-.384-.154-.76-.329-1.137-.5a7.757 7.757 0 00-1.14-.488c-.893-.229-1.65-.765-2.559-.989-.507-.124-.918-.57-1.478-.707-.457-.112-.868-.528-1.311-.553-.516-.028-.839-.408-1.338-.48s-.917-.555-1.475-.695c-.221-.055-.404-.382-.54-.624a.742.742 0 00-.837-.487 9.45 9.45 0 01-2.083-.426c-.115-.51-.569-.41-1.016-.54.163-.155.26-.25.361-.34.085-.076.174-.145.312-.26-.472-.124-.658.136-.81.461-.1-.194-.155-.391-.208-.39-.279.004-.394-.152-.555-.348-.111-.137-.403-.113-.61-.19a1.045 1.045 0 01-.336-.218c-.142-.133-.072-.513-.435-.384s-.252-.378-.44-.333c-.536.13-.515-.41-.768-.608-.214-.169-.483-.405-.326-.785a.386.386 0 00-.24-.218c-.167-.002-.35.067-.403-.15-.147-.595-.67-1-.79-1.608a.63.63 0 00-.215-.402c-.264-.145-.249-.394-.27-.606a3.444 3.444 0 00-.188-.871c-.11-.3-.113-.602-.438-.843-.247-.185-.138-.653-.376-.971a13.776 13.776 0 01-1.597-2.956 22.9 22.9 0 01-1.183-3.05c-.173-.661-.382-1.322-.536-1.99-.244-1.076-.162-2.186-.302-3.266a17.716 17.716 0 01.241-4.413 17.055 17.055 0 01.985-3.798 8.778 8.778 0 00.82-2.303.168.168 0 01.054-.084 14.896 14.896 0 001.097-2.071c.443-.632.83-1.303 1.274-1.934.178-.254.455-.436.66-.674a1.917 1.917 0 01.609-.603c.224-.11.343-.421.615-.58.16-.094.149-.457.244-.687.105-.255.26-.457.583-.27.36-.415.97-.528 1.295-.892.644-.712 1.613-.84 2.274-1.47.527.022.769-.542 1.3-.597a5.456 5.456 0 001.21-.513c.455-.171.926-.298 1.388-.448.09-.028.231-.054.254-.114.205-.56.722-.52 1.16-.618.721-.163 1.44-.338 2.169-.456a23.317 23.317 0 013.757-.383c.836 0 1.679-.257 2.504-.197.917.067 1.825.005 2.736.027 1.154.034 2.306.125 3.461.202 1.216.081 2.421.25 3.636.318a14.975 14.975 0 012.157.102 23.166 23.166 0 002.894.21c1.193.096 2.398.007 3.601-.012a17.858 17.858 0 003.027-.491 4.223 4.223 0 011.255-.154 1.988 1.988 0 001.192-.366 15.627 15.627 0 002.136-1.492 9.776 9.776 0 00.664-.847c.183-.203.183-.717.694-.462.03.019.179-.164.249-.27.386-.583.761-1.187 1.158-1.77.257-.377.165-.907.55-1.223-.127-.56.445-.88.488-1.429a6.219 6.219 0 01.616-1.398 11.874 11.874 0 01.597-1.864 19.277 19.277 0 00.678-2.065c.27-.613.228-1.365.499-1.978a23.86 23.86 0 00.83-2.5c.027-.086.207-.125.333-.194l-.234-.299a5.878 5.878 0 00.675-1.747 3.942 3.942 0 01.385-.688c.103-.225.128-.488.238-.709a1.83 1.83 0 00.29-.803 1.714 1.714 0 01.275-.792 1.59 1.59 0 00.268-.807c.005-.278.592-.2.366-.632-.16-.304.248-.476.244-.704-.011-.545.372-.932.503-1.422a7.383 7.383 0 01.36-.975c.134-.315.46-.547.4-.945.367.033.143-.265.214-.396s.084-.304.15-.442a3.545 3.545 0 01.287-.463c.04-.06.162-.119.153-.148-.216-.642.386-1.055.458-1.624a5.419 5.419 0 01.292-.792 2.601 2.601 0 01.454-1.16.891.891 0 00.168-.618 1.3 1.3 0 01.352-.882 2.557 2.557 0 00.386-.92 7.374 7.374 0 01.435-1.434c.246-.378.022-1.05.702-1.171 0 0-.026-.231-.042-.355-.042-.318.15-.564.236-.843a1.075 1.075 0 01.612-.758l-.214-.222c-.008-.033-.03-.073-.018-.097.252-.522.513-1.04.76-1.564.22-.465.72-.781.68-1.391-.014-.2.484-.152.36-.543-.027-.085.273-.274.423-.417l-.221-.286c.34-.467 1.13-.519 1.099-1.277.33.062.703.414 1.008-.144l-.474-.057c-.029-.08-.087-.164-.066-.192.133-.183.282-.352.427-.526a1.172 1.172 0 00.136-.157c-.34-.426.367-.519.282-.947-.077-.391.481-.572.76-.802a4.363 4.363 0 00.654-.69 3.48 3.48 0 01.904-.975c.392-.204.466-.632.798-.815a1.673 1.673 0 00.873-.704c.69-.196 1.07-.855 1.705-1.13.125-.054.297.005.456.013l.542-.834c.308.013.644.158.867-.192.552.046.178-.55.496-.704.072.038.206.066.225.127.048.163.048.293.296.226.171-.049.132-.12.163-.252.076-.343.555-.582.572-.5.11.525.407.131.603.154a.283.283 0 00.24-.126c.207-.609.718-.462 1.144-.443a2.787 2.787 0 011.949.504 3.402 3.402 0 00.308-.486.54.54 0 01.564-.329 21.159 21.159 0 012.152.131 6.682 6.682 0 011.989.464 15.126 15.126 0 012.731 1.178c.779.58 1.62 1.079 2.443 1.6a12.46 12.46 0 012.227 2.082 10.058 10.058 0 011.273 1.612 2.301 2.301 0 00.983.908 3.087 3.087 0 011.245 1.286 20.91 20.91 0 011.978 4.177 12.86 12.86 0 01.776 2.294 11.153 11.153 0 01-.105 4.243 14.115 14.115 0 00-.184 2.613 37.277 37.277 0 01-.49 5.116c-.21 1.641-.62 3.234-.942 4.843-.168.845-.302 1.712-.522 2.555a10.205 10.205 0 00-.425 2.578c0 .535-.165 1.108-.173 1.662a25.865 25.865 0 01-.328 3.065c-.164 1.232-.275 2.48-.513 3.69-.213 1.081-.149 2.17-.36 3.246s-.263 2.161-.369 3.245a4.245 4.245 0 00.614 2.924 3.68 3.68 0 01.663 1.781zm.458 4.279l-.197.042c.02.069.018.177.061.2.347.181.74.443.78.636.145.754.817.93 1.358 1.151a7.003 7.003 0 001.648.258 1.86 1.86 0 01.518.099c.065.03.017.267.22.179.132-.058.258-.134.574-.3-.642-.128-.596-.932-1.286-.75-.012.003-.138-.225-.104-.29a.23.23 0 00-.192-.363c-.593-.028-.978-.48-1.48-.704l-.298.331-.132-.616.117.03-.132-.62c-.245.217-.294.862-.937.684a.9.9 0 00-.814-.658zm-14.859 74.169l.684 1.207.343-.053-.038-.25 1.702-.152c-.006-.057-.05-.22-.022-.232.256-.124.533-.208.79-.329.578-.271 1.192-.51 1.328-1.273-.53.013-1.057.387-1.551 0-.037.176-.025.42-.106.456a3.051 3.051 0 01-1.181.386 1.659 1.659 0 00-1.037.288c-.347.292-.525.017-.912-.048zm-3.326-131.794a11.422 11.422 0 00-1.117.478c-1.082.61-2.384.862-3.197 1.923-.027.043-.133.022-.192.047a1.908 1.908 0 00-1.096.865 3.033 3.033 0 01-1.088 1.05.45.45 0 00-.226.622 2.238 2.238 0 00.592-.222c.25-.187.44-.454.683-.652a10.833 10.833 0 012.077-1.577.561.561 0 00.284-.235 1.58 1.58 0 011.09-.868c.82-.251 1.414-.93 2.285-.98zm-12.612 19.782c.265-.154.565-.273.554-.33-.08-.401.236-.604.387-.882a2.711 2.711 0 01.559-.83c.255-.21-.004-.676.436-.732-.129-.386.191-.6.345-.872.165-.292.366-.563.549-.844l2.084-3.21a2.201 2.201 0 00.15-.356c-.354.407-.785.717-1.082 1.114a31.078 31.078 0 01-2.107 2.856 6.276 6.276 0 00-.71 1.359 18.328 18.328 0 00-1.164 2.727zm-55.858 61.781c-.09-.203-.163-.375-.243-.545s-.166-.334-.249-.501c.482-.261.478-.258.333-.636-.057-.148-.15-.347-.096-.46.21-.449-.199-.368-.301-.466l-.483.907c-.512-.001-.317.462-.443.707a.934.934 0 00-.029.548c.006.035.27.024.447.037l-.115.815-.365-.525c-.389.27.115.396.049.57a3.836 3.836 0 01-.394.625l1.14.74-.117.521c.467-.623.467-.623.344-1.056l-.295.232-.159-.643-.55-.038c.411-.471.848-.325 1.22-.356zm7.069-25.3c-.104-.083-.16-.163-.203-.157-.744.094-1.494.16-2.228.307a20.146 20.146 0 00-4.353 1.534 6.312 6.312 0 00-1.855 1.062c-.243.233.03.322-.028.468a19.823 19.823 0 014.025-2.007c1.515-.45 3.064-.8 4.642-1.205zm71.847 78.712a3.282 3.282 0 001.934-.716c.563-.326 1.037-.801 1.577-1.143a5.303 5.303 0 001.492-1.417c.406-.572 1.166-.876 1.261-1.68a3.653 3.653 0 00-.51.265c-.1.074-.143.222-.237.312-.334.33-.681.646-1.023.969a3.94 3.94 0 00-1.049 1.096 25.8 25.8 0 01-2.994 2.039 3.97 3.97 0 00-.45.276zm-70.656-69.38l.087.177a2.456 2.456 0 01.645-.226c.238-.016.503.16.719.11a3.589 3.589 0 011.316.029c.445-.445 1.017-.28 1.549-.328.415-.04.831-.065 1.242-.128.122-.019.226-.146.339-.224-.36-.069-.684.089-.948-.209-.196-.221-.31.007-.476.067-.14.049-.456-.195-.505-.141-.27.302-.573.177-.881.174a3.426 3.426 0 00-1.044.087c-.33.103-.558-.07-.816-.145l-.122.601-.706-.459z" fill="#c3fc33"/>
      <g transform="translate(321 468.937)">
        <circle cx="92.344" cy="92.344" r="92.344" transform="translate(89.151 76.183)" fill="#f7f7f7"/>
        <rect width="69.354" height="69.737" rx="10.849" transform="translate(225.56 123.696)" fill="#e6e6e6"/>
        <path d="M277.544 175.168l2.043 3.556a4.876 4.876 0 004.228 2.447h6.628" fill="none" stroke="#b3b3b3" stroke-linecap="round" stroke-linejoin="round" stroke-width="2.469"/>
        <path d="M260.169 134.212a24.1 24.1 0 11-24.1 24.1" fill="none" stroke="#527fed" stroke-linecap="round" stroke-linejoin="round" stroke-width="2.469"/>
        <path d="M260.169 182.414a24.1 24.1 0 01-24.1-24.1" fill="none" stroke="#b3b3b3" stroke-linecap="round" stroke-linejoin="round" stroke-width="16.802"/>
        <path d="M236.069 158.313a24.1 24.1 0 0124.1-24.1" fill="none" stroke="#fff" stroke-linecap="round" stroke-linejoin="round" stroke-width="16.802"/>
        <path d="M287.873 52.474c.127.319-.431 5 .463 6.274s3.512-2.937 3.512-2.937z" fill="#ffc9af"/>
        <rect width="97.118" height="87.363" rx="10.849" transform="translate(191.075 19.345)" fill="#e6e6e6"/>
        <path fill="#f0f0f0" d="M191.075 34.417h97.118v57.476h-97.118z"/>
        <g fill="none" stroke="#fff" stroke-miterlimit="10" stroke-width="2.469">
          <path d="M191.314 47.062h96.942M191.314 57.982h96.942M191.314 68.903h96.942M191.314 79.823h96.942"/>
        </g>
        <path d="M197.78 42.847s5.747 50 81.615 41.382" fill="none" stroke="#527fed" stroke-linecap="round" stroke-linejoin="round" stroke-width="2.469"/>
        <circle cx="2.554" cy="2.554" r="2.554" transform="translate(243.101 81.342)" fill="#527fed"/>
        <path d="M291.849 55.811s-3.449-7.283-4.6-6.833c-.734.287 2.172 7.919 3.449 8.11s1.151-1.277 1.151-1.277z" fill="#ffc9af"/>
        <path d="M295.872 60.601c.679.826-3.812-4.64-4.023-4.79a5.509 5.509 0 00-3.513 2.938l3.129 5.237a8.774 8.774 0 002.874-1.15 7.859 7.859 0 001.533-2.235z" fill="#e54c1d"/>
        <path d="M245.996 93.425a42.8 42.8 0 01-2.523-6.291 2.26 2.26 0 01.287-1.4s-.7-2.012 0-2.267 2.619 3.768 2.619 3.768-1.022-4.023-.319-4.151 2.3 4.662 4.726 7.472a10 10 0 01-2.491 2.3 7 7 0 01-2.299.569z" fill="#ffc9af"/>
        <path d="M250.786 90.552s-.447-5.62-.639-5.811-1.469.639-.83 4.343 1.469 1.468 1.469 1.468z" fill="#ffc9af"/>
        <path d="M243.761 85.73a38.711 38.711 0 002.139 4.821M246.379 87.231l.99 2.235" fill="none" stroke="#e77f76" stroke-linecap="round" stroke-linejoin="round" stroke-width="1.235"/>
        <path d="M245.996 93.426a6.514 6.514 0 014.79-2.874l3.9 4.6s-4.406 3.576-4.726 3.193-3.964-4.919-3.964-4.919zM292.104 93.425c-.866-1.078-.95-4.119-.95-4.119s.2 2-2.981 4.023c-3.928 2.491-5.664 1.724-5.664 1.724s1.449.491 3.077 3.784c0 0 3.916-.719 5.688-2.826s1.413-1.861.83-2.586z" fill="#e54c1d"/>
        <path d="M314.455 112.776c.209.2 29.408 21.649 29.408 21.649l23.948-18.392a16.744 16.744 0 008.909 14.752c-.862-.1-21.362 15.423-28.067 16.189s-9.484 1.533-28.163-11.687-15.614-18.68-15.614-18.68 7.951-5.364 9.579-3.831z" fill="#da2032"/>
        <path d="M311.965 124.207c-1.5 2.431-.094 2.9.971 5.182a91.347 91.347 0 007.554 5.9c4.494 3.181 8.067 5.55 11 7.306-9.499-14.045-19.057-19.146-19.525-18.388z" fill="#1a1a1a"/>
        <path d="M298.171 126.633s20.4 32.027 29.983 36.625 42.436 7.472 42.436 7.472-3.64-13.411 1.15-19.829c-1.054-.191-34.677 1.916-34.964 1.82s-20.02-25.96-23.086-29.409-6.8-7.28-8.813-6.705-9.005 4.342-6.706 10.026z" fill="#da2032"/>
        <path d="M200.398 218.084s3.065 2.043 9.835 1.788 7.152-2.555 7.152-2.555a19.1 19.1 0 00-9.2-1.788 15.476 15.476 0 00-7.787 2.555z" fill="#1a1a1a"/>
        <path d="M176.515 120.63s.67 2.3.192 3.257a3.258 3.258 0 01-1.82 1.341s-2.874.383-4.119-.191.383-5.652.383-5.652z" fill="#b78569"/>
        <path d="M24.635 162.875s2.347 3.56 4.55 3.481 3.161-6.833 3.161-6.833-1.437-5.939-3.065-5.364-4.646 8.716-4.646 8.716z" fill="#ffc9af"/>
        <g transform="translate(14.789 61.286)">
          <rect width="147.67" height="116.941" rx="10.849" transform="rotate(-12.319 145.965 15.753)" fill="#e6e6e6"/>
          <path fill="none" stroke="#fff" stroke-miterlimit="10" stroke-width="2.469" d="M89.466 74.66L78.975 26.619M60.088 58.067l-4.9-22.461a3.832 3.832 0 012.926-4.561l66.385-14.5a3.832 3.832 0 014.561 2.926l10.191 46.669"/>
          <path d="M33.992 24.08L3.744 30.686a3.832 3.832 0 00-2.926 4.561L24.132 142.01a3.831 3.831 0 004.561 2.926l30.248-6.605z" fill="#f0f0f0"/>
          <circle cx="10.857" cy="10.857" r="10.857" transform="translate(9.539 34.569)" fill="#e6e6e6"/>
          <circle cx="10.857" cy="10.857" r="10.857" transform="translate(9.539 34.569)" fill="#e6e6e6"/>
          <rect width="21.458" height="5.62" rx="2.81" transform="rotate(-12.319 295.257 -29.546)" fill="#e6e6e6"/>
          <rect width="21.458" height="5.62" rx="2.81" transform="rotate(-12.319 337.861 -34.144)" fill="#e6e6e6"/>
          <path fill="none" stroke="#fff" stroke-linecap="round" stroke-linejoin="round" stroke-width="40.743" d="M59.548 55.809l12.139 55.588"/>
          <path fill="none" stroke="#f2f2f2" stroke-linecap="round" stroke-linejoin="round" stroke-width="40.743" d="M86.712 61.666l9.682 44.336"/>
          <path fill="none" stroke="#dbdbdb" stroke-linecap="round" stroke-linejoin="round" stroke-width="40.743" d="M115.616 75.487l5.486 25.12"/>
          <path fill="none" stroke="#bababa" stroke-linecap="round" stroke-linejoin="round" stroke-width="40.743" d="M136.998 54.868l8.81 40.343"/>
          <rect width="12.772" height="5.875" rx="2.938" transform="rotate(-12.319 608.795 -252.854)" fill="#f6c32c"/>
          <rect width="12.772" height="5.875" rx="2.938" transform="rotate(-12.319 596.278 -368.835)" fill="#da2032"/>
          <rect width="12.772" height="5.875" rx="2.938" transform="rotate(-12.319 583.38 -488.369)" fill="#b3b3b3"/>
          <rect width="12.772" height="5.875" rx="2.938" transform="rotate(-12.319 570.671 -606.129)" fill="#fff"/>
          <path fill="none" stroke="#fff" stroke-miterlimit="10" stroke-width="2.469" d="M113.799 69.346l-10.491-48.041"/>
          <circle cx="2.682" cy="2.682" r="2.682" transform="translate(76.348 24.186)" fill="#f6c32c"/>
          <circle cx="2.682" cy="2.682" r="2.682" transform="translate(100.743 18.859)" fill="#527fed"/>
          <circle cx="2.682" cy="2.682" r="2.682" transform="translate(129.802 32.535)" fill="#527fed"/>
          <circle cx="2.682" cy="2.682" r="2.682" transform="translate(53.225 36.067)" fill="#527fed"/>
        </g>
        <path d="M176.515 120.63l-6.61-2.586a2.684 2.684 0 001.724 2.682 24.845 24.845 0 005.268 1.724z" fill="#b78569"/>
        <path d="M24.268 162.46s3.337-9.308 5.444-10.362a10.651 10.651 0 01-.766 4.55 11.373 11.373 0 01-1.581 2.874s-1.772 4.215-1.916 4.215a9.568 9.568 0 01-1.181-1.277z" fill="#ffc9af"/>
        <path d="M169.361 263.809l-1.565 9.9-15.327-1.564 1.565-10.122s6-2.491 10.793-1.437 4.534 3.223 4.534 3.223z" fill="#b78569"/>
        <path d="M154.146 261.302l-.67 4.023s8 .91 14.9-1.533l-1.868-1.774z" fill="#1a1a1a"/>
        <path d="M200.398 218.083l-1.66 6.769a10.558 10.558 0 007.919 4.47c5.237.255 6.514-2.554 6.514-2.554l1.916-8.685s-5.62-2.299-14.689 0z" fill="#b78569"/>
        <path d="M43.075 185.734s-9.995 3.676-13.06-5.073a24.229 24.229 0 01-.83-14.305l-4.917-3.9s-7.229 11.432-3.7 24.523c3.321 11.878 13.391 16.616 18.584 15.518 11.171-2.358 3.923-16.763 3.923-16.763z" fill="#527fed"/>
        <path d="M33.344 201.83a10.89 10.89 0 005.8.671c.246-.052.48-.112.708-.175-.45-1.851-1.219-4.774-1.219-4.774a8.369 8.369 0 01-5.289 4.278z" fill="#1a1a1a"/>
        <path d="M63.926 302.509l3.065 14.177 18.392-.766-3.449-13.411z" fill="#da2032"/>
        <path d="M82.768 305.751l-.833-3.238H63.926s8.815 6.209 18.842 3.238z" fill="#1a1a1a"/>
        <path d="M37.71 302.541c-12.214-2.491-17.722.192-17.722.192l-1.693 10.952 17.754 1.4z" fill="#da2032"/>
        <path d="M37.71 302.541c-12.214-2.491-17.722.192-17.722.192l-.4 2.611a27.643 27.643 0 0018.122-2.803z" fill="#1a1a1a"/>
        <path d="M51.985 215.274l-14.274 87.267s-12.293 4.95-21.075-.862l18.871-88.7s11.496-1.537 16.478 2.295z" fill="#f6c32c"/>
        <path d="M45.948 226.29l.351 24.14 2.906-17.339z" fill="#1a1a1a"/>
        <path d="M61.179 215.656l24.336 86.789c-12.261 6.322-21.585.064-21.585.064l-19.222-79.955s3.448-9.963 9.579-10.346 6.892 3.448 6.892 3.448z" fill="#f6c32c"/>
        <path d="M66.225 312.854l1.916 9.579h27.588v-1.916l-11.112-8.33.766-6.227a3.016 3.016 0 00-2.682 2.3c-.766 2.682-3.449 6.9-8.43 6.514a23.568 23.568 0 01-8.046-1.92zM36.752 310.172l-1.341 12.326H7.723l-.064-2.044 10.633-6.77s-1.6-7.216-1.4-7.216a3.9 3.9 0 013.577 1.788c1.213 1.98 3.681 5.308 7.983 5.365a12.558 12.558 0 008.3-3.449z" fill="#1a1a1a"/>
        <path d="M49.301 185.386s-6.9-1.149-8.813 2.3-4.981 25.289-4.981 25.289a55.888 55.888 0 0025.672 2.682l-1.916-18.775s-1.2-9.579-4.263-10.729a42.067 42.067 0 00-5.699-.767z" fill="#527fed"/>
        <path d="M59.537 199.562l-3.211-.892s-.415 7.794 4.381 12.356z" fill="#1a1a1a"/>
        <path d="M54.282 186.152s1.341-.527 5.317 2.251 10.058 8.957 18.248 9.579a28.644 28.644 0 0014.369-2.682l3.928 3.784s-10.537 9.531-23.421 9.531-16.716-7.52-16.716-7.52-4.215-7.232-3.544-10.872 1.819-4.071 1.819-4.071z" fill="#527fed"/>
        <path d="M44.466 180.135s.764 4.246-.577 5.827 10.824.67 10.824.67-1.245-3.065.048-4.454c0 0-1.9.97-5.772.1a8.879 8.879 0 01-4.523-2.143z" fill="#527fed"/>
        <path d="M44.49 180.211a.371.371 0 01.232-.459 3.487 3.487 0 011.626-.1c2.411.271 9.691 1.549 8.414 2.523s-4.806.607-6.306.16c-1.417-.42-3.472-1.096-3.966-2.124z" fill="#1a1a1a"/>
        <path d="M46.347 180.084l1.41-5.684 6.883 1.479-1.028 5.628a7.384 7.384 0 01-3.976.039c-2.693-.52-3.289-1.462-3.289-1.462z" fill="#ffc9af"/>
        <path d="M47.133 177.288s-1.208-4.158.74-7.074 5.056-3.988 8.182-2.669c3.095 1.306 4.1 6.586 3.447 8.74s-2.96 3.386-6.359 2.789a27.67 27.67 0 01-6.01-1.786z" fill="#ff6e5c" opacity=".4"/>
        <path d="M47.227 177.214c-.92-1.522-.407-5.577.646-7 2.149-2.9 5.056-3.988 8.182-2.669 3.095 1.306 4.1 6.586 3.447 8.74s-2.619 3.082-6.069 2.9c-.974-.048-5.32-.504-6.206-1.971z" fill="#ffc9af"/>
        <path d="M56.055 167.544c-3.126-1.32-6.309-.789-8.406 2.674-.917 1.515-1.614 5.02-.423 7a4.235 4.235 0 003.24 1.557 3.07 3.07 0 003.175-1.414 2.165 2.165 0 00.093-1.969c-.305-.6-1.154-.167-.9-1.9.236-1.635 1.411-1.846 1.736-.964.373 1.014.559 2.224 2.525.073a4.652 4.652 0 001.2-2.988 4.985 4.985 0 00-2.24-2.069z" fill="#1a1a1a"/>
        <path d="M92.217 195.301s4.342-7.232 5.62-7.232-1.086 4.726-1.086 4.726 5.237-3.624 6.027-3.7a1.466 1.466 0 011.245.551s1.2-.527 1.652.263c0 0-6.035 7.089-9.531 9.172 0 0-2.131-.192-2.994-1.341a4.967 4.967 0 01-.933-2.439z" fill="#ffc9af"/>
        <path d="M104.028 189.649a48.317 48.317 0 01-5.053 4.454" fill="none" stroke="#e77f76" stroke-linecap="round" stroke-linejoin="round" stroke-width="1.235"/>
        <path d="M68.141 322.434h27.588v-1.916l-.085-.064h-27.9zM7.764 320.39l-.1.064.064 2.044h27.683l.229-2.108z" fill="#f6c32c"/>
        <g fill="none" stroke="gray" stroke-linecap="round" stroke-linejoin="round" stroke-width="3.704">
          <path d="M85.647 315.178l1.772-1.988M87.635 316.639l1.772-1.988M89.67 318.052l1.772-1.988"/>
        </g>
        <g fill="none" stroke="gray" stroke-linecap="round" stroke-linejoin="round" stroke-width="3.704">
          <path d="M12.756 318.826l-1.174-1.936M14.72 317.437l-1.147-2.004M16.895 316.203l-1.249-2.071"/>
        </g>
        <path d="M0 322.434h103.456a18.9 18.9 0 01-18.9 18.9H18.9a18.9 18.9 0 01-18.9-18.9z" fill="#e6e6e6"/>
        <path d="M184.305 172.231l1.788 4.917s23.245 1.469 29.121 2.235 7.919 4.343 6.769 9.707-4.6 28.227-4.6 28.227a19.232 19.232 0 00-16.987.767l5.748-23.629-26.184.128-10.6 69.226s-14.48 1.181-19.334-3.7c0 0 15.886-74.974 14.481-79.061s19.798-8.817 19.798-8.817z" fill="#527fed"/>
        <path d="M182.325 178.298a15.288 15.288 0 003.28-2.491l-1.3-3.576s-9.271 2.067-15.145 4.648l-4.539 5.237v.265c1.112.348 7.375 1.865 17.704-4.083z" fill="#1a1a1a"/>
        <path d="M157.547 156.713c0 .29 2.888 13.338 4.283 18.1a4.548 4.548 0 01.049 2.336 6.45 6.45 0 00-.054 3.574c.7 1.66 2.3 1.852 6.195 1.277s15.071-5.237 17.115-8.238-1.149-4.215-2.3-4.917-9.068-17.817-9.068-17.817-3.832-3.257-11.048-1.213-5.172 6.898-5.172 6.898z" fill="#da2032"/>
        <path d="M162.815 166.18s-1.744 1.828-2.5 2.792c.428 1.766.845 3.425 1.2 4.737 2.498-3.217 1.3-7.529 1.3-7.529z" fill="#1a1a1a"/>
        <path d="M176.993 161.343c.3-.038 7.352-1.467 13.219-9.388 5.747-7.759 3.927-19.159-1.341-25-4.264-4.729-12.357-6.322-12.357-6.322l-1.629 4.6s9.867 2.3 8.813 11.112-15.9 13.219-15.9 13.219 4.693 12.354 9.195 11.779zM157.547 151.284a55.548 55.548 0 01-8.717 20.116c-7.791 10.684-15.9 11.591-18.68 12.07 0 0-.192 6.035.191 5.939s9.962 1.437 21.362-6.9a31.939 31.939 0 0012.74-20.4z" fill="#da2032"/>
        <path d="M148.015 139.31c-.048.191.144 5.077 3.065 7.424s4.982-1.2 4.982-1.2-.287-6.322-2.73-6.562a21.387 21.387 0 00-5.317.338z" fill="#b78569"/>
        <path d="M168.846 267.514l-1.405 8.813h-25.412l11.3-9.036s2.491 5.971 7.472 5.4 8.045-5.177 8.045-5.177z" fill="#da2032"/>
        <path fill="#f6c32c" d="M142.029 276.326h25.417v1.533h-25.417z"/>
        <path d="M199.182 223.069l-3.892 6.637 25.8 5.364-7.552-10.122a9.1 9.1 0 01-7.9 2.714 7.637 7.637 0 01-6.456-4.593z" fill="#da2032"/>
        <path d="M195.289 229.707l-.575 2.044 25.992 5.237.383-1.916z" fill="#f6c32c"/>
        <path d="M147.777 135.861c1.111-2.948 4.79-4.79 8.717-2.778s6.323 5.46 11.208 5.173 13.7-.383 14.56 6.227-4.406 13.411-12.644 16.668-13.219-3.257-14.178-6.226.479-9.867-2.682-12.357c0 0 .814-2.251-.623-2.491s-1.1 1.532-1.1 1.532-5.605.479-3.258-5.748z" fill="#1a1a1a"/>
        <path d="M130.15 183.47a31.343 31.343 0 01-5.492.478c-1.52-.006-5.013-.19-5.013.224 0 .289.032.958 1.373 1.277 0 0-.9-.156-1.022.511-.1.511 1.533.83 1.533.83s-.8.064-.224.766 4.56 2.4 9.036 1.852c2.619-.317-.191-5.938-.191-5.938z" fill="#b78569"/>
        <path d="M121.018 185.45a25.191 25.191 0 005.524.447M121.529 186.79a34.728 34.728 0 005.077.926" fill="none" stroke="#92684f" stroke-linecap="round" stroke-linejoin="round" stroke-width="1.235"/>
        <path d="M130.151 183.471s-4.886-3.145-6.179-3.337c0 0-.33.2.383 1.341.575 1.006 3.927 2.874 3.927 2.874z" fill="#b78569"/>
        <path d="M179.962 194.582l.479-2.586 15.487 2.459z" fill="#1a1a1a"/>
        <path d="M189.303 239.669a20.812 20.812 0 0041.606 0z" fill="#e6e6e6"/>
        <path d="M314.455 112.488l-2.685-3.162s1.437-2.395-.192-3.832-4.023-2.012-6.227-4.981c0 0 2.97-6.418 1.916-12.741s-1.692-4.055-2.267-7.887-1.405-7.28-3.257-9.2-4.47-5.237-4.279-6.833-.767-3.64-1.98-3.576-6.067 3.576-4.662 5.364 3.129 2.3 2.937 6.067 2.427 8.621 2.107 11.942-2.714 5.939-2.363 9.068c.052.461-1.852-.128-1.852-.128 1.245 3.129-6.131 5.907-6.131 5.907s-1.469 2.523-.83 4.247c0 0-.127.7-2.3.575s-6.386-1.661-10.665 0a17.566 17.566 0 00-10.793-4.662s-4.447-5.016-7.121-4.79c-3.209.272-5.336 2.69-4.374 5.237.638 1.692 2.523 2.075 4.566 3.8s3.417 4.886 7.312 6.673 8.685 2.044 11.176 3.64a15.594 15.594 0 0016.8.447 7.145 7.145 0 011.788 4.854 4.825 4.825 0 004.47 4.918l2.621 3.198s6.77-9.26 16.285-14.145z" fill="#f6c32c"/>
        <path d="M282.314 94.919c-.163-.23-.01-.73.11-.991a6.724 6.724 0 012.478-2.514c1.646-1.1 3.6-2.412 5.937-2.322a.362.362 0 01.343.387c-.051.762-.494 2.592-3.358 4.281-2.705 1.597-5.156 1.653-5.51 1.159z" fill="#1a1a1a"/>
        <path d="M290.028 91.03l-3.161-3.161-4.646 2.826 2.227 3.9s3.928-.595 5.58-3.565z" fill="#ffc9af"/>
        <path d="M283.035 91.414s-5.556 1.2-5.7-5.173 6.37-3.544 6.37-3.544 6.323 2.906 3.928 6.131c-1.245 1.676-4.598 2.586-4.598 2.586z" fill="#ffc9af"/>
        <path d="M280.893 87.415a1.287 1.287 0 01-1.305.551c-.678-.2-1.113-.838-.862-2.108 0 0-3.3 1.724-3.5-1.676s3.449-5.987 7.089-5.508 6.338 2.874 6.658 6.131a4.549 4.549 0 01-3.975 5.316 2.371 2.371 0 01-1.971-.315 1.475 1.475 0 01-.566-1.258 1.515 1.515 0 00-.624-1.5c-.549-.256-.777.111-.944.367z" fill="#55353a"/>
        <path d="M289.48 79.744c-1.041 2.455-4.458 4.7-6.914 3.656s-3.02-4.969-1.979-7.424a4.83 4.83 0 018.893 3.768z" fill="#55353a"/>
        <path d="M367.813 116.032a16.269 16.269 0 003.065 9.723c3.3 4.167 5.843 5.029 5.843 5.029s.527-2.73-3.736-9a23.019 23.019 0 00-5.172-5.752z" fill="#1a1a1a"/>
        <path d="M369.058 118.955l6.706-3.975s5.413-.144 7.041 2.2a6.888 6.888 0 01.958 5.412c-.144.048-8.813 5.269-8.813 5.269a9.4 9.4 0 01-4.262-4.215c-1.87-3.35-1.63-4.691-1.63-4.691z" fill="#ffc9af"/>
        <path d="M375.763 114.979l3.114-4.455 16.045 12.645-11.16-.575a12.287 12.287 0 00-2.874-4.933c-1.644-1.75-5.125-2.682-5.125-2.682z" fill="#1a1a1a"/>
        <path d="M378.877 110.525l1.006-1.293 16.093 12.884-1.053 1.054z" fill="gray"/>
        <path d="M371.74 150.901s-2.419 2.923-2.634 9.675c-.24 7.519 1.485 10.154 1.485 10.154s1.427-1.2 1.772-10.01c.287-7.328-.623-9.819-.623-9.819z" fill="#1a1a1a"/>
        <path d="M370.974 155.355l7.855.67s7.041.91 8.909 4.838.814 5.556.814 5.556l-17.77-.335s-.889-.809-.814-5.891a10.279 10.279 0 011.006-4.838z" fill="#ffc9af"/>
        <path d="M378.158 156.026l6.274-3.688 13.938 14.513-10.968-.527a6.508 6.508 0 00-2.682-6.562 21.141 21.141 0 00-6.562-3.736z" fill="#1a1a1a"/>
        <path d="M384.432 152.338l1.628-.91 13.363 14.465-1.054.958z" fill="gray"/>
        <path d="M312.828 110.62l.037-.007-1.091-1.286s-8.174 3.385-16.221 14.113c0 0 11.242-11.67 17.275-12.82zM305.355 100.514l-1.293-1.533a7.748 7.748 0 002.794-3.129 19.883 19.883 0 01-1.501 4.662zM280.29 115.841c.057.017.149.042.267.074a14.968 14.968 0 008.737-2.245 16.9 16.9 0 01-1.214-2.3 11.527 11.527 0 01-7.79 4.471z" fill="#1a1a1a"/>
        <path d="M269.368 158.692c.005-.126.01-.252.01-.379a9.2 9.2 0 00-9.2-9.2c-.085 0-.17 0-.255.006v9.577z" fill="#f6c32c"/>
        <path d="M250.978 158.692a9.2 9.2 0 0018.389 0z" fill="#d6d6d6"/>
        <path d="M260.046 149.112a9.2 9.2 0 000 18.4z" fill="#d6d6d6"/>
        <path d="M250.975 158.564a9.2 9.2 0 009.071 8.949v-8.949z" fill="#527fed"/>
        <circle cx="2.554" cy="2.554" r="2.554" transform="translate(201.037 55.747)" fill="#f6c32c"/>
        <circle cx="2.554" cy="2.554" r="2.554" transform="translate(196.223 44.563)" fill="#527fed"/>
        <circle cx="2.554" cy="2.554" r="2.554" transform="translate(209.634 66.148)" fill="#527fed"/>
        <circle cx="3.257" cy="3.257" r="3.257" transform="translate(274.592 172.267)" fill="#f6c32c"/>
        <rect width="20.82" height="4.215" rx="2.107" transform="translate(289.42 178.873)" fill="#d6d6d6"/>
        <rect width="13.124" height="4.215" rx="2.107" transform="translate(297.117 184.907)" fill="#d6d6d6"/>
        <path fill="#f6c32c" d="M40.085 59.141l10.633 4.38-4.38 10.632-10.633-4.38z"/>
        <g transform="translate(325.197 78.244)">
          <path d="M3.294 3.057l9.013 1.406a1.764 1.764 0 011.409 2.276l-2.8 8.82" fill="none" stroke="#f0f0f0" stroke-linecap="round" stroke-linejoin="round" stroke-width="2.276"/>
          <circle cx="3.065" cy="3.065" r="3.065" transform="translate(7.857 12.496)" fill="#f0f0f0"/>
          <circle cx="3.065" cy="3.065" r="3.065" fill="#527fed"/>
        </g>
        <circle cx="5.46" cy="5.46" r="5.46" transform="translate(127.698 208.026)" fill="#fff"/>
        <circle cx="2.905" cy="2.905" r="2.905" transform="translate(90.915 271.759)" fill="#527fed"/>
        <path fill="#f6c32c" d="M203.136 279.339l4.401 8.723-8.723 4.4-4.4-8.722z"/>
        <path fill="none" stroke="#e54c1d" stroke-linecap="round" stroke-linejoin="round" stroke-width="2.276" d="M72.854 273.622l7.612 28.057M60.541 228.238l10.999 40.54"/>
        <g transform="translate(238.139 187.021)">
          <g transform="translate(42.597 19.184)">
            <path d="M5.109 0L0 25.034l23.246 15.582 5.109-25.289z" fill="#e6e6e6"/>
            <ellipse cx="3.449" cy="2.299" rx="3.449" ry="2.299" transform="rotate(-83.162 18.413 5.188)" fill="#f0f0f0"/>
          </g>
          <path d="M69.289 55.712l-4.286-6.349a2.239 2.239 0 00-.351 2.532 15.656 15.656 0 001.637 3.252s1.87 2.269 3.073 2.1-.073-1.535-.073-1.535z" fill="#ffc9af"/>
          <path d="M66.111 54.585s-5.772-2.882-6.171-2.333.674 1.8.674 1.8a1.151 1.151 0 00-.517 1.393c.224 1.07 6.074 5.548 8.872 6s.326-4.966.326-4.966z" fill="#ffc9af"/>
          <path fill="none" stroke="#e77f76" stroke-linecap="round" stroke-linejoin="round" stroke-width="1.235" d="M60.614 54.051l4.581 2.476"/>
          <path d="M132.004 97.351c-.256 22.99-15.221 39.593-40.275 39.593s-45.173-13.262-45.173-38.316 31.8-41.508 56.8-43.14c16.127-1.052 28.935 16.016 28.648 41.863z" fill="#f6c32c"/>
          <path d="M115.272 58.331s12.389 27.8-9.452 47.7c-18.776 17.115-47.9 7.28-47.9 7.28l22.8-31.037 23.948-28.929z" fill="#1a1a1a"/>
          <path d="M107.096 89.175s1.277-4.214-22.607-19.031-28.865-18.648-32.953-16.349-36.782 31.393-36.782 31.393 8.557 4.63 13.666 17.147c0 0 26.311-27.333 27.716-26.055s33.974 27.971 41.255 26.183a12.3 12.3 0 009.705-13.288z" fill="#da2032"/>
          <path d="M84.363 87.263c-.958-.192-28.228-10.985-28.228-10.985l23.63 18.457zM14.752 85.184c-1.479.771 2.275 5.987 5.173 9.548 6.995 8.594 8.278 7.965 8.494 7.6 1.086-1.844-.926-6.514-6.386-11.783-4.848-4.678-6.547-5.748-7.281-5.365z" fill="#1a1a1a"/>
          <path d="M28.355 102.411l-6.322 5.668s-6.514-2.682-8.717-6.227a12.925 12.925 0 01-2.012-6.9l6.514-5.844c5.747 2.941 10.309 8.561 10.537 13.303z" fill="#ffc9af"/>
          <path d="M25.098 105.396s-7.089.479-9.2-3.64a23.525 23.525 0 01-2.2-9l-12.166-.767 16.956 19.446z" fill="#0e004b"/>
          <path d="M1.535 91.985L.002 93.326l16.764 19.542 1.724-1.437z" fill="#a29dce"/>
          <path d="M85.383 83.683s-30.909 8.685-38.828 14.944-4.087 21.713 7.28 43.809c0 0 9.2-9.324 19.414-7.28 0 0-10.09-22.479-9.2-22.99s27.716-6.258 34.613-10.09 1.41-20.947-13.279-18.393z" fill="#da2032"/>
          <path d="M52.559 162.489l.894 1.98 25.545-11.08-.894-1.884z" fill="#a29dce"/>
          <path d="M73.249 135.157s.415 1.9-8.637 5.4c-9.1 3.515-10.724 2.733-10.777 1.884-.128-2.044 5.6-5.141 8.861-6.386 3.24-1.246 7.935-1.697 10.553-.898z" fill="#1a1a1a"/>
          <path d="M53.836 142.436l3.576 7.28a11.9 11.9 0 0010.346.255 10.762 10.762 0 006.259-7.408l-2.81-6.578a25.9 25.9 0 00-17.371 6.451z" fill="#ffc9af"/>
          <path d="M73.378 141.417l4.726 10.09-25.545 10.984 4.853-12.772s9.963 3.574 15.966-8.302z" fill="#0e004b"/>
          <g transform="translate(68.268)">
            <path d="M37.423 46.516s-7.663-3.959-12.389-16.349c-3.953-10.362-2.682-17.881-2.682-17.881s-3.959 1.4-6-1.788a49.1 49.1 0 001.788 27.333c5.492 14.816 11.878 17.626 11.878 17.626z" fill="#527fed"/>
            <path d="M43.81 50.348c1.916 1.15 3.672 4.055 3.161 10.7s-5.172 14.848-5.907 21.489c-.545 4.93.958 9.835-2.108 9.963s-14.048-4.853-19.03-11.75c-2.375-3.289-4.472-10.858-4.472-10.858s13.283-23.373 21.2-24.523 7.156 4.979 7.156 4.979z" fill="#527fed"/>
            <path d="M17.754 68.421s4.965 4.263 14.369 3.3c10.346-1.053 9.771-7.967 9.771-7.967z" fill="#1a1a1a"/>
            <path d="M39.339 55.84c-.383.128-4.215 6.514-19.925 4.47s-18.392-4.6-18.392-4.6L0 60.18s12.134 9.963 27.205 10.09 14.433-2.427 14.944-6.386-2.81-8.044-2.81-8.044z" fill="#527fed"/>
            <path d="M22.256 60.663s8.909 1.054 15.518-3.736" fill="none" stroke="#1a1a1a" stroke-linecap="round" stroke-linejoin="round" stroke-width="1.235"/>
            <path d="M43.235 37.895c-.287.191-6.578 7.472-6.578 7.472s-.894 3.513 1.6 4.758a8.22 8.22 0 005.556.223l2.682-10.282zM40.361 29.273a7.7 7.7 0 00-3.065 7.983c.958 5.428 5.652.319 5.652.319s4.343-5.875 2.139-7.152a9.569 9.569 0 00-4.726-1.15z" fill="#ffc9af"/>
            <path d="M38.318 29.848a4.624 4.624 0 01-1.979-4.151c.458-3.375 4.917-4.023 7.217-1.788 0 0 4.6-1.4 5.045 4.151a4.354 4.354 0 011.149 5.875s.383 6.514-3.9 7.089c0 0-1.341.192-2.618-2.235a3.98 3.98 0 01-2.4 3.928c-2.171.894-4.917.383-5.588-1.724-.632-1.987 2.044-3.736 2.044-3.736s4.374 1.788 5.652-.638c1.45-2.755.746-4.677-.287-5.492-1.206-.96-3.122-.449-4.335-1.279z" fill="#e54c1d"/>
            <ellipse cx="1.628" cy="1.302" rx="1.628" ry="1.302" transform="rotate(-38.079 70.544 -43.153)" fill="#ffc9af"/>
            <path d="M16.349 10.498s1.469-8.747 1.98-9.2a.98.98 0 011.149-.215S19.701.037 20.532.005s.8 1.429.8 1.429a.9.9 0 01.99-.032c.543.319.351 5.811.351 5.811s1.916-3.672 3.608-2.682c0 0-3.672 7.5-3.927 7.76a4.163 4.163 0 01-3.385.575 4.556 4.556 0 01-2.62-2.368z" fill="#ffc9af"/>
            <path d="M19.478 1.174c0-.1-.982 4.527-.982 4.527M21.33 1.43l-.942 4.391M17.658 6.698a8.946 8.946 0 014.024.287M22.671 7.209l-.255 1.692" fill="none" stroke="#e77f76" stroke-linecap="round" stroke-linejoin="round" stroke-width="1.235"/>
            <path d="M26.95 53.094s4.215-5.684 8.877-7.408" fill="none" stroke="#1a1a1a" stroke-linecap="round" stroke-linejoin="round" stroke-width="1.235"/>
          </g>
          <circle cx="4.31" cy="4.31" r="4.31" transform="translate(6.803 134.226)" fill="#f4f4f4"/>
          <path fill="none" stroke="#b50d25" stroke-linecap="round" stroke-linejoin="round" stroke-width="2.276" d="M27.653 92.434l18.201-17.243M48.345 73.275l4.277-3.921a4.574 4.574 0 015.594-.456l22.507 14.718"/>
        </g>
        <path fill="none" stroke="#e54c1d" stroke-linecap="round" stroke-linejoin="round" stroke-width="2.276" d="M42.404 245.161l-9.579 53.261"/>
        <g transform="translate(24.908)">
          <path d="M113.737 47.854s7.754 2.082 12.964 12.147 5.507 22.02 5.278 22.358-.97-.116-.97-.116.028 1.984-.535 2.156-1.286-1.693-1.286-1.693.077 2.62-.75 2.685-1.348-7.389-1.882-6.835-.194 2.834-2.4 3.327c-.1-.44 1.352-7.665 1.352-7.665s-1.882-13.369-14.7-15.95c-.001.001-3.886-7.893 2.929-10.414z" fill="#b78569"/>
          <path d="M113.732 47.854c-.093.034-.176.073-.265.11-.6 1.556-2.265 5.879-3.279 8.674a11.687 11.687 0 00.613 1.632c.148.03.287.068.432.1.823-.437 3.989-2.505 5.627-9.1a14.544 14.544 0 00-3.128-1.416z" fill="#1a1a1a"/>
          <path d="M96.463 81.207a23.162 23.162 0 008.122 7.386 22.191 22.191 0 0011.793 2.726c4.063-.271 6.4-.5 6.436-.025s-2.551 1.161-2.551 1.161 2.883.014 2.94.73-3.176 1.162-3.176 1.162 2.112-.021 1.962.519-2.812 1.518-8.821 1.461-20.344-2.728-27.2-12.279c-4.755-6.633 10.495-2.841 10.495-2.841z" fill="#b78569"/>
          <path d="M85.972 84.048a21.722 21.722 0 002.393 2.784c6.132-1.174 8.4-5.179 8.4-5.179l-.259-.386-.038-.06-11.249 1.508a5.941 5.941 0 00.753 1.333z" fill="#1a1a1a"/>
          <path d="M78.142 48.532l6.632-6.093L65.516 17.43l14.5-1.33s-6.487-4.3-3.974-13.909c0 0-26.874.379-30.346 7.57-3.447 7.142 10.233 25.135 32.446 38.771z" fill="#da2032"/>
          <path d="M65.968 33.843S52.393 18.91 54.09 13.918c1.086-3.193 10.473-3.321 10.473-3.321M66.99 10.278l6.131-.575" fill="none" stroke="#b50d25" stroke-linecap="round" stroke-linejoin="round" stroke-width="2.276"/>
          <path d="M49.442 23.208c.286-.023 22.8 13.873 22.8 13.873-6.978.868-5.784 3.432-5.784 3.432z" fill="#1a1a1a"/>
          <path d="M69.809 57.45L15.703 16.919s7.348.576 14.209-9.955l49.7 40.749z" fill="#da2032"/>
          <path d="M15.703 16.919s.042-1.515 6.011-5.853a24.447 24.447 0 018.2-4.1 18.248 18.248 0 01-6.606 7.245c-4.993 3.336-7.605 2.708-7.605 2.708z" fill="#1a1a1a"/>
          <path d="M15.703 16.916L3.269 5.4s12.767-1.386 14.641-.764a11.819 11.819 0 013.751 2.492l3.62 3.271s-1.024 2.87-9.578 6.517z" fill="#b78569"/>
          <path d="M7.316 9.217s2.178-2.861 8.319-3.375a12.01 12.01 0 016.026 1.289l1.162-5.6C22.243 1.48.069 2.58.069 2.58z" fill="#1a1a1a"/>
          <path d="M.069 2.579L0 .887 22.735 0l.088 1.531z" fill="#f6c32c"/>
          <path d="M76.043 2.191a13.379 13.379 0 013.223 6.377 22.6 22.6 0 01.751 7.532s-3.255-1.474-4.35-6.449.376-7.46.376-7.46z" fill="#1a1a1a"/>
          <path d="M80.017 16.101l13.065-1.265s-4.315-6-6.068-6.923a66.9 66.9 0 00-6.392-2.477l-3.926.788a15.155 15.155 0 003.321 9.877z" fill="#b78569"/>
          <path d="M80.287 5.462l2.591-3.711 18.67 12.612-14.38 1.032s.787-4.049-1.564-6.459a16.224 16.224 0 00-5.317-3.474z" fill="#1a1a1a"/>
          <path d="M82.879 1.751l1.03-1.57 18.49 12.77-.85 1.412z" fill="#f6c32c"/>
          <path d="M91.138 47.61s-3.9-4.4-6.363-5.17c0 0-3.93.116-10.254 6.473S69.81 57.45 69.81 57.45s7.071 6.844 9.232 7.443c0 0-3.213 8.035 3.191 21.081 0 0 9.645-.757 14.231-4.768 0 0-9.142-11.2-3.5-17.694s17.845-5.244 17.845-5.244a17.121 17.121 0 005.286-12.234s-9.056-6.398-24.957 1.576z" fill="#527fed"/>
          <path d="M113.175 91.521l5.958-2.437a.981.981 0 01-.42 1.378c-.918.552-2.72 1.462-2.72 1.462s-2.68.74-2.818-.403z" fill="#b78569"/>
          <circle cx="6.322" cy="6.322" r="6.322" transform="translate(99.792 63.173)" fill="#b78569"/>
          <path d="M111.923 65.697s-2.3-6.755-10.831-9.132a48.862 48.862 0 00-10.946-1.991 4.53 4.53 0 00-1.613 3.979 3.331 3.331 0 01-.786 2.038 2.808 2.808 0 00-.405.777c-.36 1.192.567 2.338 1.09 3.468a5.652 5.652 0 01.347 3.721 19.461 19.461 0 00-.863 2.939 3.61 3.61 0 00.7 2.422 5.392 5.392 0 001.018 1s12.183-7.81 16.2-7.228l-2.081 2.661s6.956 3.118 8.4 1.877c1.58-1.366 1.889-5.471-.23-6.531z" fill="#1a1a1a"/>
          <ellipse cx="1.783" cy="1.265" rx="1.783" ry="1.265" transform="rotate(-72.926 97.578 -33.682)" fill="#b78569"/>
        </g>
        <path d="M155.909 82.164s-.1-2.3-.424-4.387M154.094 82.707s-.282-2.78-.6-4.373M145.171 92.455a22.743 22.743 0 01-2.88.242M144.935 94.347a22.171 22.171 0 01-2.658.208" fill="none" stroke="#92684f" stroke-linecap="round" stroke-linejoin="round" stroke-width="1.235"/>
        <path d="M296.53 99.132s2.119 8.712-.942 13.421M300.061 107.844a10.418 10.418 0 016.475-2.855" fill="none" stroke="#e54c1d" stroke-linecap="round" stroke-linejoin="round" stroke-width="2.276"/>
        <circle cx="3.708" cy="3.708" r="3.708" transform="translate(276.515 23.315)" fill="#f0f0f0"/>
        <circle cx="3.708" cy="3.708" r="3.708" transform="translate(266.626 23.315)" fill="#fff"/>
        <circle cx="3.708" cy="3.708" r="3.708" transform="translate(256.737 23.315)" fill="#d8d8d8"/>
      </g>
    </g>
  </g>
</svg>