<svg xmlns="http://www.w3.org/2000/svg" width="74.961" height="79.495" viewBox="0 0 74.961 79.495"><g transform="translate(-65.664 -248.583)"><g transform="translate(65.729 280.198)"><path d="M103.2,351.485l16.373-8.162L82.109,324.645l-16.272,8.11Z" transform="translate(-65.783 -303.605)" fill="#00ebe5"/><path d="M124.325,331.588l16.314-8.133-58.567-29.2-16.314,8.133Z" transform="translate(-65.759 -294.252)" fill="#00ebe5"/><path d="M143.018,310.528l16.326-8.142-16.314-8.133L126.7,302.395Z" transform="translate(-84.514 -294.252)" fill="#00ebe5"/></g><g transform="translate(65.664 248.583)"><path d="M81.988,263.823l-16.324,8.137,37.479,18.688,16.326-8.142Z" transform="translate(-65.664 -253.273)" fill="#37eb77"/><path d="M143.03,280.124l16.379-8.163-16.323-8.138L126.7,271.986Z" transform="translate(-84.448 -253.273)" fill="#37eb77"/><path d="M112.523,248.583l-16.379,8.168,16.381,8.163,16.379-8.163Z" transform="translate(-75.044 -248.583)" fill="#37eb77"/></g></g></svg>