<svg xmlns="http://www.w3.org/2000/svg" viewBox="0 0 40 40"><g fill="#2e2d38" stroke="#5b596e" stroke-width="1"><rect width="40" height="40" rx="10" stroke="none"/><rect x="0.5" y="0.5" width="39" height="39" rx="9.5" fill="none"/></g><g transform="translate(11 11)"><path d="M5.8,7.6H4V20.2A1.8,1.8,0,0,0,5.8,22H18.4V20.2H5.8ZM20.2,4H9.4A1.8,1.8,0,0,0,7.6,5.8V16.6a1.8,1.8,0,0,0,1.8,1.8H20.2A1.8,1.8,0,0,0,22,16.6V5.8A1.8,1.8,0,0,0,20.2,4Zm-.9,8.1h-9V10.3h9Zm-3.6,3.6H10.3V13.9h5.4Zm3.6-7.2h-9V6.7h9Z" transform="translate(-4 -4)" fill="#5b596e"/></g></svg>
