<svg viewBox="0 0 40 40" xmlns="http://www.w3.org/2000/svg"><g fill="#2e2d38" stroke="#5b596e"><rect height="40" rx="10" stroke="none" width="40"/><rect fill="none" height="39" rx="9.5" width="39" x=".5" y=".5"/></g><path d="m5.8 7.6h-1.8v12.6a1.8 1.8 0 0 0 1.8 1.8h12.6v-1.8h-12.6zm14.4-3.6h-10.8a1.8 1.8 0 0 0 -1.8 1.8v10.8a1.8 1.8 0 0 0 1.8 1.8h10.8a1.8 1.8 0 0 0 1.8-1.8v-10.8a1.8 1.8 0 0 0 -1.8-1.8zm-.9 8.1h-9v-1.8h9zm-3.6 3.6h-5.4v-1.8h5.4zm3.6-7.2h-9v-1.8h9z" fill="#5b596e" transform="translate(7 7)"/></svg>