<svg xmlns="http://www.w3.org/2000/svg" xmlns:xlink="http://www.w3.org/1999/xlink" width="24" height="18" viewBox="0 0 24 18">
  <defs>
    <clipPath id="clip-path">
      <rect width="24" height="18" fill="none"/>
    </clipPath>
    <clipPath id="clip-path-2">
      <path id="Path_60" data-name="Path 60" d="M2.574-8.293A18.513,18.513,0,0,0,4.6-5.684C6.776-3.368,9.255-2,12-2s5.224-1.368,7.4-3.684a18.514,18.514,0,0,0,2.03-2.609c.163-.253.308-.49.434-.707-.126-.218-.271-.455-.434-.707a18.513,18.513,0,0,0-2.03-2.609C17.224-14.632,14.745-16,12-16s-5.224,1.368-7.4,3.684a18.513,18.513,0,0,0-2.03,2.609c-.163.253-.308.49-.434.707C2.267-8.782,2.411-8.545,2.574-8.293ZM.106-9.447a15.189,15.189,0,0,1,.789-1.345,20.493,20.493,0,0,1,2.251-2.891C5.661-16.368,8.62-18,12-18s6.339,1.632,8.855,4.316a20.493,20.493,0,0,1,2.251,2.891,15.189,15.189,0,0,1,.789,1.345,1,1,0,0,1,0,.894,15.188,15.188,0,0,1-.789,1.345,20.492,20.492,0,0,1-2.251,2.891C18.339-1.632,15.38,0,12,0S5.661-1.632,3.145-4.316A20.492,20.492,0,0,1,.894-7.207,15.188,15.188,0,0,1,.106-8.553,1,1,0,0,1,.106-9.447ZM12-6A3,3,0,0,1,9-9a3,3,0,0,1,3-3,3,3,0,0,1,3,3A3,3,0,0,1,12-6Z" fill="#00ebe5"/>
    </clipPath>
    <clipPath id="clip-path-3">
      <rect id="Rectangle_76" data-name="Rectangle 76" width="34" height="28" transform="translate(-5 -23)" fill="#00ebe5"/>
    </clipPath>
    <clipPath id="clip-path-4">
      <path id="Path_59" data-name="Path 59" d="M0,0H24V-18H0Z" fill="#00ebe5"/>
    </clipPath>
  </defs>
  <g id="icon_eye_empty" clip-path="url(#clip-path)">
    <g id="icon_eye_empty-2" data-name="icon_eye_empty" transform="translate(0 18)" clip-path="url(#clip-path-2)">
      <g id="Group_61" data-name="Group 61" clip-path="url(#clip-path-3)">
        <g id="Group_60" data-name="Group 60" clip-path="url(#clip-path-4)">
          <path id="Path_58" data-name="Path 58" d="M-5-23H29V5H-5Z" fill="#00ebe5"/>
        </g>
      </g>
    </g>
  </g>
</svg>
