<svg xmlns="http://www.w3.org/2000/svg" viewBox="0 0 40 40"><rect width="40" height="40" rx="20" fill="#00ebe5"/><g transform="translate(9.743 13.307)"><path d="M5.02,0H.558A.558.558,0,0,0,0,.558V5.02a.558.558,0,0,0,.558.558H5.02a.558.558,0,0,0,.558-.558V.558A.558.558,0,0,0,5.02,0Z" fill="#2e2d38"/><path d="M19.02,0H14.558A.558.558,0,0,0,14,.558V5.02a.558.558,0,0,0,.558.558H19.02a.558.558,0,0,0,.558-.558V.558A.558.558,0,0,0,19.02,0Z" transform="translate(-6.191)" fill="#2e2d38"/><path d="M19.02,0H14.558A.558.558,0,0,0,14,.558V5.02a.558.558,0,0,0,.558.558H19.02a.558.558,0,0,0,.558-.558V.558A.558.558,0,0,0,19.02,0Z" transform="translate(1.764)" fill="#2e2d38"/><path d="M5.02,14H.558A.558.558,0,0,0,0,14.558V19.02a.558.558,0,0,0,.558.558H5.02a.558.558,0,0,0,.558-.558V14.558A.558.558,0,0,0,5.02,14Z" transform="translate(0 -6.191)" fill="#2e2d38"/><path d="M19.02,14H14.558a.558.558,0,0,0-.558.558V19.02a.558.558,0,0,0,.558.558H19.02a.558.558,0,0,0,.558-.558V14.558A.558.558,0,0,0,19.02,14Z" transform="translate(-6.191 -6.191)" fill="#2e2d38"/><path d="M19.02,14H14.558a.558.558,0,0,0-.558.558V19.02a.558.558,0,0,0,.558.558H19.02a.558.558,0,0,0,.558-.558V14.558A.558.558,0,0,0,19.02,14Z" transform="translate(1.764 -6.191)" fill="#2e2d38"/></g></svg>
