<svg xmlns="http://www.w3.org/2000/svg" xmlns:xlink="http://www.w3.org/1999/xlink" width="13.5" height="3" viewBox="0 0 13.5 3"><defs><clipPath id="a"><path d="M6.75,3a1.5,1.5,0,1,1,1.5-1.5A1.5,1.5,0,0,1,6.75,3ZM12,3a1.5,1.5,0,1,1,1.5-1.5A1.5,1.5,0,0,1,12,3ZM1.5,3A1.5,1.5,0,1,1,3,1.5,1.5,1.5,0,0,1,1.5,3Z" fill="none"/></clipPath><clipPath id="b"><rect width="21" height="10.5" fill="none"/></clipPath><clipPath id="c"><path d="M0,3H13.5V0H0Z" fill="none"/></clipPath></defs><g transform="translate(13.5 3) rotate(180)" clip-path="url(#a)"><g transform="translate(-3.75 -3.75)" clip-path="url(#b)"><g transform="translate(3.75 3.75)" clip-path="url(#c)"><path d="M0,0H21V10.5H0Z" transform="translate(-3.75 -3.75)"/></g></g></g></svg>