<svg xmlns="http://www.w3.org/2000/svg" xmlns:xlink="http://www.w3.org/1999/xlink" viewBox="0 0 40 40"><defs><clipPath id="a"><path d="M13-8a5,5,0,0,1,5,5v2a1,1,0,0,1-1,1,1,1,0,0,1-1-1V-3a3,3,0,0,0-3-3H5A3,3,0,0,0,2-3v2A1,1,0,0,1,1,0,1,1,0,0,1,0-1V-3A5,5,0,0,1,5-8ZM9-20a5,5,0,0,1,5,5,5,5,0,0,1-5,5,5,5,0,0,1-5-5A5,5,0,0,1,9-20Zm0,2a3,3,0,0,0-3,3,3,3,0,0,0,3,3,3,3,0,0,0,3-3A3,3,0,0,0,9-18Z" fill="#5b596e"/></clipPath><clipPath id="b"><rect width="28" height="30" transform="translate(-5 -25)" fill="#5b596e"/></clipPath><clipPath id="c"><path d="M0,0H18V-20H0Z" fill="#5b596e"/></clipPath></defs><g fill="#2e2d38" stroke="#5b596e" stroke-width="1"><rect width="40" height="40" rx="20" stroke="none"/><rect x="0.5" y="0.5" width="39" height="39" rx="19.5" fill="none"/></g><g transform="translate(11 10)"><g transform="translate(0 20)" clip-path="url(#a)"><g clip-path="url(#b)"><g clip-path="url(#c)"><path d="M-5-25H23V5H-5Z" fill="#5b596e"/></g></g></g></g></svg>