<svg xmlns="http://www.w3.org/2000/svg" width="24.041" height="25.495" viewBox="0 0 24.041 25.495"><g transform="translate(-65.664 -248.583)"><g transform="translate(65.685 258.722)"><path d="M77.82,333.253l5.251-2.618-12.015-5.99-5.218,2.6Z" transform="translate(-65.82 -317.897)" fill="#00ebe5"/><path d="M84.542,306.226l5.232-2.608-18.783-9.366-5.232,2.608Z" transform="translate(-65.759 -294.252)" fill="#00ebe5"/><path d="M131.936,299.472l5.236-2.611-5.232-2.608-5.236,2.611Z" transform="translate(-113.173 -294.252)" fill="#00ebe5"/></g><g transform="translate(65.664 248.583)"><path d="M70.9,263.823l-5.235,2.61,12.02,5.993,5.236-2.611Z" transform="translate(-65.664 -260.44)" fill="#37eb77"/><path d="M131.941,269.051l5.253-2.618-5.235-2.61-5.254,2.618Z" transform="translate(-113.153 -260.44)" fill="#37eb77"/><path d="M101.4,248.583l-5.253,2.62,5.254,2.618,5.253-2.618Z" transform="translate(-89.377 -248.583)" fill="#37eb77"/></g></g></svg>