<svg xmlns="http://www.w3.org/2000/svg" width="60.8" height="60.8" viewBox="0 0 60.8 60.8"><g transform="translate(-99.6 -104.6)"><path d="M59,21V19a6.007,6.007,0,0,0-6-6V11a6.007,6.007,0,0,0-6-6H23a6.007,6.007,0,0,0-6,6v2a6.007,6.007,0,0,0-6,6v2a6.007,6.007,0,0,0-6,6V59a6.007,6.007,0,0,0,6,6H59a6.007,6.007,0,0,0,6-6V27A6.007,6.007,0,0,0,59,21ZM21,11a2,2,0,0,1,2-2H47a2,2,0,0,1,2,2v2H21Zm-6,8a2,2,0,0,1,2-2H53a2,2,0,0,1,2,2v2H15ZM61,59a2,2,0,0,1-2,2H11a2,2,0,0,1-2-2V27a2,2,0,0,1,2-2H59a2,2,0,0,1,2,2Z" transform="translate(95 100)" fill="#141229" stroke="#9e99ba" stroke-width="0.8"/></g></svg>