<svg xmlns="http://www.w3.org/2000/svg" width="40" height="40" viewBox="0 0 40 40"><g transform="translate(-20 -414)"><rect width="40" height="40" rx="10" transform="translate(20 414)" fill="#00ebe5"/><g transform="translate(27 421)"><g transform="translate(4 4)"><path d="M5.8,7.6H4V20.2A1.8,1.8,0,0,0,5.8,22H18.4V20.2H5.8ZM20.2,4H9.4A1.8,1.8,0,0,0,7.6,5.8V16.6a1.8,1.8,0,0,0,1.8,1.8H20.2A1.8,1.8,0,0,0,22,16.6V5.8A1.8,1.8,0,0,0,20.2,4Zm-.9,8.1h-9V10.3h9Zm-3.6,3.6H10.3V13.9h5.4Zm3.6-7.2h-9V6.7h9Z" transform="translate(-4 -4)" fill="#2e2d38"/></g></g></g></svg>