<svg xmlns="http://www.w3.org/2000/svg" width="53.684" height="60" viewBox="0 0 53.684 60"><g transform="translate(93 1)"><g transform="translate(-93 -1)"><g transform="translate(-4 -2)" fill="#141229"><path d="M 45.05209732055664 61.25 C 44.40870666503906 61.25 43.80440902709961 60.9993782043457 43.35048675537109 60.54431915283203 L 37.03411865234375 54.22792816162109 C 36.578369140625 53.77333831787109 36.3277473449707 53.16902923583984 36.3277473449707 52.52565002441406 C 36.3277473449707 51.88226699829102 36.578369140625 51.27795791625977 37.03343963623047 50.82405853271484 C 37.48870849609375 50.36763000488281 38.09300994873047 50.11700820922852 38.73638916015625 50.11700820922852 C 39.37976837158203 50.11700820922852 39.98406982421875 50.36763000488281 40.4379768371582 50.82270050048828 L 44.52177047729492 54.90649032592773 L 45.05209732055664 55.43681716918945 L 45.58242797851562 54.90649032592773 L 52.82338714599609 47.66551971435547 C 53.27797698974609 47.20977020263672 53.88227844238281 46.95914840698242 54.52565765380859 46.95914840698242 C 55.16903686523438 46.95914840698242 55.77333831787109 47.20977020263672 56.22724914550781 47.66484069824219 C 56.68367767333984 48.12010955810547 56.93429946899414 48.72441864013672 56.93429946899414 49.3677978515625 C 56.93429946899414 50.01117706298828 56.68367767333984 50.6154899597168 56.22860717773438 51.06938934326172 L 46.75436782836914 60.54364013671875 C 46.29978942871094 60.9993896484375 45.69548034667969 61.25 45.05209732055664 61.25 Z M 26.1049690246582 58.09135818481445 L 13.47355842590332 58.09135818481445 C 8.663368225097656 58.09135818481445 4.749998569488525 54.1779899597168 4.749998569488525 49.3677978515625 L 4.749998569488525 11.47355842590332 C 4.749998569488525 6.663368701934814 8.663368225097656 2.749998807907104 13.47355842590332 2.749998807907104 L 45.05209732055664 2.749998807907104 C 49.86228942871094 2.749998807907104 53.77565765380859 6.663368701934814 53.77565765380859 11.47355842590332 L 53.77565765380859 36.73638916015625 C 53.77565765380859 38.06407928466797 52.69549942016602 39.14423751831055 51.3677978515625 39.14423751831055 C 50.04010772705078 39.14423751831055 48.9599494934082 38.06407928466797 48.9599494934082 36.73638916015625 L 48.9599494934082 11.47355842590332 C 48.9599494934082 9.318758964538574 47.2068977355957 7.565708637237549 45.05209732055664 7.565708637237549 L 13.47355842590332 7.565708637237549 C 11.31875896453857 7.565708637237549 9.565708160400391 9.318758964538574 9.565708160400391 11.47355842590332 L 9.565708160400391 49.3677978515625 C 9.565708160400391 51.52259826660156 11.31875896453857 53.27565002441406 13.47355842590332 53.27565002441406 L 26.1049690246582 53.27565002441406 C 27.43266868591309 53.27565002441406 28.5128288269043 54.35580825805664 28.5128288269043 55.68349838256836 C 28.5128288269043 57.01119995117188 27.43266868591309 58.09135818481445 26.1049690246582 58.09135818481445 Z M 32.42067718505859 45.45993804931641 L 19.78926849365234 45.45993804931641 C 18.46156883239746 45.45993804931641 17.38140869140625 44.37977981567383 17.38140869140625 43.05208969116211 C 17.38140869140625 41.72439956665039 18.46156883239746 40.64423751831055 19.78926849365234 40.64423751831055 L 32.42067718505859 40.64423751831055 C 33.74836730957031 40.64423751831055 34.82852935791016 41.72439956665039 34.82852935791016 43.05208969116211 C 34.82852935791016 44.37977981567383 33.74836730957031 45.45993804931641 32.42067718505859 45.45993804931641 Z M 38.73638916015625 32.82852935791016 L 19.78926849365234 32.82852935791016 C 18.46156883239746 32.82852935791016 17.38140869140625 31.74836921691895 17.38140869140625 30.42067909240723 C 17.38140869140625 29.09298896789551 18.46156883239746 28.0128288269043 19.78926849365234 28.0128288269043 L 38.73638916015625 28.0128288269043 C 40.06407928466797 28.0128288269043 41.14423751831055 29.09298896789551 41.14423751831055 30.42067909240723 C 41.14423751831055 31.74836921691895 40.06407928466797 32.82852935791016 38.73638916015625 32.82852935791016 Z M 38.73638916015625 20.19711875915527 L 19.78926849365234 20.19711875915527 C 18.46156883239746 20.19711875915527 17.38140869140625 19.11695861816406 17.38140869140625 17.78926849365234 C 17.38140869140625 16.46156883239746 18.46156883239746 15.38140869140625 19.78926849365234 15.38140869140625 L 38.73638916015625 15.38140869140625 C 40.06407928466797 15.38140869140625 41.14423751831055 16.46156883239746 41.14423751831055 17.78926849365234 C 41.14423751831055 19.11695861816406 40.06407928466797 20.19711875915527 38.73638916015625 20.19711875915527 Z" stroke="none"/><path d="M 45.05209732055664 60.5 C 45.49478912353516 60.5 45.91050720214844 60.32764053344727 46.22403717041016 60.01330947875977 L 55.69895935058594 50.53837966918945 C 56.01194000244141 50.2262077331543 56.18429946899414 49.81048965454102 56.18429946899414 49.3677978515625 C 56.18429946899414 48.92510986328125 56.01194000244141 48.5093879699707 55.69623947143555 48.19448852539062 C 55.38406753540039 47.88150787353516 54.96834945678711 47.70914840698242 54.52565765380859 47.70914840698242 C 54.08296966552734 47.70914840698242 53.6672477722168 47.88150787353516 53.35371780395508 48.19585037231445 L 46.11275863647461 55.43681716918945 L 45.05209732055664 56.49747848510742 L 43.99143981933594 55.43681716918945 L 39.90696716308594 51.35234832763672 C 39.59479904174805 51.03936767578125 39.1790771484375 50.86700820922852 38.73638916015625 50.86700820922852 C 38.29369735717773 50.86700820922852 37.87797927856445 51.03936767578125 37.56308746337891 51.35506820678711 C 37.25010681152344 51.66724014282227 37.0777473449707 52.08295822143555 37.0777473449707 52.52565002441406 C 37.0777473449707 52.96833801269531 37.25010681152344 53.38405990600586 37.56444931030273 53.69759750366211 L 43.88150024414062 60.0146598815918 C 44.19367980957031 60.32764053344727 44.60940933227539 60.5 45.05209732055664 60.5 M 26.1049690246582 57.34135818481445 C 27.01911926269531 57.34135818481445 27.7628288269043 56.59764862060547 27.7628288269043 55.68349838256836 C 27.7628288269043 54.76935958862305 27.01911926269531 54.02565002441406 26.1049690246582 54.02565002441406 L 13.47355842590332 54.02565002441406 C 10.90520858764648 54.02565002441406 8.815708160400391 51.93614959716797 8.815708160400391 49.3677978515625 L 8.815708160400391 11.47355842590332 C 8.815708160400391 8.905208587646484 10.90520858764648 6.815708637237549 13.47355842590332 6.815708637237549 L 45.05209732055664 6.815708637237549 C 47.62044906616211 6.815708637237549 49.7099494934082 8.905208587646484 49.7099494934082 11.47355842590332 L 49.7099494934082 36.73638916015625 C 49.7099494934082 37.65052795410156 50.45365905761719 38.39423751831055 51.3677978515625 38.39423751831055 C 52.28194808959961 38.39423751831055 53.02565765380859 37.65052795410156 53.02565765380859 36.73638916015625 L 53.02565765380859 11.47355842590332 C 53.02565765380859 7.076918601989746 49.44873809814453 3.499998807907104 45.05209732055664 3.499998807907104 L 13.47355842590332 3.499998807907104 C 9.076918601989746 3.499998807907104 5.499998569488525 7.076918601989746 5.499998569488525 11.47355842590332 L 5.499998569488525 49.3677978515625 C 5.499998569488525 53.76443862915039 9.076918601989746 57.34135818481445 13.47355842590332 57.34135818481445 L 26.1049690246582 57.34135818481445 M 32.42067718505859 44.70993804931641 C 33.33481979370117 44.70993804931641 34.07852935791016 43.96622848510742 34.07852935791016 43.05208969116211 C 34.07852935791016 42.13794708251953 33.33481979370117 41.39423751831055 32.42067718505859 41.39423751831055 L 19.78926849365234 41.39423751831055 C 18.87511825561523 41.39423751831055 18.13140869140625 42.13794708251953 18.13140869140625 43.05208969116211 C 18.13140869140625 43.96622848510742 18.87511825561523 44.70993804931641 19.78926849365234 44.70993804931641 L 32.42067718505859 44.70993804931641 M 38.73638916015625 32.07852935791016 C 39.65052795410156 32.07852935791016 40.39423751831055 31.33481788635254 40.39423751831055 30.42067909240723 C 40.39423751831055 29.50653839111328 39.65052795410156 28.7628288269043 38.73638916015625 28.7628288269043 L 19.78926849365234 28.7628288269043 C 18.87511825561523 28.7628288269043 18.13140869140625 29.50653839111328 18.13140869140625 30.42067909240723 C 18.13140869140625 31.33481788635254 18.87511825561523 32.07852935791016 19.78926849365234 32.07852935791016 L 38.73638916015625 32.07852935791016 M 38.73638916015625 19.44711875915527 C 39.65052795410156 19.44711875915527 40.39423751831055 18.70340919494629 40.39423751831055 17.78926849365234 C 40.39423751831055 16.87511825561523 39.65052795410156 16.13140869140625 38.73638916015625 16.13140869140625 L 19.78926849365234 16.13140869140625 C 18.87511825561523 16.13140869140625 18.13140869140625 16.87511825561523 18.13140869140625 17.78926849365234 C 18.13140869140625 18.70340919494629 18.87511825561523 19.44711875915527 19.78926849365234 19.44711875915527 L 38.73638916015625 19.44711875915527 M 45.05209732055664 62 C 44.24368667602539 62 43.43527221679688 61.69132232666016 42.81948852539062 61.07396697998047 L 36.50378799438477 54.75825881958008 C 35.26906967163086 53.52668762207031 35.26906967163086 51.52460861206055 36.50378799438477 50.29304885864258 C 37.11956787109375 49.67568969726562 37.927978515625 49.36700820922852 38.73638916015625 49.36700820922852 C 39.5447998046875 49.36700820922852 40.35321044921875 49.67568969726562 40.96899032592773 50.29304885864258 L 45.05209732055664 54.37615966796875 L 52.29306030273438 47.13518905639648 C 52.90884017944336 46.51782989501953 53.71724700927734 46.20914840698242 54.52565383911133 46.20914840698242 C 55.33406448364258 46.20914840698242 56.14247512817383 46.51782989501953 56.75825881958008 47.13518905639648 C 57.99297714233398 48.36676025390625 57.99297714233398 50.36883926391602 56.75825881958008 51.60039901733398 L 47.28469848632812 61.07396697998047 C 46.66891860961914 61.69132232666016 45.86050796508789 62 45.05209732055664 62 Z M 26.1049690246582 58.84135818481445 L 13.47355842590332 58.84135818481445 C 8.240998268127441 58.84135818481445 3.999998569488525 54.60035705566406 3.999998569488525 49.3677978515625 L 3.999998569488525 11.47355842590332 C 3.999998569488525 6.2409987449646 8.240998268127441 1.999998807907104 13.47355842590332 1.999998807907104 L 45.05209732055664 1.999998807907104 C 50.28466033935547 1.999998807907104 54.52565765380859 6.2409987449646 54.52565765380859 11.47355842590332 L 54.52565765380859 36.73638916015625 C 54.52565765380859 38.47951889038086 53.11093902587891 39.89423751831055 51.3677978515625 39.89423751831055 C 49.62466812133789 39.89423751831055 48.2099494934082 38.47951889038086 48.2099494934082 36.73638916015625 L 48.2099494934082 11.47355842590332 C 48.2099494934082 9.730428695678711 46.79522705078125 8.315709114074707 45.05209732055664 8.315709114074707 L 13.47355842590332 8.315709114074707 C 11.73042869567871 8.315709114074707 10.31570816040039 9.730428695678711 10.31570816040039 11.47355842590332 L 10.31570816040039 49.3677978515625 C 10.31570816040039 51.11093902587891 11.73042869567871 52.52565002441406 13.47355842590332 52.52565002441406 L 26.1049690246582 52.52565002441406 C 27.84810829162598 52.52565002441406 29.2628288269043 53.94036865234375 29.2628288269043 55.68349838256836 C 29.2628288269043 57.42663955688477 27.84810829162598 58.84135818481445 26.1049690246582 58.84135818481445 Z M 32.42067718505859 46.20993804931641 L 19.78926849365234 46.20993804931641 C 18.04612922668457 46.20993804931641 16.63140869140625 44.79522705078125 16.63140869140625 43.05208969116211 C 16.63140869140625 41.3089485168457 18.04612922668457 39.89423751831055 19.78926849365234 39.89423751831055 L 32.42067718505859 39.89423751831055 C 34.163818359375 39.89423751831055 35.57852935791016 41.3089485168457 35.57852935791016 43.05208969116211 C 35.57852935791016 44.79522705078125 34.163818359375 46.20993804931641 32.42067718505859 46.20993804931641 Z M 38.73638916015625 33.57852935791016 L 19.78926849365234 33.57852935791016 C 18.04612922668457 33.57852935791016 16.63140869140625 32.163818359375 16.63140869140625 30.42067909240723 C 16.63140869140625 28.67753791809082 18.04612922668457 27.2628288269043 19.78926849365234 27.2628288269043 L 38.73638916015625 27.2628288269043 C 40.47951889038086 27.2628288269043 41.89423751831055 28.67753791809082 41.89423751831055 30.42067909240723 C 41.89423751831055 32.163818359375 40.47951889038086 33.57852935791016 38.73638916015625 33.57852935791016 Z M 38.73638916015625 20.94711875915527 L 19.78926849365234 20.94711875915527 C 18.04612922668457 20.94711875915527 16.63140869140625 19.53240966796875 16.63140869140625 17.78926849365234 C 16.63140869140625 16.04612922668457 18.04612922668457 14.63140869140625 19.78926849365234 14.63140869140625 L 38.73638916015625 14.63140869140625 C 40.47951889038086 14.63140869140625 41.89423751831055 16.04612922668457 41.89423751831055 17.78926849365234 C 41.89423751831055 19.53240966796875 40.47951889038086 20.94711875915527 38.73638916015625 20.94711875915527 Z" stroke="none" fill="#acaac6"/></g></g></g></svg>