<svg xmlns="http://www.w3.org/2000/svg" xmlns:xlink="http://www.w3.org/1999/xlink" width="15" height="15" viewBox="0 0 15 15"><defs><clipPath id="a"><rect width="15" height="15" fill="none"/></clipPath><clipPath id="b"><path d="M7.5-7A7.5,7.5,0,0,1,0-14.5,7.5,7.5,0,0,1,7.5-22,7.5,7.5,0,0,1,15-14.5,7.5,7.5,0,0,1,7.5-7Zm0-1.364A6.136,6.136,0,0,0,13.636-14.5,6.136,6.136,0,0,0,7.5-20.636,6.136,6.136,0,0,0,1.364-14.5,6.136,6.136,0,0,0,7.5-8.364Zm.682-6.558,2.35,1.175a.682.682,0,0,1,.3.915.682.682,0,0,1-.915.3L7.2-13.89a.682.682,0,0,1-.377-.61v-4.091a.682.682,0,0,1,.682-.682.682.682,0,0,1,.682.682Z" transform="translate(0 22)" fill="#6b6a80"/></clipPath><clipPath id="c"><rect width="21.818" height="21.818" fill="#6b6a80"/></clipPath><clipPath id="d"><path d="M0-7H15V-22H0Z" transform="translate(0 22)" fill="#6b6a80"/></clipPath></defs><g clip-path="url(#a)"><g clip-path="url(#b)"><g transform="translate(-3.409 -3.409)" clip-path="url(#c)"><g transform="translate(3.409 3.409)" clip-path="url(#d)"><path d="M-5-27H16.818V-5.182H-5Z" transform="translate(1.591 23.591)" fill="#6b6a80"/></g></g></g></g></svg>