<svg xmlns="http://www.w3.org/2000/svg" xmlns:xlink="http://www.w3.org/1999/xlink" width="15" height="15" viewBox="0 0 15 15"><defs><clipPath id="a"><rect width="15" height="15" fill="none"/></clipPath><clipPath id="b"><path d="M8.438-9.437h5.625A.938.938,0,0,1,15-8.5a.938.938,0,0,1-.937.938H8.438v5.625A.938.938,0,0,1,7.5-1a.937.937,0,0,1-.937-.937V-7.562H.938A.937.937,0,0,1,0-8.5a.938.938,0,0,1,.938-.937H6.563v-5.625A.938.938,0,0,1,7.5-16a.938.938,0,0,1,.938.938Z" transform="translate(0 16)" fill="#6b6a80"/></clipPath><clipPath id="c"><rect width="24.375" height="24.375" fill="#6b6a80"/></clipPath><clipPath id="d"><path d="M0-1H15V-16H0Z" transform="translate(0 16)" fill="#6b6a80"/></clipPath></defs><g clip-path="url(#a)"><g clip-path="url(#b)"><g transform="translate(-4.688 -4.688)" clip-path="url(#c)"><g transform="translate(4.688 4.688)" clip-path="url(#d)"><path d="M-5-21H19.375V3.375H-5Z" transform="translate(0.313 16.313)" fill="#6b6a80"/></g></g></g></g></svg>