<svg xmlns="http://www.w3.org/2000/svg"
  xmlns:xlink="http://www.w3.org/1999/xlink" width="1152" height="351" viewBox="0 0 1152 351">
  <defs>
    <clipPath id="balances-hero-a">
      <path d="M10,0H1142a10,10,0,0,1,10,10V351a0,0,0,0,1,0,0H0a0,0,0,0,1,0,0V10A10,10,0,0,1,10,0Z" transform="translate(246 229)" fill="#ff0f0f"/>
    </clipPath>
  </defs>
  <g transform="translate(-246 -229)" clip-path="url(#balances-hero-a)">
    <g transform="translate(890.052 24.699)">
      <g transform="translate(-464.968 -0.466) rotate(-34)">
        <g transform="translate(310.105 684.693)">
          <path d="M460.017,2243.042a5.727,5.727,0,0,0-1.992,3.809c-.132.839-.9.954-1.475,1.1a2.464,2.464,0,0,0-1.362.557.957.957,0,0,1-.906.073,13.663,13.663,0,0,1-2.095-1.307,30.021,30.021,0,0,1-5.5-7,63.891,63.891,0,0,1-4.475-7.917c-.38-.869-.4-.863.559-1.538.776,1.475,1.5,2.974,2.336,4.4.664,1.135,1.468,2.188,2.277,3.375a1.1,1.1,0,0,0-.11-1.211,45.47,45.47,0,0,1-4.349-7.424l.66-.432.379.328v-.969l1.775-.353c.529.247.78,1.183,1.651,1.3-.028.947.8,1.418,1.216,2.111a22.356,22.356,0,0,0,1.711,2.239c.559-.074.977-.153,1.4-.182,1.481-.1,1.445-.058,2.368.757,1.025.9,1.727,2.168,3.049,2.743a.36.36,0,0,1,.184.256c.042.951.574,1.3,1.468,1.528.749.194.962.984,1,1.761C459.809,2241.65,459.919,2242.242,460.017,2243.042Z" transform="translate(-292.911 -2115.469)" fill="#a66dfa"/>
          <path d="M263.371,2078.239c1.06.53,1.06.53,1.631-.581.726-.249,1.6.252,2.258-.414a21.323,21.323,0,0,0,2.215.538c1.209.165,1.834,1.1,2.517,1.889.464.535.949,1.071,1.373,1.652.495.679,1.087,1.287,1.585,1.965.451.614.836,1.277,1.236,1.928a1.134,1.134,0,0,1,.237.591,1.407,1.407,0,0,0,.491,1.207c.69.7.637,1.719.876,2.588a7.7,7.7,0,0,1,.024,2.6c-.028.331-.071,1.037-.8.516-.052-.036-.306.235-.481.337s-.5.313-.565.257c-.769-.675-.956-.193-1.307.474-.517.982-.832.909-2.22.661-.844-.15-1.739-.177-2.234-.91-1.337-1.981-2.706-3.949-2.892-6.481a3.956,3.956,0,0,0-1.194-2.8c-.721-.628-1.2-1.528-2.184-1.878-.3-.106-.515-.46-.745-.721a2.893,2.893,0,0,1-.767-1.958C262.412,2078.882,263.054,2078.7,263.371,2078.239Z" transform="translate(-228.485 -2061.178)" fill="#a66dfa"/>
          <path d="M436.206,2173.01c-.865-.865-1.592-1.713-2.439-2.417-2.43-2.014-3.583-4.867-5.036-7.521a7.292,7.292,0,0,1-.438-3.821c0-.224.314-.441.494-.676l.817,1.615V2157.8a6.027,6.027,0,0,0,1.353-.7,1.3,1.3,0,0,1,1.295-.213,5.163,5.163,0,0,1,1.3.783,4.737,4.737,0,0,0,.837,3.4c.546-.148,1.193.24,1.739-.322a.7.7,0,0,1,.661-.03c1.341.808,2.988,1.236,3.666,2.893.123.3.258.684.5.817.369.2.037.825.671.849.522.02.188.552.282.842a7.893,7.893,0,0,1,.338,1.078,6.354,6.354,0,0,1,.012,1.043,10.651,10.651,0,0,0-2.867,4.252Z" transform="translate(-287.987 -2089.73)" fill="#a66dfa"/>
          <path d="M212.082,2053.946c.319-.434.567-.8.843-1.136a1.33,1.33,0,0,1,.4-.292c.411-.23.7.419,1.165.136a2.941,2.941,0,0,1,1.193-.461c.34-.033.846.38,1.03.247.409-.294.653-.384,1.009.015.065.074.307.018.458-.018,1.114-.269,1.113-.272,1.709.812l.28-.808a9.127,9.127,0,0,1,.423,1.176,8.748,8.748,0,0,1,.131,1.342,2.906,2.906,0,0,0,.258,1.369l.169-1.68.18-.008a8.775,8.775,0,0,1,.093.893c.01,1.512-.062,3.028.024,4.535a5.6,5.6,0,0,1-.9,3.631c-.281-.269-.548-.677-.869-.026-.35.712-.912.658-1.638.332-.121.773-.175,1.686-1.456,1.395v-1.938l-.257-.051-.615,2c-.573-.384-1.042-.792-.949-1.6.026-.226-.238-.473-.323-.726-.369-1.1-.363-1.1-1.276-1.128-.174,0-.349,0-.523,0h-.479c-.442-.443-.841-.868-1.268-1.262a4.776,4.776,0,0,1-1.343-3.106c-.072-.573.051-1.17-.03-1.741a2.185,2.185,0,0,1,.52-1.534C210.61,2053.433,210.921,2053.407,212.082,2053.946Z" transform="translate(-209.495 -2052.187)" fill="#a66dfa"/>
          <path d="M365.139,2071.472c-.746.507-1.464,1.014-2.212,1.472-.072.044-.333-.219-.614-.415a6.44,6.44,0,0,1-.471.822,10.169,10.169,0,0,1-.732.747c-.492.508-.967,1.072-1.7.3-.055-.058-.224,0-.339-.012-.818-.088-1.6.115-2.419-.543a19.053,19.053,0,0,1-2.128-1.546,8.86,8.86,0,0,1-1.595-1.958,5.965,5.965,0,0,1-1.019-3.761,5.252,5.252,0,0,1,.514-1.14l1.085.889c.285-.945.226-2.042,1.1-2.875l1.088.813v-1.275a14.545,14.545,0,0,1,3.344-.521,2.539,2.539,0,0,1,1.649.649,9.748,9.748,0,0,1,1.634,1.541c.4.6.938,1.1,1.354,1.709a21.88,21.88,0,0,1,1.413,3.264A4.723,4.723,0,0,1,365.139,2071.472Z" transform="translate(-260.58 -2055.874)" fill="#a66dfa"/>
          <path d="M256.492,2128.235v3.752a8.757,8.757,0,0,0,.317-2.859c.012-.383-.17-.861.295-1.09a5.25,5.25,0,0,1,1.505-.548c.178-.026.517.395.619.672a3.257,3.257,0,0,1,.024,1.038c.29-.121.462-.261.617-.244.319.036.758.331.921.211.909-.668,1.9-.229,2.844-.281a1.62,1.62,0,0,1,1.271.605c.5.849,1.509,1.108,2.039,2.109a2.435,2.435,0,0,0,.517,1.523,3.525,3.525,0,0,1,.9,2.758,10.825,10.825,0,0,0-.014,1.656c-1.192.707-2.432,1.395-3.621,2.161-1.244.8-2.375.263-3.434-.292-.773-.4-1.809-.595-2.07-1.673-1.727-.778-2.034-2.6-2.956-3.973a7.205,7.205,0,0,1-.777-2.978c-.145-.809.426-1.745.68-2.625Z" transform="translate(-225.987 -2079.208)" fill="#a66dfa"/>
          <path d="M308.485,2154.605l-2.395-2.395a14.12,14.12,0,0,1,.031-1.948c.034-.25.4-.5.664-.649.1-.056.364.181.555.285.254-.5.4-1.183,1.261-1.018a.693.693,0,0,0,.495-.047,1.652,1.652,0,0,1,1.441-.547,6.876,6.876,0,0,1,2.837,1.109,12.632,12.632,0,0,1,3.7,4.724,19.266,19.266,0,0,1,1.069,3.553,1.694,1.694,0,0,1-.652,1.679c-.994.7-1.949,1.447-2.965,2.108a2.115,2.115,0,0,1-1.235.345,5.244,5.244,0,0,1-5.1-4.286,3.564,3.564,0,0,1-.315-1.244A8.172,8.172,0,0,1,308.485,2154.605Z" transform="translate(-244.146 -2086.658)" fill="#a66dfa"/>
          <path d="M308.8,2251.378l-.207-1.052c-.005,1.391-1.473,1.912-1.793,3.095a.694.694,0,0,1-1,.377c-.423-.382-.71-.1-.949.051a1.545,1.545,0,0,1-1.82,0c-1.866-1.091-3.792-2.094-4.892-4.095-1.326-.717-1.714-2.174-2.538-3.282a8.6,8.6,0,0,1-.808-2c.487-.71,1.2-.522,2.051-.1a2.854,2.854,0,0,0-.23-1c-.234-.314.016-.438.149-.494a5.171,5.171,0,0,0,1.722-.914c.121-.116.464-.07.677-.005.38.115.706.358,1.129.015.119-.1.509.1.754.2a10.793,10.793,0,0,1,5.256,4.135,5.082,5.082,0,0,0,.829.835c.811.754.963,1.851,1.591,2.663A1.369,1.369,0,0,1,308.8,2251.378Z" transform="translate(-240.098 -2120.258)" fill="#a66dfa"/>
          <path d="M475.758,2128l.144-1c.128.091.24.129.269.2a21.129,21.129,0,0,1,1.27,3.319c.165.738.376,1.444-.337,2.018-.486.391.007,1.515-1.085,1.452-.516.827-1.341.745-2.132.688a12.225,12.225,0,0,1-.522,1.575c-.262.542-1.1.7-2,.439-.205-.059-.4-.257-.592-.241-1.454.127-1.452.137-2.065-1.01a17.279,17.279,0,0,1-.912-1.719,2.533,2.533,0,0,0-1.476-1.5,3.325,3.325,0,0,1-2-2.549,2.849,2.849,0,0,1,1.221-2.7l1.537,2.007c0-.845-.009-1.414,0-1.982s.073-.449.967-.853c.638-.287,1.563.062,1.931-.824.631-.024,1.262-.047,1.892-.073,1.165-.046,2.2.082,2.742,1.376A6.26,6.26,0,0,0,475.758,2128Z" transform="translate(-300.921 -2078.398)" fill="#a66dfa"/>
          <path d="M211.938,2134.751a2.406,2.406,0,0,1-1.99-2.137,14.811,14.811,0,0,1-.444-3.34,30.091,30.091,0,0,0-.006-4.536c-.054-.73.414-1.271.4-1.953,0-.178.244-.521.361-.514.9.052,1.328-.924,2.272-.929.625,0,1.246-.59,1.949-.957.691.691,2.161-.164,2.722,1.361-.367,1.072.548,2.012.857,3.109.043.153.2.289.205.435.015,1.728.009,3.455.009,5.332l-.7-.623c.094.406.076.717.215.822s.458-.013.667.057c.094.032.145.282.156.438.005.071-.149.228-.206.217-.423-.083-.841-.2-1.3-.313l-.894,1.936-1.046-.078c.5.5-.074.683-.281.992s-.365.665-.533.978c-1.1-.12-1.51-.829-1.8-1.768Z" transform="translate(-209.49 -2076.659)" fill="#a66dfa"/>
          <path d="M412.494,2264.691c-.9-.026-1.761-.27-2.2.732-.738-.973-.826-1.664-.073-2.437a11.026,11.026,0,0,1,1.523-1.661c.58-.4.793-1.3,1.291-1.865a7.718,7.718,0,0,1,1.449-1.05l.58.569-.821.583.091.21,1.245-.2c.119.178.258.637.555.792a11.461,11.461,0,0,1,4,4.069,14.327,14.327,0,0,1,.764,1.775c.707,1.428.888,1.691.674,2.99a4.763,4.763,0,0,1-1.064,2.7,1.991,1.991,0,0,0-.617,1.123c-.038.975-.574,1.13-1.361,1.08a2.109,2.109,0,0,0-.667.072c-1.374.369-1.516.332-2.2-.721a21.972,21.972,0,0,1-2.088-5.073C413.164,2267.158,412.846,2265.9,412.494,2264.691Z" transform="translate(-281.331 -2126.187)" fill="#a66dfa"/>
          <path d="M373.236,2230.616a11.946,11.946,0,0,1-2.747-1.832c-1.476-1.49-3.06-2.886-4.42-4.474a22.554,22.554,0,0,1-3.81-5.27c.091-.773,1.1.047,1.117-.864.006-.26.644-.511,1-.759.878-.613,1.369-.715,2.009-.034a3.842,3.842,0,0,0,2.188,1.088c1.277.271,2.157,1.251,3.25,1.854a15.267,15.267,0,0,1,2.951,2.586,16.578,16.578,0,0,1,1.525,1.342,4.651,4.651,0,0,1,.966,1.785,1.825,1.825,0,0,1-.5,1.323c-.367.428-.542,1.045-1.184,1.252-.372.119-.319.535-.392.877-.083.394-.194.871-.875.378C373.837,2229.524,373.435,2230.013,373.236,2230.616Z" transform="translate(-264.308 -2111.297)" fill="#a66dfa"/>
          <path d="M485.319,2214.5c-1.993-.82-2.849-2.346-3.7-3.829a31.88,31.88,0,0,1-1.987-4.056c-.555-1.394-1.523-2.715-1.091-4.469,1.261.878,1.157,2.558,2.366,3.68-.221-1.776-1.143-3.147-1.6-5.019l1.149.629.168-.942,1.661-.316c.162.261.376.646.63,1,.99,1.387,1,1.381,2.793,2.02a2.916,2.916,0,0,1,.571.3,8.785,8.785,0,0,1,3.426,3.4,5.964,5.964,0,0,1,.652,2.206.742.742,0,0,0,.217.426.423.423,0,0,1-.127.715c-.786.444-1.126,1.315-1.823,1.837a1.173,1.173,0,0,0-.405.885,1.7,1.7,0,0,1-1.512,1.043c-.282-.065-.466-.584-.85-.2A6.559,6.559,0,0,0,485.319,2214.5Z" transform="translate(-305.995 -2105.29)" fill="#a66dfa"/>
          <path d="M394.853,2153.882l-1.067.176.43.8-2.586,2.586a2.6,2.6,0,0,0-.484,0c-1.961.364-3.268-.75-4.357-2.093a15.816,15.816,0,0,1-2.151-3.463,3.633,3.633,0,0,1-.419-2.579l1.655,3.637.283-.092a3.342,3.342,0,0,0-.135-.664c-.355-.843-.757-1.666-1.092-2.516-.148-.376-.465-.845.343-1.02.249-.053.4-.592.586-.911.167-.28.329-.562.461-.788.817-.075.825.64,1.335.935-.119-.45-.238-.9-.394-1.493l.961-.761c.22.219.512.569.784-.075.294-.7.728-.968,1.434-.51.064.042.2.073.239.039.816-.672,1.3,0,1.674.512a16.94,16.94,0,0,1,1.866,4.108c.127.33.4,1.1-.526,1.141-.052,0-.092.291-.138.447.194.047.491.2.565.122a.411.411,0,0,1,.751.28C394.554,2152.445,395.281,2153.156,394.853,2153.882Z" transform="translate(-272.155 -2085.425)" fill="#a66dfa"/>
          <path d="M390.43,2100.131c.205.206.41.412.723.723l.156-1.347c.719-.151,1.462-.341,2.215-.452a4.707,4.707,0,0,1,1.389,0c.347.053.075.7.721.755.417.037.738.747,1.035,1.24.241.4-.12,1.268.8,1.217q.047.851.1,1.7c0,.055.015.11.024.164l2.6,2.6a5.486,5.486,0,0,1,.854.009c.433.069.9.5.679.766-.5.593.392,1,.04,1.487a4.943,4.943,0,0,1-2.878.258c.276.6.515,1.115.817,1.768-.176.169-.407.58-.635.577-1.441-.01-2.957.356-4.241-.667a6.154,6.154,0,0,1-1.039-.834c-.617-.773-1.17-1.6-1.734-2.414-.278-.4-.515-.833-.782-1.243-.413-.636-.29-1.551-1.048-2.006a3.708,3.708,0,0,0-.6-2.018A1.677,1.677,0,0,1,390.43,2100.131Z" transform="translate(-274.064 -2068.987)" fill="#a66dfa"/>
          <path d="M303.628,2060.31h1.613c.625,0,1.3-.1,1.442.8a.443.443,0,0,0,.36.237c.739-.109.931.589,1.383.9,1.227.834,1.407,2.207,1.714,3.476.175.723-.059,1.243-.883,1.736-.925.554-2.082.9-2.717,1.9-.56.011-1.019.887-1.673.186a.677.677,0,0,0-.461-.133c-2.207.042-3.588-1.225-4.741-2.914a7.906,7.906,0,0,1-1.548-2.677,9.3,9.3,0,0,1-.181-1.318c-.01-.145.075-.4.176-.433.888-.317,1.534-1.074,2.394-1.382A6.928,6.928,0,0,1,303.628,2060.31Z" transform="translate(-241.227 -2055.085)" fill="#a66dfa"/>
          <path d="M302.014,2191.9l.809,1.273c.081-.608.113-.817.137-1.026.077-.693.076-.693.951-.781.109-.011.278,0,.317-.059a1.38,1.38,0,0,1,1.653-.616,5.731,5.731,0,0,1,2.035.952,16.091,16.091,0,0,1,4.43,6.87,4.48,4.48,0,0,1,.024,1.5l-.667-.074c.044.627-.1,1.091-.831,1.24a.861.861,0,0,0-.542.594c-.074.755-.85.387-1.12.78-.433-.687-1.176.146-1.662-.346-.466-.471-1.1-.834-1.411-1.386a19.408,19.408,0,0,1-1.723-3.811,2.266,2.266,0,0,0-1.027-1.437,4.523,4.523,0,0,1-1.921-2.028C301.121,2192.805,301.107,2192.812,302.014,2191.9Z" transform="translate(-242.416 -2101.863)" fill="#a66dfa"/>
          <path d="M352.541,2158.035a2.41,2.41,0,0,1,.015-.632c.037-.146.287-.244.308-.383s-.155-.327-.156-.492c0-.147.205-.327.165-.435a1.313,1.313,0,0,0-.409-.522,1.686,1.686,0,0,0-.533-.157l.285.99c-.617-.376-1.3-.676-1-1.584l.816.351c.1-1.092-.912-.523-1.3-1.041.571.067.951-.326,1.525-.25.266.035.613-.53,1.02-.916l1.943,1.585.187-1.143,2.57-.5c.447.571.8,1.092,1.222,1.54.369.388.877.646,1.233,1.043a9.8,9.8,0,0,1,1.872,3.935c.148.5.311,1.294-.646,1.427,0,.919-.966,1.057-1.4,1.639a2.066,2.066,0,0,1-2.564.434,9.508,9.508,0,0,1-3.6-3.048C353.59,2159.284,353.027,2158.72,352.541,2158.035Z" transform="translate(-260.171 -2088.33)" fill="#a66dfa"/>
          <path d="M397.62,2193.892l.866.3c.064-1.471-1.456-1.883-1.668-3.238a3.587,3.587,0,0,1,.74.339,12.049,12.049,0,0,1,.9.883,2.236,2.236,0,0,0-.626-1.411c.919-1.112.919-1.112,2-1.115a9.694,9.694,0,0,0,1.871,2.025c.845.515,1.094,1.4,1.716,2.029a8.713,8.713,0,0,1,1.384,2.2,2.5,2.5,0,0,1,.33,1.408c-.09.563-.329,1.389-.727,1.548-.654.264-.508.726-.714,1.124a1.943,1.943,0,0,1-1.376,1.188c-.413.068-.905.384-1.209.248a6.428,6.428,0,0,1-2.046-1.339,35.113,35.113,0,0,1-2.831-3.528c-.221-.307-.119-.845-.185-1.451l.658.531C396.58,2194.735,397.359,2194.429,397.62,2193.892Z" transform="translate(-276.434 -2101.511)" fill="#a66dfa"/>
          <path d="M377.349,2291.908l-.931-.512c-.393,1.42-.491,1.494-1.652.982l.819,1.906-.927.539-1.77-1.771c-.378.853.663,1.246.56,2.068-.934.131-1.475-.5-2.013-1.089-.294-.32-.453-.766-.755-1.073a38.59,38.59,0,0,1-3.691-4.4,3.051,3.051,0,0,0-.367-.371,3.484,3.484,0,0,1-1.445-2.336c.68-.416,1.041.226,1.5.623.47-.778-.617-.882-.569-1.455.042-.691,1.357.191,1.023-.939h1.893c.542.382,1.091.759,1.63,1.15a10.22,10.22,0,0,0,1.559,1.279c.642.311,1.068,1.047,1.634,1.545.369.325.6.771,1.193.918.426.105.653.752,1.3.669.18-.023.505.3.6.533A13.11,13.11,0,0,1,377.349,2291.908Z" transform="translate(-265.355 -2135.397)" fill="#a66dfa"/>
          <path d="M361.164,2111.287c.6.04,1.017-.272,1.567.125l-.7.243c.207.7.437,1.4.6,2.107.044.183-.052.542-.179.595-.7.3-.913,1.051-1.459,1.465a1.915,1.915,0,0,1-.921.278c-.158.018-.345-.222-.5-.2a1.79,1.79,0,0,0-.573.3c-.3-1.061-.285-1.1-1.466-1.506-.707-.241-.853-.937-1.355-1.373l-.342.729c-.176-.185-.473-.353-.473-.519.009-2.083.008-2.131-.944-3.378-.536.941.491,1.486.547,2.408-.255-.04-.635-.01-.679-.118-.447-1.086-1.128-2.113-.429-3.415.217-.405.256-.617.742-.625a1.881,1.881,0,0,0,.891-.35c.692-.438,1.36-.915,2.1-1.42l.288.43c.584.407,1.193-.689,1.291.454.028.325.753-.449.753.4,0,.328.6.657.907.96l-.314.817.258.179.5-.943.732,1.242Z" transform="translate(-261.185 -2071.724)" fill="#a66dfa"/>
          <path d="M270.464,2190.1l-1.075-1.357-.444.908a3.931,3.931,0,0,1-1.511-1.379c-.851-1.2-1.51-2.525-2.373-3.728a3.214,3.214,0,0,1-.353-2.63c.8-.161.969.775,1.634,1.012v-1.7l3.574-.5a9.38,9.38,0,0,1,2.473,3.479c.31.743.95,1.3,1.144,2.151.077.335-.354.787.176,1.038a4.187,4.187,0,0,1-.162.411c-.866-.312-1.157.943-1.99.742-.054-.013-.2.308-.284.484a5.561,5.561,0,0,1-.246.594A3.273,3.273,0,0,1,270.464,2190.1Z" transform="translate(-229.261 -2098.309)" fill="#a66dfa"/>
          <path d="M331.889,2228.33c.251.579.433,1,.692,1.6l.323-.852c.078.049.206.082.223.145a3.518,3.518,0,0,0,.875,1.567,4.171,4.171,0,0,1,.623.962,1.97,1.97,0,0,0,1.467,1.134l.281-.571.959.718c0,.218.023.312,0,.329-.317.206-.64.4-.936.581l.278,1.558-1.223-.6-.7,1.421-.846.1v.777a1.624,1.624,0,0,1-2.359-.125c-.83-.756-1.765-1.4-2.611-2.3l1.077-.711a5.274,5.274,0,0,0-1.036-1.95,11.974,11.974,0,0,1-1.13-2.109c.513-.631.918-.163,1.387.033.02-.176.1-.365.045-.491-.35-.788-.2-1.178.544-1.212C330.511,2228.3,331.211,2228.33,331.889,2228.33Z" transform="translate(-251.956 -2115.389)" fill="#a66dfa"/>
          <path d="M256.1,2237.635l.831,1.23c.078-.243.185-.4.16-.528-.119-.632-.274-1.256-.435-1.968h1.016c.088.182.2.405.409.849v-1.428a1.972,1.972,0,0,0,.486-.179c.271-.2.7-.661.745-.625.445.366.994.144,1.425.31a1.62,1.62,0,0,1,1.245,1.5c0,.245-.328.517-.279.723.04.167.489.2.623.394a.691.691,0,0,1,.005.659c-.453.362-.353.829-.322,1.268a.881.881,0,0,1-.687,1.018c-.52.148-.641.48-.75.978a1.329,1.329,0,0,1-1.45,1.134,3.363,3.363,0,0,0-.847.055c-.7.151-1.57-.015-1.788-.525-.528-1.243-1.294-2.419-1.152-3.882C255.392,2238.042,255.736,2237.88,256.1,2237.635Z" transform="translate(-225.935 -2117.781)" fill="#a66dfa"/>
          <path d="M343.889,2188.89l1.446.424a1.324,1.324,0,0,0-.192-1.608c.612-.557,1.021.282,1.622.191l.173-.935c.471-.5.9.425,1.464-.013s.728.519,1.223.631a1.592,1.592,0,0,1,.735.6c.657.8.759,1.944,1.643,2.647.212.169.1.747.146,1.26-.98-.481-1.04,1.074-1.984.706-.29.47-.017,1.322-1.078,1.424l-.539-.917-.421.881c-.6.141-.867-.372-1.063-.7a7.251,7.251,0,0,0-2.579-2.569A1.429,1.429,0,0,1,343.889,2188.89Z" transform="translate(-257.648 -2100.493)" fill="#a66dfa"/>
          <path d="M326.737,2114.456l-2.22,1.74h-1.468c-.572-.827-.758-1.915-1.6-2.6a4.725,4.725,0,0,0-1.577-2.668c-.22-.255-.173-.741-.266-1.218.253-.07.5-.066.634-.187,1.342-1.256,2.606-.55,3.676.307a11.515,11.515,0,0,1,2.331,2.679A5.856,5.856,0,0,1,326.737,2114.456Z" transform="translate(-249.003 -2072.518)" fill="#a66dfa"/>
        </g>
        <g transform="translate(434.721 477.528) rotate(81)">
          <path d="M95.683,143.523a18.994,18.994,0,0,1-3.38,6.542,17.179,17.179,0,0,0-2.551,3.948c-.249.509-.7.662-.964,1.116a26.979,26.979,0,0,1-1.6,3.292c-1.75,2.325-3.476,4.659-5.3,6.929-1.2,1.5-2.333,3.072-3.585,4.535a21.306,21.306,0,0,1-8.615,5.853c-3.82,1.5-7.6,3.135-11.507,4.383a52.344,52.344,0,0,1-22.387,2.343c-4.631-.552-9.14-1.427-13.107-3.792A41.808,41.808,0,0,1,7.408,163.357a7.246,7.246,0,0,0-.483-.69,20.7,20.7,0,0,1-3.567-6.678,21.848,21.848,0,0,0-1.411-3.593c-1.662-3.462-1.343-6.949,0-10.423a27.851,27.851,0,0,1,6.129-9.095,20.032,20.032,0,0,0,5.455-12.307c.468-4.384-.3-8.629-1.082-12.891-.479-2.616-.907-5.241-1.422-7.849-.83-4.2-2.765-7.951-4.749-11.707A61.2,61.2,0,0,1,.52,72.654,23.621,23.621,0,0,1,1.56,59.366a19.448,19.448,0,0,1,3.928-6.89,40.306,40.306,0,0,1,5.853-5.408A59.813,59.813,0,0,1,28.483,38.8c6.993-2.179,13.8-4.757,19.778-9.146A150.8,150.8,0,0,0,60.946,19.178c5.509-5.057,11.28-9.763,17.948-13.244C85.358,2.56,92.109-.066,99.5,0c11.122.1,20.644,4.031,27.389,13.179,4.988,6.765,5.8,14.519,4.167,22.613-.294,1.461-.592,2.923-.934,4.373a29.147,29.147,0,0,1-4.62,10.3c-1.3,1.832-2.7,3.585-4,5.4a62.653,62.653,0,0,1-4.977,5.976,66.015,66.015,0,0,0-5.544,7.006c-.6.852-1.542,1.369-2.118,2.285a70.361,70.361,0,0,0-6,10.69A20.555,20.555,0,0,0,101,88.2c-.1,1.421-.015,2.838-.139,4.25a25.258,25.258,0,0,0,.516,6.269c.129.794-.833,1.437-.626,1.492,1.122.3.333.929.356,1.387.013.271-.158.569-.1.817,1.042,4.226.592,8.542.68,12.81.083,3.962.429,8-.642,11.883-.391,1.417-.676,2.871-1.089,4.287-.5,1.7-1.408,3.291-1.561,5.062-.215,2.5-1.476,4.587-2.384,6.818-.05.123-.233.192-.357.289.116-1.329,1.2-2.319,1.243-3.686a29.24,29.24,0,0,0-2.579,6.043ZM63.414,27.191A19.274,19.274,0,0,0,67.2,23.8c-1.251,1.144-2.762,2-3.765,3.421a7.107,7.107,0,0,0-2.512,2.01A7.794,7.794,0,0,0,63.414,27.191ZM77.7,8.789a3.774,3.774,0,0,0,.675-.212,66.509,66.509,0,0,1,16.09-6.194c.2-.048.484-.041.606-.355-.382.055-.741.1-1.1.159A47.94,47.94,0,0,0,80.7,6.914a8.319,8.319,0,0,0-2.988,1.9C76.457,8.9,75.688,9.964,74.6,10.4a.437.437,0,0,0-.106.719c.1.1.23.161.291.046C75.417,9.956,76.956,9.861,77.7,8.789ZM43.8,177.553a23.542,23.542,0,0,0,2.4-.012c3.243-.334,6.444-.949,9.644-1.555,4.749-.9,9.129-2.917,13.622-4.573a11.6,11.6,0,0,0,5.461-3.646,75.332,75.332,0,0,0,11.032-19.844c2.117-5.764,4.873-11.291,7.137-17.006a48.26,48.26,0,0,0,3.109-12.739c.385-3.654.169-7.318.195-10.98.022-3.011-.031-6.02.158-9.04a46.028,46.028,0,0,0-.527-6.523,29.232,29.232,0,0,1,.9-11.35,47.255,47.255,0,0,1,4.346-9.794,107.771,107.771,0,0,1,13.084-17.208,79.158,79.158,0,0,0,7.271-9.046,33.533,33.533,0,0,0,5.667-19.667,14.614,14.614,0,0,0-7.374-12.836C111.579,6.627,102.758,4.992,93.29,8.1A61.93,61.93,0,0,0,73.454,19.2c-3.726,3.033-7.127,6.427-10.841,9.469-5.06,4.143-10.2,8.163-16.16,10.981a98.809,98.809,0,0,1-14.335,5.156,53.91,53.91,0,0,0-11.881,5.074A27.853,27.853,0,0,0,9.726,60.008c-.3.522-.313.516-1,.53-.209,0-.221.176-.29.315a9.1,9.1,0,0,0-1.064,4.009c-.012.964.361,2.345.031,2.809-1.06,1.49-.262,2.933-.066,4.189a34.8,34.8,0,0,0,1.128,4.734,61.136,61.136,0,0,0,4.524,11.363c1.789,3.3,3.523,6.631,4.039,10.371.149,1.083,1.455,2.321.062,3.478,0,0,.1.108.139.172a7.418,7.418,0,0,1,1.17,3.751c.054,1.263.506,2.444.561,3.693.087,2.015.835,3.975.4,6.045a14.508,14.508,0,0,0-.152,2.915c0,2.167-.738,4.232-.852,6.4a10.866,10.866,0,0,1-1.145,2.78c-1.4,3.34-3.894,5.884-6.078,8.672-2.055,2.622-4.365,5.191-4.582,8.786-.087,1.45-.519,2.98.23,4.34,2.012,3.657,3.07,7.8,5.831,11.082,2.149,2.551,3.592,5.644,6.21,7.861,2.56,2.168,5,4.5,7.962,6.1a17.808,17.808,0,0,0,4.628,1.967A53.711,53.711,0,0,0,43.8,177.553Zm48.12-40.5c-1.193,4.075-3.56,7.53-4.751,11.485C88.672,147.476,92.542,138.377,91.925,137.049ZM45,33.945a41.2,41.2,0,0,0,10.772-7.632c-3.4,2.552-6.791,5.108-10.418,7.335A2.949,2.949,0,0,0,45,33.945ZM5.841,55.149c1.987-2.143,4.061-4.2,6.167-6.226A19.9,19.9,0,0,0,5.841,55.149ZM2.31,145.633c.476-1.339.785-2.721,1.185-4.08A7.285,7.285,0,0,0,2.31,145.633ZM4.776,57.927c-.079-.3-.232-.458-.511-.4a.879.879,0,0,0-.78.888c-.015.273.146.326.373.286C4.325,58.614,4.542,58.249,4.776,57.927Z" transform="translate(0 0)" fill="#a66dfa"/>
          <path d="M62.319,107.457c-.048-.294,0-.555-.3-.7-.052.453-.417.885.183,1.283.348.23.021.605-.068.884-.8,2.507-1.584,5.025-2.36,7.537-.738,2.391-1.619,4.749-2.172,7.2a24.814,24.814,0,0,1-1.326,3.495,4.4,4.4,0,0,0-.382,1.62c0,1.177-.082,1.208-1.171.589a1.012,1.012,0,0,0-.375-.03c0,.131-.04.261.006.339a3.235,3.235,0,0,1-.269,3.645,6.724,6.724,0,0,0-1.261,2.435,6.81,6.81,0,0,1-2.5,3.541c-.1.087-.344.047-.355.248-.065,1.195-1.026,1.767-1.751,2.478-.692.679-1.545,1.175-2.2,1.921a14.366,14.366,0,0,1-3.89,3.184,20.194,20.194,0,0,1-2.2,1.445c-2.9,1.136-5.737,2.407-8.671,3.465-4.958,1.788-9.839,1.264-14.759.07a21.733,21.733,0,0,1-7.9-3.776A16.513,16.513,0,0,1,6.2,145.975a25.364,25.364,0,0,1-5.9-11.06,10.427,10.427,0,0,1,1.1-7.7c.352-.634.624-1.465,1.813-1.321.518.062,1.032-.9,1.434-1.513a72.279,72.279,0,0,0,7.011-13.744,65.405,65.405,0,0,0,4.327-15.666A31.3,31.3,0,0,0,14.967,83.4a23.481,23.481,0,0,0-4.192-8.107c-1.366-1.866-2.587-3.837-3.936-5.716-.478-.666.125-1.091.267-1.948-.739,1-.859.8-1.174-.023a18.77,18.77,0,0,0-1.345-2.4,11.337,11.337,0,0,1-1.548-5.5c-.007-.73-.389-1.339-.29-2.03a18.4,18.4,0,0,1,.431-2.6c.435-1.482.708-3.044,2.156-4.049.4-.277.162-1.14.617-1.628,1.945-2.088,3.777-4.315,6.21-5.864a118.957,118.957,0,0,1,18.2-9.47A37.509,37.509,0,0,0,42.492,26.47C47.62,21.435,53.016,16.7,58.566,12.135A58.743,58.743,0,0,1,75.929,1.78,30.916,30.916,0,0,1,84.3.028c4.106-.283,7.18,1.585,9.566,4.689,4.581,5.961,5.656,12.669,3.894,19.883A54.044,54.044,0,0,1,92.37,38.461a18.608,18.608,0,0,1-4.162,5.668,13.824,13.824,0,0,0-2.1,3c-2.389,3.442-5.4,6.394-7.775,9.857-1.059,1.543-1.955,3.169-2.953,4.739a81.5,81.5,0,0,0-5.3,10.894A39.094,39.094,0,0,0,67.6,82.9q-.837,5.662-1.791,11.308a34.558,34.558,0,0,1-1.4,6.451c-.537,1.414-.557,2.921-1.2,4.292C62.843,105.733,63.239,106.809,62.319,107.457Zm-51.2,7.271c.344-.129.429-.474.547-.748a60.759,60.759,0,0,0,3.1-7.951c.442-1.613,1.217-3.149,1.192-4.879-.78,3.058-2.14,5.911-3.105,8.9-.513,1.587-1.471,3.013-1.712,4.7-1.379,1.819-2.056,4-3.172,5.961C9.151,118.785,10.538,116.964,11.117,114.728Zm1.239-43.247c.021-.154-.014-.376.074-.448.16-.13.242.068.347.184.3.329.158.825.569,1.154A5.367,5.367,0,0,1,15,74.7c.322.821,1.2,1.418,1.8,2.142.133.161.3.434.129.663-.32.425-.063.565.289.664A1.243,1.243,0,0,1,18.03,79a16.266,16.266,0,0,1,1.4,4.172,9.211,9.211,0,0,0,.619,2.842A11.674,11.674,0,0,1,21,92.056c-.087,1.792-.431,3.628-.349,5.422.071,1.551-.709,2.815-.926,4.258-.263,1.749-1.475,3.274-1.714,5.092-.147,1.116-1.325,1.964-1.315,2.848.023,2.043-1.786,3.143-2.106,4.987a4.2,4.2,0,0,1-.852,2.021c-1.047,1.144-1.353,2.728-2.437,3.868-1.366,1.436-2.075,3.358-3.531,4.783a28.456,28.456,0,0,0-2.324,2.947c-.694.892-.631,2.274-.86,3.453-.332,1.706.647,3.035,1.089,4.534A20.061,20.061,0,0,0,11.5,145.2c5.03,4.665,11.055,6.2,17.754,3.757.68-.248,1.359-.5,2.045-.728A32.562,32.562,0,0,0,42.026,141.9c4.224-3.585,6.223-8.585,8.564-13.318a45.466,45.466,0,0,0,1.755-5.523,38.977,38.977,0,0,0,1.17-3.805c.294-1.3.693-2.568,1.083-3.837s.936-2.491,1.245-3.775c.274-1.142.836-2.163,1.073-3.346.316-1.582.832-3.158,1.262-4.738a119.639,119.639,0,0,0,3.4-17.281c.386-3.241.667-6.512,1.338-9.7A65.564,65.564,0,0,1,76.353,49.014c2.919-3.654,6.015-7.168,9.071-10.711,4.375-5.073,6.75-11.111,8.539-17.445a18.118,18.118,0,0,0-.527-11.63c-.823-2.166-2.052-3.975-4.643-4.4-2.412-.4-4.767.173-7.047.6a17.58,17.58,0,0,0-4.2,1.555c-3.265,1.58-6.577,3.072-9.416,5.371-.676.548-1.518.621-2.194,1.167-.865.7-1.469,1.643-2.413,2.271-.541.36-1.19.4-1.69.857-3.167,2.925-6.747,5.387-9.606,8.667-.992,1.139-2.218,2.072-3.3,3.137a39.151,39.151,0,0,1-14.1,8.945,82,82,0,0,0-18.307,9.534c-2.177,1.5-4.511,2.916-6.071,5.2-.905,1.323-2.069,2.673-2.211,4.189a16.162,16.162,0,0,0,.326,6.818c.184.539-.144,1.29-.03,1.475.442.707.708,1.507,1.187,2.186C10.758,68.256,12.183,69.51,12.356,71.481Zm44.894,40.2a42.783,42.783,0,0,0-2.769,7.862c-.756,2.737-1.775,5.378-2.659,8.064-.837,2.54-2.044,4.957-3.088,7.428C53.2,127.826,54.869,119.63,57.25,111.679ZM59.1,13.647A74.277,74.277,0,0,1,76,3.3C71.968,3.834,60.781,11.227,59.1,13.647ZM12.467,44.97C9.328,47.1,6.527,49.536,5.172,53.25A50.293,50.293,0,0,1,12.467,44.97ZM2.34,127.924C1,129.252.394,133.37,1.271,134.218,1.521,132.133,1.529,129.969,2.34,127.924ZM54.81,17.43l-.26-.277a63.74,63.74,0,0,0-6.737,6.379ZM39.753,30.512a27.852,27.852,0,0,0,6.694-5.871C44.224,26.608,42.039,28.618,39.753,30.512Z" transform="translate(14.972 16.081)" fill="#a66dfa"/>
          <path d="M56.254,35.119a1.793,1.793,0,0,1,0,1.893c-.706,1.721-2.146,3.074-2.418,4.994a5.406,5.406,0,0,1-.955,1.78c-.83,1.468-.989,3.176-1.735,4.607-.708,1.356-1.012,2.842-1.734,4.168-.383.7-.248,1.581-.748,2.263A21.643,21.643,0,0,0,47.392,58.7c-.243,1.388-.525,2.769-.805,4.15-.049.237-.155.481-.477.43s-.494.1-.366.4c.479,1.108-.093,2.1-.519,2.97-1.238,2.529-2.314,5.128-3.4,7.717-.215.513-1.216.374-.859,1.4.18.517-.4,1.411-.8,2.079-.392.652-.655,1.379-1.01,2.055-2.613,4.98-5.014,10.061-7.289,15.206-1.261,2.854-2.768,5.6-4.1,8.424a16.179,16.179,0,0,0-.781,2.279,3.269,3.269,0,0,1-1.369,2.148.516.516,0,0,0-.309.317c-1.048,3.3-3.862,5.025-6.373,6.957a31.506,31.506,0,0,1-6.028,3.158c-1.261.592-2.422,1.532-3.891,1.74a36.93,36.93,0,0,1-4.432.5A6.56,6.56,0,0,1,.6,119.48a1.26,1.26,0,0,1-.45-1.69,8.57,8.57,0,0,1,3.283-4.223,4.866,4.866,0,0,0,1.653-1.385c.288-.461.774.119,1.308-.406a24.989,24.989,0,0,0,4.275-6.385A109.888,109.888,0,0,0,16.839,90.72a36.04,36.04,0,0,0,1.537-6.687c.224-1.431.374-2.864.47-4.308.044-.669.313-1.219,1.136-.811.49.243.641-.114.87-.366a.358.358,0,0,0-.027-.536c-.287-.274-.536.012-.761.12-.92.448-1.22.181-1.173-.825a27.078,27.078,0,0,0-.52-8.27,18.1,18.1,0,0,0-1.518-3.892c-1.917-3.6-4.392-6.843-6.581-10.269C8.67,52.368,7.023,49.86,6.687,46.8c-.078-.713-.644-1.581.342-2.159a.254.254,0,0,0,.1-.2c-.191-2.8-.1-2.871,1.8-4.833A13.939,13.939,0,0,1,13.2,36.742c5.647-2.6,10.406-6.374,15.064-10.417C33.937,21.4,39.1,15.91,44.994,11.267A65.835,65.835,0,0,1,66.668.288c4.136-1.27,7.2,1.816,6.3,6.109a42.12,42.12,0,0,1-4.685,12.114c-2.478,4.381-5.319,8.531-8.066,12.737a31.057,31.057,0,0,1-2.313,3.47C57.426,35.27,57.072,35.755,56.254,35.119ZM13.179,102.742c.342-.024.441-.3.566-.548,1.59-3.119,2.768-6.42,4.211-9.6.693-1.527.456-3.36,1.619-4.718a.335.335,0,0,0-.142-.581c-.364-.156-.56.086-.6.384a16.474,16.474,0,0,1-1.1,3.258,73.9,73.9,0,0,1-3.168,8.273,12.394,12.394,0,0,0-1.36,3.562,15.9,15.9,0,0,0-2.229,4.273C11.666,105.585,12.983,104.452,13.179,102.742Zm31.3-83.73c-1.422.636-2.124,2.012-3.145,3.06-1.339.779-2.081,2.181-3.273,3.122-2.056,1.622-4.166,3.191-6.09,4.962a54.3,54.3,0,0,1-13.248,9.014c-1.81.874-3.92,1.061-5.466,2.574-.946.925-2.1,1.674-2.18,3.123a11.335,11.335,0,0,0,1.244,6.151c1.912,3.568,4.488,6.687,6.74,10.025,2.34,3.469,4.431,7,4.963,11.319a67.538,67.538,0,0,1-.04,12.332c-.049.832-.612,1.624-.642,2.586a6.608,6.608,0,0,1-.91,3.94c-1.54,1.988-2.051,4.413-3.059,6.619-.33.724-.128,1.79-.763,2.344a6.477,6.477,0,0,0-1.481,2.642,3.287,3.287,0,0,1-.657,1,16.047,16.047,0,0,0-2.137,3.161,24.607,24.607,0,0,1-4.418,5.463c-.509.463-1.312.406-1.618,1.129a4.841,4.841,0,0,1-1.455,1.75A3.879,3.879,0,0,0,5.7,117.279a1.429,1.429,0,0,0,1.016-.159c1.826-.67,3.388-1.849,5.152-2.652a19.944,19.944,0,0,0,7.771-6.179,38.612,38.612,0,0,0,3.7-6.631c2.193-4.518,4.422-9.021,6.479-13.6,1.152-2.566,2.35-5.105,3.626-7.606,2.118-4.156,4.006-8.417,5.846-12.7a58.352,58.352,0,0,0,3.491-10.622,61.709,61.709,0,0,1,3.1-9.265c2.259-5.781,4.558-11.539,8.282-16.595,3.346-4.543,6.736-9.054,9.76-13.827A37.031,37.031,0,0,0,69.1,6.055c.1-.444.432-1.027.055-1.354-.32-.277-.842.087-1.247.247A92.24,92.24,0,0,0,55.635,10.91c-.713.413-1.347,1.346-2.439.89-.154-.064-.476.152-.382.337.331.654-.311.646-.557.809q-2.33,1.54-4.6,3.162C46.469,16.956,45.645,18.164,44.481,19.012ZM21.5,107.843a39.119,39.119,0,0,0,2.57-4.115c1.567-3.421,3.385-6.729,4.877-10.192a164.179,164.179,0,0,1,7.3-15.178.734.734,0,0,0-.124-1.063C30.675,87.288,26.8,97.908,21.5,107.843ZM44.163,13.682A76.422,76.422,0,0,1,54.04,7.335c3.521-1.844,7.083-3.6,10.695-5.235C57.4,5.1,50.145,8.256,44.163,13.682Zm-9.685,9.251-.221-.292L24.192,31.364l.214.25ZM13.144,38.15c-2.518.473-5.1,2.844-4.837,4.45A14.28,14.28,0,0,1,13.144,38.15Zm23.12,38.718.363.191c.388-1.029,1.491-1.761.984-3.168Z" transform="translate(27.652 31.185)" fill="#a66dfa"/>
          <path d="M3.144,0A7.648,7.648,0,0,1,0,3.06C1.02,2.011,1.723.636,3.144,0Z" transform="translate(68.989 50.198)" fill="#a66dfa"/>
        </g>
        <g transform="matrix(0.999, 0.052, -0.052, 0.999, 249.59, 528.329)">
          <path d="M0,0S34.69,19.883,44.6,23.187s19.2,5.162,22.921,6.195,5.162,6.4-8.879,4.75-33.549-6.218-38.5-9.109S0,11.729,0,11.729Z" transform="translate(105.038 28.063)" fill="#ff869e"/>
          <path d="M0,67.048,38,0,83.582,65.861Z" transform="translate(131.873 32.756)" fill="#00ebe5"/>
          <path d="M48.154,0s6.74,4.708,10.836,10.03L62.1,14.07S55.567,51.114,51.925,62.888C48.077,75.331,40.937,89.3,40.937,89.3L0,65.142S22.223,29.891,31.93,17.374,48.154,0,48.154,0Z" transform="translate(45.74 10.507)" fill="#0069f9"/>
          <path d="M0,6.3s.94,9.457,1.2,12.892,2.378,2.642,10.3,2.906,28.009,0,28.009,0,1.85-3.348-3.435-4.977S20.693,13.9,18.611,8.09A43.547,43.547,0,0,1,16.265,0Z" transform="translate(140.986 184.799)" fill="#ff869e"/>
          <path d="M.814,2.32C-.814,5.779.5,12.194.5,12.194c2.3,7.045,6.871,34.529,15.046,45.514S45.89,76.953,52.53,80.337c5.745,2.926,26.393,10.789,29.2,10.023s3.32-2.044,3.32-2.044,4.343,0,2.81-2.043c-.59-.787-16.928-10.66-25.931-15.078C48.225,64.465,35.612,57.3,32.156,52.906c-5.62-7.153-10.6-29.41-14.793-43.522C13.77-2.712,4.335.344,4.335.344Z" transform="translate(85.341 15.688)" fill="#ff869e"/>
          <path d="M27.008,81.7l-9.1.923-11.1,1.134-5.249.532L0,65.057l16.391-1.626L27.54,62.326,49.162,60.18,45.7,36.607,43.972,24.773l-1.779-12.13L40.449.78,40.336,0l5.887,2.607h.012L72.073,14.015,71.73,26.1l-.142,4.947-.361,12.661-.715,25.371-.237,8.216-7.312.744L40.313,80.343Z" transform="translate(13.266 103.808)" fill="#1a191f"/>
          <path d="M124.807,121.33H105.33s-.1-.68-.284-1.88c-.384-2.566-1.153-7.507-2.116-13.158-.994-5.8-2.187-12.354-3.387-17.863C98.923,85.6,98.3,83.044,97.7,81.011c-.733-2.5-1.437-4.214-2.051-4.687-1.62-.828-3.783-1.833-6.384-2.979C86,71.9,82.047,70.217,77.655,68.379c-9.588-4.02-21.286-8.82-32.594-13.7-3.978-1.72-7.9-3.446-11.668-5.154-14.121-6.4-26.05-12.531-30.1-16.817-4.781-5.059-3.676-12.1-.975-18.348A56.525,56.525,0,0,1,8.508,3.789C10.222,1.448,11.5,0,11.5,0s38.859,21.1,64.62,34.828c4.345,2.311,8.311,4.416,11.662,6.177,4.776,2.506,8.293,4.315,9.818,5.019,7.023,3.239,12.773,5.207,15.924,11.006a19.813,19.813,0,0,1,1.98,5.751c.319,1.626.757,4.132,1.277,7.217.916,5.468,2.074,12.75,3.228,20.1.691,4.439,1.383,8.9,2.015,13.01C123.6,113.309,124.807,121.33,124.807,121.33Z" transform="translate(35.661 73.396)" fill="#393642"/>
          <path d="M14.827,19.229v.006S7.355,32.151,6.273,35.768c-.213.7-4.309,1.69-5.657-2.01C-.666,30.229.345,11.4,1.024,1.218L13.267,0Z" transform="translate(0 168.865)" fill="#ff869e"/>
          <path d="M0,8.249S8.888-3.766,18.759,1.205c5.632,2.836,5.121,10.624,5.121,10.624l4.087,5.62H22.6s-.766,2.3-1.532,4.342-3.234,8.429-5.576,4.6S0,8.249,0,8.249Z" transform="translate(93.895 2.259)" fill="#ff869e"/>
          <path d="M0,0" transform="translate(105.038 5.915)" fill="#160078"/>
          <path d="M5.221,3.448A3.466,3.466,0,0,1,2.168,2.009C1.078.373,1.168-.173.424.046c-1.508.446,1.417,4.034,2.4,4.361a14.9,14.9,0,0,0,1.866.485Z" transform="translate(110.183 19.407)" fill="#00040a"/>
          <ellipse cx="0.901" cy="0.901" rx="0.901" ry="0.901" transform="translate(113.06 14.221)" fill="#00040a"/>
          <path d="M32.846,9.394s-6.824.245-10.312,2.889a67.8,67.8,0,0,1-13,7.933C5.295,21.979-2.8,20.957.981,15.122S9.04,4.518,13.7,2.258c6.973-3.378,11.71-2.62,15.225,0A10.941,10.941,0,0,1,32.846,9.394Z" transform="translate(84.361 0)" fill="#160078"/>
          <path d="M0,0,10.057,4.33s3.34-2.4,5.8-2.165,2.806.83,4.207,1.369S20.5,5.8,18.987,5.044,15,3.966,14.242,4.721l-.755.755-1.834,1.51,1.731,1.033h7.362s.764,1.271-.284,1.877a2.832,2.832,0,0,1-1.709.5s.418.772-.562,1.93a2.392,2.392,0,0,1-2.47.662s-.055,1.213-1.1,1.379a5.426,5.426,0,0,1-2.206-.221Z" transform="translate(155.474 91.232)" fill="#ff869e"/>
          <text transform="matrix(0.97, -0.242, 0.242, 0.97, 168.421, 83.614)" fill="#272330" font-size="31" font-family="OpenSans-Bold, Open Sans" font-weight="700" letter-spacing="0.01em">
            <tspan x="0" y="0">ยง</tspan>
          </text>
        </g>
        <g transform="translate(496.126 569.689) rotate(45)">
          <path d="M.109,0C.353.611-.716,9.561.994,12s6.72-5.62,6.72-5.62Z" transform="translate(84.885 6.727)" fill="#ffc9af"/>
          <path d="M9.021,13.112S2.422-.822.224.038c-1.405.55,4.154,15.15,6.6,15.517S9.021,13.112,9.021,13.112Z" transform="translate(83.578 0)" fill="#ffc9af"/>
          <path d="M14.417,9.163C15.717,10.743,7.124.286,6.72,0,6.72,0,1.588,1.344,0,5.62L5.987,15.638s3.91-.855,5.5-2.2A15.035,15.035,0,0,0,14.417,9.163Z" transform="translate(85.879 13.112)" fill="#e54c1d"/>
          <path d="M4.876,19.8S.661,11.062.049,7.763A4.325,4.325,0,0,1,.6,5.075S-.744,1.227.6.738s5.01,7.208,5.01,7.208S3.654.249,5,0,9.4,8.924,14.039,14.3c0,0-2.688,3.421-4.765,4.4A13.387,13.387,0,0,1,4.876,19.8Z" transform="translate(0 65.276)" fill="#ffc9af"/>
          <path d="M3.15,11.167S2.294.415,1.928.049-.883,1.271.339,8.357,3.15,11.167,3.15,11.167Z" transform="translate(10.89 68.41)" fill="#ffc9af"/>
          <path d="M0,5.5S3.3.245,9.163,0l7.453,8.8s-8.43,6.842-9.041,6.109S0,5.5,0,5.5Z" transform="translate(4.876 79.577)" fill="#e54c1d"/>
          <path d="M18.357,7.88C16.7,5.819,16.54,0,16.54,0s.392,3.832-5.7,7.7C3.321,12.462,0,11,0,11s2.772.939,5.887,7.239c0,0,7.491-1.375,10.882-5.406S19.472,9.267,18.357,7.88Z" transform="translate(74.731 77.194)" fill="#e54c1d"/>
          <path d="M18.685.527c.4.376,56.263,41.418,56.263,41.418L120.764,6.758s-1.1,17.96,17.044,28.223c-1.65-.183-40.869,29.506-53.7,30.972S65.967,68.885,30.23,43.594.358,7.857.358,7.857,15.569-2.406,18.685.527Z" transform="translate(117.165 121.567)" fill="#ff5050"/>
          <path d="M1.251.139c-2.87,4.652-.179,5.549,1.858,9.914A174.729,174.729,0,0,0,17.562,21.337c8.6,6.085,15.433,10.618,21.037,13.978C20.433,8.447,2.146-1.312,1.251.139Z" transform="translate(129.834 143.825)" fill="#1a1a1a"/>
          <path d="M.877,19.292S39.913,80.564,58.24,89.361s81.187,14.295,81.187,14.295-6.964-25.658,2.2-37.936c-2.016-.366-66.342,3.665-66.892,3.482s-38.3-49.665-44.167-56.263S17.555-.989,13.706.11-3.521,8.418.877,19.292Z" transform="translate(103.817 129.315)" fill="#ff5050"/>
          <path d="M124.822,99.883l-5.131-6.048s2.749-4.581-.367-7.33-7.7-3.849-11.913-9.53c0,0,5.682-12.279,3.666-24.375s-3.238-7.758-4.337-15.089-2.688-13.928-6.231-17.593S91.956,9.9,92.323,6.845,90.856-.119,88.535,0,76.928,6.845,79.616,10.265s5.986,4.4,5.62,11.607,4.643,16.494,4.032,22.847-5.192,11.363-4.52,17.349c.1.883-3.543-.244-3.543-.244,2.382,5.987-11.729,11.3-11.729,11.3s-2.81,4.826-1.589,8.125c0,0-.244,1.344-4.4,1.1s-12.218-3.177-20.4,0a33.607,33.607,0,0,0-20.648-8.919s-8.508-9.6-13.623-9.163c-6.139.52-10.208,5.147-8.369,10.019,1.222,3.238,4.826,3.97,8.735,7.269S15.717,90.9,23.17,94.324s16.616,3.91,21.381,6.964,17.716,9.53,32.133.855c0,0,3.177,2.933,3.421,9.286s5.254,9.53,8.552,9.408l5.009,6.109S106.617,109.23,124.822,99.883Z" transform="translate(11.028 21.662)" fill="#ffd800"/>
          <path d="M.136,11.157c-.312-.44-.02-1.4.211-1.9.687-1.4,1.695-2.632,4.741-4.811C8.237,2.352,11.97-.165,16.446.008A.693.693,0,0,1,17.1.75c-.1,1.458-.944,4.959-6.425,8.191C5.5,11.993.8,12.1.136,11.157Z" transform="translate(74.224 76.775)" fill="#1a1a1a"/>
          <path d="M14.936,6.048,8.888,0,0,5.406l4.261,7.468S11.775,11.729,14.936,6.048Z" transform="translate(74.181 74.444)" fill="#ffc9af"/>
          <path d="M10.909,17.872S.279,20.163,0,7.976,12.192,1.195,12.192,1.195s12.1,5.56,7.514,11.729C17.323,16.131,10.909,17.872,10.909,17.872Z" transform="translate(64.83 63.354)" fill="#ffc9af"/>
          <path d="M10.849,16.833a2.462,2.462,0,0,1-2.5,1.054c-1.3-.385-2.13-1.6-1.649-4.032,0,0-6.323,3.3-6.689-3.207S6.612-.807,13.575.11,25.7,5.608,26.312,11.838c.5,5.143-1.955,9.041-7.605,10.171a4.535,4.535,0,0,1-3.77-.6A2.821,2.821,0,0,1,13.853,19c.045-.909-.078-2.33-1.194-2.879C11.605,15.641,11.169,16.342,10.849,16.833Z" transform="translate(60.789 56.743)" fill="#55353a"/>
          <path d="M17.964,12.846c-1.991,4.7-8.529,8.985-13.227,6.995S-1.04,10.335.95,5.637a9.239,9.239,0,0,1,17.013,7.209Z" transform="translate(70.103 46.054)" fill="#55353a"/>
          <path d="M.007,0S-.451,10.629,5.872,18.6s11.179,9.621,11.179,9.621S18.059,23,9.9,11C4.56,3.13.007,0,.007,0Z" transform="translate(237.922 128.325)" fill="#1a1a1a"/>
          <path d="M.019,7.609,12.848,0S23.2-.272,26.318,4.218s2.107,10.263,1.832,10.354S11.29,24.652,11.29,24.652s-4.659-1.789-8.155-8.064C-.439,10.174.019,7.609.019,7.609Z" transform="translate(240.293 126.305)" fill="#ffc9af"/>
          <path d="M0,8.522,5.957,0l30.7,24.191L15.3,23.092a23.506,23.506,0,0,0-5.5-9.438C6.66,10.307,0,8.522,0,8.522Z" transform="translate(253.14 117.787)" fill="#1a1a1a"/>
          <path d="M0,2.474,1.925,0,32.714,24.649,30.7,26.665Z" transform="translate(259.097 115.313)" fill="gray"/>
          <path d="M5.083,0S.456,5.593.044,18.51C-.415,32.9,2.884,37.936,2.884,37.936s2.729-2.3,3.391-19.151C6.824,4.765,5.083,0,5.083,0Z" transform="translate(240.36 195.034)" fill="#1a1a1a"/>
          <path d="M1.933,0,16.96,1.282S30.431,3.024,34,10.538s1.557,10.629,1.557,10.629l-34-.642S-.135,18.978.009,9.255C.1,3.024,1.933,0,1.933,0Z" transform="translate(242.045 203.557)" fill="#ffc9af"/>
          <path d="M0,7.056,12,0,38.669,27.765,17.685,26.757S19.61,19.793,12.554,14.2,0,7.056,0,7.056Z" transform="translate(257.723 197.782)" fill="#1a1a1a"/>
          <path d="M0,1.741,3.116,0,28.681,27.673l-2.016,1.833Z" transform="translate(269.726 196.043)" fill="gray"/>
          <path d="M33.049,2.474l.071-.014L31.033,0S15.394,6.475,0,27C0,27,21.5,4.673,33.049,2.474Z" transform="translate(99.686 115.497)" fill="#1a1a1a"/>
          <path d="M2.474,8.919,0,5.987A14.823,14.823,0,0,0,5.345,0,38.031,38.031,0,0,1,2.474,8.919Z" transform="translate(115.966 89.716)" fill="#1a1a1a"/>
          <path d="M0,8.552c.109.032.284.081.511.141A28.634,28.634,0,0,0,17.227,4.4,32.339,32.339,0,0,1,14.906,0,22.054,22.054,0,0,1,0,8.552Z" transform="translate(70.485 119.406)" fill="#1a1a1a"/>
          <path d="M1.8,0S5.856,16.667,0,25.677" transform="translate(99.752 95.991)" fill="none" stroke="#e54c1d" stroke-linecap="round" stroke-linejoin="round" stroke-width="2.276"/>
          <path d="M0,5.462S4.11.845,12.388,0" transform="translate(108.311 107.197)" fill="none" stroke="#e54c1d" stroke-linecap="round" stroke-linejoin="round" stroke-width="2.276"/>
        </g>
      </g>
    </g>
  </g>
</svg>