<svg height="82" viewBox="0 0 51 82" width="51" xmlns="http://www.w3.org/2000/svg"><g transform="translate(-858 -831)"><g fill="none" stroke="#000" stroke-width="3"><rect height="81" rx="10" stroke="none" width="51" x="858" y="832"/><rect fill="none" height="78" rx="8.5" width="48" x="859.5" y="833.5"/></g><g transform="translate(860.912 845.412)"><path d="m10 10v7.343h7.343v-7.343zm5.245 5.245h-3.145v-3.145h3.147z"/><path d="m10 66.666v7.343h7.343v-7.343zm5.245 5.245h-3.145v-3.147h3.147z" transform="translate(0 -38.833)"/><path d="m66.667 10v7.343h7.343v-7.343zm5.245 5.245h-3.147v-3.145h3.147z" transform="translate(-38.834)"/><path d="m71.912 40v6.294h-5.245v2.1h7.343v-8.394z" transform="translate(-38.834 -20.559)"/><path d="m66.667 73.334v5.245h2.1v-3.147h3.147v3.147h2.1v-5.245z" transform="translate(-38.834 -43.403)"/><path d="m40 10v2.1h4.2v5.245h2.1v-7.345z" transform="translate(-20.559)"/><path d="m44.2 40v4.2h-4.2v6.29h4.2v5.245h2.1v-7.343h-4.2v-2.1h4.2v-4.192h2.1v2.1h2.1v-4.2z" transform="translate(-20.559 -20.559)"/><path d="m19.441 32.029h2.098v3.147h-2.098z"/><path d="m14.196 23.637h3.147v2.098h-3.147z"/><path d="m19.441 23.333v5.245h-9.441v6.294h2.1v-4.2h9.441v-7.339z" transform="translate(0 -9.137)"/></g><path d="m-10261-21156.154h49.929" fill="none" stroke="#000" stroke-width="3" transform="translate(11119 22055)"/><g fill="#e8e8e8"><path d="m861 893h4v11h-4z"/><path d="m892 831h4v11h-4z"/></g></g></svg>