<svg height="74.469" viewBox="0 0 76.285 74.469" width="76.285" xmlns="http://www.w3.org/2000/svg"><g transform="translate(-3 -3)"><path d="m75.65244293 77.21875763h-69.01981687c-.95149994 0-1.56630993-.61480713-1.56630993-1.56630707v-34.50992203-.25h-.25c-.95149994 0-1.56630993-.61481094-1.56630993-1.56631088s.61480999-1.56630707 1.56630993-1.56630707h18.1631093.25v-.25-10.89787101c0-4.95227051 3.87928009-8.8315506 8.83155251-8.8315506h1.81630706.5l-.29999923-.39999962c-1.10601044-1.47469044-1.76630783-3.45559025-1.76630783-5.29893017 0-4.95228052 3.87928009-8.83156037 8.83155822-8.83156037 4.95227051 0 8.8315506 3.87927985 8.8315506 8.83156037 0 1.84334946-.66030121 3.82425976-1.76631164 5.29893017l-.29999924.39999962h.5 1.81631088c4.95227814 0 8.83155823 3.87928009 8.83155823 8.8315506v10.89787101.25h.25 18.16311264c.95149994 0 1.56632233.61480713 1.56632233 1.56630707s-.61482239 1.56631088-1.56632233 1.56631088h-.25v.25 34.50992203c0 .95149994-.61481476 1.56630707-1.5663147 1.56630707zm-19.97942734-14.03048706h14.53049851c.95149994 0 1.5663147.61481857 1.5663147 1.5663147v9.08155059.25h.25 1.81630706.25v-.25-14.53048706-.25h-.25-65.3871994-.25v.25 14.53048706.25h.25 1.81630993.25v-.25-9.08155059c0-.95149613.61480999-1.5663147 1.56630993-1.5663147h18.16311073c.95149994 0 1.56630898.61481857 1.56630898 1.5663147v9.08155059.25h.25000191 3.63261795.25v-.25-3.63261413c0-1.86581421.73192215-3.62528992 2.06093979-4.95431519 1.32902145-1.32901764 3.08850097-2.06093597 4.95431137-2.06093597 1.86581039 0 3.62527847.73191833 4.95429992 2.06093597 1.32901764 1.32902527 2.06093979 3.08850098 2.06093979 4.95431519v3.63261413.25h.25 3.63261795.25v-.25-9.08155059c0-.95149613.61481095-1.5663147 1.56631088-1.5663147zm1.56631089 3.13262176v.25 7.26524353.25h.25 10.89787292.25v-.25-7.26524353-.25h-.25-10.89787292zm-14.28047943 0c-2.14088059 0-3.88262177 1.74173737-3.88262177 3.8826294v3.63261413.25h.25 7.26523972.25v-.25-3.63261413c0-2.14089203-1.74173737-3.8826294-3.88261795-3.8826294zm-29.3109808 0v.25 7.26524353.25h.25 14.53048992.25v-.25-7.26524353-.25h-.25-14.53048992zm51.10671902-21.2957344c1.86581421 0 3.62528228.73192215 4.95429992 2.06093979 1.32901764 1.32902145 2.06094361 3.08848953 2.06094361 4.95429992v3.63262177.25h.25 1.81630706.25v-.25-14.53049088-.25h-.25-65.3871994-.25v.25 14.53049088.25h.25 1.81630993.25v-.25-9.0815506c0-.95149994.61480999-1.56631088 1.56630993-1.56631088h14.53048897c.95149994 0 1.56631088.61481094 1.56631088 1.56631088v9.0815506.25h.25 3.63262177.25v-.25-9.0815506c0-.95149994.61480712-1.56631088 1.56630706-1.56631088h18.16312027c.95149231 0 1.56629944.61481094 1.56629944 1.56631088v9.0815506.25h.25 3.63262177.25v-.25-3.63262177c0-1.86581039.73192978-3.62527847 2.06095123-4.95429992 1.32901764-1.32901764 3.08848953-2.06093979 4.95430756-2.06093979zm0 3.13262176c-2.14088822 0-3.8826294 1.74173737-3.8826294 3.88261795v3.63262177.25h.25 7.26524353.25v-.25-3.63262177c0-2.14088058-1.74172973-3.88261795-3.88261413-3.88261795zm-29.31098938 0v.25 7.26523972.25h.25 14.53049087.25v-.25-7.26523972-.25h-.25-14.53049087zm-21.79572964 0v.25 7.26523972.25h.25 10.89787006.25v-.25-7.26523972-.25h-.25-10.89787006zm36.57622051-21.29574012c.95149994 0 1.56631851.61480903 1.56631851 1.56630897v9.08156204.25h.25 3.63261032.25v-.25-10.89787101c0-1.56014061-.58235931-3.00170136-1.63978958-4.05914116-1.05743026-1.05743027-2.49900055-1.63978958-4.05913925-1.63978958h-18.16310882c-1.56014252 0-3.0017109.58235931-4.05914116 1.63978958-1.05743027 1.0574398-1.63979149 2.49900055-1.63979149 4.05914116v10.89787101.25h.25 3.63262176.25v-.25-9.08156204c0-.95149994.61480904-1.56630897 1.56631089-1.56630897.95149993 0 1.56630706.61480903 1.56630706 1.56630897v9.08156204.25h.25 14.53049088.25v-.25-9.08156204c0-.95149994.61481094-1.56630897 1.56631088-1.56630897zm-9.0815506-20.47942067c-1.5601387 0-3.00170898.58235979-4.05915069 1.63978959-1.05743027 1.05744075-1.63978958 2.49901008-1.63978958 4.05915069 0 1.56013966.58235931 3.00170994 1.63978958 4.05914021 1.05744171 1.05743026 2.49901199 1.63978958 4.05915069 1.63978958 1.56013871 0 3.00170899-.58235932 4.05913926-1.63978958 1.05743026-1.05743027 1.63978958-2.49900055 1.63978958-4.05914021 0-1.56014061-.58235932-3.00170994-1.63978958-4.05915069-1.05743027-1.0574298-2.49900055-1.63978959-4.05913926-1.63978959z"/><path d="m41.14253616 3.5c-4.81209182 0-8.58155822 3.76947021-8.58155822 8.5815506 0 1.79116058.64160919 3.71599579 1.71630859 5.14893722l.59999847.79999924h-2.81630706c-4.81208039 0-8.5815506 3.76947022-8.5815506 8.5815506v11.39787292h-18.66311264c-.81193543 0-1.31632233.50437928-1.31632233 1.31630707 0 .81193161.5043869 1.31631088 1.31632233 1.31631088h.5v35.00990677c0 .81194306.50437927 1.31632233 1.31629944 1.31632233h69.01982879c.81193543 0 1.3163147-.50437927 1.3163147-1.31632233v-35.00990677h.5c.81192779 0 1.31630707-.50437927 1.31630707-1.31631088 0-.81192779-.50437928-1.31630707-1.31630707-1.31630707h-18.66310883v-11.39787292c0-4.81208038-3.76947021-8.5815506-8.58156204-8.5815506h-2.81631088l.59999847-.79999924c1.07470322-1.43292617 1.71631241-3.35776901 1.71631241-5.14893722 0-4.81208039-3.76947021-8.5815506-8.5815506-8.5815506m0 14.53048706c-1.62691879 0-3.13127136-.60835648-4.23591995-1.71302032-1.10466003-1.10464478-1.71302032-2.60900116-1.71302032-4.23591614 0-1.62692261.60836029-3.13126373 1.71302032-4.23590851 1.10464859-1.10466003 2.60900116-1.71302032 4.23591995-1.71302032 1.6269188 0 3.13125992.60836029 4.23591996 1.71302032 1.10464859 1.10464478 1.71300888 2.6089859 1.71300888 4.23590851 0 1.62691498-.60836029 3.13127136-1.71300888 4.23591614-1.10466004 1.10466384-2.60900116 1.71302032-4.23591996 1.71302032m15.03047943 19.97942352h-4.63261795v-9.58156204c0-.81193161-.50437927-1.31631088-1.31631088-1.31631088s-1.31631088.50437927-1.31631088 1.31631088v9.58156204h-15.53049088v-9.58156204c0-.81193161-.50437927-1.31631088-1.31630706-1.31631088-.81193161 0-1.31631089.50437927-1.31631089 1.31631088v9.58156204h-4.63262939v-11.39787292c0-1.62691879.60836029-3.13125992 1.71302032-4.23590851 1.10464859-1.10466003 2.60899735-1.71302032 4.23591996-1.71302032h18.16310882c1.62691879 0 3.13125992.60836029 4.23591995 1.71302032 1.10464859 1.10464859 1.71300888 2.60898972 1.71300888 4.23590851zm18.16312027 18.16310883h-2.81632232v-4.13262177c0-1.79903793-.70591736-3.49572754-1.98770905-4.77753067-1.28179931-1.28178787-2.97848511-1.98770904-4.77751922-1.98770904-1.79904175 0-3.49572754.70592117-4.7775383 1.98772049-1.28180313 1.28179168-1.98772049 2.97848129-1.98772049 4.77751922v4.13262177h-4.63262177v-9.5815506c0-.81193161-.50437927-1.31631088-1.31630707-1.31631088h-18.16311264c-.81192779 0-1.31630706.50437927-1.31630706 1.31631088v9.5815506h-4.63262177v-9.5815506c0-.81193161-.50437927-1.31631088-1.31631851-1.31631088h-14.53049469c-.81192017 0-1.31629944.50437927-1.31629944 1.31631088v9.5815506h-2.81630707v-15.53049088h66.3871994zm-49.04040908 0h-11.89786148v-8.26523972h11.89786148zm25.42835998 0h-15.53049087v-8.26523972h15.53049087zm18.16311264 0h-8.26524353v-4.13262177c0-2.27872848 1.85388947-4.13261795 4.1326294-4.13261795 2.2787323 0 4.13261413 1.85388947 4.13261413 4.13261795zm5.44893646 18.16311645h-2.81632232v-9.58154296c0-.81194306-.50437927-1.31633378-1.31629944-1.31633378h-14.53049851c-.81193161 0-1.31631088.50439072-1.31631088 1.31633378v9.58154296h-4.63261795v-4.13262939c0-1.79902649-.70592117-3.49571991-1.98772049-4.77752686-1.28179931-1.28179931-2.97848892-1.98772049-4.77751922-1.98772049-1.79904175 0-3.49573136.70592118-4.77753067 1.98772049-1.28179932 1.28180695-1.98772049 2.97850037-1.98772049 4.77752686v4.13262939h-4.63261795v-9.58154296c0-.81194306-.50438309-1.31633378-1.31631089-1.31633378h-18.16312408c-.81192017 0-1.31629944.50439072-1.31629944 1.31633378v9.58154296h-2.81630707v-15.53048706h66.3871994zm-45.40777969 0h-15.53049087v-8.26524353h15.53049087zm18.16310883 0h-8.26523972v-4.13262939c0-2.27872467 1.85388947-4.13261414 4.13262177-4.13261414 2.27872848 0 4.13261795 1.85388947 4.13261795 4.13261414zm21.7957344 0h-11.89787292v-8.26524353h11.89787292zm-27.74466324-71.33613586c5.08567047 0 9.0815506 3.99588776 9.0815506 9.0815506 0 1.99794769-.72652054 3.99588775-1.81631088 5.44893646h1.81631088c5.08566666 0 9.08156204 3.99589157 9.08156204 9.0815506v10.89787292h18.16310883c1.08977508 0 1.81630707.72652817 1.81630707 1.81630707 0 1.08979035-.72653199 1.81631088-1.81630707 1.81631088v34.50990677c0 1.08979035-.72652435 1.81632233-1.8163147 1.81632233h-69.01982879c-1.08977509 0-1.81629944-.72653198-1.81629944-1.81632233v-34.50990677c-1.08979035 0-1.81632233-.72652053-1.81632233-1.81631088 0-1.0897789.72653198-1.81630707 1.81632233-1.81630707h18.16311264v-10.89787292c0-5.08565903 3.99588012-9.0815506 9.0815506-9.0815506h1.81630706c-1.0897789-1.45304871-1.81630706-3.45098877-1.81630706-5.44893646 0-5.08566284 3.99588775-9.0815506 9.08155822-9.0815506zm0 14.53048706c3.08773041 0 5.44892884-2.36120605 5.44892884-5.44893646 0-3.08772278-2.36119843-5.44892883-5.44892884-5.44892883-3.0877304 0-5.44894027 2.36120605-5.44894027 5.44892883 0 3.08773041 2.36120987 5.44893646 5.44894027 5.44893646zm14.53047943 19.97942352v-10.89787292c0-3.08771896-2.36120224-5.44892883-5.44892883-5.44892883h-18.16310882c-3.08773041 0-5.44894028 2.36120987-5.44894028 5.44892883v10.89787292h3.63262939v-9.08156204c0-1.08979034.72652054-1.81631088 1.81631089-1.81631088 1.08978653 0 1.81630706.72652054 1.81630706 1.81631088v9.08156204h14.53049088v-9.08156204c0-1.08979034.72652054-1.81631088 1.81631088-1.81631088 1.08979035 0 1.81631088.72652054 1.81631088 1.81631088v9.08156204zm18.16312027 18.16310883v-14.53049088h-65.3871994v14.53049088h1.81630707v-9.0815506c0-1.08979034.72652435-1.81631088 1.81629944-1.81631088h14.53049469c1.08979034 0 1.81631851.72652054 1.81631851 1.81631088v9.0815506h3.63262177v-9.0815506c0-1.08979034.72652816-1.81631088 1.81630706-1.81631088h18.16311264c1.08979035 0 1.81630707.72652054 1.81630707 1.81631088v9.0815506h3.63262177v-3.63262177c0-3.99588775 3.26937103-7.26523971 7.26525879-7.26523971 3.99588012 0 7.26522827 3.26935196 7.26522827 7.26523971v3.63262177zm-49.04040908 0v-7.26523972h-10.89786148v7.26523972zm25.42835998 0v-7.26523972h-14.53049087v7.26523972zm18.16311264 0v-3.63262177c0-1.99794769-1.6346817-3.63261795-3.63261413-3.63261795-1.9979477 0-3.6326294 1.63467026-3.6326294 3.63261795v3.63262177zm5.44893646 18.16311645v-14.53048706h-65.3871994v14.53048706h1.81630707v-9.08154296c0-1.08980561.72652435-1.81633378 1.81629944-1.81633378h18.16312408c1.0897789 0 1.81631089.72652817 1.81631089 1.81633378v9.08154296h3.63261795v-3.63262939c0-3.99588013 3.26935958-7.26524735 7.26525116-7.26524735 3.99588012 0 7.26523971 3.26936722 7.26523971 7.26524735v3.63262939h3.63261795v-9.08154296c0-1.08980561.72653198-1.81633378 1.81631088-1.81633378h14.53049851c1.08977508 0 1.81629944.72652817 1.81629944 1.81633378v9.08154296zm-45.40777969 0v-7.26524353h-14.53049087v7.26524353zm18.16310883 0v-3.63262939c0-1.99794006-1.63467789-3.63261414-3.63261795-3.63261414-1.99795151 0-3.63262177 1.63467408-3.63262177 3.63261414v3.63262939zm21.7957344 0v-7.26524353h-10.89787292v7.26524353z" fill="#e8e8e8"/></g></svg>