<svg height="919" viewBox="0 0 1152 919" width="1152"
  xmlns="http://www.w3.org/2000/svg"
  xmlns:xlink="http://www.w3.org/1999/xlink">
  <clipPath id="merchants-hero-a">
    <path d="m10 0h1132a10 10 0 0 1 10 10v909a0 0 0 0 1 0 0h-1152a0 0 0 0 1 0 0v-909a10 10 0 0 1 10-10z" transform="translate(246 324)"/>
  </clipPath>
  <g clip-path="url(#merchants-hero-a)" transform="translate(-246 -324)">
    <g fill="#6638ff">
      <path d="m3246.45 1606.078c3.369-1.117 6.552-2.687 9.836-4.01 4.71-1.9 9.411-3.818 14.285-5.289 2.993-.9 5.873-2.143 8.91-2.964 7.084-1.917 14.11-4.023 21.3-5.579 5.767-1.249 11.516-2.57 17.316-3.665 5.142-.971 10.34-1.488 15.528-2.093a3.394 3.394 0 0 1 2.128.281c-.037.7-.887.149-.935.761.5.3 1.614-.457 1.542.483a2.251 2.251 0 0 1 -1.707 1.9c-1.471.425-2.969.178-4.442.451-6.531 1.21-13.095 2.227-19.557 3.82-3.975.98-8 1.8-11.863 3.139-2.139.743-4.431.811-6.484 1.782-.505.239-1.131.156-1.445.858-.117.261-.806.913-1.248-.016-.094-.2-.439.018-.672.094a56.849 56.849 0 0 0 -7.562 2.49c-2.3 1.12-4.758 1.712-7.088 2.7-1.647.7-3.572.559-5.24 1.4a8.436 8.436 0 0 0 -2.05 1.064l-.83.246a16.265 16.265 0 0 0 -5.448 2.156 17.41 17.41 0 0 0 -5.67 2.346 16.554 16.554 0 0 0 -5.912 2.781 14.286 14.286 0 0 1 -2.61 1.333c-2.937 1.578-5.856 3.187-8.8 4.755-.544.291-1.049.794-1.77.58a12.611 12.611 0 0 0 -4.424 2.444 24.974 24.974 0 0 1 -4.439 2.527 22.034 22.034 0 0 0 -5.342 3.693c-1.292 1.322-3.142 1.971-4.654 3.094-3.3 2.454-6.8 4.77-9.546 7.772-2.987 3.265-6.764 5.651-9.495 9.146a14.264 14.264 0 0 1 -2.076 2.694 3.358 3.358 0 0 1 -3.951-.037 2.385 2.385 0 0 1 -.594-3.068 32.017 32.017 0 0 1 3.771-5.688c6.141-7.633 13.532-13.912 21.466-19.577a178.39 178.39 0 0 1 24.47-14.584c4.342-2.154 8.837-3.951 13.295-5.84 4.588-1.945 9.2-3.822 13.925-5.38 4.211-1.388 8.475-2.611 12.732-3.853 4.986-1.454 9.985-2.84 15.033-4.009 12.109-2.8 24.267-5.386 36.723-6.131.841-.051 1.732-.617 2.621.145a3.229 3.229 0 0 1 -2.435.892 186.927 186.927 0 0 0 -19.005 2.533c-9.3 1.633-18.382 4.147-27.526 6.4-4.424 1.088-8.721 2.676-13.1 3.952-5.744 1.674-11.322 3.821-16.884 5.993a68.407 68.407 0 0 0 -9.729 4.529c-.225.132-.407.281-.322.58-.771-.259-1.321.279-1.923.563-4.679 2.2-9.24 4.63-13.756 7.149-2.834 1.581-5.55 3.357-8.347 5a76.086 76.086 0 0 0 -8.362 5.96c-.762.6-2.048.855-2.141 2.169-1.564.143-2.229 1.433-3.112 2.441a11.965 11.965 0 0 0 3.083-2.475 6.267 6.267 0 0 0 .9-.485 173.831 173.831 0 0 1 25.106-15.915c2.832-1.494 5.681-2.961 8.526-4.438zm-47.107 32.081a4.186 4.186 0 0 0 -1.774 2.031c.684-.59 1.504-1.061 1.774-2.031z" transform="matrix(-.848 .53 -.53 -.848 4734.144836 95.7141)"/>
      <path d="m3394.148 1180.167a11.817 11.817 0 0 1 1.289-6.819 3.819 3.819 0 0 1 3.723-2.456c1.521.063 2.9.444 3.488 2.149.15.437.679.733.891 1.164.155.316 1.1.907-.145 1.089.046.236.011.6.152.69a3.142 3.142 0 0 1 1.191 4.123 7.863 7.863 0 0 0 -.63 3.251 2.548 2.548 0 0 0 1.242 1.729 11.728 11.728 0 0 0 8.515 1.044c7.973-1.883 15.143-5.18 19.934-12.191a62.266 62.266 0 0 0 3.592-6.984 36.985 36.985 0 0 1 1.823-3.393 3.3 3.3 0 0 1 3.348-1.478c1.827.2 2.23.625 1.981 2.442-.1.715-.053 1.1.822 1.18.321.029.753.6.855.992a27.833 27.833 0 0 1 .4 11.212 87.186 87.186 0 0 1 -2.363 11.618c-1.072 3.681-2.457 7.351-5.379 10.1a24.5 24.5 0 0 1 -9.973 5.589c-5.364 1.594-10.781 2.163-16.244.558a13.176 13.176 0 0 1 -2.853-1.454 20.019 20.019 0 0 1 -3.534-2.3c-1.644-1.526-3.763-2.483-4.764-4.834-.653-1.535-2.43-2.549-3.47-3.968a19.492 19.492 0 0 1 -3.891-13.053zm26.351 24.645c2.558.508 7.521-.816 9.569-2.405zm-6.448-13.866.107.417c2.413.558 4.337-.8 6.389-1.651l-.09-.352zm8.553 10.567c.034.147.067.293.1.44l4.856-1.063q-.056-.247-.114-.494zm12.685-.812.364.346 2.053-1.827-.327-.365z" transform="matrix(-.848 .53 -.53 -.848 4711.496876 -114.476162)"/>
      <path d="m3438.7 1434.92c-1.806 1.66-3.143 3.906-5.91 4.656l.51-1.294a6.272 6.272 0 0 1 -1.881.317c-.2-.026-.3-.861-.426-1.286a10.834 10.834 0 0 1 -1.526 1.076 1.069 1.069 0 0 1 -1-.191 1.015 1.015 0 0 1 .1-.972c1.821-2.025 3.749-3.957 5.528-6.017 2.39-2.768 4.681-5.624 7-8.455a1.01 1.01 0 0 0 .075-.96c-1.154 1.3-2.3 2.615-3.461 3.911-3.048 3.4-6.094 6.8-9.177 10.171a4.212 4.212 0 0 1 -1.313.655c.081-.542-.026-1.235.27-1.6 2.332-2.887 4.751-5.7 7.12-8.562.885-1.067 1.7-2.187 2.557-3.279.482-.616.311-.842-.441-.876a33.347 33.347 0 0 0 -3.4-.221 2.715 2.715 0 0 0 -1.666.867 23.768 23.768 0 0 0 -1.826 2.614l-.369-.225 1.828-3.059-.34-.213c-.594.921-1.18 1.847-1.787 2.759-.59.886-1.115 1.339-2.381.7a4.584 4.584 0 0 0 -3.482-.529 1.5 1.5 0 0 1 -1.242-.473c-.19-.214-.081-.8.043-1.166.224-.66.56-1.281.848-1.918l-.356-.2c-.336.453-.653.921-1.015 1.352a4 4 0 0 1 -.647.516 2.891 2.891 0 0 1 -.418-.742 2.668 2.668 0 0 1 -.018-1.022c.236-1.411-.234-2.006-1.676-2.439a45.02 45.02 0 0 1 -5.005-1.776 2.566 2.566 0 0 1 -1.784-2.5 1.03 1.03 0 0 0 -.488-.729 2.833 2.833 0 0 1 -.43-4.69 13.561 13.561 0 0 1 3.8-2.238c3.652-1.256 7.368-2.336 11.087-3.383a2.457 2.457 0 0 0 1.778-1.709c1.586-3.841 3.161-7.7 5.027-11.408a11.77 11.77 0 0 1 3.322-3.47 2.737 2.737 0 0 1 3.671.208 26.524 26.524 0 0 0 2.459 1.2 14.926 14.926 0 0 1 3.539 2.536c1.529 1.774 2.714 3.841 4.112 5.734a3.358 3.358 0 0 0 1.388.964 36.277 36.277 0 0 0 3.5 1.275 11.684 11.684 0 0 1 4.484 2.984 8.192 8.192 0 0 1 1.179 1.093c.481.681 1.406 1.505-.644 1.988l1.767.091c-.059.759.134 1.676-.223 2.251a73.522 73.522 0 0 1 -5.32 7.894c-4.008 4.887-8.25 9.582-12.384 14.366a8.543 8.543 0 0 0 -.7 1.11l-.511.583-3.458 3.46zm17.524-21.9c-.823.958-1.659 1.906-2.468 2.877q-2.9 3.485-5.783 6.988a65.823 65.823 0 0 0 6.031-6.6c.829-1.013 1.527-2.133 2.284-3.2l2.165-2.674-.479-.339z" transform="matrix(-.848 .53 -.53 -.848 4771.648908 -31.938626)"/>
      <path d="m3484.248 1446.026-8.362 9.236-.321-.291 8.357-9.267z" transform="matrix(-.848 .53 -.53 -.848 4811.186378 -24.829842)"/>
      <path d="m3466.282 1466.5.51-.583 2.2-1.891.217.189c-.467.5-.924 1.014-1.4 1.5-1.345 1.371-2.677 2.755-4.066 4.078-.282.268-.8.292-1.2.428l.283-.265z" transform="matrix(-.848 .53 -.53 -.848 4810.58186 -14.634762)"/>
      <path d="m3494.289 1439.17 2.3-2.951.323.247-2.351 2.951z" transform="matrix(-.848 .53 -.53 -.848 4816.115166 -32.992902)"/>
      <path d="m3758.805 1622.674.73.118c-.1.077-.159.155-.223.163q-5.678.6-11.359 1.181c-.887.092-1.773.194-2.662.285-.095.01-.236.011-.286-.046-.741-.853-1.78-1.61-2.118-2.605a2.069 2.069 0 0 1 1.52-2.541 28.773 28.773 0 0 1 6.143-1.569c6.419-.486 12.862-.781 19.23.637.854.191 2.367 2.2 2.2 3.048a1.568 1.568 0 0 1 -1.8 1.353c-3.805-.058-7.609-.024-11.375-.024zm4.787-4.021c-4.642-.119-10.4-.266-16.091.855z" transform="matrix(-.848 .53 -.53 -.848 4955.438598 -23.08381)"/>
      <path d="m3789.462 1541.753c4.754.608 9.51 1.205 14.261 1.839a6.2 6.2 0 0 1 1.372.533c-.66.883.922 1.8.09 2.474-.461.374-1.408.2-2.132.18-2.216-.07-4.433-.283-6.648-.265a105.586 105.586 0 0 0 -11.1.377c-3.9.446-7.746 1.4-11.606 2.176-.735.148-1.026.094-1.2-.745-.484-2.3-.126-3.627 2.155-4.348a51.081 51.081 0 0 1 8.68-1.762 47.031 47.031 0 0 1 6.088-.05z" transform="matrix(-.848 .53 -.53 -.848 4948.627038 -59.27486)"/>
      <path d="m3716.2 1516.235c0 .994-.456 1.236-1.63 1.2-3.214-.1-6.437.06-9.656.125-.192 0-.382.109-.575.116-1.842.066-3.7-.014-5.523.209-3.518.432-7.016 1.032-10.522 1.567-.79.121-1.326.02-1.4-.989-.048-.621-.646-1.254-.565-1.818a2.366 2.366 0 0 1 2.092-2.032c4.048-.646 8.084-1.558 12.159-1.8a93.78 93.78 0 0 1 13.033.318c2.387.195 2.374.79 2.587 3.104z" transform="matrix(-.848 .53 -.53 -.848 4908.507734 -49.761678)"/>
      <path d="m3730.274 1690.873.794.143c-1.432.075-3.017.117-4.593.255-1.258.11-1.474-1.058-1.68-1.676-.233-.7-.428-.969-1.1-1.045-.183-.02-.343-.252-.513-.387.2-.177.383-.474.607-.511a50.281 50.281 0 0 1 6.16-.895c6.9-.261 13.809-.372 20.713-.544a6.013 6.013 0 0 0 .625-.076l-.013-.509c-2.569 0-5.14-.04-7.708.008-4.377.081-8.756.152-13.127.36-1.856.088-3.693.539-5.546.76a4.456 4.456 0 0 1 -1.335-.256c.38-.293.745-.815 1.145-.843 4.925-.345 9.852-.738 14.784-.872 3.9-.107 7.8.092 11.7.233a26.039 26.039 0 0 1 3.318.536c0 .125.006.251.01.377l-2.11.129-.031.238a3.417 3.417 0 0 1 1.34.244 13.214 13.214 0 0 1 1.618 1.555c-.463.313-.9.845-1.393.891a13.4 13.4 0 0 1 -2.582-.233 1.351 1.351 0 0 0 -.386.011 8.494 8.494 0 0 1 -2.822.475c-3.521-.674-6.833.767-10.278.814-2.535.035-5.065.4-7.6.619zm5.811-1.6.022.143c1.072 0 2.145.01 3.216-.012.14 0 .277-.176.415-.271-.123-.124-.262-.368-.368-.354-1.098.144-2.192.321-3.286.496z" transform="matrix(-.848 .53 -.53 -.848 4964.135156 7.640184)"/>
      <path d="m3686.751 1611.97c-.8.5-.785.487-.227.972a.517.517 0 0 1 .036.485.665.665 0 0 1 -.437.329q-1.438.119-2.883.164c-3.48.114-6.962.2-10.44.329-1.964.074-3.925.222-6.27.36l1.584.17c-.106.08-.157.154-.214.157-1.433.084-2.866.216-4.3.218-.681 0-1.369-.386-2.04-.351a19.67 19.67 0 0 0 -2.821.515c-1.733.354-2.813-.484-3.575-1.931-.147-.278-.358-.522-.515-.8-.135-.237-.236-.494-.352-.741.284-.133.567-.38.853-.383 6.9-.087 13.805-.137 20.708-.225a8.355 8.355 0 0 0 2.915-.562c-.588-.051-1.174-.144-1.762-.146q-4.794-.017-9.586.01c-1.577.01-3.155.066-4.732.115-2.312.072-4.626.171-6.939.221a4.9 4.9 0 0 1 -1.183-.271c.39-.3.762-.82 1.172-.852 2.269-.176 4.545-.321 6.819-.309 5.272.027 10.544.131 15.815.246 1.578.035 3.154.206 4.728.338a1.342 1.342 0 0 1 .609.257c-.466 1.851 1 1.086 1.737 1.3.417.121.836.246 1.3.385z" transform="matrix(-.848 .53 -.53 -.848 4919.464318 -4.783864)"/>
      <path d="m3635.951 1643.345-1.313.886c.421.623 1.456-.7 1.8.69.251 1.009.238 1.59-.749 1.9a31.615 31.615 0 0 1 -3.4.9c-3.174.618-6.38 1.084-9.534 1.8a54.579 54.579 0 0 0 -5.311 1.78c-1.772.6-3.55 1.173-5.322 1.767a2.271 2.271 0 0 0 -.778.354c-.826.721-1.459.6-2.077-.293a3.921 3.921 0 0 0 -1.027-.792c-.115-.081-.291-.09-.381-.186a4.443 4.443 0 0 1 .569-2.667c3.3-1.169 6.528-2.651 9.92-3.391 5.551-1.211 11.208-1.935 16.821-2.858a3.974 3.974 0 0 1 .782.11zm-15.825 3.626-.135-.361-7.006 1.887.092.356z" transform="matrix(-.848 .53 -.53 -.848 4909.686242 19.424204)"/>
      <path d="m3785.209 1509.978 1.522-.234.048.193c-1.136.285-2.282.54-3.41.861-1.643.469-3.276.979-4.907 1.488a2.549 2.549 0 0 0 -.784.387c-.454.347-1.157 1.125-1.26 1.049a4.911 4.911 0 0 1 -1.48-1.632c-1.016-2 .127-4.145 2.433-5.026 6.42-2.453 13.1-2.762 19.821-2.265a17.856 17.856 0 0 1 5.488 1.735c.573.246.917 1.222 1.149 1.936.068.208-.6.668-.957.99-.048.044-.223-.045-.335-.082a13.125 13.125 0 0 1 -1.556-.526c-.783-.371-1.916.962-2.5-.523a1.9 1.9 0 0 0 -1.211.181c-1.008.653-1.338.545-2.436.135a8.144 8.144 0 0 0 -2.8-.154 5.1 5.1 0 0 0 -1.579.223c-.416.141-1.429-.438-1.114.776-.268.042-.638.219-.785.1-1.383-1.064-1.812-1.049-3.347.388zm-6.081-2.46c.377.245.47.356.536.341a57.273 57.273 0 0 1 18.758-1.5c.344.037.723-.271 1.472-.575a50.04 50.04 0 0 0 -20.765 1.733z" transform="matrix(-.848 .53 -.53 -.848 4940.552912 -74.133092)"/>
      <path d="m3716.375 1537.85-1.269.3a3.234 3.234 0 0 0 .651.161c.862-.021 1.089.563 1.036 1.225-.066.816-.556.42-1.11.434-6.554.165-13.1.492-19.657.709-3.061.1-6.128-.012-9.187.109-1.658.066-1.192-1.325-1.493-2.069-.1-.255.851-1.307 1.417-1.4a36.737 36.737 0 0 1 5.907-.467c7.07.039 14.141.162 21.21.289a17.619 17.619 0 0 1 2.449.377z" transform="matrix(-.848 .53 -.53 -.848 4913.946382 -40.222102)"/>
      <path d="m3692.434 1652.21 1.033.147v.191a12.763 12.763 0 0 1 -1.67.06c-.953-.085-2.087.289-2.373-1.324-.08-.457-.08-1.788-1.357-1.673-.088.008-.375-.615-.3-.69a1.4 1.4 0 0 1 .844-.428c3.01-.158 6.021-.332 9.033-.4 3.135-.065 6.275-.015 9.465-.269a16.767 16.767 0 0 0 -1.82-.179c-5.579.041-11.159.108-16.737.145a2.939 2.939 0 0 1 -.9-.3c.222-.242.418-.663.667-.7a32.312 32.312 0 0 1 4.839-.494c3.748.055 7.5.234 11.24.448 2.5.143 4.986.434 7.479.659l.008.465h-3.706l-.01.448a40.039 40.039 0 0 0 4.419.487c1.206.008.8 1.052 1.26 1.508-.449.423-.526 1.243-1.577.921a30.94 30.94 0 0 0 -4.164-.741c-.175-.028-.494-.029-.527.05-.825 1.941-2.381.433-3.559.651l1.558-.239-.007-.189h-4.239l1.549.7c-1.259.132-2.128.2-2.991.319-1.29.176-2.57.5-3.863.548a27.988 27.988 0 0 1 -3.573-.288z" transform="matrix(-.848 .53 -.53 -.848 4941.189336 1.379824)"/>
      <path d="m3709.666 1581.536h-9.2v.284q3.847 0 7.695 0c.3 0 .682-.1.87.049a10.355 10.355 0 0 1 1.167 1.219c-.427.361-.828 1-1.285 1.04-3.246.317-6.512.43-9.753.771-3 .316-5.979.83-8.966 1.264-1.833.267-3.668.525-5.495.834-.71.121-1.127 0-1.27-.786-.107-.591-.521-1.165-.5-1.734a1.835 1.835 0 0 1 1.7-1.75 100.507 100.507 0 0 1 9.949-1.533c4.684-.306 9.4-.2 14.094-.251a4.227 4.227 0 0 1 1.036.256z" transform="matrix(-.848 .53 -.53 -.848 4923.631814 -22.657478)"/>
      <path d="m3784.127 1577.228-.882.142c.277.47.584.991.89 1.512a6.2 6.2 0 0 1 -1.8.594q-10.347.04-20.7-.029c-1.753-.01-3.507-.2-5.254-.136-.464.016-1.069-1.291-1.435.07-.2-.171-.468-.305-.579-.521-.3-.581-.527-1.2-.831-1.91l1.179-.291-.524-.568a2.531 2.531 0 0 1 .75-.291c2.224-.092 4.453-.276 6.672-.2 6.576.218 13.148.531 19.722.838a15.7 15.7 0 0 1 2.333.408c.122.023.218.175.459.382z" transform="matrix(-.848 .53 -.53 -.848 4949.54203 -41.724016)"/>
      <path d="m3651.386 1701.977c3.593 0 7.187.015 10.779-.012.764-.006 1.674-.081 1.6.894a1.977 1.977 0 0 1 -1.387 1.3c-1.338.153-2.713-.064-4.071-.039a22.11 22.11 0 0 0 -2.276.322c-1.726.213-3.45.47-5.184.576a5.348 5.348 0 0 1 -2.009-.457c-.6-.215-.574.016-.552.483.006.106-.468.312-.737.343-2.028.239-4.061.433-6.088.677a4.176 4.176 0 0 0 -1.069.389c-1.057.448-2.226.744-2.521-.73-.164-.816-1.468-.361-1.2-1.663.219-1.048.517-1.669 1.434-1.876a26.436 26.436 0 0 1 4.658-.786c6.725-.286 13.453-.465 20.454-.692-.9.946-.9.958-3.877 1.039-1.323.036-2.649.012-3.975.014s-2.656 0-3.985 0zm-8.992.337c.008.116.015.233.022.349l6.3-.5-.009-.156z" transform="matrix(-.848 .53 -.53 -.848 4934.633872 34.623332)"/>
      <path d="m3844.73 1593.34c2.415.147 4.837.226 7.241.486a2.923 2.923 0 0 1 1.8 1.1 6.325 6.325 0 0 1 .625 2.075 18.537 18.537 0 0 1 -2.339.409c-2.75.138-5.506.162-8.253.326-1.686.1-3.362.374-5.041.575a6.389 6.389 0 0 0 -2 .294c-1.523.751-2.142.116-2.844-1.228-.894-1.715-.767-2.71 1.086-3.107a46.6 46.6 0 0 1 5.862-.744c1.277-.107 2.571-.021 3.858-.021zm-3.026 1.393c-.008-.077-.015-.154-.023-.231l-6.445.554c.009.1.018.2.027.294zm7.445-.192.015-.08h-5.328v.08z" transform="matrix(-.848 .53 -.53 -.848 4984.575348 -54.10683)"/>
      <path d="m3808.547 1650.775a3.369 3.369 0 0 0 .278.649c1.723-.381 3.246.5 4.869.718a3.615 3.615 0 0 0 1.288-.245l1.081 2.324c-1.73-.489-3.284-.926-4.836-1.373-.163-.047-.376-.262-.453-.214-1.111.679-2.4.286-3.6.535-1.33.278-2.83-.423-4.179.56-.238.174-.889-.195-1.341-.34-1.308-.421-2.252.818-3.578.7a6.245 6.245 0 0 1 -4.186-1.829c-.089-.1-.255-.115-.375-.187-.211-.127-.414-.268-.62-.4.227-.146.443-.4.683-.423 1.955-.205 3.911-.478 5.871-.52 3.045-.063 6.092.039 9.14.071z" transform="matrix(-.848 .53 -.53 -.848 4982.794336 -22.260084)"/>
      <path d="m3792.8 1648.846a6.664 6.664 0 0 1 1.757-.576c3.255-.012 6.509.039 9.763.107.258 0 .51.293.763.45-.237.13-.473.371-.71.373-3.659.03-7.317.03-10.977.025-.111-.001-.224-.139-.596-.379z" transform="matrix(-.848 .53 -.53 -.848 4982.169784 -23.176348)"/>
      <path d="m3641.917 1565.276c2.233-.157 4.345-.374 6.46-.415a8.175 8.175 0 0 1 2.261.625c-.04-.386 1.538.551.519-.635.149-.086.361-.281.436-.238a3.316 3.316 0 0 1 .8.651c.041.045-.191.478-.274.47-1.443-.135-2.944 1.633-4.335-.115-.152.151-.291.411-.462.436a37.009 37.009 0 0 1 -4.2.466c-.33.007-.679-.68-1.205-1.245z" transform="matrix(-.848 .53 -.53 -.848 4903.899384 -19.078282)"/>
      <path d="m3630 1568.114 1.411-.509-.012-.246-1.631-.132-.027-.186 4.554-.8c-1.981 1.695-2.847 2.059-4.295 1.873z" transform="matrix(-.848 .53 -.53 -.848 4899.603416 -15.51594)"/>
      <path d="m3618.649 1571.165 2.82-.62.063.307-2.781.761z" transform="matrix(-.848 .53 -.53 -.848 4896.366494 -11.18743)"/>
      <path d="m3623.465 1566.7-2.938.422-.061-.336 2.927-.563z" transform="matrix(-.848 .53 -.53 -.848 4896.025174 -13.290152)"/>
      <path d="m3612.522 1571.328-2.253.684c-.053-.187-.105-.375-.158-.562l2.308-.662c.035.18.07.36.103.54z" transform="matrix(-.848 .53 -.53 -.848 4893.135402 -9.03828)"/>
      <path d="m3635.058 1564.979-3.156.389c-.014-.117-.028-.233-.043-.35l3.143-.467z" transform="matrix(-.848 .53 -.53 -.848 4900.011304 -16.676534)"/>
      <path d="m3820.723 1650.252c-.3-.2-.593-.391-1.121-.739.952 0 1.591-.029 2.224.016a2.112 2.112 0 0 1 .68.323 3.962 3.962 0 0 1 -.694.26c-.375.068-.759.079-1.137.115z" transform="matrix(-.848 .53 -.53 -.848 4992.791514 -29.15337)"/>
    </g>
    <circle cx="123.877" cy="123.877" fill="#ffd8d8" r="123.877" transform="translate(1027.72 426.197)"/>
    <g fill="#a66dfa">
      <path d="m3964.883 1743.046c-1.263-.737-2.79-1.153-2.415-2.984a13.625 13.625 0 0 1 .972-3.431 76.674 76.674 0 0 1 5.217-9.473 14.576 14.576 0 0 1 11.518-6.644c4.666-.184 9.351.06 14.026.18 6.423.163 12.873.725 18.845-2.555 3.833-2.1 7.088-4.663 9.144-8.7 2.325-4.566 4.783-9.09 7.536-13.407 3.837-6.016 9.253-9.937 16.5-10.961.732-.1 1.665-.414 2.179-.1a6.919 6.919 0 0 1 2.134 2.31c.189.31-.192 1.323-.586 1.557a24.739 24.739 0 0 1 -2.8 1.045 19.169 19.169 0 0 0 -2.069 1.2c-.127.076-.255.249-.367.236-2.443-.273-3.548 1.868-5.242 2.921-3.917 2.436-6.26 6.216-8.384 10.145-2 3.71-3.914 7.474-5.958 11.164a10.53 10.53 0 0 1 -2.269 2.854 31.912 31.912 0 0 1 -8.706 5.666c-6.527 2.688-13.082 1.925-19.738 1.532a84.149 84.149 0 0 0 -12.392-.1c-5.2.465-8.8 3.752-11.685 7.929-.757 1.1-1.909 1.924-2.676 3.018a13.641 13.641 0 0 0 -.968 2.567c-.563 1.32-1.178 2.618-1.816 4.031zm82.942-56.94-.1-.358-7.315 2.025.116.424z" transform="translate(-2715.626 -1253.75)"/>
      <path d="m4020.542 1671.818-.985.834h1.375c.979 1.794.36 3.107-.98 4.261-1.167 1.005-2.247 2.151-3.975 2.1-.179-.006-.477.067-.525.185-.657 1.561-1.807 1.5-3.049.934a6.835 6.835 0 0 1 -.248 2.079 6.71 6.71 0 0 1 -1.408 1.645c-2.916 3.016-4.054 6.919-5.518 10.7-1.344 3.477-3.219 6.695-6.555 8.729a9.022 9.022 0 0 1 -1.831.564 3.84 3.84 0 0 1 -3.037 2.126c-.992.093-1.906.961-2.9 1.078a40.394 40.394 0 0 1 -8.26.534 29.05 29.05 0 0 1 -7.43-2.023 27.612 27.612 0 0 0 -15.914-1.091 13.386 13.386 0 0 0 -7.752 4.573 26.389 26.389 0 0 1 -2.149 2.02 36.1 36.1 0 0 0 -8 11.627c-.582 1.361-1.137 2.735-1.716 4.1-.273.641-.584.959-1.348.444-1.88-1.267-2.164-2.094-1.627-4.427 2.158-9.364 7.843-16.177 15.566-21.472 3.422-2.346 7.436-2.825 11.438-2.713a43.613 43.613 0 0 1 8.064 1.171c2.47.543 4.851 1.48 7.293 2.162 2.97.829 5.933.278 8.877-.22 7.43-1.257 12.027-5.668 14.293-12.757a27.175 27.175 0 0 1 15.048-17.021 14.79 14.79 0 0 1 3.054-.7q.101.276.199.558zm-32.425 31.2.1.362 4.522-1.223-.1-.357zm-36.3.023.219.395 3.711-2.045-.247-.447z" transform="translate(-2703.917 -1247.62)"/>
      <path d="m4055.574 1728.477c-.578.631-1.164 1.255-1.729 1.9-.243.275-.685.773-.62.861a1.789 1.789 0 0 1 -.685 2.629c-1.642 1.163-1.1 2.814-1.332 4.283a3.541 3.541 0 0 1 -2.025 2.391c-.064-.4-.128-.788-.192-1.176a4.259 4.259 0 0 0 -1.039.531 20.338 20.338 0 0 0 -1.414 1.606l1.378.269c.08.5.157.983.232 1.46-1.5.554-3.011.821-4.161 2.11-.625.7-1.49 1.029-1 2.186.041.1-.556.652-.652.6-2.339-1.216-3.61.95-4.322 2.084a4.556 4.556 0 0 1 -2.027 1.791c-.581.273-1.458-.1-2.206-.16a3.036 3.036 0 0 0 -.669.112c.034.446.063.849.093 1.243-1.34.57-1.34.57-4.38-.274-.27 1.681-1.634 2.247-3.4 1.333-.1.335-.194.652-.207.7-1.826-.041-3.734-1.877-5.3.814-1.381-1.525-2.815-.871-4.383-.073a6.07 6.07 0 0 1 -2.606.322 37.4 37.4 0 0 0 -10.59 1.3c-1.707.51-3.154 1.548-4.763 2.019-3.478 1.019-5.074 4.1-7.511 6.231-1.145 1-1.726 2.632-2.592 3.96-.527.809-.752 2.088-2.283 1.33a1.9 1.9 0 0 1 -1.082-2.775c2.549-6.684 6.672-11.878 13.466-14.8 5.115-2.2 10.447-2.229 15.82-2.374 3.474-.094 6.944-.34 10.416-.5.537-.024 1.452-.512 1.208.76l.007-.024-.672.256-.015.234a4.651 4.651 0 0 0 1.006.077c.383-.05.756-.326 1.125-.312 2.991.109 5.511-1.34 8.014-2.6a81.042 81.042 0 0 0 7.645-4.679 14.59 14.59 0 0 0 2.006-1.921l-.044.037 1.782-1.416-2.09-.13c.983-1.2 1.8-2.336 2.772-3.327.643-.657 1.086-.371 1.543.8l2.283-.159-.99-1.337c-.642-.052-1.437.071-1.568-.168a2.718 2.718 0 0 1 -.082-1.657 11.063 11.063 0 0 1 .682-2.257 7.756 7.756 0 0 1 1.012-1.355c-.288-1.19.211-2.416 2.324-5.134l.97.481c-.19-1.841 0-2.137.9-2.062v1.885l-.031-.042.983 2.017.707-.2z" transform="translate(-2725.317 -1271.659)"/>
      <path d="m4112.946 1718.807-.283-.3c.2-2.119.11-2.213-1.69-1.819l.031.042c.651-.622 1.3-1.244 2.04-1.943l-1.581-1.012c.577-.335.99-.588 1.416-.815.142-.075.386-.029.469-.131 3.217-3.967 7.49-6.365 12.211-7.989 2.185-.752 4.49-1.152 6.745-1.692a5.711 5.711 0 0 1 1.006-.065l.142.475-8.484 2.492.11.414 8.778-2.425c1.021 2.253.863 2.531-1.237 3.433-2.757 1.185-5.468 2.473-8.21 3.694-.545.243-1.062.626-1.715-.044-.266-.272-1.042-.045-1.729-.045v-1.017l-2.112 1.336 1.558.186c0 .149.037.267-.006.322-.475.6-1.186.893-1.124 2.012.042.766-.971.74-1.423.019l-1.43 1.586c.11 1.4-.9 2.221-2.789 1.665a3.514 3.514 0 0 1 .148 1.234c-.048.188-.547.262-.841.387z" transform="translate(-2782.69 -1261.989)"/>
      <path d="m4076.623 1763.57-5.8 3.051-.283-.458a8.526 8.526 0 0 1 .8-.6c1.346-.789 2.692-1.581 4.063-2.324a3.332 3.332 0 0 1 1.046-.179z" transform="translate(-2764.437 -1289.064)"/>
      <path d="m4058.877 1771.5c1.041-1.766 2.946-1.437 4.544-1.971-.076.954-1.435 1.5-4.532 1.938a.171.171 0 0 0 -.012.033z" transform="translate(-2759.173 -1291.983)"/>
      <path d="m4091.141 1755.867a7.75 7.75 0 0 0 -1.645.312 8.8 8.8 0 0 0 -1.493 1.039c.138-1.267 1.407-2.621 2.229-2.428.354.083.578.726.863 1.115z" transform="translate(-2772.321 -1285.322)"/>
    </g>
    <rect fill="#00ebe5" height="93.55" rx="10.849" transform="translate(1210.708 489.934)" width="93.036"/>
    <path d="m829.033 591.383a32.331 32.331 0 1 1 -32.33 32.331" fill="none" stroke="#527fed" stroke-linecap="round" stroke-linejoin="round" stroke-width="2.469" transform="translate(428.106 -87.342)"/>
    <path d="m829.033 701.369a32.33 32.33 0 0 1 -32.33-32.331" fill="none" stroke="#393642" stroke-linecap="round" stroke-linejoin="round" stroke-width="16.802" transform="translate(428.106 -132.666)"/>
    <path d="m796.7 623.714a32.331 32.331 0 0 1 32.33-32.331" fill="none" stroke="#c3fc33" stroke-linecap="round" stroke-linejoin="round" stroke-width="16.802" transform="translate(428.106 -87.342)"/>
    <rect fill="#fff" height="117.195" rx="10.849" transform="translate(1164.447 349.951)" width="130.281"/>
    <path d="m0 0h130.281v77.102h-130.281z" fill="#f0f0f0" transform="translate(1164.447 370.17)"/>
    <g fill="none" stroke="#fff" stroke-miterlimit="10" stroke-width="2.469" transform="translate(1164.768 387.133)">
      <path d="m0 0h130.045"/>
      <path d="m0 0h130.045" transform="translate(0 14.649)"/>
      <path d="m0 0h130.045" transform="translate(0 29.299)"/>
      <path d="m0 0h130.045" transform="translate(0 43.948)"/>
    </g>
    <path d="m782.806 296.992s-7.71 67.078-109.484 55.513" fill="none" stroke="#00ebe5" stroke-linecap="round" stroke-linejoin="round" stroke-width="2.469" transform="translate(500.12 84.486)"/>
    <circle cx="3.427" cy="3.427" fill="#ffd800" r="3.427" transform="translate(1234.238 433.117)"/>
    <path d="m681.758 856.74s4.112 2.741 13.193 2.4 9.595-3.427 9.595-3.427a25.627 25.627 0 0 0 -12.336-2.4 20.765 20.765 0 0 0 -10.452 3.427z" fill="#1a1a1a" transform="translate(495.196 -240.188)"/>
    <path d="m593.109 545.28s.9 3.084.257 4.369a4.371 4.371 0 0 1 -2.441 1.8s-3.855.514-5.526-.257.514-7.582.514-7.582z" fill="#b78569" transform="translate(551.807 -59.457)"/>
    <path d="m115.424 667.272s3.148 4.776 6.1 4.669 4.241-9.166 4.241-9.166-1.928-7.967-4.112-7.2-6.229 11.697-6.229 11.697z" fill="#ffc9af" transform="translate(825.749 -124.779)"/>
    <rect fill="#fff" height="156.873" rx="10.849" transform="matrix(.97697488 -.21335438 .21335438 .97697488 927.965 448.477)" width="198.095"/>
    <path d="m14.074 64.446-14.074-64.446" fill="none" stroke="#efefef" stroke-miterlimit="10" stroke-width="2.469" transform="translate(1033.907 441.922)"/>
    <path d="m267.919 465.254-6.58-30.13a5.14 5.14 0 0 1 3.925-6.124l89.053-19.447a5.141 5.141 0 0 1 6.118 3.925l13.671 62.6" fill="none" stroke="#efefef" stroke-miterlimit="10" stroke-width="2.469" transform="translate(740.652 18.854)"/>
    <path d="m14.074 64.446-14.074-64.446" fill="none" stroke="#efefef" stroke-miterlimit="10" stroke-width="2.469" transform="translate(1066.549 434.793)"/>
    <path d="m130.667 434-40.577 8.863a5.14 5.14 0 0 0 -3.925 6.118l31.276 143.219a5.14 5.14 0 0 0 6.118 3.925l40.576-8.861z" fill="#afafb7" transform="translate(842.896 4.517)"/>
    <circle cx="14.564" cy="14.564" fill="#e6e6e6" r="14.564" transform="translate(940.761 452.586)"/>
    <circle cx="14.564" cy="14.564" fill="#9e9ea5" r="14.564" transform="translate(940.761 452.586)"/>
    <rect fill="#9e9ea5" height="7.539" rx="3.769" transform="matrix(.97697488 -.21335438 .21335438 .97697488 945.541 489.805)" width="28.785"/>
    <rect fill="#9e9ea5" height="7.539" rx="3.769" transform="matrix(.97697488 -.21335438 .21335438 .97697488 948.173 501.858)" width="28.785"/>
    <path d="m0 0 16.284 74.57" fill="none" stroke="#ac00ff" stroke-linecap="round" stroke-linejoin="round" stroke-width="40.743" transform="translate(1007.847 481.08)"/>
    <path d="m0 0 12.988 59.476" fill="none" stroke="#c3fc33" stroke-linecap="round" stroke-linejoin="round" stroke-width="40.743" transform="translate(1044.287 488.936)"/>
    <path d="m0 0 7.359 33.697" fill="none" stroke="#37eb77" stroke-linecap="round" stroke-linejoin="round" stroke-width="40.743" transform="translate(1083.06 507.476)"/>
    <path d="m0 0 11.818 54.119" fill="none" stroke="#ff009d" stroke-linecap="round" stroke-linejoin="round" stroke-width="40.743" transform="translate(1111.744 479.816)"/>
    <rect fill="#ffd800" height="7.882" rx="3.941" transform="matrix(.97697488 -.21335438 .21335438 .97697488 1019.137 572.645)" width="17.134"/>
    <rect fill="#ff5050" height="7.882" rx="3.941" transform="matrix(.97697488 -.21335438 .21335438 .97697488 1051.946 565.48)" width="17.134"/>
    <rect fill="#afafb7" height="7.882" rx="3.941" transform="matrix(.97697488 -.21335438 .21335438 .97697488 1085.76 558.096)" width="17.134"/>
    <rect fill="#fff" height="7.882" rx="3.941" transform="matrix(.97697488 -.21335438 .21335438 .97697488 1119.071 550.822)" width="17.134"/>
    <circle cx="3.598" cy="3.598" fill="#00ebe5" r="3.598" transform="translate(1030.383 438.658)"/>
    <circle cx="3.598" cy="3.598" fill="#527fed" r="3.598" transform="translate(1063.108 431.512)"/>
    <circle cx="3.598" cy="3.598" fill="#ffd800" r="3.598" transform="translate(1102.09 449.858)"/>
    <circle cx="3.598" cy="3.598" fill="#ff009d" r="3.598" transform="translate(999.364 454.595)"/>
    <path d="m592.343 542.758-8.867-3.47s-.385 2.185 2.313 3.6a33.338 33.338 0 0 0 7.068 2.313z" fill="#b78569" transform="translate(552.572 -56.936)"/>
    <path d="m114.241 662.915s4.476-12.486 7.3-13.9a14.288 14.288 0 0 1 -1.028 6.1 15.25 15.25 0 0 1 -2.12 3.855s-2.377 5.654-2.57 5.654a12.833 12.833 0 0 1 -1.582-1.709z" fill="#ffc9af" transform="translate(826.439 -120.98)"/>
    <path d="m549.986 1002.407-2.1 13.279-20.56-2.1 2.1-13.579s8.053-3.341 14.478-1.927 6.082 4.327 6.082 4.327z" fill="#b78569" transform="translate(585.333 -324.516)"/>
    <path d="m531.467 1000.884-.9 5.4s10.73 1.221 19.982-2.057l-2.506-2.377z" fill="#1a1a1a" transform="translate(583.441 -326.355)"/>
    <path d="m678.635 859.707-2.227 9.08a14.163 14.163 0 0 0 10.623 6c7.025.343 8.738-3.426 8.738-3.426l2.57-11.651s-7.539-3.087-19.704-.003z" fill="#b78569" transform="translate(498.319 -243.154)"/>
    <path d="m130.682 713.623s-13.407 4.931-17.52-6.8c-3.8-10.855-1.114-19.19-1.114-19.19l-6.6-5.226s-9.7 15.337-4.969 32.9c4.455 15.934 17.964 22.29 24.93 20.818 14.997-3.178 5.273-22.502 5.273-22.502z" fill="#03c4bf" transform="translate(835.227 -140.467)"/>
    <path d="m143.488 801.212a14.609 14.609 0 0 0 7.785.9c.33-.07.643-.15.95-.235-.6-2.483-1.635-6.4-1.635-6.4a11.226 11.226 0 0 1 -7.1 5.735z" fill="#1a1a1a" transform="translate(809.369 -206.463)"/>
    <path d="m242.025 1133.659 4.112 19.019 24.673-1.028-4.626-17.991z" fill="#da2032" transform="translate(751.855 -403.852)"/>
    <path d="m267.3 1138-1.117-4.344h-24.158s11.825 8.338 25.275 4.344z" fill="#1a1a1a" transform="translate(751.855 -403.852)"/>
    <path d="m121.044 1131.769c-16.384-3.342-23.773.257-23.773.257l-2.271 14.692 23.816 1.885z" fill="#da2032" transform="translate(837.669 -401.92)"/>
    <path d="m123.468 1131.769c-16.384-3.342-23.773.257-23.773.257l-.541 3.5a37.079 37.079 0 0 0 24.314-3.757z" fill="#1a1a1a" transform="translate(835.245 -401.92)"/>
    <path d="m137.069 847.682-19.147 117.066s-16.491 6.64-28.271-1.156l25.315-118.992s15.421-2.059 22.103 3.082z" fill="#ffd800" transform="translate(840.792 -234.898)"/>
    <path d="m184.1 888.07.471 32.383 3.9-23.259z" fill="#1a1a1a" transform="translate(785.664 -260.51)"/>
    <path d="m202.191 847.273 32.639 116.427c-16.449 8.481-28.956.085-28.956.085l-25.786-107.259s4.626-13.365 12.85-13.878 9.253 4.625 9.253 4.625z" fill="#ffd800" transform="translate(788.007 -233.977)"/>
    <path d="m249.433 1154.023 2.57 12.85h37.009v-2.57l-14.906-11.181 1.028-8.353a4.047 4.047 0 0 0 -3.6 3.084c-1.028 3.6-4.626 9.252-11.308 8.738a31.61 31.61 0 0 1 -10.793-2.568z" fill="#1a1a1a" transform="translate(747.531 -410.338)"/>
    <path d="m99.762 1151.375-1.8 16.535h-37.136l-.086-2.742 14.26-9.081s-2.142-9.68-1.885-9.68a5.231 5.231 0 0 1 4.8 2.4c1.627 2.656 4.938 7.12 10.708 7.2 6.513.08 11.139-4.632 11.139-4.632z" fill="#1a1a1a" transform="translate(857.666 -411.289)"/>
    <path d="m168.961 755.928s-9.252-1.543-11.822 3.084-6.682 33.925-6.682 33.925a74.967 74.967 0 0 0 34.439 3.6l-2.57-25.186s-1.607-12.851-5.719-14.393c-1.444-.544-7.646-1.03-7.646-1.03z" fill="#03c4bf" transform="translate(805.301 -183.238)"/>
    <path d="m221.829 800.271-4.308-1.2s-.557 10.456 5.877 16.575z" fill="#1a1a1a" transform="translate(766.165 -208.564)"/>
    <path d="m207.394 758.668s1.8-.707 7.132 3.019 13.493 12.015 24.48 12.851a38.425 38.425 0 0 0 19.276-3.6l5.269 5.076s-14.136 12.786-31.42 12.786-22.424-10.088-22.424-10.088-5.654-9.7-4.755-14.585 2.442-5.459 2.442-5.459z" fill="#03c4bf" transform="translate(773.55 -184.949)"/>
    <path d="m178.044 739.352s1.025 5.7-.774 7.816 14.521.9 14.521.9-1.67-4.112.065-5.975c0 0-2.555 1.3-7.743.128-4.401-.996-6.069-2.869-6.069-2.869z" fill="#03c4bf" transform="translate(789.732 -173.707)"/>
    <path d="m179.352 738.485a.5.5 0 0 1 .311-.616 4.681 4.681 0 0 1 2.182-.129c3.234.364 13 2.078 11.287 3.384s-6.447.814-8.46.214c-1.9-.566-4.656-1.473-5.32-2.853z" fill="#1a1a1a" transform="translate(788.455 -172.738)"/>
    <path d="m185.384 728.5 1.891-7.625 9.233 1.984-1.378 7.549s-1.719.744-5.333.052-4.413-1.96-4.413-1.96z" fill="#ffc9af" transform="translate(784.915 -162.922)"/>
    <path d="m187.22 710.805s-1.621-5.577.993-9.49 6.782-5.35 10.976-3.58c4.151 1.752 5.5 8.835 4.625 11.725s-3.971 4.542-8.53 3.741a37.146 37.146 0 0 1 -8.064-2.396z" fill="#ff6e5c" opacity=".4" transform="translate(784.134 -148.979)"/>
    <path d="m187.32 710.71c-1.234-2.041-.546-7.481.867-9.391 2.882-3.9 6.782-5.351 10.976-3.58 4.151 1.752 5.5 8.835 4.625 11.725s-3.513 4.134-8.141 3.894c-1.308-.068-7.138-.681-8.327-2.648z" fill="#ffc9af" transform="translate(784.159 -148.982)"/>
    <path d="m198.874 697.538c-4.194-1.77-8.463-1.059-11.276 3.587-1.23 2.032-2.166 6.735-.568 9.385.734 1.216 2.483 1.906 4.347 2.088a4.119 4.119 0 0 0 4.259-1.9 2.9 2.9 0 0 0 .124-2.641c-.41-.811-1.548-.224-1.212-2.544.316-2.193 1.893-2.476 2.328-1.293.5 1.36.75 2.983 3.387.1a6.241 6.241 0 0 0 1.612-4.008 6.688 6.688 0 0 0 -3.001-2.774z" fill="#1a1a1a" transform="translate(784.448 -148.781)"/>
    <path d="m333.182 774.619s5.825-9.7 7.539-9.7-1.457 6.339-1.457 6.339 7.025-4.862 8.085-4.958a1.967 1.967 0 0 1 1.671.739s1.606-.707 2.217.354c0 0-8.1 9.509-12.786 12.3 0 0-2.859-.257-4.016-1.8a6.664 6.664 0 0 1 -1.253-3.274z" fill="#ffc9af" transform="translate(698.65 -188.627)"/>
    <path d="m361.721 770.009a64.779 64.779 0 0 1 -6.779 5.975" fill="none" stroke="#e77f76" stroke-linecap="round" stroke-linejoin="round" stroke-width="1.235" transform="translate(685.949 -191.6)"/>
    <path d="m254.861 1194.136h37.009v-2.57l-.114-.086h-37.426z" fill="#f6c32c" transform="translate(744.674 -437.602)"/>
    <path d="m60.876 1191.274-.136.086.086 2.742h37.137l.308-2.827z" fill="#f6c32c" transform="translate(857.666 -437.48)"/>
    <g fill="none" stroke="#808080" stroke-linecap="round" stroke-linejoin="round" stroke-width="3.704" transform="translate(1023.018 744.135)">
      <path d="m0 2.666 2.377-2.666"/>
      <path d="m0 2.666 2.377-2.666" transform="translate(2.666 1.96)"/>
      <path d="m0 2.666 2.377-2.666" transform="translate(5.397 3.855)"/>
    </g>
    <path d="m1.575 2.597-1.575-2.597" fill="none" stroke="#808080" stroke-linecap="round" stroke-linejoin="round" stroke-width="3.704" transform="translate(923.663 749.097)"/>
    <path d="m1.539 2.688-1.539-2.688" fill="none" stroke="#808080" stroke-linecap="round" stroke-linejoin="round" stroke-width="3.704" transform="translate(926.333 747.143)"/>
    <path d="m1.676 2.779-1.676-2.779" fill="none" stroke="#808080" stroke-linecap="round" stroke-linejoin="round" stroke-width="3.704" transform="translate(929.115 745.398)"/>
    <path d="m0 0h138.783a0 0 0 0 1 0 0 25.358 25.358 0 0 1 -25.358 25.358h-88.067a25.358 25.358 0 0 1 -25.358-25.358 0 0 0 0 1 0 0z" fill="#e6e6e6" transform="translate(908.126 756.535)"/>
    <path d="m565.439 713.885 2.4 6.6s31.182 1.97 39.064 3 10.623 5.826 9.081 13.022-6.168 37.866-6.168 37.866c-13.021-5.311-22.788 1.028-22.788 1.028l7.711-31.7-35.125.172-14.221 92.865s-19.425 1.585-25.936-4.969c0 0 21.31-100.575 19.425-106.058s26.557-11.826 26.557-11.826z" fill="#393642" transform="translate(589.928 -158.842)"/>
    <path d="m590.229 722.024a20.521 20.521 0 0 0 4.4-3.342l-1.744-4.8s-12.436 2.773-20.316 6.236l-6.089 7.026v.356c1.49.467 9.893 2.5 23.749-5.476z" fill="#1a1a1a" transform="translate(562.481 -158.842)"/>
    <path d="m543.183 649.644c0 .389 3.873 17.892 5.746 24.283a6.1 6.1 0 0 1 .066 3.134c-.333 1.4-.644 3.444-.072 4.794.942 2.227 3.084 2.485 8.31 1.714s20.218-7.025 22.959-11.052-1.542-5.654-3.084-6.6-12.165-23.9-12.165-23.9-5.14-4.369-14.821-1.628-6.939 9.255-6.939 9.255z" fill="#a66dfa" transform="translate(576.288 -115.42)"/>
    <path d="m555.964 694.388s-2.34 2.453-3.352 3.745c.574 2.369 1.134 4.594 1.613 6.355 3.345-4.317 1.739-10.1 1.739-10.1z" fill="#1a1a1a" transform="translate(570.575 -147.463)"/>
    <path d="m589.048 602.236c.4-.052 9.862-1.968 17.733-12.594 7.71-10.409 5.269-25.7-1.8-33.539-5.72-6.344-16.577-8.481-16.577-8.481l-2.185 6.168s13.236 3.084 11.822 14.906-21.331 17.733-21.331 17.733 6.299 16.578 12.338 15.807z" fill="#a66dfa" transform="translate(556.509 -61.799)"/>
    <path d="m492.072 646.392s-2.7 14.649-11.694 26.986c-10.451 14.332-21.332 15.549-25.058 16.191 0 0-.257 8.1.257 7.967s13.364 1.928 28.656-9.252a42.845 42.845 0 0 0 17.091-27.371z" fill="#a66dfa" transform="translate(627.399 -119.449)"/>
    <path d="m512.963 607.07c-.064.257.193 6.811 4.112 9.959s6.683-1.607 6.683-1.607-.385-8.481-3.663-8.8a28.7 28.7 0 0 0 -7.132.448z" fill="#b78569" transform="translate(593.722 -96.189)"/>
    <path d="m529.664 1020.475-1.885 11.822h-34.1l15.164-12.123s3.341 8.01 10.023 7.239 10.798-6.938 10.798-6.938z" fill="#ff5050" transform="translate(604.971 -337.615)"/>
    <path d="m0 0h34.096v2.056h-34.096z" fill="#f6c32c" transform="translate(1098.653 694.682)"/>
    <path d="m670.518 877.692-5.221 8.9 34.61 7.2-10.13-13.579a12.21 12.21 0 0 1 -10.6 3.641c-6.855-.854-8.659-6.162-8.659-6.162z" fill="#ff5050" transform="translate(504.805 -254.451)"/>
    <path d="m664.216 899.079-.771 2.741 34.867 7.025.514-2.57z" fill="#f6c32c" transform="translate(505.886 -266.936)"/>
    <path d="m511.123 589.884c1.491-3.955 6.425-6.425 11.693-3.727s8.482 7.324 15.035 6.939 18.376-.514 19.532 8.353-5.911 17.991-16.962 22.359-17.734-4.369-19.019-8.352.643-13.236-3.6-16.577c0 0 1.092-3.019-.835-3.341s-1.478 2.056-1.478 2.056-7.515.643-4.366-7.71z" fill="#1a1a1a" transform="translate(595.241 -83.631)"/>
    <path d="m435.653 750.1a42.044 42.044 0 0 1 -7.368.641c-2.039-.008-6.725-.255-6.725.3 0 .388.043 1.285 1.842 1.713 0 0-1.2-.208-1.371.686-.128.686 2.056 1.114 2.056 1.114s-1.071.085-.3 1.028 6.117 3.217 12.122 2.484c3.513-.426-.256-7.966-.256-7.966z" fill="#b78569" transform="translate(647.066 -179.98)"/>
    <path d="m425.985 756.479a33.794 33.794 0 0 0 7.41.6" fill="none" stroke="#92684f" stroke-linecap="round" stroke-linejoin="round" stroke-width="1.235" transform="translate(644.483 -183.703)"/>
    <path d="m427.631 760.8a46.577 46.577 0 0 0 6.811 1.242" fill="none" stroke="#92684f" stroke-linecap="round" stroke-linejoin="round" stroke-width="1.235" transform="translate(643.523 -186.227)"/>
    <path d="m443.646 743.826s-6.554-4.219-8.289-4.476c0 0-.442.268.514 1.8.771 1.349 5.269 3.855 5.269 3.855z" fill="#b78569" transform="translate(639.072 -173.705)"/>
    <path d="m615.911 781.041.643-3.469 20.774 3.3z" fill="#1a1a1a" transform="translate(533.629 -196.014)"/>
    <path d="m0 0h65.914a0 0 0 0 1 0 0 22.959 22.959 0 0 1 -22.959 22.959h-20a22.959 22.959 0 0 1 -22.955-22.959 0 0 0 0 1 0 0z" fill="#e6e6e6" transform="translate(1072.49 696.566)"/>
    <path d="m646.006 931.179a27.919 27.919 0 0 0 55.813 0z" fill="#37eb77" transform="translate(516.064 -285.67)"/>
    <path d="m886.214 652.237c.007-.169.013-.338.013-.509a12.348 12.348 0 0 0 -12.348-12.347c-.115 0-.228.006-.342.009v12.848z" fill="#ff009d" transform="translate(383.261 -115.357)"/>
    <path d="m844.733 670.261a12.345 12.345 0 0 0 24.668 0z" fill="#d6d6d6" transform="translate(400.072 -133.381)"/>
    <path d="m856.878 639.392a12.344 12.344 0 0 0 0 24.686z" fill="#d6d6d6" transform="translate(400.091 -115.363)"/>
    <path d="m844.722 669.85a12.343 12.343 0 0 0 12.168 12.006v-12.006z" fill="#393642" transform="translate(400.079 -133.141)"/>
    <circle cx="3.427" cy="3.427" fill="#37eb77" r="3.427" transform="translate(1177.811 398.783)"/>
    <circle cx="3.427" cy="3.427" fill="#ff009d" r="3.427" transform="translate(1171.353 383.779)"/>
    <circle cx="3.427" cy="3.427" fill="#0069f9" r="3.427" transform="translate(1189.344 412.736)"/>
    <rect fill="#666" height="5.654" rx="2.827" transform="translate(1296.375 563.951)" width="27.93"/>
    <rect fill="#666" height="5.654" rx="2.827" transform="translate(1306.699 572.047)" width="17.605"/>
    <path d="m0 0h15.42v15.42h-15.42z" fill="#37eb77" transform="matrix(.925 .381 -.381 .925 961.899 403.336)"/>
    <circle cx="7.324" cy="7.324" fill="#fff" r="7.324" transform="translate(1079.429 603.061)"/>
    <path d="m0 0h13.107v13.107h-13.107z" fill="#f6c32c" transform="matrix(.45045687 .89279819 -.89279819 .45045687 1180.627 698.725)"/>
    <path d="m0 0 10.211 37.638" fill="none" stroke="#e54c1d" stroke-linecap="round" stroke-linejoin="round" stroke-width="2.276" transform="translate(1005.857 691.055)"/>
    <path d="m0 0 14.754 54.383" fill="none" stroke="#e54c1d" stroke-linecap="round" stroke-linejoin="round" stroke-width="2.276" transform="translate(989.34 630.174)"/>
    <path d="m947.472 823.355-6.854 33.582 31.183 20.9 6.854-33.925z" fill="#e6e6e6" transform="translate(344.108 -222.737)"/>
    <path d="m1017.529 929.113-5.75-8.517s-1.281 1.06-.47 3.4a20.989 20.989 0 0 0 2.2 4.362s2.508 3.044 4.122 2.814-.102-2.059-.102-2.059z" fill="#ffc9af" transform="translate(303.005 -279.494)"/>
    <path d="m1004.612 932.9s-7.742-3.866-8.278-3.13.9 2.413.9 2.413a1.543 1.543 0 0 0 -.693 1.868c.3 1.435 8.148 7.443 11.9 8.053s.437-6.661.437-6.661z" fill="#ffc9af" transform="translate(311.658 -284.797)"/>
    <path d="m0 0 6.146 3.321" fill="none" stroke="#e77f76" stroke-linecap="round" stroke-linejoin="round" stroke-width="1.235" transform="translate(1308.895 647.391)"/>
    <path d="m1068 996.4c-.343 30.841-20.418 53.112-54.029 53.112s-60.6-17.791-60.6-51.4 42.659-55.682 76.2-57.87c21.637-1.409 38.813 21.488 38.429 56.158z" fill="#f6c32c" transform="translate(336.663 -290.926)"/>
    <path d="m1066.935 940.125s16.619 37.287-12.679 63.994c-25.187 22.959-64.252 9.767-64.252 9.767l30.584-41.635 32.126-38.808z" fill="#1a1a1a" transform="translate(315.283 -286.992)"/>
    <path d="m974.775 981.179s1.714-5.654-30.326-25.529-38.722-25.015-44.205-21.932-49.344 42.106-49.344 42.106 11.479 6.211 18.333 23c0 0 35.3-36.666 37.18-34.953s45.574 37.529 55.34 35.129 13.879-10.968 13.022-17.821z" fill="#ff5050" transform="translate(396.474 -286.67)"/>
    <path d="m1022.105 1022.048c-1.285-.257-37.867-14.736-37.867-14.736l31.7 24.76z" fill="#1a1a1a" transform="translate(318.648 -330.108)"/>
    <path d="m850.272 1035.882c-1.983 1.034 3.052 8.032 6.939 12.808 9.383 11.528 11.105 10.686 11.394 10.194 1.456-2.474-1.242-8.739-8.567-15.806-6.502-6.278-8.781-7.709-9.766-7.196z" fill="#1a1a1a" transform="translate(397.1 -346.728)"/>
    <path d="m862.652 1066.513-8.481 7.6s-8.738-3.6-11.694-8.353a17.34 17.34 0 0 1 -2.7-9.252l8.738-7.839c7.712 3.944 13.837 11.482 14.137 17.844z" fill="#ffc9af" transform="translate(402.968 -354.249)"/>
    <path d="m839.915 1075.922s-9.509.643-12.336-4.883a31.552 31.552 0 0 1 -2.956-12.079l-16.32-1.029 22.745 26.086z" fill="#0e004b" transform="translate(421.336 -359.653)"/>
    <path d="m805.421 1057.932-2.056 1.8 22.488 26.214 2.313-1.928z" fill="#a29dce" transform="translate(424.218 -359.653)"/>
    <path d="m997.6 1030.695s-41.464 11.651-52.087 20.046-5.482 29.127 9.766 58.769c0 0 12.336-12.508 26.044-9.767 0 0-13.536-30.155-12.336-30.841s37.18-8.4 46.432-13.535 1.881-28.1-17.819-24.672z" fill="#ff5050" transform="translate(344.525 -343.553)"/>
    <path d="m972.715 1264.446 1.2 2.656 34.268-14.864-1.2-2.527z" fill="#a29dce" transform="translate(325.373 -471.588)"/>
    <path d="m1002.87 1196.284s.556 2.548-11.587 7.238c-12.207 4.715-14.386 3.666-14.457 2.528-.172-2.742 7.517-6.9 11.886-8.567 4.347-1.662 10.645-2.27 14.158-1.199z" fill="#1a1a1a" transform="translate(322.975 -440.093)"/>
    <path d="m976.83 1208.325 4.8 9.766a15.964 15.964 0 0 0 13.878.343 14.438 14.438 0 0 0 8.4-9.938l-3.77-8.823a34.737 34.737 0 0 0 -23.308 8.652z" fill="#ffc9af" transform="translate(322.972 -442.368)"/>
    <path d="m1000.643 1217.2 6.34 13.536-34.267 14.735 6.511-17.134s13.363 4.795 21.416-11.137z" fill="#0e004b" transform="translate(325.374 -452.612)"/>
    <path d="m1102.121 843.684s-10.28-5.312-16.62-21.931c-5.3-13.9-3.6-23.987-3.6-23.987s-5.311 1.885-8.053-2.4a65.863 65.863 0 0 0 2.4 36.666c7.367 19.875 15.934 23.645 15.934 23.645z" fill="#0069f9" transform="translate(267.244 -206.402)"/>
    <path d="m1111.168 914.13c2.57 1.542 4.925 5.44 4.241 14.35s-6.939 19.918-7.925 28.827c-.731 6.613 1.285 13.193-2.827 13.365s-18.845-6.51-25.527-15.762c-3.187-4.412-6-14.566-6-14.566s17.819-31.354 28.442-32.9 9.596 6.686 9.596 6.686z" fill="#0069f9" transform="translate(266.764 -271.708)"/>
    <path d="m1080.539 973.234s6.66 5.718 19.275 4.433c13.879-1.413 13.107-10.687 13.107-10.687z" fill="#1a1a1a" transform="translate(262.44 -306.567)"/>
    <path d="m1076.106 941.225c-.514.171-5.654 8.738-26.729 6s-24.673-6.168-24.673-6.168l-1.371 6s16.277 13.364 36.5 13.536 19.361-3.255 20.047-8.567-3.774-10.801-3.774-10.801z" fill="#0069f9" transform="translate(295.829 -291.434)"/>
    <path d="m1095.046 949.975s11.95 1.413 20.817-5.012" fill="none" stroke="#1a1a1a" stroke-linecap="round" stroke-linejoin="round" stroke-width="1.235" transform="translate(253.973 -293.716)"/>
    <path d="m1149.978 883.643c-.385.257-8.825 10.023-8.825 10.023s-1.2 4.712 2.143 6.382 7.453.3 7.453.3l3.6-13.793z" fill="#ffc9af" transform="translate(227.184 -257.926)"/>
    <path d="m1147.334 855.857c-.128.043-5.4 3.427-4.112 10.709s7.582.428 7.582.428 5.825-7.882 2.871-9.6a12.837 12.837 0 0 0 -6.341-1.537z" fill="#ffc9af" transform="translate(225.972 -241.705)"/>
    <path d="m1140.85 844.085a6.2 6.2 0 0 1 -2.655-5.569c.614-4.528 6.6-5.4 9.681-2.4 0 0 6.168-1.885 6.767 5.568a5.841 5.841 0 0 1 1.542 7.881s.514 8.739-5.226 9.51c0 0-1.8.257-3.512-3a5.339 5.339 0 0 1 -3.213 5.269c-2.913 1.2-6.6.513-7.5-2.313-.849-2.665 2.742-5.011 2.742-5.011s5.868 2.4 7.581-.857c1.945-3.7 1-6.273-.385-7.368-1.624-1.282-4.193-.595-5.822-1.71z" fill="#e54c1d" transform="translate(229.714 -229.161)"/>
    <ellipse cx="2.185" cy="1.746" fill="#ffc9af" rx="2.185" ry="1.746" transform="matrix(.78716112 -.61674741 .61674741 .78716112 1375.007 620.926)"/>
    <path d="m1076.012 775.624s1.971-11.734 2.656-12.347a1.313 1.313 0 0 1 1.541-.289s.3-1.4 1.414-1.446 1.071 1.917 1.071 1.917a1.206 1.206 0 0 1 1.328-.043c.728.428.471 7.8.471 7.8s2.57-4.926 4.84-3.6c0 0-4.925 10.067-5.268 10.41a5.588 5.588 0 0 1 -4.54.771c-2.314-.56-3.513-3.173-3.513-3.173z" fill="#ffc9af" transform="translate(265.083 -186.658)"/>
    <path d="m1084.248 765.321c0-.128-1.317 6.072-1.317 6.072" fill="none" stroke="#e77f76" stroke-linecap="round" stroke-linejoin="round" stroke-width="1.235" transform="translate(261.044 -188.863)"/>
    <path d="m1.264 0-1.264 5.89" fill="none" stroke="#e77f76" stroke-linecap="round" stroke-linejoin="round" stroke-width="1.235" transform="translate(1346.513 576.801)"/>
    <path d="m1080.23 782.921c.215-.043 3.427-.471 5.4.385" fill="none" stroke="#e77f76" stroke-linecap="round" stroke-linejoin="round" stroke-width="1.235" transform="translate(262.621 -199.053)"/>
    <path d="m.343 0-.343 2.27" fill="none" stroke="#e77f76" stroke-linecap="round" stroke-linejoin="round" stroke-width="1.235" transform="translate(1349.233 584.554)"/>
    <path d="m1110.171 918.685s5.654-7.625 11.908-9.938" fill="none" stroke="#1a1a1a" stroke-linecap="round" stroke-linejoin="round" stroke-width="1.235" transform="translate(245.145 -272.578)"/>
    <circle cx="5.782" cy="5.782" fill="#c3fc33" r="5.782" transform="translate(1236.708 754.943)"/>
    <path d="m0 23.131 24.416-23.131" fill="none" stroke="#b50d25" stroke-linecap="round" stroke-linejoin="round" stroke-width="2.276" transform="translate(1264.679 675.749)"/>
    <path d="m959.138 988.009 5.738-5.26a6.136 6.136 0 0 1 7.5-.612l30.192 19.75" fill="none" stroke="#b50d25" stroke-linecap="round" stroke-linejoin="round" stroke-width="2.276" transform="translate(333.298 -314.83)"/>
    <path d="m12.85 0-12.85 71.448" fill="none" stroke="#e54c1d" stroke-linecap="round" stroke-linejoin="round" stroke-width="2.276" transform="translate(952.16 652.877)"/>
    <path d="m475.193 313.126s10.4 2.793 17.39 16.295 7.388 29.539 7.08 29.993-1.3-.156-1.3-.156.037 2.661-.718 2.892-1.725-2.271-1.725-2.271.1 3.515-1.006 3.6-1.809-9.912-2.524-9.168-.26 3.8-3.216 4.463c-.132-.591 1.814-10.282 1.814-10.282s-2.524-17.934-19.724-21.4c-.003.008-5.216-10.585 3.929-13.966z" fill="#b78569" transform="translate(618.921 75.069)"/>
    <path d="m476.114 313.126c-.125.046-.236.1-.355.147-.806 2.088-3.038 7.886-4.4 11.636a15.673 15.673 0 0 0 .822 2.189c.2.04.385.092.58.135 1.1-.586 5.351-3.361 7.548-12.208a19.5 19.5 0 0 0 -4.195-1.899z" fill="#1a1a1a" transform="translate(617.999 75.069)"/>
    <path d="m405.661 418.561a31.074 31.074 0 0 0 10.9 9.908 29.768 29.768 0 0 0 15.819 3.657c5.45-.363 8.583-.673 8.633-.033s-3.422 1.557-3.422 1.557 3.868.019 3.943.98-4.26 1.559-4.26 1.559 2.833-.029 2.632.7-3.772 2.036-11.834 1.96-27.291-3.659-36.482-16.472c-6.39-8.907 14.071-3.816 14.071-3.816z" fill="#b78569" transform="translate(665.281 14.375)"/>
    <path d="m391.909 424.4a29.135 29.135 0 0 0 3.21 3.734c8.226-1.575 11.262-6.947 11.262-6.947l-.348-.517-.051-.08-15.082 2.029a7.977 7.977 0 0 0 1.009 1.781z" fill="#1a1a1a" transform="translate(664.959 12.344)"/>
    <path d="m306.072 228.16 8.9-8.174-25.834-33.549 19.452-1.784s-8.7-5.762-5.331-18.659c0 0-36.051.508-40.708 10.154-4.628 9.583 13.729 33.726 43.521 52.012z" fill="#0069f9" transform="translate(740.291 160.945)"/>
    <path d="m306.245 224.261s-18.211-20.032-15.934-26.728c1.456-4.284 14.049-4.455 14.049-4.455" fill="none" stroke="#6638ff" stroke-linecap="round" stroke-linejoin="round" stroke-width="2.276" transform="translate(723.788 145.137)"/>
    <path d="m0 .771 8.224-.771" fill="none" stroke="#6638ff" stroke-linecap="round" stroke-linejoin="round" stroke-width="2.276" transform="translate(1031.404 337.016)"/>
    <path d="m275.613 233.712c.384-.03 30.591 18.61 30.591 18.61-9.361 1.164-7.759 4.6-7.759 4.6z" fill="#1a1a1a" transform="translate(732.251 121.42)"/>
    <path d="m239.482 249.1-72.582-54.374s9.857.773 19.06-13.354l66.675 54.664z" fill="#0069f9" transform="translate(795.704 151.97)"/>
    <path d="m166.9 194.726s.057-2.032 8.063-7.851a32.8 32.8 0 0 1 11-5.5s-2.167 5.24-8.862 9.718-10.201 3.633-10.201 3.633z" fill="#1a1a1a" transform="translate(795.704 151.97)"/>
    <path d="m143.516 190.051-16.68-15.451s17.127-1.859 19.641-1.025a15.855 15.855 0 0 1 5.031 3.343l4.856 4.388s-1.374 3.849-12.848 8.745z" fill="#b78569" transform="translate(819.088 156.645)"/>
    <path d="m126.246 174.173s2.921-3.838 11.16-4.528a16.111 16.111 0 0 1 8.084 1.729l1.559-7.513c-.778-.068-30.524 1.407-30.524 1.407z" fill="#1a1a1a" transform="translate(825.106 162.191)"/>
    <path d="m116.4 162.394-.092-2.27 30.5-1.19.118 2.053z" fill="#f6c32c" transform="translate(825.236 165.066)"/>
    <path d="m359.856 165.995s2.879 2.657 4.324 8.555a30.305 30.305 0 0 1 1.007 10.1s-4.366-1.978-5.835-8.651.504-10.004.504-10.004z" fill="#1a1a1a" transform="translate(683.693 160.945)"/>
    <path d="m367.848 190.755 17.526-1.7s-5.788-8.053-8.14-9.287a89.767 89.767 0 0 0 -8.575-3.323l-5.266 1.058a20.33 20.33 0 0 0 4.455 13.252z" fill="#b78569" transform="translate(681.032 154.844)"/>
    <path d="m375 169.554 3.476-4.978 25.045 16.919-19.291 1.385s1.056-5.432-2.1-8.665a21.765 21.765 0 0 0 -7.13-4.661z" fill="#1a1a1a" transform="translate(674.242 161.773)"/>
    <path d="m383.35 161.623 1.382-2.106 24.8 17.131-1.14 1.894z" fill="#f6c32c" transform="translate(669.368 164.726)"/>
    <path d="m369.5 302.615s-5.232-5.906-8.536-6.935c0 0-5.272.156-13.755 8.684s-6.32 11.452-6.32 11.452 9.486 9.181 12.384 9.985c0 0-4.31 10.779 4.281 28.279 0 0 12.939-1.015 19.091-6.4 0 0-12.264-15.021-4.7-23.735s23.938-7.034 23.938-7.034a22.967 22.967 0 0 0 7.091-16.411s-12.141-8.582-33.474 2.115z" fill="#ff5050" transform="translate(694.294 85.252)"/>
    <path d="m480.969 449.246 7.993-3.269a1.316 1.316 0 0 1 -.564 1.849c-1.231.741-3.649 1.962-3.649 1.962s-3.596.99-3.78-.542z" fill="#b78569" transform="translate(612.391 -2.472)"/>
    <circle cx="8.481" cy="8.481" fill="#b78569" r="8.481" transform="translate(1075.407 408.745)"/>
    <path d="m430.551 349.669s-3.08-9.061-14.53-12.251c-8.181-2.279-14.588-2.813-14.683-2.671a6.077 6.077 0 0 0 -2.164 5.337 4.47 4.47 0 0 1 -1.055 2.734 3.77 3.77 0 0 0 -.544 1.042c-.483 1.6.761 3.136 1.462 4.652a7.582 7.582 0 0 1 .466 4.992 26.093 26.093 0 0 0 -1.158 3.942 4.842 4.842 0 0 0 .934 3.249 7.23 7.23 0 0 0 1.365 1.346s16.343-10.477 21.732-9.7l-2.792 3.57s9.331 4.183 11.264 2.518c2.131-1.829 2.546-7.339-.297-8.76z" fill="#1a1a1a" transform="translate(661.129 62.461)"/>
    <ellipse cx="2.392" cy="1.697" fill="#b78569" rx="2.392" ry="1.697" transform="matrix(.29360657 -.95592635 .95592635 .29360657 1077.197 417.212)"/>
    <path d="m537.61 415.427s-.134-3.083-.569-5.885" fill="none" stroke="#92684f" stroke-linecap="round" stroke-linejoin="round" stroke-width="1.235" transform="translate(579.663 18.794)"/>
    <path d="m531.433 417.2s-.378-3.73-.8-5.866" fill="none" stroke="#92684f" stroke-linecap="round" stroke-linejoin="round" stroke-width="1.235" transform="translate(583.406 17.747)"/>
    <path d="m498.39 456.836a30.529 30.529 0 0 1 -3.863.325" fill="none" stroke="#92684f" stroke-linecap="round" stroke-linejoin="round" stroke-width="1.235" transform="translate(604.478 -8.811)"/>
    <path d="m498.047 462.933a29.717 29.717 0 0 1 -3.566.28" fill="none" stroke="#92684f" stroke-linecap="round" stroke-linejoin="round" stroke-width="1.235" transform="translate(604.505 -12.369)"/>
    <circle cx="4.975" cy="4.975" fill="#f0f0f0" r="4.975" transform="translate(1202.063 355.275)"/>
    <circle cx="4.975" cy="4.975" fill="#f0f0f0" r="4.975" transform="translate(1188.797 355.275)"/>
    <circle cx="4.975" cy="4.975" fill="#f0f0f0" r="4.975" transform="translate(1175.531 355.275)"/>
  </g>
</svg>