<svg height="79.254" viewBox="0 0 71.851 79.254" width="71.851" xmlns="http://www.w3.org/2000/svg"><g transform="translate(-5.573 -1)"><path d="m32.49555969 80.00350952c-.33226013 0-.65769005-.09353638-.94112015-.27051544-.40340995-.25189209-.68458938-.64581299-.79172897-1.10919189-.10713959-.46337128-.02741051-.94073487.22448921-1.34415436 1.36731148-2.18304444 3.13907051-4.02729035 5.26587868-5.4812088l.53555298-.37324524c2.08913803-1.42774201 3.80035019-3.37682343 4.94674683-5.63523102 1.14640045-2.25840378 1.70973205-4.79017258 1.62908172-7.32159043-.11162948-3.69231033.86236191-7.30133056 2.81669998-10.43648147l4.91696167-7.9657898c.54199982-.86141204.71645737-1.88449096.49011994-2.87894058-.22635269-.99446106-.8264122-1.84125137-1.68965149-2.38438797-.61029053-.38398361-1.31224823-.58694076-2.02999878-.58694076-1.32238007 0-2.53179169.66741943-3.23516083 1.78532791l-6.5816803 10.38188934c-1.53131866 2.4532814-3.51536178 4.52604294-5.89794159 6.1621933-.3002491.20741653-.65033912.31684875-1.01298904.31684875-.58720017 0-1.13671875-.28799057-1.46994972-.77035903-.55924034-.80955124-.35561943-1.92313004.45391082-2.48237229 1.92109108-1.31068802 3.53589058-2.9668808 4.79831887-4.92174911l.12442016-.19266129-.18124008-.14052963c-.89646148-.69513321-1.90862274-1.18880081-3.00825119-1.4672699-.94250679-.26084518-1.49779129-1.23936844-1.23808861-2.18248749.21152115-.76815033.91494942-1.30463028 1.71061135-1.30463028.15877914 0 .31776046.02159882.47251892.06422043.4869194.13115692.97026062.29137802 1.43793106.47657013l.3420372.13543701v-.36787796-13.47961044-.31871986l-.30954742.0759201c-2.28555108.56054878-4.53582001 1.32705879-6.68830109 2.2782402-2.14327049.92739869-4.26243973 1.98152924-6.2968998 3.13232995-1.65385055.93285751-3.10708999 2.24607849-4.20232963 3.79755783-1.09524059 1.55147171-1.84611988 3.36051178-2.17147064 5.23154068l-5.5713892 32.13447189c-.14707089.85305023-.88073063 1.47203064-1.74452019 1.47203064-.10098028 0-.20312023-.00878906-.30358028-.02611542-.46659994-.0804367-.87395001-.33778381-1.14699984-.72460937-.27305031-.38682556-.37911987-.85683441-.29868031-1.32344056l5.57132006-32.10172653c.40608025-2.39004898 1.35653973-4.70137024 2.74874973-6.68495941 1.3922205-1.98360062 3.24281121-3.66315079 5.35172081-4.85706138 2.1496296-1.23065949 4.38880921-2.35838891 6.65634919-3.35242844 2.63298034-1.17270088 5.39441108-2.07875061 8.20893097-2.69358063l.19664764-.04296112v-.20127869-15.75990057c0-2.76476979 2.24931335-5.0140798 5.01408005-5.0140798h32.56292343c2.76477051 0 5.01407623 2.24931001 5.01407623 5.0140798v44.17462111c0 2.76477051-2.24930572 5.01408005-5.01407623 5.01408005h-8.19127274-.34999847l.11351013.33107757.09703064.28301239c.71210098 2.03845978.2624321 4.30474091-1.17304993 5.91580963-1.12678146 1.26464844-2.74431991 1.98995972-4.43787002 1.98995972-.43701172 0-.8752594-.04866028-1.30256272-.14461899l-.22547912-.0506401-.06816864.22080993c-.63323975 2.05104828-2.32194901 3.64189911-4.40711975 4.15171051-.47701264.11663056-.96742249.17576599-1.45761109.17576599-1.63037109 0-3.22243118-.66542053-4.36795807-1.82564544l-.49295043-.50102234-.26527024-.26960754-.14409256.34970092c-1.38150787 3.35281372-3.69093704 6.2113266-6.67863846 8.26651764l-.53495025.37284088c-1.72209168 1.17919159-3.15784836 2.6758194-4.26572037 4.4471283-.32764816.52474213-.89295959.83792877-1.51231003.83792877zm14.61751938-24.56689834-.03268814.21187973c-.13809204.89500045-.19617081 1.80780029-.17264175 2.71305084.02705001 1.08312988-.04006958 2.17591858-.19952012 3.24777984l-.01831054.1230774.08717346.08882141 2.1428299 2.18325043c.49198913.5039978 1.15167999.78182983 1.8570671.78182983.59626007 0 1.17912293-.20791626 1.64121247-.58544922 1.01866912-.81945038 1.2723999-2.28031158.58871841-3.39689255l-3.15386963-5.12704849-.01953888-.03176117v-.2085495h-.25l-2.25604248.00001145zm8.90218353 3.51496124c.03044892.05344009.05905533.10688782.08767701.16031647.03139114.05860137.06280899.11719131.09630203.17579269l.00300979.0052681.00325776.00511932c.4433403.69522095 1.20056915 1.1102829 2.02558136 1.1102829.36211013 0 .71189117-.07995224 1.03963851-.23763275 1.09445191-.52652741 1.62372971-1.79028702 1.23115922-2.93960953l-.57523728-1.61233902-.05921936-.16598892h-.17624283-5.37728882-.44686126l.23381042.38080978zm11.64820481-7.05804062h4.48847961c.81112671 0 1.47101593-.65988922 1.47101593-1.47101212l.00808716-44.15838909c0-.81116962-.65988922-1.4710598-1.4710083-1.4710598h-4.7465744-.25-27.56635666-.00331116l-.00331116.00009013c-.8032875.02128982-1.43231964.66743993-1.43203735 1.47100973v32.56282138.85816956l.46088791-.72391128 3.08712387-4.84888077c1.37046433-2.03178025 3.65332794-3.24464798 6.10733795-3.24464798 1.38388825 0 2.73715973.39134979 3.91350937 1.13173866 1.62696838 1.02400017 2.77388001 2.61649895 3.22946167 4.48412895.4553299 1.8666153.17117691 3.80711746-.80023575 5.46466828l-4.96296692 7.94560241c-.32603073.52878952-.6219902 1.08198166-.88042068 1.6454506l-.16245651.35422134h.38969802 18.8730774z"/><path d="m39.59711838 1.5c-2.62692261 0-4.76408005 2.13715363-4.76408005 4.76407623v16.16246796l-.39328766.0859108c-2.79795456.61121368-5.54312134 1.51192474-8.16192245 2.67831421-2.25939942.9904747-4.49055481 2.11415481-6.633564 3.34101104-2.07681274 1.17574311-3.89923859 2.82971955-5.27025604 4.7831192-1.37102509 1.95341111-2.30699921 4.2295456-2.70705414 6.58410264l-5.57125854 32.10145568c-.06911469.40078736.0220108.80451203.25655365 1.13678742.23454284.33226776.5844345.55331421.98524475.62241363.08643341.01490784.17427826.02246094.26110077.02246094.74176025 0 1.37180328-.5316925 1.49817657-1.26470947l5.5714035-32.13458634c.33165741-1.90729141 1.09708405-3.7513771 2.21355439-5.332901 1.11645507-1.58153152 2.59784317-2.9201889 4.28347778-3.87097931 2.04204559-1.1551094 4.16923141-2.2132225 6.31893158-3.14339828 2.16585541-.95708847 4.43009186-1.72835541 6.72980118-2.29237747l.61909866-.15183258v14.85279846l-.6840744-.27087784c-.45887757-.18169785-.93312454-.33890152-1.41225815-.46798706-.13314438-.03665543-.26978683-.05524445-.40614319-.05524445-.68352127 0-1.28783417.46097565-1.46958923 1.12100983-.10817719.39284515-.05690003.80430985.14440155 1.15858841.2004776.35285187.52583313.60690308.9165802.71582031 1.13224411.28710556 2.17437363.79559708 3.09751892 1.51140213l.3624649.2810669-.24882125.38531112c-1.28060151 1.98300934-2.91864396 3.66305542-4.86624527 4.99182129-.69610978.48089981-.87120819 1.43846512-.39031983 2.13457871.28656388.41481018.75918579.6624527 1.26426697.6624527.31166458 0 .61262131-.09409714.87146378-.27291871 2.3540802-1.61656951 4.31438064-3.66453552 5.82832336-6.08995819l6.58122253-10.38116455c.74937821-1.19104385 2.03787613-1.90214538 3.44674302-1.90219879.76491165-.00001144 1.51291275.21622086 2.16313552.62534332.91976548.57868958 1.55911255 1.4809227 1.80028534 2.5404892.24116898 1.05957794.05529023 2.1496315-.52113342 3.06574249l-4.9175415 7.96673584c-1.928154 3.09315491-2.88911057 6.65382004-2.77898789 10.29625702.08197785 2.5732956-.49066925 5.14694214-1.65602493 7.44271088-1.16536713 2.29576111-2.90488815 4.27708435-5.02672196 5.72714996l-.53741073.3745575c-2.09819794 1.43435669-3.84614182 3.25381469-5.19491959 5.40723419-.21653366.34677887-.28506851.75711059-.19297027 1.15542602.09210205.39831543.33378982.73691559.68056869.95345307.24367905.15215301.52332306.23257446.80870056.23257446.53253174 0 1.01857758-.2692337 1.30036545-.72049713 1.12620163-1.80064392 2.5857544-3.32206726 4.33472443-4.51966858l.53622055-.37371063c2.94765472-2.02763367 5.22615433-4.84785462 6.58917618-8.15579224l.28817749-.69939422 1.02316665 1.03993225c1.09889221 1.11296844 2.62611389 1.75128936 4.19005585 1.75128936.47019196 0 .94062424-.05673217 1.39825439-.16860961 2.00023652-.48905945 3.62015534-2.01510621 4.2276001-3.98262406l.13634491-.44163132.45096588.10128785c.40933609.0919342.82914734.13854217 1.24777985.13854217 1.62231445 0 3.17182159-.69480896 4.2512207-1.90626526 1.375103-1.54332351 1.80586243-3.71427917 1.12321472-5.66841125l-.32405853-.94517899h8.89126587c2.62692261 0 4.76409149-2.13715744 4.76409149-4.76407623v-44.1746254c0-2.6269226-2.13716888-4.76407623-4.76409149-4.76407623zm27.8163414 50.6435318h-19.65245438l.32491303-.70844269c.26264572-.57267761.56346511-1.13495636.89563369-1.67366791l4.96092987-7.94234466c.93702698-1.60060883 1.21100617-3.47413635.77141572-5.27622986-.44011307-1.80419159-1.54805756-3.34259033-3.11975861-4.33181381-1.13623047-.71514511-2.44347763-1.09320069-3.78099823-1.09331131-2.36906433 0-4.57321549 1.17058944-5.89737702 3.13141632l-4.00731277 6.29418564v-34.27906418c-.00033188-.9401474.73559952-1.69610596 1.67542267-1.72100067l.01324463-.00018311h32.56290817c.94898224 0 1.72102356.77203369 1.72102356 1.72109223l-.00809479 44.15835571c0 .94896698-.77204895 1.72100067-1.72101593 1.72100067zm-17.32995224 3.43086243 3.13660812 5.09900665c.74914551 1.22348785.471138 2.82422256-.64374161 3.72104645-.50661087.41390991-1.14564514.64185333-1.79938888.64185333-.77328873 0-1.49651337-.30459595-2.03548813-.85671997l-2.31716919-2.36087799.03662491-.24617768c.15733337-1.05765533.22357559-2.13597869.19688797-3.20449066-.02393341-.92010116.03509903-1.84791183.17546463-2.75766754l.06539154-.42375564 3.18481064-.00001145zm8.14757919 5.08395004c-.91085815 0-1.74689102-.4582634-2.23636627-1.22586441l-.01254654-.02077866c-.03462219-.06057739-.06712341-.12112045-.09957886-.18169021-.02700042-.05040741-.05395126-.10084153-.08259964-.15125275l-2.37982177-3.87598038h6.623497l.69479371 1.94752121c.4334526 1.26901245-.15094758 2.66436005-1.35935975 3.24570084-.36183166.17407608-.74808502.26234436-1.14801788.26234436m-18.63396835-59.65834427h32.56290817c2.90727997 0 5.26409149 2.35681152 5.26409149 5.26407623v44.1746254c0 2.90726852-2.35681152 5.26407623-5.26409149 5.26407623h-8.19126511l.09703446.28301239c.74200439 2.12401963.27385712 4.48337937-1.2228775 6.16319657-1.49672318 1.67984771-3.78666687 2.41595459-5.98188019 1.92294311-.66271973 2.14659119-2.40431977 3.78726196-4.58659744 4.32081604-2.18229294.53356934-4.48443604-.11843109-6.06285477-1.71707153l-.49325562-.50134277c-1.39654541 3.38928985-3.74791336 6.29972839-6.76810074 8.37724304l-.5336914.37197113c-1.68504334 1.15384674-3.11376572 2.64311981-4.19670868 4.37459564-.59395599.95124054-1.84658051 1.24085998-2.79780197.64690399-.95122147-.59395599-1.24085236-1.8465805-.64688874-2.79781341 1.37755585-2.19937897 3.19444657-4.09059906 5.33685685-5.55517579l.53367614-.37197876c4.19122315-2.86434173 6.63055802-7.66982269 6.46891404-12.74375534-.11276627-3.72995376.8803749-7.40990829 2.8544197-10.57667541l4.91637803-7.96485901c1.04946899-1.66798782.54805755-3.87094116-1.11994172-4.92041016-1.66798782-1.04948043-3.87094497-.54806518-4.92041397 1.11992264l-6.58213043 10.38261032c-1.53943634 2.46628952-3.57093429 4.58862305-5.96756744 6.23442459-.92444611.63861847-2.19153214.40690613-2.83015824-.51750946-.63861084-.92443847-.40690994-2.19154739.51751328-2.83015823 1.88446426-1.28570938 3.49280929-2.93527603 4.73040008-4.85168839-.86460113-.6704216-1.85842132-1.15493392-2.91910171-1.42315673-1.07849884-.296978-1.71205521-1.41203308-1.41506577-2.49053192.29698182-1.07850266 1.41201401-1.71207428 2.4905243-1.41507721.49667739.1338005.98533249.29578781 1.46359634.48516464v-13.479599c-2.27762222.55860138-4.5017662 1.3162117-6.64679718 2.26409912-2.14550018.92837906-4.24007797 1.97026825-6.27485657 3.12126541-3.30595398 1.86472321-5.60034179 5.11485672-6.25060272 8.85433579l-5.5713501 32.13434219c-.18980407 1.10083008-1.23603058 1.83937836-2.33690643 1.64956665-1.10081482-.18978882-1.8393631-1.2360611-1.64956665-2.33689117l5.57135773-32.10199738c.83992004-4.94347763 3.86003112-9.24647522 8.22361374-11.71683121 2.16490936-1.23939895 4.39447784-2.36227798 6.67915344-3.36383438 2.652668-1.18147659 5.41897964-2.08912277 8.25595474-2.70885467v-15.75990296c0-2.90726471 2.35681152-5.26407623 5.26408005-5.26407623zm27.8163414 4.04307556h-27.8163414c-.66167832.01753998-1.1889.55908966-1.1886673 1.22100067v32.56291199l3.08891296-4.85168838c2.29676819-3.4081688 6.884861-4.37661362 10.36310959-2.1874199 3.47825623 2.18919754 4.58953095 6.7448082 2.51003266 10.28974152l-4.96488953 7.94867706c-.32116699.52090454-.61011124 1.06098938-.86522293 1.61723328l23.61154556-.00000763c.67434693 0 1.22101593-.54665756 1.22101593-1.22100067l.00809479-44.15844727c0-.67433929-.54666901-1.22100067-1.22102356-1.22100067zm-16.6364708 59.49321747c.52357865 0 1.04925156-.17463684 1.48303986-.52904511.92525482-.7443161 1.15377808-2.06001281.53367996-3.07274627l-3.1536026-5.1266098c-.05659866-.0404358-.05659866-.12129212-.05659866-.12129212l-2.2560463.00001145c-.13617706.88261032-.19300842 1.77566909-.16978836 2.66842269.02748871 1.10079957-.04014206 2.20190049-.20216751 3.29105378l2.14283371 2.18325805c.45738602.46855164 1.0666275.70694733 1.6786499.70694733zm3.5369072-8.83351517 1.91641998 3.12125778c.06468964.11319733.12129212.22639847.18598175.33960724l.00000763.00001526c.58547974.91813278 1.76477051 1.25386048 2.74603272.78177643.98129272-.47207642 1.45494842-1.6030426 1.10296631-2.6335144l-.57410813-1.60914231zm13.0995636-50.6597023v46.60045624z" fill="#e8e8e8"/></g><path d="m0 .32h12v2.68h-12z" fill="#e8e8e8" transform="matrix(0 1 -1 0 29.582 16.695)"/><path d="m0 .32h12v5.57h-12z" fill="#e8e8e8" transform="matrix(0 1 -1 0 29.582 31.695)"/><path d="m352.942 359.375a6.442 6.442 0 0 1 -4.313-1.679 21.453 21.453 0 0 1 -2.946-2.919 6.1 6.1 0 0 0 -4.154-2.129h-19.7v-.842h19.733a6.956 6.956 0 0 1 4.764 2.427 20.646 20.646 0 0 0 2.852 2.824 5.634 5.634 0 0 0 4.044 1.468h17.385v.842h-17.364c-.1.005-.2.008-.301.008z" stroke="#000" stroke-width="2" transform="matrix(0 1 -1 0 412.434 -319.99)"/></svg>