<svg height="919" viewBox="0 0 1152 919" width="1152"
  xmlns="http://www.w3.org/2000/svg"
  xmlns:xlink="http://www.w3.org/1999/xlink">
  <clipPath id="suppliers-hero-a">
    <path d="m10 0h1132a10 10 0 0 1 10 10v909a0 0 0 0 1 0 0h-1152a0 0 0 0 1 0 0v-909a10 10 0 0 1 10-10z" transform="translate(246 324)"/>
  </clipPath>
  <g clip-path="url(#suppliers-hero-a)" transform="translate(-246 -324)">
    <circle cx="37.696" cy="37.696" fill="#00ebe5" r="37.696" transform="translate(1341.551 580.245)"/>
    <g fill="#a66dfa">
      <path d="m688.68 972.031c-1.279.771-2.337 1.452-3.435 2.058-1.171.646-2.255 1.216-3.76.464a7.2 7.2 0 0 0 -2.88-.4 5.6 5.6 0 0 1 -.6.059.9.9 0 0 1 -.873-.726c-.174-1.29-2.709-2.068-1.029-3.669 2.1-2 3.445-4.542 5.275-6.7 3.217-3.8 7.266-6.722 11.175-9.765 3.231-2.515 6.516-4.96 9.778-7.435a67.291 67.291 0 0 1 7.3-4.607 4.446 4.446 0 0 1 .833-.359c.285-.094.641-.217.854.045.236.288-.054.552-.21.8-.285.455-.8.765-.918 1.659.922-.539 1.671-1 2.445-1.421.647-.35 1.236-.42 1.144.6-.035.385-.037.556.414.527 1.716-.109 1.67.84 1.121 2.173l1.141-.487c.135.837-.75 1.145-.71 1.823.258.092.45-.3.74-.038a1.2 1.2 0 0 1 -.187.352c-.591.551-1.226 1.059-1.791 1.636-.846.865-.808 1.2.192 2.036.339.282.181.534.043.792a7.846 7.846 0 0 1 -.5.76c-.143.205-.3.4-.457.616.4.3.531-.134.764-.234.266-.115.514-.272.97-.52a4.458 4.458 0 0 1 -1.488 2.068c-6.584 6.208-13.4 12.153-20.524 17.731-1 .786-1.906 1.8-3.53 1.638-1.019-.101-1.486-.239-1.297-1.476zm18.307-26.231a20.664 20.664 0 0 0 -6.039 4.665z" transform="matrix(.998 -.07 .07 .998 558.351136 -554.982356)"/>
      <path d="m797.972 944.4a8.279 8.279 0 0 0 2.583-1.175c.411-.209.837-.788 1.312-.188.452.571-.085.9-.446 1.244-.2.2-.376.424-.593.672a1.686 1.686 0 0 0 1.485-.387c.34-.2.7-.818 1.138-.246a1.194 1.194 0 0 1 .325 1.35 3.665 3.665 0 0 1 -1.215 1.7c.182.04.286.1.335.067.4-.244.788-.973 1.233-.484.4.439-.277.844-.582 1.219-6.191 7.607-14.54 12.863-21.462 19.677-1.6 1.574-3.892 1.72-5.9 2.374-.4-.629.361-.877.211-1.336-2.808 1.2-7.157-1.695-5.718-5.318-.513-.281-1.177.794-1.558-.091a2.522 2.522 0 0 1 .213-2.986c1.13-1.155 2.316-2.259 3.514-3.345 2.39-2.168 4.811-4.3 7.208-6.462a11.465 11.465 0 0 1 2.579-1.852c.466-.23 1.09-.5 1.429-.122.908 1.019 1.578.334 2.314-.153a84.43 84.43 0 0 1 11.73-6.645 7.833 7.833 0 0 1 .975-.407.578.578 0 0 1 .682.188c.174.275-.065.462-.226.649a6.448 6.448 0 0 0 -1.566 2.057zm-11.105 17.979a23.244 23.244 0 0 0 4.328-3.865 19.16 19.16 0 0 0 -4.39 3.8c-1.453.709-2.268 2.072-3.281 3.234 1.121-1.048 2.492-1.83 3.343-3.165zm6.574-15.326c-1.829 1.284-3.986 2.094-5.4 3.93 1.817-1.291 4.083-1.942 5.4-3.926z" transform="matrix(.998 -.07 .07 .998 517.115064 -552.371864)"/>
      <path d="m658.857 941.731a11.987 11.987 0 0 1 1.923-.6c.507-.059.887-.885 1.481-.28.573.583-.365.966-.235 1.539.72.5 1.249-1.186 2.071-.178.609.746.335 1.384-.035 2.085.443.053.738-.429 1.257-.12a2.614 2.614 0 0 0 -.365 2.867c.269.838-.45 1.235-.85 1.585-4.549 3.972-8.123 8.82-12.091 13.314a4.1 4.1 0 0 1 -2.2 1.482c1.454-2.65 3.857-4.529 5.823-7.278a35.8 35.8 0 0 0 -4.552 4.565c-.675.747-1.336 1.511-2.065 2.2-.4.379-.837.983-1.522.321-.272-.262-.606-.087-.813.13-.737.771-1.9.737-2.67 1.445a1.121 1.121 0 0 1 -.511.206c-.488-.911-1.714-.741-2.188-1.295-.683-.8-.965-.972-1.623-.124a.908.908 0 0 1 -.8.245c-.377-.12-.194-.51-.137-.791.361-1.794.356-1.8-1.406-1.35a2.347 2.347 0 0 1 -.028-1.764c1.712-3.213 2.928-6.686 6.012-9.078 3.748-2.907 7.258-6.119 10.88-9.188a11.083 11.083 0 0 1 4.843-2.015c.336-.08.779-.246 1 .076.27.394-.206.581-.417.838s-.382.572-.782 1.163z" transform="matrix(.998 -.07 .07 .998 575.356178 -555.60143)"/>
      <path d="m728.589 1031.526a.545.545 0 0 1 -.035.809c-3.345 3.049-6.676 6.114-10.24 8.911a2.3 2.3 0 0 1 -.528.192l.541-1.063c-1.28 1.01-2.883 1.625-3.185 3.56-.212 1.353-1.147 1.576-2.248.7a1.356 1.356 0 0 0 -1.1-.263 4.166 4.166 0 0 1 -4.379-5.065 3.2 3.2 0 0 0 -.2-2.442 2 2 0 0 1 .442-2.5 8.864 8.864 0 0 1 1.374-1.186c5.773-3.732 10.564-8.687 16.014-12.819a26.336 26.336 0 0 1 2.382-1.6c.427-.255 1.009-.488 1.419-.083.511.507-.1.889-.336 1.293-.126.217-.27.424-.468.735a6.748 6.748 0 0 0 2.066-.931c.381-.169.977-.419 1.1-.068.613 1.694 2.774 1.5 3.521 3.045a1.7 1.7 0 0 1 -.3 2.048 47.682 47.682 0 0 1 -5.027 5.409 5.092 5.092 0 0 0 -1.079 1.242.176.176 0 0 0 .015.119c.094 0 .188-.005.282-.011z" transform="matrix(.998 -.07 .07 .998 542.050608 -588.330104)"/>
      <path d="m745.839 1039.925 2.75-2.58.264.305c-.991.774-1.341 2.3-3.036 2.252-.006-.002.022.023.022.023z" transform="matrix(.998 -.07 .07 .998 524.276084 -595.478752)"/>
      <path d="m2418.375 1199.292c-.211-.165-.57.077-.553-.346 0-.034-.312-.045-.44-.127a6.115 6.115 0 0 0 -1.281-.652 1.009 1.009 0 0 1 -.382-.317 5.572 5.572 0 0 0 -1.628-1.442c-.093-.048.1-.473-.25-.184-.047.039-.215-.1-.33-.108a1.091 1.091 0 0 1 -.781-.4 1.4 1.4 0 0 1 -.216-.424 10.289 10.289 0 0 0 -.355-1.058c-.488-1.007-.794-2.081-1.194-3.12-.143-.372-.24-.761-.371-1.137s-.321-.734-.415-1.117a11.675 11.675 0 0 0 -.586-1.652c-.211-.515-.349-1.06-.525-1.589-.361-1.084-.672-2.189-1.11-3.241a10.309 10.309 0 0 1 -.348-1.762c-.008-.035.029-.08.044-.121-.467.036-.311-.4-.394-.6-.333-.779-.565-1.6-.872-2.392-.092-.236-.083-.239.1-.589-.115-.062-.322-.114-.329-.186-.072-.731-.59-1.346-.539-2.108.006-.088-.1-.183-.153-.277-.063-.117-.183-.241-.173-.354.066-.8-.444-1.43-.626-2.156a3.675 3.675 0 0 0 -.4-1.3c-.095-.139.013-.417.039-.766a1.709 1.709 0 0 1 -.573-1.447c0-.057.023-.13 0-.17-.59-.891-.467-2.03-1.013-2.939-.041-.07.078-.236.13-.378a1.974 1.974 0 0 1 -.675-1.32 15.825 15.825 0 0 0 -.525-1.759 18.6 18.6 0 0 1 -.673-2.39c-.05-.259-.165-.505-.234-.762-.058-.217.011-.479-.15-.654-.292-.317.057-.8-.3-1.083.049-.483-.3-.867-.334-1.321-.031-.469-.271-.9-.3-1.33a21.05 21.05 0 0 0 -.427-2.078 5.567 5.567 0 0 0 -.455-1.869c-.052-1.091-.577-2.072-.731-3.143-.071-.5-.261-.984-.365-1.487a5.009 5.009 0 0 1 -.138-.8c0-.086.036-.2-.006-.253a1.866 1.866 0 0 1 -.343-1.41c-.277-.182-.124-.466-.171-.7a4.067 4.067 0 0 1 -.161-.7c-.006-1.327-.23-2.64-.2-3.974a30.047 30.047 0 0 1 -.133-3.368 13.355 13.355 0 0 1 .663-3.766 8.214 8.214 0 0 1 .87-1.624 10.687 10.687 0 0 1 1.177-1.312 2.836 2.836 0 0 1 1.641-.816 3.362 3.362 0 0 0 .765-.225 8.039 8.039 0 0 1 1.252-.313 11.166 11.166 0 0 1 1.656-.149 8.789 8.789 0 0 1 1.835.364c.077.01.127.213.152.258.174-.012.336-.073.449-.022a6.462 6.462 0 0 1 .765.44 3.659 3.659 0 0 1 .6.408c.193.182.314.441.512.615.176.155.459.2.614.362.253.272.3.689.618.94.117.093.14.3.254.4a5.493 5.493 0 0 1 .687 1c.215.293.128.692.491.939.285.194.415.608.635.909a10 10 0 0 1 .718.91 24.135 24.135 0 0 1 1.531 2.29c.042.1.106.24.185.259.56.136.636.735 1.018 1.036-.045.271.134.252.313.258a.258.258 0 0 1 .2.1 2.744 2.744 0 0 0 1.033 1.03 6.011 6.011 0 0 1 .745.885 4.079 4.079 0 0 0 .673.662c.242.171.222.578.591.608-.079.462.461.474.571.781.121.338.538.362.656.75.088.29.456.5.7.739l.8.8.178-.159c0 .14.378.094.169.367-.054.07.014.314.1.4.33.313.536.763.959.963.3.142.337.423.494.641a7.836 7.836 0 0 0 1.093 1.067c.034.032.141.021.147.046.217.941 1.224 1.161 1.7 1.865.226.336.437.681.66 1.031.184-.26.364-.225.545-.025.026-.053.074-.1.068-.148a2.457 2.457 0 0 0 -.193-1.03c-.259-.358-.055-.748-.256-1.11a3.753 3.753 0 0 1 -.235-1.19 6.56 6.56 0 0 0 -.185-1.129c-.316-.891-.3-1.852-.658-2.738a6.249 6.249 0 0 1 -.195-1.383 2 2 0 0 0 -.185-.779c-.157-.24-.06-.528-.177-.7a1.38 1.38 0 0 1 -.156-.631c-.107-.554-.214-1.112-.37-1.654a14.687 14.687 0 0 1 -.657-2.825l-.27-.692c-.327-.347-.2-.825-.346-1.232-.125-.358-.407-.731-.169-1.16a.22.22 0 0 0 0-.179 9.2 9.2 0 0 1 -.847-2.757c0-.039.048-.107.036-.118-.437-.391-.161-1.013-.473-1.442.066-.894-.424-1.714-.349-2.611a.832.832 0 0 0 -.088-.306 2.9 2.9 0 0 1 -.254-1.359 1.18 1.18 0 0 0 -.158-.708c-.108-.211.04-.468-.116-.728-.206-.345-.09-.787-.207-1.2a18.42 18.42 0 0 1 -.4-2.513 21.113 21.113 0 0 0 -.436-2.135c-.111-.445-.109-.918-.229-1.37a8.082 8.082 0 0 0 -.328-1.414.65.65 0 0 1 -.019-.25 3.541 3.541 0 0 0 -.152-1.141c-.122-.348.074-.78-.193-1.126 0-.8 0-1.607 0-2.41a5.154 5.154 0 0 1 .277-1.776c.189-.545.261-1.15.4-1.727a14.577 14.577 0 0 1 .8-2.51c.146-.328.163-.689.307-.991a3 3 0 0 1 1.892-1.774 3.292 3.292 0 0 1 1.05-.171 13.851 13.851 0 0 0 1.548 0 4.194 4.194 0 0 1 1.905.394 7.58 7.58 0 0 1 3.721 2.822c.445.066.382.525.594.773s.394.523.586.789a.6.6 0 0 1 -.011.645 1.337 1.337 0 0 1 .618.574c.284.391.179.881.5 1.274.266.327.309.839.574 1.214-.239.371.4.53.215.887.352.244-.016.738.248.913a2.235 2.235 0 0 1 .6.707c.276.412.274.983.694 1.333-.128.095-.178.179-.03.319.023.022-.158.22.031.355a1.807 1.807 0 0 1 .672 1.01 6.248 6.248 0 0 1 .406 1.133 1.428 1.428 0 0 0 .219.835c.219.221.218.494.345.728a1.376 1.376 0 0 1 .271.839.39.39 0 0 0 .162.269.488.488 0 0 1 .176.448c0 .23-.11.524.294.567.034 0 .017.263.067.386a9.381 9.381 0 0 1 .669 1.789.27.27 0 0 0 .059.146 2.166 2.166 0 0 1 .516 1.168c.074.25.045.611.387.793.219.117-.012.275-.094.4.49.22.17.871.6 1.134.063.039.055.2.075.306s0 .269.059.313c.21.149.174.347.215.553.036.181.372.378.335.481-.095.26.125.365.153.547.034.216.066.432.1.648.008.054 0 .127.026.16.432.468.367 1.187.917 1.623l-.59.383c.038.052.056.1.092.122.191.091.4.156.578.264.083.049.194.22.17.257-.274.425.074.472.361.579v.752c.315.028.46.24.323.446a.378.378 0 0 0 .17.612.518.518 0 0 1 .366.576c0 .1.021.254.089.3.368.246.37.645.508 1 .082.213 0 .5.268.673.191.125.292.385.436.583a7.876 7.876 0 0 0 .49.655c.16.178.076.277-.033.429-.038.055.109.218.123.338a5.339 5.339 0 0 1 .006.61l.5-.192c-.058.245-.3.423-.024.608.116.078.314.2.059.359.06.034.134.111.178.1a.473.473 0 0 0 .312-.6c-.022-.073-.12-.121-.159-.193-.022-.041 0-.109.01-.18l.315-.114c-.054-.086-.167-.217-.147-.242.179-.224-.077-.521.011-.622.231-.265.136-.54.145-.807a2.512 2.512 0 0 1 .164-.881 1.431 1.431 0 0 0 .043-.716 1.658 1.658 0 0 1 .144-1.3c-.23-.3.02-.593.018-.89a2.145 2.145 0 0 1 .1-1.243c.2-.329-.111-.789.225-1.11a11.129 11.129 0 0 1 .151-1.478 13.992 13.992 0 0 1 .4-2.689 16.149 16.149 0 0 1 .909-2.972 18.055 18.055 0 0 1 2-3.727c.537-.736.859-1.681 1.786-2.1.052-.023.048-.15.091-.214a3.1 3.1 0 0 1 1.487-1.133 2.6 2.6 0 0 0 .582-.267 1.309 1.309 0 0 1 .744-.285 4.569 4.569 0 0 0 .79-.159c.265-.051.574.12.793-.17.021-.028.11 0 .167 0 .665-.056 1.33-.1 1.993-.176a6.2 6.2 0 0 1 .79-.155c.437.014.869.125 1.306.154s.866-.039 1.289.018a13.167 13.167 0 0 1 2.652.854c.359.3.854.4 1.16.705s.9.42.881 1.028c0 .05.086.122.148.152.628.3.784.941 1.035 1.492a2.358 2.358 0 0 1 .171 1.04c-.013.318.351.137.361.36a1.794 1.794 0 0 0 .04.5 4.217 4.217 0 0 1 .306 1.337.454.454 0 0 0 .056.233 4.945 4.945 0 0 1 .458 1.79c.06.263.232.577.145.777a1.036 1.036 0 0 0 .04.728 7.793 7.793 0 0 0 .457 2.133c.107.2-.026.545.1.728.136.206 0 .389.091.6a1.755 1.755 0 0 1 .218 1.035c-.057.319.207.6.177.96a4.906 4.906 0 0 0 .151.961c.04.324-.08.674.172.964.029.033 0 .112 0 .169a29.685 29.685 0 0 0 .19 3.024 48.958 48.958 0 0 1 .152 5.7c.011.271 0 .272.307.669.023-.392.041-.711.064-1.117.125.058.3.1.307.149a8.955 8.955 0 0 1 0 1.2c-.011.137-.147.264-.223.391-.25-.106.11-.621-.4-.5.156.3.113.646.415.914.248.221-.151.6-.008.924 0 .009-.051.036-.056.06-.08.341-.312.647-.369.958-.053.295.2.642.3.971a.816.816 0 0 1 -.023.273l-.326-.172c.168.724.442 1.431-.183 2.059.467.513 0 1.018-.054 1.531-.012.116-.277.2-.467.334l.513.078a2.163 2.163 0 0 0 -.147 1.164.773.773 0 0 1 -.056.319 2.169 2.169 0 0 0 -.118.93 2.2 2.2 0 0 1 -.082.479 2.5 2.5 0 0 1 -.09.479c-.089.221.316.453 0 .626-.273.15-.07.442-.242.592-.053.047-.153.039-.409.094l.537.142.04-.036c.247.347-.131.638-.079.936.067.384-.28.524-.421.851l.409.169a2.538 2.538 0 0 1 -.266 1.5c-.192.264-.1.728.14 1.41a1.657 1.657 0 0 0 -.3-.211.98.98 0 0 0 -.271-.005l.509.754c-.181.245-.367.482-.173.82.038.065-.023.217-.08.3a.4.4 0 0 0 .008.533.39.39 0 0 1 .076.216c-.465.3.2.6 0 .9-.114.174-.218.354-.291.472.111.132.209.235.292.349.177.238-.238.43-.027.736.134.2.057.559.024.841-.119.993.259 1.953.177 2.941a3.848 3.848 0 0 1 .178 1.563 8.857 8.857 0 0 0 .167.962c.056.294-.054.581.119.9.145.267-.011.681.072 1 .054.209.276.368-.016.552.238.155.162.4.168.616a6.505 6.505 0 0 0 .3 1.594 1.169 1.169 0 0 1 .024.666c-.078.214.353.366.029.557a2.239 2.239 0 0 1 .164.956 2.38 2.38 0 0 0 .15.881 12.2 12.2 0 0 1 .357 1.775 4.9 4.9 0 0 0 .151.97 1.283 1.283 0 0 1 -.154 1.12.565.565 0 0 0 -.109.407l.392-.315c.249.379-.1.548-.3.805.158.175.105.494.451.576.064.015.084.3.092.456.017.379-.082.7-.575.784.369.122.527.286.344.611-.02.034.135.22.269.27-.311.354-.043.929-.532 1.277l.452-.09a3.947 3.947 0 0 1 -.159 1.339c-.214.435.035.962-.409 1.34l-.593.049v.084l.519.1a2.556 2.556 0 0 1 -.306 1.045 12.866 12.866 0 0 1 -1.629 2.688c-.325.428-.7.8-1.051 1.194-.332.375-.63.782-.979 1.14a9.9 9.9 0 0 1 -2.993 2.325 5.824 5.824 0 0 1 -2 1.2 29.426 29.426 0 0 1 -3.471 1.382c-.627.22-1.253.444-1.89.63a9.655 9.655 0 0 0 -1.926.547.666.666 0 0 1 -.331.027 2.383 2.383 0 0 0 -1.349.279 1.05 1.05 0 0 1 -.316.068c-.32.061-.644-.09-.977.15-.21.151-.607-.073-.863.191-.028.029-.111.006-.168 0-1.186-.05-2.351.283-3.544.183a1.964 1.964 0 0 0 -1.145.137.641.641 0 0 1 -.781-.136c-.19.238-.458.155-.7.158-.689.007-1.378-.018-2.065.011-.35.015-.725-.151-1.056.155-.173.16-.329-.38-.576-.084a12.813 12.813 0 0 0 -1.369.1 6.631 6.631 0 0 0 -2.054.027 8.886 8.886 0 0 1 -1.919.126c-.686.037-1.376-.006-2.064.017a2.263 2.263 0 0 0 -.7.17c-.221.083-.423-.307-.634-.006-.24-.092-.479-.262-.718 0-.211-.275-.421.041-.632 0a1.7 1.7 0 0 1 -.646-.111 1.593 1.593 0 0 0 -.832-.057 9.081 9.081 0 0 1 -2.947-.382 26.969 26.969 0 0 1 -2.763-.8.962.962 0 0 0 -.417-.029 21.045 21.045 0 0 1 -2.955-.355c-.093 0-.177-.12-.275-.162-.17-.073-.348-.128-.524-.189a2.733 2.733 0 0 0 -.528-.174c-.161-.022.112-.416-.249-.246-.124.058-.338-.023-.49-.088a5.535 5.535 0 0 1 -.627-.355q-.655-.392-1.307-.791c-.184-.097-.092-.194.047-.296zm-11.835-24.892a5.051 5.051 0 0 1 -.207-1.151 2.078 2.078 0 0 0 -.209-1.039 11.5 11.5 0 0 1 -.493-1.516c-.244-.818-.463-1.643-.692-2.466a6.826 6.826 0 0 1 -.516-2.194c-.3-.46-.07-1.078-.5-1.522-.159-.164-.1-.52-.2-.769-.052-.135.4-.245.015-.324s.072-.22-.045-.309a1.719 1.719 0 0 1 -.539-1.236c-.086-.562-.376-1.052-.491-1.613a4.327 4.327 0 0 0 -.413-1.371 2.3 2.3 0 0 1 -.229-.932 17.9 17.9 0 0 0 -.6-2.6c-.23-.942-.373-1.9-.615-2.837.168-.243-.3-.477-.01-.721a6.455 6.455 0 0 1 -.328-.715c-.084-.257-.009-.522-.111-.813a21.472 21.472 0 0 1 -.583-2.34c-.121-.525-.212-1.056-.35-1.576a12.2 12.2 0 0 1 -.492-1.682c-.117-1.031-.384-2.035-.5-3.055a13.319 13.319 0 0 1 -.212-2.85 13.958 13.958 0 0 0 0-1.633 2.422 2.422 0 0 0 -.1-.64 2.768 2.768 0 0 1 -.024-1.253 9.254 9.254 0 0 0 .035-2.807c-.083.168-.252.346-.232.5a10.992 10.992 0 0 1 -.2 1.994c-.1 2.018.216 4.021.184 6.035a.9.9 0 0 0 .016.337 14.329 14.329 0 0 1 .493 2.46c.035.164.008.325.167.451.2.157-.324.313-.034.466.415.219.051.712.375.979.074.061-.05.357-.074.545a.236.236 0 0 0 .03.163c.235.277.237.275.061.606.121.168.453.271.17.561.243.329.049.837.454 1.107a.277.277 0 0 1 .056.218c-.229.14-.054.245 0 .386.065.176.025.392.1.561a3.85 3.85 0 0 1 .417 1.8 1.171 1.171 0 0 0 .182.617c.094.2.234.373.174.617-.065.266.224.535 0 .8.35.366.238.884.414 1.29.41.947.286 2.027.791 2.94a8.382 8.382 0 0 0 .316 1.582 4.021 4.021 0 0 1 .254 1.493 1.222 1.222 0 0 0 .233.749c.146.246-.035.531.209.787.174.183.049.7.225.82.356.239-.173.522.122.688.141.88.781 1.576.911 2.46.383.186.263.579.365.881a2.943 2.943 0 0 1 .3 1c0 .136.075.273.079.41 0 .155-.078.322-.042.463.067.257.489.421.189.772.143.24.3.472.425.722.093.189.09.441.215.594.262.321.027.743.229 1.024.248.345-.047.732.211 1.026.316.205.24.654.624 1.06zm12.2-14.9a1.865 1.865 0 0 0 -.024.6c.19.493.415.974.635 1.455.055.121.163.219.212.342.128.32.1.71.4.95.269.221-.1.786.469.825.156.764.644 1.406.835 2.142.119.459.479.791.533 1.242.092.758.744 1.322.7 2.12 0 .038.088.074.114.122a3.537 3.537 0 0 1 .521 1.065c.056.447.477.751.4 1.222 0 .012.073.038.112.057l.251-.59-.347-.128a5.046 5.046 0 0 0 -.059-.743c-.053-.244-.3-.537-.229-.7.135-.287-.182-.407-.116-.669a.778.778 0 0 0 -.318-.612c-.3-.217.064-.594-.114-.639-.465-.119-.1-.438-.217-.625a6.928 6.928 0 0 1 -.345-.63c-.116-.238-.214-.484-.323-.725-.1-.217-.214-.427-.3-.649-.1-.247-.149-.511-.25-.756a7.094 7.094 0 0 0 -.333-.635c-.114-.211-.234-.418-.343-.631-.12-.236-.239-.474-.343-.717-.094-.219-.146-.458-.257-.666s-.29-.394-.416-.6c-.137-.227-.237-.476-.371-.7-.124-.217-.269-.414-.477-.727zm46.438 35.317a9.343 9.343 0 0 0 1.777-2.11 7.887 7.887 0 0 0 .982-3.541c.006-.2.168-.444.1-.583a.488.488 0 0 1 .068-.665.162.162 0 0 0 -.009-.159c-.267-.192-.174-.476-.149-.708a11.208 11.208 0 0 0 -.25-1.958 1.82 1.82 0 0 0 -.182.7 5.421 5.421 0 0 1 -.092.6c-.009.257.005.515 0 .772a1.967 1.967 0 0 1 -.07.656c-.082.2.014.385-.077.6-.158.37.081.8-.149 1.227-.2.361.135.921-.382 1.212a.427.427 0 0 1 .163.44 6.159 6.159 0 0 1 -1.144 1.738c-.213.15-.187.527-.532.54-.015.223-.033.445-.044.668-.015.132-.01.274-.01.571zm-15.95-64.18c-.433.03-.44.294-.4.587a3.015 3.015 0 0 1 -.091 1.194c-.071.146-.1.23.008.362.317.373-.158.28-.26.426l.378.177a5.1 5.1 0 0 0 -.429 1.214c-.043.3.177.543.048.815a.443.443 0 0 1 -.09.1l-.2-.165c-.21.386.224.3.259.374v.8l-.3.1.4.509-.418.328a1.281 1.281 0 0 1 .111 1.153c-.016.058-.034.168-.017.175.4.17.166.6.356.929.446-.622.141-1.271.289-1.972l.3-.214c-.2-.468-.245-.49-.126-.736.134-.277-.137-.478-.051-.739a5.118 5.118 0 0 0 .173-.873c.008-.062-.085-.133-.112-.208a.4.4 0 0 1 -.037-.23c.089-.277.2-.548.3-.822-.311-.3-.018-.585.022-.878.012-.093-.07-.2-.1-.3-.026-.076-.078-.207-.054-.224.266-.19.052-.538.192-.692.254-.279-.031-.531.03-.716a10.815 10.815 0 0 0 .117-2.271c.026-.229.068-.456.1-.7-.063 0-.177-.025-.212.016-.184.215.08.575-.232.77a2.87 2.87 0 0 1 .119.279c.015.093.015.241-.041.285-.447.348-.244.731-.032 1.146zm-22.142 7.653-.118.014a5.206 5.206 0 0 1 -.006.662 7.186 7.186 0 0 1 -.194.772l.34-.294c.084.479.139.93.246 1.367.172.7.357 1.4.478 2.12a3.685 3.685 0 0 1 .181 1.126c.368.275.057.724.3 1.085.207.3.125.795.208 1.195a3.843 3.843 0 0 1 .167 1.3c.286.246.039.651.194.857.25.332.078.659.152.975.03.128.085.251.123.378a3.2 3.2 0 0 1 .209.768 11.368 11.368 0 0 0 .371 1.657c.039.228.256.424.456.732.025-.212.067-.305.039-.369a7.273 7.273 0 0 1 -.476-1.94 16.85 16.85 0 0 1 -.551-3.13c-.333-.35-.108-.834-.317-1.245-.187-.368-.053-.9-.226-1.277-.161-.355-.074-.707-.185-1.041-.44-1.325-.647-2.706-.993-4.054-.139-.548-.265-1.103-.398-1.658zm44.8-2.143a5 5 0 0 1 .021-1.191c.1-.378-.414-.712-.022-1.066-.345-.3-.105-.7-.169-1.048s-.127-.7-.171-1.047a7.009 7.009 0 0 0 -.207-1.636c-.153-.4-.017-.8-.159-1.137a3.056 3.056 0 0 1 -.15-1.226 2.883 2.883 0 0 0 -.152-.709 4.574 4.574 0 0 0 -.348-.789c.455-.207-.341-.628.142-.83a2.257 2.257 0 0 0 -.166-.351c-.072-.1-.241-.177-.036-.307l-.2-.3-.662.424a2.293 2.293 0 0 0 .558.423c.3.1.075.167.02.253.289.179.03.4.056.6s-.035.371.007.548c.07.294-.014.684.443.773l-.356.168c.322.24.145.481.024.737l.531.08c-.054.188-.1.338-.137.491a.485.485 0 0 0 -.012.29 3.6 3.6 0 0 1 .457 1.532 1.967 1.967 0 0 0 .017.766 2.2 2.2 0 0 1 .065 1.533c-.013.056-.008.156.025.176.267.166.24.424.238.68 0 .488-.008.975 0 1.462 0 .139.136.328.082.405-.183.27.175.219.266.296zm-22.068 24.837c.1-.4-.079-.846.209-1.2-.062-.724.426-1.358.344-2.085.283-.269.069-.656.212-.94.3-.59.215-1.266.468-1.863.025-.06-.076-.174-.118-.262-.072.059-.17.1-.214.178a11.614 11.614 0 0 0 -.705 1.849 7.23 7.23 0 0 0 -.479 1.678 25.131 25.131 0 0 0 -.024 2.647zm-28.491 31.174a8.331 8.331 0 0 0 .42 1.38 2.71 2.71 0 0 0 .757 1.16l-.275.621c.435-.323.709-.295.947.014.1.133.31.236.33.373.06.412.308.188.558.216a7.362 7.362 0 0 1 -1.212-2 11.884 11.884 0 0 0 -1.31-1.759c-.015-.03-.103-.006-.21-.006zm48.063-7.981a3 3 0 0 1 -.249-.662 9.591 9.591 0 0 0 -.154-1.477c-.108-.5-.235-1-.327-1.492a7.124 7.124 0 0 1 -.393-2.247c0-.015-.073-.04-.132-.07a8 8 0 0 0 .209 2.379 10.807 10.807 0 0 0 .261 1.548c.035.134-.067.3-.118.5a1.351 1.351 0 0 1 .248.251c.027.042-.108.186-.082.23.072.118.238.192.279.314.033.1-.061.239-.115.411zm-16.764-41.044-.146-.007c-.2.775-.333 1.571-.6 2.319a15.46 15.46 0 0 0 -.665 2.313 1.07 1.07 0 0 0 .71-.736 6.418 6.418 0 0 0 .383-1.64c.332-.312.027-.738.212-1.113a3.216 3.216 0 0 0 .11-1.137z" transform="translate(-1396.284 -722.51)"/>
      <path d="m1825.777 1802.772c-.376.738-1.178.466-1.76.7-.407.161-.954.539-1.393.277-.471-.28-.8.148-1.216.05a.849.849 0 0 0 -.942.183.494.494 0 0 1 -.474.037c-.295-.186-.547-.432-.823.006-.669-.419-1.445-.148-2.155-.337a11 11 0 0 0 -2.5-.461l-.725-.725a.621.621 0 0 1 -.875.154 30.549 30.549 0 0 1 -3.9-1.979 17.35 17.35 0 0 1 -2.653-1.987c-.812-.883-1.822-1.573-2.669-2.439-1.223-1.252-2.255-2.665-3.431-3.955-.133-.678-.719-1.051-1.065-1.585-.373-.576-.864-1.059-1.2-1.674a7.211 7.211 0 0 0 -1.151-1.7c-.2-.2-.028-.378.186-.563-.334-.431-.9-.616-1.079-1.269-.144-.522-.684-.957-1.007-1.487-.951-1.564-1.839-3.156-2.641-4.8a11.423 11.423 0 0 0 -.843-1.817c-.395-.536-.438-1.188-.808-1.725a8.44 8.44 0 0 1 -.877-1.806c-.711-1.88-1.61-3.678-2.321-5.565-.751-1.991-1.555-3.961-2.216-5.989-.231-.708-.556-1.385-.772-2.112-.259-.873-.469-1.764-.771-2.62a9.787 9.787 0 0 1 -.762-2.506c-.014-.195-.318-.4-.222-.66.085-.229-.449-.283-.1-.613.164-.156-.276-.315-.38-.518-.152-.3-.066-.63-.148-.957-.4-1.585-.938-3.131-1.217-4.757a11.082 11.082 0 0 0 -.678-2.779c-.235-.519.049-1.228-.3-1.794.165-.968-.416-1.867-.259-2.837.043-.267-.354-.485-.027-.839.122-.134-.325-.508-.24-.892a4.816 4.816 0 0 0 .015-1.02c0-.341.011-.683 0-1.024a3.863 3.863 0 0 1 .736-2.391 6.275 6.275 0 0 1 1.581-1.748.7.7 0 0 1 .692-.045c.3.464-.176.754-.254 1.131-.063.3-.423.469-.311.9.071.272-.266.572.1.913s-.426.6-.177 1.04l.349.072c.015.015.073.047.071.075a11.542 11.542 0 0 0 .287 2.442c.029.211-.174.266-.262.429l.447.156a.607.607 0 0 1 -.141.79c.026.057.038.139.084.17.366.243.3.635.4.99a44.573 44.573 0 0 0 1.515 5.638 11.776 11.776 0 0 0 .9 3.084c.178.644.389 1.3.557 1.933.175.654.8 1.183.59 1.939a32.016 32.016 0 0 1 1.2 3.085c.352.713.475 1.5.8 2.229.313.7.548 1.487.848 2.206a28.13 28.13 0 0 0 1.385 3.27 11.6 11.6 0 0 1 .826 1.826 66.464 66.464 0 0 0 3.9 8.237 8.824 8.824 0 0 1 1.176 2.451c.083.477.57.651.653 1.15.057.348.53.608.684.965a9.165 9.165 0 0 0 .634 1.148 2.837 2.837 0 0 1 .694 1.954c.216.181.222-.055.324-.073.773.746.807.861.477 1.636l.348.332.258-.217a2.431 2.431 0 0 1 1.137 2.438c.29.109.341-.272.624-.136a25.376 25.376 0 0 0 1.894 2.561c.545.582 1.1 1.171 1.676 1.728.613.592 1.208 1.2 1.812 1.807a18.149 18.149 0 0 0 1.822 1.791 41.564 41.564 0 0 0 3.757 2.628 30.16 30.16 0 0 0 3.306 1.617 9.326 9.326 0 0 0 2.427.607 5.6 5.6 0 0 1 1.173.273.367.367 0 0 0 .454-.125.542.542 0 0 0 -.37-.6 9.6 9.6 0 0 1 -2.832-2.107c-.858-.765-1.655-1.6-2.448-2.435a22.875 22.875 0 0 1 -3.323-4.5c-.588-1.037-1.251-2.025-1.792-3.1a25.893 25.893 0 0 1 -2-5.18c-.064-.251-.359-.4-.271-.652.127-.369-.5-.63-.207-.883.4-.347-.186-.45-.078-.729a.731.731 0 0 0 -.213-.8c-.162-.161.092-.359.24-.521-.557-.253-.458-.834-.486-1.235a18.953 18.953 0 0 1 .011-3.83 16.987 16.987 0 0 1 .476-2.734c.268-.866.653-1.7.891-2.57a11.285 11.285 0 0 1 .822-1.581c.231-.525.646-.953.867-1.434.324-.7 1.011-.969 1.421-1.552a4.675 4.675 0 0 1 1.676-1.16 11.6 11.6 0 0 1 2.257-1.021c.762-.221 1.5-.516 2.284-.685a14.548 14.548 0 0 1 3.122-.484c.479 0 .91-.312 1.431-.257a8.034 8.034 0 0 1 1.95.24c.6.211 1.273.081 1.941.241a15.877 15.877 0 0 1 5.278 1.8c.348.184.556.644 1.034.583 1.392 1.514 3.079 2.758 4.182 4.536a27.57 27.57 0 0 1 3.08 6.912 7.541 7.541 0 0 1 .6 2.06c.407-1.346-.545-2.488-.626-4.069a10.309 10.309 0 0 1 1.031 3 18.311 18.311 0 0 1 .577 3.748c.021.582.167 1.2.214 1.814.042.551-.385.984-.283 1.561a3.922 3.922 0 0 1 0 1.527c-.37 1.59-.677 3.191-1.135 4.766a26.431 26.431 0 0 1 -2.051 4.782 8.6 8.6 0 0 1 -1.98 2.757c-.361.3-.407.887-.954 1.011-.032.007.026.239-.106.327-.28.186-.077.462-.188.686 1.377.373 2.715.628 4.044.921 1 .219 2.009.219 3.005.42a9.548 9.548 0 0 0 3.058.019 25.754 25.754 0 0 0 4.406-.777 32.249 32.249 0 0 0 4.006-1.752c.414-.194.532-.788 1.087-.772.777-1.081 2.135-1.54 2.826-2.767a25.519 25.519 0 0 1 1.7-1.982c.753-1.047 1.419-2.15 2.165-3.2.606-.85 1.038-1.8 1.57-2.688a23.748 23.748 0 0 0 1.825-4.223 23.3 23.3 0 0 0 .872-2.459 12.085 12.085 0 0 0 .684-3.676c-.038-.526-.351-.99-.278-1.561a1.145 1.145 0 0 1 .411-.724 7.2 7.2 0 0 0 1.13 1.891c-.167-.508.6-.679.08-1.253-.244-.27.032-.887-.413-1.218l.6-.5a4.091 4.091 0 0 1 .469.652c.1.215.057.53.545.381a2.256 2.256 0 0 1 -.222-1.489c.535.022 1.019-.132 1.448.193.163-.1-.031-.354.205-.425.206.22.5.38.639.7.113.269.25.527.38.8.277-.225-.025-.55.233-.74a2.143 2.143 0 0 1 .418 1.309c-.033 1.236-.048 2.475 0 3.709a9.041 9.041 0 0 1 -.314 1.807 18.474 18.474 0 0 1 -1.01 3.793 13.064 13.064 0 0 1 -1.249 3.063c-.7 2.433-2.425 4.283-3.648 6.417a8.261 8.261 0 0 1 -1.182 1.419 67.118 67.118 0 0 1 -4.678 4.978 29.307 29.307 0 0 1 -7.886 5.047 29.778 29.778 0 0 1 -3.723 1.215 18.323 18.323 0 0 0 -2.774.7.883.883 0 0 1 -.242.033 56.261 56.261 0 0 1 -8.2.229c-1.234-.244-2.492-.311-3.713-.6-1.16-.273-2.307-.605-3.46-.907-.08-.021-.2.033-.251-.008a5.172 5.172 0 0 0 -3.659-.729zm-1.025-10.256c.475.308.8.735 1.252 1.053a27.282 27.282 0 0 0 3.468 1.834.982.982 0 0 0 1.324-.3 20.945 20.945 0 0 0 2.427-4.619c.25-.789.543-1.565.808-2.35.281-.834.372-1.715.57-2.569.191-.824.077-1.709.266-2.575.26-1.192-.4-2.377-.227-3.6-.466-.384-.157-.943-.315-1.4-.346-1.01-.654-2.031-.963-3.053a17.72 17.72 0 0 0 -2.435-4.859 14.81 14.81 0 0 0 -2.8-3.2 14.21 14.21 0 0 0 -2.5-1.725 9.164 9.164 0 0 0 -4.833-1.294 4.9 4.9 0 0 1 -.766 0c-1.8-.149-2.66.876-3.578 2.159-.472.659-.612 1.5-1.238 2.054.088.192.478.33.144.608a.576.576 0 0 0 -.158.575c.037.392-.469.086-.486.389.474.458.248.8-.167 1.1l-.339-.277a23.208 23.208 0 0 1 -.25 2.5 18.833 18.833 0 0 0 1.224 6.883c.019.035-.152.17-.239.265a5.554 5.554 0 0 1 1.493 2.33 16.184 16.184 0 0 0 2.682 4.123c.181.182.09.426.188.559.233.313.183.7.337 1.023h.487c.3.114.152.445.376.631.188.157.462.1.626.468a4.174 4.174 0 0 0 1.289 1.376c.48.379.593 1.162 1.4 1.2.278.012.27.469.453.686zm-15.441-21.936c-.161.776-.687 1.516-.513 2.362.038.182-.068.3-.164.445a15.714 15.714 0 0 0 -.1 1.914c-.1.6.512 1.142.241 1.667a2.457 2.457 0 0 0 -.008 1.721 12 12 0 0 0 1.575 4.286c-.046-.526-.026-.868.225-1.127-.192-.111-.4-.028-.5-.257.248-1.068-.339-2.071-.432-3.15a28.337 28.337 0 0 1 -.327-3.039c.026-1.608.003-3.216.003-4.823z" transform="matrix(.719 -.695 .695 .719 -1464.995 521.535)"/>
      <path d="m1922.092 2169.091c-.973 2.662-1.906 5.309-3.875 7.5a19.684 19.684 0 0 0 -2.925 4.527c-.285.583-.808.76-1.1 1.28-.7 1.218-.95 2.593-1.84 3.776-2.006 2.666-3.986 5.342-6.079 7.946-1.382 1.718-2.675 3.523-4.11 5.2a24.416 24.416 0 0 1 -9.879 6.712c-4.38 1.725-8.718 3.6-13.2 5.026a60 60 0 0 1 -25.67 2.686c-5.309-.633-10.48-1.636-15.029-4.347a47.943 47.943 0 0 1 -17.513-17.564 8.371 8.371 0 0 0 -.554-.791 23.726 23.726 0 0 1 -4.09-7.657 25.071 25.071 0 0 0 -1.618-4.121c-1.905-3.97-1.54-7.968 0-11.951a31.934 31.934 0 0 1 7.028-10.428 22.97 22.97 0 0 0 6.255-14.111c.537-5.027-.345-9.9-1.24-14.781-.549-3-1.04-6.009-1.631-9-.952-4.821-3.17-9.117-5.446-13.424a70.153 70.153 0 0 1 -6.6-17.739 27.085 27.085 0 0 1 1.193-15.236 22.3 22.3 0 0 1 4.5-7.9 46.238 46.238 0 0 1 6.712-6.2 68.581 68.581 0 0 1 19.655-9.48c8.019-2.5 15.828-5.455 22.678-10.488a173.048 173.048 0 0 0 14.545-12.012c6.317-5.8 12.934-11.195 20.58-15.187 7.412-3.869 15.153-6.88 23.625-6.8 12.753.117 23.671 4.622 31.405 15.112 5.72 7.758 6.647 16.648 4.778 25.929-.337 1.676-.679 3.351-1.071 5.014a33.422 33.422 0 0 1 -5.3 11.808c-1.488 2.1-3.093 4.111-4.582 6.189a71.865 71.865 0 0 1 -5.707 6.853 75.741 75.741 0 0 0 -6.357 8.034c-.684.977-1.768 1.57-2.429 2.62-2.5 3.974-5.1 7.888-6.884 12.258a23.561 23.561 0 0 0 -2.136 7.318c-.116 1.629-.017 3.254-.158 4.873a28.95 28.95 0 0 0 .591 7.188c.148.912-.955 1.648-.718 1.711 1.286.342.382 1.064.408 1.59.015.311-.181.652-.111.937 1.194 4.845.678 9.8.78 14.689.095 4.543.492 9.172-.736 13.626-.448 1.625-.775 3.292-1.248 4.916-.568 1.947-1.615 3.773-1.789 5.8-.247 2.862-1.692 5.26-2.734 7.818-.057.141-.268.219-.41.331.133-1.523 1.381-2.659 1.425-4.226-1.069 2.272-2.4 4.424-2.957 6.929zm-37-133.391a22.116 22.116 0 0 0 4.343-3.895c-1.435 1.312-3.167 2.3-4.316 3.922a8.157 8.157 0 0 0 -2.881 2.3 8.938 8.938 0 0 0 2.852-2.327zm16.376-21.1a4.326 4.326 0 0 0 .774-.242 76.268 76.268 0 0 1 18.45-7.1c.234-.055.555-.047.695-.406-.438.063-.85.111-1.258.182a54.953 54.953 0 0 0 -15.21 5.42 9.53 9.53 0 0 0 -3.427 2.177c-1.444.1-2.326 1.32-3.576 1.821a.5.5 0 0 0 -.121.824c.111.112.265.184.334.052.725-1.392 2.489-1.5 3.337-2.728zm-38.868 193.511a26.926 26.926 0 0 0 2.752-.014c3.719-.382 7.389-1.089 11.059-1.782 5.445-1.031 10.467-3.345 15.62-5.244a13.305 13.305 0 0 0 6.262-4.18 86.37 86.37 0 0 0 12.65-22.754c2.428-6.61 5.588-12.947 8.183-19.5a55.331 55.331 0 0 0 3.565-14.607c.442-4.191.194-8.392.224-12.59.025-3.454-.036-6.9.18-10.366.153-2.44-.394-4.98-.6-7.479a33.52 33.52 0 0 1 1.035-13.015 54.187 54.187 0 0 1 4.984-11.231 123.59 123.59 0 0 1 15-19.731 90.836 90.836 0 0 0 8.337-10.372 38.45 38.45 0 0 0 6.5-22.552 16.756 16.756 0 0 0 -8.456-14.718c-9.579-5.858-19.694-7.732-30.551-4.165a71.01 71.01 0 0 0 -22.744 12.728c-4.272 3.477-8.173 7.37-12.432 10.858-5.8 4.75-11.7 9.36-18.53 12.591a113.25 113.25 0 0 1 -16.437 5.912 61.809 61.809 0 0 0 -13.623 5.818 31.936 31.936 0 0 0 -12.053 11.61c-.345.6-.358.592-1.143.608-.239 0-.253.2-.333.362a10.423 10.423 0 0 0 -1.22 4.6c-.013 1.106.414 2.689.035 3.221-1.216 1.708-.3 3.363-.076 4.8a39.877 39.877 0 0 0 1.293 5.428 70.123 70.123 0 0 0 5.188 13.031c2.052 3.785 4.039 7.6 4.631 11.891.171 1.242 1.669 2.661.071 3.989 0 0 .111.124.159.2a8.5 8.5 0 0 1 1.343 4.3c.062 1.448.58 2.8.643 4.235.1 2.311.957 4.558.461 6.931a16.642 16.642 0 0 0 -.175 3.343c0 2.485-.846 4.852-.977 7.343-.049.933-.864 2.119-1.313 3.188-1.61 3.83-4.465 6.747-6.97 9.943-2.356 3.006-5.005 5.952-5.253 10.074-.1 1.662-.594 3.417.264 4.977 2.307 4.193 3.521 8.947 6.687 12.707 2.464 2.926 4.118 6.471 7.121 9.013 2.935 2.487 5.738 5.163 9.13 7a20.384 20.384 0 0 0 5.307 2.255 61.518 61.518 0 0 0 14.202 1.344zm55.177-46.443c-1.367 4.672-4.082 8.633-5.448 13.168 1.723-1.213 6.161-11.647 5.452-13.168zm-53.8-118.225a47.242 47.242 0 0 0 12.352-8.75c-3.9 2.926-7.787 5.857-11.945 8.409a3.424 3.424 0 0 0 -.404.341zm-44.906 24.314c2.278-2.456 4.656-4.815 7.071-7.138a22.813 22.813 0 0 0 -7.068 7.138zm-4.049 103.753c.546-1.536.9-3.12 1.359-4.678a8.352 8.352 0 0 0 -1.355 4.678zm2.828-100.567c-.091-.342-.266-.525-.587-.463a1.007 1.007 0 0 0 -.894 1.018c-.018.313.167.374.427.327.54-.095.789-.513 1.058-.882z" transform="matrix(.8660254 .5 -.5 .8660254 700.189484 -2283.518735)"/>
      <path d="m1917.559 2163.957c-.055-.337 0-.637-.339-.807-.059.52-.478 1.015.21 1.47.4.265.024.694-.079 1.014-.92 2.875-1.816 5.762-2.706 8.643-.846 2.742-1.856 5.445-2.491 8.254a28.458 28.458 0 0 1 -1.52 4.007 5.035 5.035 0 0 0 -.438 1.856c0 1.35-.095 1.386-1.343.675-.1-.059-.261-.022-.43-.034 0 .15-.046.3.007.389a3.708 3.708 0 0 1 -.307 4.179 7.7 7.7 0 0 0 -1.445 2.793 7.812 7.812 0 0 1 -2.862 4.061c-.12.1-.394.054-.406.285-.074 1.37-1.177 2.026-2.009 2.841-.793.779-1.771 1.348-2.517 2.2a16.462 16.462 0 0 1 -4.461 3.651 23.1 23.1 0 0 1 -2.527 1.657c-3.322 1.3-6.579 2.76-9.943 3.974-5.685 2.05-11.282 1.449-16.923.08a24.939 24.939 0 0 1 -9.062-4.33 18.932 18.932 0 0 1 -2.759-2.693 29.075 29.075 0 0 1 -6.761-12.683 11.954 11.954 0 0 1 1.262-8.826c.4-.727.715-1.68 2.079-1.515.594.072 1.184-1.033 1.644-1.734a82.84 82.84 0 0 0 8.039-15.76 75.018 75.018 0 0 0 4.961-17.963 35.9 35.9 0 0 0 -1.17-13.272 26.933 26.933 0 0 0 -4.807-9.3c-1.566-2.139-2.967-4.4-4.514-6.553-.548-.764.144-1.251.306-2.233-.847 1.151-.986.919-1.346-.027a21.461 21.461 0 0 0 -1.543-2.748 13.007 13.007 0 0 1 -1.775-6.311c-.008-.836-.445-1.536-.333-2.328a21.093 21.093 0 0 1 .495-2.984c.5-1.7.812-3.489 2.472-4.643.459-.318.186-1.307.708-1.867 2.231-2.395 4.331-4.948 7.12-6.724a136.469 136.469 0 0 1 20.871-10.858 43 43 0 0 0 13.908-8.7c5.88-5.774 12.066-11.208 18.43-16.437 6.032-4.958 12.5-9.212 19.91-11.873a35.44 35.44 0 0 1 9.6-2.008c4.708-.325 8.233 1.817 10.968 5.377 5.252 6.835 6.486 14.527 4.465 22.8a61.989 61.989 0 0 1 -6.183 15.893c-1.325 2.343-2.587 4.716-4.773 6.5-1.043.85-1.6 2.287-2.4 3.442-2.74 3.946-6.187 7.332-8.915 11.3-1.214 1.769-2.241 3.633-3.386 5.433-2.5 3.928-4.205 8.265-6.083 12.492-1.648 3.709-2.244 7.764-2.839 11.781q-.959 6.493-2.053 12.966a39.628 39.628 0 0 1 -1.609 7.4c-.615 1.622-.638 3.35-1.375 4.921-.422.899.032 2.135-1.023 2.877zm-58.71 8.338c.395-.149.492-.544.628-.859a69.688 69.688 0 0 0 3.559-9.116c.507-1.85 1.4-3.611 1.366-5.595-.894 3.507-2.453 6.778-3.561 10.205-.588 1.82-1.686 3.455-1.963 5.39-1.582 2.086-2.358 4.593-3.637 6.836 1.354-2.209 2.943-4.297 3.608-6.861zm1.421-49.589c.024-.177-.016-.432.085-.514.183-.149.276.078.4.211.343.377.182.946.652 1.323a6.146 6.146 0 0 1 1.9 2.674c.369.941 1.375 1.625 2.061 2.455.153.185.345.5.147.761-.367.487-.072.647.332.761a1.426 1.426 0 0 1 .933.954 18.645 18.645 0 0 1 1.609 4.784 10.579 10.579 0 0 0 .71 3.259 13.386 13.386 0 0 1 1.083 6.922c-.1 2.054-.494 4.16-.4 6.217.082 1.778-.812 3.228-1.062 4.883-.3 2-1.691 3.754-1.966 5.839-.168 1.279-1.52 2.251-1.508 3.265.027 2.342-2.048 3.6-2.415 5.717a4.824 4.824 0 0 1 -.977 2.318c-1.2 1.312-1.552 3.128-2.795 4.436-1.566 1.646-2.379 3.851-4.049 5.485a32.545 32.545 0 0 0 -2.665 3.379c-.794 1.022-.723 2.607-.986 3.958-.381 1.957.741 3.48 1.248 5.2a23.006 23.006 0 0 0 6.687 10.239c5.768 5.349 12.676 7.107 20.358 4.308.78-.284 1.559-.57 2.345-.835a37.342 37.342 0 0 0 12.3-7.25c4.843-4.111 7.136-9.844 9.82-15.271.938-1.9 1.3-4.224 2.012-6.332a44.834 44.834 0 0 0 1.342-4.365c.337-1.493.795-2.944 1.242-4.4s1.073-2.856 1.427-4.329c.315-1.309.958-2.479 1.23-3.836.363-1.813.955-3.621 1.447-5.432a137.2 137.2 0 0 0 3.9-19.815c.442-3.716.764-7.467 1.534-11.12 2.486-11.807 7.923-22.239 15.412-31.614 3.347-4.19 6.9-8.219 10.4-12.282 5.018-5.816 7.74-12.74 9.792-20a20.772 20.772 0 0 0 -.6-13.336c-.944-2.483-2.353-4.557-5.324-5.047-2.765-.457-5.466.2-8.081.683a20.16 20.16 0 0 0 -4.81 1.782c-3.744 1.812-7.542 3.522-10.8 6.159-.775.627-1.74.712-2.515 1.338-.992.8-1.685 1.884-2.767 2.6-.62.413-1.365.453-1.937.982-3.632 3.354-7.737 6.176-11.015 9.938-1.138 1.306-2.543 2.376-3.783 3.6a44.911 44.911 0 0 1 -16.172 10.257 93.991 93.991 0 0 0 -20.991 10.932c-2.5 1.721-5.172 3.343-6.962 5.959-1.038 1.518-2.373 3.064-2.535 4.8-.24 2.572-.5 5.257.374 7.818.211.618-.166 1.479-.034 1.69.507.811.812 1.729 1.361 2.506 1.173 1.687 2.807 3.125 3.006 5.386zm51.477 46.092a49.032 49.032 0 0 0 -3.175 9.015c-.866 3.138-2.035 6.167-3.049 9.247-.959 2.912-2.344 5.684-3.541 8.518 5.124-8.265 7.035-17.663 9.765-26.778zm2.116-112.407a85.153 85.153 0 0 1 19.386-11.866c-4.626.613-17.449 9.09-19.386 11.866zm-53.467 35.916c-3.6 2.439-6.81 5.236-8.365 9.494a57.68 57.68 0 0 1 8.369-9.494zm-11.612 95.119c-1.533 1.523-2.232 6.245-1.225 7.217.287-2.391.295-4.872 1.226-7.217zm60.164-126.7-.3-.317c-2.617 2.391-5.452 4.539-7.724 7.315zm-17.264 15a31.938 31.938 0 0 0 7.675-6.732c-2.548 2.258-5.054 4.563-7.675 6.735z" transform="matrix(.8660254 .5 -.5 .8660254 694.742201 -2307.197764)"/>
      <path d="m1939.166 2115.033a2.057 2.057 0 0 1 -.005 2.17c-.809 1.973-2.461 3.524-2.773 5.726a6.215 6.215 0 0 1 -1.094 2.042c-.952 1.683-1.135 3.641-1.99 5.281-.812 1.555-1.161 3.259-1.989 4.78-.439.808-.284 1.813-.857 2.6a24.838 24.838 0 0 0 -1.452 4.443c-.278 1.591-.6 3.175-.923 4.758-.056.273-.177.552-.548.493s-.567.114-.42.453c.549 1.271-.107 2.409-.595 3.407-1.419 2.9-2.653 5.879-3.9 8.848-.247.588-1.394.429-.985 1.6.207.592-.46 1.619-.921 2.384-.45.747-.751 1.581-1.158 2.356-3 5.711-5.749 11.536-8.358 17.435-1.447 3.272-3.174 6.419-4.7 9.659a18.37 18.37 0 0 0 -.9 2.613 3.748 3.748 0 0 1 -1.57 2.463.592.592 0 0 0 -.355.364c-1.2 3.783-4.429 5.761-7.307 7.978a36.192 36.192 0 0 1 -6.913 3.62c-1.447.678-2.778 1.757-4.462 2a42.188 42.188 0 0 1 -5.082.579 7.523 7.523 0 0 1 -4.573-1.31 1.446 1.446 0 0 1 -.516-1.938 9.827 9.827 0 0 1 3.765-4.842 5.585 5.585 0 0 0 1.9-1.587c.33-.529.888.136 1.5-.466a28.659 28.659 0 0 0 4.9-7.322 125.872 125.872 0 0 0 7.079-16.825 41.246 41.246 0 0 0 1.762-7.667c.257-1.641.429-3.285.539-4.94.051-.767.359-1.4 1.3-.93.562.278.735-.13 1-.419a.41.41 0 0 0 -.031-.614c-.329-.314-.615.013-.872.139-1.054.513-1.4.207-1.346-.946a31.017 31.017 0 0 0 -.6-9.482 20.722 20.722 0 0 0 -1.74-4.463c-2.2-4.127-5.036-7.847-7.546-11.776-1.837-2.876-3.726-5.752-4.111-9.262-.09-.818-.739-1.813.391-2.477a.293.293 0 0 0 .113-.227c-.219-3.211-.12-3.292 2.063-5.542a16 16 0 0 1 4.9-3.286c6.475-2.977 11.932-7.309 17.273-11.945 6.5-5.644 12.426-11.941 19.181-17.266a75.489 75.489 0 0 1 24.851-12.588c4.744-1.457 8.258 2.083 7.223 7a48.282 48.282 0 0 1 -5.372 13.891c-2.841 5.023-6.1 9.783-9.249 14.6a35.577 35.577 0 0 1 -2.652 3.979c-.531.632-.941 1.188-1.875.459zm-49.392 77.541c.392-.028.505-.346.649-.629 1.823-3.577 3.174-7.361 4.829-11.01.794-1.751.523-3.852 1.856-5.41a.384.384 0 0 0 -.163-.666c-.417-.18-.642.1-.688.439a18.875 18.875 0 0 1 -1.258 3.736 84.925 84.925 0 0 1 -3.633 9.485 14.2 14.2 0 0 0 -1.559 4.084 18.239 18.239 0 0 0 -2.556 4.9c.788-1.671 2.298-2.97 2.524-4.93zm35.892-96.009c-1.63.729-2.436 2.306-3.606 3.509-1.536.893-2.386 2.5-3.753 3.58-2.358 1.86-4.778 3.66-6.983 5.69a62.281 62.281 0 0 1 -15.19 10.335c-2.075 1-4.5 1.217-6.268 2.952-1.084 1.062-2.4 1.919-2.5 3.581a13 13 0 0 0 1.427 7.054c2.193 4.091 5.146 7.667 7.728 11.495 2.683 3.977 5.081 8.025 5.691 12.979a77.487 77.487 0 0 1 -.046 14.14c-.057.953-.7 1.862-.737 2.966-.049 1.541-.064 3.254-1.043 4.517-1.766 2.28-2.352 5.061-3.508 7.591-.378.829-.146 2.052-.875 2.687a7.423 7.423 0 0 0 -1.7 3.029 3.77 3.77 0 0 1 -.753 1.151 18.416 18.416 0 0 0 -2.45 3.625 28.216 28.216 0 0 1 -5.066 6.265c-.583.531-1.5.466-1.855 1.293a5.552 5.552 0 0 1 -1.668 2.007 4.447 4.447 0 0 0 -1.315 2.233 1.64 1.64 0 0 0 1.165-.184c2.094-.768 3.886-2.12 5.907-3.04a22.861 22.861 0 0 0 8.91-7.084 44.205 44.205 0 0 0 4.246-7.6c2.515-5.18 5.071-10.344 7.428-15.595 1.321-2.942 2.7-5.854 4.158-8.722 2.428-4.765 4.593-9.652 6.7-14.559a66.892 66.892 0 0 0 4-12.178 70.725 70.725 0 0 1 3.551-10.625c2.591-6.629 5.226-13.23 9.5-19.028 3.838-5.208 7.724-10.382 11.192-15.855a42.479 42.479 0 0 0 5.937-13.062c.118-.509.5-1.178.063-1.553-.367-.317-.966.1-1.43.283a105.678 105.678 0 0 0 -14.072 6.837c-.818.474-1.545 1.543-2.8 1.021-.177-.074-.545.174-.439.386.38.75-.356.742-.638.927q-2.673 1.766-5.278 3.626c-1.35.968-2.296 2.353-3.63 3.325zm-26.347 101.857a44.772 44.772 0 0 0 2.947-4.718c1.8-3.922 3.881-7.715 5.592-11.687a188.186 188.186 0 0 1 8.372-17.4.842.842 0 0 0 -.143-1.219c-6.252 11.454-10.696 23.632-16.767 35.024zm25.981-107.97a87.668 87.668 0 0 1 11.326-7.277c4.038-2.115 8.122-4.126 12.264-6-8.414 3.434-16.729 7.055-23.59 13.277zm-11.1 10.608-.253-.336-11.54 10 .246.286zm-24.461 17.449c-2.887.541-5.848 3.26-5.547 5.1a16.357 16.357 0 0 1 5.543-5.1zm26.511 44.4.417.218c.445-1.18 1.708-2.02 1.127-3.632z" transform="matrix(.8660254 .5 -.5 .8660254 690.951159 -2328.673487)"/>
      <path d="m1971.376 2117.589a8.768 8.768 0 0 1 -3.606 3.509c1.171-1.198 1.977-2.779 3.606-3.509z" transform="matrix(.8660254 .5 -.5 .8660254 661.876638 -2369.734939)"/>
    </g>
    <path d="m1885.155 669.44a28.206 28.206 0 0 0 -2.636-4.58c-.874-.874-9.857-.624-9.857-.624a36.554 36.554 0 0 0 5.365 2.881c1.372.364 2.266 3.719 2.266 3.719z" fill="#e23c30" transform="translate(-690.717 -162.033)"/>
    <path d="m0 0h118.437v39.302h-118.437z" fill="#281e78" transform="matrix(.99834182 .05756403 -.05756403 .99834182 1139.239 461.586)"/>
    <path d="m2023.119 666.039s1.062-3.606 2.57-3.738 3.926-.019 5.284 0 1.359-2.094 1.51-3.151 1.66-1.51 1.66 0 .3 3.925-1.057 5.132-3.6.3-4.44.755-1.062 1.924-1.266 3.2z" fill="#e23c30" transform="translate(-788.379 -158.125)"/>
    <path d="m1900.08 749.786 7.209-27.707s-9.874-32.177-12.068-38.291-1.827-5.706-1.827-5.706h5.2s5.469 14.159 8.133 19.645 8.173 17.073 8.173 17.073l7.963.65s7.055-14.292 9.877-20.719 6.534-17.217 6.534-17.217l4.075 2.038s-1.8 12.155-3.837 18.739-8.636 29.192-8.636 29.192-2.524 10.751-3.859 21.056c-.693 5.342-1.122 15.415-1.122 15.415z" fill="#ffb53f" transform="translate(-704.158 -170.678)"/>
    <path d="m1980.1 1153.849s.494 1.387-.284 4.282l-.778 2.893 8.925 2.177-.921-11.824z" fill="#e23c30" transform="translate(-759.766 -478.264)"/>
    <path d="m1826.1 999.937a73.946 73.946 0 0 1 -1.386 7.6l-.779 2.894 8.925 2.176.958-10.378z" fill="#e23c30" transform="translate(-659.087 -379.963)"/>
    <path d="m1884.825 872.5 7.14 83.893-9.326 1.165-17.482-80.481-19.651-12.635c-1.56 7.954-7.985 38.72-7.985 38.72l-7.421-3.962s4.322-51.92 4.5-53.373c.76-6.057 30.166 15.254 30.166 15.254z" fill="#112eff" transform="translate(-663.091 -279.225)"/>
    <path d="m1805.372 1023.65v4.509h-23.546s-1.378-1.377 2.472-3.235 13.194-5.729 13.194-5.729z" fill="#00261e" transform="translate(-631.598 -392.463)"/>
    <path d="m1960.782 1174.375v4.5h-24.305s-1.66-1.826 2.189-3.684 13.194-5.73 13.194-5.73z" fill="#00261e" transform="translate(-731.908 -490)"/>
    <path d="m1945.682 775.142-.317 3.591 1.035.571s-1.444 3.024-.678 3.024 1.231-.021 1.231-.021.107 1.233.175 2.581a1.389 1.389 0 0 0 1.857 1.231c2.389-.844 4.533-2.009 5.652-3.959 2.141-3.729 3.8-7.157 3.8-7.157z" fill="#e23c30" transform="translate(-737.909 -233.957)"/>
    <path d="m1934.66 768.854a13.554 13.554 0 0 1 2.947-4.061c1.832-1.593 4.141-2.15 7.168-1.513a8.977 8.977 0 0 1 4.522 2.254l-2.654 5.422-16.2-2.261s-1.514-.955 1.114-.8 11.866 1.52 11.866 1.52z" fill="#000026" transform="translate(-727.939 -226.178)"/>
    <path d="m0 0h42.024v53.175h-42.024z" fill="#ffe22b" transform="translate(1147.926 635.697)"/>
    <path d="m2315.7 1088.722s.952 2.083 2.091 4.694-5.608 5.006-6.695 5.876 4.786.87 8.922 0 3.047-5.223 2.176-7.4-1.93-5.816-1.93-5.816z" fill="#ff4f3f" transform="translate(-975.221 -435.877)"/>
    <path d="m2174.977 825.721h-3.984l-13.616-25.064s-87.345-169.049-89.225-172.98-.715-6.5 1.741-1.284 105.084 199.328 105.084 199.328z" fill="#4a9cff" transform="translate(-817.006 -135.586)"/>
    <path d="m2257.559 821.263h-3.476l-13.617-25.063s-87.344-169.05-89.225-172.981-.715-6.5 1.74-1.284 104.578 199.328 104.578 199.328z" fill="#4a9cff" transform="translate(-870.94 -132.691)"/>
    <path d="m1930.006 936.906s9.3 5.9 12.133 7.823c0 0 4.538 2.132 6.883.746s1.686-.985 1.686-.985l.9 10.576-14.738 1.068h-2.687z" fill="#02c" transform="translate(-727.939 -339.049)"/>
    <path d="m2376.318 1091.363s2.4 4.321 2.663 5.892-4.482 2.882-5.909 3.274-.771 1.572 3.813.786 5.124-1.169 7.079-1.437-3.252-11.064-3.252-11.064z" fill="#ff4f3f" transform="translate(-1015.101 -437.652)"/>
    <path d="m2117.465 728.358h30.888l1.041 1.921h-29.923z" fill="#4a9cff" transform="translate(-849.62 -203.678)"/>
    <path d="m2152.779 792.167h30.887l1.042 1.921h-29.924z" fill="#4a9cff" transform="translate(-872.542 -245.098)"/>
    <path d="m2184.489 850.367h30.887l1.042 1.921h-29.924z" fill="#4a9cff" transform="translate(-893.126 -282.875)"/>
    <path d="m2217.513 917.864h30.887l1.042 1.92h-29.924z" fill="#4a9cff" transform="translate(-914.562 -326.687)"/>
    <path d="m2253.3 985.256h30.887l1.042 1.921h-29.929z" fill="#4a9cff" transform="translate(-937.79 -370.432)"/>
    <path d="m2286.721 1054h30.888l1.042 1.92h-29.924z" fill="#4a9cff" transform="translate(-959.486 -415.057)"/>
    <path d="m2320.167 1119.719h30.886l1.043 1.92h-29.924z" fill="#4a9cff" transform="translate(-981.196 -457.713)"/>
    <path d="m2091.544 675.554h30.888l1.041 1.92h-29.923z" fill="#4a9cff" transform="translate(-832.794 -169.402)"/>
    <circle cx=".565" cy=".565" fill="#00040a" r=".565" transform="translate(1209.745 544.777)"/>
    <circle cx=".497" cy=".497" fill="#00040a" r=".497" transform="translate(1317 520.934)"/>
    <path d="m2168.933 654.732s-1.089-2.458-1.536-3.3 1.536-2.443 1.536-2.443l-1.439-2.764s.778-.393 1.209 0a6.527 6.527 0 0 1 1.87 2.825c.4 1.39-.224 1.748 0 2.63a5.009 5.009 0 0 0 .876 1.675z" fill="#ff4f3f" transform="translate(-881.989 -150.25)"/>
    <path d="m2067.367 717.515s-2.073-.685-2.779-.862-.267-2.831-.355-4.777-.991-3.343-2.044-3.175-.433 1.494-.611 3.086-.019 5.478-.022 6.719 3.619 2.125 3.619 2.125z" fill="#ff4f3f" transform="translate(-813.289 -190.908)"/>
    <path d="m2207.434 688.917s-11.044-.325-16.768-1.9-16.974-21.615-16.974-21.615l-2.454 1.431s9.407 18.907 12.065 22.745 17.228 11.2 17.228 11.2z" fill="#6b0684" transform="translate(-884.525 -162.812)"/>
    <path d="m2259.882 708.449s.47-4.231-4.546-4.545-4.7 5.329-4.7 5.329a21.054 21.054 0 0 0 -1.725 2.821l1.881.156.627 2.352h5.643l2.832-.941z" fill="#ff4f3f" transform="translate(-934.941 -187.797)"/>
    <path d="m2250.625 879.591a163.156 163.156 0 0 0 5.2 24.748 242.489 242.489 0 0 0 12.28 31.419c6.426 13.594 8.621 17.114 8.621 17.114l6.189-1.467s-3.315-10.527-7.324-23.6a264.9 264.9 0 0 1 -6.5-27.637 50.98 50.98 0 0 1 -1.2-9.392s22.458 47.458 25.425 53.142 3.954 7.168 3.954 7.168l4.7-1.73s-10.915-29.437-13.139-39.077-10.2-37.572-10.2-37.572z" fill="#00044a" transform="translate(-936.056 -297.373)"/>
    <path d="m2152.325 729.788a6.375 6.375 0 0 0 -7.794-4.664 78.331 78.331 0 0 0 -9.564 3.086c-11.9 4.822-22.754 8.89-28.932 8.438s-21.547-5.425-27.425-7.233l-5.876-1.808-.754 3.558s13.562 8.949 21.247 12.716 15.44 6.011 23.162 6.011c7.8 0 13.8-.036 13.8-.036s1.612 11.655 2.668 19.49 1.808 14.315 1.808 14.315l29.335-3.55s-8.087-35.627-11.675-50.323z" fill="#ac00ff" transform="translate(-820.096 -201.443)"/>
    <path d="m2268.92 713.77s2.113 12.451 3.286 18.4 1.694 10.131 5.084 9.606 7.575.672 6.339-4.6-7.356-18.175-7.748-20.191a7.256 7.256 0 0 0 -1.458-3.216z" fill="#ffdd78" transform="translate(-947.931 -194.209)"/>
    <path d="m2254.941 699.924-17.329-3.165s-1.187-1.108.792-.871 4.352.633 4.352.633.633-4.51 2.611-5.3a9.157 9.157 0 0 1 9.067 1.424c1.661 1.296.507 7.279.507 7.279z" fill="#005057" transform="translate(-927.38 -179.162)"/>
    <path d="m0 0h50.569v33.363h-50.569z" fill="#37eb77" transform="translate(1340.629 482.762)"/>
    <path d="m2345.2 438.706a14.121 14.121 0 0 1 -23.286 10.742c4.6-.842 12.111-3.514 14.938-10.742a16.885 16.885 0 0 0 -.1-12.939 14.122 14.122 0 0 1 8.448 12.939z" fill="#2382e2" transform="translate(-982.328 -7.264)"/>
    <path d="m2327.679 436.515c-2.826 7.227-10.337 9.9-14.937 10.742a14.124 14.124 0 0 1 14.833-23.681 16.883 16.883 0 0 1 .104 12.939z" fill="#00ebe5" transform="translate(-973.159 -5.072)"/>
    <circle cx=".497" cy=".497" fill="#00040a" r=".497" transform="translate(1317.497 520.934)"/>
    <path d="m0 .594 2.571-.594" fill="none" stroke="#440037" stroke-miterlimit="10" stroke-width=".996" transform="translate(1209.141 549.033)"/>
    <path d="m2104.384 198.531-2.759 39.138 34.024-4.782 1.839-45.427 39.325-19.542-2.023-4.23s-63.417 27.266-66.728 30.209a33.634 33.634 0 0 0 -3.324 3.353z" fill="#1c004a" transform="translate(-839.338 162.854)"/>
    <path d="m2311.411 406.82a56.031 56.031 0 0 0 1.56 5.964c2.772-.747 7.166-2.57 8.7-2.4s-.577 1.154-2.88 2.775-8.489 5.114-8.489 5.114l-2.613-9.706z" fill="#ba0048" transform="translate(-973.097 5.035)"/>
    <path d="m2313.961 599.835s.97 1.485 2.03 3.218c3.908-.745 8.073-2.917 9.613-3.033s-3.261 2.879-5.22 4.9-5.434 4.8-5.434 4.8l-5.374-6.708z" fill="#ba0048" transform="translate(-974.321 -120.253)"/>
    <path d="m2131.087 327.206s-.244 8.251 2.93 13.746 60.563 70.946 60.563 70.946l4.417-3.422s-22.493-31.753-26.645-39.078-18.6-32-18.6-32 13.982-12.237 17.268-15.08c6.932-6 11.911-10.681 12.684-8.881 1.237 2.882 9.5 29.135 9.5 29.135l4.013-2s-3.638-19.8-7.544-30.118-10.98-7.368-14.075-5.547c-4.833 2.843-18.331 9.675-22.583 12.182s-21.928 10.117-21.928 10.117z" fill="#ff5050" transform="translate(-858.459 72.378)"/>
    <path d="m2066.773 309.211 26.316 21.207-22.983 24.629-24.286-20.773z" fill="#c3fc33" transform="translate(-803.115 68.394)"/>
    <path d="m2090.14 268.519-4.942 9.448s-1.44 6.287-2.751 11.138-5.51 23.477-5.51 23.477h-5.506s3.561-17.7 5.113-29.108c2.239-16.453 8.81-24.983 8.81-24.983z" fill="#1c004a" transform="translate(-819.739 101.317)"/>
    <path d="m2072.746 412.566s-.929 2.545 2.567 3.853a4.321 4.321 0 0 0 4.251-1.108l-3.258-2.786z" fill="#ffb53f" transform="translate(-820.52 1.333)"/>
    <path d="m2154.448 213.148s1.487.72 2.121 1.033.316.789 0 .947c.475.317.264.739.131 1a.63.63 0 0 1 -.476.294s.226.218-.1.675a2.611 2.611 0 0 1 -1.116.718l-2.745-4.036z" fill="#ff449c" transform="translate(-872.209 130.75)"/>
    <path d="m2134.4 211.275a6.181 6.181 0 0 1 5.155 2.306c1.983 2.6 1.286 5.027 1.085 9.631-.105 2.439-1.378 2.051-3.465 1.237s-5.442-2.187-7.567-4.629-.952-5.833 1.038-7.325z" fill="#ffb53f" transform="translate(-856.77 131.972)"/>
    <path d="m2130 222.487s-.364 3.706-.5 4.67-.7 1.858-1.118 1.97a.761.761 0 0 1 -.9-.754c-.809.475-1.344.47-1.538-.089a1.977 1.977 0 0 1 .2-1.308 3.032 3.032 0 0 1 -1.733 1.539c-1.369.558-.478-1.814-.478-1.814z" fill="#ff449c" transform="translate(-853.633 124.688)"/>
    <path d="m2310.133 157.943s2.815-1.9 4.114-2.682 6.107-.26 8.056 0 4.547.841 2.339 1.135a24.352 24.352 0 0 1 -4.913 0s4.133.554 5.042.684 1.559.947-.519.863-4.524-.473-4.524-.473 4.653.779 5.3 1.039-.65.909-1.56.909-7.775.245-7.775.245 1.346.736 4.4 2.152c1.23.57-1.1.863-2.789.733s-5.152-.376-5.152-.376z" fill="#ffb53f" transform="translate(-974.682 168.592)"/>
    <path d="m2125.644 205.035-19.594 10s-1.852.258 1.06-1.618l4.368-2.814a8.518 8.518 0 0 1 -.77-5.913c.8-3.287 6.807-6.74 10.513-4.416s4.423 4.761 4.423 4.761z" fill="#980cff" transform="translate(-841.834 139.597)"/>
    <path d="m2156.085 222.487s2.38 2.512 1.486 3.188a2.145 2.145 0 0 1 -1.486.578" fill="none" stroke="#a15e00" stroke-miterlimit="10" stroke-width=".398" transform="translate(-874.689 124.688)"/>
    <circle cx=".269" cy=".269" fill="#883900" r=".269" transform="translate(1282.044 346.073)"/>
    <circle cx=".269" cy=".269" fill="#883900" r=".269" transform="translate(1278.923 348.029)"/>
    <path d="m2152.313 237.121a2.9 2.9 0 0 1 -1.805-.3 1.884 1.884 0 0 1 -.7-1.027" fill="none" stroke="#a15e00" stroke-miterlimit="10" stroke-width=".398" transform="translate(-870.612 116.049)"/>
    <path d="m1835.916 320.589a49.228 49.228 0 0 1 -49.185 49.276c-1.283 0-2.551-.046-3.812-.14 2.861-2.18 6.072-4.642 9.659-7.419 16.359-12.667 18.252-32.431 18.151-41.692z" fill="#ff7f00" transform="translate(-632.463 61.009)"/>
    <path d="m1708.467 362.35c-3.588 2.777-6.8 5.24-9.658 7.419a49.24 49.24 0 0 1 -45.468-49.045l73.278-.066c.101 9.261-1.792 29.025-18.152 41.692z" fill="#ff5050" transform="translate(-548.353 60.964)"/>
    <path d="m1549.847 433.48s-1.951 2.745 3.058 5.375 15.632 6.931 17.692 7.767c3.265 1.324 4.973-2.256 2-3.993s-10.6-5.823-10.6-5.823z" fill="#00261e" transform="translate(-480.932 -12.27)"/>
    <path d="m1585.56 237.186s-10.423 34.6-14.174 45.65-7.5 22.513-7.5 22.513l-13.341-4.169s7.3-29.987 9.172-39.382 5.42-32.136 5.42-32.136z" fill="#281e78" transform="translate(-481.624 120.031)"/>
    <path d="m1747.021 186.6s.153 11.021 0 14.542 3.505 7.375 6.567 7.681 20.461 3.075 23.217 3.381a2.923 2.923 0 0 1 2.821 2.714 11.987 11.987 0 0 1 -3.368.918s-3.215 1.072-.153 2.143c-2.4 1.43.02 1.876.02 1.876s-2.862 1.342-1.342 1.879l1.521.537s4.587-.671 5.661-1.029 3.016-4.517 2.658-7.469-1.878-4.2-4.74-4.92-19.77-5.1-21.469-5.546-1.342-7.067-1.163-9.3.537-9.661.537-9.661z" fill="#4f392f" transform="translate(-609.159 149.447)"/>
    <path d="m1701.449 137.269-2.183 7.549a22.12 22.12 0 0 1 -3.147 2.966c-.566.454-1.21.936-1.928 1.425-.416.286-.859.576-1.327.863-.657.405-1.509.9-2.53 1.467q-.822.456-1.781.961c-1.171.615-2.487 1.272-3.909 1.939-.531.252-1.076.5-1.635.751-5.453 2.435-12.174 4.828-18.547 5.554-11.492 1.314-11.329 0-11.329 0l-8.205-30.042s21.341-3.119 33.654-1.149a66.716 66.716 0 0 1 7.594 1.7c.569.157 1.129.325 1.673.493 1.349.412 2.634.845 3.836 1.282q.854.309 1.649.615c1.617.622 3.046 1.226 4.233 1.757.591.262 1.125.51 1.593.73 1.46.689 2.289 1.139 2.289 1.139z" fill="#352433" transform="translate(-542.892 185.436)"/>
    <path d="m1793.7 162.461s.447-10.494 5.8-10.94 6.7 6.252 5.582 8.931a5.244 5.244 0 0 1 -4.242 2.9l-2.629 1.648a.931.931 0 0 1 -1.412-.642l-.2-1.224-1.235.475a1.227 1.227 0 0 1 -1.667-1.145z" fill="#6d5548" transform="translate(-639.461 170.767)"/>
    <path d="m1603.162 134.034s-16.525.145-20.565 12.574-2.8 22.995 11.187 29.521 30.919 5.749 30.919 5.749l-22.839 7.3 4.506 11.969s17.556-3.574 23.305-5.438 10.119-3.884 10.891-10.72-2.968-9.167-6.7-11.187l-23.243-7.924.744-1.8z" fill="#0069f9" transform="translate(-501.127 182.103)"/>
    <path d="m0 0h32.724v22.848h-32.724z" fill="#c3fc33" transform="translate(1137.858 358.98)"/>
    <path d="m0 0h32.724v21.1h-32.724z" fill="#ff009d" transform="translate(1267.413 668.955)"/>
    <path d="m1703.855 185.748v8.133c-.193 3.32-.718 8.964.444 9.461s3.154.581 5.893 1.079 9.544 1.66 14.359 2.656 4.564 2.075 5.062 3.735 1.411 4.648 1.411 4.648a22.634 22.634 0 0 1 2.656 3.569c.58 1.245-.747 1.411-1.162.747a22.329 22.329 0 0 0 -1.494-1.909 37.224 37.224 0 0 1 .747 5.976c-.083 1.826-1.826 2.241-1.991-.083.083 1.909-1.982 1.66-1.982-.015 0 1.97-1.641 1.478-1.806 0a68.466 68.466 0 0 0 -2.133-8.536c-1.15-3.94-11.328-3.283-16.646-3.94s-15.2-1.313-15.038-4.925.754-20.6.754-20.6z" fill="#6d5548" transform="translate(-573.559 148.535)"/>
    <path d="m1639.177 290.625s-1.83-.727-1.94 4.93.832 17.079.97 19.3 4.242 3.438 4.464 0 .465-12.083.465-12.083z" fill="#00261e" transform="translate(-537.894 80.478)"/>
    <path d="m0 0h64.694v39.689h-64.694z" fill="#00ebe5" transform="translate(1053.529 434.501)"/>
    <circle cx=".366" cy=".366" fill="#1c0e1b" r=".366" transform="translate(1160.42 332.225)"/>
    <path d="m1725.469 163.8v17.731l4.207-1.405 3.413-1.338z" fill="#1c0e1b" transform="translate(-595.172 162.779)"/>
    <path d="m0 0h16.471v47.746h-16.471z" fill="#03c4bf" transform="translate(1000.966 476.268)"/>
    <g fill="#ff6d43">
      <circle cx=".971" cy=".971" r=".971" transform="translate(1205.993 557.457)"/>
      <circle cx=".971" cy=".971" r=".971" transform="translate(1211.897 557.457)"/>
      <circle cx=".971" cy=".971" r=".971" transform="translate(1207.198 563.109)"/>
      <circle cx=".971" cy=".971" r=".971" transform="translate(1205.021 568.441)"/>
      <circle cx=".971" cy=".971" r=".971" transform="translate(1202.62 574.357)"/>
      <circle cx=".971" cy=".971" r=".971" transform="translate(1198.472 577.172)"/>
      <circle cx=".971" cy=".971" r=".971" transform="translate(1199.444 570.385)"/>
      <circle cx=".971" cy=".971" r=".971" transform="translate(1201.648 564.08)"/>
      <circle cx=".971" cy=".971" r=".971" transform="translate(1203.591 552.352)"/>
      <circle cx=".971" cy=".971" r=".971" transform="translate(1205.021 546.893)"/>
      <circle cx=".971" cy=".971" r=".971" transform="translate(1200.415 537.965)"/>
      <circle cx=".971" cy=".971" r=".971" transform="translate(1205.021 538.938)"/>
      <circle cx=".971" cy=".971" r=".971" transform="translate(1198.472 531.496)"/>
      <circle cx=".971" cy=".971" r=".971" transform="translate(1203.591 533.93)"/>
      <circle cx=".971" cy=".971" r=".971" transform="translate(1201.096 528.279)"/>
      <circle cx=".971" cy=".971" r=".971" transform="translate(1196.972 526.336)"/>
      <circle cx=".971" cy=".971" r=".971" transform="translate(1197.943 522.777)"/>
      <circle cx=".971" cy=".971" r=".971" transform="translate(1194.439 519.369)"/>
      <circle cx=".971" cy=".971" r=".971" transform="translate(1195.029 514.297)"/>
      <circle cx=".971" cy=".971" r=".971" transform="translate(1191.224 511.895)"/>
      <circle cx=".971" cy=".971" r=".971" transform="translate(1192.196 508.467)"/>
      <circle cx=".971" cy=".971" r=".971" transform="translate(1217.329 557.457)"/>
      <circle cx=".971" cy=".971" r=".971" transform="translate(1222.763 557.457)"/>
      <circle cx=".971" cy=".971" r=".971" transform="translate(1221.357 563.109)"/>
      <circle cx=".971" cy=".971" r=".971" transform="translate(1220.386 569.412)"/>
      <circle cx=".971" cy=".971" r=".971" transform="translate(1219.557 576.201)"/>
      <circle cx=".971" cy=".971" r=".971" transform="translate(1219.272 582.217)"/>
      <circle cx=".971" cy=".971" r=".971" transform="translate(1219.272 588.609)"/>
      <circle cx=".971" cy=".971" r=".971" transform="translate(1216.143 584.799)"/>
      <circle cx=".971" cy=".971" r=".971" transform="translate(1216.143 578.145)"/>
      <circle cx=".971" cy=".971" r=".971" transform="translate(1216.143 571.356)"/>
      <circle cx=".971" cy=".971" r=".971" transform="translate(1217.115 565.053)"/>
      <circle cx=".971" cy=".971" r=".971" transform="translate(1213.021 562.137)"/>
      <circle cx=".971" cy=".971" r=".971" transform="translate(1210.925 568.441)"/>
      <circle cx=".971" cy=".971" r=".971" transform="translate(1212.05 574.357)"/>
      <circle cx=".971" cy=".971" r=".971" transform="translate(1210.741 580.086)"/>
      <circle cx=".971" cy=".971" r=".971" transform="translate(1204.563 581.059)"/>
      <circle cx=".971" cy=".971" r=".971" transform="translate(1207.198 574.357)"/>
      <circle cx=".971" cy=".971" r=".971" transform="translate(1224.943 551.873)"/>
      <circle cx=".971" cy=".971" r=".971" transform="translate(1219.557 551.873)"/>
      <circle cx=".971" cy=".971" r=".971" transform="translate(1214.2 551.873)"/>
      <circle cx=".971" cy=".971" r=".971" transform="translate(1218.3 546.893)"/>
      <circle cx=".971" cy=".971" r=".971" transform="translate(1224.296 546.6)"/>
      <circle cx=".971" cy=".971" r=".971" transform="translate(1228.197 541.998)"/>
      <circle cx=".971" cy=".971" r=".971" transform="translate(1225.914 537.965)"/>
      <circle cx=".971" cy=".971" r=".971" transform="translate(1230.14 535.297)"/>
      <circle cx=".971" cy=".971" r=".971" transform="translate(1224.296 534.9)"/>
      <circle cx=".971" cy=".971" r=".971" transform="translate(1228.197 531.496)"/>
      <circle cx=".971" cy=".971" r=".971" transform="translate(1231.979 528.75)"/>
      <circle cx=".971" cy=".971" r=".971" transform="translate(1231.008 522.777)"/>
      <circle cx=".971" cy=".971" r=".971" transform="translate(1234.74 520.34)"/>
      <circle cx=".971" cy=".971" r=".971" transform="translate(1231.979 517.211)"/>
      <circle cx=".971" cy=".971" r=".971" transform="translate(1235.712 515.27)"/>
      <circle cx=".971" cy=".971" r=".971" transform="translate(1233.922 511.299)"/>
      <circle cx=".971" cy=".971" r=".971" transform="translate(1236.683 508.467)"/>
      <circle cx=".971" cy=".971" r=".971" transform="translate(1227.226 527.309)"/>
      <circle cx=".971" cy=".971" r=".971" transform="translate(1221.792 541.998)"/>
    </g>
    <path d="m2237.871 795.991h10.329l-8.95 10.017z" fill="#9532ad" transform="translate(-927.777 -247.578)"/>
    <path d="m2147.381 273.059-1.15-.706-.981 4.664-3.21-3.371-.949 4.922-3.459-2.574-.881 4.167-3.727-2.592-1.572 4.283-3.252-2.852-2.474 4.255-3.343-2.005-2.1 2.581-2.452-2.037.168-.318 2.24 1.862 2.064-2.543 3.3 1.977 2.508-4.314 3.189 2.791 1.555-4.23 3.664 2.55.883-4.185 3.452 2.564.974-5.037 3.218 3.378.946-4.5 1.408.863z" fill="#9b65ff" transform="translate(-849.856 92.68)"/>
    <path d="m2145.822 281.058-.2-.115-1.226 4.391-2.995-3.2-1 4.629-3.381-2.323-.706 3.989-4.007-2.8-1.774 3.836-3.462-2.809-2.4 4.108-3.609-2.166-2.235 2.85-3.249-2.54.164-.314 3.025 2.365 2.208-2.819 3.571 2.141 2.431-4.154 3.427 2.781 1.761-3.8 3.9 2.728.7-3.989 3.4 2.337 1.031-4.772 3.024 3.235 1.177-4.223.438.244z" fill="#9b65ff" transform="translate(-848.395 87.083)"/>
    <path d="m2189.817 382.639-3.177-4.919 14.464-4.948z" fill="#e85280" transform="translate(-894.522 27.137)"/>
    <path d="m1806.652 150.632s2.486 4.84 4.185 4.84-.129-3.662-1.307-6.148-2.347-4.578-4.836-3.662-6.145 3.346-4.121 3.635 6.079 1.335 6.079 1.335z" fill="#ffdd50" transform="translate(-643.541 174.697)"/>
    <path d="m2311.469 493.551a13.456 13.456 0 0 0 3.664-.3" fill="none" transform="translate(-975.55 -51.07)"/>
    <path d="m2358.942 417.172a16.856 16.856 0 0 0 -2.834-4.646" fill="none" transform="translate(-1004.525 1.332)"/>
    <path d="m0 6.365v-6.365" fill="none" transform="translate(1381.506 358.113)"/>
    <path d="m0 6.805v-6.805" fill="none" transform="translate(1381.506 317.943)"/>
    <path d="m0 11.283v-11.283" fill="none" transform="translate(1017.437 524.014)"/>
    <path d="m0 5.862v-5.862" fill="none" transform="translate(1017.437 470.406)"/>
    <path d="m1797.759 181.64a8.369 8.369 0 0 1 -.174-1.453v-.964h.349v.964a7.749 7.749 0 0 0 .161 1.334z" fill="#352433" transform="translate(-641.982 152.771)"/>
    <path d="m1816.9 178.626a2.092 2.092 0 0 0 -.472-1.808" fill="none" stroke="#352433" stroke-miterlimit="10" stroke-width=".996" transform="translate(-654.218 154.332)"/>
    <path d="m0 0 2.392.382" fill="none" stroke="#1c0e1b" stroke-miterlimit="10" stroke-width=".996" transform="translate(1316.524 519.561)"/>
    <path d="m1802.678 161.549s.356-2.5 2.262-1.957c1.136.322 0 1.957 0 1.957" fill="none" stroke="#352433" stroke-miterlimit="10" stroke-width=".996" transform="translate(-645.289 165.565)"/>
    <circle cx="11.05" cy="11.05" fill="#ff009d" r="11.05" transform="translate(980.112 356.43)"/>
    <path d="m1639.93 138.037s22.073-2.308 32.071-.793 13.7 4.069 14.88 6.748-3.327 11.84-3.327 11.84l3.177-1.75a21.8 21.8 0 0 0 3.012-7.8c.842-4.659-1.683-7.114-4.545-8.243s-11.279-4.015-24.577-4a158.618 158.618 0 0 0 -23.393 1.7z" fill="#0069f9" transform="translate(-537.893 182.104)"/>
    <path d="m2143.8 212.194a23.743 23.743 0 0 1 2.84-1.9c.6-.237 2.322.639 1.34 1.327s-3.044 1.737-3.463 1.982-1.317-.971-.717-1.409z" fill="#ff449c" transform="translate(-866.582 132.625)"/>
    <path d="m1948.894 788.779s2.538-.611 3.355-.8 2.914-.96 2.914-.96l.208-2.785 1.371.316-.025 3.942s.158.895-1.347 2.667-4.534 2.455-5.22 2.113a2.937 2.937 0 0 1 -1.054-2.206 18.963 18.963 0 0 0 3.786-1.056c1.309-.554 1.7-1.989 0-1.649s-3.989.92-3.989.92z" fill="#5b2300" transform="translate(-740.2 -239.943)"/>
    <path d="m2242.178 827.307s.675 18.306.56 20.686 1.911 2.4 4.834 1.943z" fill="#a946c1" transform="translate(-930.573 -267.906)"/>
    <path d="m2316.054 802.935s7.118 23.525 7.8 25.352.055 2.286-3.045 2.662z" fill="#a946c1" transform="translate(-978.526 -252.086)"/>
    <path d="m1989.525 485.7a54.976 54.976 0 0 1 -1.543-12.526 31.71 31.71 0 0 1 2.916-12.557s2.574 9.811 1.545 15.988-2.918 9.095-2.918 9.095z" fill="#00ad92" transform="translate(-765.572 -29.886)"/>
    <path d="m1976.548 488.341a54.956 54.956 0 0 1 -6.276-10.95 31.7 31.7 0 0 1 -2.175-12.706s6.174 8.048 7.617 14.142.834 9.514.834 9.514z" fill="#178c75" transform="translate(-752.649 -32.525)"/>
    <path d="m1991.692 488.115a54.924 54.924 0 0 1 1.208-12.563 31.689 31.689 0 0 1 5.568-11.626s.387 10.136-1.957 15.943-4.819 8.246-4.819 8.246z" fill="#03876e" transform="translate(-767.97 -32.033)"/>
    <path d="m1992.125 491.755a54.954 54.954 0 0 1 5.442-11.387 31.7 31.7 0 0 1 9.217-9.011s-3.113 9.653-7.3 14.3-7.359 6.098-7.359 6.098z" fill="#00ad92" transform="translate(-768.261 -36.856)"/>
    <path d="m1962.515 511.239 21.419 2.4-2.915 16.033-17.778-1.025z" fill="#66c5ff" transform="translate(-749.041 -62.744)"/>
    <path d="m1438.274 516.927a54.97 54.97 0 0 1 -2.885-12.287 31.7 31.7 0 0 1 1.548-12.8s3.615 9.477 3.257 15.729-1.92 9.358-1.92 9.358z" fill="#00ad92" transform="translate(-406.787 -50.153)"/>
    <path d="m1423.46 521.524a54.966 54.966 0 0 1 -7.418-10.21 31.689 31.689 0 0 1 -3.53-12.4s7 7.336 9.1 13.239 1.848 9.371 1.848 9.371z" fill="#178c75" transform="translate(-392.029 -54.744)"/>
    <path d="m1442.469 518.32a54.994 54.994 0 0 1 -.153-12.62 31.7 31.7 0 0 1 4.285-12.158s1.475 10.035-.23 16.06-3.902 8.718-3.902 8.718z" fill="#03876e" transform="translate(-411.185 -51.257)"/>
    <path d="m1443.332 520.325a54.958 54.958 0 0 1 4.184-11.907 31.692 31.692 0 0 1 8.193-9.952s-2.055 9.933-5.722 15.008-6.655 6.851-6.655 6.851z" fill="#00ad92" transform="translate(-412.034 -54.453)"/>
    <path d="m1411.93 545.8 21.553.083-1.171 16.253-17.786.9z" fill="#66c5ff" transform="translate(-391.651 -85.18)"/>
    <path d="m12.778 0-12.778 1.268" fill="none" transform="translate(1009.413 665.127)"/>
    <path d="m7.863 0-7.863.8" fill="none" transform="translate(1009.098 677.041)"/>
    <path d="m4.321 0-4.321.44" fill="none" transform="translate(1030.348 675.24)"/>
    <path d="m0 0h49.16v47.746h-49.16z" fill="#37eb77" transform="translate(1017.437 476.268)"/>
  </g>
</svg>