<svg height="65.896" viewBox="0 0 67.87 65.896" width="67.87" xmlns="http://www.w3.org/2000/svg"><path d="m53.563.328a14.122 14.122 0 0 0 -14.106 14.106c0 .27.023.535.039.8l-6.131 1.435a9.84 9.84 0 0 0 -4.738 2.631l-26.455 26.456a1.366 1.366 0 1 0 1.928 1.932l26.459-26.452a7.114 7.114 0 0 1 3.425-1.9l5.927-1.387a13.961 13.961 0 0 0 2.835 5.534l-.045.045-7.087 1.657a1.366 1.366 0 1 0 .622 2.66l2.8-.655-8.15 8.152a1.366 1.366 0 1 0 1.932 1.932l11.562-11.563.025-.025 2.869-2.87a2.886 2.886 0 0 1 4.079 0 2.882 2.882 0 0 1 0 4.075l-2.853 2.857c-.027.025-.053.05-.077.077l-7.823 7.821a1.363 1.363 0 0 0 -.385.77 33.642 33.642 0 0 1 -9.584 19.1l-8.349 8.352a1.366 1.366 0 1 0 1.932 1.932l8.349-8.352a36.966 36.966 0 0 0 4.91-6.078.088.088 0 0 0 .012.014 5.386 5.386 0 0 0 3.838 1.589 5.4 5.4 0 0 0 3.84-1.59l6.766-6.763a5.435 5.435 0 0 0 0-7.682 1.413 1.413 0 0 0 -.312-.226l.311-.31a5.429 5.429 0 0 0 0-7.681c-.09-.089-.186-.169-.281-.251l1.64-1.64c.092-.092.176-.19.26-.287h.019a14.107 14.107 0 0 0 0-28.214zm-3.568 40.542a2.7 2.7 0 0 1 0 3.816l-6.766 6.764a2.761 2.761 0 0 1 -3.812 0 1.359 1.359 0 0 0 -.6-.343 36.294 36.294 0 0 0 2.033-4.389c.153.014.3.032.458.032a5.469 5.469 0 0 0 3.853-1.589l4.6-4.605a1.385 1.385 0 0 0 .234.314zm0-8.216a2.7 2.7 0 0 1 0 3.814l-6.761 6.761a2.664 2.664 0 0 1 -1.445.734 37.072 37.072 0 0 0 1.064-4.7l6.847-6.849a2.782 2.782 0 0 1 .295.24zm4.862-6.925a5.757 5.757 0 0 0 .073-.878 5.618 5.618 0 0 0 -9.586-3.968l-.655.655a11.273 11.273 0 0 1 -2.5-7.1 11.373 11.373 0 1 1 12.667 11.291z" transform="matrix(0 1 -1 0 68.198 -1.772)"/></svg>