<svg viewBox="0 0 68.97 53.4" xmlns="http://www.w3.org/2000/svg"><path d="m42.15 36.58c-5.59.8-12.12-.57-11.36 6.9a1.42 1.42 0 0 1 -2.83.29c-1-10 6-8.9 13.79-10a5.41 5.41 0 0 0 1.46-.42v-10.64h-4.52v6.29a1.43 1.43 0 0 1 -2.85 0v-6.29h-5.21v6.29a1.43 1.43 0 0 1 -2.85 0v-6.29h-5.21v6.29a1.43 1.43 0 0 1 -2.85 0v-6.29h-4.18v21.65c0 2.93 2.4 6.13 5.33 6.13h13.68s7.3 0 10.85-4.29c2.45-3 4.72-7.22 6.88-10.55a59.38 59.38 0 0 0 3.94-6.54c1.41-3.12-1-4.26-3-2.12-1.9 2-3.46 4.31-5.36 6.32a9.4 9.4 0 0 1 -5.71 3.27zm3.9-5.58c1.76-1.93 3.27-4.15 5.08-6 4.25-4.42 10.41-.8 7.67 5.25a62.15 62.15 0 0 1 -4.14 6.93c-2.24 3.43-4.54 7.72-7.07 10.8-3.18 3.86-7.94 5-13.05 5.38 0 .06-9.61 0-13.68 0-4.5 0-8.18-4.53-8.18-9v-21.65h-6.68v-17.01h-6v-5.7h69v5.7h-6.4v17h-16.55zm13.66-28.15h-50.83v17h50.84z"/></svg>