<?xml version="1.0" encoding="UTF-8"?>
<svg width="22px" height="27px" viewBox="0 0 22 27" version="1.1" xmlns="http://www.w3.org/2000/svg" xmlns:xlink="http://www.w3.org/1999/xlink">
    <defs></defs>
    <g stroke="none" stroke-width="1" fill="none" fill-rule="evenodd">
        <g transform="translate(-23.000000, -158.000000)" stroke-width="0.6" stroke="#FFFFFF" fill="#FFFFFF">
            <g>
                <path d="M33.9863046,162.999979 C34.8367478,163.004354 35.4990327,162.338095 35.493207,161.484283 C35.4874836,160.662628 34.8261186,160.005426 34,160.000032 C33.1558934,159.994638 32.4861477,160.670871 32.493302,161.521325 C32.5002519,162.348781 33.1533383,162.995603 33.9863046,162.999979 Z M32.499705,181 L35.4779485,181 C35.4779485,181.557219 35.518015,182.095198 35.468459,182.622259 C35.3948441,183.406581 34.6358813,184.050491 33.9244616,183.996877 C33.179685,183.940993 32.5386213,183.260764 32.5034433,182.460552 C32.4829308,181.995212 32.499705,181.52771 32.499705,181 Z M25.4932452,179 C25.9702865,178.331972 26.4089378,177.471543 26.8684999,176.857252 L27.7709148,175.367232 C28.7938528,173.251754 29.3346277,171.029336 29.3098898,168.650883 C29.2837261,166.131907 31.241036,164.134907 33.8846047,164.004908 C36.0747625,163.89714 38.164579,165.575453 38.5684758,167.930422 C38.710454,168.758839 38.6766005,169.616365 38.7510593,170.458064 C38.8993897,172.135772 39.4105057,173.706768 40.1345265,175.215416 L41.2872945,177.022174 C41.6817435,177.589345 42.0577266,178.364733 42.4932452,179 L25.4932452,179 Z M28.4924667,180.244907 C27.0713111,180.247868 25.649966,180.267021 24.2293789,180.243889 C23.9821761,180.239911 23.6007125,180.117775 23.5276602,179.948728 C23.4384057,179.742023 23.5346717,179.379224 23.6799235,179.169373 C24.3421314,178.212551 25.0634633,177.295052 25.7381782,176.346373 C27.3313051,174.106385 28.1218993,171.610376 28.1390491,168.8886 C28.1556303,166.250562 29.4119209,164.420932 31.8455753,163.329946 C31.8883075,163.310793 31.9317978,163.293213 31.973393,163.272116 C31.985142,163.266102 31.9916798,163.25028 32.0227578,163.211049 C31.5399117,162.569559 31.2375644,161.858488 31.4271592,161.030649 C31.5660627,160.423949 31.8842333,159.909499 32.3844186,159.53097 C33.3785359,158.778633 34.871133,158.830078 35.7320317,159.65801 C36.5534197,160.448284 37.0679123,161.695826 35.9910783,163.161084 C36.5339012,163.485206 37.1184141,163.758531 37.6123459,164.142981 C39.1442643,165.335284 39.943765,166.906394 39.9491658,168.830031 C39.95703,171.626568 40.7883667,174.161162 42.4283001,176.448893 C43.0707053,177.344647 43.7211642,178.23559 44.3300279,179.15281 C44.4638149,179.354427 44.5486162,179.715097 44.4511184,179.898949 C44.3545681,180.080764 44.0000135,180.222516 43.756885,180.225291 C41.5939314,180.249904 39.4305989,180.239541 37.2672664,180.239541 L36.6774475,180.239541 C36.6774475,180.606595 36.6782055,180.953757 36.6773527,181.300733 C36.6739417,182.790419 35.4427599,184.016124 33.966744,183.99984 C32.4801162,183.983462 31.2896769,182.794582 31.2864554,181.322662 C31.2856026,180.984568 31.2862659,180.646474 31.2862659,180.24463 C30.3175416,180.24463 29.4050042,180.242964 28.4924667,180.244907 Z"></path>
            </g>
        </g>
    </g>
</svg>
