<svg viewBox="0 0 388.574 230" xmlns="http://www.w3.org/2000/svg"><path d="m311.907 153.334-25.4 25.4-.136-.136v.272l-.018.019h.018v25.265h25.556l-25.265-25.265h25.245z"/><path d="m194.219 178.695h-25.236l25.556 25.555v-.1h25.333l-.291.29v25.556l25.555-25.556v-25.555l-25.154 25.154-25.154-25.154h24.752l25.555-25.556h-25.555z"/><path d="m270.697 230-25.555-25.556v25.556z"/><path d="m286.352 230 25.555-25.556h-25.555z"/><path d="m363 127.778v25.556h25.555z"/><path d="m363.018 153.334h-25.555l-25.556-25.556v25.556l25.556 25.555v25.555h25.555l-25.555-25.556z"/><path d="m363.018 204.348v25.555l25.459-25.459h.1v-25.559l-25.459 25.459z"/><path d="m337.463 229.711v-25.555h-25.556z"/><path d="m337.463 102.222h25.555l-25.555-25.555h25.537v-25.556l-25.555 25.555h-25.537l25.556 25.556-25.556 25.556h25.556z"/><path d="m363.018 127.778 25.552-25.555h-25.556z"/><path d="m363.018 76.667 25.556 25.555v-25.555z"/><path d="m245.142 38.333-25.554 25.556h51.111z"/><path d="m245.141 178.885v25.555l25.555-25.555z"/><path d="m311.906 97.919h-36.141l14.929 14.929-14.929 14.929h36.141l-14.929-14.929z"/><path d="m270.697 153.334v-25.556l-25.555 25.556z"/><path d="m270.697 102.222v-25.555l-25.556 25.555v25.556z"/><path d="m219.588 76.667v25.555h25.556z"/><path d="m270.697 127.778v25.555h25.556z"/><path d="m388.556 25.749v-25.556h-25.556l25.362 25.362h-25.343l-25.556-25.556v25.547h-25.532v-25.546h-25.56l25.546 25.547 25.546 25.546-.019.019h25.555l25.459-25.459zm-51.083 25.334v-25.527h25.527z"/><path d="m279.119 51.111v-25.556l-25.555-25.555v25.556z"/><path d="m303.728 38.343-.009-.009v.019l-25.537 25.537 25.555 25.556v-25.556h25.537l-25.537-25.537v-.019z"/><path d="m51.111.001 25.555 25.556v-25.556z"/><path d="m92.321 0 25.556 25.555v-25.555z"/><path d="m76.666 25.56-25.555 25.555 25.555 25.556z"/><path d="m25.574 76.667v-51.092l18.052 18.052v-36.141l-18.07 18.071.009.009-25.546 25.546z"/><path d="m143.432 76.529v25.556l25.555-25.556z"/><path d="m51.111 76.667v25.556l25.555-25.556z"/><path d="m76.658 178.879.009.01v-.019l25.537-25.537h-51.093l25.537 25.537v.019z"/><path d="m76.666 106.525h36.141l-14.929-14.929 14.929-14.929h-36.141l14.93 14.929z"/><path d="m109.688 229.709h36.141l-18.07-18.071z"/><path d="m0 102.222h25.555v-25.556z"/><path d="m25.555 127.778-25.555-25.555v25.555z"/><path d="m117.877 51.112v25.556l22.455-22.455h23.509v-25.553l-22.455 22.455h-23.509l25.555-25.555h-51.111z"/><path d="m135.947 166.111 25.556-25.556h-51.111z"/><path d="m168.988.001h-25.556v25.556z"/><path d="m194.543 230v-25.556l-25.555 25.556z"/><path d="m220.098 127.777v-25.554l-25.555 25.556v25.556z"/><path d="m117.877 102.223v25.555l25.556-25.555v-25.556z"/><path d="m51.111 153.334h-25.537l25.555-25.556h25.518l18.07 18.071v-36.142l-18.061 18.061-25.545-25.546v25.555h-25.537v25.556h-.019l-25.555 25.556h25.477l-25.361 25.362-.1-.1v25.556h25.555l-25.355-25.359h25.362v-25.477z"/><path d="m0 .001v25.555l25.556-25.556z"/><path d="m168.988 102.222h-25.556l25.556 25.555v25.556l25.555-25.556h-25.555z"/><path d="m25.555 102.223 25.556 25.555v-25.555z"/><path d="m194.543 102.085v-25.556h-25.555z"/><path d="m111.077 187.568 16.683-16.684h-25.556v33.367h25.555z"/><path d="m76.666 204.154h-.175l-25.362-25.362v25.555h-25.556l25.556 25.555v-.193l25.361-25.362h.194l-.1-.1.078-.078 25.537 25.537v-25.556h-25.533z"/><path d="m176.321 54.212 18.07-18.071v-35.78l25.194 25.195-25.556 25.555h.513v25.419h25.556l-25.419-25.418h24.906v-25.362l25.555-25.555h-25.555v-.193h-25.555l.181.181-17.89 17.89z"/><path d="m143.432 178.886v25.556l25.555 25.556v-25.556z"/></svg>