<svg viewBox="0 0 21.341 13.387" xmlns="http://www.w3.org/2000/svg"><g fill="var(--icon-color, #000)"><path d="m5.02 0h-4.462a.558.558 0 0 0 -.558.558v4.462a.558.558 0 0 0 .558.558h4.462a.558.558 0 0 0 .558-.558v-4.462a.558.558 0 0 0 -.558-.558z"/><path d="m19.02 0h-4.462a.558.558 0 0 0 -.558.558v4.462a.558.558 0 0 0 .558.558h4.462a.558.558 0 0 0 .558-.558v-4.462a.558.558 0 0 0 -.558-.558z" transform="translate(-6.191)"/><path d="m19.02 0h-4.462a.558.558 0 0 0 -.558.558v4.462a.558.558 0 0 0 .558.558h4.462a.558.558 0 0 0 .558-.558v-4.462a.558.558 0 0 0 -.558-.558z" transform="translate(1.764)"/><path d="m5.02 14h-4.462a.558.558 0 0 0 -.558.558v4.462a.558.558 0 0 0 .558.558h4.462a.558.558 0 0 0 .558-.558v-4.462a.558.558 0 0 0 -.558-.558z" transform="translate(0 -6.191)"/><path d="m19.02 14h-4.462a.558.558 0 0 0 -.558.558v4.462a.558.558 0 0 0 .558.558h4.462a.558.558 0 0 0 .558-.558v-4.462a.558.558 0 0 0 -.558-.558z" transform="translate(-6.191 -6.191)"/><path d="m19.02 14h-4.462a.558.558 0 0 0 -.558.558v4.462a.558.558 0 0 0 .558.558h4.462a.558.558 0 0 0 .558-.558v-4.462a.558.558 0 0 0 -.558-.558z" transform="translate(1.764 -6.191)"/></g></svg>