<svg xmlns="http://www.w3.org/2000/svg" width="41" height="41" viewBox="0 0 41 41">
  <g id="Group_11949" data-name="Group 11949" transform="translate(-1958.5 1617)">
    <path id="Path_9452" data-name="Path 9452" d="M20,90A20,20,0,1,1,0,110,20,20,0,0,1,20,90Z" transform="translate(1959 -1706.5)" fill="#fff" stroke="#707070" stroke-width="1"/>
    <g id="Default" transform="translate(1967.632 -1608.555)">
      <g id="Cardstack_Logo" data-name="Cardstack Logo">
        <path id="Path_9434" data-name="Path 9434" d="M77.169,332.785l4.966-2.476-11.363-5.665-4.935,2.46Z" transform="translate(-65.801 -308.675)" fill="#00ebe5"/>
        <path id="Path_9435" data-name="Path 9435" d="M83.521,305.576l4.948-2.467-17.763-8.857-4.948,2.466Z" transform="translate(-65.739 -284.664)" fill="#00ebe5"/>
        <path id="Path_9436" data-name="Path 9436" d="M131.652,299.189l4.952-2.47-4.948-2.466-4.952,2.469Z" transform="translate(-113.888 -284.664)" fill="#00ebe5"/>
        <path id="Path_9437" data-name="Path 9437" d="M70.615,263.823l-4.951,2.468,11.367,5.668,4.952-2.47Z" transform="translate(-65.664 -260.624)" fill="#37eb77"/>
        <path id="Path_9438" data-name="Path 9438" d="M131.656,268.767l4.968-2.476-4.951-2.468L126.7,266.3Z" transform="translate(-113.888 -260.624)" fill="#37eb77"/>
        <path id="Path_9439" data-name="Path 9439" d="M101.112,248.583l-4.968,2.477,4.968,2.476,4.968-2.476Z" transform="translate(-89.745 -248.583)" fill="#37eb77"/>
      </g>
    </g>
  </g>
</svg>
