<svg viewBox="0 0 70 70" xmlns="http://www.w3.org/2000/svg"><g transform="translate(5351 -14652)"><rect fill="#281e78" height="70" rx="18" width="70" x="-5351" y="14652"/><path d="m-5329.282 14676.975a4.519 4.519 0 1 1 0-9.038h25.608v.065a1.5 1.5 0 1 1 0 2.886v.062h-25.608a1.507 1.507 0 1 0 0 3.013h25.608v.077a1.5 1.5 0 1 1 0 2.852v.084zm0 29.088a4.519 4.519 0 1 1 0-9.038h25.608v.065a1.5 1.5 0 1 1 0 2.886v.062h-25.608a1.507 1.507 0 1 0 0 3.013h25.608v.077a1.5 1.5 0 1 1 0 2.852v.084z" fill="#37eb77" stroke="#37eb77"/><path d="m-5326.326 14691.518v-.07a1.5 1.5 0 1 1 0-2.882v-.06h25.608a1.507 1.507 0 0 0 0-3.013h-25.608v-.063a1.5 1.5 0 1 1 0-2.878v-.072h25.608a4.519 4.519 0 1 1 0 9.038z" fill="#00ebe5" stroke="#00ebe5"/></g></svg>