<svg height="40" viewBox="0 0 40 40" width="40" xmlns="http://www.w3.org/2000/svg"><path d="m12 0h16c6.627 0 12 5.373 12 12v16c0 6.627-5.373 12-12 12h-16c-6.627 0-12-5.373-12-12v-16c0-6.627 5.373-12 12-12z" fill="#281e78"/><g fill="#00ebe5"><path d="m20 31.563 4.764-2.374-10.901-5.433-4.732 2.354z"/><path d="m26.157 28.494 4.746-2.366-17.045-8.495-4.747 2.366z"/><path d="m26.135 22.368 4.748-2.369-4.746-2.366-4.748 2.369z"/></g><path d="m13.845 11.506-4.749 2.367 10.901 5.436 4.748-2.369z" fill="#37eb77"/><path d="m26.139 16.248 4.764-2.375-4.748-2.367-4.77 2.377z" fill="#37eb77"/><path d="m19.999 8.437-4.765 2.376 4.765 2.375 4.765-2.375z" fill="#37eb77"/></svg>