<svg viewBox="0 0 99.162 109.874"
  xmlns="http://www.w3.org/2000/svg"
  xmlns:xlink="http://www.w3.org/1999/xlink">
  <clipPath id="cs-logo-wt-a">
    <path clip-rule="evenodd" d="m-679.284 389.71 38.529 19.313 16.884-8.416-38.629-19.258-16.78 8.361z" transform="translate(679.284 -381.349)"/>
  </clipPath>
  <clipPath id="cs-logo-wt-b">
    <path clip-rule="evenodd" d="m-679.558 283.708 60.394 30.109 16.823-8.386-60.394-30.11-16.823 8.386z" transform="translate(679.558 -275.322)"/>
  </clipPath>
  <clipPath id="cs-logo-wt-c">
    <path clip-rule="evenodd" d="m-450.1 292.1 16.836-8.395-16.823-8.386-16.836 8.4z" transform="translate(466.918 -275.323)"/>
  </clipPath>
  <clipPath id="cs-logo-wt-d">
    <path clip-rule="evenodd" d="m-679.888 177.558 38.649 19.268 16.835-8.4-38.652-19.263-16.833 8.39z" transform="translate(679.888 -169.168)"/>
  </clipPath>
  <clipPath id="cs-logo-wt-e">
    <path clip-rule="evenodd" d="m-450.08 185.976 16.89-8.417-16.833-8.39-16.892 8.416z" transform="translate(466.915 -169.168)"/>
  </clipPath>
  <clipPath id="cs-logo-wt-f">
    <path clip-rule="evenodd" d="m-556.65 116-16.89 8.422 16.892 8.417 16.89-8.417z" transform="translate(573.541 -116)"/>
  </clipPath>
  <g clip-path="url(#cs-logo-wt-a)" transform="translate(11.001 54.291)">
    <path d="m-1.023-1.023h57.459v29.721h-57.459z" fill="#00ebe5"/>
  </g>
  <g clip-path="url(#cs-logo-wt-b)" transform="translate(10.945 32.598)">
    <path d="m-1.023-1.023h79.263v40.542h-79.263z" fill="#00ebe5"/>
  </g>
  <g clip-path="url(#cs-logo-wt-c)" transform="translate(54.451 32.598)">
    <path d="m-1.023-1.023h35.704v18.827h-35.704z" fill="#00ebe5"/>
  </g>
  <g clip-path="url(#cs-logo-wt-d)" transform="translate(10.877 10.878)">
    <path d="m-1.023-1.023h57.53v29.705h-57.53z" fill="#37eb77"/>
  </g>
  <g clip-path="url(#cs-logo-wt-e)" transform="translate(54.452 10.878)">
    <path d="m-1.023-1.023h35.771v18.853h-35.771z" fill="#37eb77"/>
  </g>
  <g clip-path="url(#cs-logo-wt-f)" transform="translate(32.636)">
    <path d="m-1.023-1.023h35.828v18.885h-35.828z" fill="#37eb77"/>
  </g>
  <path d="m8.424 99.507a5.593 5.593 0 0 0 -2.916-.684 5.239 5.239 0 0 0 -5.508 5.526 5.22 5.22 0 0 0 5.508 5.526 5.689 5.689 0 0 0 3.132-.792v-2.736a4.378 4.378 0 0 1 -3.006 1.116 2.826 2.826 0 0 1 -2.88-3.114c0-1.818 1.008-3.114 2.772-3.114a4.026 4.026 0 0 1 2.9 1.134zm9.918 8.154.72 2.034h2.934l-4.158-10.692h-3.222l-4.158 10.692h2.826l.738-2.034zm-.774-2.178h-2.736l1.386-3.8zm9.306.792h.774l2.3 3.42h3.15l-2.862-4a3.5 3.5 0 0 0 1.926-3.168c0-2.556-1.836-3.708-4.572-3.708a23.587 23.587 0 0 0 -3.384.234v10.642h2.664zm0-5.094a8.43 8.43 0 0 1 .738-.036c1.008 0 1.836.378 1.836 1.458 0 1.1-.792 1.476-1.908 1.476h-.666zm8.442 8.406a19.365 19.365 0 0 0 3.51.252c3.528 0 6.066-1.692 6.066-5.6 0-3.582-2.43-5.418-5.994-5.418a25.821 25.821 0 0 0 -3.582.27zm2.682-8.244a10.94 10.94 0 0 1 1.1-.054 2.754 2.754 0 0 1 3.04 2.952c0 2.232-1.206 3.258-2.988 3.258a11.513 11.513 0 0 1 -1.152-.054zm9.27 7.776a5.87 5.87 0 0 0 2.97.756c2.268 0 4.122-1.008 4.122-3.33 0-1.782-.756-2.808-2.952-3.384-1.134-.288-1.746-.504-1.746-1.188 0-.5.4-.864 1.206-.864a4.369 4.369 0 0 1 2.844 1.116v-2.63a5.459 5.459 0 0 0 -2.952-.774c-2.106 0-3.708 1.206-3.708 3.312 0 1.782.828 2.79 3.042 3.348 1.08.27 1.638.5 1.638 1.152 0 .72-.7.954-1.512.954a4.84 4.84 0 0 1 -2.952-1.092zm14.724-7.758h3.2v-2.358h-9.068v2.358h3.2v8.334h2.664zm11.392 6.3.722 2.034h2.934l-4.156-10.692h-3.224l-4.158 10.692h2.826l.738-2.034zm-.774-2.178h-2.734l1.386-3.8zm14.094-5.976a5.593 5.593 0 0 0 -2.916-.684 5.239 5.239 0 0 0 -5.504 5.526 5.22 5.22 0 0 0 5.506 5.526 5.689 5.689 0 0 0 3.132-.792v-2.736a4.378 4.378 0 0 1 -3.006 1.116 2.826 2.826 0 0 1 -2.88-3.114c0-1.818 1.008-3.114 2.772-3.114a4.026 4.026 0 0 1 2.9 1.134zm3.134 10.188h2.682v-10.692h-2.682zm2.736-5.292 3.438 5.292h3.15l-3.672-5.508 3.438-5.184h-3.1z" fill="#fff"/>
</svg>