<svg xmlns="http://www.w3.org/2000/svg" viewBox="0 0 175.517 31.591">
  <path d="M-989.127,408.843l14.848,7.444,6.507-3.244-14.888-7.423Z" transform="translate(989.175 -384.695)" fill="#00ebe5"/>
  <path d="M-989.206,378.46l23.274,11.605,6.483-3.232-23.274-11.605Z" transform="translate(989.232 -362.664)" fill="#00ebe5"/>
  <path d="M-915.29,378.46l-6.483-3.232-6.488,3.236,6.483,3.232Z" transform="translate(945.053 -362.664)" fill="#00ebe5"/>
  <path d="M-967.918,352.224l-14.9-7.425-6.487,3.234,14.894,7.427Z" transform="translate(989.3 -340.607)" fill="#37eb77"/>
  <path d="M-928.26,348.043l6.488,3.234,6.509-3.244-6.487-3.234Z" transform="translate(945.052 -340.606)" fill="#37eb77"/>
  <path d="M-945.8,332.8l-6.51-3.246-6.509,3.246,6.51,3.244Z" transform="translate(967.205 -329.559)" fill="#37eb77"/>
  <path d="M-849.018,364.228a6.715,6.715,0,0,1,6.84-7.066,6.635,6.635,0,0,1,4.645,1.717v-2.027a8.876,8.876,0,0,0-4.617-1.267,8.386,8.386,0,0,0-8.642,8.642,8.261,8.261,0,0,0,8.642,8.642,9.364,9.364,0,0,0,4.7-1.239v-2a6.936,6.936,0,0,1-4.729,1.661A6.715,6.715,0,0,1-849.018,364.228Z" transform="translate(888.896 -348.426)" fill="#fff"/>
  <path d="M-788.089,356.609l-6.475,16.721h1.8l1.745-4.617h8.107l1.745,4.617h1.858l-6.559-16.721Zm-2.393,10.641,3.491-9.233,3.519,9.233Z" transform="translate(848.137 -349.167)" fill="#fff"/>
  <path d="M-719.228,360.766c0-3.1-2-5.18-6.5-5.18a26.057,26.057,0,0,0-3.181.253v16.749h1.745v-6.475h2.505l5.18,6.475h2.167l-5.546-6.869A4.912,4.912,0,0,0-719.228,360.766Zm-6.193,3.913h-1.745v-7.516c.394-.028,1.07-.056,1.408-.056,3.406,0,4.729,1.576,4.729,3.716C-721.03,363.383-722.662,364.678-725.421,364.678Z" transform="translate(800.546 -348.426)" fill="#fff"/>
  <path d="M-673.589,355.586a30.878,30.878,0,0,0-3.434.225v16.806a28.755,28.755,0,0,0,3.659.253c7.291,0,10.021-4.335,10.021-9.036C-663.342,359.555-665.932,355.586-673.589,355.586Zm.254,15.764a15.576,15.576,0,0,1-1.942-.112V357.247c.591-.056,1.1-.084,1.633-.084,5.968,0,8.473,2.759,8.473,6.7C-665.171,368.957-668.55,371.35-673.335,371.35Z" transform="translate(762.932 -348.426)" fill="#fff"/>
  <path d="M-613.149,363.158c-2.421-.845-3.378-1.633-3.378-3.238,0-1.717,1.295-2.843,3.181-2.843a6.084,6.084,0,0,1,4,1.633v-1.8a6.258,6.258,0,0,0-4-1.323c-2.505,0-4.87,1.464-4.87,4.307s1.6,3.828,4.589,4.926c2,.732,3.49,1.492,3.49,3.49,0,2.2-1.717,3.069-3.716,3.069a6.474,6.474,0,0,1-4.251-1.717v1.914a6.827,6.827,0,0,0,4.251,1.295c3.012,0,5.433-1.492,5.433-4.56C-608.42,365.382-610.053,364.228-613.149,363.158Z" transform="translate(720.303 -348.426)" fill="#fff"/>
  <path d="M-563.249,356.609h-12.78v1.52h5.517v15.2h1.745v-15.2h5.517Z" transform="translate(689.722 -349.167)" fill="#fff"/>
  <path d="M-527.273,356.609l-6.475,16.721h1.8l1.745-4.617h8.107l1.745,4.617h1.858l-6.559-16.721Zm-2.393,10.641,3.491-9.233,3.519,9.233Z" transform="translate(659.072 -349.167)" fill="#fff"/>
  <path d="M-472.779,364.228a6.715,6.715,0,0,1,6.84-7.066,6.635,6.635,0,0,1,4.645,1.717v-2.027a8.876,8.876,0,0,0-4.617-1.267,8.386,8.386,0,0,0-8.642,8.642,8.261,8.261,0,0,0,8.642,8.642,9.363,9.363,0,0,0,4.7-1.239v-2a6.936,6.936,0,0,1-4.729,1.661A6.715,6.715,0,0,1-472.779,364.228Z" transform="translate(616.162 -348.426)" fill="#fff"/>
  <path d="M-396.458,356.609h-2.167l-7.544,8.5,7.995,8.22h2.252L-404,364.942Z" transform="translate(566.591 -349.167)" fill="#fff"/>
  <rect width="1.745" height="16.721" transform="translate(158.564 7.442)" fill="#fff"/>
  <path d="M-358.332,410.954c0-.442-.311-.672-.819-.672a3.157,3.157,0,0,0-.584.06v1.89h.437v-.623h.181l.448.623h.519l-.535-.721A.582.582,0,0,0-358.332,410.954Zm-.814.317h-.153v-.59a1.161,1.161,0,0,1,.153-.011c.24,0,.371.1.371.3C-358.774,411.183-358.922,411.27-359.146,411.27Z" transform="translate(532.931 -388.075)" fill="#fff"/>
  <path d="M-361.708,407.84a1.629,1.629,0,0,0-1.66,1.676,1.63,1.63,0,0,0,1.66,1.677,1.63,1.63,0,0,0,1.661-1.677A1.63,1.63,0,0,0-361.708,407.84Zm0,3.151a1.406,1.406,0,0,1-1.442-1.475,1.405,1.405,0,0,1,1.442-1.474,1.405,1.405,0,0,1,1.442,1.474A1.406,1.406,0,0,1-361.708,410.991Z" transform="translate(535.565 -386.304)" fill="#fff"/>
</svg>
