<svg viewBox="0 0 70 70" xmlns="http://www.w3.org/2000/svg"><g transform="translate(5351 -14652)"><rect fill="#281e78" height="70" rx="18" width="70" x="-5351" y="14652"/><g fill="none"><path d="m-5336 14667h40v40h-40z" opacity=".5"/><path d="m-5333 14680.004v-5s0-4.979 5-5 5 0 5 0" stroke="#37eb77" stroke-linecap="round" stroke-width="4"/><path d="m-5333 14693.995v5s0 4.979 5 5 5 0 5 0" stroke="#37eb77" stroke-linecap="round" stroke-width="4"/><path d="m-5299 14680.004v-5s0-4.979-5-5-5 0-5 0" stroke="#37eb77" stroke-linecap="round" stroke-width="4"/><path d="m-5299 14693.995v5s0 4.979-5 5-5 0-5 0" stroke="#37eb77" stroke-linecap="round" stroke-width="4"/></g><text fill="#00ebe5" font-family="OpenSans-Bold, Open Sans" font-size="31" font-weight="700" letter-spacing=".01em" transform="translate(-5324 14699)"><tspan x="0" y="0">ยง</tspan></text></g></svg>