<svg xmlns="http://www.w3.org/2000/svg" viewBox="0 0 40.542 36.006">
  <path fill="#00ebe5" d="M27.97 35.685a1.7 1.7 0 0 1-1.7-1.7V29.11a2.1 2.1 0 0 0-2.1-2.053h-7.711a2.076 2.076 0 0 0-2.138 2.073v4.855a1.7 1.7 0 1 1-3.393 0V29.11a5.469 5.469 0 0 1 5.55-5.445h7.711a5.492 5.492 0 0 1 5.47 5.426v4.894a1.7 1.7 0 0 1-1.689 1.7Z"/>
  <g fill="#00ebe5">
    <path d="M20.314 14.931a3.817 3.817 0 1 1-3.817 3.817 3.817 3.817 0 0 1 3.817-3.817Z"/>
    <path d="M20.314 24.259a5.513 5.513 0 1 1 5.513-5.514 5.52 5.52 0 0 1-5.513 5.514Zm0-7.634a2.12 2.12 0 1 0 2.12 2.12 2.123 2.123 0 0 0-2.12-2.12Z"/>
  </g>
  <g>
    <path fill="#37eb77" d="M38.542 36.006a2 2 0 0 1-2-2V15.498L20.289 4.42 4.005 15.499v18.507a2 2 0 0 1-4 0V14.44a2 2 0 0 1 .875-1.653L19.17.347a2 2 0 0 1 2.251 0l18.252 12.44a2 2 0 0 1 .874 1.652v19.566a2 2 0 0 1-2.005 2.001Z"/>
  </g>
</svg>
