<?xml version="1.0" encoding="UTF-8"?>
<!DOCTYPE svg PUBLIC "-//W3C//DTD SVG 1.1//EN" "http://www.w3.org/Graphics/SVG/1.1/DTD/svg11.dtd">
<svg version="1.1" xmlns="http://www.w3.org/2000/svg" xmlns:xlink="http://www.w3.org/1999/xlink" x="0" y="0" width="40" height="40" viewBox="0, 0, 40, 40">
  <g id="Layer_1">
    <path d="M12,0 L28,0 C34.627,0 40,5.373 40,12 L40,28 C40,34.627 34.627,40 28,40 L12,40 C5.373,40 0,34.627 0,28 L0,12 C0,5.373 5.373,0 12,0 z" fill="#281E78"/>
    <g>
      <path d="M20,31.563 L24.764,29.189 L13.863,23.756 L9.131,26.11 z" fill="#00EBE5"/>
      <path d="M26.157,28.494 L30.903,26.128 L13.858,17.633 L9.111,19.999 z" fill="#00EBE5"/>
      <path d="M26.135,22.368 L30.883,19.999 L26.137,17.633 L21.389,20.002 z" fill="#00EBE5"/>
    </g>
    <g>
      <path d="M13.845,11.506 L9.096,13.873 L19.997,19.309 L24.745,16.94 z" fill="#37EB77"/>
      <path d="M26.139,16.248 L30.903,13.873 L26.155,11.506 L21.385,13.883 z" fill="#37EB77"/>
      <path d="M19.999,8.437 L15.234,10.813 L19.999,13.188 L24.764,10.813 z" fill="#37EB77"/>
    </g>
  </g>
</svg>
