<svg height="39.126" viewBox="0 0 38.604 39.126" width="38.604" xmlns="http://www.w3.org/2000/svg"><path d="m1136.257 3113.038a4.519 4.519 0 1 1 0-9.038h25.608v.065a1.5 1.5 0 1 1 0 2.886v.062h-25.608a1.507 1.507 0 1 0 0 3.013h25.608v.077a1.5 1.5 0 1 1 0 2.852v.084z" fill="#37eb77" stroke="#37eb77" transform="translate(-1131.237 -3103.5)"/><path d="m1136.257 3113.038a4.519 4.519 0 1 1 0-9.038h25.608v.065a1.5 1.5 0 1 1 0 2.886v.062h-25.608a1.507 1.507 0 1 0 0 3.013h25.608v.077a1.5 1.5 0 1 1 0 2.852v.084z" fill="#37eb77" stroke="#37eb77" transform="translate(-1131.237 -3074.412)"/><path d="m1125.737 3112.038v-.07a1.5 1.5 0 1 1 0-2.882v-.06h25.608a1.507 1.507 0 0 0 0-3.013h-25.608v-.063a1.5 1.5 0 1 1 0-2.878v-.072h25.608a4.519 4.519 0 1 1 0 9.038z" fill="#00ebe5" stroke="#00ebe5" transform="translate(-1117.761 -3087.957)"/></svg>