<?xml version="1.0" encoding="UTF-8"?>
<!DOCTYPE svg PUBLIC "-//W3C//DTD SVG 1.1//EN" "http://www.w3.org/Graphics/SVG/1.1/DTD/svg11.dtd">
<svg version="1.1" xmlns="http://www.w3.org/2000/svg" xmlns:xlink="http://www.w3.org/1999/xlink" x="0" y="0" width="34" height="32" viewBox="0, 0, 34, 32">
  <g id="Layer_1">
    <path d="M17.104,1.437 C15.563,1.312 2.084,9.056 1.875,9.875 C1.666,10.694 7.734,12.381 7.688,13.25 C7.641,14.119 1.762,15.043 1.688,15.812 C1.613,16.582 7.831,18.488 7.822,19.244 C7.812,20 1.717,21.194 1.563,22.062 C1.408,22.931 15.424,30.25 17.024,30.25 C18.625,30.25 32.044,23.249 32,22.25 C31.956,21.251 25.876,20.05 25.907,19.244 C25.938,18.438 32.107,16.879 32,16.125 C31.893,15.371 26.302,13.137 26.307,12.444 C26.312,11.75 31.957,10.001 32,9.375 C32.043,8.749 18.646,1.562 17.104,1.437 z" fill="#EFEFEF"/>
    <g>
      <path d="M17,27.563 L21.763,25.189 L10.863,19.757 L6.131,22.111 z" fill="#00EBE5"/>
      <path d="M23.157,24.494 L27.903,22.128 L10.857,13.633 L6.111,15.999 z" fill="#00EBE5"/>
      <path d="M23.134,18.368 L27.883,15.999 L23.137,13.633 L18.388,16.002 z" fill="#00EBE5"/>
    </g>
    <g>
      <path d="M10.845,7.506 L6.096,9.873 L16.996,15.309 L21.745,12.941 z" fill="#37EB77"/>
      <path d="M23.138,12.248 L27.903,9.873 L23.154,7.506 L18.384,9.884 z" fill="#37EB77"/>
      <path d="M16.999,4.438 L12.234,6.813 L16.999,9.188 L21.764,6.813 z" fill="#37EB77"/>
    </g>
  </g>
</svg>
