<svg height="40" viewBox="0 0 39.995 40" width="39.995" xmlns="http://www.w3.org/2000/svg"><path d="m1367.239 509.35c0-5.956-9.056-5.756-9.056-8.657 0-.967.655-1.661 2.16-1.661a6.021 6.021 0 0 1 3.637 1.547l1.76-2.385a9.138 9.138 0 0 0 -5.6-1.992c-3.467 0-5.392 2.027-5.392 4.625a3.939 3.939 0 0 0 .995 2.68 4.978 4.978 0 0 0 -2.832 4.195c0 6.1 8.915 5.58 8.915 8.7 0 1.024-.808 1.808-2.355 1.808a5.351 5.351 0 0 1 -3.911-1.693l-2.207 1.98a7.98 7.98 0 0 0 6.117 2.544c3.6 0 5.769-2.06 5.769-4.817a4.052 4.052 0 0 0 -.855-2.569c1.77-1.013 2.855-2.319 2.855-4.305zm-11.1-1.9a2.633 2.633 0 0 1 1.693-2.376c2.692 1.427 6.171 2.1 6.171 4.565a2.469 2.469 0 0 1 -1.653 2.369c-2.66-1.491-6.207-2.123-6.207-4.555z" fill="#00ebe5" transform="translate(-1339.924 -488.102)"/><g fill="#37eb77"><path d="m1376.8 496.7a7.036 7.036 0 0 0 -6.523-6.523 7.291 7.291 0 0 0 -.8-.051h-5.261a2.092 2.092 0 0 0 -.889.2 1.292 1.292 0 0 0 -.5.335 2.1 2.1 0 0 0 1.392 3.672h.111v.005c.027 0 .113 0 .363-.005h2.6l2.189.008a4.2 4.2 0 0 1 .8.085 3.687 3.687 0 0 1 .476.136c.06.021.123.041.179.065a2.817 2.817 0 0 1 .407.211c.057.036.111.075.163.115a2.3 2.3 0 0 1 .287.24 2.381 2.381 0 0 1 .24.287c.04.052.079.105.116.163a3.16 3.16 0 0 1 .211.407c.024.057.043.119.064.18a3.6 3.6 0 0 1 .136.475 4.225 4.225 0 0 1 .085.8c0 .869.007 1.588.008 2.189v2.6.363.112a2.1 2.1 0 0 0 3.673 1.392 1.318 1.318 0 0 0 .333-.5 2.088 2.088 0 0 0 .2-.888v-5.273a7.321 7.321 0 0 0 -.06-.8z" transform="translate(-1336.858 -490.127)"/><path d="m1356.7 490.33a2.085 2.085 0 0 0 -.888-.2h-5.263a7.313 7.313 0 0 0 -.8.051 7.036 7.036 0 0 0 -6.521 6.523 7.32 7.32 0 0 0 -.052.8v5.263a2.085 2.085 0 0 0 .2.888 1.321 1.321 0 0 0 .335.5 2.1 2.1 0 0 0 3.673-1.392v-.112c0-.027 0-.113 0-.363v-2.6c0-.6 0-1.32.007-2.189a4.34 4.34 0 0 1 .085-.8 3.641 3.641 0 0 1 .136-.475c.021-.061.041-.123.065-.18a3.028 3.028 0 0 1 .211-.407c.037-.057.075-.111.115-.163a2.677 2.677 0 0 1 .24-.287 2.5 2.5 0 0 1 .287-.24c.052-.04.107-.079.163-.115a2.817 2.817 0 0 1 .408-.211c.056-.024.119-.044.179-.065a3.682 3.682 0 0 1 .476-.136 4.2 4.2 0 0 1 .8-.085l2.189-.008h2.6c.249 0 .336 0 .364.005v-.005h.111a2.1 2.1 0 0 0 1.392-3.672 1.3 1.3 0 0 0 -.512-.325z" transform="translate(-1343.171 -490.127)"/><path d="m1376.315 509.783a2.1 2.1 0 0 0 -3.673 1.392v.111.364 2.6c0 .6 0 1.32-.008 2.189a4.212 4.212 0 0 1 -.085.8 3.673 3.673 0 0 1 -.136.476c-.021.06-.04.123-.064.179a3.092 3.092 0 0 1 -.211.408c-.037.056-.076.111-.116.163a2.374 2.374 0 0 1 -.24.285 2.436 2.436 0 0 1 -.287.241c-.052.039-.105.077-.163.115a2.966 2.966 0 0 1 -.407.211c-.056.024-.119.044-.179.065a3.881 3.881 0 0 1 -.476.135 4.2 4.2 0 0 1 -.8.087l-2.189.007h-2.6c-.249 0-.336 0-.363 0h-.111a2.1 2.1 0 0 0 -1.392 3.673 1.305 1.305 0 0 0 .5.335 2.091 2.091 0 0 0 .889.2h5.261a7.285 7.285 0 0 0 .8-.052 7.033 7.033 0 0 0 6.523-6.523 7.275 7.275 0 0 0 .052-.8v-5.263a2.088 2.088 0 0 0 -.2-.888 1.308 1.308 0 0 0 -.325-.51z" transform="translate(-1336.858 -483.813)"/><path d="m1355.808 519.6h-.111c-.028 0-.115 0-.364 0h-2.6l-2.189-.007a4.2 4.2 0 0 1 -.8-.087 3.875 3.875 0 0 1 -.476-.135c-.06-.021-.123-.041-.179-.065a2.965 2.965 0 0 1 -.408-.211c-.056-.037-.111-.076-.163-.115a2.183 2.183 0 0 1 -.527-.527c-.04-.052-.077-.107-.115-.163a2.966 2.966 0 0 1 -.211-.408c-.024-.056-.044-.119-.065-.179a3.714 3.714 0 0 1 -.136-.476 4.326 4.326 0 0 1 -.085-.8c0-.869-.005-1.588-.007-2.189v-2.6c0-.249 0-.336 0-.364v-.111a2.1 2.1 0 0 0 -3.673-1.392 1.311 1.311 0 0 0 -.335.5 2.085 2.085 0 0 0 -.2.888v5.263a7.274 7.274 0 0 0 .052.8 7.033 7.033 0 0 0 6.521 6.523 7.308 7.308 0 0 0 .8.052h5.263a2.084 2.084 0 0 0 .888-.2 1.311 1.311 0 0 0 .5-.335 2.1 2.1 0 0 0 -1.392-3.673z" transform="translate(-1343.171 -483.813)"/></g></svg>