<svg height="29.519" viewBox="0 0 26.571 29.519" width="26.571" xmlns="http://www.w3.org/2000/svg"><path d="m12.419 15.9a1.3 1.3 0 0 0 .145-.421v-.359a1.228 1.228 0 0 0 -.046-.188l.046-.035v-.135a9.54 9.54 0 0 1 -5.664 1.615 9.5 9.5 0 0 1 -5.664-1.625v.5c0 .839.839 1.451 1.5 1.795a9.8 9.8 0 0 0 4.868.867 5.034 5.034 0 0 1 1.437-1.062 9.668 9.668 0 0 1 3.356-.956zm14.037 3.73a2.389 2.389 0 0 1 0 .485v.1a3.706 3.706 0 0 1 -2.167 2.535 9.817 9.817 0 0 1 -3.583.97v1.544a2.386 2.386 0 0 1 0 .244 3.438 3.438 0 0 1 -2.181 2.871 10.49 10.49 0 0 1 -4.719 1.037 10.49 10.49 0 0 1 -4.737-1.03 3.6 3.6 0 0 1 -2.163-2.595v-1.066a10.493 10.493 0 0 1 -4.726-1.03 3.421 3.421 0 0 1 -2.18-2.872v-16.932a3.437 3.437 0 0 1 2.181-2.864 10.49 10.49 0 0 1 4.737-1.027 10.49 10.49 0 0 1 4.737 1.03c1.175.612 2.315 1.671 2.167 3.115v2.475a2.393 2.393 0 0 1 0 .485v1.954a5.622 5.622 0 0 1 .995-.651 10.49 10.49 0 0 1 4.737-1.03 10.49 10.49 0 0 1 4.737 1.03c1.175.612 2.315 1.671 2.167 3.115v2.477a2.389 2.389 0 0 1 0 .485v2.326a2.389 2.389 0 0 1 0 .485v2.319zm-5.749 2.832a8.454 8.454 0 0 0 3.013-.828c.6-.315 1.381-.871 1.49-1.586v-.354a1.218 1.218 0 0 0 -.046-.188l.046-.035v-.131a8.748 8.748 0 0 1 -4.5 1.561v1.547zm0-2.807a8.44 8.44 0 0 0 3.013-.828c.6-.315 1.381-.871 1.49-1.586v-.354a1.218 1.218 0 0 0 -.046-.188l.046-.035v-.138a9.071 9.071 0 0 1 -5.048 1.6 2.6 2.6 0 0 1 .566 1.515zm4.5-5.229v-.354a1.221 1.221 0 0 0 -.046-.188l.046-.035v-.3a9.54 9.54 0 0 1 -5.664 1.614 9.5 9.5 0 0 1 -5.664-1.625v.662a2.175 2.175 0 0 0 1.292 1.678 9.668 9.668 0 0 1 3.356.956c.326.028.658.042 1 .042a9.226 9.226 0 0 0 4.2-.867c.6-.315 1.381-.871 1.49-1.586zm0-2.981v-.166c0-.651-.574-1.274-1.5-1.77a9.226 9.226 0 0 0 -4.16-.889 9.226 9.226 0 0 0 -4.142.9c-2 1.044-2 2.478 0 3.519a9.226 9.226 0 0 0 4.16.889 9.226 9.226 0 0 0 4.163-.889c.85-.443 1.416-1 1.49-1.593zm-18.265 7.755a2.383 2.383 0 0 0 -.057.52v1.136a9.226 9.226 0 0 1 -4.128-.885c-.666-.354-1.519-.956-1.5-1.795v-.6a9.392 9.392 0 0 0 5.685 1.624zm-.057 2.91a9.385 9.385 0 0 1 -5.632-1.625v.3c0 .839.839 1.451 1.5 1.795a9.222 9.222 0 0 0 4.128.889v-1.353zm12.585 3.462v-.23a1.211 1.211 0 0 0 -.046-.188l.046-.035v-.138a5.717 5.717 0 0 1 -.913.584 10.49 10.49 0 0 1 -4.75 1.035 10.49 10.49 0 0 1 -4.737-1.03 5.7 5.7 0 0 1 -.928-.595v.51c0 .839.839 1.451 1.5 1.795a9.226 9.226 0 0 0 4.16.878 9.226 9.226 0 0 0 4.153-.9c.634-.329 1.462-.928 1.5-1.7zm0-2.7v-.354a1.218 1.218 0 0 0 -.046-.188l.046-.035v-.295a5.714 5.714 0 0 1 -.913.584 10.49 10.49 0 0 1 -4.751 1.048 10.49 10.49 0 0 1 -4.736-1.032 5.7 5.7 0 0 1 -.928-.6v.655c0 .839.839 1.451 1.5 1.795a9.226 9.226 0 0 0 4.16.9 9.226 9.226 0 0 0 4.153-.885c.6-.315 1.381-.871 1.49-1.586zm0-2.981a2.493 2.493 0 0 1 -1.49 1.593 9.226 9.226 0 0 1 -4.174.889 9.226 9.226 0 0 1 -4.16-.889c-.928-.485-1.5-1.108-1.5-1.77s.574-1.274 1.5-1.77a9.226 9.226 0 0 1 4.16-.867 9.226 9.226 0 0 1 4.16.889c.928.485 1.5 1.108 1.5 1.77v.164zm-18.2-7.434v-.492a9.489 9.489 0 0 0 5.664 1.625 9.583 9.583 0 0 0 5.666-1.617v.127l-.046.035a1.229 1.229 0 0 1 .046.188v.354c-.11.708-.889 1.274-1.49 1.586a9.226 9.226 0 0 1 -4.16.889 9.226 9.226 0 0 1 -4.2-.9c-.666-.354-1.519-.956-1.5-1.795zm0-2.807c0 .839.839 1.451 1.5 1.795a9.226 9.226 0 0 0 4.16.889 9.226 9.226 0 0 0 4.16-.889c.6-.315 1.381-.871 1.49-1.586v-.359a1.229 1.229 0 0 0 -.046-.188l.046-.035v-.136a9.54 9.54 0 0 1 -5.664 1.614 9.5 9.5 0 0 1 -5.656-1.625v.5zm11.33-2.609v-.318a1.229 1.229 0 0 0 -.046-.188l.046-.035v-.3a9.788 9.788 0 0 1 -5.682 1.585 9.535 9.535 0 0 1 -5.665-1.625v.662c0 .839.839 1.451 1.5 1.795a9.226 9.226 0 0 0 4.16.9 9.226 9.226 0 0 0 4.156-.885c.6-.315 1.381-.871 1.49-1.586zm0-2.981v-.17c0-.651-.574-1.274-1.5-1.77a9.226 9.226 0 0 0 -4.182-.87 9.226 9.226 0 0 0 -4.16.889c-.928.485-1.5 1.108-1.5 1.752s.574 1.274 1.5 1.77a9.226 9.226 0 0 0 4.16.885 9.226 9.226 0 0 0 4.156-.885 2.512 2.512 0 0 0 1.494-1.6z" fill-rule="evenodd" stroke="#000" stroke-width=".1" transform="translate(.05 .055)"/></svg>