<svg xmlns="http://www.w3.org/2000/svg" viewBox="0 0 26.571 29.519">
  <path d="M12.419,15.9a1.3,1.3,0,0,0,.145-.421V15.12a1.228,1.228,0,0,0-.046-.188l.046-.035v-.135A9.54,9.54,0,0,1,6.9,16.377a9.5,9.5,0,0,1-5.664-1.625v.5h0c0,.839.839,1.451,1.5,1.795a9.8,9.8,0,0,0,4.868.867,5.034,5.034,0,0,1,1.437-1.062,9.668,9.668,0,0,1,3.356-.956ZM26.456,19.63a2.389,2.389,0,0,1,0,.485v.1h0a3.706,3.706,0,0,1-2.167,2.535,9.817,9.817,0,0,1-3.583.97v1.544a2.386,2.386,0,0,1,0,.244,3.438,3.438,0,0,1-2.181,2.871,10.49,10.49,0,0,1-4.719,1.037,10.49,10.49,0,0,1-4.737-1.03,3.6,3.6,0,0,1-2.163-2.595h0V24.725a10.493,10.493,0,0,1-4.726-1.03A3.421,3.421,0,0,1,0,20.823V3.891A3.437,3.437,0,0,1,2.181,1.027,10.49,10.49,0,0,1,6.918,0a10.49,10.49,0,0,1,4.737,1.03c1.175.612,2.315,1.671,2.167,3.115V6.62a2.393,2.393,0,0,1,0,.485V9.059a5.622,5.622,0,0,1,.995-.651,10.49,10.49,0,0,1,4.737-1.03,10.49,10.49,0,0,1,4.737,1.03c1.175.612,2.315,1.671,2.167,3.115V14a2.389,2.389,0,0,1,0,.485v2.326a2.389,2.389,0,0,1,0,.485v2.319Zm-5.749,2.832a8.454,8.454,0,0,0,3.013-.828c.6-.315,1.381-.871,1.49-1.586v-.354a1.218,1.218,0,0,0-.046-.188l.046-.035V19.34a8.748,8.748,0,0,1-4.5,1.561v1.547Zm0-2.807a8.44,8.44,0,0,0,3.013-.828c.6-.315,1.381-.871,1.49-1.586v-.354a1.218,1.218,0,0,0-.046-.188l.046-.035v-.138a9.071,9.071,0,0,1-5.048,1.6,2.6,2.6,0,0,1,.566,1.515Zm4.5-5.229v-.354a1.221,1.221,0,0,0-.046-.188l.046-.035v-.3a9.54,9.54,0,0,1-5.664,1.614,9.5,9.5,0,0,1-5.664-1.625V14.2h0a2.175,2.175,0,0,0,1.292,1.678,9.668,9.668,0,0,1,3.356.956h0c.326.028.658.042,1,.042a9.226,9.226,0,0,0,4.2-.867c.6-.315,1.381-.871,1.49-1.586Zm0-2.981v-.166h0c0-.651-.574-1.274-1.5-1.77a9.226,9.226,0,0,0-4.16-.889,9.226,9.226,0,0,0-4.142.9c-2,1.044-2,2.478,0,3.519a9.226,9.226,0,0,0,4.16.889,9.226,9.226,0,0,0,4.163-.889c.85-.443,1.416-1,1.49-1.593ZM6.942,19.2a2.383,2.383,0,0,0-.057.52h0v1.136a9.226,9.226,0,0,1-4.128-.885c-.666-.354-1.519-.956-1.5-1.795h0v-.6A9.392,9.392,0,0,0,6.942,19.2Zm-.057,2.91a9.385,9.385,0,0,1-5.632-1.625v.3h0c0,.839.839,1.451,1.5,1.795a9.222,9.222,0,0,0,4.128.889V22.116Zm12.585,3.462h0v-.23a1.211,1.211,0,0,0-.046-.188l.046-.035v-.138a5.717,5.717,0,0,1-.913.584A10.49,10.49,0,0,1,13.807,26.6a10.49,10.49,0,0,1-4.737-1.03,5.7,5.7,0,0,1-.928-.595v.51h0c0,.839.839,1.451,1.5,1.795a9.226,9.226,0,0,0,4.16.878,9.226,9.226,0,0,0,4.153-.9c.634-.329,1.462-.928,1.5-1.7Zm0-2.7v-.354a1.218,1.218,0,0,0-.046-.188l.046-.035V22a5.714,5.714,0,0,1-.913.584,10.49,10.49,0,0,1-4.751,1.048A10.49,10.49,0,0,1,9.07,22.6a5.7,5.7,0,0,1-.928-.6v.655h0c0,.839.839,1.451,1.5,1.795a9.226,9.226,0,0,0,4.16.9,9.226,9.226,0,0,0,4.153-.885c.6-.315,1.381-.871,1.49-1.586Zm0-2.981a2.493,2.493,0,0,1-1.49,1.593,9.226,9.226,0,0,1-4.174.889,9.226,9.226,0,0,1-4.16-.889c-.928-.485-1.5-1.108-1.5-1.77s.574-1.274,1.5-1.77a9.226,9.226,0,0,1,4.16-.867,9.226,9.226,0,0,1,4.16.889c.928.485,1.5,1.108,1.5,1.77h0V19.9Zm-18.2-7.434v-.492a9.489,9.489,0,0,0,5.664,1.625A9.583,9.583,0,0,0,12.6,11.973V12.1l-.046.035a1.229,1.229,0,0,1,.046.188v.354c-.11.708-.889,1.274-1.49,1.586a9.226,9.226,0,0,1-4.16.889,9.226,9.226,0,0,1-4.2-.9c-.666-.354-1.519-.956-1.5-1.795Zm0-2.807h0c0,.839.839,1.451,1.5,1.795a9.226,9.226,0,0,0,4.16.889,9.226,9.226,0,0,0,4.16-.889c.6-.315,1.381-.871,1.49-1.586V9.5a1.229,1.229,0,0,0-.046-.188l.046-.035V9.141a9.54,9.54,0,0,1-5.664,1.614A9.5,9.5,0,0,1,1.26,9.13v.5ZM12.6,7.041V6.723a1.229,1.229,0,0,0-.046-.188L12.6,6.5V6.2A9.788,9.788,0,0,1,6.918,7.785,9.535,9.535,0,0,1,1.253,6.16v.662h0c0,.839.839,1.451,1.5,1.795a9.226,9.226,0,0,0,4.16.9,9.226,9.226,0,0,0,4.156-.885c.6-.315,1.381-.871,1.49-1.586Zm0-2.981v-.17h0c0-.651-.574-1.274-1.5-1.77A9.226,9.226,0,0,0,6.918,1.25a9.226,9.226,0,0,0-4.16.889c-.928.485-1.5,1.108-1.5,1.752s.574,1.274,1.5,1.77a9.226,9.226,0,0,0,4.16.885,9.226,9.226,0,0,0,4.156-.885,2.512,2.512,0,0,0,1.494-1.6Z" transform="translate(0.05 0.055) translate(0 -0.005) translate(0 0) translate(0 0.005)" stroke="#000" stroke-width=".1" fill-rule="evenodd"/>
</svg>