<svg height="41" viewBox="0 0 41 41" width="41" xmlns="http://www.w3.org/2000/svg"><g stroke="#707070"><path d="m20 90a20 20 0 1 1 -20 20 20 20 0 0 1 20-20z" fill="#fff" transform="translate(.5 -89.5)"/><path d="m125.848 238.35h7.6c.162 0 .238 0 .25-.212a14.531 14.531 0 0 0 0-2.325c0-.15-.075-.212-.238-.212h-15.125c-.187 0-.238.062-.238.238v2.225c0 .287 0 .287.3.287zm7-5.35a.244.244 0 0 0 0-.175 4.948 4.948 0 0 0 -.452-.788 6.377 6.377 0 0 0 -.925-1.163 3.066 3.066 0 0 0 -.575-.562 8.986 8.986 0 0 0 -3.75-1.9 9.32 9.32 0 0 0 -2.125-.225h-6.712c-.187 0-.212.075-.212.238v4.437c0 .187 0 .238.238.238h14.424s.125-.025.15-.1h-.06zm0 7.95a2.916 2.916 0 0 0 -.639 0h-13.861c-.187 0-.25 0-.25.25v4.338c0 .2 0 .25.25.25h6.4a3.2 3.2 0 0 0 .912-.062 9.528 9.528 0 0 0 2.714-.6 4.966 4.966 0 0 0 .912-.425h.087a8.121 8.121 0 0 0 3.488-3.511s.087-.189-.011-.239zm-17.263 7.088v-6.912c0-.163 0-.187-.2-.187h-2.713c-.15 0-.212 0-.212-.2v-2.375h2.9c.162 0 .225 0 .225-.212v-2.352c0-.15 0-.187-.2-.187h-2.713c-.15 0-.212 0-.212-.2v-2.2c0-.138 0-.175.2-.175h2.687c.187 0 .238 0 .238-.238v-6.737c0-.2 0-.25.25-.25h9.375a14.287 14.287 0 0 1 2.025.225 12.219 12.219 0 0 1 3.912 1.45 11.026 11.026 0 0 1 2.2 1.7 12.048 12.048 0 0 1 1.337 1.662 10.026 10.026 0 0 1 .976 1.913.326.326 0 0 0 .374.263h2.237c.287 0 .287 0 .3.275v2.05c0 .2-.075.25-.275.25h-1.725c-.175 0-.225 0-.212.225a12.763 12.763 0 0 1 0 2.287c0 .212 0 .238.238.238h1.974c.087.112 0 .225 0 .338a2.525 2.525 0 0 1 0 .437v1.513c0 .212-.062.275-.25.275h-2.363a.313.313 0 0 0 -.363.238 9.995 9.995 0 0 1 -2.625 3.825 15.051 15.051 0 0 1 -1.337 1.075c-.5.288-.987.588-1.5.825a13.512 13.512 0 0 1 -2.95.937 15.378 15.378 0 0 1 -2.925.238h-8.675v-.013z" fill="#f5ac37" transform="translate(-104.611 -216.438)"/></g></svg>