<svg xmlns="http://www.w3.org/2000/svg" width="20" height="20" viewBox="0 0 20 20">
  <path d="M10,90A10,10,0,1,1,0,100,10,10,0,0,1,10,90Z" transform="translate(0 -90)" fill="#f5ac37"/>
  <path d="M119.154,232.083h3.8c.081,0,.119,0,.125-.106a7.266,7.266,0,0,0,0-1.162c0-.075-.037-.106-.119-.106H115.4c-.094,0-.119.031-.119.119v1.112c0,.144,0,.144.15.144Zm3.5-2.675a.122.122,0,0,0,0-.087,2.475,2.475,0,0,0-.226-.394,3.189,3.189,0,0,0-.463-.581,1.533,1.533,0,0,0-.288-.281,4.493,4.493,0,0,0-1.875-.95,4.66,4.66,0,0,0-1.062-.112h-3.356c-.094,0-.106.037-.106.119v2.219c0,.094,0,.119.119.119h7.212s.063-.013.075-.05h-.03Zm0,3.975a1.458,1.458,0,0,0-.32,0H115.4c-.094,0-.125,0-.125.125v2.169c0,.1,0,.125.125.125h3.2a1.6,1.6,0,0,0,.456-.031,4.764,4.764,0,0,0,1.357-.3,2.483,2.483,0,0,0,.456-.212h.044a4.061,4.061,0,0,0,1.744-1.755s.044-.095-.005-.119Zm-8.632,3.544V233.47c0-.081,0-.094-.1-.094h-1.356c-.075,0-.106,0-.106-.1v-1.188h1.45c.081,0,.113,0,.113-.106v-1.175c0-.075,0-.094-.1-.094h-1.356c-.075,0-.106,0-.106-.1v-1.1c0-.069,0-.087.1-.087H113.9c.094,0,.119,0,.119-.119V225.94c0-.1,0-.125.125-.125h4.687a7.14,7.14,0,0,1,1.012.112,6.11,6.11,0,0,1,1.956.725,5.513,5.513,0,0,1,1.1.85,6.025,6.025,0,0,1,.669.831,5.013,5.013,0,0,1,.488.956.163.163,0,0,0,.187.131h1.119c.144,0,.144,0,.15.138v1.025c0,.1-.037.125-.138.125h-.863c-.087,0-.113,0-.106.112a6.381,6.381,0,0,1,0,1.143c0,.106,0,.119.119.119h.987c.044.056,0,.112,0,.169a1.262,1.262,0,0,1,0,.218v.756c0,.106-.031.138-.125.138H124.21a.156.156,0,0,0-.181.119,5,5,0,0,1-1.313,1.913,7.527,7.527,0,0,1-.669.537c-.25.144-.494.294-.75.413a6.757,6.757,0,0,1-1.475.468,7.689,7.689,0,0,1-1.463.119h-4.338v-.006Z" transform="translate(-108.786 -221.376)" fill="#fefefd"/>
</svg>
