<svg xmlns="http://www.w3.org/2000/svg" width="34" height="29.853" viewBox="0 0 34 29.853"><path d="M29.814,20.313V11.232A2.945,2.945,0,0,0,26.883,8.3H5.432A2.945,2.945,0,0,0,2.5,11.232V25.389a2.945,2.945,0,0,0,2.932,2.932H18.374a5.28,5.28,0,0,0-.036.751,9.081,9.081,0,1,0,11.476-8.759ZM5.432,10.374H26.847a.87.87,0,0,1,.858.858v2.324H4.574V11.232A.87.87,0,0,1,5.432,10.374Zm0,15.838a.87.87,0,0,1-.858-.858v-8.08H27.705v2.717h-.322a9.11,9.11,0,0,0-8.616,6.221Zm21.952,9.832a6.972,6.972,0,1,1,6.972-6.972A6.981,6.981,0,0,1,27.383,36.043Z" transform="translate(-2.5 -8.3)" fill="var(--icon-color, #000)"/><path d="M67.756,56.575H66.99a.877.877,0,0,1-.651-.307,1.07,1.07,0,0,1-.23-.69.915.915,0,0,1,.92-.766h.92a.537.537,0,0,1,.537.46.368.368,0,0,0,.345.268h1.035a.348.348,0,0,0,.268-.115.237.237,0,0,0,.077-.268,2.281,2.281,0,0,0-1.993-2.031v-.881a.343.343,0,0,0-.345-.345H66.836a.343.343,0,0,0-.345.345v.92a2.576,2.576,0,0,0-2.108,2.8A2.667,2.667,0,0,0,67.066,58.3h.651a.877.877,0,0,1,.651.307,1.07,1.07,0,0,1,.23.69.915.915,0,0,1-.92.766h-.92a.537.537,0,0,1-.537-.46.368.368,0,0,0-.345-.268H64.844a.348.348,0,0,0-.268.115.323.323,0,0,0-.077.268,2.281,2.281,0,0,0,1.993,2.031v.881a.343.343,0,0,0,.345.345h1.035a.343.343,0,0,0,.345-.345v-.92a2.6,2.6,0,0,0,2.108-2.261,2.627,2.627,0,0,0-2.568-2.874Z" transform="translate(-42.564 -37.338)" fill="var(--icon-color, #000)"/></svg>
