<svg xmlns="http://www.w3.org/2000/svg" width="20" height="20" viewBox="0 0 20 20">
  <circle cx="10" cy="10" r="10" fill="#007b25"/>
  <path d="M8.9-2.608A2.5,2.5,0,0,1,8.033-.65,4.424,4.424,0,0,1,5.526.3V2.078H4.436V.35A8.46,8.46,0,0,1,1.1-.273V-2a8.32,8.32,0,0,0,1.647.578,7.44,7.44,0,0,0,1.688.242V-4.247L3.748-4.5A4.845,4.845,0,0,1,1.786-5.734a2.62,2.62,0,0,1-.619-1.774,2.309,2.309,0,0,1,.881-1.86,4.364,4.364,0,0,1,2.388-.885v-1.376h1.09v1.352a9.027,9.027,0,0,1,3.154.672l-.6,1.5a8.787,8.787,0,0,0-2.556-.606V-5.73l.623.238A5.689,5.689,0,0,1,8.3-4.23,2.336,2.336,0,0,1,8.9-2.608Zm-1.934.123a1.02,1.02,0,0,0-.332-.782,3.415,3.415,0,0,0-1.11-.594v2.614Q6.968-1.469,6.968-2.485ZM3.093-7.524a1.1,1.1,0,0,0,.291.778,2.988,2.988,0,0,0,1.053.614V-8.679a1.916,1.916,0,0,0-1,.4A.964.964,0,0,0,3.093-7.524Z" transform="translate(5.115 14.775)" fill="#fff"/>
</svg>
