<?xml version="1.0" encoding="UTF-8"?>
<!DOCTYPE svg PUBLIC "-//W3C//DTD SVG 1.1//EN" "http://www.w3.org/Graphics/SVG/1.1/DTD/svg11.dtd">
<svg version="1.1" xmlns="http://www.w3.org/2000/svg" xmlns:xlink="http://www.w3.org/1999/xlink" x="0" y="0" width="82" height="60" viewBox="0, 0, 82, 60">
  <g>
    <path d="M57.499,11.188 L57.499,11.201 L71.474,11.201 C76.327,11.41 79.276,14.991 79.741,19.588 L79.741,51.278 C79.741,55.912 75.972,59.684 71.341,59.684 L22.793,59.684 C20.665,59.687 18.616,58.879 17.063,57.424 C15.515,55.984 14.569,54.012 14.415,51.903 L14.39,51.56 L14.39,46.584 L14.391,46.584 L14.391,19.588 C14.391,14.958 18.16,11.188 22.793,11.188 L57.499,11.188 z M71.341,15.857 L22.793,15.857 C20.733,15.859 19.063,17.527 19.06,19.587 L19.06,29.013 L19.059,29.68 L19.061,29.68 L19.061,51.278 C19.063,53.339 20.732,55.01 22.793,55.014 L71.341,55.014 C73.402,55.01 75.071,53.339 75.072,51.278 L75.072,19.587 C75.069,17.528 73.4,15.859 71.341,15.857 z M42.996,42.559 L42.996,48.217 L24.17,48.217 L24.17,42.559 L42.996,42.559 z" fill="#000000"/>
    <path d="M59.738,0.7 C64.696,0.859 67.582,3.355 69.575,7.689 L64.323,7.689 C63.391,6.068 61.445,5.525 59.738,5.366 L12.678,5.366 C9.501,5.37 6.926,7.944 6.922,11.121 L6.922,40.828 C6.989,42.769 7.859,44.457 9.461,45.599 C9.914,45.921 10.486,46.031 10.999,46.247 L10.999,51.074 C5.831,50.225 2.516,45.925 2.258,40.828 L2.258,11.121 C2.258,5.375 6.932,0.7 12.678,0.7 L59.738,0.7 z" fill="#000000"/>
    <g>
      <path d="M56.085,35.183 C54.189,35.176 52.363,34.465 50.961,33.188 C49.685,32.148 48.513,30.986 47.461,29.72 C46.216,28.256 44.441,27.347 42.526,27.191 L17.999,27.191 L17.999,26.191 L42.569,26.191 C44.764,26.36 46.801,27.397 48.228,29.074 C49.246,30.3 50.38,31.423 51.616,32.429 C52.923,33.622 54.648,34.249 56.416,34.173 L75.94,34.173 L75.94,35.173 L56.44,35.173 C56.324,35.177 56.205,35.183 56.085,35.183 z" fill="#000000"/>
      <path d="M56.085,35.183 C54.189,35.176 52.363,34.465 50.961,33.188 C49.685,32.148 48.513,30.986 47.461,29.72 C46.216,28.256 44.441,27.347 42.526,27.191 L17.999,27.191 L17.999,26.191 L42.569,26.191 C44.764,26.36 46.801,27.397 48.228,29.074 C49.246,30.3 50.38,31.423 51.616,32.429 C52.923,33.622 54.648,34.249 56.416,34.173 L75.94,34.173 L75.94,35.173 L56.44,35.173 C56.324,35.177 56.205,35.183 56.085,35.183 z" fill-opacity="0" stroke="#000000" stroke-width="2"/>
    </g>
  </g>
</svg>
