<svg xmlns="http://www.w3.org/2000/svg" viewBox="0 0 21.536 20.998">
  <g transform="translate(-214.002 -406.002)">
    <g transform="translate(214.001 406)">
      <g transform="translate(0.538 0.538)" fill="none">
        <path
          d="M3.146,0H16.777a3.189,3.189,0,0,1,3.146,3.231V16.692a3.189,3.189,0,0,1-3.146,3.231H3.146A3.189,3.189,0,0,1,0,16.692V3.231A3.189,3.189,0,0,1,3.146,0Z"
          stroke="none" />
        <path
          d="M 3.145748138427734 1.5 C 2.238277435302734 1.5 1.499998092651367 2.276418685913086 1.499998092651367 3.230770111083984 L 1.499998092651367 16.69231033325195 C 1.499998092651367 17.64665985107422 2.238277435302734 18.4230785369873 3.145748138427734 18.4230785369873 L 16.77732849121094 18.4230785369873 C 17.68479919433594 18.4230785369873 18.4230785369873 17.64665985107422 18.4230785369873 16.69231033325195 L 18.4230785369873 3.230770111083984 C 18.4230785369873 2.276418685913086 17.68479919433594 1.5 16.77732849121094 1.5 L 3.145748138427734 1.5 M 3.145748138427734 0 L 16.77732849121094 0 C 18.51467895507812 0 19.9230785369873 1.44645881652832 19.9230785369873 3.230770111083984 L 19.9230785369873 16.69231033325195 C 19.9230785369873 18.47660827636719 18.51467895507812 19.9230785369873 16.77732849121094 19.9230785369873 L 3.145748138427734 19.9230785369873 C 1.408397674560547 19.9230785369873 -1.9073486328125e-06 18.47660827636719 -1.9073486328125e-06 16.69231033325195 L -1.9073486328125e-06 3.230770111083984 C -1.9073486328125e-06 1.44645881652832 1.408397674560547 0 3.145748138427734 0 Z"
          stroke="none" fill="#000" />
      </g>
    </g>
    <g transform="translate(218.465 410.214)">
      <path d="M10,10v3.678h3.678V10Zm2.627,2.627H11.051V11.051h1.576Z" transform="translate(-10 -10)" />
      <path d="M10,66.666v3.678h3.678V66.666Zm2.627,2.627H11.051V67.717h1.576Z" transform="translate(-10 -57.734)" />
      <path d="M66.667,10v3.678h3.678V10Zm2.627,2.627H67.718V11.051h1.576Z" transform="translate(-57.734 -10)" />
      <path d="M69.294,40v3.153H66.667V44.2h3.678V40Z" transform="translate(-57.734 -35.271)" />
      <path d="M66.667,73.334v2.627h1.051V74.385h1.576v1.576h1.051V73.334Z" transform="translate(-57.734 -63.35)" />
      <path d="M40,10v1.051h2.1v2.627h1.051V10Z" transform="translate(-35.271 -10)" />
      <path d="M42.1,40v2.1H40v3.153h2.1v2.627h1.051V44.2h-2.1V43.153h2.1v-2.1H44.2V42.1h1.051V40Z"
        transform="translate(-35.271 -35.271)" />
      <rect width="1.051" height="1.576" transform="translate(4.729 11.034)" />
      <rect width="1.576" height="1.051" transform="translate(2.102 6.831)" />
      <path d="M14.729,23.333V25.96H10v3.153h1.051v-2.1H15.78V23.333Z" transform="translate(-10 -21.231)" />
    </g>
  </g>
</svg>
