<svg xmlns="http://www.w3.org/2000/svg" viewBox="0 0 21.536 20.998">
  <g transform="translate(-214.002 -406.002) translate(214.001 406)">
    <g fill="none" mask="url(#qr-code-a)" transform="translate(0.538 0.538)">
      <path d="M3.146 0h13.631a3.189 3.189 0 013.146 3.231v13.461a3.189 3.189 0 01-3.146 3.231H3.146A3.189 3.189 0 010 16.692V3.231A3.189 3.189 0 013.146 0z"/>
      <path fill="#000" d="M3.14574814 1.5c-.9074707 0-1.64575005.77641869-1.64575005 1.73077011v13.46154022c0 .95434952.73827935 1.7307682 1.64575005 1.7307682h13.63158035c.9074707 0 1.64575005-.77641868 1.64575005-1.7307682V3.23077011C18.42307854 2.2764187 17.68479919 1.5 16.77732849 1.5H3.14574814m0-1.5h13.63158035c1.73735047 0 3.14575005 1.44645882 3.14575005 3.23077011v13.46154022c0 1.78429795-1.40839958 3.2307682-3.14575005 3.2307682H3.14574814c-1.73735047 0-3.14575005-1.44647025-3.14575005-3.2307682V3.23077011C-.0000019 1.44645881 1.40839767 0 3.14574814 0z"/>
    </g>
    <mask id="qr-code-a">
      <rect width="120%" height="120%" x="-10%" y="-10%" fill="#fff"/>
      <path d="M6.514 21v-6H-.3V6.5h6.814V-.3h8.516v6.8h6.508V15h-6.509v6z"/>
    </mask>
  </g>
  <path d="M4.463 4.212V7.89h3.678V4.212zM7.09 6.839H5.514V5.263H7.09zM4.463 13.144v3.678h3.678v-3.678zm2.627 2.627H5.514v-1.576H7.09zM13.396 4.212V7.89h3.678V4.212zm2.627 2.627h-1.576V5.263h1.576zM16.023 8.941v3.153h-2.627v1.047h3.678v-4.2zM13.396 14.196v2.627h1.051v-1.576h1.576v1.576h1.051v-2.627zM9.192 4.212v1.051h2.1V7.89h1.051V4.212z"/>
  <path d="M11.292 8.941v2.1h-2.1v3.153h2.1v2.627h1.051v-3.68h-2.1v-1.047h2.1v-2.1h1.049v1.047h1.051v-2.1z"/>
  <path d="M9.192 15.246h1.051v1.576H9.192zM6.565 11.043h1.576v1.051H6.565z"/>
  <path d="M9.192 6.314v2.627H4.463v3.153h1.051v-2.1h4.729v-3.68z"/>
</svg>
