<svg height="19.211" viewBox="0 0 15.649 19.211" width="15.649" xmlns="http://www.w3.org/2000/svg" xmlns:xlink="http://www.w3.org/1999/xlink"><clipPath id="a"><path d="m4.649 19.211h-4.649v-19.211h15.648v4.875h-3.386v1.967h-7.613v8.246h11v4.123z"/></clipPath><g><g clip-path="url(#a)" fill="none" stroke="var(--icon-color, --boxel-light)" stroke-linecap="round" stroke-linejoin="round" stroke-width="1.5"><path d="m13.221 4h1.537a1.537 1.537 0 0 1 1.537 1.537v10.757a1.537 1.537 0 0 1 -1.537 1.537h-9.221a1.537 1.537 0 0 1 -1.537-1.537v-10.757a1.537 1.537 0 0 1 1.537-1.537h1.537" transform="translate(-2.438 .097)"/><rect height="3.074" rx="1" transform="translate(4.636 2.561)" width="6.147"/></g><g fill="var(--icon-color, --boxel-light)" stroke="none"><g><circle cx="5.999" cy="10.7" r="1"/><circle cx="5.999" cy="10.7" r="1.1"/></g><g><circle cx="9.999" cy="10.7" r="1"/><circle cx="9.999" cy="10.7" r="1.1"/></g><g><circle cx="13.999" cy="10.7" r="1"/><circle cx="13.999" cy="10.7" r="1.1"/></g></g></g></svg>
