<svg xmlns="http://www.w3.org/2000/svg" width="51.127" height="36.023" viewBox="0 0 51.127 36.023"><g transform="translate(14799.878 -10740.25)"><path d="M110.2,100.8a2.177,2.177,0,0,0-2.158,2.158v3.287c-.358-.026-.714-.05-1.079-.05a14.565,14.565,0,1,0,12.1,22.656H132.86a2.177,2.177,0,0,0,2.158-2.158v-6.473h4.855a2.177,2.177,0,0,0,2.158-2.158v-6.473a2.178,2.178,0,0,0-2.158-2.158h-2.7v-6.473a2.177,2.177,0,0,0-2.158-2.158Zm0,2.158h24.814v6.473H116.1a14.5,14.5,0,0,0-5.9-2.866Zm-3.236,5.394a12.407,12.407,0,1,1-12.407,12.407A12.391,12.391,0,0,1,106.967,108.352Zm11.295,3.237h21.611v6.473h-18.61a14.537,14.537,0,0,0-3-6.473Zm3.253,8.631H132.86v6.473H120.268a14.5,14.5,0,0,0,1.264-5.934c0-.182-.01-.359-.017-.54Z" transform="translate(-14891.531 10640.2)" fill="#03c4bf" stroke="#03c4bf" stroke-width="1.5"/><path d="M258.849,146.094h2.233a1.117,1.117,0,0,1,1.116,1.117h2.233a3.349,3.349,0,0,0-3.349-3.349v-2.233h-2.233v2.233a3.349,3.349,0,0,0-3.349,3.349v2.233h0a3.349,3.349,0,0,0,3.349,3.349v2.233h2.233v-2.233a3.349,3.349,0,0,0,3.349-3.349H262.2a1.117,1.117,0,0,1-1.116,1.117h-2.233a1.116,1.116,0,0,1-1.116-1.117V147.21h0a1.116,1.116,0,0,1,1.116-1.117Z" transform="translate(-15044.622 10613.006)" fill="#03c4bf" stroke="#03c4bf" stroke-linecap="round" stroke-linejoin="round" stroke-width="0.75"/></g></svg>