<svg height="13.576" viewBox="0 0 20.166 13.576" width="20.166" xmlns="http://www.w3.org/2000/svg"><g fill="none" stroke="#000" stroke-linecap="round" stroke-linejoin="round" stroke-width="1.5"><path d="m11.667 19v-1.333a2.667 2.667 0 0 0 -2.667-2.667h-5.333a2.667 2.667 0 0 0 -2.667 2.667v1.333" transform="translate(3.75 -6.174)"/><circle cx="10.084" cy="3.493" r="2.667"/><path d="m22 19.043v-1.333a2.667 2.667 0 0 0 -2-2.58" transform="translate(-2.584 -6.217)"/><path d="m16 3.13a2.667 2.667 0 0 1 0 5.17" transform="translate(-1.25 -2.217)"/><path d="m20 19.043v-1.333a2.667 2.667 0 0 1 2-2.58" transform="translate(-19.25 -6.217)"/><path d="m18.005 3.13a2.667 2.667 0 0 0 0 5.167" transform="translate(-12.589 -2.217)"/></g></svg>