<svg xmlns="http://www.w3.org/2000/svg" width="24" height="21.006" viewBox="0 0 24 21.006"><path d="M550.481,479.007l-1.676-3.154,9.8-16.723,1.838-1.09,1.789,1.09,9.809,16.723-1.549,3.154Z" transform="translate(-548.422 -458.001)" fill="#ffa700"/><path d="M-.294-3.388H-2.637l-.49-6.924H.2ZM-3.165-.1a1.61,1.61,0,0,1,.432-1.22,1.752,1.752,0,0,1,1.258-.413,1.7,1.7,0,0,1,1.234.423A1.606,1.606,0,0,1,.2-.1a1.606,1.606,0,0,1-.442,1.2,1.672,1.672,0,0,1-1.229.437A1.722,1.722,0,0,1-2.723,1.1,1.6,1.6,0,0,1-3.165-.1Z" transform="translate(13.433 16.73)" fill="#fff" stroke="rgba(0,0,0,0)" stroke-width="1"/><circle cx="2" cy="2" r="2" transform="translate(10)" fill="#fa0"/><circle cx="2" cy="2" r="2" transform="translate(0 17)" fill="#fa0"/><circle cx="2" cy="2" r="2" transform="translate(20 17)" fill="#fa0"/></svg>