<svg height="35" data-name="Cardpay logo" viewBox="0 0 101.85 27" xmlns="http://www.w3.org/2000/svg"><g data-name="Group 12246"><path d="M42.585 11.969a3.22 3.22 0 0 0-2.319-.908 2.213 2.213 0 0 0-2.219 2.493 2.261 2.261 0 0 0 2.3 2.491 3.5 3.5 0 0 0 2.406-.893v2.19a4.552 4.552 0 0 1-2.506.635 4.423 4.423 0 0 1 0-8.845 4.476 4.476 0 0 1 2.334.547z" data-name="Path 8903"/><path d="m47 16.2-.59 1.627h-2.262l3.328-8.556h2.578l3.327 8.556h-2.347l-.577-1.627zm1.758-4.784-1.109 3.039h2.19z" data-name="Path 8904"/><path d="M57.232 17.831H55.1V9.318a18.863 18.863 0 0 1 2.707-.187c2.191 0 3.66.922 3.66 2.966a2.8 2.8 0 0 1-1.541 2.536l2.291 3.2h-2.522l-1.844-2.737h-.618zm0-4.495h.532c.893 0 1.527-.3 1.527-1.181s-.662-1.167-1.47-1.167c-.173 0-.475.015-.59.029z" data-name="Path 8905"/><path d="M63.94 9.347a20.519 20.519 0 0 1 2.866-.216c2.852 0 4.8 1.469 4.8 4.335 0 3.127-2.031 4.48-4.855 4.48a15.5 15.5 0 0 1-2.809-.2zm2.146 6.684c.259.029.62.042.923.042 1.426 0 2.391-.821 2.391-2.607a2.2 2.2 0 0 0-2.434-2.363 8.753 8.753 0 0 0-.879.043z" data-name="Path 8906"/><path d="M79.544 17.831H77.4V9.347a19.689 19.689 0 0 1 2.795-.216c2.118 0 3.63.978 3.63 3.154 0 2.234-1.714 3.07-3.515 3.07-.259 0-.59-.015-.764-.03zm0-4.336a6.356 6.356 0 0 0 .649.029c.879 0 1.469-.36 1.469-1.239 0-.906-.691-1.238-1.469-1.238a4.938 4.938 0 0 0-.649.043z" data-name="Path 8907"/><path d="m87.31 16.2-.59 1.627h-2.262l3.328-8.556h2.578l3.327 8.556h-2.347l-.577-1.627zm1.758-4.784-1.109 3.039h2.19z" data-name="Path 8908"/><path d="M99.4 9.27h2.377l-3.083 5.444v3.112h-2.135v-3.112L93.491 9.27h2.363l1.815 3.4z" data-name="Path 8909"/></g><g data-name="Group 12248"><path d="M18.483 14.347c0-4.02-6.113-3.885-6.113-5.844 0-.652.442-1.121 1.458-1.121a4.064 4.064 0 0 1 2.455 1.044l1.188-1.61a6.169 6.169 0 0 0-3.78-1.345c-2.34 0-3.64 1.368-3.64 3.122a2.659 2.659 0 0 0 .671 1.809 3.361 3.361 0 0 0-1.912 2.831c0 4.115 6.018 3.767 6.018 5.873 0 .691-.546 1.22-1.589 1.22a3.611 3.611 0 0 1-2.64-1.143l-1.49 1.336a5.386 5.386 0 0 0 4.129 1.717c2.432 0 3.894-1.39 3.894-3.252a2.735 2.735 0 0 0-.577-1.734 3.236 3.236 0 0 0 1.928-2.903zm-7.49-1.281a1.777 1.777 0 0 1 1.143-1.6c1.817.963 4.165 1.416 4.165 3.082a1.666 1.666 0 0 1-1.116 1.6c-1.798-1.014-4.192-1.44-4.192-3.078z" data-name="Path 8910"/><g data-name="Group 12247"><path d="M26.926 4.434a4.749 4.749 0 0 0-4.4-4.4A4.936 4.936 0 0 0 21.985 0h-3.552a1.415 1.415 0 0 0-.6.137.875.875 0 0 0-.339.226 1.415 1.415 0 0 0 .939 2.479h2.073l1.478.005a2.835 2.835 0 0 1 .537.058 2.511 2.511 0 0 1 .322.092c.04.014.083.028.12.044a1.925 1.925 0 0 1 .275.142c.039.024.075.05.11.077a1.544 1.544 0 0 1 .193.162 1.6 1.6 0 0 1 .162.194c.027.035.053.071.078.11a2.124 2.124 0 0 1 .142.275c.016.039.029.08.043.121a2.4 2.4 0 0 1 .092.32 2.845 2.845 0 0 1 .058.537c0 .587 0 1.072.005 1.478v2.074a1.416 1.416 0 0 0 2.479.94.89.89 0 0 0 .225-.34 1.409 1.409 0 0 0 .138-.6V4.97a4.925 4.925 0 0 0-.037-.536z" data-name="Path 8911"/><path d="M9.1.134a1.409 1.409 0 0 0-.6-.137H4.948a4.95 4.95 0 0 0-.541.034 4.75 4.75 0 0 0-4.4 4.4 4.954 4.954 0 0 0-.035.541v3.552a1.407 1.407 0 0 0 .137.6.893.893 0 0 0 .226.34 1.416 1.416 0 0 0 2.48-.94V4.972a2.94 2.94 0 0 1 .057-.537 2.494 2.494 0 0 1 .092-.32c.015-.041.028-.083.044-.121a2.063 2.063 0 0 1 .142-.275c.025-.039.05-.075.077-.11a1.812 1.812 0 0 1 .162-.194 1.667 1.667 0 0 1 .193-.162 1.44 1.44 0 0 1 .11-.077 1.907 1.907 0 0 1 .275-.142c.038-.016.08-.03.121-.044a2.486 2.486 0 0 1 .321-.092 2.835 2.835 0 0 1 .537-.058l1.478-.005h2.073a1.415 1.415 0 0 0 .94-2.479A.876.876 0 0 0 9.1.134z" data-name="Path 8912"/><path d="M26.6 17.531a1.416 1.416 0 0 0-2.479.94v2.073c0 .406 0 .891-.005 1.478a2.836 2.836 0 0 1-.058.537 2.446 2.446 0 0 1-.092.321c-.015.04-.027.083-.043.121a2.082 2.082 0 0 1-.142.275 1.8 1.8 0 0 1-.078.11 1.6 1.6 0 0 1-.162.193 1.624 1.624 0 0 1-.193.163 1.93 1.93 0 0 1-.11.077 2.017 2.017 0 0 1-.275.142c-.038.016-.08.03-.12.044a2.644 2.644 0 0 1-.322.091 2.826 2.826 0 0 1-.537.059h-3.551a1.416 1.416 0 0 0-.939 2.479.884.884 0 0 0 .339.226 1.414 1.414 0 0 0 .6.137h3.552a4.927 4.927 0 0 0 .541-.035 4.747 4.747 0 0 0 4.4-4.4 4.892 4.892 0 0 0 .035-.54V18.47a1.409 1.409 0 0 0-.138-.6.884.884 0 0 0-.223-.339z" data-name="Path 8913"/><path d="M8.5 24.159H4.949a2.827 2.827 0 0 1-.537-.059 2.616 2.616 0 0 1-.321-.091c-.041-.014-.083-.028-.121-.044a2 2 0 0 1-.275-.142 2.367 2.367 0 0 1-.11-.077 1.76 1.76 0 0 1-.193-.163 1.813 1.813 0 0 1-.162-.193 1.79 1.79 0 0 1-.077-.11 2.024 2.024 0 0 1-.142-.275c-.016-.038-.03-.08-.044-.121a2.545 2.545 0 0 1-.092-.321 2.93 2.93 0 0 1-.057-.537v-3.551a1.416 1.416 0 0 0-2.48-.94.887.887 0 0 0-.226.34 1.407 1.407 0 0 0-.137.6v3.552a4.922 4.922 0 0 0 .035.54 4.748 4.748 0 0 0 4.4 4.4 4.941 4.941 0 0 0 .541.035h3.552a1.408 1.408 0 0 0 .6-.137.885.885 0 0 0 .34-.226 1.416 1.416 0 0 0-.94-2.479z" data-name="Path 8914"/></g></g></svg>
