<svg xmlns="http://www.w3.org/2000/svg" viewBox="0 0 18.693 18.086">
  <defs>
    <clipPath id="github-logo-clippath">
      <path
        d="M160.069-6.617c.413-.081.793-.139 1.163-.232a3.613 3.613 0 0 0 2.568-1.906 5.158 5.158 0 0 0 .382-3.419 3.186 3.186 0 0 0-.719-1.385.27.27 0 0 1-.069-.294 3.367 3.367 0 0 0-.088-2.155.216.216 0 0 0-.244-.167 2.987 2.987 0 0 0-1.254.338c-.331.162-.644.362-.973.53a.513.513 0 0 1-.322.058 9.117 9.117 0 0 0-4.353 0 .441.441 0 0 1-.3-.052 5.551 5.551 0 0 0-1.96-.851c-.436-.073-.478-.051-.6.36a3.378 3.378 0 0 0-.016 1.969.261.261 0 0 1-.037.213 3.947 3.947 0 0 0-.819 3.315 5.87 5.87 0 0 0 .229 1.014 3.617 3.617 0 0 0 2.768 2.433c.377.1.764.156 1.168.238a2.207 2.207 0 0 0-.548 1.13.221.221 0 0 1-.122.133 1.943 1.943 0 0 1-2.573-.759 1.942 1.942 0 0 0-1.282-.981 1.182 1.182 0 0 0-.458.014c-.17.036-.194.142-.079.276a1.009 1.009 0 0 0 .233.2 2.512 2.512 0 0 1 1.036 1.272 2.047 2.047 0 0 0 1.933 1.318 12.3 12.3 0 0 0 1.278-.049c0 .57.013 1.162-.005 1.752-.01.312-.323.464-.675.35a8.341 8.341 0 0 1-2.222-1.094 9 9 0 0 1-4.1-8.169 9.216 9.216 0 0 1 7.562-8.611 9.35 9.35 0 0 1 10.829 6.795 9.271 9.271 0 0 1-6.01 11.069c-.455.15-.726-.042-.726-.518 0-.755 0-1.51.008-2.265a2.506 2.506 0 0 0-.6-1.871"
        transform="translate(-149 20)" style="fill:none;clip-rule:evenodd" />
    </clipPath>
  </defs>
  <g style="clip-path:url(#github-logo-clippath)">
    <path  d="M144-25h28.039V2.433H144Z" transform="translate(-148.673 20.327)"
      style="fill:var(--icon-color,#fff)" />
  </g>
</svg>
