<svg height="44.881" viewBox="0 0 41.653 44.881" width="41.653"
  xmlns="http://www.w3.org/2000/svg"
  xmlns:xlink="http://www.w3.org/1999/xlink">
  <linearGradient id="cs-logo-eng-a" gradientUnits="objectBoundingBox" x1=".5" x2=".5" y2="1">
    <stop offset="0" stop-color="#f5f5f5"/>
    <stop offset="1" stop-color="#e6e6e6"/>
  </linearGradient>
  <g fill="#9b9b9b" opacity=".5">
    <path d="m86.6 339.559 9.1-4.535-20.821-10.379-9.041 4.506z" transform="translate(-65.771 -295.387)"/>
    <path d="m98.3 315 9.065-4.519-32.542-16.228-9.065 4.519z" transform="translate(-65.722 -276.686)"/>
    <path d="m135.769 303.3 9.072-4.524-9.065-4.519-9.072 4.524z" transform="translate(-103.224 -276.686)"/>
    <path d="m74.734 263.823-9.07 4.522 20.826 10.384 9.072-4.524z" transform="translate(-65.664 -257.961)"/>
    <path d="m135.776 272.881 9.1-4.536-9.07-4.522-9.1 4.536z" transform="translate(-103.225 -257.961)"/>
    <path d="m105.245 248.583-9.1 4.539 9.1 4.536 9.1-4.536z" transform="translate(-84.42 -248.583)"/>
  </g>
  <path d="m.067 33.764 9.042-4.506 20.817 10.378-9.1 4.536zm-.031-11.678 9.064-4.519 32.544 16.227-9.064 4.518zm23.444.006 9.072-4.524 9.064 4.518-9.072 4.525zm-23.48-11.708 9.07-4.521 20.83 10.381-9.072 4.524zm23.48.014 9.1-4.536 9.07 4.522-9.1 4.536zm-11.755-5.859 9.101-4.539 9.1 4.539-9.1 4.536z" fill="url(#cs-logo-eng-a)" transform="translate(0 .709)"/>
</svg>