<svg xmlns="http://www.w3.org/2000/svg" viewBox="0 0 70 70">
  <g transform="translate(5351 -14652)">
    <rect width="70" height="70" rx="18" transform="translate(-5351 14652)" fill="#281e78"/>
    <path fill="none" opacity=".5" d="M-5336 14667h40v40h-40z"/>
    <path d="M-5333 14680.004v-5s0-4.979 5-5 5 0 5 0" fill="none" stroke="#37eb77" stroke-linecap="round" stroke-width="4"/>
    <path d="M-5333 14693.995v5s0 4.979 5 5 5 0 5 0" fill="none" stroke="#37eb77" stroke-linecap="round" stroke-width="4"/>
    <path d="M-5299 14680.004v-5s0-4.979-5-5-5 0-5 0" fill="none" stroke="#37eb77" stroke-linecap="round" stroke-width="4"/>
    <path d="M-5299 14693.995v5s0 4.979-5 5-5 0-5 0" fill="none" stroke="#37eb77" stroke-linecap="round" stroke-width="4"/>
    <text transform="translate(-5324 14699)" fill="#00ebe5" font-size="31" font-family="OpenSans-Bold, Open Sans" font-weight="700" letter-spacing=".01em">
      <tspan x="0" y="0">ยง</tspan>
    </text>
  </g>
</svg>