<svg xmlns="http://www.w3.org/2000/svg" viewBox="0 0 70 70">
  <rect width="70" height="70" fill="#281e78" rx="18" transform="translate(-258.555 -863.026) translate(258.555 863.027)"/>
  <path fill="none" d="M15 15.001h40v40H15z"/>
  <path fill="#00ebe5" d="M42.725 52.174a1.7 1.7 0 0 1-1.7-1.7l-.015-5.223a2.1 2.1 0 0 0-2.1-2.053h-7.711a2.076 2.076 0 0 0-2.138 2.073l.015 5.2a1.7 1.7 0 1 1-3.393 0l-.015-5.223a5.469 5.469 0 0 1 5.55-5.445h7.711a5.492 5.492 0 0 1 5.47 5.426l.015 5.242a1.7 1.7 0 0 1-1.689 1.703z"/>
  <g fill="#00ebe5">
    <path d="M35.054 31.074a3.817 3.817 0 1 1-3.817 3.817 3.817 3.817 0 0 1 3.817-3.817z"/>
    <path d="M35.054 40.402a5.513 5.513 0 1 1 5.513-5.514 5.52 5.52 0 0 1-5.513 5.514zm0-7.634a2.12 2.12 0 1 0 2.12 2.12 2.123 2.123 0 0 0-2.12-2.12z"/>
  </g>
  <path fill="#37eb77" d="M53.282 52.149a2 2 0 0 1-2-2V31.641L35.029 20.563 18.745 31.642v18.507a2 2 0 0 1-4 0V30.583a2 2 0 0 1 .875-1.653l18.29-12.44a2 2 0 0 1 2.251 0l18.252 12.44a2 2 0 0 1 .874 1.652v19.566a2 2 0 0 1-2.005 2.001z"/>
</svg>