<svg viewBox="0 0 20.502 19.747" xmlns="http://www.w3.org/2000/svg"><g fill="var(--icon-color, #000)" stroke="var(--icon-color, #000)" stroke-linecap="round" stroke-linejoin="round" stroke-width=".4" transform="translate(-440.985 -702.607)"><path d="m446.324 709.494h4.534a.59.59 0 0 0 0-1.18h-4.534a.59.59 0 0 0 0 1.18z" transform="translate(2.607 3.157)"/><path d="m446.324 713.493h4.534a.59.59 0 0 0 0-1.18h-4.534a.59.59 0 0 0 0 1.18z" transform="translate(2.607 5.449)"/><path d="m458.583 703.752-.3-.544-.261-.234-.415-.167h-12.744l-.415.167-.261.234-.3.544-2.7 4.952h.025v12.269a1.179 1.179 0 0 0 1.178 1.18h17.693a1.18 1.18 0 0 0 1.18-1.18v-12.273h.025zm-13.635.241h12.576l2.092 4.081h-16.76zm14.937 16.784h-17.3v-4.977h17.3zm0-6.162h-17.3v-5.152h17.3z"/></g></svg>
