<svg xmlns="http://www.w3.org/2000/svg" width="21.162" height="21.162" viewBox="0 0 21.162 21.162"><path d="M24.045,10.643V9.938a2.119,2.119,0,0,0-2.116-2.116V7.116A2.119,2.119,0,0,0,19.813,5H11.348A2.119,2.119,0,0,0,9.232,7.116v.705A2.119,2.119,0,0,0,7.116,9.938v.705A2.119,2.119,0,0,0,5,12.759V24.045a2.119,2.119,0,0,0,2.116,2.116H24.045a2.119,2.119,0,0,0,2.116-2.116V12.759A2.119,2.119,0,0,0,24.045,10.643Zm-13.4-3.527a.706.706,0,0,1,.705-.705h8.465a.706.706,0,0,1,.705.705v.705H10.643ZM8.527,9.938a.706.706,0,0,1,.705-.705h12.7a.706.706,0,0,1,.705.705v.705H8.527ZM24.751,24.045a.706.706,0,0,1-.705.705H7.116a.706.706,0,0,1-.705-.705V12.759a.706.706,0,0,1,.705-.705H24.045a.706.706,0,0,1,.705.705Z" transform="translate(-5 -5)" fill="#00ebe5"/></svg>