<svg xmlns="http://www.w3.org/2000/svg" width="17" height="17" viewBox="0 0 17 17"><g fill="var(--icon-color, #000)"><path d="M13.706,4.781,15.3,3.188,13.813,1.7,12.219,3.294A5.85,5.85,0,0,0,9.563,2.231V0H7.438V2.231A7.345,7.345,0,0,0,4.781,3.294L3.294,1.7,1.7,3.294,3.294,4.887a5.031,5.031,0,0,0-1.062,2.55H0V9.563H2.231a7.345,7.345,0,0,0,1.063,2.656L1.7,13.813,3.188,15.3l1.594-1.594a5.85,5.85,0,0,0,2.656,1.063V17H9.563V14.769a7.345,7.345,0,0,0,2.656-1.062L13.813,15.3,15.3,13.813l-1.594-1.594a5.85,5.85,0,0,0,1.063-2.656H17V7.438H14.769A5.85,5.85,0,0,0,13.706,4.781ZM8.5,11.688A3.131,3.131,0,0,1,5.313,8.5,3.131,3.131,0,0,1,8.5,5.313,3.131,3.131,0,0,1,11.688,8.5,3.131,3.131,0,0,1,8.5,11.688Z"/></g></svg>