<svg xmlns="http://www.w3.org/2000/svg" viewBox="0 0 15.5 15.5"><g fill="none" stroke="var(--icon-color, #000)" stroke-linecap="round" stroke-linejoin="round" stroke-width="1.5"><path d="M12,2V4.8" transform="translate(0.75 0.75) translate(-5 -2)"/><path d="M12,18v2.8" transform="translate(0.75 0.75) translate(-5 -6.8)"/><path d="M4.93,4.93,6.911,6.911" transform="translate(0.75 0.75) translate(-2.879 -2.879)"/><path d="M16.24,16.24l1.981,1.981" transform="translate(0.75 0.75) translate(-6.272 -6.272)"/><path d="M2,12H4.8" transform="translate(0.75 0.75) translate(-2 -5)"/><path d="M18,12h2.8" transform="translate(0.75 0.75) translate(-6.8 -5)"/><path d="M4.93,18.221,6.911,16.24" transform="translate(0.75 0.75) translate(-2.879 -6.272)"/><path d="M16.24,6.911,18.221,4.93" transform="translate(0.75 0.75) translate(-6.272 -2.879)"/></g></svg>