<svg xmlns="http://www.w3.org/2000/svg" viewBox="0 0 34 29.853">
  <g fill="var(--icon-color, #00ebe5)">
    <path d="M27.314 12.013V2.932A2.945 2.945 0 0024.383 0H2.932A2.945 2.945 0 000 2.932v14.157a2.945 2.945 0 002.932 2.932h12.942a5.28 5.28 0 00-.036.751 9.081 9.081 0 1011.476-8.759zM2.932 2.074h21.415a.87.87 0 01.858.858v2.324H2.074V2.932a.87.87 0 01.858-.858zm0 15.838a.87.87 0 01-.858-.858v-8.08h23.131v2.717h-.322a9.11 9.11 0 00-8.616 6.221zm21.952 9.832a6.972 6.972 0 116.972-6.972 6.981 6.981 0 01-6.973 6.971z"/>
    <path d="M25.192 19.237h-.766a.877.877 0 01-.651-.307 1.07 1.07 0 01-.23-.69.915.915 0 01.92-.766h.92a.537.537 0 01.537.46.368.368 0 00.345.268h1.035a.348.348 0 00.268-.115.237.237 0 00.077-.268 2.281 2.281 0 00-1.993-2.031v-.881a.343.343 0 00-.345-.345h-1.037a.343.343 0 00-.345.345v.92a2.576 2.576 0 00-2.108 2.8 2.667 2.667 0 002.683 2.335h.651a.877.877 0 01.651.307 1.07 1.07 0 01.23.69.915.915 0 01-.92.766h-.92a.537.537 0 01-.537-.46.368.368 0 00-.345-.268H22.28a.348.348 0 00-.268.115.323.323 0 00-.077.268 2.281 2.281 0 001.993 2.031v.881a.343.343 0 00.345.345h1.035a.343.343 0 00.345-.345v-.92a2.6 2.6 0 002.108-2.261 2.627 2.627 0 00-2.568-2.874z"/>
  </g>
</svg>