<svg xmlns="http://www.w3.org/2000/svg" width="15.32" height="16.548" viewBox="0 0 15.32 16.548"><path d="M9.952,15.454V15.02H5.068v.435a.794.794,0,0,1-1.587,0V15.02H2.809A2.812,2.812,0,0,1,0,12.211v-9.4A2.812,2.812,0,0,1,2.809,0h9.4A2.812,2.812,0,0,1,15.02,2.809v9.4a2.812,2.812,0,0,1-2.809,2.809h-.672v.435a.794.794,0,0,1-1.587,0ZM1.587,2.809v9.4a1.221,1.221,0,0,0,1.221,1.221h9.4a1.221,1.221,0,0,0,1.221-1.221V8.3H10.156a2.687,2.687,0,1,1-.038-1.587h3.314V2.809a1.221,1.221,0,0,0-1.221-1.221h-9.4A1.221,1.221,0,0,0,1.587,2.809ZM6.472,7.571a1.1,1.1,0,1,0,1.1-1.1A1.1,1.1,0,0,0,6.472,7.571Z" transform="translate(0.15 0.15)" fill="var(--icon-color, #000)" stroke="var(--icon-color, #000)" stroke-linecap="round" stroke-width="0.3"/></svg>