<svg viewBox="0 0 19.056 17.723" xmlns="http://www.w3.org/2000/svg"><g fill="var(--icon-color, #000)"><path d="m25.349 38.184-7.527-7.527 8.835-8.835 7.527 7.527zm-4.909-7.527 4.909 4.908 6.218-6.218-4.91-4.907z" transform="translate(-17.822 -20.842)"/><path d="m27.628 44.912-5.563-5.563.895-1.349h11.107z" transform="translate(-20.101 -29.533)"/><path d="m0 0h2.314v1.851h-2.314z" transform="matrix(.707 .707 -.707 .707 7.854 0)"/><path d="m0 0h2.313v1.851h-2.313z" transform="matrix(.70710678 .70710678 -.70710678 .70710678 15.707 7.852)"/><path d="m54.165 49.47a2.336 2.336 0 0 1 -2.083 2.083c-.318 0-2.083-.677-2.083-2.083a5.315 5.315 0 0 1 2.084-3.47 5.424 5.424 0 0 1 2.082 3.47z" transform="translate(-35.109 -33.83)"/></g></svg>