<svg xmlns="http://www.w3.org/2000/svg" width="14.826" height="14.838" viewBox="0 0 14.826 14.838"><path d="M8.8,14.838H2.318A2.319,2.319,0,0,1,0,12.519V6.547H0q0-.028,0-.056V2.513A2.835,2.835,0,0,1,2.852,0H9.726a2.318,2.318,0,0,1,2.318,2.318V3.709h.464a2.319,2.319,0,0,1,2.318,2.318v6.491a2.319,2.319,0,0,1-2.318,2.318Zm3.709-1.855a.463.463,0,0,0,.464-.464V6.028a.463.463,0,0,0-.464-.464H2.782A2.764,2.764,0,0,1,1.855,5.4v1.09q0,.028,0,.056h0v5.972a.463.463,0,0,0,.464.464H12.507ZM2.08,2.158a.928.928,0,0,0-.236.716.955.955,0,0,0,.969.835h7.377V2.318a.464.464,0,0,0-.464-.464H2.766A.928.928,0,0,0,2.08,2.158ZM9.726,9.273a.927.927,0,1,1,.927.927A.927.927,0,0,1,9.726,9.273Z" fill="var(--icon-color, #000)"/></svg>