<svg xmlns="http://www.w3.org/2000/svg" xmlns:xlink="http://www.w3.org/1999/xlink" width="1152" height="450" viewBox="0 0 1152 450"><defs><clipPath id="a"><rect width="1152" height="450" rx="20" transform="translate(258 210)" fill="#f7f7f7"/></clipPath><linearGradient id="b" x1="1" x2="0.088" y2="1" gradientUnits="objectBoundingBox"><stop offset="0" stop-color="#00ebff"/><stop offset="0.607" stop-color="#21ebad"/><stop offset="1" stop-color="#c3fc33"/></linearGradient></defs><g transform="translate(-258 -210)"><g clip-path="url(#a)"><g transform="translate(242.612 4.295)"><g transform="translate(0 0)"><path d="M863.7,699.941c-13.9-41.411-26.9-82.56-39.01-121.423-28.22-90.139-51.672-166.471-76.355-231.366-20.708-54.293-44.508-107.477-71.915-134.271-6.3-6.181-12.666-10.432-18.977-15.52-5.945-4.793-11.817-9.682-17.6-14.411-12.639-10.327-24.9-19.915-37.108-27.72-22.83-14.637-47.034-25.025-71.92-17.47-11.189,3.429-21.607,10.669-30.338,21.084-11.011,13.1-18.612,29.665-24.876,46.889A150.264,150.264,0,0,1,456.2,242.872a174.141,174.141,0,0,1-24.647,26.76c-35.9,32.311-75.694,54.142-108.725,122.849-4.868,10.149-9.035,20.76-13.991,31.111-4.911,10.259-10.233,20.22-15.724,29.7a609.215,609.215,0,0,1-39.638,59.4c-30.613,41.062-60.77,74.92-90.711,109.183-28.744,32.987-58.836,65.957-88.257,109.161-6.308,9.275-12.579,19.119-18.63,29.7-4.953,8.656-9.541,18-14.408,26.715-7.936,14.2-16.364,26.623-24.824,35.851C1,840.379-13.286,845.17-26.712,847.192c-15.3,2.3-30.313,1.543-47.159,6.623a114.247,114.247,0,0,0-28.476,13.464c-9.376,6-18.423,10.013-27.143,8.325-14.389-2.843-24.2-19.677-33.442-37.506-9.947-19.283-20.328-40.048-35.977-50.162-25.376-16.492-51.6-2.855-74.537,6.242-39.8,15.934-76.167,24.157-113.687,1.947-18.27-10.93-36.8-28.509-56.309-58.2-15.018-22.838-31.3-53.6-48.288-101.346q.1-12.673.2-25.35c17.035,46.806,33.281,77.387,48.445,100.2,19.265,28.984,37.618,46.3,55.729,57.047,37.094,21.793,73.108,13.885,112.309-1.635,22.894-8.958,49.129-23.716,74.36-6.137,16.2,11.243,27.455,33.222,38.33,52.877,9.858,17.737,20.328,35.03,35.144,37.2,8.491,1.216,17.185-3.182,26.2-9.926A125.9,125.9,0,0,1-72.6,824.442c16.98-6.788,32.324-7.354,47.67-10.15,13.735-2.5,28.044-7.028,43.7-22.63,8.24-8.209,16.575-19.333,24.57-32.521,4.84-7.986,9.482-16.643,14.373-24.6,6.119-9.955,12.377-19.249,18.644-28.087,29.055-40.907,58.4-73.7,86.929-107.147,29.443-34.441,59.137-69.092,89.11-109.983a707.437,707.437,0,0,0,39.52-59.344c5.528-9.376,10.918-19.159,15.973-29.228,5.1-10.157,9.433-20.577,14.364-30.575,33.13-66.955,71.618-87.77,107.279-119.395,18.705-16.571,34.8-37.092,44.765-62.181,6.544-16.44,14.072-31.781,25.062-44.054,9.048-10.063,19.63-17.047,30.918-20.406,25.244-7.549,49.874,1.7,73.32,15.813,12.307,7.392,24.647,16.591,37.321,26.633,5.746,4.555,11.57,9.29,17.455,13.957,6.268,4.971,12.576,9.285,18.812,15.619,26.952,27.319,50.5,77.332,71.613,130.887,24.548,62.443,48,136.107,75.6,223.206,12.226,38.737,25.232,79.784,39.092,121.9Q863.591,686.05,863.7,699.941Z" transform="translate(499.2 -121.442)" fill="url(#b)"/><path d="M862.842,805.681c-13.743-40.7-26.621-81.7-38.607-120.255-28.9-92.543-53.229-171.439-78.729-238.32-20.969-54.884-45.255-109.848-72.766-136.319-6.35-6.141-12.766-10.547-19.126-15.675-5.972-4.813-11.884-9.614-17.735-14.224-12.292-9.685-24.3-18.546-36.3-25.66-22.1-13.152-45.366-21.761-69.031-13.653-24.134,8.355-42.809,34.757-55.9,67.384A165.724,165.724,0,0,1,454.607,346a197.966,197.966,0,0,1-24.967,27.484c-35.91,33.391-75.5,57.807-108.772,126.175-4.959,10.2-9.3,20.908-14.355,31.276-5.065,10.395-10.49,20.463-16.074,30.033a602.307,602.307,0,0,1-39.277,58.58c-29.691,39.563-58.827,71.884-87.816,105.04-28.087,32.182-57.474,64.965-86.293,107.977-6.385,9.54-12.724,19.646-18.853,30.423-4.973,8.745-9.627,18.126-14.553,26.819-8,14.122-16.452,26.435-24.911,35.95C2.7,943.8-12.282,950.9-26.466,955.008c-15.979,4.627-31.621,5.907-48.708,11.549a147.856,147.856,0,0,0-28.083,12.925c-9.338,5.444-18.5,8.43-27.154,7.073-14.01-2.238-24.451-15.625-34.449-30.866-10.681-16.38-21.7-33.446-36.863-42.745-9.064-5.576-19.554-9.908-29.267-9.016-15.842,1.513-31,8.016-45.233,12.549-39.228,12.41-75.448,15.751-112.693-9.829C-407.1,894.046-425.523,875-444.8,844.724c-15.185-23.865-31.388-55.123-48.381-102.186q.085-10.794.171-21.585c16.992,47.713,33.254,78.61,48.292,101.732,19.495,29.976,38.027,48.026,56.308,59.476,37.531,23.265,73.93,16.412,113.684,1.362,14.112-5.369,29.332-12.773,45.209-13.92,9.777-.667,20.264,2.682,29.371,8.508,15.414,9.815,25.81,29.338,35.783,47.818,9.343,17.211,19.211,33.028,33.42,35.945,8.731,1.761,17.9-1.75,27.348-7.414a119.733,119.733,0,0,1,28.285-12.633c16.834-4.86,31.917-4.4,47.359-7.245,13.539-2.5,27.979-7.975,43.7-25.547,8.479-9.476,16.9-22.079,24.821-36.409,4.893-8.855,9.489-18.356,14.46-27.193,6.071-10.8,12.377-20.872,18.734-30.359,29.347-43.758,59.443-76.9,88.084-109.712,29.8-34.06,59.8-67.449,90.3-108.245a594.555,594.555,0,0,0,39.63-59.4c5.523-9.573,10.875-19.64,15.816-30.017,4.957-10.408,9.144-21.1,14.031-31.3,33.026-68.87,72.977-91.577,108.864-124.268A178.633,178.633,0,0,0,455.2,325.042a153.082,153.082,0,0,0,19.384-37.292c6.368-17.366,14.376-34.175,25.324-47.235,8.693-10.446,19.066-17.756,30.222-21.3,24.555-7.659,48.47,2.576,71.045,17.059,12.175,7.785,24.389,17.351,36.966,27.678,5.837,4.794,11.755,9.758,17.747,14.658,6.351,5.2,12.744,9.53,19.085,15.7,27.435,26.556,51.377,80.991,72,135.493,24.876,65.912,48.513,143.423,76.982,234.649,12.011,38.671,24.931,79.645,38.737,120.467Q862.767,795.3,862.842,805.681Z" transform="translate(500.349 -188.352)" fill="url(#b)"/><path d="M862.089,921.271c-13.909-41.142-27.034-82.78-39.3-121.7-30.247-95.515-56.381-177.056-83.565-245.277-12.687-31.679-25.638-60.7-39.475-85.658-11.284-20.352-23.47-38.571-36.327-50.164-6.325-5.708-12.743-9.772-19.089-14.308-5.8-4.145-11.566-8.167-17.3-11.971a242.66,242.66,0,0,0-34.308-19.5c-20.776-9.334-42.427-13.736-63.916-4.061-22.432,10.147-40.711,35.311-54.983,66.5-12.1,26.485-28.71,46.6-47.206,64.2C390.34,533.707,351.073,560.978,316.9,628.479c-5.035,9.943-9.584,20.483-14.69,30.563-5.076,10.021-10.436,19.668-15.916,28.815a555.324,555.324,0,0,1-37.405,54.395c-27.5,35.611-54.3,64.125-81.033,93.839-26.218,29.168-53.55,59.409-80.681,99.643-6.219,9.228-12.4,19.012-18.424,29.411-4.953,8.556-9.66,17.713-14.6,26.155a262.8,262.8,0,0,1-25.91,37.19c-36,42.322-68.006,46.428-102.253,61.506-18.5,8.153-37.863,23.335-56.055,23.712-13.914.281-25.82-7.53-37.469-17.806-12.452-11.045-25.079-22.686-40.051-29.911-9.317-4.494-19.818-9.283-29.551-8.882-15.53.694-30.492,4.648-44.763,6.763-37.96,5.536-73.533,1.338-109.923-29.35-17.851-15.143-35.894-36.347-54.612-67.514-15.267-25.444-31.274-57.77-47.964-103.746q.076-9.258.146-18.517c16.9,46.6,33.044,78.252,48.287,102.726,19.073,30.593,37.356,50.477,55.434,64.065,36.942,27.552,72.941,27.138,111.691,17.289,14.27-3.663,29.363-9.242,45.109-10.607,9.7-.805,20.192,3.875,29.32,9.087,15.038,8.571,26.656,23.53,38,37.95,10.613,13.416,21.6,24.672,35.526,26.035,8.7.833,17.886-2.091,27.188-7.5a182.122,182.122,0,0,1,28.182-13.508c17.433-6.47,33.63-9.291,50.148-15.5,14.807-5.568,30.338-14.167,46.738-32.89a228.03,228.03,0,0,0,25.206-36.18c4.939-8.583,9.621-17.878,14.589-26.547,6.113-10.669,12.417-20.7,18.763-30.163,28.225-42.077,56.88-74.077,84.321-105.284,28.173-31.994,56.462-63,85.353-101.188a591.357,591.357,0,0,0,38.681-57.237c5.566-9.455,10.992-19.4,16.089-29.705,5.088-10.279,9.528-20.949,14.525-31.078,33.578-68.022,73-93.626,109.011-127.452,18.716-17.642,34.609-37.917,45.839-64.489,13.614-32.126,32.316-57.933,55.733-66.86,22.851-8.652,45.528-1.574,67.144,10.2,11.788,6.4,23.576,14.511,35.589,23.473,5.819,4.342,11.69,8.889,17.609,13.5,6.36,4.949,12.78,9.278,19.126,15.293,12.684,12.012,24.656,30.522,35.683,51.1,13.427,25.047,25.905,53.944,38.1,85.3,26.112,67.49,51.1,147.452,80.477,241.122,12.059,38.629,25,79.812,38.768,120.6Q862.029,913.78,862.089,921.271Z" transform="translate(501.313 -276.425)" fill="url(#b)"/><path d="M861.407,1024.734c-14.339-42.252-28-85.077-40.856-124.886C788.393,800.685,759.9,716.434,730.478,647.4c-13.718-32.038-27.669-60.989-42.412-85.421-11.917-19.754-24.664-37.141-38-47.646-11.718-9.244-23.672-14.72-35.442-20.191a152.446,152.446,0,0,0-31.56-11.1c-19.041-4.182-38.532-2.97-57.3,8.924-20.682,13.174-37.421,37.548-52.644,66.765-13.509,25.934-31.789,45.789-49.942,63.16-36.979,35.1-76.187,65.183-111.691,131.63-5.056,9.453-9.735,19.591-14.815,29.183-4.9,9.242-10.009,18.076-15.2,26.391a452.955,452.955,0,0,1-34.357,47.6c-24.6,29.989-48.268,52.917-71.971,77.429-23.5,24.32-48,50.158-72.755,86.147-11.2,16.286-21.172,34.631-31.95,52.708a365.46,365.46,0,0,1-27.691,40.344c-39.03,49-75.82,67.111-113.736,88.827-19.3,11.053-38.962,25.759-58.255,30.842-14.317,3.769-28.011,2.48-41.63-1.359-14.549-4.125-29.139-9.712-44.458-14.369-9.811-2.97-20.322-7.252-30.268-8.12-15.018-1.272-29.668-.62-43.819-1.707-36.36-2.864-70.971-15.564-106.182-52.1-17.35-18.075-34.85-41.724-52.837-74.052-15.179-27.3-30.873-60.962-47.016-105.961q.065-8.229.13-16.457c16.491,45.57,32.386,78.415,47.634,104.583,18.442,31.616,36.281,53.776,53.947,70.072,35.949,32.987,71.166,40.538,108.513,38.275,14.238-.9,29.087-3.582,44.429-3.579,9.793.032,20.3,4.7,29.8,8.61,15.026,6.2,28.419,15.441,41.7,23.842,12.428,7.818,25.032,13.081,39.03,11.485,18.6-2.131,38.026-17,56.8-26.257,35.61-17.534,69.459-27.078,106.56-71.817A296.576,296.576,0,0,0,59.638,1075.8c4.931-8.349,9.649-17.409,14.588-25.881,5.915-10.145,11.979-19.684,18.071-28.669,26.241-38.679,52.51-67.334,77.721-94.741,25.591-27.8,51.207-54.238,77.613-87.75a519.1,519.1,0,0,0,36.294-51.92c5.383-8.853,10.662-18.214,15.684-27.961,5.1-9.9,9.712-20.307,14.761-30.076,34.673-67.111,73.89-95.514,110.413-130.2,18.347-17.53,35.579-37.541,48.252-63.867,14.675-30.454,32.424-55.261,54.18-66.5,20.444-10.51,41.288-8.222,61.4-.832A203.946,203.946,0,0,1,621.9,483.729c5.649,3.34,11.32,6.923,17.011,10.666,6.331,4.161,12.739,7.955,19.043,13.389,13.028,11.207,25.414,29.14,36.926,49.284,14.175,24.8,27.5,53.838,40.577,85.691,28.029,68.617,55.059,151.253,86.018,248.17,12.479,39.231,25.791,81.293,39.846,122.815Q861.362,1019.242,861.407,1024.734Z" transform="translate(502.144 -360.268)" fill="url(#b)"/><path d="M860.766,1114.32c-14.95-43.83-29.329-88.2-42.952-129.205-34.449-103.3-65.64-190.109-97.655-259.4-14.906-32.114-30.019-60.634-45.835-84.094-12.7-18.842-26.164-35-40.135-43.98-11.245-7.248-22.933-10.508-34.228-12.847a92.06,92.06,0,0,0-27.666-1.755c-18.056,1.778-35.48,10.076-50.586,24.089a183.007,183.007,0,0,0-23.386,26.5c-9.212,12.484-17.351,26.9-26.16,41.443-14.7,24.2-33.96,43.127-51.619,59.966-38.432,36.275-78.385,69.359-115.877,135.654-9.532,16.843-18.181,34.144-28.3,49.38a327.111,327.111,0,0,1-29.866,38.445c-21.649,24-42,40.495-62.512,59.03-20.295,18.343-41.559,38.633-63.6,69.523-10.587,14.832-20.232,32.02-30.509,49.043q-13.767,22.8-29.154,43.519c-43.167,58.1-85.393,91.388-127.985,121.3-20.129,14.135-40.305,28.99-60.537,39.351a175.445,175.445,0,0,1-47.146,16.575,151.074,151.074,0,0,1-48.978,1.347c-10.684-1.452-21.534-4.9-32.209-7.59-14.078-3.535-27.99-6.364-41.608-10.806-34.608-11.349-68.112-32.572-101.983-75.016-30.948-38.79-63.65-95.263-96.685-189.336q.061-7.734.122-15.47c15.924,44.71,31.488,78.951,46.621,107.041,17.7,32.828,34.98,57.469,52.13,76.718,34.719,38.847,68.933,54.876,104.649,61.082,13.762,2.366,27.914,3.119,42.354,5.2,10.428,1.52,21.233,5.529,31.6,7.955,15.493,3.639,30.68,6.788,45.848,8.048a101.838,101.838,0,0,0,44.12-5.6c19.536-7.136,39.22-21.705,58.688-33.87,39.868-24.909,78.947-48.9,119.71-101.719a425.546,425.546,0,0,0,27.8-40.942c10.593-17.658,20.452-35.626,31.422-51.388,23.737-34.121,47.029-57.912,69.339-80.02,22.689-22.474,45.306-43.15,69.008-71.252a403.77,403.77,0,0,0,32.107-43.507c10.5-16.459,19.221-34.56,28.97-52.494,36.539-67.267,76.392-98.532,114.236-134.514,17.629-16.91,36-36.2,49.78-61.054,8.582-15.5,16.873-30.051,26.595-42.511a129.966,129.966,0,0,1,24.889-24.884c17.886-13.146,36.692-16.817,55.268-14.744a124.841,124.841,0,0,1,29.583,7.356c11.606,4.286,23.466,8.932,35.008,17.358,13.577,9.889,26.6,26.806,38.813,46.209,15.158,24.078,29.559,52.889,43.735,84.985,30.439,69.234,59.983,154.563,93.031,255.39,13.154,40.29,27.093,83.735,41.671,126.61Q860.736,1109.876,860.766,1114.32Z" transform="translate(502.899 -434.711)" fill="url(#b)"/><path d="M860.128,1184.61c-15.586-45.438-30.7-91.317-45.107-133.469-36.8-107.319-70.713-196.231-105.348-265.2-16.114-31.952-32.41-59.776-49.329-82.029-13.509-17.769-27.713-32.554-42.353-39.9-10.838-5.466-22.181-6.525-32.919-5.552a65.347,65.347,0,0,0-24.475,7.264c-15.344,7.984-29.378,22.392-42.81,39.706-7.047,9.092-13.956,18.958-20.876,29.293-8.253,12.325-16.488,26.941-25.4,39.506-16.252,22.776-36.66,40.844-54.676,57.763-39.425,36.638-79.666,72.843-118.625,137.1-9.142,15.062-17.654,30.865-27.168,43.97a209.255,209.255,0,0,1-26.119,29.882c-18.271,17.164-34.826,26.66-51.711,38.558s-34.756,26.134-54.043,51.564c-9.951,13.115-19.211,28.887-28.969,44.882-10.391,17.028-20.9,32.907-31.415,47.817-42.118,60.043-89.8,111.843-141.75,154-21.293,17.361-42.424,33-63.658,48.34-17.567,12.685-34.888,24.673-52.183,33.818-17.953,9.482-35.934,15.436-54.186,15.207a87.578,87.578,0,0,1-33.231-7.35c-13.509-5.728-27-11.678-40.353-19.357-32.8-18.89-65.088-48-97.542-95.893-30.489-44.99-61.922-106.627-93.232-197.781q.062-7.809.123-15.618c32.356,92.943,64.58,151.483,95.37,192.681,33.332,44.593,66.381,68.925,100.3,83.294,13.52,5.714,27.274,9.778,41.13,14.189,10.848,3.458,21.743,6.535,32.6,7.441,17,1.42,33.982-1.218,50.961-6.883,36.852-12.277,73.982-38.56,110.794-66.1,44.333-33.146,88.492-72.216,133.229-133.733,10.058-13.832,20.115-28.835,30.016-45.172,10.076-16.629,19.575-33.29,29.92-47.493,20.98-28.815,40.957-46.828,59.961-62.741,19.13-16.016,38.043-29.859,58.4-51.249a280.306,280.306,0,0,0,28.437-35.2c9.886-14.439,18.482-31.184,27.867-47.345,38.07-65.594,78.117-99.84,116.926-136.266,17.783-16.865,37.458-35.485,52.782-59.186,8.9-13.811,17.013-28.3,25.869-40.748a245.27,245.27,0,0,1,22.431-27.552c15.015-15.655,31.014-25.975,47.616-30.011a78.287,78.287,0,0,1,26.451-1.717c11.088,1.087,22.655,3.487,33.728,10.027,14.225,8.368,27.974,24.024,40.978,42.476,16.235,23.025,31.8,51.306,47.167,83.385,33.014,69.226,65.243,156.887,100.584,261.726,13.923,41.453,28.583,86.407,43.775,130.852Q860.1,1180.208,860.128,1184.61Z" transform="translate(503.64 -490.91)" fill="url(#b)"/><path d="M859.477,1241.8c-16.15-46.8-31.917-93.935-47.005-136.995C773.455,993.809,737,903.237,699.929,834.9c-17.237-31.639-34.633-58.655-52.586-79.646C633.121,738.616,618.249,725.2,603,719.443c-18.452-7.106-37.84-.165-53.261,16.334-13.33,14.213-24.057,34.433-35.485,54.782-5.917,10.556-12.039,21.3-18.574,31.937-7.435,12.086-16.006,26.547-24.86,37.045-9.052,10.7-19.4,19.823-28.932,28.791-9.513,8.928-19.083,17.589-28.642,26.357-40.3,36.876-80.928,76.383-121.064,137.964-8.83,13.536-17.256,27.8-26.254,38.821a120,120,0,0,1-22.711,21.9c-15.16,10.866-28.108,13.782-41.6,19.437-13.608,5.7-28.326,14.2-45.177,34.609-9.378,11.356-18.3,25.76-27.635,40.818q-16.657,26.86-33.449,51.443C43.9,1335.358-7.72,1397.62-59.22,1444.2c-22.355,20.211-44.409,36.623-66.369,55.979-19.586,17.239-38.282,34.715-56.879,48.651-19.283,14.415-38.677,24.858-59.047,26.081a60.223,60.223,0,0,1-34.125-7.626,297.127,297.127,0,0,1-39.234-26.154c-31.184-24.737-62.272-60.425-93.387-112.79-29.9-50.325-60.128-115.965-90.085-204.44q.067-8.485.134-16.971c30.757,90.142,61.732,153.4,92.016,200.493,31.946,49.673,63.788,81.386,95.959,102.646a333.321,333.321,0,0,0,39.915,22.11,73.019,73.019,0,0,0,33.583,7.394c19.038-.38,37.569-8.121,56.044-19.6,17.806-11.079,35.661-25.224,53.976-39.635,21.538-16.971,43.024-32.913,64.734-51.389,48.827-41.57,97.743-95.24,146.654-165.668,10.773-15.513,21.539-31.879,32.207-49.276,9.584-15.634,18.711-30.884,28.439-43.344,18.339-23.493,35.011-35.55,50.65-45.092,15.592-9.519,30.781-16.506,47.859-31.256a172.336,172.336,0,0,0,24.8-26.821c9.305-12.321,17.775-27.547,26.785-42C334.845,962.143,375.22,924.742,414.991,888c18.221-17.007,38.964-34.684,55.77-56.841,8.894-11.794,17.248-26.45,25.163-38.681,6.756-10.443,13.361-20.634,19.99-30.3,12.6-18.366,25.432-35.048,40.029-45.361,16.969-12.092,37.266-15.923,55.8-7.357,14.875,6.741,29.344,21.01,43.128,38.358,17.315,21.781,34.03,49.31,50.573,81.156,35.565,68.759,70.445,158.331,108.09,267.061,14.673,42.526,30.047,88.91,45.854,134.9Q859.432,1236.366,859.477,1241.8Z" transform="translate(504.42 -531.637)" fill="url(#b)"/><path d="M858.766,1309.942c-16.527-47.538-32.728-95.387-48.278-138.882-40.862-113.951-79.4-205.8-118.516-273.559-18.163-31.336-36.46-57.671-55.26-77.629-14.738-15.652-30.08-27.967-45.753-32.465-19-5.508-36.961,5.542-50.027,28.076-11.476,19.835-19.135,44.6-29.269,68.487C501.435,908.1,487,935.334,470.045,951.647c-9.886,9.48-20.49,17.57-30.564,26.27-9.83,8.477-19.68,17.082-29.522,26.011-40.9,37.036-81.871,79.947-122.74,138.246-8.732,12.448-17.215,25.4-25.907,34.659-7.206,7.677-13.978,12.665-20.14,15.5-12.638,5.817-22.519,3.288-33.169,3.794-10.849.509-22.986,4.37-38,20.907-8.956,9.858-17.708,23.229-26.805,37.5q-17.443,27.365-34.926,53.564c-54.953,82.348-110.042,156.161-165.1,209.272-23,22.181-45.789,38.893-68.077,60.7-21.357,20.871-41.134,42.427-60.729,59.61-20.295,17.734-40.8,31.355-63.029,33.288-11.279.955-22.979-.811-34.707-8.311a255.071,255.071,0,0,1-38.453-30.431c-59.195-56.39-118.567-158.865-177.633-332.734q.075-9.791.151-19.583c29.607,87.563,59.451,154.3,89.123,206.185,30.68,53.646,61.359,91.26,92.055,117.6a281.673,281.673,0,0,0,38.906,28c11.582,6.941,23.118,8.652,34.378,7.832,21.081-1.569,40.911-13.3,60.595-29.09,18.99-15.274,38.111-34.387,58.374-53.07,22.138-20.449,44.477-37.049,67.131-58.092,52.88-49.15,105.863-115.865,158.668-194.2q17.06-25.31,34.057-52.418c9.229-14.76,18.061-28.744,27.266-39.516,16.116-18.866,29.828-25.537,42.374-29.234,12.4-3.658,24.171-4.465,38.347-13.353a97.158,97.158,0,0,0,21.673-19.376c8.86-10.336,17.282-24.1,26.049-37.188,40.45-60.477,81.215-101.188,121.772-138.131,9.668-8.825,19.345-17.468,28.979-26.238,9.712-8.86,20.189-17.6,29.542-27.908,8.85-9.793,17.531-23.928,24.775-35.968,6.447-10.729,12.325-21.779,17.861-32.767,10.9-21.568,20.471-43.539,33.113-59.858,14.551-18.8,33.412-27.337,51.977-20.9,15.422,5.256,30.489,18.233,44.925,34.489,18.282,20.577,36.029,47.324,53.624,78.845,37.863,68.106,75.119,159.172,114.85,271.321,15.284,43.282,31.239,90.748,47.549,137.9Q858.705,1302.358,858.766,1309.942Z" transform="translate(505.297 -577.522)" fill="url(#b)"/><path d="M857.979,1402.867c-16.586-47.237-32.9-94.941-48.554-138.144-42.08-115.748-82.05-208.577-122.546-276.239C668.1,957.235,649.216,931.2,629.87,911.722c-14.937-15.046-30.443-26.816-46.261-30.7-10.549-2.618-21.372-.6-30.715,8.091-7.182,6.676-12.9,16.71-17.508,27.851-10.048,24.351-15.353,52.715-24.82,80.095-9.393,27.268-23.361,50.723-41.446,63.891-20.552,15-41.383,30.684-61.977,49.366-41.068,37.205-82.139,83.5-123.205,137.986-8.939,11.862-17.739,23.979-26.458,32.175-6.888,6.477-13.269,10.322-18.9,11.7-11,2.7-18.728-3.426-27.43-6.3-9.018-2.97-19.535-1.7-33.522,12.67-8.795,9.035-17.7,21.968-26.775,35.575-11.848,17.762-23.684,35.654-35.517,53.371C58.021,1473.335.783,1555.089-56.606,1611.959c-22.909,22.722-46.119,38.787-68.188,61.007-22.617,22.762-43.057,46.67-63.231,65.457-20.87,19.364-42.057,34.777-65.609,36.588-11.956.906-23.892-2.259-34.79-9.228a210.605,210.605,0,0,1-38.21-31.7c-58.057-59.592-115.726-171.518-174.13-338.25q.093-11.764.186-23.527c58.7,171.617,117.4,277.781,176.115,335.856a240.509,240.509,0,0,0,38.3,31.226,53.588,53.588,0,0,0,34.8,8.611c22.763-1.987,43.554-16.383,64.1-34.872,19.848-17.926,39.906-40.5,61.77-62.262,22.283-22.2,45.258-38.821,68.326-61.377,56.026-54.777,112.026-131.806,167.948-215.786q17.629-26.473,35.247-53.8c9.063-14.034,17.825-27.17,26.689-36.645,14.565-15.573,26.011-18.26,36.1-17.336,9.859.9,18.873,4.908,30.834.424,5.915-2.217,12.491-6.682,19.536-13.845,8.657-8.791,17.213-21.389,25.98-33.579,41-57.037,82.045-101.126,123.061-138.213,9.922-8.984,19.848-17.572,29.762-25.89,10.264-8.623,20.9-16.434,31.057-25.377,17.323-15.281,31.545-41.615,41.342-66.707,9.831-25.138,16.583-51.23,27.5-72.77,12.361-24.3,29.9-36.45,49.216-31.282,15.76,4.2,31.2,16.245,46.047,31.635,19.028,19.713,37.571,45.886,55.986,77.16,39.681,67.648,78.8,159.87,120.164,274.6,15.633,43.488,31.917,91.4,48.5,138.978Q857.9,1391.952,857.979,1402.867Z" transform="translate(506.325 -638.98)" fill="url(#b)"/><path d="M856.257,1528.209c-16.738-46.67-33.16-93.631-48.969-136.509-41.7-112.74-81.265-204.622-121.369-272.3-18.145-30.5-36.4-56.215-55.091-75.792-15.429-16.171-31.47-28.822-47.825-32.987-10.37-2.663-20.883-.871-30.041,7.988-7.521,7.275-13.349,18.414-18.028,30.633-9.839,25.79-15.084,55.549-24.685,84.157-4.331,12.94-9.641,25.718-16.5,36.434a82.71,82.71,0,0,1-26.162,26.109,518.459,518.459,0,0,0-62.8,46.745q-60.811,52.469-121.642,134.206c-16.678,22.429-32.117,40.118-45.809,43.317-10.756,2.537-18.525-2.97-27.155-5.515-9.1-2.684-19.58-1.243-33.178,11.835-9.015,8.665-18.163,21.159-27.579,34.95-11.924,17.465-23.839,35.129-35.749,52.645C56.887,1597.666.213,1677.654-56.606,1733.809c-23.048,22.8-46.6,39.115-68.783,61.015-23.061,22.77-44,46.254-64.709,64.3-21.107,18.337-42.539,32.681-66.21,33.994a59.24,59.24,0,0,1-34.4-9.34,202.61,202.61,0,0,1-38.459-31.222c-57.723-58.35-114.947-169.089-173.109-330.841q.109-13.788.218-27.587c58.406,163.727,115.766,278.091,173.632,337.562,24.264,25.1,49.208,42.505,72.958,40.954,23.829-1.58,45.129-17.288,66.066-36.812,20.245-18.948,40.8-43.223,63.679-66.1,21.846-21.841,45.1-37.389,67.765-59.9,57.814-57.31,115.407-140.685,173.173-226.735,11.811-17.587,23.63-35.284,35.459-52.648,9.131-13.4,18.169-26.357,26.995-35.347,13.835-14.1,24.109-15.147,32.8-11.5,8.309,3.485,15.587,10.268,26.286,8.076,13.526-2.735,29.065-21.341,45.768-43,41-53.106,82.007-100.514,123.011-137.8a493.186,493.186,0,0,1,62.431-48.427c18.467-11.986,32.443-33.287,41.861-61.869,9.4-28.4,14.121-57.807,23.841-83.362,4.429-11.6,10.014-22.2,17.234-29.23,9.32-9.08,20.221-10.9,30.8-8.281,15.779,3.869,31.252,15.627,46.166,30.593,19.441,19.5,38.439,45.561,57.326,76.856,40.77,67.805,81.027,160.893,123.333,276.889,15.6,42.893,31.847,90.3,48.36,137.124Q857.057,1514.706,856.257,1528.209Z" transform="translate(507.524 -724.135)" fill="url(#b)"/><path d="M850.125,1673.568c-16.085-42.623-31.812-85.517-46.984-125.568-39.351-103.439-76.293-191.211-113.783-258.125-17.519-31.132-35.187-57.9-53.361-78.564-15.023-17.09-30.68-30.559-46.684-35.478-10.2-3.154-20.388-1.551-29.517,6.418-8.046,7.024-14.589,18.252-20.074,30.816-10.924,25.1-18.027,54.9-28.813,83.058-10.824,28.371-25.212,50.611-43.609,62.208-20.885,13.231-41.837,26.39-62.65,41.854C364.6,1429.8,324.29,1468.42,284.235,1526.01c-16.168,23.222-31.124,40.612-45.574,47.329-11.989,5.594-21.741,4.216-32,5.212-11.036,1.061-22.987,5.391-37.192,19.079-9.23,8.889-18.312,20.709-27.923,34.555q-17.68,25.483-35.361,50.483C52.041,1759.009-2.1,1829.784-56.258,1881.552c-22.835,21.834-45.717,38.592-67.824,59.307-23.41,21.922-45.287,43.4-66.992,59.4-22.451,16.51-45.11,28.4-69.43,28.381a65.313,65.313,0,0,1-35.594-10.73,230.663,230.663,0,0,1-38.356-31.148c-56.482-55.884-112.765-157.21-169.377-311.863q.111-14.051.222-28.109c57.817,160.218,114.877,268.16,172.36,325.788a211.024,211.024,0,0,0,38.434,31.163,60.023,60.023,0,0,0,34.37,9.509c23.8-.955,45.542-14.52,66.993-32.262,21.042-17.457,42.294-40.389,65.492-63,22.244-21.686,45.707-38.29,68.8-60.974,56.086-55.049,112.079-132.45,168.141-214.09,11.9-17.32,23.8-34.825,35.706-52.236,9.453-13.822,18.532-25.964,27.571-34.566,13.708-13.053,24.561-15.183,34.178-13.471,9.061,1.608,17.37,6.008,28.434,2.726,13.906-4.1,29.165-21.538,45.714-44.3,40.3-55.415,80.722-98.3,121.049-131.682a592.8,592.8,0,0,1,62.768-45.424c18.7-11.711,32.863-33.423,42.982-62.693,9.944-28.63,15.714-58.569,25.885-84.3,4.854-12.237,10.811-23.335,18.382-30.561,9.2-8.782,19.667-10.556,30.067-7.722,16.317,4.412,32.3,17.328,47.678,33.836,18.414,19.759,36.387,45.557,54.237,75.962,39.408,67.407,78.255,158.072,119.313,268.093,15.815,42.533,32.23,88.845,48.983,134.946-.927,7.453-2.2,14.813-3.8,22.035Z" transform="translate(508.748 -835.828)" fill="url(#b)"/><path d="M840.391,1833.471c-15.445-37.852-30.46-76.426-44.916-113.251-35.52-90.052-68.352-170.43-101.793-234.489-15.881-30.28-31.943-57.087-48.587-78.413-13.816-17.706-28.259-32.044-43.1-38.465-20.984-9.042-39.047,4.614-53.484,31.117-12.89,23.78-22.555,53.553-35.328,81.092-12.875,27.873-28.621,49.882-47.568,61.158-20.785,12.423-41.492,22.91-62.015,35.018-38.382,22.4-77.311,52.829-115.959,111.477-8.5,12.863-16.624,25.138-25.362,35.244a141.064,141.064,0,0,1-21.846,20.738c-13.9,10.4-26.352,14.85-38.937,20.879a146.706,146.706,0,0,0-43.344,31.2c-19.874,20.347-40.91,52.255-61.183,78.761C46.907,1941.105-3.137,1999.609-53.2,2045.171c-22.842,20.755-45.519,37.845-67.881,57.146-24.678,21.286-48.34,41.079-71.88,54.878-24.355,14.255-48.862,23.041-74.482,20.3a80.135,80.135,0,0,1-35.586-12.968,261.354,261.354,0,0,1-37.9-30.336c-54.821-52.453-109.672-142.768-164.463-287.091q.112-14.286.226-28.571c56.218,152.129,112.274,250.34,168.436,305.142a238.24,238.24,0,0,0,38.242,30.791,68.263,68.263,0,0,0,34.9,11.046c24.7.861,47.9-10.076,70.906-25.88,22.254-15.329,44.658-36.291,68.431-58.04,22.532-20.627,45.733-37.814,68.942-59.8,52.784-50.022,105.573-117.043,158.351-190.047q17.055-23.6,34.111-47.942c9.7-13.823,18.871-25.694,28.238-34.863,14.558-14.26,27.15-19.88,38.961-22.5,10.921-2.44,21.465-2.729,34-9.679a88.808,88.808,0,0,0,20.347-16.3c8.846-9.2,17.14-21.056,25.892-33.812,39.29-57.371,78.852-93.385,118.086-120.74,20.764-14.566,41.62-27.135,62.5-40.013,18.907-11.6,33.885-33.758,45.523-62.687,11.34-28.054,19.187-57.933,30.7-82.708,13-27.838,30.187-42.515,50.875-35.344,15.4,5.385,30.443,18.8,44.89,35.7,18.253,21.354,35.946,49,53.477,80.947,36,65.908,71.483,150.925,109.4,249.517,15.014,39.2,30.581,80.938,46.53,122.3C844.678,1820.489,842.6,1827.013,840.391,1833.471Z" transform="translate(509.974 -966.53)" fill="url(#b)"/><path d="M828.45,2010.405c-14.479-32.075-28.451-65.549-41.826-98.468-31.594-77.33-60-150.3-89.213-210.9-24.5-50.631-51.389-98.238-80.207-114.561-21.649-12.3-41.37-.72-58.054,23.018-15.034,21.459-27.59,50.014-42.563,76.132-15.018,26.286-32.265,47.786-51.825,58.607-20.417,11.335-40.582,18.358-60.393,26.265-36.691,14.274-74.278,35.109-111.872,94.924-8.694,13.764-16.987,27.683-26.028,39.677a261.423,261.423,0,0,1-23.9,27.62c-16.28,16.263-31.842,27.411-47.278,39.3-16.4,12.6-32.92,26.291-50.138,44.85-19.98,21.564-40.517,49.957-60.688,73.545A1159.087,1159.087,0,0,1-50.469,2225.284c-22.756,19.074-45.23,36.2-67.77,53.851-26.061,20.406-51.544,38.229-76.961,49.506-26.272,11.645-52.648,16.987-79.653,11.094-24.273-5.3-48.774-22.493-73.256-44.832-52.947-48.579-105.762-126.039-158.829-258.62q.115-14.519.226-29.038c54.357,141.158,108.774,227.875,163.154,279.151a272.965,272.965,0,0,0,36.715,29.256,87.752,87.752,0,0,0,36.969,14.273c25.751,3.436,50.568-4.27,75.254-17.6,24.179-13.074,48.46-32.351,73.623-53.458,22.112-18.561,44.375-35.426,66.887-55.391C-5.3,2160.1,43.43,2105.63,92.237,2043.609c20.519-26.042,41.65-57.3,61.817-78.181a194.67,194.67,0,0,1,44.806-34.692c13.22-7.632,26.4-13.971,40.752-25.741a171.5,171.5,0,0,0,23.2-23.441c8.848-10.712,17-23.483,25.568-36.6,38.413-59.032,77.035-86.617,115.022-106.643,20.4-10.911,41.108-20.322,61.856-32.7,18.825-11.193,34.8-33.166,48.09-60.221,13.268-26.911,23.7-56.088,37.035-79.126,14.981-25.783,33.393-39.351,54.487-29.767,31.545,14.274,61.545,63.137,88.982,116.736,32.233,63.109,63.8,141.331,98.2,227.572,14.163,35.692,28.891,72.779,44.073,108.956C833.65,1996.51,831.077,2003.331,828.45,2010.405Z" transform="translate(511.197 -1114.226)" fill="url(#b)"/><path d="M815.677,2205.883c-13.345-26.252-26.1-54.546-38.186-83.535-26.627-63.5-49.6-127.019-73.451-182.313-21.176-48.867-44.873-97.3-71.248-115.334-22.546-15.273-41.773-6.519-59.77,11.684-17.994,18.3-34.755,46.04-52.349,70.882-17.39,24.565-36.451,45.477-57.182,55.8-20.333,10.159-40.09,13.374-59.285,16.864-34.15,5.712-69.718,16.1-105.814,75.793-9.272,15.236-17.946,31.5-27.559,45.752a409.966,409.966,0,0,1-26.765,35.4c-18.627,22.04-37.112,39.629-55.388,57.2-19,18.221-37.978,36.51-57.232,57.864-9.938,11.017-19.848,23.28-29.8,34.771C91.563,2298.356,81.5,2309.1,71.5,2319.148c-40.18,40.158-79.331,70.006-119.555,100.367-21.872,16.409-43.629,32.959-65.552,48.553-27.93,19.876-55.587,36.187-83.2,45.191-28.579,9.321-57.225,11.363-86.169,1.866-12.505-4.114-24.917-10.962-37.451-19.441a386.171,386.171,0,0,1-35.5-27.125c-25.469-21.9-50.7-49.357-76.025-85.658-25.322-36.437-50.73-81.718-76.539-142.441q.116-14.752.233-29.5c52.374,128.509,104.225,201.807,156.359,249.287,24.862,22.469,49.834,40.113,74.54,46.126,27.186,6.632,53.866,2.308,80.458-8.456,26.4-10.69,52.859-28.349,79.813-48.905,21.926-16.726,43.753-33.346,65.807-51.279A1127.932,1127.932,0,0,0,79.554,2272.765c20.127-22.6,40.536-49.993,60.535-71.858,17.866-19.507,35.171-34.664,52.424-49.038,16.1-13.451,32.365-26.4,49.152-44.093a304.068,304.068,0,0,0,25.406-30.653c9.141-12.585,17.485-27.084,26.277-41.154,37.125-59.717,74.1-77.566,110.059-89.354,19.644-6.663,39.713-12.6,60.1-23.637,19.893-10.736,37.643-32.017,53.373-57.9,15.7-25.741,29.168-53.9,44.946-74.565,17.1-22.33,37.063-33.032,58.611-20.259,28.412,16.773,54.7,65.45,78.479,116.224,27.5,58.94,54.2,128.773,84.181,201.513,13.014,31.756,26.648,63.719,40.809,94.082C821.171,2189.591,818.416,2197.482,815.677,2205.883Z" transform="translate(512.421 -1276.902)" fill="url(#b)"/><path d="M803.472,2416.9a628.4,628.4,0,0,1-34.745-70.647c-22.738-53.618-40.947-110.2-60.355-160.958-17.364-45.145-37.264-91.028-60.716-109.394-46.363-35.9-84.548,21.042-123.891,66-19.26,22.12-39.9,42.039-61.535,51.549-20.083,8.851-39.21,8.158-57.5,7.115-32.3-2.516-66.746-2.812-102.238,59.756-9.3,16.258-17.857,33.686-27.51,49.213q-13.98,22.406-29.558,42.681c-20.915,27.326-42.121,50.411-63.123,72.79-21.618,22.981-43.193,45.224-64.845,69.106-10.325,11.388-20.7,23.979-31,34.437a345.667,345.667,0,0,1-27.395,25.042c-35.683,28.965-68.93,45.143-104.769,68.765-21.648,14.135-43.6,30.847-65.558,44.979-29.513,19.042-58.94,33.556-88.343,40.19-30.358,6.855-60.756,5.7-91.245-7.12-12.9-5.42-25.9-13.959-38.769-22.833-11.71-8.062-23.334-16.6-34.807-25.874a450.349,450.349,0,0,1-72.168-73.127c-24.005-30.677-48.223-68.8-73.439-124.033l.237-29.973c25.546,58.967,50.554,102.157,75.444,136.933,22.481,31.486,47.578,59.054,74.748,82.105a420.233,420.233,0,0,0,36.295,27.526c12.678,8.591,25.286,15.854,37.96,20.286,29.118,10.166,58.015,9.016,86.854.493,49.647-14.343,100.244-54.761,150.491-91.472,39.016-28.434,76.62-54.429,115.586-91.475,9.544-9.129,19.151-18.972,28.794-29.735,10.061-11.224,20.114-23.654,30.177-34.832,19.934-22.16,39.659-41.675,59.428-61.364,19.135-19.1,38.488-38.421,57.845-62.143a447.908,447.908,0,0,0,27.57-37.592c9.433-14.381,17.929-30.644,27.028-45.9,36.184-61.11,71.677-68.4,105.588-71.792,18.778-2.183,38.182-4.378,58.245-14.055,20.775-9.991,40.154-30.336,57.959-53.965,36.729-48.25,70.781-111.131,116.59-78.2,25.251,18.562,47.62,65.89,67.539,113.28,22.6,54.051,44.241,115.573,69.756,176.129q17.1,41.2,37.2,79.722C808.6,2397.366,805.978,2406.784,803.472,2416.9Z" transform="translate(513.643 -1449.491)" fill="url(#b)"/><path d="M793.228,2637.285A365.148,365.148,0,0,1,761.8,2578.1c-19.395-45.418-33.239-95.78-48.42-141.832-14.263-42.981-31.065-87.016-52.676-106.079-23.723-20.92-47.937-17.542-69.77-4.908-21.741,12.468-42.527,34.18-64.261,55.026-20.644,19.857-42.44,38.989-64.835,48.026-20.31,8.215-39.21,3.76-56.957-1.57-15.018-4.6-30.824-10.345-47.2-6.344-16.376,3.893-33.326,17.531-50.659,49.225-9.491,17.354-17.961,36.243-27.778,53.049q-14.963,25.477-31.808,48.584c-23.183,31.973-47.016,59.365-70.676,85.384-23.5,25.793-47.016,50.171-70.52,74.941-10.354,10.917-20.893,23.039-31.209,32.329A204.3,204.3,0,0,1,49.013,2784c-32.16,20.386-59.665,24.671-92.075,42.907-20.931,11.624-42.839,28.327-64.354,41.1-31.224,18.623-62.429,31.933-93.628,36.844-32.252,5.085-64.524,1.449-96.794-14.2-12.841-6.2-25.989-15.616-38.786-24.541-11.64-8.094-23.118-16.228-34.332-24.615-23.636-17.647-46.227-36.437-69.194-61.5-22.967-25.391-46.313-57.053-71.44-108.144q.12-15.218.24-30.441c25.216,54.157,49.235,90.528,73,119.775a453.49,453.49,0,0,0,71.49,69.98c11.4,9.014,22.986,17.435,34.671,25.49,13,8.982,26.194,17.858,39.238,23.513,31.036,13.476,62.012,15.186,92.957,8.667,29.885-6.288,59.789-20.576,89.75-39.563,21.584-13.638,43.232-30.09,64.436-43.37,34.891-22.083,66.637-34.885,101.365-61.432a298.223,298.223,0,0,0,26.994-23.652c10.113-9.962,20.339-22.245,30.483-33.343,22.277-24.375,44.51-47.447,66.775-71.459,21.765-23.526,43.724-47.942,65.293-76.652q15.934-21.119,30.24-44.481c9.714-15.929,18.263-33.818,27.644-50.381,17.708-31.292,35.113-46.546,52.072-52.906,16.956-6.453,33.465-4.006,49.363-1.982,18.175,2.227,37.281,3.788,57.442-5.045,21.961-9.6,43.016-29.593,62.75-51.221,39.993-43.728,79.829-98.313,126.3-60.173,22.9,18.92,41.871,64.526,58.36,109.13,18.018,49.031,34.85,103.215,56.354,153.935a537.649,537.649,0,0,0,33.969,67.777C797.3,2614.375,795.145,2625.427,793.228,2637.285Z" transform="translate(514.867 -1625.321)" fill="url(#b)"/><path d="M786.341,2860.952a250.767,250.767,0,0,1-30.5-53.335c-16.452-38.6-27.331-84.769-39.64-128.174-12.309-43.1-26.048-83.433-48.235-103.3-23.663-20.9-48.051-18.75-70.26-8.78-23.71,10.5-46.668,30.731-70.363,50.707-21.537,18.2-44.2,36.958-67.127,45.353-20.3,7.438-38.811-.379-55.865-9.381-15.654-8.313-30.575-18.577-47.7-16.637-16.171,1.8-32.855,18.086-47.973,47.784-4.569,8.976-8.638,18.689-13.068,27.86-4.609,9.547-9.447,18.7-14.421,27.471A567.453,567.453,0,0,1,249,2790.677c-24.479,34.234-49.867,63.422-75.118,90.656-25.35,27.282-50.761,52.492-76.157,77.055-10.445,10.113-21.092,21.1-31.508,29.5a140.351,140.351,0,0,1-24.686,16.236c-30.125,14.815-52.827,9.873-83.35,24.8-20.686,9.959-43.175,27.205-64.619,38.952-32.02,17.713-64.045,29.58-96.07,33.158-33.113,3.7-66.228-1.406-99.336-18.024-13.35-6.669-27.069-16.418-40.392-25.792-11.639-8.157-23.069-16-34.1-23.623-23.075-15.91-44.651-31.045-66.775-51.479-22.122-20.863-44.793-47.026-70.034-94.87q.122-15.452.244-30.906c25.182,50.253,48.365,80.418,71.126,104.583,22.762,23.8,45.1,41.6,68.624,58.8,11.16,8.167,22.616,16.221,34.249,24.328,12.869,9,26.12,18.539,39.03,24.867,32.669,16.084,65.343,20.138,98.006,15.355,31.154-4.562,62.316-17.345,93.476-35.516,21.535-12.472,43.67-29.388,64.569-40.562C-12,2990.951,14.17,2989.3,45.663,2970.685a181.1,181.1,0,0,0,24.983-18.3c10.618-9.175,21.455-21.354,32.111-32.391,24.312-25.167,48.634-50.21,72.935-76.906,23.894-26.3,47.937-54.125,71.273-86.542q16.6-22.922,31.394-48.221c9.915-17.046,18.375-36.072,27.86-53.883,17.412-32.694,34.4-46.207,50.789-49.447,16.385-3.357,32.165,3.559,47.133,9.06,17.357,6.258,35.967,11.553,56.031,3.773,22.9-8.868,45.306-28.236,66.529-47.9,22.206-20.517,43.549-41.648,65.794-53.353,21.873-11.623,46.017-14.341,69.616,6.547,21.3,18.868,37.489,62.175,51.091,104.721,14.327,45.105,27.215,94.315,45.959,138.25a326.2,326.2,0,0,0,31.017,57.343C788.6,2835.189,787.277,2847.652,786.341,2860.952Z" transform="translate(516.091 -1799.211)" fill="url(#b)"/><path d="M784.211,3077.246a212.4,212.4,0,0,1-31.03-50.753c-16.649-37.829-25.965-82.669-37.243-124.06-11.382-41.512-25.666-80.354-45.959-98.8-11.484-10.367-23.5-13.337-34.777-14.126-12.425-.909-24.648,1.836-36.728,6.757-24.116,9.836-47.715,28.327-71.821,47.259-21.489,16.887-44.581,36.848-67.3,44.995-20.385,7.274-39.281-3.02-56.148-13.956-15.44-10.1-30.1-22.507-47.106-22.123-16.2.335-32.763,16.342-47.74,45.8-4.792,9.427-9,19.665-13.64,29.266-4.281,8.856-8.783,17.3-13.416,25.4a500.634,500.634,0,0,1-32.341,49.215c-25.371,34.254-51.783,62.831-78.041,89.167-25.079,25.1-50.236,48.038-75.379,69.939-19.686,17.233-39.032,34.14-57.8,41.82-29.308,11.75-50.412,4.114-80.335,17.5-20.47,9.011-42.644,25.519-63.855,36.42-32.834,17.056-65.656,27.941-98.484,30.711-33.555,3.025-67.205-3.282-99.023-18.561-13.4-6.414-27.035-15.236-40.429-24.391-11.7-7.971-23.189-15.5-34.225-22.584-23.03-14.732-44.306-27.72-66.2-45.183-21.894-17.945-44.407-40.363-69.889-85.1q.124-15.686.247-31.373c25.325,47.262,47.9,72.286,69.893,92.212,21.993,19.479,43.4,33.859,66.417,49.435,11.012,7.469,22.447,15.254,34.1,23.425,13.328,9.38,27,18.932,40.35,25.6,33.292,16.7,66.587,22.043,99.883,18.6,32.2-3.337,64.4-14.914,96.6-32.447,21.415-11.541,44-28.884,64.646-38.563,30.262-14.417,52.027-7.766,81.86-21.65,18.365-8.712,36.979-26.271,56.171-44.393,25.632-24.117,51.28-49.11,76.854-76.287,25.57-27.231,51.28-56.545,76.025-91.064a551.963,551.963,0,0,0,32.287-50.337c4.942-8.759,9.742-17.9,14.3-27.456,4.4-9.229,8.421-19.007,12.955-28.067,14.989-29.937,31.616-46.345,47.79-47.614,17.1-1.372,31.9,9.8,47.469,18.852,16.974,9.8,35.486,18.375,55.866,10.952,22.951-8.35,45.685-27.068,67.3-44.962,23.964-19.788,47.242-39.692,71.215-49.958,22.286-9.684,46.8-11.985,70.492,8.9,22.224,19.89,35.521,59.772,47.34,102.3,11.817,42.838,22.155,88.324,38.452,126.412a235.142,235.142,0,0,0,30.582,52.441Q783.585,3057.007,784.211,3077.246Z" transform="translate(517.314 -1962.329)" fill="url(#b)"/><path d="M787.3,3286.23a209.747,209.747,0,0,1-30.98-47.625c-16.841-35.052-27.717-77.851-40.155-117.722-12.727-40.572-27.893-77.843-48.035-95.66-11.629-10.258-24.035-11.267-35.488-11.819a106.173,106.173,0,0,0-36.14,4.859c-24.539,7.347-48.841,21.734-73.378,37.551-11.731,7.569-23.518,15.488-35.4,23.017-10.655,6.754-22.243,15.673-33.11,18.807-19.524,5.575-38.413-3.021-55.453-11.5-15.083-7.6-29.725-16.6-46.029-14.79-16.376,1.783-32.979,17.257-48.337,43.439-9.556,16.306-18.006,34.482-27.862,49.968a433.6,433.6,0,0,1-31.884,43.674c-24.014,29.045-48.8,52.783-73.454,74.794-24.854,22.127-49.746,42.36-74.627,62.4-10.659,8.6-21.508,18.13-32.117,24.825a162.941,162.941,0,0,1-24.836,12.976c-30.6,12.3-56.223,11.757-87.129,24.831-21.108,8.775-42.884,22.805-64.613,32.753-31.5,14.531-62.989,23.8-94.477,26.221-33.478,2.77-67.036-3.038-99.036-17.138-12.98-5.715-26.21-13.615-39.175-21.556-11.643-7.1-23.093-13.969-34.178-20.57-23.261-13.818-45.03-26.609-67.307-43.077-22.277-16.9-45.062-37.477-70.335-76.827q.126-15.923.252-31.838c25.381,43.351,47.9,65.287,69.827,82.942,21.925,17.184,43.249,30.086,66.26,44.549,11.025,6.951,22.489,14.309,34.16,22.063,13.368,8.909,27.009,17.647,40.391,23.957,32.141,15.194,66.086,21.4,99.923,18.278,32.211-2.782,64.424-13.228,96.645-29.527,21.568-10.8,43.873-26.949,64.683-35.861,30.126-13.128,52.192-6.788,81.913-18.762a129.823,129.823,0,0,0,24.715-13.908c10.387-7.312,21-16.976,31.421-25.925,25.672-22.026,51.361-44.919,76.976-70.049,25.648-25.218,51.432-52.546,76.253-85.36a489.561,489.561,0,0,0,32.317-48.155c9.833-16.8,17.948-35.94,27.306-53.73,15.032-28.556,31.586-44.337,47.749-44.9,16.856-.619,31.507,11.118,46.854,20.826,16.848,10.555,35.771,20.908,55.934,14.276,11.026-3.656,22.417-11.773,33.18-19.2,11.471-7.929,22.791-16.648,34-25.2,24.5-18.674,48.547-36.733,73.052-46.245,11.78-4.566,23.675-7.154,35.741-6.522,11.214.547,23.268,2.758,34.705,12.834,20.535,18.21,35.152,57.2,46.908,99.066,11.477,41.125,21.077,85.576,37.722,122.857a210.922,210.922,0,0,0,30.912,50.064Q784.767,3264.943,787.3,3286.23Z" transform="translate(518.536 -2117.053)" fill="url(#b)"/><path d="M794.378,3504.769a216.164,216.164,0,0,1-32.544-44.922c-17.337-31.4-30.345-70.9-44.556-107.808-14.667-37.907-31.178-71.325-51.143-87.116-11.36-8.975-23.328-10.006-34.639-11.548a154.184,154.184,0,0,0-38.022-.382c-25.626,2.771-51.2,11.063-76.832,21.912-12.069,5.112-24.15,10.8-36.255,16.705-10.9,5.325-22.353,13.017-33.339,16.24-18.83,5.485-37.565.975-55.117-2.9-14.807-3.35-29.53-7.017-45.152-1.81-16.164,5.36-32.217,21.251-47.2,43.728-9.479,14.242-18.151,30.222-27.884,43.489a334.94,334.94,0,0,1-31.394,36.806c-22.489,22.883-45.472,40.827-68.3,57.683-23.346,17.168-46.679,33.069-70.021,49.722-10.527,7.516-21.162,15.992-31.652,22.207a279.628,279.628,0,0,1-26.662,13.938c-33.293,14.907-64.5,22.6-97.925,36.766-21.464,8.968-42.955,20.328-64.728,28.8-30.528,11.936-61.053,19.388-91.571,21.057a224.217,224.217,0,0,1-93.388-14.572c-13.155-5.006-26.519-11.944-39.661-19.041-11.608-6.251-23.081-12.464-34.282-18.6-23.588-12.884-46.021-25.5-68.831-41.136-22.809-16.016-46-35.042-71.076-69.462q.128-16.151.255-32.3c25.184,38.163,48.014,58.377,70.362,75.067,22.348,16.271,44.214,29.02,67.49,42.611,11.1,6.494,22.54,13.207,34.169,20.122,12.9,7.7,26.069,15.39,38.986,20.958,31.743,13.682,64.954,19.392,98.107,16.866,31.634-2.229,63.271-11.234,94.914-25.438,21.7-9.675,43.237-23,64.369-31.754,31.247-13.162,58.011-14.41,89.033-27.135a180.4,180.4,0,0,0,25.789-13.489c10.324-6.459,20.9-15.637,31.274-23.813,24.225-19.076,48.457-38.139,72.664-58.9,24.636-21.188,49.42-43.981,73.472-72.153a412.575,412.575,0,0,0,32.491-43.356c9.775-15.054,18.258-32.89,27.825-48.588,15.128-24.792,31.437-39.887,47.532-42.3,16.117-2.455,30.732,5.474,45.7,12.245,17.172,7.637,36.575,16.328,56.043,10.045,10.934-3.574,22.4-12.071,33.149-18.609,11.583-7.047,23.093-14.326,34.564-21.239,24.669-14.85,49.146-28.089,73.807-34.713a114.056,114.056,0,0,1,37.327-4.145c11.463.718,23.848,1.646,35.453,11.811,20.045,17.6,35.421,54.21,48.5,94.276,12.778,39.353,24.1,81.514,41.04,115.778a210.372,210.372,0,0,0,31.088,46.8Q790.514,3483.98,794.378,3504.769Z" transform="translate(519.761 -2282.027)" fill="url(#b)"/><path d="M804.072,3730.258a230.009,230.009,0,0,1-33.881-39.564c-18.555-27.213-34.262-62.572-50.783-95.529-16.87-33.488-34.916-62.138-55.035-75.309-11.911-7.795-24.127-9.891-36.062-13.033a307.067,307.067,0,0,0-39.109-7.715,282.975,282.975,0,0,0-80.736,1.2,300.717,300.717,0,0,0-37.294,8.393c-11.245,3.287-22.532,8.257-33.771,11.944-18.227,5.962-36.46,7.078-54.412,9.865-14.339,2.177-28.763,5.423-43.326,14.407-16.2,9.984-32,26.96-47.01,47.107-9.169,12.324-17.909,25.338-27.454,35.88a231.824,231.824,0,0,1-29.394,27.259c-20.874,16.275-41.932,27.926-62.81,39.219-21.694,11.659-43.338,22.832-65.073,35.828-10.244,6.121-20.492,13.078-30.728,19.006q-14.178,8.222-28.305,15.423c-37.163,18.886-73.909,34.208-111.084,49.589-21.889,8.994-43.743,18.089-65.7,24.926-28.695,8.967-57.384,14.45-86.073,15.522A258.049,258.049,0,0,1-303.1,3842.6c-13.112-4.188-26.342-9.876-39.449-15.962-11.586-5.364-23.087-10.851-34.413-16.414-23.923-11.719-47.064-23.843-70.452-38.449-23.387-14.929-47.025-32.34-71.934-62.042q.13-16.384.259-32.775c25.007,33.376,48.261,52.08,71.165,67.875,22.9,15.437,45.455,27.976,69.077,40.624,11.225,6.024,22.7,12.091,34.307,18.161,13.056,6.848,26.309,13.513,39.375,18.348a230.206,230.206,0,0,0,93.607,14.173c30.131-1.618,60.263-8.714,90.4-20.066,21.709-8.145,43.128-18.945,64.586-27.9,34.058-14.394,66.417-23.784,100.393-39.446,8.925-4.188,17.932-8.881,26.988-14.221,10.15-5.975,20.4-13.9,30.582-20.95,22.953-15.879,45.884-30.781,68.839-46.759,22.707-15.873,45.582-32.667,68.023-54.449a312.5,312.5,0,0,0,31.031-34.856c9.713-12.728,18.414-28.13,27.843-41.984,15.146-22.216,31.327-38.439,47.7-44.6,15.411-5.821,30.1-3.438,44.827-1.16,17.536,2.612,36.4,6.449,54.982.319,11.083-3.681,22.433-10.622,33.461-15.577,12.179-5.471,24.345-10.586,36.5-15.068,25.463-9.382,50.891-16.026,76.348-17.679a172.584,172.584,0,0,1,38.272,1.611c11.7,1.813,24,2.959,35.727,11.986,19.963,15.379,36.752,47.915,51.864,85.051,14.629,36.119,28.154,74.756,45.673,105.239a218.245,218.245,0,0,0,32.8,43.9C798.019,3703.306,800.978,3716.892,804.072,3730.258Z" transform="translate(520.984 -2455.749)" fill="url(#b)"/><path d="M814.981,3939.637a261.653,261.653,0,0,1-35.455-33.256c-20.093-22.65-38.618-52.494-57.6-80.08-19.338-27.964-39.314-51.323-60.345-61.2-12.26-5.751-24.483-9.6-36.738-14.694-13.472-5.6-26.913-11.243-40.332-16.383-28.357-10.862-56.623-19.529-84.967-22.888q-62.764-7.628-125.762,29.91c-30.79,18.351-59.921,49.725-88.741,84.122-17.886,21.4-35.637,36.037-54.819,45.388-19.1,9.3-38.035,14.357-56.8,19.947-19.523,5.737-39.017,11.944-58.771,21.075-19.9,9.211-39.968,21.743-59.926,32.79-41.821,23.284-83.64,44.418-125.464,60.364-49.433,18.823-98.85,30.277-148.272,31.115a313.181,313.181,0,0,1-84.221-9.88c-24.336-6.259-48.4-16.065-72.539-26.327a772.958,772.958,0,0,1-72.147-34.44c-23.989-13.395-48.122-28.842-72.983-53.875q.131-16.617.263-33.239c24.863,28.745,48.574,45.8,72.056,60.458,23.484,14.348,46.74,26.306,70.713,37.748,11.672,5.586,23.513,11.067,35.427,16.386a338.8,338.8,0,0,0,38.159,14.829,266.76,266.76,0,0,0,87.933,11.71c28.342-.89,56.686-5.948,85.033-14.311,22.277-6.555,44.489-15.332,66.722-24.387,38-15.568,75.754-32.2,113.754-51.942,19.748-10.289,39.481-22.832,59.233-34.14,21.052-12.041,41.989-22.1,62.975-32.431,20.7-10.263,41.591-20.672,62.359-35.744a212.775,212.775,0,0,0,28.979-25.256c9.509-9.952,18.255-22.279,27.355-34.258,15.207-19.984,31.11-37.335,47.469-48.39,14.373-9.725,28.721-14.364,42.989-17.713,17.724-4.2,35.518-6.834,53.38-12.427,11.263-3.528,22.56-8.142,33.83-10.995a266.1,266.1,0,0,1,37.49-6.658,291,291,0,0,1,81.344,3.2,371.907,371.907,0,0,1,40.456,9.6c12,3.518,24.186,5.914,36.153,13.411,20.2,12.647,38.552,40.3,55.861,72.729,16.962,31.929,33.2,66.195,51.986,92.467a234.188,234.188,0,0,0,34.193,38.394Q810.017,3920.433,814.981,3939.637Z" transform="translate(522.208 -2615.847)" fill="url(#b)"/><path d="M825.7,4100.4a335.391,335.391,0,0,1-36.9-26.011c-21.828-17.721-42.975-40.816-64.316-61.9-21.5-21.123-43.285-38.572-65.471-45.079-26.968-7.808-53.679-25.88-79.912-42.449-29.017-18.265-57.763-35.935-86.746-47.266a171.211,171.211,0,0,0-41.747-11.145c-11.334-1.393-23.23-2.53-34.75,1.7-17.5,6.394-35.362,20.416-51.992,38.192-29.759,32.013-56.915,75.637-86.46,105.8-17.056,17.531-34.459,24.122-51.736,26.958-17.277,2.743-34.426,1.725-50.973,1.909-17.528.092-35.139,1.64-53.3,7.3-20.551,6.453-41,19.373-61.581,31.107-46.6,27.027-92.825,51.453-139.478,66.479-48.011,15.46-96.562,21.868-144.692,21.943a411.185,411.185,0,0,1-78.2-7.487c-23.788-4.59-47.558-11.91-71.284-19.983-24.828-8.364-49.444-17.769-74.12-28.836-24.678-11.274-49.415-24.213-74.486-44.426q.133-16.856.267-33.707c24.809,24.084,48.978,39.087,73.022,52.108a775.8,775.8,0,0,0,72.285,33.463c24.371,10.013,48.7,19.481,73.24,25.456a327.26,327.26,0,0,0,83.014,9.3c49-.727,98.038-11.107,147.049-29.305,42.643-15.85,85.249-37.734,127.883-61.73,20.282-11.33,40.647-24.063,60.864-32.851,19.369-8.4,38.435-13.681,57.52-18.323,18.292-4.522,36.752-8.354,55.439-16.328,19.154-8.2,37.042-21.673,54.96-42.589,28.656-33.338,57.536-67.09,88.013-87.917a230.984,230.984,0,0,1,51.792-26.357c25.018-9.161,50.279-7.544,75.014-3.161,27.752,4.838,55.409,14.893,83.177,26.788,13.862,5.939,27.757,12.353,41.695,18.551,12.625,5.621,25.18,9.856,37.828,15.478,21.135,9.4,41.356,31.708,61.035,58.366,19.367,26.371,38.352,54.9,58.69,76.579a271,271,0,0,0,35.713,31.929C819.363,4075.779,822.608,4088.274,825.7,4100.4Z" transform="translate(523.43 -2730.24)" fill="url(#b)"/><path d="M834.835,4240.2c-12.668-5.48-25.344-11.317-38.008-18.015-23.339-12.2-46.492-27.394-69.672-41.048-23.18-13.555-46.387-25.575-69.844-29.077-27.912-4.03-55.921-29.573-82.305-52.026-30.363-25.75-60.223-52.433-90.529-71.416-13.752-8.632-27.6-15.762-41.649-20.1a91.721,91.721,0,0,0-20.368-4.022c-5.4-.4-11.174-1.109-16.65,1.212-17.749,7.519-35.073,26.156-50.468,49.6-13.66,20.84-25.966,45.042-38.906,66.594-14.161,23.625-29.2,43.471-45.657,56.934-16.348,13.364-32.87,13.9-48.943,10.766-16.074-3.256-31.7-10.163-46.261-14.695-15.429-4.906-31.148-7.483-47.8-4.916a93.929,93.929,0,0,0-29.508,9.788c-11.2,5.791-22.338,12.06-33.432,18.27-51,29.113-100.9,54.244-152.011,66.69a359.642,359.642,0,0,1-36.549,7.357c-10.8,1.57-21.726,2.523-32.534,3.45-23.839,2.027-47.678,3-71.517,2.709A620.114,620.114,0,0,1-301.791,4273c-23.746-3.118-47.518-8.111-71.254-13.895-25.181-6.077-50.3-13.088-75.43-21.348-25.13-8.405-50.286-18.055-75.534-32.75q.135-17.086.27-34.173c25.072,19.275,49.864,31.684,74.6,42.5,24.74,10.619,49.426,19.641,74.3,27.622,24,7.786,48.051,14.763,72.1,19.092a437.056,437.056,0,0,0,77.26,6.946,527.6,527.6,0,0,0,75.8-5.469,425.785,425.785,0,0,0,66.948-14.739c47.754-14.7,94.951-39.572,142.639-67.28,10.741-6.168,21.508-12.4,32.3-18.366a136.587,136.587,0,0,1,30.149-12.433c17.6-4.889,34.615-5.622,51.519-4.772,16.119.707,32.979,2.833,50.027,1.226,17.045-1.7,34.274-7.138,51.116-23.872,15.963-15.863,31.231-35.161,46.261-56.112,13.229-18.4,26.386-37.748,40.343-53.775,16.328-18.723,34.46-34.407,51.9-40.239,11.593-3.9,23.546-2.389,34.921-.556a171.058,171.058,0,0,1,40.842,12.529c29.155,12.6,58.04,31.778,87.225,51.357,26.591,17.9,53.854,37.66,81.329,44.908,22.348,5.988,44.375,22.36,66.156,42.157,21.688,19.825,43.221,41.58,65.318,58.358a357.9,357.9,0,0,0,37.138,24.658C829.5,4216.844,832.322,4228.691,834.835,4240.2Z" transform="translate(524.657 -2826.554)" fill="url(#b)"/><path d="M840.992,4383.013c-13.181-3.077-26.369-6.25-39.561-9.748-48.7-12.408-97.315-31.289-146.024-34.027-28.5-1.188-56.737-30.29-83.032-57.115-31.572-32.084-62.372-66.89-93.867-92.693-13.918-11.436-27.982-21.237-42.346-27.668-11.671-5.28-24.9-10.729-37.141-6.192-18.3,6.757-35.294,29.235-49.605,56.331-13.386,25.4-24.8,54.168-37.572,78.908-13.363,25.948-28.372,46.42-45.756,55.886-16.571,9.04-32.4,4.68-47.463-3.181-15.061-8-29.352-19.506-42.854-28.075-13.742-8.815-28.045-14.581-43.7-14.321a74.86,74.86,0,0,0-28.913,6.508c-11.8,5.089-23.512,11.044-35.119,16.937-27.275,13.922-54.065,27.324-80.883,37.642a397.442,397.442,0,0,1-81.03,22.2A365.775,365.775,0,0,1-131,4388.6c-10.609.63-21.316.866-31.932,1.137q-34.342.872-68.684.208-35.077-.725-70.155-3.351c-23.582-1.781-47.167-4.5-70.747-7.733-51.016-7.437-102.016-14.915-153.037-31.009q.137-17.317.273-34.638c25.287,13.709,50.5,22.74,75.7,30.6,25.2,7.729,50.387,14.292,75.624,19.953a712.864,712.864,0,0,0,71.207,12.879,676.807,676.807,0,0,0,73.344,4.911c23.621.325,47.242-.485,70.864-2.246,10.77-.809,21.664-1.63,32.424-3.042A357.445,357.445,0,0,0-89.37,4369.4c51.779-11.85,102.2-36.833,153.855-66.06,11.154-6.183,22.372-12.417,33.646-18.137a88.909,88.909,0,0,1,29.432-9.273c16.473-2.145,31.939,1.032,47.07,6.669,14.315,5.235,29.7,13.01,45.582,17.158,15.887,4.007,32.277,4.392,48.595-8.287,16.59-12.892,31.6-32.843,45.61-56.911,12.918-22.156,25.074-47.244,38.7-68.969,15.209-24.21,32.486-43.619,50.33-51.142,5.479-2.31,11.275-1.511,16.669-1.014a89.917,89.917,0,0,1,20.426,4.489c14.124,4.73,28.031,12.359,41.833,21.514,30.482,20.172,60.475,48.239,91.013,75.109,26.378,23.291,54.535,49.824,82.569,53.28,23.643,3.043,47.1,13.968,70.531,26.353,23.434,12.481,46.848,26.417,70.4,37.674,12.726,6.152,25.457,11.548,38.18,16.655C837.475,4360.386,839.467,4371.811,840.992,4383.013Z" transform="translate(525.878 -2927.919)" fill="url(#b)"/><path d="M842.763,4541.967l-39.268-1.035q-74.678-1.978-149.349-3.92c-13.734-.2-27.233-5.034-39.363-14.091-14.858-10.9-29.3-25.85-43.5-41.632-32.557-36.225-64.06-77.44-96.522-108.389-24.466-23.642-51.6-46.163-78.58-39.715-19.05,4.438-35.562,27.152-49.431,56.567-25.781,55.246-45.172,130.271-83.24,136.4-17.231,3.17-35.168-4.49-50.7-16.643-13.584-10.713-25.449-24.683-37.827-35.709-12.965-11.622-26.77-19.358-42.283-20.3-20.9-1.192-42.577,8.222-63.2,16.537-28.407,11.749-56.123,23.277-83.876,31.3a379.5,379.5,0,0,1-84.094,14.678c-11.758.769-23.708,1.042-35.7.779-10.729-.23-21.468-.553-32.2-.823l-66.8-1.724q-146.964-3.795-293.926-7.686.139-17.553.277-35.108c51.082,13.992,102.162,20.58,153.245,27.1a1403.872,1403.872,0,0,0,140.52,9.9q34.145.735,68.29.118c10.618-.184,21.315-.326,31.923-.818a368.254,368.254,0,0,0,37.145-3.687,392.993,392.993,0,0,0,81.6-21.209c26.995-10.034,53.959-23.231,81.443-36.945,21.2-10.35,42.714-22.429,64.078-22.534,15.564,0,29.714,6.154,43.259,15.461,13.433,9.144,27.546,21.194,42.471,29.785,14.927,8.444,30.67,13.43,47.343,5.162,35.821-17.332,56.159-82.812,83.188-135.671,14.2-27.552,31.12-50.357,49.531-56.922,12.273-4.384,25.453,1.048,37.149,6.534,14.414,6.691,28.506,16.864,42.449,28.666,31.61,26.7,62.491,62.567,94.183,95.416,26.338,27.4,54.5,56.532,83.122,57.452,48.962,2.234,97.88,18.248,146.84,28.9,13.207,2.99,26.405,5.72,39.6,8.38,1.319,11.72,2.059,23.559,2.215,35.423Z" transform="translate(527.101 -3045.137)" fill="url(#b)"/></g></g></g></g></svg>