<svg xmlns="http://www.w3.org/2000/svg" width="79.054" height="61.926" viewBox="0 0 79.054 61.926"><g transform="translate(-52 -32.143)"><path d="M0,0H58.585V48.889c0,7.2-6.32,13.037-14.117,13.037H14.117C6.32,61.926,0,56.089,0,48.889Z" transform="translate(72.469 32.143)"/><g transform="translate(74.169 37.395) rotate(90)"><path d="M46.619,11.06a11.949,11.949,0,0,1-.794,4.166,11.049,11.049,0,0,1-6.1,6.1,10.916,10.916,0,0,1-4.166.794,11.948,11.948,0,0,1-4.166-.794,10.785,10.785,0,0,1-3.67-2.43L19.788,11.06h0L15.573,6.844a6.239,6.239,0,0,0-4.017-1.885A6.137,6.137,0,0,0,5.8,7.985a5.953,5.953,0,0,0-.645,1.537,6.173,6.173,0,0,0,3.174,7.042,6.05,6.05,0,0,0,.843.347,6.224,6.224,0,0,0,6.249-1.488l2.232-2.232,3.521,3.521-2.232,2.232a10.785,10.785,0,0,1-3.67,2.43,10.916,10.916,0,0,1-4.166.794,11.948,11.948,0,0,1-4.166-.794,11.049,11.049,0,0,1-6.1-6.1A11.411,11.411,0,0,1,0,11.06,11.948,11.948,0,0,1,.794,6.894a11.049,11.049,0,0,1,6.1-6.1A10.916,10.916,0,0,1,11.06,0a11.948,11.948,0,0,1,4.166.794,10.785,10.785,0,0,1,3.67,2.43L29.31,13.638h0l1.637,1.637a6.239,6.239,0,0,0,4.017,1.885,6.137,6.137,0,0,0,5.753-3.025,5.953,5.953,0,0,0,.645-1.537,6.173,6.173,0,0,0-3.174-7.042,6.05,6.05,0,0,0-.843-.347A6.224,6.224,0,0,0,31.1,6.7l-2.331,2.43L25.244,5.6l2.381-2.381a10.785,10.785,0,0,1,3.67-2.43A10.916,10.916,0,0,1,35.46,0a11.948,11.948,0,0,1,4.166.794,11.049,11.049,0,0,1,6.1,6.1A10.152,10.152,0,0,1,46.619,11.06Z" transform="translate(0 0)"/></g><path d="M10.149-.432H7.63V4.71L3.923-.432H1.783V9.33H4.3V4.214L8,9.33h2.153Zm8.222,6.238a3.353,3.353,0,0,0-.914-2.519,3.27,3.27,0,0,0-2.414-.9,3.5,3.5,0,0,0-2.558.966,3.5,3.5,0,0,0-.966,2.584A3.453,3.453,0,0,0,12.5,8.521a3.571,3.571,0,0,0,2.61.953,3.7,3.7,0,0,0,2.127-.6,2.31,2.31,0,0,0,1.07-1.631l-2.388-.117a.811.811,0,0,1-.874.522c-.666,0-.992-.352-.992-1.07h4.32Zm-3.354-1.67c.613,0,.927.352.953,1.044H14.051C14.09,4.54,14.442,4.136,15.017,4.136Zm11.25-1.605H23.63L22.377,5.937,21.124,2.531H18.475l2.949,6.8h1.892Zm6.956,3.276a3.353,3.353,0,0,0-.914-2.519,3.27,3.27,0,0,0-2.414-.9,3.5,3.5,0,0,0-2.558.966,3.5,3.5,0,0,0-.966,2.584,3.453,3.453,0,0,0,.979,2.584,3.571,3.571,0,0,0,2.61.953,3.7,3.7,0,0,0,2.127-.6,2.31,2.31,0,0,0,1.07-1.631l-2.388-.117a.811.811,0,0,1-.874.522c-.666,0-.992-.352-.992-1.07h4.32Zm-3.354-1.67c.613,0,.927.352.953,1.044H28.9C28.942,4.54,29.294,4.136,29.868,4.136Zm8.77-1.67a2.3,2.3,0,0,0-1.788.639V2.531h-2.3v6.8h2.375V6.159c0-.848.666-1.4,1.71-1.4ZM8.178,12.619H1.783v9.762H8.191V20.149H4.3V18.492H7.617V16.312H4.3V14.85H8.178Zm9.41,2.819a2.307,2.307,0,0,0-1.971.927,2.442,2.442,0,0,0-2.1-.927,1.936,1.936,0,0,0-1.592.613v-.47H9.679v6.8h2.375V18.727c0-.718.287-1.07.861-1.07s.835.352.835,1.057v3.667h2.375V18.727c0-.718.287-1.07.874-1.07q.822,0,.822,1.057v3.667H20.2V18.152A2.438,2.438,0,0,0,17.588,15.438Zm8.222,0a2.613,2.613,0,0,0-1.788.587v-.444H21.777V25.709h2.375V22.054a2.66,2.66,0,0,0,1.657.47,3.053,3.053,0,0,0,2.362-.979,3.615,3.615,0,0,0,.914-2.558,3.572,3.572,0,0,0-.914-2.558A3.019,3.019,0,0,0,25.81,15.438Zm-.4,2.036c.783,0,1.279.561,1.279,1.514s-.5,1.5-1.279,1.5A1.258,1.258,0,0,1,24.152,19.1v-.248A1.258,1.258,0,0,1,25.405,17.474Zm9.384.144V15.581H33.34l.013-2.193H30.978l-.013,2.193h-1.24v2.036h1.227l-.013,2.532c-.013,1.579,1.018,2.375,2.7,2.375a9.261,9.261,0,0,0,1.148-.078v-2.1a2.809,2.809,0,0,1-.561.052.846.846,0,0,1-.914-.874l.013-1.905Zm8.261-2.036H40.413l-1.253,3.393-1.266-3.393H35.258l2.623,6.056-1.814,4.072h2.6ZM6.573,25.526a5.113,5.113,0,0,0-3.667,1.357A4.847,4.847,0,0,0,1.5,30.551a4.847,4.847,0,0,0,1.409,3.667,5.113,5.113,0,0,0,3.667,1.357,4.994,4.994,0,0,0,3.145-1.018,4.259,4.259,0,0,0,1.592-2.78l-2.636-.222a2.074,2.074,0,0,1-2.193,1.788c-1.423,0-2.414-1-2.414-2.793,0-1.684.94-2.793,2.414-2.793a2.062,2.062,0,0,1,2.193,1.788L11.31,29.3a4.169,4.169,0,0,0-1.592-2.754A4.994,4.994,0,0,0,6.573,25.526Zm12.4,3.106H16.6v3.8c0,.613-.274.927-.835.927s-.783-.274-.783-.953V28.632H12.6v4.359a2.312,2.312,0,0,0,2.532,2.584,1.936,1.936,0,0,0,1.592-.613v.47h2.245Zm5.677-.144a2.613,2.613,0,0,0-1.788.587v-.444H20.615V38.759h2.375V35.105a2.66,2.66,0,0,0,1.657.47A3.053,3.053,0,0,0,27.01,34.6a3.615,3.615,0,0,0,.914-2.558,3.572,3.572,0,0,0-.914-2.558A3.019,3.019,0,0,0,24.648,28.488Zm-.4,2.036c.783,0,1.279.561,1.279,1.514s-.5,1.5-1.279,1.5a1.258,1.258,0,0,1-1.253-1.383v-.248A1.258,1.258,0,0,1,24.243,30.524Z" transform="translate(80.545 43.555)" fill="#fff"/></g></svg>