<svg viewBox="0 0 18 20" xmlns="http://www.w3.org/2000/svg" xmlns:xlink="http://www.w3.org/1999/xlink"><clipPath id="a"><path d="m13-8a5 5 0 0 1 5 5v2a1 1 0 0 1 -1 1 1 1 0 0 1 -1-1v-2a3 3 0 0 0 -3-3h-8a3 3 0 0 0 -3 3v2a1 1 0 0 1 -1 1 1 1 0 0 1 -1-1v-2a5 5 0 0 1 5-5zm-4-12a5 5 0 0 1 5 5 5 5 0 0 1 -5 5 5 5 0 0 1 -5-5 5 5 0 0 1 5-5zm0 2a3 3 0 0 0 -3 3 3 3 0 0 0 3 3 3 3 0 0 0 3-3 3 3 0 0 0 -3-3z"/></clipPath><clipPath id="b"><path d="m-5-25h28v30h-28z"/></clipPath><clipPath id="c"><path d="m0 0h18v-20h-18z"/></clipPath><g fill="#FF0049"><g clip-path="url(#a)" transform="translate(0 20)"><g clip-path="url(#b)"><g clip-path="url(#c)"><path d="m-5-25h28v30h-28z"/></g></g></g></g></svg>
