<svg viewBox="0 0 20 20" xmlns="http://www.w3.org/2000/svg" xmlns:xlink="http://www.w3.org/1999/xlink"><clipPath id="a"><path d="m0 0h20v20h-20z"/></clipPath><clipPath id="b"><path d="m2.649-2.063 10.644-10.644a1 1 0 0 1 1.414 0l3.293 3.293v-7.586a1 1 0 0 0 -1-1h-14a1 1 0 0 0 -1 1v14a1 1 0 0 0 .649.937zm2.765.063h11.586a1 1 0 0 0 1-1v-3.586l-4-4zm-2.414-18h14a3 3 0 0 1 3 3v14a3 3 0 0 1 -3 3h-14a3 3 0 0 1 -3-3v-14a3 3 0 0 1 3-3zm3.5 9a2.5 2.5 0 0 1 -2.5-2.5 2.5 2.5 0 0 1 2.5-2.5 2.5 2.5 0 0 1 2.5 2.5 2.5 2.5 0 0 1 -2.5 2.5zm0-2a.5.5 0 0 0 .5-.5.5.5 0 0 0 -.5-.5.5.5 0 0 0 -.5.5.5.5 0 0 0 .5.5z"/></clipPath><clipPath id="c"><path d="m-5-25h30v30h-30z"/></clipPath><clipPath id="d"><path d="m0 0h20v-20h-20z"/></clipPath><g fill="var(--icon-color, #000)" clip-path="url(#a)"><g clip-path="url(#b)" transform="translate(0 20)"><g clip-path="url(#c)"><g clip-path="url(#d)"><path d="m-5-25h30v30h-30z"/></g></g></g></g></svg>