<svg xmlns="http://www.w3.org/2000/svg" xmlns:xlink="http://www.w3.org/1999/xlink" width="20" height="20" viewBox="0 0 20 20">
  <defs>
    <clipPath id="clip-path">
      <rect width="20" height="20" fill="none"/>
    </clipPath>
    <clipPath id="clip-path-2">
      <path id="Path_33" data-name="Path 33" d="M2.649-2.063,13.293-12.707a1,1,0,0,1,1.414,0L18-9.414V-17a1,1,0,0,0-1-1H3a1,1,0,0,0-1,1V-3A1,1,0,0,0,2.649-2.063ZM5.414-2H17a1,1,0,0,0,1-1V-6.586l-4-4ZM3-20H17a3,3,0,0,1,3,3V-3a3,3,0,0,1-3,3H3A3,3,0,0,1,0-3V-17A3,3,0,0,1,3-20Zm3.5,9A2.5,2.5,0,0,1,4-13.5,2.5,2.5,0,0,1,6.5-16,2.5,2.5,0,0,1,9-13.5,2.5,2.5,0,0,1,6.5-11Zm0-2a.5.5,0,0,0,.5-.5.5.5,0,0,0-.5-.5.5.5,0,0,0-.5.5A.5.5,0,0,0,6.5-13Z" fill="none"/>
    </clipPath>
    <clipPath id="clip-path-3">
      <rect id="Rectangle_67" data-name="Rectangle 67" width="30" height="30" transform="translate(-5 -25)" fill="none"/>
    </clipPath>
    <clipPath id="clip-path-4">
      <path id="Path_32" data-name="Path 32" d="M0,0H20V-20H0Z" fill="none"/>
    </clipPath>
  </defs>
  <g id="icon_image" clip-path="url(#clip-path)">
    <g id="icon_image-2" data-name="icon_image" transform="translate(0 20)" clip-path="url(#clip-path-2)">
      <g id="Group_43" data-name="Group 43" clip-path="url(#clip-path-3)">
        <g id="Group_42" data-name="Group 42" clip-path="url(#clip-path-4)">
          <path id="Path_31" data-name="Path 31" d="M-5-25H25V5H-5Z"/>
        </g>
      </g>
    </g>
  </g>
</svg>
