<svg xmlns="http://www.w3.org/2000/svg" width="31.768" height="14.678" viewBox="0 0 31.768 14.678">
  <path id="Path_466" data-name="Path 466" d="M7.617,21H5.322V11.781q0-1.65.078-2.617-.225.234-.552.518t-2.192,1.8L1.5,10.023l4.2-3.3H7.617Zm14.355,0H12.295V19.262l3.682-3.7a31.316,31.316,0,0,0,2.163-2.368,5.654,5.654,0,0,0,.776-1.313,3.541,3.541,0,0,0,.244-1.318,2.01,2.01,0,0,0-.581-1.523,2.227,2.227,0,0,0-1.606-.557,4.283,4.283,0,0,0-1.587.3,7.428,7.428,0,0,0-1.772,1.094l-1.24-1.514a8,8,0,0,1,2.314-1.426,6.775,6.775,0,0,1,2.393-.42,4.707,4.707,0,0,1,3.193,1.04,3.513,3.513,0,0,1,1.2,2.8,4.909,4.909,0,0,1-.347,1.836,7.461,7.461,0,0,1-1.064,1.792,24.326,24.326,0,0,1-2.388,2.5l-2.48,2.4v.1h6.777ZM32.852,10a3.308,3.308,0,0,1-.791,2.261,3.981,3.981,0,0,1-2.227,1.216v.078a4.31,4.31,0,0,1,2.578,1.069,3.059,3.059,0,0,1,.859,2.271,3.773,3.773,0,0,1-1.455,3.179A6.675,6.675,0,0,1,27.676,21.2a9.324,9.324,0,0,1-4-.771V18.383a9.145,9.145,0,0,0,1.924.693,8.352,8.352,0,0,0,1.953.244,4.119,4.119,0,0,0,2.48-.615,2.226,2.226,0,0,0,.82-1.9,1.812,1.812,0,0,0-.908-1.68,5.8,5.8,0,0,0-2.852-.537H25.85V12.719h1.26q3.418,0,3.418-2.363a1.743,1.743,0,0,0-.6-1.416,2.682,2.682,0,0,0-1.758-.5,5.323,5.323,0,0,0-1.562.229,7.4,7.4,0,0,0-1.777.894l-1.123-1.6a7.485,7.485,0,0,1,4.561-1.445,5.426,5.426,0,0,1,3.369.928A3.045,3.045,0,0,1,32.852,10Z" transform="translate(-1.504 -6.518)"/>
</svg>
